<?xml version="1.0" encoding="utf-8"?>

<!--
 * Copyright (c) 2015, WSO2 Inc. (http://www.wso2.org) All Rights Reserved.
 *
 * WSO2 Inc. licenses this file to you under the Apache License,
 * Version 2.0 (the "License"); you may not use this file except
 * in compliance with the License.
 * You may obtain a copy of the License at
 *
 * http://www.apache.org/licenses/LICENSE-2.0
 *
 * Unless required by applicable law or agreed to in writing,
 * software distributed under the License is distributed on an
 * "AS IS" BASIS, WITHOUT WARRANTIES OR CONDITIONS OF ANY
 * KIND, either express or implied. See the License for the
 * specific language governing permissions and limitations
 * under the License.
-->

<svg version="1.1" id="Layer_1" xmlns="http://www.w3.org/2000/svg" xmlns:xlink="http://www.w3.org/1999/xlink" x="0px" y="0px"
	 viewBox="0 0 14 14" enable-background="new 0 0 14 14" xml:space="preserve">
<path d="M0.2,12.8c0.1-0.4,0.3-0.8,0.5-1.1c0.4-0.5,1.1-0.9,1.7-1.1c0.6-0.2,1.2-0.4,1.8-0.7C5.1,9.5,5.4,8.4,5,7.6
	C4.7,7,4.5,6.4,4.3,5.8C4.2,5.6,4.1,5.4,4,5.3c-0.4-0.5-0.4-1.1,0-1.7C4,3.4,4,3.2,4,3c0-2.4,2.1-3.7,4.2-2.7
	c0.9,0.4,1.3,1.2,1.4,2.2c0,0.2,0,0.4,0.1,0.6c0.1,0.2,0.2,0.4,0.3,0.6c0.1,0.5,0,1.2-0.4,1.5C9.3,5.5,9.3,5.9,9.3,6.2
	C9.2,6.6,9,7,8.8,7.4C8.7,7.6,8.6,7.9,8.5,8.2C8.4,8.7,8.6,9.2,9,9.6c0.2,0.2,0.5,0.4,0.8,0.5c0.9,0.3,1.7,0.7,2.5,1.1
	c0.7,0.4,1,1.1,1.1,2c0.1,0.6-0.1,0.8-0.7,0.8c-2.6,0-5.2,0-7.8,0c-0.7,0-1.5,0-2.2,0c-0.4,0-0.7,0-1.1,0c-0.4,0-1.1,0.2-1.3-0.3
	C0.1,13.4,0.2,13.1,0.2,12.8z M12.3,8.9V5.8c0-0.4-0.3-0.7-0.7-0.7h0c-0.4,0-0.8,0.3-0.8,0.8v3.1c0,0.4,0.3,0.7,0.7,0.7h0
	C12,9.6,12.3,9.3,12.3,8.9z M13.1,6.6h-3.1c-0.4,0-0.7,0.3-0.7,0.7v0c0,0.4,0.3,0.7,0.7,0.7h3.1c0.4,0,0.7-0.3,0.7-0.7v0
	C13.9,6.9,13.5,6.6,13.1,6.6z"/>
</svg>
