<?xml version="1.0" encoding="utf-8"?>

<!--
 * Copyright (c) 2015, WSO2 Inc. (http://www.wso2.org) All Rights Reserved.
 *
 * WSO2 Inc. licenses this file to you under the Apache License,
 * Version 2.0 (the "License"); you may not use this file except
 * in compliance with the License.
 * You may obtain a copy of the License at
 *
 * http://www.apache.org/licenses/LICENSE-2.0
 *
 * Unless required by applicable law or agreed to in writing,
 * software distributed under the License is distributed on an
 * "AS IS" BASIS, WITHOUT WARRANTIES OR CONDITIONS OF ANY
 * KIND, either express or implied. See the License for the
 * specific language governing permissions and limitations
 * under the License.
-->

<svg version="1.1" id="add-user" xmlns="http://www.w3.org/2000/svg" xmlns:xlink="http://www.w3.org/1999/xlink" x="0px" y="0px"
	 viewBox="0 0 14 14" enable-background="new 0 0 14 14" xml:space="preserve">
<path d="M6.6,0c1.5,0,2.8,1.2,2.8,3c0,0.2,0,0.4,0,0.6c0.4,0.6,0.4,1.2,0,1.7C9.3,5.4,9.2,5.6,9.1,5.8C8.9,6.4,8.7,7,8.4,7.6
	C8,8.4,8.3,9.5,9.2,9.9c0.6,0.3,1.2,0.5,1.8,0.7c0.6,0.2,1.3,0.6,1.7,1.1c0.2,0.3,0.4,0.7,0.5,1.1c0,0.3,0.1,0.6-0.1,0.9
	c-0.2,0.5-0.9,0.3-1.3,0.3c-0.4,0-0.7,0-1.1,0c-0.7,0-1.5,0-2.2,0c-0.6,0-1.3,0-1.9,0h0c-0.6,0-1.3,0-1.9,0c-0.7,0-1.5,0-2.2,0
	c-0.4,0-0.7,0-1.1,0s-1.1,0.2-1.3-0.3C-0.1,13.4,0,13.1,0,12.8c0.1-0.4,0.3-0.8,0.5-1.1c0.4-0.5,1.1-0.9,1.7-1.1
	c0.6-0.2,1.2-0.4,1.8-0.7c0.9-0.4,1.2-1.5,0.8-2.3C4.5,7,4.3,6.4,4.1,5.8C4,5.6,3.9,5.4,3.8,5.3c-0.4-0.5-0.4-1.1,0-1.7
	c0-0.2,0-0.4,0-0.6C3.8,1.1,5.1-0.1,6.6,0 M12.3,8.9V5.8c0-0.4-0.3-0.7-0.7-0.7l0,0c-0.4,0-0.8,0.3-0.8,0.8V9c0,0.4,0.3,0.7,0.7,0.7
	l0,0C12,9.6,12.3,9.3,12.3,8.9z M13.1,6.6H10c-0.4,0-0.7,0.3-0.7,0.7l0,0C9.3,7.7,9.6,8,10,8h3.1c0.4,0,0.7-0.3,0.7-0.7l0,0
	C13.9,6.9,13.5,6.6,13.1,6.6z"/>
</svg>
