<?xml version="1.0" encoding="utf-8"?>

<!--
 * Copyright (c) 2015, WSO2 Inc. (http://www.wso2.org) All Rights Reserved.
 *
 * WSO2 Inc. licenses this file to you under the Apache License,
 * Version 2.0 (the "License"); you may not use this file except
 * in compliance with the License.
 * You may obtain a copy of the License at
 *
 * http://www.apache.org/licenses/LICENSE-2.0
 *
 * Unless required by applicable law or agreed to in writing,
 * software distributed under the License is distributed on an
 * "AS IS" BASIS, WITHOUT WARRANTIES OR CONDITIONS OF ANY
 * KIND, either express or implied. See the License for the
 * specific language governing permissions and limitations
 * under the License.
-->

<svg version="1.1" id="apn" xmlns="http://www.w3.org/2000/svg" xmlns:xlink="http://www.w3.org/1999/xlink" x="0px" y="0px"
	 viewBox="-413 291.28 14 14" style="enable-background:new -413 291.28 14 14;" xml:space="preserve">
<path d="M-408.58032,292.15076c0.44733,0.04742,0.44095,0.29727,0.44046,0.60034c-0.0054,3.33124-0.00336,6.66251-0.0032,9.9938
	c0,0.04446,0,0.08893,0,0.16092c0.05273-0.04837,0.08875-0.07898,0.12204-0.11227c1.02542-1.02487,2.04926-2.05133,3.07837-3.07248
	c0.0762-0.07562,0.18381-0.1391,0.28735-0.16342c0.18643-0.04382,0.36548,0.06232,0.45062,0.23099
	c0.08215,0.16278,0.05573,0.3522-0.07349,0.49274c-0.07071,0.07687-0.14688,0.14871-0.22079,0.22263
	c-1.23724,1.23727-2.47443,2.47455-3.71179,3.71167c-0.25775,0.25769-0.47968,0.25861-0.73889-0.0004
	c-1.29556-1.29459-2.59073-2.58954-3.88522-3.88522c-0.23724-0.23746-0.21558-0.5629,0.04395-0.71985
	c0.18127-0.10968,0.38812-0.07935,0.5574,0.08911c0.48001,0.47763,0.95807,0.95721,1.43686,1.4361
	c0.56232,0.56241,1.12457,1.12491,1.68701,1.68723c0.02213,0.02213,0.04565,0.04285,0.08582,0.08035
	c0.0033-0.06024,0.00763-0.10226,0.00763-0.14432c0.00015-3.32642,0-6.65283-0.00015-9.97928
	c0-0.01462-0.00128-0.03864-0.00232-0.05322C-409.03897,292.43732-408.99039,292.17004-408.58032,292.15076z M-403.41968,304.40924
	c-0.44733-0.04742-0.44095-0.29727-0.44046-0.60034c0.0054-3.33124,0.00336-6.66251,0.0032-9.9938c0-0.04446,0-0.08893,0-0.16092
	c-0.05273,0.04837-0.08875,0.07898-0.12204,0.11227c-1.02542,1.02487-2.04929,2.05133-3.07837,3.07248
	c-0.0762,0.07562-0.18381,0.1391-0.28735,0.16342c-0.18643,0.04382-0.36548-0.06232-0.45062-0.23099
	c-0.08215-0.16278-0.05573-0.3522,0.07349-0.49274c0.07071-0.07687,0.14688-0.14871,0.22079-0.22263
	c1.23724-1.23727,2.47443-2.47455,3.71179-3.71167c0.25775-0.25769,0.47968-0.25861,0.73889,0.0004
	c1.29556,1.29459,2.59073,2.58954,3.88522,3.88522c0.23724,0.23746,0.21558,0.5629-0.04395,0.71985
	c-0.18127,0.10968-0.38812,0.07935-0.55743-0.08911c-0.47998-0.47763-0.95804-0.95721-1.43683-1.4361
	c-0.56232-0.56241-1.12457-1.12491-1.68701-1.68723c-0.02213-0.02213-0.04565-0.04285-0.08582-0.08035
	c-0.0033,0.06024-0.00763,0.10226-0.00763,0.14432c-0.00015,3.32642,0,6.65283,0.00015,9.97928
	c0,0.01462,0.00128,0.03864,0.00232,0.05322C-402.96103,304.12268-403.00961,304.38995-403.41968,304.40924z"/>
</svg>
