<?xml version="1.0" encoding="utf-8"?>

<!--
 * Copyright (c) 2015, WSO2 Inc. (http://www.wso2.org) All Rights Reserved.
 *
 * WSO2 Inc. licenses this file to you under the Apache License,
 * Version 2.0 (the "License"); you may not use this file except
 * in compliance with the License.
 * You may obtain a copy of the License at
 *
 * http://www.apache.org/licenses/LICENSE-2.0
 *
 * Unless required by applicable law or agreed to in writing,
 * software distributed under the License is distributed on an
 * "AS IS" BASIS, WITHOUT WARRANTIES OR CONDITIONS OF ANY
 * KIND, either express or implied. See the License for the
 * specific language governing permissions and limitations
 * under the License.
-->

<svg version="1.1" id="application" xmlns="http://www.w3.org/2000/svg" xmlns:xlink="http://www.w3.org/1999/xlink" x="0px"
	 y="0px" viewBox="0 0 13.1 14" enable-background="new 0 0 13.1 14" xml:space="preserve">
<path d="M6.4,6.6C6.2,6.6,6,6.5,5.8,6.4c-1-0.5-1.9-1-2.9-1.5C2.1,4.5,1.3,4.1,0.5,3.7l0,0C0.3,3.6,0.1,3.5,0.1,3.3
	c0-0.2,0.2-0.3,0.3-0.4l0,0l1.1-0.6C3,1.6,4.4,0.9,5.7,0.2C5.8,0.1,6,0.1,6.1,0.1c0,0,0.1,0,0.1,0l0,0h0.4l0,0
	C7,0.1,7.4,0.3,7.7,0.5C7.9,0.6,8,0.6,8.1,0.7c1,0.5,2.1,1.1,3.1,1.6c0.4,0.2,0.8,0.4,1.2,0.6l0,0C12.5,3,12.7,3,12.7,3.3
	c0,0.2-0.2,0.3-0.3,0.4l-0.2,0.1c-1.7,0.9-3.4,1.7-5.1,2.6C6.9,6.5,6.7,6.6,6.4,6.6z M6.3,0.2c0,0-0.1,0-0.1,0
	C6,0.3,5.9,0.3,5.9,0.4C4.5,1.1,3.1,1.8,1.7,2.5L0.6,3.1C0.4,3.2,0.4,3.2,0.4,3.3c0,0.1,0.1,0.1,0.2,0.2l0,0C1.4,3.9,2.2,4.3,3,4.7
	c1,0.5,1.9,1,2.9,1.5c0.4,0.2,0.8,0.2,1.1,0c1.7-0.9,3.4-1.7,5.1-2.6l0.2-0.1c0.1-0.1,0.2-0.1,0.2-0.2c0-0.1-0.1-0.1-0.2-0.2l0,0
	c-0.4-0.2-0.8-0.4-1.2-0.6c-1-0.5-2-1-3.1-1.6C7.9,0.8,7.7,0.8,7.6,0.7C7.3,0.5,7,0.3,6.6,0.2H6.3z M7.2,14H7l0,0
	c-0.2-0.1-0.3-0.3-0.3-0.5c0-0.7,0-1.5,0-2.2c0-1.1,0-2.3,0-3.4c0-0.5,0.2-0.8,0.6-1c1.5-0.8,3-1.5,4.5-2.3l0.5-0.3
	c0.1-0.1,0.2-0.1,0.3-0.1c0.2,0,0.4,0.1,0.4,0.5l0,2c0,1.1,0,2.1,0,3.2c0,0.5-0.2,0.9-0.7,1.1c-1.2,0.7-2.5,1.4-3.7,2.1l-1.2,0.7
	C7.4,13.9,7.3,13.9,7.2,14L7.2,14z M7,13.8h0.1l0,0c0,0,0.1,0,0.1-0.1L8.5,13c1.2-0.7,2.5-1.4,3.7-2.1c0.4-0.2,0.5-0.5,0.5-0.9
	c0-1.1,0-2.1,0-3.2l0-2c0-0.2-0.1-0.3-0.2-0.3c-0.1,0-0.1,0-0.2,0.1l-0.5,0.3c-1.5,0.7-3,1.5-4.5,2.3C7.1,7.2,6.9,7.5,6.9,7.8
	c0,1.1,0,2.3,0,3.4c0,0.7,0,1.5,0,2.2C6.9,13.6,6.9,13.7,7,13.8z M5.9,13.9c0.2-0.1,0.2-0.2,0.2-0.4c0-1.9,0-3.7,0-5.6
	c0-0.5-0.2-0.8-0.6-1C4.2,6.2,2.8,5.5,1.4,4.8C1.1,4.7,0.8,4.5,0.5,4.4C0.2,4.2,0,4.4,0,4.7c0,0,0,0.1,0,0.1c0,1.7,0,3.4,0,5.1
	c0,0.5,0.2,0.8,0.6,1.1c1.7,1,3.4,1.9,5.1,2.9C5.8,13.9,5.9,13.9,5.9,13.9z"/>
</svg>
