<?xml version="1.0" encoding="utf-8"?>

<!--
 * Copyright (c) 2015, WSO2 Inc. (http://www.wso2.org) All Rights Reserved.
 *
 * WSO2 Inc. licenses this file to you under the Apache License,
 * Version 2.0 (the "License"); you may not use this file except
 * in compliance with the License.
 * You may obtain a copy of the License at
 *
 * http://www.apache.org/licenses/LICENSE-2.0
 *
 * Unless required by applicable law or agreed to in writing,
 * software distributed under the License is distributed on an
 * "AS IS" BASIS, WITHOUT WARRANTIES OR CONDITIONS OF ANY
 * KIND, either express or implied. See the License for the
 * specific language governing permissions and limitations
 * under the License.
-->

<svg version="1.1" id="applications" xmlns="http://www.w3.org/2000/svg" xmlns:xlink="http://www.w3.org/1999/xlink" x="0px"
	 y="0px" viewBox="0 0.15 14 14" style="enable-background:new 0 0.15 14 14;" xml:space="preserve">
<path d="M6.71226,8.18619c0-0.05709-0.02101-0.09919-0.05461-0.12186c0.00012-0.00006,0.00024-0.00012,0.00036-0.00018
	C6.63831,8.05148,6.63079,8.0456,6.62242,8.04141C5.77688,7.61778,4.48621,6.98047,3.63827,6.56168
	C3.41073,6.4493,3.17049,6.45528,2.94217,6.56879C2.01881,7.02786,1.09718,7.49042,0.17467,7.9512
	C0.12678,7.97512,0.0708,8.00351,0.0835,8.06011c0.00867,0.03865,0.05315,0.08003,0.09199,0.09956
	c0.99333,0.49951,1.98834,0.99567,2.98227,1.49399C3.42482,9.78755,3.68849,9.78551,3.9548,9.65297
	c0.67757-0.33721,1.3558-0.6731,2.03382-1.0094c0.14419-0.07152,0.28863-0.14252,0.44375-0.21909c0,0.03954,0,0.06803,0,0.09652
	c0,1.09653-0.00397,2.19308,0.00269,3.28957c0.00176,0.28968-0.12726,0.47797-0.37524,0.60199
	c-0.77338,0.38678-1.54676,0.77355-2.32023,1.16016c-0.02255,0.01127-0.04603,0.0207-0.07593,0.03404c0-0.03873,0-0.06561,0-0.09249
	c0-0.91255,0.00054-1.82509-0.00098-2.73764c-0.00013-0.07794-0.0057-0.15772-0.02287-0.23344
	c-0.06314-0.27862-0.24356-0.46411-0.49159-0.5885C2.38424,9.57153,1.61927,9.19032,0.85457,8.80858
	C0.62002,8.69149,0.3853,8.57475,0.1503,8.45856C0.0484,8.40818-0.00931,8.445-0.01099,8.55991
	c-0.00032,0.02207-0.00008,0.04416-0.00008,0.06623c-0.00001,1.01803,0.00372,2.03608-0.0019,3.05408
	c-0.00215,0.39079,0.17827,0.6584,0.51529,0.82856c0.81324,0.41061,2.04966,1.03822,2.86433,1.446
	c0.02004,0.01003,0.04075,0.01914,0.06507,0.03009c0.03243,0.02061,0.07748,0.021,0.12734-0.0039
	c0.32665-0.16317,0.65312-0.32671,0.97972-0.48997c0.55237-0.27612,1.10599-0.5498,1.65677-0.82905
	c0.33856-0.17165,0.52152-0.437,0.51925-0.83293C6.70788,10.61477,6.7123,9.40046,6.71226,8.18619z M1.80341,12.84143
	c-0.38343-0.19151-0.76651-0.38376-1.15096-0.5732c-0.26112-0.12866-0.3887-0.32741-0.38626-0.62646
	c0.00735-0.90267,0.00266-1.80545,0.00267-2.70818c0-0.02791,0-0.05581,0-0.09197c0.02704,0.01097,0.04066,0.01547,0.05337,0.02181
	c0.90306,0.45013,1.80657,0.89937,2.70869,1.35139c0.2329,0.11669,0.35173,0.30396,0.3508,0.57229
	c-0.00331,0.95089-0.00179,1.90181-0.00149,2.85271C2.98416,13.44403,2.18881,13.03393,1.80341,12.84143z M3.81527,9.40455
	C3.64318,9.49002,3.47348,9.49309,3.3005,9.40645C2.42902,8.96996,1.55697,8.53464,0.68522,8.09869
	C0.66218,8.08717,0.6403,8.07333,0.61049,8.05637c0.02013-0.01222,0.03166-0.02038,0.04415-0.02664
	c0.80175-0.40172,1.603-0.80447,2.40647-1.20272c0.06776-0.03359,0.15099-0.0526,0.22615-0.05023
	c0.08774,0.00277,0.18233,0.02063,0.26046,0.05924c0.76148,0.37625,1.96321,0.96764,2.72623,1.34887
	C5.45433,8.59134,4.63462,8.99758,3.81527,9.40455z M13.98445,8.18619c0-0.05709-0.02101-0.09919-0.05461-0.12186
	c0.00012-0.00006,0.00024-0.00012,0.00036-0.00018c-0.0197-0.01268-0.02722-0.01856-0.03558-0.02275
	c-0.84554-0.42363-2.13622-1.06093-2.98415-1.47972c-0.22754-0.11238-0.46779-0.10641-0.6961,0.00711
	C9.291,7.02786,8.36937,7.49042,7.44686,7.9512C7.39896,7.97512,7.34298,8.00351,7.35568,8.06011
	c0.00867,0.03865,0.05315,0.08003,0.09199,0.09956C8.441,8.65919,9.43602,9.15534,10.42994,9.65366
	c0.26706,0.13389,0.53074,0.13184,0.79704-0.00069c0.67757-0.33721,1.3558-0.6731,2.03382-1.0094
	c0.14419-0.07152,0.28863-0.14252,0.44374-0.21909c0,0.03954,0,0.06803,0,0.09652c0.00001,1.09653-0.00397,2.19308,0.00269,3.28957
	c0.00176,0.28968-0.12726,0.47797-0.37524,0.60199c-0.77338,0.38678-1.54676,0.77355-2.32023,1.16016
	c-0.02255,0.01127-0.04603,0.0207-0.07593,0.03404c0-0.03873,0-0.06561,0-0.09249c0-0.91255,0.00054-1.82509-0.00098-2.73764
	c-0.00013-0.07794-0.0057-0.15772-0.02286-0.23344c-0.06314-0.27862-0.24356-0.46411-0.49159-0.5885
	C9.65642,9.57153,8.89146,9.19032,8.12676,8.80858C7.89221,8.69149,7.65748,8.57475,7.42248,8.45856
	C7.32059,8.40818,7.26288,8.445,7.2612,8.55991C7.26088,8.58198,7.26113,8.60406,7.26113,8.62614
	c-0.00001,1.01803,0.00372,2.03608-0.0019,3.05408c-0.00215,0.39079,0.17827,0.6584,0.51529,0.82856
	c0.81324,0.41061,2.04966,1.03822,2.86433,1.446c0.02004,0.01003,0.04075,0.01914,0.06507,0.03009
	c0.03243,0.02061,0.07748,0.021,0.12734-0.0039c0.32665-0.16317,0.65312-0.32671,0.97972-0.48997
	c0.55237-0.27612,1.10599-0.5498,1.65677-0.82905c0.33856-0.17165,0.52152-0.437,0.51925-0.83293
	C13.98006,10.61477,13.98448,9.40046,13.98445,8.18619z M9.07559,12.84143c-0.38343-0.19151-0.76651-0.38376-1.15096-0.5732
	c-0.26112-0.12866-0.3887-0.32741-0.38626-0.62646c0.00735-0.90267,0.00266-1.80545,0.00267-2.70818c0-0.02791,0-0.05581,0-0.09197
	C7.56808,8.85259,7.5817,8.85708,7.59441,8.86342c0.90306,0.45013,1.80657,0.89937,2.70869,1.35139
	c0.2329,0.11669,0.35173,0.30396,0.3508,0.57229c-0.00331,0.95089-0.00179,1.90181-0.00149,2.85271
	C10.25634,13.44403,9.46099,13.03393,9.07559,12.84143z M11.08745,9.40455c-0.17209,0.08548-0.34179,0.08855-0.51477,0.00191
	C9.70121,8.96996,8.82916,8.53464,7.95741,8.09869C7.93437,8.08717,7.91249,8.07333,7.88268,8.05637
	c0.02013-0.01222,0.03166-0.02038,0.04415-0.02664c0.80175-0.40172,1.603-0.80447,2.40647-1.20272
	c0.06776-0.03359,0.15099-0.0526,0.22615-0.05023c0.08774,0.00277,0.18233,0.02063,0.26046,0.05924
	c0.76148,0.37625,1.96321,0.96764,2.72623,1.34887C12.72652,8.59134,11.90681,8.99758,11.08745,9.40455z M10.18344,1.93784
	c0-0.05709-0.02101-0.09919-0.05461-0.12186c0.00012-0.00006,0.00024-0.00012,0.00036-0.00018
	c-0.0197-0.01268-0.02722-0.01856-0.03558-0.02275C9.24806,1.36942,7.95739,0.73212,7.10945,0.31333
	c-0.22754-0.11238-0.46779-0.10641-0.6961,0.00711C5.48999,0.7795,4.56836,1.24206,3.64585,1.70285
	C3.59796,1.72677,3.54198,1.75515,3.55468,1.81176c0.00867,0.03865,0.05315,0.08003,0.09199,0.09956
	C4.64,2.41083,5.63501,2.90699,6.62894,3.40531C6.896,3.5392,7.15967,3.53715,7.42598,3.40462
	c0.67757-0.33721,1.3558-0.6731,2.03382-1.0094C9.60399,2.3237,9.74843,2.2527,9.90355,2.17613c0,0.03954,0,0.06803,0,0.09652
	c0.00001,1.09653-0.00397,2.19308,0.00269,3.28957C9.90799,5.8519,9.77898,6.0402,9.531,6.16422
	C8.75762,6.55099,7.98424,6.93777,7.21077,7.32438c-0.02255,0.01127-0.04603,0.0207-0.07593,0.03404c0-0.03873,0-0.06561,0-0.09249
	c0-0.91255,0.00054-1.82509-0.00098-2.73764C7.13373,4.45035,7.12816,4.37057,7.111,4.29485
	c-0.06314-0.27862-0.24356-0.46411-0.49159-0.5885C5.85542,3.32318,5.09045,2.94197,4.32575,2.56022
	C4.0912,2.44313,3.85648,2.32639,3.62148,2.21021C3.51958,2.15982,3.46187,2.19665,3.4602,2.31155
	C3.45987,2.33363,3.46012,2.35571,3.46012,2.37778c-0.00001,1.01803,0.00372,2.03608-0.0019,3.05408
	c-0.00215,0.39079,0.17827,0.6584,0.51529,0.82856c0.81324,0.41061,2.04966,1.03822,2.86433,1.446
	c0.02004,0.01003,0.04075,0.01914,0.06507,0.03009c0.03243,0.02061,0.07748,0.021,0.12734-0.0039
	C7.3569,7.56943,7.68337,7.40589,8.00997,7.24263c0.55237-0.27612,1.10599-0.5498,1.65677-0.82905
	c0.33856-0.17165,0.52152-0.437,0.51925-0.83293C10.17906,4.36641,10.18348,3.15211,10.18344,1.93784z M5.27459,6.59308
	c-0.38343-0.19151-0.76651-0.38376-1.15096-0.5732c-0.26112-0.12866-0.3887-0.32741-0.38626-0.62646
	c0.00735-0.90267,0.00266-1.80545,0.00267-2.70818c0-0.02791,0-0.05581,0-0.09197C3.76707,2.60423,3.78069,2.60873,3.7934,2.61507
	C4.69646,3.0652,5.59997,3.51443,6.50209,3.96646c0.2329,0.11669,0.35173,0.30396,0.3508,0.57229
	C6.84957,5.48964,6.8511,6.44056,6.8514,7.39146C6.45534,7.19567,5.65999,6.78557,5.27459,6.59308z M7.28645,3.15619
	C7.11436,3.24167,6.94466,3.24474,6.77168,3.1581C5.9002,2.72161,5.02815,2.28628,4.1564,1.85034
	C4.13336,1.83882,4.11148,1.82498,4.08168,1.80802c0.02013-0.01222,0.03166-0.02038,0.04415-0.02664
	c0.80175-0.40172,1.603-0.80447,2.40647-1.20272c0.06776-0.03359,0.15099-0.0526,0.22614-0.05023
	C6.84617,0.5312,6.94076,0.54906,7.01889,0.58766c0.76148,0.37625,1.96321,0.96764,2.72623,1.34887
	C8.92551,2.34298,8.1058,2.74923,7.28645,3.15619z"/>
</svg>
