<?xml version="1.0" encoding="utf-8"?>

<!--
 * Copyright (c) 2015, WSO2 Inc. (http://www.wso2.org) All Rights Reserved.
 *
 * WSO2 Inc. licenses this file to you under the Apache License,
 * Version 2.0 (the "License"); you may not use this file except
 * in compliance with the License.
 * You may obtain a copy of the License at
 *
 * http://www.apache.org/licenses/LICENSE-2.0
 *
 * Unless required by applicable law or agreed to in writing,
 * software distributed under the License is distributed on an
 * "AS IS" BASIS, WITHOUT WARRANTIES OR CONDITIONS OF ANY
 * KIND, either express or implied. See the License for the
 * specific language governing permissions and limitations
 * under the License.
-->

<svg version="1.1" id="applications" xmlns="http://www.w3.org/2000/svg" xmlns:xlink="http://www.w3.org/1999/xlink" x="0px"
	 y="0px" viewBox="-413 291.28 14 14" style="enable-background:new -413 291.28 14 14;" xml:space="preserve">
<path d="M-406.34341,300.45557c0.00034-0.3306,0.00067-0.66122,0.00067-0.99185c0-0.08624-0.04709-0.1622-0.12457-0.20111
	c-0.80231-0.40195-2.0285-1.00751-2.8399-1.40826l-0.0542-0.02679c-0.23669-0.11688-0.49097-0.1145-0.73529,0.00699
	c-0.5939,0.29526-1.19696,0.59698-1.78018,0.88873c-0.30115,0.1507-0.60233,0.30136-0.90359,0.45184
	c-0.04816,0.02405-0.14835,0.0741-0.1243,0.18124c0.01389,0.06192,0.07278,0.11609,0.12494,0.1423
	c0.58679,0.2951,1.18399,0.59387,1.76154,0.88281c0.37686,0.18854,0.75372,0.37708,1.13043,0.56595
	c0.27518,0.13797,0.5556,0.13776,0.83359-0.00058c0.50537-0.25153,1.01111-0.50226,1.51691-0.75305l0.4552-0.22571
	c0.09579-0.04752,0.19168-0.09479,0.29099-0.14374l0.04126-0.02036c0,0.28406-0.00031,0.56808-0.00058,0.85214
	c-0.00076,0.7612-0.00153,1.54834,0.00317,2.32254c0.00146,0.24448-0.10223,0.41055-0.32632,0.52261
	c-0.74176,0.37097-1.48349,0.74191-2.22528,1.11273l0.00003-0.526c0.00009-0.69235,0.00018-1.40826-0.00101-2.11246
	c-0.00015-0.09216-0.00793-0.17108-0.02383-0.24127c-0.06097-0.26901-0.2334-0.47638-0.51248-0.61633
	c-0.57916-0.29047-1.16855-0.58459-1.73853-0.86902l-0.48575-0.24243c-0.22751-0.11359-0.4552-0.22681-0.68317-0.33954
	c-0.08829-0.04364-0.14627-0.02872-0.17938-0.00851c-0.04858,0.02969-0.07382,0.08578-0.07498,0.16669
	c-0.00024,0.01529-0.00018,0.03058-0.00012,0.04584l0.00003,0.01935c0,0.28119,0.00031,0.56238,0.00058,0.84357
	c0.00073,0.69409,0.00146,1.41183-0.00241,2.11761c-0.00217,0.39261,0.1785,0.68344,0.53696,0.86441
	c0.24283,0.12262,0.5246,0.2652,0.82132,0.41534c0.66071,0.33432,1.40958,0.71326,1.95642,0.98694
	c0.0174,0.0087,0.03525,0.01675,0.05545,0.02582l0.00638,0.00287c0.0253,0.01483,0.05405,0.02228,0.08444,0.02228
	c0.03256,0,0.06699-0.00851,0.10107-0.02551c0.1785-0.0892,0.35699-0.1785,0.53549-0.26779l0.41455-0.20734
	c0.16422-0.08212,0.32852-0.16397,0.49286-0.24585c0.36554-0.18213,0.7435-0.37042,1.11404-0.55829
	c0.36609-0.18564,0.54297-0.46973,0.54071-0.86862C-406.34512,302.14914-406.34424,301.28818-406.34341,300.45557z
	 M-406.98816,299.46225l-0.41068,0.20367c-0.61716,0.306-1.23428,0.612-1.85123,0.91843
	c-0.14951,0.07425-0.29297,0.07486-0.43857,0.00195c-0.55136-0.27615-1.103-0.55185-1.6546-0.82751l-0.8418-0.42081l0.3653-0.18311
	c0.62186-0.31177,1.26489-0.63416,1.89871-0.9483c0.05652-0.02802,0.12619-0.04367,0.18701-0.04169
	c0.08441,0.00266,0.16415,0.02057,0.22461,0.05045c0.18396,0.09091,0.39444,0.19473,0.61823,0.30515
	C-408.25137,298.83618-407.53232,299.19098-406.98816,299.46225z M-409.7099,304.19269l0.00021,0.4498
	c-0.2088-0.10437-0.49036-0.24783-0.76395-0.38727c-0.2572-0.13104-0.50015-0.25482-0.66678-0.33804l-0.22995-0.11496
	c-0.29025-0.14511-0.59036-0.29514-0.88647-0.44104c-0.23178-0.11423-0.33878-0.28775-0.33667-0.54605
	c0.00513-0.63034,0.00421-1.27112,0.0033-1.89084c-0.00034-0.23999-0.0007-0.47998-0.0007-0.71997l0.59192,0.29492
	c0.65189,0.32474,1.32596,0.66055,1.98813,0.99234c0.20447,0.10245,0.3035,0.26404,0.3027,0.49402
	C-409.71075,302.72131-409.7103,303.4693-409.7099,304.19269z M-399.00317,300.45557
	c0.00034-0.3306,0.00067-0.66122,0.00067-0.99185c0-0.08624-0.04709-0.1622-0.12457-0.20111
	c-0.80231-0.40195-2.0285-1.00751-2.8399-1.40826l-0.0542-0.02679c-0.23669-0.11688-0.49097-0.1145-0.73529,0.00699
	c-0.59393,0.29526-1.19696,0.59698-1.78018,0.88873c-0.30118,0.1507-0.60233,0.30136-0.90359,0.45184
	c-0.04816,0.02405-0.14838,0.0741-0.1243,0.18124c0.01389,0.06192,0.07275,0.11609,0.12494,0.1423
	c0.58679,0.2951,1.18399,0.59387,1.76151,0.88281c0.37689,0.18854,0.75375,0.37708,1.13046,0.56595
	c0.27518,0.13797,0.5556,0.13776,0.83359-0.00058c0.50534-0.25153,1.01111-0.50226,1.51688-0.75305l0.45523-0.22571
	c0.09579-0.04752,0.19168-0.09479,0.29099-0.14374l0.04126-0.02036c0,0.28406-0.00031,0.56808-0.00058,0.85214
	c-0.00076,0.7612-0.00153,1.54834,0.00317,2.32254c0.00146,0.24448-0.10223,0.41055-0.32632,0.52261
	c-0.74176,0.37097-1.48349,0.74191-2.22528,1.11273l0.00003-0.526c0.00009-0.69235,0.00018-1.40826-0.00101-2.11246
	c-0.00015-0.09216-0.00793-0.17108-0.02383-0.24127c-0.06097-0.26901-0.2334-0.47638-0.51248-0.61633
	c-0.57916-0.29047-1.16855-0.58459-1.73853-0.86902l-0.48575-0.24243c-0.22751-0.11359-0.4552-0.22681-0.68317-0.33954
	c-0.08829-0.04364-0.14627-0.02872-0.17938-0.00851c-0.04858,0.02969-0.07382,0.08578-0.07498,0.16669
	c-0.00024,0.01529-0.00018,0.03058-0.00012,0.04584l0.00003,0.01935c0,0.28119,0.00031,0.56238,0.00058,0.84357
	c0.00073,0.69409,0.00146,1.41183-0.00241,2.11761c-0.00217,0.39261,0.1785,0.68344,0.53696,0.86441
	c0.24283,0.12262,0.5246,0.2652,0.82132,0.41534c0.66071,0.33432,1.40958,0.71326,1.95642,0.98694
	c0.0174,0.0087,0.03525,0.01675,0.05545,0.02582l0.00638,0.00287c0.02527,0.01483,0.05405,0.02228,0.08444,0.02228
	c0.03256,0,0.06699-0.00851,0.10107-0.02551c0.1785-0.0892,0.35699-0.1785,0.53549-0.26779l0.41455-0.20734
	c0.16422-0.08212,0.32852-0.16397,0.49286-0.24585c0.36554-0.18213,0.7435-0.37042,1.11404-0.55829
	c0.36609-0.18564,0.54297-0.46973,0.54071-0.86862C-399.00488,302.14914-399.004,301.28818-399.00317,300.45557z
	 M-399.64792,299.46225l-0.41068,0.20367c-0.61716,0.306-1.23428,0.612-1.85123,0.91843
	c-0.14951,0.07425-0.29297,0.07486-0.43857,0.00195c-0.55136-0.27615-1.103-0.55185-1.6546-0.82751l-0.8418-0.42081l0.3653-0.18311
	c0.62186-0.31177,1.26489-0.63416,1.89871-0.9483c0.05652-0.02802,0.12619-0.04367,0.18701-0.04169
	c0.08438,0.00266,0.16415,0.02057,0.22461,0.05045c0.18396,0.09091,0.39444,0.19473,0.61823,0.30515
	C-400.91113,298.83618-400.19208,299.19098-399.64792,299.46225z M-402.36966,304.19269l0.00021,0.4498
	c-0.2088-0.10437-0.49039-0.24783-0.76398-0.38727c-0.2572-0.13104-0.50012-0.25482-0.66675-0.33804l-0.22995-0.11496
	c-0.29025-0.14511-0.59036-0.29514-0.88647-0.44104c-0.23178-0.11423-0.33878-0.28775-0.33667-0.54605
	c0.00513-0.63034,0.00421-1.27112,0.0033-1.89084c-0.00034-0.23999-0.0007-0.47998-0.0007-0.71997l0.59192,0.29492
	c0.65186,0.32474,1.32596,0.66055,1.98813,0.99234c0.20447,0.10245,0.3035,0.26404,0.3027,0.49402
	C-402.37051,302.72131-402.37006,303.4693-402.36966,304.19269z M-402.87515,294.1048
	c0.00034-0.3306,0.00067-0.66122,0.00067-0.99185c0-0.08624-0.04709-0.1622-0.12457-0.20111
	c-0.80231-0.40195-2.0285-1.00754-2.8399-1.40826l-0.0542-0.02679c-0.23669-0.11688-0.49097-0.1145-0.73529,0.00699
	c-0.5939,0.29526-1.19696,0.59695-1.78018,0.88873c-0.30115,0.1507-0.60233,0.30136-0.90359,0.45184
	c-0.04816,0.02405-0.14835,0.0741-0.1243,0.18121c0.01389,0.06192,0.07278,0.11609,0.12494,0.14233
	c0.58679,0.29507,1.18399,0.59387,1.76154,0.88278c0.37686,0.18857,0.75372,0.37711,1.13043,0.56598
	c0.27518,0.13794,0.5556,0.13773,0.83359-0.00058c0.50537-0.25153,1.01111-0.50229,1.51691-0.75305l0.45523-0.22574
	c0.09576-0.04752,0.19165-0.09479,0.29095-0.14374l0.04126-0.02032c0,0.28406-0.00031,0.56808-0.00058,0.85214
	c-0.00076,0.7612-0.00153,1.54834,0.00317,2.32254c0.00146,0.24448-0.10223,0.41052-0.32632,0.52261
	c-0.74176,0.37097-1.48349,0.74191-2.22528,1.11273l0.00003-0.526c0.00009-0.69235,0.00018-1.40829-0.00101-2.11246
	c-0.00015-0.09219-0.00793-0.17108-0.02383-0.24127c-0.06097-0.26901-0.2334-0.47638-0.51248-0.61633
	c-0.57916-0.29047-1.16855-0.58459-1.73853-0.86902l-0.48575-0.24243c-0.22751-0.11359-0.4552-0.22684-0.68317-0.33954
	c-0.08829-0.04364-0.14627-0.02872-0.17938-0.00851c-0.04858,0.02969-0.07382,0.08575-0.07498,0.16669
	c-0.00024,0.01529-0.00018,0.03058-0.00012,0.04584l0.00003,0.01935c0,0.28119,0.00031,0.56238,0.00058,0.84357
	c0.00073,0.69409,0.00146,1.4118-0.00241,2.11761c-0.00217,0.39261,0.1785,0.68344,0.53696,0.86441
	c0.24283,0.12262,0.5246,0.2652,0.82132,0.41534c0.66071,0.33432,1.40958,0.71326,1.95642,0.98694
	c0.0174,0.0087,0.03525,0.01672,0.05545,0.02582l0.00638,0.00287c0.0253,0.01483,0.05405,0.02228,0.08444,0.02228
	c0.03256,0,0.06699-0.00851,0.10107-0.02551c0.17853-0.0892,0.35699-0.1785,0.53549-0.26782l0.41455-0.20731
	c0.16422-0.08212,0.32855-0.16397,0.49286-0.24585c0.36554-0.18213,0.7435-0.37042,1.11404-0.55829
	c0.36609-0.18564,0.54297-0.46973,0.54071-0.86862C-402.87686,295.79837-402.87598,294.93741-402.87515,294.1048z
	 M-403.5199,293.11148l-0.41068,0.20364c-0.61716,0.306-1.23428,0.61203-1.85123,0.91843
	c-0.14951,0.07428-0.29297,0.07486-0.43857,0.00198c-0.55136-0.27618-1.10297-0.55185-1.6546-0.82751l-0.8418-0.42081
	l0.3653-0.18311c0.62186-0.31177,1.26489-0.63416,1.89871-0.94833c0.05652-0.02798,0.12619-0.04364,0.18701-0.04166
	c0.08441,0.00266,0.16415,0.02057,0.22461,0.05045c0.18396,0.09088,0.39444,0.19473,0.61823,0.30515
	C-404.78311,292.48541-404.06406,292.84021-403.5199,293.11148z M-406.24164,297.84192l0.00024,0.44977
	c-0.20883-0.10437-0.49039-0.2478-0.76398-0.38724c-0.2572-0.13104-0.50015-0.25482-0.66678-0.33807l-0.22995-0.11493
	c-0.29025-0.14511-0.59036-0.29514-0.88647-0.44104c-0.23178-0.11423-0.33878-0.28775-0.33667-0.54605
	c0.00513-0.63034,0.00421-1.27112,0.0033-1.89084c-0.00034-0.23999-0.0007-0.47998-0.0007-0.71997l0.59192,0.29492
	c0.65189,0.32474,1.32596,0.66055,1.98813,0.99234c0.20447,0.10245,0.3035,0.26404,0.3027,0.49402
	C-406.24249,296.37054-406.24203,297.11853-406.24164,297.84192z"/>
</svg>
