<?xml version="1.0" encoding="utf-8"?>

<!--
 * Copyright (c) 2015, WSO2 Inc. (http://www.wso2.org) All Rights Reserved.
 *
 * WSO2 Inc. licenses this file to you under the Apache License,
 * Version 2.0 (the "License"); you may not use this file except
 * in compliance with the License.
 * You may obtain a copy of the License at
 *
 * http://www.apache.org/licenses/LICENSE-2.0
 *
 * Unless required by applicable law or agreed to in writing,
 * software distributed under the License is distributed on an
 * "AS IS" BASIS, WITHOUT WARRANTIES OR CONDITIONS OF ANY
 * KIND, either express or implied. See the License for the
 * specific language governing permissions and limitations
 * under the License.
-->

<svg version="1.1" id="applications" xmlns="http://www.w3.org/2000/svg" xmlns:xlink="http://www.w3.org/1999/xlink" x="0px"
	 y="0px" viewBox="0 0 14.1 14" enable-background="new 0 0 14.1 14" xml:space="preserve">
<path d="M3.4,9.9c-0.1,0-0.2,0-0.4-0.1C2.5,9.5,2,9.3,1.5,9C1.1,8.8,0.7,8.6,0.3,8.3l0,0c-0.1,0-0.2-0.1-0.2-0.2
	c0-0.1,0.1-0.2,0.2-0.2l0,0l0.6-0.3C1.5,7.2,2.3,6.8,3,6.4c0.1,0,0.1,0,0.2-0.1c0,0,0,0,0.1,0l0,0h0.2l0,0c0.2,0.1,0.4,0.2,0.6,0.3
	c0.1,0,0.1,0.1,0.2,0.1C4.8,7,5.3,7.3,5.9,7.6c0.2,0.1,0.4,0.2,0.6,0.3l0,0c0.1,0,0.2,0.1,0.2,0.2c0,0.1-0.1,0.2-0.2,0.2L6.3,8.4
	C5.4,8.9,4.6,9.3,3.7,9.8C3.6,9.9,3.5,9.9,3.4,9.9z M3.3,6.5C3.3,6.5,3.2,6.5,3.3,6.5c-0.1,0-0.2,0.1-0.2,0.1
	C2.3,6.9,1.6,7.3,0.9,7.7L0.3,8C0.2,8,0.2,8.1,0.2,8.1c0,0,0,0.1,0.1,0.1l0,0c0.4,0.2,0.8,0.4,1.3,0.7c0.5,0.3,1,0.5,1.5,0.8
	c0.2,0.1,0.4,0.1,0.6,0c0.9-0.5,1.7-0.9,2.6-1.4l0.2-0.1c0.1,0,0.1-0.1,0.1-0.1c0,0,0-0.1-0.1-0.1l0,0C6.2,7.9,6,7.8,5.8,7.7
	C5.3,7.4,4.7,7.1,4.2,6.8C4.1,6.8,4.1,6.7,4,6.7C3.8,6.6,3.7,6.5,3.5,6.5H3.3z M3.8,13.9H3.6l0,0c-0.1-0.1-0.1-0.1-0.1-0.3
	c0-0.4,0-0.8,0-1.2c0-0.6,0-1.2,0-1.9c0-0.2,0.1-0.4,0.3-0.6c0.8-0.4,1.6-0.8,2.4-1.2l0.3-0.1c0.1,0,0.1,0,0.2,0
	c0.1,0,0.2,0,0.2,0.3l0,1.1c0,0.6,0,1.2,0,1.7c0,0.3-0.1,0.5-0.3,0.6c-0.7,0.4-1.3,0.8-2,1.1l-0.7,0.4C3.9,13.9,3.9,13.9,3.8,13.9
	L3.8,13.9z M3.7,13.8L3.7,13.8L3.7,13.8c0.1,0,0.1,0,0.1,0l0.7-0.4c0.6-0.4,1.3-0.8,2-1.1c0.2-0.1,0.3-0.3,0.3-0.5
	c0-0.6,0-1.2,0-1.7l0-1.1c0-0.1,0-0.2-0.1-0.2c0,0-0.1,0-0.1,0L6.2,8.9c-0.8,0.4-1.6,0.8-2.4,1.2c-0.2,0.1-0.3,0.2-0.3,0.4
	c0,0.6,0,1.2,0,1.9c0,0.4,0,0.8,0,1.2C3.6,13.7,3.6,13.8,3.7,13.8z M3.1,13.9c0.1,0,0.1-0.1,0.1-0.2c0-1,0-2,0-3
	c0-0.3-0.1-0.4-0.3-0.6C2.2,9.7,1.5,9.3,0.8,8.9C0.6,8.9,0.4,8.8,0.3,8.7C0.1,8.6,0,8.7,0,8.9c0,0,0,0.1,0,0.1c0,0.9,0,1.9,0,2.8
	c0,0.3,0.1,0.5,0.3,0.6c0.9,0.5,1.8,1,2.7,1.6C3,13.9,3.1,13.9,3.1,13.9z M10.6,10c-0.1,0-0.2,0-0.4-0.1c-0.5-0.3-1-0.5-1.5-0.8
	C8.4,8.8,7.9,8.6,7.5,8.4l0,0c-0.1,0-0.2-0.1-0.2-0.2C7.3,8,7.4,8,7.5,8l0,0l0.6-0.3c0.7-0.4,1.5-0.8,2.2-1.2c0.1,0,0.1,0,0.2-0.1
	c0,0,0,0,0.1,0l0,0h0.2l0,0c0.2,0.1,0.4,0.2,0.6,0.3c0.1,0,0.1,0.1,0.2,0.1c0.5,0.3,1.1,0.6,1.6,0.9c0.2,0.1,0.4,0.2,0.6,0.3l0,0
	c0.1,0,0.2,0.1,0.2,0.2c0,0.1-0.1,0.2-0.2,0.2l-0.2,0.1C12.7,9,11.8,9.4,11,9.9C10.9,9.9,10.7,10,10.6,10z M10.5,6.5
	C10.5,6.5,10.5,6.5,10.5,6.5c-0.1,0-0.2,0.1-0.2,0.1C9.6,7,8.9,7.4,8.1,7.8L7.6,8.1c-0.1,0-0.1,0.1-0.1,0.1c0,0,0,0.1,0.1,0.1l0,0
	C8,8.5,8.4,8.7,8.8,9c0.5,0.3,1,0.5,1.5,0.8c0.2,0.1,0.4,0.1,0.6,0c0.9-0.5,1.7-0.9,2.6-1.4l0.2-0.1c0.1,0,0.1-0.1,0.1-0.1
	c0,0,0-0.1-0.1-0.1l0,0c-0.2-0.1-0.4-0.2-0.6-0.3c-0.5-0.3-1.1-0.6-1.6-0.9c-0.1,0-0.1-0.1-0.2-0.1c-0.2-0.1-0.3-0.2-0.5-0.3H10.5z
	 M11,14h-0.1l0,0c-0.1-0.1-0.1-0.1-0.1-0.3c0-0.4,0-0.8,0-1.2c0-0.6,0-1.2,0-1.9c0-0.2,0.1-0.4,0.3-0.6c0.8-0.4,1.6-0.8,2.4-1.2
	l0.3-0.1c0.1,0,0.1,0,0.2,0c0.1,0,0.2,0,0.2,0.3l0,1.1c0,0.6,0,1.2,0,1.8c0,0.3-0.1,0.5-0.3,0.6c-0.7,0.4-1.3,0.8-2,1.1l-0.6,0.4
	C11.1,14,11.1,14,11,14L11,14z M10.9,13.9L10.9,13.9L10.9,13.9c0.1,0,0.1,0,0.1,0l0.6-0.4c0.6-0.4,1.3-0.8,2-1.1
	c0.2-0.1,0.3-0.3,0.3-0.5c0-0.6,0-1.2,0-1.8L14,9c0-0.1,0-0.2-0.1-0.2c0,0-0.1,0-0.1,0L13.5,9c-0.8,0.4-1.6,0.8-2.4,1.2
	c-0.2,0.1-0.3,0.2-0.3,0.4c0,0.6,0,1.3,0,1.9c0,0.4,0,0.8,0,1.2C10.9,13.8,10.9,13.8,10.9,13.9z M10.4,13.9c0.1,0,0.1-0.1,0.1-0.2
	c0-1,0-2,0-3c0-0.3-0.1-0.4-0.3-0.6C9.4,9.8,8.7,9.4,8,9C7.8,8.9,7.7,8.8,7.5,8.8c-0.1-0.1-0.3,0-0.3,0.2c0,0,0,0.1,0,0.1
	c0,0.9,0,1.9,0,2.8c0,0.3,0.1,0.5,0.3,0.6c0.9,0.5,1.8,1,2.7,1.6C10.3,13.9,10.3,13.9,10.4,13.9z M7.1,3.6c-0.1,0-0.2,0-0.4-0.1
	c-0.5-0.3-1-0.5-1.6-0.8C4.7,2.4,4.3,2.2,3.8,2l0,0C3.8,2,3.7,1.9,3.6,1.8c0-0.1,0.1-0.2,0.2-0.2l0,0l0.6-0.3
	c0.7-0.4,1.5-0.8,2.3-1.2c0.1,0,0.1,0,0.2-0.1c0,0,0,0,0.1,0l0,0h0.2l0,0c0.2,0.1,0.4,0.2,0.6,0.3c0.1,0,0.1,0.1,0.2,0.1
	c0.6,0.3,1.1,0.6,1.7,0.8c0.2,0.1,0.4,0.2,0.6,0.3l0,0c0.1,0,0.2,0.1,0.2,0.2c0,0.1-0.1,0.2-0.2,0.2l-0.1,0.1C9.3,2.5,8.3,3,7.4,3.5
	C7.3,3.5,7.2,3.6,7.1,3.6z M7,0.1C6.9,0.1,6.9,0.1,7,0.1c-0.1,0-0.2,0.1-0.2,0.1C6,0.6,5.2,1,4.5,1.4L3.9,1.7
	c-0.1,0-0.1,0.1-0.1,0.1c0,0,0,0.1,0.1,0.1l0,0c0.4,0.2,0.9,0.4,1.3,0.7c0.5,0.3,1,0.5,1.6,0.8c0.2,0.1,0.4,0.1,0.6,0
	c0.9-0.5,1.8-0.9,2.8-1.4l0.1-0.1c0.1,0,0.1-0.1,0.1-0.1c0,0,0-0.1-0.1-0.1l0,0C10,1.6,9.8,1.5,9.6,1.3C9,1.1,8.5,0.8,7.9,0.5
	c-0.1,0-0.1-0.1-0.2-0.1C7.5,0.3,7.3,0.2,7.2,0.1H7z M7.5,7.6H7.3l0,0C7.2,7.5,7.2,7.4,7.2,7.3c0-0.4,0-0.8,0-1.2c0-0.6,0-1.2,0-1.9
	c0-0.2,0.1-0.4,0.3-0.6C8.3,3.3,9.2,2.9,10,2.5l0.3-0.1c0.1,0,0.1,0,0.2,0c0.1,0,0.2,0.1,0.2,0.3l0,1.1c0,0.6,0,1.2,0,1.7
	c0,0.3-0.1,0.5-0.4,0.6c-0.7,0.4-1.4,0.8-2,1.1L7.6,7.5C7.6,7.5,7.6,7.6,7.5,7.6L7.5,7.6z M7.4,7.5L7.4,7.5L7.4,7.5
	c0.1,0,0.1,0,0.2,0L8.2,7c0.7-0.4,1.3-0.8,2-1.1c0.2-0.1,0.3-0.3,0.3-0.5c0-0.6,0-1.2,0-1.7l0-1.1c0-0.1,0-0.2-0.1-0.2
	c0,0-0.1,0-0.1,0L10,2.6C9.2,3,8.4,3.4,7.6,3.8C7.4,3.9,7.3,4.1,7.3,4.3c0,0.6,0,1.2,0,1.9c0,0.4,0,0.8,0,1.2
	C7.3,7.4,7.3,7.4,7.4,7.5z M6.8,7.5c0.1,0,0.1-0.1,0.1-0.2c0-1,0-2,0-3c0-0.3-0.1-0.4-0.3-0.6C5.8,3.4,5.1,3,4.3,2.6
	C4.2,2.5,4,2.4,3.8,2.4c-0.1-0.1-0.3,0-0.3,0.2c0,0,0,0.1,0,0.1c0,0.9,0,1.9,0,2.8c0,0.3,0.1,0.5,0.3,0.6c0.9,0.5,1.8,1,2.8,1.6
	C6.7,7.5,6.8,7.5,6.8,7.5z"/>
</svg>
