<?xml version="1.0" encoding="utf-8"?>

<!--
 * Copyright (c) 2015, WSO2 Inc. (http://www.wso2.org) All Rights Reserved.
 *
 * WSO2 Inc. licenses this file to you under the Apache License,
 * Version 2.0 (the "License"); you may not use this file except
 * in compliance with the License.
 * You may obtain a copy of the License at
 *
 * http://www.apache.org/licenses/LICENSE-2.0
 *
 * Unless required by applicable law or agreed to in writing,
 * software distributed under the License is distributed on an
 * "AS IS" BASIS, WITHOUT WARRANTIES OR CONDITIONS OF ANY
 * KIND, either express or implied. See the License for the
 * specific language governing permissions and limitations
 * under the License.
-->

<svg version="1.1" id="application" xmlns="http://www.w3.org/2000/svg" xmlns:xlink="http://www.w3.org/1999/xlink" x="0px"
	 y="0px" viewBox="0 0 12.5 14" style="enable-background:new 0 0 12.5 14;" xml:space="preserve">
<path d="M12.50816,3.17576c0-0.10629-0.03912-0.18467-0.10168-0.22688c0.00023-0.00011,0.00045-0.00022,0.00067-0.00033
	C12.37047,2.92495,12.35647,2.914,12.3409,2.9062c-1.57424-0.78872-3.97724-1.97526-5.55593-2.75497
	C6.36133-0.058,5.91404-0.04688,5.48896,0.16446C3.76983,1.01916,2.05393,1.88036,0.33639,2.73825
	c-0.08917,0.04454-0.1934,0.09739-0.16975,0.20278C0.18279,3.01299,0.2656,3.09003,0.33791,3.12639
	c1.84939,0.93,3.70192,1.85375,5.55243,2.78153c0.49721,0.24928,0.98813,0.24547,1.48395-0.00129
	c1.2615-0.62783,2.52424-1.25319,3.78659-1.87931c0.26845-0.13315,0.53737-0.26534,0.82617-0.4079c0,0.07361,0,0.12666,0,0.17971
	c0.00001,2.04153-0.00739,4.08311,0.005,6.12456c0.00327,0.53933-0.23693,0.8899-0.69862,1.1208
	c-1.43989,0.72011-2.87978,1.44021-4.31983,2.16001c-0.04199,0.02099-0.0857,0.03854-0.14136,0.06338c0-0.07211,0-0.12216,0-0.1722
	C6.83224,11.39669,6.83324,9.6977,6.83041,7.99871C6.83017,7.8536,6.81979,7.70506,6.78784,7.56408
	C6.67029,7.04534,6.33437,6.7,5.87259,6.4684c-1.4224-0.71339-2.84663-1.42313-4.27035-2.13387
	c-0.43669-0.218-0.87371-0.43535-1.31123-0.65167C0.1013,3.58906-0.00615,3.65762-0.00927,3.87155
	c-0.0006,0.0411-0.00014,0.08221-0.00014,0.12331c-0.00001,1.89538,0.00692,3.7908-0.00353,5.68612
	c-0.00401,0.72757,0.3319,1.22581,0.95937,1.54262c1.51411,0.76448,3.81608,1.93298,5.33284,2.69218
	c0.03731,0.01867,0.07586,0.03563,0.12115,0.05602c0.06038,0.03837,0.14426,0.0391,0.23709-0.00727
	c0.60816-0.30379,1.21598-0.60828,1.82406-0.91224c1.02842-0.51408,2.05914-1.02362,3.0846-1.54353
	c0.63034-0.31958,0.97097-0.81361,0.96675-1.55077C12.5,7.69732,12.50823,5.43651,12.50816,3.17576z M3.36879,11.84295
	c-0.71388-0.35656-1.42709-0.71449-2.14287-1.06719c-0.48615-0.23954-0.72369-0.60957-0.71915-1.16636
	c0.01369-1.68061,0.00496-3.36141,0.00497-5.04213c0-0.05196,0-0.10391,0-0.17123c0.05034,0.02043,0.0757,0.0288,0.09936,0.0406
	c1.68133,0.83806,3.3635,1.67445,5.04307,2.51604C6.08778,7.16994,6.30903,7.5186,6.30729,8.01818
	c-0.00617,1.77038-0.00333,3.54081-0.00277,5.31121C5.56713,12.96487,4.08633,12.20134,3.36879,11.84295z M7.1145,5.44411
	C6.7941,5.60325,6.47815,5.60897,6.15609,5.44766C4.53357,4.635,2.90997,3.8245,1.28694,3.01286
	c-0.0429-0.02145-0.08364-0.04722-0.13913-0.0788C1.18529,2.9113,1.20675,2.89611,1.23,2.88446
	c1.49271-0.74793,2.98448-1.49777,4.48039-2.23924c0.12615-0.06253,0.28112-0.09794,0.42104-0.09352
	c0.16335,0.00516,0.33946,0.03841,0.48493,0.11029C8.0341,1.3625,10.2715,2.46356,11.69209,3.17334
	C10.16613,3.93007,8.63998,4.68642,7.1145,5.44411z"/>
</svg>
