<?xml version="1.0" encoding="utf-8"?>

<!--
 * Copyright (c) 2015, WSO2 Inc. (http://www.wso2.org) All Rights Reserved.
 *
 * WSO2 Inc. licenses this file to you under the Apache License,
 * Version 2.0 (the "License"); you may not use this file except
 * in compliance with the License.
 * You may obtain a copy of the License at
 *
 * http://www.apache.org/licenses/LICENSE-2.0
 *
 * Unless required by applicable law or agreed to in writing,
 * software distributed under the License is distributed on an
 * "AS IS" BASIS, WITHOUT WARRANTIES OR CONDITIONS OF ANY
 * KIND, either express or implied. See the License for the
 * specific language governing permissions and limitations
 * under the License.
-->

<svg version="1.1" id="arduino" xmlns="http://www.w3.org/2000/svg" xmlns:xlink="http://www.w3.org/1999/xlink" x="0px" y="0px"
	 viewBox="0 0 14 14" style="enable-background:new 0 0 14 14;" xml:space="preserve">
<path d="M2.51111,6.67841c0.69049,0,1.3526,0,2.0329,0c0,0.21136,0,0.41406,0,0.64093c-0.66937,0-1.34253,0-2.0329,0
	C2.51111,7.10901,2.51111,6.90625,2.51111,6.67841z M11.11609,10.28082c-1.66022,0.22021-2.88586-0.49634-3.88177-1.74054
	c-0.07281-0.091-0.14093-0.18579-0.21167-0.2785c-0.00482-0.00635-0.01337-0.00983-0.0296-0.02136
	c-0.20544,0.24542-0.39795,0.505-0.62018,0.7359C5.2691,10.12354,3.94653,10.62433,2.383,10.16724
	C0.80151,9.7049-0.13452,8.25232,0.01575,6.62488c0.1347-1.45941,1.36932-2.69128,2.90247-2.91046
	c1.4588-0.20862,2.59821,0.37646,3.55756,1.41345C6.65631,5.323,6.8139,5.53937,6.99994,5.76782
	c0.44897-0.63239,0.96179-1.17334,1.6167-1.56757C10.4436,3.1004,12.82416,3.75281,13.677,5.62238
	C14.75665,7.98901,12.93237,10.03992,11.11609,10.28082z M6.24664,6.85571C6.03918,6.54474,5.84546,6.21863,5.59802,5.94147
	C5.03174,5.3075,4.35449,4.86292,3.36578,4.85364c-0.10376,0.01575-0.30402,0.03131-0.4967,0.078
	C1.83557,5.18188,1.09351,6.15259,1.18866,7.11877c0.13843,1.40601,1.51685,2.33746,2.88379,1.93811
	c1.04767-0.30609,1.69989-1.06567,2.20508-1.97949C6.30713,7.02393,6.28491,6.91309,6.24664,6.85571z M12.28149,5.62488
	c-0.66052-0.74146-1.75067-0.97992-2.67639-0.58386c-0.87,0.37219-1.44653,1.04639-1.88678,1.85443
	C7.68494,6.95673,7.70123,7.07361,7.73834,7.1402C8.0202,7.64594,8.36615,8.10278,8.81616,8.47321
	c0.50391,0.41486,1.07043,0.66925,1.73761,0.67615c0.17279-0.02356,0.3479-0.03644,0.51807-0.07239
	C12.68018,8.737,13.34943,6.82373,12.28149,5.62488z M10.771,5.98505h-0.66882v0.68396H9.42596v0.67505h0.67621v0.67786H10.771
	V7.34406h0.68756V6.66901H10.771V5.98505z"/>
</svg>
