<?xml version="1.0" encoding="utf-8"?>

<!--
 * Copyright (c) 2015, WSO2 Inc. (http://www.wso2.org) All Rights Reserved.
 *
 * WSO2 Inc. licenses this file to you under the Apache License,
 * Version 2.0 (the "License"); you may not use this file except
 * in compliance with the License.
 * You may obtain a copy of the License at
 *
 * http://www.apache.org/licenses/LICENSE-2.0
 *
 * Unless required by applicable law or agreed to in writing,
 * software distributed under the License is distributed on an
 * "AS IS" BASIS, WITHOUT WARRANTIES OR CONDITIONS OF ANY
 * KIND, either express or implied. See the License for the
 * specific language governing permissions and limitations
 * under the License.
-->

<svg version="1.1" id="bell" xmlns="http://www.w3.org/2000/svg" xmlns:xlink="http://www.w3.org/1999/xlink" x="0px" y="0px"
	 viewBox="3.54 0 10.46 14" enable-background="new 3.54 0 10.46 14" xml:space="preserve">
<path id="path1" d="M8.766,0.452c-0.438,0-0.788,0.379-0.788,0.875c0,0.029,0,0.088,0,0.117v0.029l0.146-0.029
	c0.175-0.029,0.35-0.029,0.525-0.029c0.233,0,0.496,0.029,0.729,0.058l0.117,0.029V1.444c0-0.029,0-0.087,0-0.117
	C9.553,0.831,9.203,0.452,8.766,0.452z M8.766,0.015c0.642,0,1.167,0.583,1.167,1.313c0,0.088,0,0.175-0.029,0.233H9.816L9.903,1.59
	c1.4,0.379,2.45,1.429,2.45,2.654c0,0.379-0.087,0.729-0.263,1.05c-0.117,1.167-0.087,3.004,0.846,3.821
	c1.458,1.283,1.05,2.246,0.875,2.596H9.349H8.97v1.021l0.058,0.029c0.233,0.088,0.408,0.321,0.408,0.583
	c0,0.35-0.292,0.642-0.642,0.642c-0.35,0-0.642-0.292-0.642-0.642c0-0.263,0.175-0.496,0.408-0.583l0.058-0.029V11.71H8.241H3.72
	c-0.175-0.321-0.554-1.283,0.875-2.596c1.05-0.933,0.963-3.063,0.817-4.171c-0.058-0.233-0.117-0.467-0.117-0.7
	c0-1.225,0.875-2.246,2.217-2.654L7.657,1.56V1.502c0-0.058,0-0.117,0-0.175C7.599,0.598,8.124,0.015,8.766,0.015z"/>
</svg>
