<?xml version="1.0" encoding="utf-8"?>

<!--
 * Copyright (c) 2015, WSO2 Inc. (http://www.wso2.org) All Rights Reserved.
 *
 * WSO2 Inc. licenses this file to you under the Apache License,
 * Version 2.0 (the "License"); you may not use this file except
 * in compliance with the License.
 * You may obtain a copy of the License at
 *
 * http://www.apache.org/licenses/LICENSE-2.0
 *
 * Unless required by applicable law or agreed to in writing,
 * software distributed under the License is distributed on an
 * "AS IS" BASIS, WITHOUT WARRANTIES OR CONDITIONS OF ANY
 * KIND, either express or implied. See the License for the
 * specific language governing permissions and limitations
 * under the License.
-->

<svg version="1.1" id="broken-link" xmlns="http://www.w3.org/2000/svg" xmlns:xlink="http://www.w3.org/1999/xlink" x="0px"
	 y="0px" viewBox="0 0 14 14" enable-background="new 0 0 14 14" xml:space="preserve">
<path id="XMLID_4_" fill="#010101" d="M13.1,0.9c0.4,0.4,0.7,1,0.7,1.6c0,0.6-0.2,1.1-0.7,1.6l-2.7,2.7C9.9,7.2,9.2,7.5,8.5,7.4
	l0-0.3C9.2,7.2,9.8,7,10.2,6.5l2.7-2.7c0.8-0.8,0.8-2,0-2.8c-0.8-0.8-2-0.8-2.8,0L7.5,3.8C7.1,4.1,6.9,4.5,6.9,5l-0.3,0
	c0.1-0.5,0.3-1,0.6-1.3l2.7-2.7C10.8,0,12.2,0,13.1,0.9z M10.7,7.9c0,0.2-0.1,0.4-0.1,0.5C11.3,8.6,12,8.8,12.7,9
	c0-0.2,0.1-0.3,0.1-0.5C12.1,8.3,11.4,8.1,10.7,7.9z M9.9,9.5C9.8,9.6,9.7,9.7,9.6,9.8c0.6,0.6,1.1,1.1,1.7,1.7
	c0.1-0.1,0.2-0.2,0.4-0.3C11.1,10.6,10.5,10.1,9.9,9.5z M10.6,6.9l2.7-2.7c1-1,1-2.5,0-3.5s-2.5-1-3.5,0L7.1,3.4
	C6.7,3.8,6.4,4.3,6.4,4.9l0.3,0c0.1-0.5,0.3-1,0.6-1.3l2.7-2.7c0.9-0.9,2.3-0.9,3.1,0c0.4,0.4,0.7,1,0.7,1.6c0,0.6-0.2,1.1-0.7,1.6
	l-2.7,2.7C9.9,7.2,9.2,7.5,8.5,7.4l0,0.3C9.3,7.7,10,7.5,10.6,6.9z M8.5,10.5c-0.2,0-0.3,0.1-0.4,0.1c-0.1,0-0.1,0.1-0.1,0.1
	c0.2,0.6,0.3,1.3,0.5,1.9c0,0,0.1,0.1,0.1,0.1c0.1,0,0.3-0.1,0.4-0.1C8.9,11.9,8.7,11.2,8.5,10.5z M7.1,8.8c0,0.5-0.2,1.1-0.6,1.4
	l-2.7,2.7c-0.8,0.8-2,0.8-2.8,0c-0.8-0.8-0.8-2,0-2.8l2.7-2.7C4,7.2,4.3,7,4.7,6.9l0-0.3C4.3,6.8,3.9,7,3.6,7.3L0.9,9.9
	c-0.4,0.4-0.7,1-0.7,1.6c0,0.6,0.2,1.1,0.7,1.6c0.9,0.9,2.3,0.9,3.1,0l2.7-2.7c0.4-0.4,0.7-1,0.7-1.6L7.1,8.8z M5.2,1.1
	C5,1.1,4.8,1.2,4.7,1.2c0.2,0.7,0.4,1.4,0.6,2.1c0.2,0,0.3-0.1,0.5-0.1C5.6,2.5,5.4,1.8,5.2,1.1z M2.5,2.3C2.4,2.4,2.3,2.6,2.2,2.7
	c0.5,0.5,1,1,1.5,1.5C3.8,4.1,4,4,4.1,3.9C3.5,3.3,3,2.8,2.5,2.3z M1.1,4.8C1,5,1,5.2,0.9,5.3c0.7,0.2,1.4,0.4,2.1,0.6
	c0-0.2,0.1-0.3,0.1-0.5C2.5,5.2,1.8,5,1.1,4.8z M3.4,7.1L0.7,9.8c-1,1-1,2.5,0,3.5c1,1,2.5,1,3.5,0l2.7-2.7c0.5-0.5,0.7-1.1,0.7-1.8
	l-0.3,0c0,0.6-0.2,1.2-0.7,1.6l-2.7,2.7c-0.9,0.9-2.3,0.9-3.1,0c-0.4-0.4-0.7-1-0.7-1.6c0-0.6,0.2-1.1,0.7-1.6l2.7-2.7
	C3.9,7,4.3,6.8,4.7,6.7l0-0.3C4.2,6.5,3.8,6.7,3.4,7.1z"/>
</svg>
