<?xml version="1.0" encoding="utf-8"?>

<!--
 * Copyright (c) 2015, WSO2 Inc. (http://www.wso2.org) All Rights Reserved.
 *
 * WSO2 Inc. licenses this file to you under the Apache License,
 * Version 2.0 (the "License"); you may not use this file except
 * in compliance with the License.
 * You may obtain a copy of the License at
 *
 * http://www.apache.org/licenses/LICENSE-2.0
 *
 * Unless required by applicable law or agreed to in writing,
 * software distributed under the License is distributed on an
 * "AS IS" BASIS, WITHOUT WARRANTIES OR CONDITIONS OF ANY
 * KIND, either express or implied. See the License for the
 * specific language governing permissions and limitations
 * under the License.
-->

<svg version="1.1" id="calendar_x2C_" xmlns="http://www.w3.org/2000/svg" xmlns:xlink="http://www.w3.org/1999/xlink" x="0px"
	 y="0px" viewBox="0 0 14 14" enable-background="new 0 0 14 14" xml:space="preserve">
<path d="M14,4.3c0-0.5,0-1,0-1.5c0-0.4-0.3-0.8-0.7-0.8c-0.5,0-1,0-1.4,0c0,0,0,0,0,0c0,0,0,0.1,0,0.2c0,0.3,0,0.5,0,0.8
	c0,0.3-0.3,0.6-0.7,0.6c-0.3,0-0.6-0.2-0.6-0.6c0-0.1,0-0.3,0-0.4c0-0.2,0-0.4,0-0.6C10,2,9.5,2,9.1,2c0,0.1,0,0.2,0,0.3
	c0,0.2,0,0.5,0,0.7c0,0.3-0.3,0.6-0.7,0.6C8.1,3.6,7.8,3.3,7.7,3c0-0.3,0-0.5,0-0.8c0-0.1,0-0.1,0-0.2C7.3,2,6.8,2,6.3,2
	c0,0.1,0,0.1,0,0.2c0,0.3,0,0.5,0,0.8c0,0.3-0.3,0.5-0.6,0.6C5.4,3.6,5.1,3.4,5,3.1C5,3,5,2.9,5,2.8C5,2.5,5,2.3,5,2
	C4.5,2,4,2,3.6,2c0,0.1,0,0.1,0,0.2c0,0.3,0,0.5,0,0.8c0,0.3-0.2,0.4-0.4,0.5c-0.2,0.1-0.5,0-0.7-0.1C2.3,3.3,2.2,3.1,2.2,2.9
	c0-0.3,0-0.5,0-0.8c-0.5,0-1,0-1.5,0C0.4,2,0.1,2.3,0,2.7c0,0.1,0,0.3,0,0.4C0,6,0,8.9,0,11.8c0,0.6,0.4,1,1,1c2.7,0,5.4,0,8,0
	c0.7,0,1.4,0,2,0c0,0,0,0,0.1,0v0h0.1v0c0.2,0,0.3-0.1,0.5-0.3c0.6-0.6,1.3-1.3,1.9-1.9c0.2-0.2,0.3-0.5,0.3-0.8C14,8,14,6.2,14,4.3
	z M13.4,4.6c0.2,0,0.2,0,0.2,0.2c0,0.5,0,1,0,1.5h-2.3V4.6C12,4.6,12.7,4.6,13.4,4.6z M5.7,10.3V8.4h2.6v1.9H5.7z M8.4,10.5v1.9
	c-0.9,0-1.8,0-2.6,0v-1.9H8.4z M5.6,8.3H3V6.4h2.6V8.3z M5.7,6.4h2.6v1.9H5.7V6.4z M2.8,8.3H0.4c0-0.6,0-1.3,0-1.9h2.4V8.3z
	 M2.8,8.4v1.9H0.4c0-0.6,0-1.3,0-1.9H2.8z M3,8.4h2.6v1.9H3V8.4z M8.5,8.4h2.6v1.9H8.5V8.4z M8.5,8.3V6.4h2.6v1.9H8.5z M11.3,6.4
	h2.3c0,0.6,0,1.3,0,1.9h-2.3V6.4z M11.2,4.6v1.7H8.5V4.6C9.4,4.6,10.3,4.6,11.2,4.6z M7,4.6c0.5,0,0.9,0,1.4,0v1.7H5.7V4.6
	C6.2,4.6,6.6,4.6,7,4.6z M5.6,4.6v1.7H3V4.6C3.8,4.6,4.7,4.6,5.6,4.6z M0.6,4.6c0.7,0,1.5,0,2.2,0v1.7H0.4c0-0.5,0-1,0-1.5
	C0.4,4.6,0.5,4.6,0.6,4.6z M0.4,11.8c0-0.4,0-0.9,0-1.3h2.4v1.9c-0.6,0-1.2,0-1.8,0C0.6,12.4,0.4,12.2,0.4,11.8z M3,12.4v-1.9h2.6
	v1.9c-0.6,0-1.3,0-1.9,0C3.5,12.4,3.2,12.4,3,12.4z M11,12.4c-0.8,0-1.7,0-2.5,0v-1.9h2.6v1.8C11.1,12.3,11.1,12.4,11,12.4z
	 M13.4,9.9c-0.4,0-0.9,0-1.3,0c-0.3,0-0.6,0.1-0.8,0.4h0V8.4h2.3c0,0.4,0,0.9,0,1.3C13.6,9.9,13.6,9.9,13.4,9.9z M5.5,2.9
	c0-0.5,0-1,0-1.5c0-0.1,0.1-0.2,0.2-0.2s0.2,0.1,0.2,0.2c0,0.2,0,0.5,0,0.7c0,0,0,0,0,0c0,0.2,0,0.5,0,0.7c0,0.1,0,0.1,0,0.2
	C5.8,3.1,5.7,3.1,5.6,3.1C5.5,3.1,5.5,3,5.5,2.9z M2.7,2.9c0-0.2,0-0.5,0-0.7c0-0.2,0-0.5,0-0.7c0-0.2,0.1-0.2,0.2-0.2
	c0.1,0,0.2,0.1,0.2,0.2c0,0.5,0,0.9,0,1.4C3.1,3,3,3.1,2.9,3.1C2.8,3.1,2.7,3,2.7,2.9z M8.2,2.9c0-0.5,0-1,0-1.5
	c0-0.1,0.1-0.2,0.2-0.2c0.1,0,0.2,0.1,0.2,0.2c0,0.2,0,0.5,0,0.7c0,0.2,0,0.5,0,0.7c0,0.1,0,0.1,0,0.2C8.5,3,8.4,3.1,8.3,3.1
	C8.2,3.1,8.2,3,8.2,2.9z M11,2.1C11,2.1,11,2.1,11,2.1c0-0.2,0-0.5,0-0.7c0-0.2,0.1-0.2,0.2-0.2c0.1,0,0.2,0.1,0.2,0.2
	c0,0.5,0,1,0,1.4c0,0.1-0.1,0.3-0.2,0.3C11,3.1,11,3,11,2.9C10.9,2.6,11,2.4,11,2.1z"/>
</svg>
