<?xml version="1.0" encoding="utf-8"?>

<!--
 * Copyright (c) 2015, WSO2 Inc. (http://www.wso2.org) All Rights Reserved.
 *
 * WSO2 Inc. licenses this file to you under the Apache License,
 * Version 2.0 (the "License"); you may not use this file except
 * in compliance with the License.
 * You may obtain a copy of the License at
 *
 * http://www.apache.org/licenses/LICENSE-2.0
 *
 * Unless required by applicable law or agreed to in writing,
 * software distributed under the License is distributed on an
 * "AS IS" BASIS, WITHOUT WARRANTIES OR CONDITIONS OF ANY
 * KIND, either express or implied. See the License for the
 * specific language governing permissions and limitations
 * under the License.
-->

<svg version="1.1" id="change-passcode" xmlns="http://www.w3.org/2000/svg" xmlns:xlink="http://www.w3.org/1999/xlink" x="0px"
	 y="0px" viewBox="0 0 14 14" style="enable-background:new 0 0 14 14;" xml:space="preserve">
<path d="M14,4.4v7.3c0,0.3-0.2,0.5-0.5,0.5H2.2C2.1,12.2,2,12.1,2,12v-0.2c0-0.1,0.1-0.1,0.1-0.1h11.3c0.1,0,0.1-0.1,0.1-0.1V4.4
	c0-0.1-0.1-0.1-0.1-0.1H9.7C9.8,4.2,9.9,4,9.8,3.9h3.6C13.8,3.9,14,4.1,14,4.4z M12.5,7.7c0.3866,0,0.7,0.3134,0.7,0.7
	s-0.3134,0.7-0.7,0.7s-0.7-0.3134-0.7-0.7S12.1134,7.7,12.5,7.7z M10.4,7.7c0.3866,0,0.7,0.3134,0.7,0.7s-0.3134,0.7-0.7,0.7
	S9.7,8.7866,9.7,8.4S10.0134,7.7,10.4,7.7z M9.8,3.9c0,0.1,0,0.3-0.1,0.4h-2C7.6,4.2,7.5,4,7.3,3.9H9.8z M6.5,2.9
	C6.8,2.6,7,2.3,7.4,2c0.2-0.2,0.5-0.2,0.7,0c0.5,0.6,1,1.1,1.6,1.6c0.1,0.1,0.1,0.2,0.1,0.3H7.3C7,3.6,6.7,3.3,6.5,2.9L6.5,2.9z
	 M8.7,5.3c-0.3-0.3-0.6-0.7-1-1h2l0,0C9.3,4.6,9.1,4.9,8.7,5.3z M8.3,7.7C8.6866,7.7,9,8.0134,9,8.4S8.6866,9.1,8.3,9.1
	S7.6,8.7866,7.6,8.4S7.9134,7.7,8.3,7.7z M7.1,4.3C7.5,4.7,8,5.2,8.4,5.6C7.7,6.3,7,7,6.3,7.7H6.2C5.8,7.7,5.4,8,5.4,8.4v0.1
	C4.7,9.2,3.9,10,3.1,10.8C2.3,10,1.6,9.2,0.9,8.5c1.4-1.4,2.8-2.8,4.3-4.2H7.1z M7.1,4.3h-2C5.3,4.2,5.4,4,5.6,3.9h1.1
	C6.8,4,7,4.2,7.1,4.3z M6.3,7.7c0.3,0,0.6,0.3,0.6,0.7S6.6,9.1,6.2,9.1c-0.4,0-0.6-0.3-0.7-0.6C5.7,8.2,6,7.9,6.3,7.7z M6.7,3.9H5.6
	C5.8,3.7,6,3.5,6.2,3.3C6.3,3.5,6.5,3.7,6.7,3.9z M6.2,7.7h0.1C6,7.9,5.7,8.2,5.5,8.5V8.4C5.4,8,5.8,7.7,6.2,7.7z M5.6,3.9
	C5.4,4,5.3,4.2,5.1,4.3H1.2c-0.1,0-0.1,0.1-0.1,0.1v3.3C1.1,7.8,1,7.8,1,7.8H0.8c-0.1,0-0.1-0.1-0.1-0.1V4.4c0-0.3,0.2-0.5,0.5-0.5
	H5.6z M0.4,8.9c0.8,0.8,1.5,1.5,2.3,2.3c-0.8,0.1-1.7,0.3-2.6,0.4c-0.2,0-0.1-0.1-0.1-0.1C0.2,10.6,0.3,9.7,0.4,8.9z"/>
</svg>
