<?xml version="1.0" encoding="utf-8"?>

<!--
 * Copyright (c) 2015, WSO2 Inc. (http://www.wso2.org) All Rights Reserved.
 *
 * WSO2 Inc. licenses this file to you under the Apache License,
 * Version 2.0 (the "License"); you may not use this file except
 * in compliance with the License.
 * You may obtain a copy of the License at
 *
 * http://www.apache.org/licenses/LICENSE-2.0
 *
 * Unless required by applicable law or agreed to in writing,
 * software distributed under the License is distributed on an
 * "AS IS" BASIS, WITHOUT WARRANTIES OR CONDITIONS OF ANY
 * KIND, either express or implied. See the License for the
 * specific language governing permissions and limitations
 * under the License.
-->

<svg version="1.1" id="change-passcode" xmlns="http://www.w3.org/2000/svg" xmlns:xlink="http://www.w3.org/1999/xlink" x="0px"
	 y="0px" viewBox="-413 291.28 14 14" style="enable-background:new -413 291.28 14 14;" xml:space="preserve">
<path d="M-401.53003,300.09c-0.57996,0-1.06-0.47998-1.06-1.06s0.48004-1.06,1.06-1.06c0.59003,0,1.06006,0.47998,1.06006,1.06
	S-400.94,300.09-401.53003,300.09z M-405.72998,299.03c0,0.58002,0.47998,1.06,1.07001,1.06c0.57996,0,1.06-0.47998,1.06-1.06
	s-0.48004-1.06-1.06-1.06C-405.25,297.97-405.72998,298.44998-405.72998,299.03z M-404.25,296.12997
	c0.26001-0.25995,0.46997-0.50995,0.71002-0.73999c0.07996-0.07996,0.15997-0.14996,0.25-0.21997
	c0.15997-0.16003,0.19995-0.35999,0.10999-0.54004c-0.02002-0.04999-0.06-0.10999-0.10999-0.15997
	c-0.56-0.48999-1.12-1.06-1.62-1.62c-0.10004-0.10004-0.22003-0.16003-0.35004-0.16003c-0.12,0-0.23999,0.06-0.34998,0.16003
	c-0.35004,0.34998-0.63,0.64001-0.91003,0.91998c-0.04803,0.04852-0.07001,0.07001-0.07001,0.07001
	c0.02002,0.02002,0.04004,0.03998,0.06,0.06c0.73004,0.72998,1.45001,1.45001,2.19,2.20001l0.06158,0.05411L-404.25,296.12997z
	 M-407.79999,300.09c0.58997,0,1.06-0.47998,1.06-1.06c0-0.03003,0-0.04999-0.01001-0.08002
	c-0.38,0.38-0.76001,0.76001-1.14001,1.13C-407.85999,300.09-407.83002,300.09-407.79999,300.09z M-412.15002,299.45999
	c0.02002,0.02002,0.05005,0.04999,0.07001,0.07001c0.67999,0.66998,1.41003,1.40997,2.14001,2.14001
	c0.01001,0.01001,0.03003,0.02997,0.03998,0.03998c0.57001-0.57001,1.15002-1.14001,1.72003-1.70001
	c0.45001-0.44995,0.90997-0.89996,1.35999-1.34998c0.72998-0.72998,1.47003-1.46002,2.20001-2.22003
	c-0.01001-0.00995-0.01001-0.00995-0.02002-0.01996c-0.70001-0.70001-1.45001-1.45001-2.20001-2.20001
	c-0.00995-0.01001-0.01996-0.02002-0.02997-0.03003c-0.15002,0.15002-0.28998,0.29004-0.44,0.44
	c-0.25,0.25-0.51001,0.51001-0.76001,0.76001C-409.42999,296.74997-410.78998,298.10001-412.15002,299.45999z M-399.63,294.62997
	h-2.95001h-0.32996c0.06,0.25-0.01001,0.52002-0.22003,0.74005c-0.01001,0.00995-0.01001,0.00995-0.02002,0.01996h0.04004
	l3.22998-0.02997c0,0,0.10999,0,0.10999,0.10999l-0.01001,7.02002c0,0,0,0.09998-0.09998,0.09998h-11.63
	c-0.02002,0-0.04999,0.01001-0.07001,0.01001c-0.01996,0.02002-0.04999,0.04999-0.04999,0.10999v0.54999
	c0,0.10004,0.09998,0.10004,0.21002,0.10004h11.88995c0.32001,0,0.53003-0.21002,0.53003-0.52002v-7.69
	C-399,294.84-399.21002,294.62997-399.63,294.62997z M-412.89001,298.73001l0.56-0.02002c0,0,0.09003,0,0.09003-0.09998v-3.13
	c0,0,0-0.09003,0.10999-0.09003h3.70001l0.76001-0.76001h-4.79999c-0.32001,0-0.53003,0.21002-0.53003,0.52002v3.47998
	C-413,298.62997-413,298.73001-412.89001,298.73001z M-410.25,302.12997c-0.77002-0.76996-1.53998-1.54999-2.32001-2.31995
	c-0.08002,0.44995-0.14996,0.90997-0.21997,1.37c-0.07001,0.39996-0.14001,0.81-0.20001,1.22998c0,0,0,0.01001,0,0.02002
	c0,0-0.01001,0.00995-0.01001,0.02997V302.47c0,0.03998,0.03003,0.08002,0.15002,0.08002
	c0.79999-0.13,1.65997-0.26001,2.45996-0.40002C-410.34003,302.14999-410.29999,302.13998-410.25,302.12997z"/>
</svg>
