<?xml version="1.0" encoding="utf-8"?>

<!--
 * Copyright (c) 2015, WSO2 Inc. (http://www.wso2.org) All Rights Reserved.
 *
 * WSO2 Inc. licenses this file to you under the Apache License,
 * Version 2.0 (the "License"); you may not use this file except
 * in compliance with the License.
 * You may obtain a copy of the License at
 *
 * http://www.apache.org/licenses/LICENSE-2.0
 *
 * Unless required by applicable law or agreed to in writing,
 * software distributed under the License is distributed on an
 * "AS IS" BASIS, WITHOUT WARRANTIES OR CONDITIONS OF ANY
 * KIND, either express or implied. See the License for the
 * specific language governing permissions and limitations
 * under the License.
-->

<svg version="1.1" id="checklist" xmlns="http://www.w3.org/2000/svg" xmlns:xlink="http://www.w3.org/1999/xlink" x="0px" y="0px"
	 viewBox="0 0 14 14" enable-background="new 0 0 14 14" xml:space="preserve">
<path d="M0,2.6C0,2.6,0,2.6,0,2.6C0,2.4,0.1,2.2,0.2,2.1C0.3,2.1,0.4,2,0.5,2c0.1,0,0.2,0.1,0.3,0.2C1,2.4,1.2,2.5,1.4,2.7
	C1.7,2.4,2,2,2.3,1.6c0.1-0.1,0.2-0.3,0.4-0.3C2.8,1.2,3,1.2,3.2,1.2c0.2,0,0.3,0.2,0.3,0.3c0,0.2-0.1,0.3-0.2,0.4
	C2.8,2.5,2.3,3,1.9,3.5C1.8,3.6,1.6,3.8,1.4,3.8C1.2,3.8,1,3.6,0.9,3.4C0.6,3.2,0.4,3,0.1,2.7C0.1,2.7,0,2.6,0,2.6z M0.4,7.3
	c0.2,0.2,0.4,0.3,0.5,0.5c0.3,0.3,0.6,0.3,0.8,0c0.4-0.5,0.9-1,1.4-1.5C3.5,6,3.7,5.7,3.4,5.5C3.2,5.2,2.9,5.4,2.7,5.6
	C2.3,6.1,1.8,6.5,1.5,6.9C1.3,6.7,1,6.5,0.7,6.3C0.7,6.2,0.6,6.2,0.4,6.2C0.2,6.3,0.2,6.4,0.1,6.5C-0.1,6.6,0,6.9,0.2,7
	C0.2,7.1,0.3,7.2,0.4,7.3z M13.3,1.4H5.9c-0.4,0-0.8,0.3-0.8,0.8v0.2C5.2,2.7,5.5,3,5.9,3h7.3C13.7,3,14,2.8,14,2.4V2.1
	C14.1,1.7,13.7,1.4,13.3,1.4z M13.3,5.8H5.9c-0.4,0-0.8,0.3-0.8,0.8v0.2c0,0.4,0.3,0.8,0.8,0.8h7.3c0.4,0,0.8-0.3,0.8-0.7V6.6
	C14.1,6.1,13.7,5.8,13.3,5.8z M13.3,10.2H5.9c-0.4,0-0.8,0.3-0.8,0.8v0.3c0,0.4,0.3,0.8,0.8,0.8h7.3c0.4,0,0.8-0.3,0.8-0.8v-0.3
	C14.1,10.5,13.7,10.2,13.3,10.2z M3.7,11c0,1-0.8,1.8-1.8,1.8S0,12,0,11s0.8-1.8,1.8-1.8S3.7,10,3.7,11z M2.8,11c0-0.6-0.4-1-1-1
	s-1,0.4-1,1s0.4,1,1,1C2.4,12.1,2.8,11.6,2.8,11z"/>
</svg>
