<?xml version="1.0" encoding="utf-8"?>

<!--
 * Copyright (c) 2015, WSO2 Inc. (http://www.wso2.org) All Rights Reserved.
 *
 * WSO2 Inc. licenses this file to you under the Apache License,
 * Version 2.0 (the "License"); you may not use this file except
 * in compliance with the License.
 * You may obtain a copy of the License at
 *
 * http://www.apache.org/licenses/LICENSE-2.0
 *
 * Unless required by applicable law or agreed to in writing,
 * software distributed under the License is distributed on an
 * "AS IS" BASIS, WITHOUT WARRANTIES OR CONDITIONS OF ANY
 * KIND, either express or implied. See the License for the
 * specific language governing permissions and limitations
 * under the License.
-->

<svg version="1.1" id="clear-passcode" xmlns="http://www.w3.org/2000/svg" xmlns:xlink="http://www.w3.org/1999/xlink" x="0px"
	 y="0px" viewBox="0 0 14 14" style="enable-background:new 0 0 14 14;" xml:space="preserve">
<path d="M13.4,4.1H2.9c-0.5-0.7-1-1.5-1.5-2.2C1.1,1.6,0.6,1.5,0.2,1.8C0,2-0.1,2.5,0.1,2.8c0.5,0.7,0.9,1.4,1.4,2.1
	C2,5.5,2.4,6.1,2.8,6.7c0,0,0.1,0.1,0.1,0.1c-0.1,0-0.1,0.1-0.1,0.1C2.6,7.1,2.5,7.3,2.5,7.5c0.1,1,0.3,2,0.4,3
	C3,11,3.1,11.5,3.2,12c0,0.1,0.1,0.2,0.2,0.2c0.4,0.2,0.8,0.2,1.2,0.1c0.8-0.1,1.6-0.4,2.3-0.9C7.7,10.8,8.4,10,8.9,9
	c0.2-0.5,0.4-1,0.4-1.6c0-0.2-0.1-0.2-0.2-0.2c-0.5,0.1-1,0.1-1.4,0.1C6.7,7.2,5.8,6.8,5,6.1C4.7,5.8,4.5,5.8,4.1,6
	c0,0,0-0.1-0.1-0.1C3.7,5.4,3.4,5,3.1,4.5h10.2c0.1,0,0.2,0.1,0.2,0.2v7c0,0.1-0.1,0.2-0.2,0.2H6c-0.1,0-0.2,0.1-0.2,0.2
	c0,0.1,0.1,0.2,0.2,0.2h7.4c0.3,0,0.6-0.3,0.6-0.6V4.7C14,4.4,13.7,4.1,13.4,4.1z M5.9,7.2c0.8,0.4,1.7,0.5,2.6,0.5
	c0.2,0,0.3,0,0.5,0c0,0.3-0.1,0.5-0.2,0.7c0,0-0.1,0-0.1,0c-0.5,0-1-0.1-1.5-0.3C7.1,8,7,8.1,6.9,8.2c0,0.1,0,0.2,0.1,0.2
	c0.2,0.1,0.4,0.2,0.6,0.2c0.3,0.1,0.7,0.1,1,0.2c0,0,0,0,0,0C8.5,9,8.4,9.2,8.3,9.4c0,0-0.1,0-0.1,0C7.8,9.4,7.4,9.3,7.1,9.1
	C7,9.1,6.9,9.1,6.8,9.2c-0.1,0.1,0,0.2,0.1,0.3c0.2,0.1,0.4,0.2,0.6,0.2C7.7,9.8,7.8,9.8,8,9.8c0,0,0,0,0,0
	c-0.2,0.2-0.5,0.5-0.7,0.7c0,0-0.1,0-0.1,0C7,10.4,6.7,10.2,6.5,10c-0.1-0.1-0.2-0.1-0.3,0c-0.1,0.1-0.1,0.2,0,0.3
	c0.2,0.2,0.4,0.4,0.6,0.5c0,0,0.1,0,0.1,0.1c0,0-0.1,0-0.1,0.1c-0.2,0.2-0.5,0.3-0.7,0.5c-0.1,0-0.1,0-0.2,0
	c-0.3-0.3-0.5-0.7-0.6-1.1c0-0.1-0.1-0.2-0.2-0.1C5,10.1,5,10.2,5,10.4c0.1,0.1,0.1,0.3,0.2,0.4c0.2,0.3,0.3,0.5,0.5,0.8
	c-0.3,0.1-0.5,0.2-0.8,0.3c-0.1,0-0.1,0-0.2-0.1c-0.2-0.4-0.4-0.9-0.4-1.4c0-0.1-0.1-0.1-0.1-0.2c-0.1,0-0.2,0.1-0.2,0.2
	c0.1,0.5,0.2,0.9,0.4,1.3c0,0,0,0.1,0.1,0.1c-0.3,0-0.6,0-0.8-0.1c0,0-0.1-0.1-0.1-0.1C3.4,10.9,3.3,9.9,3.1,9c0-0.1,0-0.1,0.1-0.1
	C4,8.3,4.9,7.8,5.8,7.2C5.8,7.2,5.9,7.2,5.9,7.2z M4.4,6.3c0.1-0.1,0.2-0.1,0.3,0c0.1,0.1,0.2,0.2,0.3,0.3c0.2,0.1,0.3,0.2,0.5,0.4
	C4.6,7.5,3.8,8,3,8.5C3,8.2,2.9,7.8,2.9,7.4c0-0.1,0-0.1,0.1-0.2C3.4,6.9,3.9,6.6,4.4,6.3z M3.8,6.2C3.6,6.3,3.4,6.5,3.2,6.6
	c0,0,0-0.1-0.1-0.1C2.2,5.2,1.3,3.9,0.5,2.6c0,0,0-0.1-0.1-0.1C0.3,2.3,0.4,2,0.7,2c0.2,0,0.3,0,0.4,0.2C2,3.5,2.9,4.8,3.8,6.2
	C3.8,6.2,3.8,6.2,3.8,6.2z M12.5,9.3c-0.4,0-0.7-0.3-0.7-0.7c0-0.4,0.3-0.7,0.7-0.7c0.4,0,0.7,0.3,0.7,0.7C13.2,9,12.9,9.3,12.5,9.3
	z M10.3,9.3C9.9,9.3,9.6,9,9.6,8.6c0-0.4,0.3-0.7,0.7-0.7c0.4,0,0.7,0.3,0.7,0.7C11,9,10.7,9.3,10.3,9.3z"/>
</svg>
