<?xml version="1.0" encoding="utf-8"?>
<!-- Generator: Adobe Illustrator 19.1.0, SVG Export Plug-In . SVG Version: 6.00 Build 0)  -->
<svg version="1.1" id="clear-passcode" xmlns="http://www.w3.org/2000/svg" xmlns:xlink="http://www.w3.org/1999/xlink" x="0px"
	 y="0px" viewBox="-413 291.28 14 14" style="enable-background:new -413 291.28 14 14;" xml:space="preserve">
<g>
	<g>
		<g id="XMLID_1_">
			<path d="M-399.70001,295.78h-11.09998L-411.25,295.38h11.64999c0.30002,0,0.60001,0.29999,0.60001,0.60001v7
				c0,0.29999-0.29999,0.59998-0.60001,0.59998H-407c-0.01999,0-0.04999-0.00998-0.07001-0.01999
				c0.12-0.07999,0.32001-0.20999,0.56-0.38h6.81c0.10001,0,0.20001-0.10001,0.20001-0.19998v-7
				C-399.5,295.88-399.60001,295.78-399.70001,295.78z"/>
			<path d="M-400.5,299.17999c0.39999,0,0.70001,0.30002,0.70001,0.70001s-0.30002,0.69998-0.70001,0.69998
				s-0.70001-0.29999-0.70001-0.69998S-400.89999,299.17999-400.5,299.17999z"/>
			<path d="M-403.39999,299.88c0-0.39999,0.29999-0.70001,0.69998-0.70001c0.40002,0,0.70001,0.30002,0.70001,0.70001
				s-0.29999,0.69998-0.70001,0.69998C-403.10001,300.57999-403.39999,300.28-403.39999,299.88z"/>
			<path d="M-406.63,303.17999c-0.22,0.16-0.39999,0.28-0.51001,0.34c-0.03998-0.03998-0.06-0.09-0.06-0.13998
				c0-0.10001,0.10001-0.20001,0.20001-0.20001H-406.63z"/>
			<path d="M-403.41,299.39999c-0.78,1.87-2.32999,3.16-3.20999,3.78H-406.63H-407c-0.10001,0-0.20001,0.10001-0.20001,0.20001
				c0,0.04999,0.02002,0.10001,0.06,0.13998C-407.20999,303.56-407.25,303.59-407.25,303.59
				c-0.10999,0.08002-0.22,0.10001-0.32001,0.07001c-0.22-0.08002-0.32999-0.42999-0.34-0.44
				c-0.51999-1.04001-1.78-2.79999-1.92999-3.01999l2.82999-3.15002c0.45001,0.39001,1.25,0.81,1.95001,1.13
				c0.70001,0.33002,1.28,0.56,1.29001,0.56C-403.57001,298.79001-403.44,298.88-403.38,299
				C-403.29999,299.19-403.39999,299.39999-403.41,299.39999z M-404.54001,300.44c-0.38-0.37-0.94998-0.94-1-1.06V299.37
				c-0.01999-0.01001-0.04999-0.04999-0.03998-0.07001c0-0.01999,0.03-0.03998,0.09-0.04999c0.10999,0.07001,0.91998,0.62,1.28,0.62
				c0.00998,0,0.01999,0,0.03,0h0.01999l0.01001-0.01999c0.20999-0.39999,0.26999-0.54001,0.28-0.60001v-0.01001
				c0.01001-0.00998,0-0.01999,0-0.01999l-0.04001-0.01999l-0.01999-0.01001c-0.20001-0.09-1.06-0.5-1.82001-0.87
				c-0.01999-0.01001-0.03-0.02002-0.04999-0.02002c-0.03-0.01999-0.05002-0.03-0.08002-0.03998
				c-0.04999-0.03-0.09-0.05002-0.13998-0.07001c-0.41-0.20999-0.76001-0.39999-0.89001-0.48999l-0.03-0.01001l-2.31,2.51001
				l-0.01001,0.01999l0.01001,0.01999c0.01999,0.02002,1.59,2.41,1.79001,2.89999l0.00998,0.04001l0.70001-0.41998l-0.01001-0.03
				c-0.01999-0.03-0.47-0.88-0.72998-1.11002c-0.04001-0.04999-0.08002-0.13998-0.05002-0.16998c0-0.01001,0.04001-0.04001,0.19,0
				c0.09,0.07999,0.97,0.81,1.11002,0.88998l0.01999,0.01001l0.67001-0.62v-0.02002c-0.01001,0-0.09003-0.19998-0.23001-0.37
				l-0.76001-0.85999C-406.56,300.44-406.57999,300.37-406.56,300.34c0.01001-0.01001,0.04001-0.01999,0.13,0.01001
				c0.07999,0.06,0.82999,0.64999,1.35999,0.82001l0.02002,0.00998l0.50998-0.69998l0.02002-0.02002L-404.54001,300.44z"/>
			<polygon points="-410.89999,295.78 -411.69,295.78 -411.89999,295.78 -411.79999,295.38 -411.34,295.38 			"/>
			<path d="M-410.89999,295.78l1.29999,1.17999l0.03,0.02002l0.57001-0.63c0.44-0.26001,0.84-0.05002,0.87-0.04001l0.64999,0.48001
				l-2.73999,2.97998l-0.45999-0.63c-0.29001-0.59,0.01999-0.96997,0.03998-0.98999l0.48001-0.54001l-2.73001-2.47998
				c-0.04999-0.05002-0.04999-0.13-0.01999-0.17001l0.39001-0.44c0.01999,0,0.03-0.00998,0.03998-0.00998
				c0.03-0.01001,0.06-0.02002,0.09-0.02002c0.03003,0,0.06003,0.02002,0.10001,0.03L-411.34,295.38h-0.45999l-0.10001,0.39999
				h0.20999H-410.89999z"/>
		</g>
	</g>
</g>
</svg>
