<?xml version="1.0" encoding="utf-8"?>

<!--
 * Copyright (c) 2015, WSO2 Inc. (http://www.wso2.org) All Rights Reserved.
 *
 * WSO2 Inc. licenses this file to you under the Apache License,
 * Version 2.0 (the "License"); you may not use this file except
 * in compliance with the License.
 * You may obtain a copy of the License at
 *
 * http://www.apache.org/licenses/LICENSE-2.0
 *
 * Unless required by applicable law or agreed to in writing,
 * software distributed under the License is distributed on an
 * "AS IS" BASIS, WITHOUT WARRANTIES OR CONDITIONS OF ANY
 * KIND, either express or implied. See the License for the
 * specific language governing permissions and limitations
 * under the License.
-->

<svg version="1.1" id="clock" xmlns="http://www.w3.org/2000/svg" xmlns:xlink="http://www.w3.org/1999/xlink" x="0px" y="0px"
	 viewBox="0 0 14 14" enable-background="new 0 0 14 14" xml:space="preserve">
<path id="path1" d="M6.708,2.975h0.583v3.354L7.35,6.358c0.146,0.088,0.262,0.204,0.321,0.35v0.029h2.392v0.583H7.642L7.613,7.35
	C7.496,7.583,7.233,7.729,6.971,7.729C6.563,7.729,6.242,7.408,6.242,7c0-0.321,0.175-0.583,0.467-0.671h0.029V2.975H6.708z
	 M7,0.875C3.617,0.875,0.875,3.617,0.875,7S3.617,13.125,7,13.125S13.125,10.383,13.125,7S10.383,0.875,7,0.875z M7,0
	c3.879,0,7,3.121,7,7s-3.121,7-7,7s-7-3.121-7-7S3.121,0,7,0z"/>
</svg>
