<?xml version="1.0" encoding="utf-8"?>
<!--
 * Copyright (c) 2015, WSO2 Inc. (http://www.wso2.org) All Rights Reserved.
 *
 * WSO2 Inc. licenses this file to you under the Apache License,
 * Version 2.0 (the "License"); you may not use this file except
 * in compliance with the License.
 * You may obtain a copy of the License at
 *
 * http://www.apache.org/licenses/LICENSE-2.0
 *
 * Unless required by applicable law or agreed to in writing,
 * software distributed under the License is distributed on an
 * "AS IS" BASIS, WITHOUT WARRANTIES OR CONDITIONS OF ANY
 * KIND, either express or implied. See the License for the
 * specific language governing permissions and limitations
 * under the License.
-->

<svg version="1.1" id="coins" xmlns="http://www.w3.org/2000/svg" xmlns:xlink="http://www.w3.org/1999/xlink" x="0px" y="0px"
	 viewBox="0 0 14 14" style="enable-background:new 0 0 14 14;" xml:space="preserve">
<path d="M13.8914,8.7251c-0.10708-0.21665-0.30258-0.37729-0.5108-0.49996c-0.35998-0.21208-0.76911-0.32866-1.18112-0.39801
	c-0.89569-0.15077-1.8434-0.08025-2.66615,0.30457C9.33396,8.22495,9.13764,8.34125,8.99137,8.50284
	C8.99159,8.4425,8.99214,8.38217,8.99358,8.32187c0.0048-0.20091-0.049-0.3844-0.15945-0.54976
	C8.79708,7.71665,8.8032,7.67996,8.83488,7.62465c0.0521-0.09095,0.08644-0.1919,0.1335-0.28602
	C8.9848,7.30579,9.01162,7.27229,9.0425,7.25369c0.0753-0.04536,0.15757-0.07901,0.2338-0.12299
	c0.39987-0.23072,0.73713-0.51568,0.84746-0.99369c0-0.27096,0-0.54191,0-0.81287C9.97866,4.7299,9.52142,4.44102,9.01966,4.19584
	C8.98308,4.17797,8.94548,4.16218,8.90311,4.14305C9.05004,3.81062,8.9932,3.46257,8.98569,3.12243
	c-0.00704-0.31898-0.1945-0.56036-0.42568-0.7644C8.20182,2.04188,7.77343,1.85888,7.32219,1.72447
	c-0.41852-0.12466-0.8473-0.19419-1.28326-0.21975c-0.02872-0.00168-0.05704-0.00998-0.08555-0.0152c-0.23561,0-0.47123,0-0.70684,0
	c-0.1631,0.01763-0.32667,0.03173-0.48921,0.05352C4.10233,1.63086,3.47179,1.79499,2.90715,2.15526
	C2.67922,2.30069,2.47703,2.4756,2.34292,2.71492C2.29607,2.79851,2.27165,2.89439,2.23016,2.9814
	c-0.01799,0.03773-0.0465,0.08088-0.08174,0.09829C1.886,3.20934,1.6386,3.35908,1.42826,3.56602
	c-0.17848,0.1756-0.29362,0.38506-0.35211,0.62717c0,0.27096,0,0.54191,0,0.81287C1.20914,5.5661,1.63103,5.85464,2.10201,6.09655
	C2.16422,6.1285,2.22887,6.15572,2.29282,6.18533C2.1554,6.54873,2.19971,6.92064,2.22712,7.28752
	c0.00933,0.12492,0.0876,0.24607,0.14201,0.36547c0.01857,0.04074,0.03062,0.06587,0.0019,0.10885
	C2.25523,7.93517,2.1995,8.12654,2.20617,8.33706C2.2126,8.53996,2.19699,8.74451,2.21683,8.9458
	c0.01934,0.19627,0.09992,0.3614,0.2144,0.50623C1.87592,9.4738,1.3269,9.5914,0.82449,9.82639
	c-0.24884,0.11639-0.49315,0.26851-0.641,0.50005c-0.1052,0.16475-0.16689,0.36829-0.18057,0.57611
	c-0.0186,0.28258,0.05157,0.57304,0.22187,0.78455c0.093,0.11551,0.20606,0.21367,0.32863,0.29665
	c0.21915,0.14837,0.46779,0.25007,0.72045,0.32559c0.81107,0.24245,1.68637,0.2663,2.50945,0.06839
	c0.34885-0.08388,0.69199-0.20872,0.98851-0.41072c0.19015-0.12954,0.36417-0.29695,0.44828-0.51111
	c0.05377-0.13692,0.06819-0.2861,0.07069-0.43318c0.00281-0.1651-0.00982-0.33391-0.06185-0.48955
	c0.00586,0.00139,0.01172,0.00276,0.01758,0.00394c0.23561,0,0.47123,0,0.70684,0c0.16011-0.01749,0.32063-0.03193,0.48027-0.053
	c0.65837-0.08688,1.2917-0.25162,1.85927-0.61337c0.1623-0.10345,0.30978-0.22358,0.43222-0.37001
	c0.02894,0.18143,0.0972,0.35345,0.2085,0.49167c0.093,0.11551,0.20607,0.21367,0.32863,0.29665
	c0.21915,0.14837,0.46779,0.25007,0.72046,0.32559c0.81107,0.24244,1.68637,0.2663,2.50945,0.06839
	c0.34884-0.08388,0.69199-0.20872,0.98851-0.41072c0.19015-0.12954,0.36417-0.29695,0.44828-0.51111
	c0.05377-0.13692,0.06819-0.2861,0.07069-0.43318C14.00313,9.12189,13.98275,8.90992,13.8914,8.7251z M8.78175,4.41413
	c0.32695,0.1399,0.63738,0.30669,0.87041,0.58533C9.89928,5.29494,9.9025,5.58647,9.66278,5.88806
	C9.4714,6.12884,9.21686,6.28726,8.9442,6.41797C8.47223,6.64422,7.96985,6.76359,7.45266,6.82118
	c-0.75881,0.0845-1.51029,0.044-2.24998-0.15547C5.10422,6.63916,5.00737,6.6066,4.90113,6.57417
	c0.30738-0.04739,0.59996-0.08082,0.88743-0.13931c0.55197-0.11231,1.07825-0.2946,1.5331-0.64091
	c0.24892-0.18952,0.44461-0.41935,0.52078-0.73383c0.00613-0.02531,0.03502-0.05269,0.06021-0.06464
	c0.30008-0.14247,0.57923-0.31372,0.80555-0.56217C8.72295,4.41713,8.76281,4.40602,8.78175,4.41413z M7.45892,7.69604
	c-0.17077,0.0482-0.33966,0.10484-0.5126,0.14323C5.86004,8.08044,4.78473,8.04982,3.7266,7.68981
	C3.41305,7.58313,3.11864,7.4352,2.86374,7.21921C2.69281,7.07437,2.54962,6.90955,2.50071,6.68079
	C2.47479,6.55958,2.49745,6.4463,2.55127,6.33891c0.0092-0.01836,0.05016-0.03562,0.07143-0.03087
	c0.26939,0.06013,0.53801,0.1238,0.80636,0.18848C3.45549,6.50289,3.48828,6.5155,3.50226,6.53601
	c0.24329,0.35694,0.59399,0.57378,0.9771,0.74471c0.50161,0.2238,1.03174,0.33891,1.57619,0.39463
	c0.4467,0.04572,0.89327,0.04681,1.33991-0.0003c0.01928-0.00203,0.03896-0.00026,0.05846-0.00026
	C7.45559,7.68188,7.45726,7.68896,7.45892,7.69604z M2.71595,2.68645c0.242-0.26476,0.54893-0.43175,0.87714-0.56163
	C4.34862,1.82584,5.13695,1.74257,5.94187,1.782c0.57363,0.0281,1.13649,0.12171,1.66746,0.3472
	C7.8323,2.22389,8.04098,2.35433,8.24991,2.479c0.08186,0.04884,0.15156,0.12166,0.21828,0.19167
	C8.78826,3.00646,8.7883,3.36547,8.46876,3.7012C8.20254,3.9809,7.86782,4.15093,7.51199,4.28348
	C6.89475,4.5134,6.25247,4.59533,5.58074,4.60086c-0.70409-0.00784-1.41132-0.09852-2.07552-0.3948
	C3.28443,4.10757,3.08278,3.96491,2.87661,3.8357C2.81553,3.79742,2.76559,3.73914,2.71616,3.6849
	C2.41659,3.35614,2.41583,3.0148,2.71595,2.68645z M1.74199,4.96258c-0.10711-0.0937-0.20525-0.20422-0.28348-0.3229
	C1.31973,4.42915,1.32559,4.20571,1.45766,3.99028c0.1757-0.2866,0.4458-0.45984,0.74944-0.61953
	c0,0.09226,0.00476,0.17046-0.0008,0.24793C2.17744,4.02081,2.35327,4.32963,2.64519,4.58446
	c0.35777,0.31231,0.78269,0.49722,1.23226,0.62766c0.76361,0.22155,1.543,0.28055,2.33349,0.20517
	C6.24812,5.41373,6.2855,5.41231,6.32279,5.40989c0.00175,0.0075,0.00349,0.015,0.00524,0.0225
	c-0.14768,0.04315-0.29375,0.09315-0.4433,0.12837c-1.10791,0.26088-2.20566,0.23459-3.28807-0.132
	C2.28575,5.32347,1.9909,5.18034,1.74199,4.96258z M4.8719,11.1596c-0.2058,0.21622-0.46455,0.34766-0.73962,0.45013
	c-0.47715,0.17774-0.97366,0.24107-1.49293,0.24535c-0.54429-0.00606-1.09101-0.07616-1.60446-0.3052
	c-0.17068-0.07614-0.32656-0.18642-0.48594-0.2863c-0.04721-0.02959-0.08583-0.07465-0.12403-0.11658
	c-0.23158-0.25414-0.23217-0.51801-0.00016-0.77184C0.61183,10.17049,0.8491,10.0414,1.10283,9.941
	c0.4968-0.19659,1.01199-0.27224,1.53777-0.27179c0.00158,0.00139,0.00311,0.00282,0.0047,0.00421
	c0.36213,0.3165,0.7938,0.49913,1.24882,0.63296c0.3565,0.10486,0.7201,0.16976,1.08914,0.20212
	C5.1104,10.72451,5.07327,10.94803,4.8719,11.1596z M8.64408,8.54126C8.553,8.72571,8.41127,8.86556,8.2486,8.9856
	C7.86261,9.27042,7.42298,9.43542,6.9601,9.53704C5.87119,9.77609,4.7919,9.74947,3.73024,9.3879
	c-0.3109-0.10589-0.60816-0.24596-0.85472-0.46623C2.75479,8.81382,2.64687,8.68321,2.56266,8.54493
	C2.44108,8.34528,2.4734,8.139,2.60488,7.945c0.51724,0.44464,1.12742,0.65747,1.7732,0.77964
	C5.3803,8.91425,6.37601,8.88304,7.3571,8.59126C7.80048,8.4594,8.21622,8.26887,8.56683,7.95707
	C8.57305,7.95153,8.58172,7.94875,8.59256,7.9429C8.7246,8.1339,8.74755,8.33172,8.64408,8.54126z M13.58074,9.4649
	c-0.2058,0.21622-0.46455,0.34766-0.73962,0.45013c-0.47715,0.17774-0.97366,0.24107-1.49293,0.24535
	c-0.54429-0.00606-1.09101-0.07616-1.60446-0.3052c-0.17068-0.07613-0.32656-0.18642-0.48594-0.2863
	C9.21058,9.53929,9.17197,9.49423,9.13376,9.4523C9.01971,9.32713,8.96181,9.1996,8.96001,9.07208
	c0.01465-0.05375,0.02448-0.10899,0.02945-0.16576C9.0175,8.8305,9.06543,8.75505,9.1336,8.68047
	C9.32067,8.4758,9.55794,8.34671,9.81166,8.2463c0.58405-0.23112,1.19346-0.2955,1.81569-0.26501
	c0.44344,0.02172,0.87855,0.09408,1.28901,0.2684c0.17237,0.0732,0.33368,0.17404,0.49519,0.27041
	c0.06328,0.03776,0.11716,0.09405,0.16874,0.14817C13.82772,8.92785,13.82776,9.20537,13.58074,9.4649z"/>
</svg>
