<?xml version="1.0" encoding="utf-8"?>

<!--
 * Copyright (c) 2015, WSO2 Inc. (http://www.wso2.org) All Rights Reserved.
 *
 * WSO2 Inc. licenses this file to you under the Apache License,
 * Version 2.0 (the "License"); you may not use this file except
 * in compliance with the License.
 * You may obtain a copy of the License at
 *
 * http://www.apache.org/licenses/LICENSE-2.0
 *
 * Unless required by applicable law or agreed to in writing,
 * software distributed under the License is distributed on an
 * "AS IS" BASIS, WITHOUT WARRANTIES OR CONDITIONS OF ANY
 * KIND, either express or implied. See the License for the
 * specific language governing permissions and limitations
 * under the License.
-->

<svg version="1.1" id="contact" xmlns="http://www.w3.org/2000/svg" xmlns:xlink="http://www.w3.org/1999/xlink" x="0px" y="0px"
	 viewBox="0 0 14 14" enable-background="new 0 0 14 14" xml:space="preserve">
<path d="M12.793,11.897H1.207C0.541,11.897,0,11.355,0,10.69V3.31c0-0.666,0.541-1.207,1.207-1.207h11.586
	C13.459,2.103,14,2.645,14,3.31v7.38C14,11.355,13.459,11.897,12.793,11.897z M1.207,2.586c-0.399,0-0.724,0.325-0.724,0.724v7.38
	c0,0.399,0.325,0.724,0.724,0.724h11.586c0.399,0,0.724-0.325,0.724-0.724V3.31c0-0.399-0.325-0.724-0.724-0.724H1.207z
	 M6.563,7.541C6.519,7.629,6.514,7.742,6.55,7.843c0.021,0.058,0.07,0.132,0.156,0.181h5.221v-0.5H6.57
	C6.567,7.53,6.566,7.535,6.563,7.541z M8.718,9.113c0.07,0.103,0.152,0.255,0.228,0.425h2.982v-0.5H8.645
	C8.669,9.063,8.697,9.087,8.718,9.113z M7.08,4.496C7.11,4.642,7.13,4.793,7.13,4.95v0.046h4.798v-0.5H7.08z M7.02,6.446
	C7.003,6.468,6.995,6.489,6.983,6.51h4.945v-0.5H7.232C7.191,6.163,7.128,6.312,7.02,6.446z M5.19,3.407
	c0.772,0,1.44,0.617,1.44,1.543c0,0.103,0,0.206,0,0.309c0.206,0.309,0.206,0.617,0,0.875C6.579,6.185,6.527,6.288,6.476,6.391
	C6.373,6.7,6.27,7.008,6.116,7.317C5.91,7.728,6.064,8.294,6.527,8.5c0.309,0.154,0.617,0.257,0.926,0.36s0.669,0.309,0.875,0.566
	c0.103,0.154,0.206,0.36,0.257,0.566c0,0.154,0.051,0.309-0.051,0.463c-0.103,0.257-0.463,0.154-0.669,0.154s-0.36,0-0.566,0
	c-0.36,0-0.772,0-1.132,0c-0.309,0-0.669,0-0.977,0l0,0c-0.309,0-0.669,0-0.977,0c-0.36,0-0.772,0-1.132,0c-0.206,0-0.36,0-0.566,0
	s-0.566,0.103-0.669-0.154c-0.103-0.154-0.051-0.309-0.051-0.463C1.846,9.786,1.948,9.58,2.051,9.426
	C2.257,9.169,2.617,8.963,2.926,8.86S3.543,8.654,3.852,8.5c0.463-0.206,0.617-0.772,0.412-1.183C4.109,7.008,4.006,6.7,3.903,6.391
	C3.852,6.288,3.801,6.185,3.749,6.134c-0.206-0.257-0.206-0.566,0-0.875c0-0.103,0-0.206,0-0.309
	C3.749,3.973,4.418,3.356,5.19,3.407L5.19,3.407z"/>
</svg>
