<?xml version="1.0" encoding="utf-8"?>

<!--
 * Copyright (c) 2015, WSO2 Inc. (http://www.wso2.org) All Rights Reserved.
 *
 * WSO2 Inc. licenses this file to you under the Apache License,
 * Version 2.0 (the "License"); you may not use this file except
 * in compliance with the License.
 * You may obtain a copy of the License at
 *
 * http://www.apache.org/licenses/LICENSE-2.0
 *
 * Unless required by applicable law or agreed to in writing,
 * software distributed under the License is distributed on an
 * "AS IS" BASIS, WITHOUT WARRANTIES OR CONDITIONS OF ANY
 * KIND, either express or implied. See the License for the
 * specific language governing permissions and limitations
 * under the License.
-->

<svg version="1.1" id="copy" xmlns="http://www.w3.org/2000/svg" xmlns:xlink="http://www.w3.org/1999/xlink" x="0px" y="0px"
	 viewBox="0 0 14 14" enable-background="new 0 0 14 14" xml:space="preserve">
<path d="M1.2,7.8c0-1.6,0-3.2,0-4.9c0-0.8,0.5-1.3,1.3-1.3c2.6,0,5.1,0,7.7,0c0.7,0,1.2,0.5,1.2,1.2c0,3.3,0,6.6,0,9.8
	c0,0.7-0.5,1.2-1.2,1.2c-2.6,0-5.2,0-7.7,0c-0.7,0-1.2-0.5-1.2-1.2C1.2,11.1,1.2,9.5,1.2,7.8z M1.7,7.8c0,0.6,0,1.2,0,1.8
	c0,1,0,2.1,0,3.1c0,0.5,0.3,0.8,0.8,0.8c2.5,0,5.1,0,7.6,0c0.3,0,0.5-0.1,0.6-0.4c0.1-0.1,0.1-0.3,0.1-0.5c0-2.1,0-4.2,0-6.2
	c0-1.1,0-2.2,0-3.4c0-0.5-0.3-0.8-0.7-0.8c-2.6,0-5.2,0-7.7,0C2.2,2.2,2,2.3,1.8,2.5C1.7,2.6,1.7,2.8,1.7,3.1
	C1.7,4.7,1.7,6.2,1.7,7.8z M3.2,1.4c0-0.5,0.4-0.9,0.9-0.9c2.5,0,5,0,7.5,0c0.3,0,0.4,0.1,0.6,0.3c0.1,0.2,0.2,0.4,0.2,0.6
	c0,1.9,0,3.8,0,5.7c0,1.3,0,2.6,0,4c0,0.4-0.2,0.7-0.6,0.7c0,0-0.1,0-0.1,0c0,0.2,0,0.3,0,0.5c0.1,0,0.3,0,0.4-0.1
	c0.5-0.1,0.8-0.6,0.8-1.2c0-3.2,0-6.4,0-9.6c0-0.1,0-0.2,0-0.4C12.7,0.4,12.2,0,11.5,0C9,0,6.5,0,4.1,0C3.7,0,3.4,0.1,3.2,0.3
	C2.8,0.6,2.7,1,2.7,1.5C2.8,1.5,3,1.5,3.2,1.4C3.1,1.4,3.2,1.4,3.2,1.4z M9.3,4.1L9.3,4.1C9.3,4,9.2,4,9.3,4.1L2.9,4
	C2.9,4,2.8,4,2.8,4.1l0,0c0,0.1,0,0.1,0.1,0.1L9.3,4.1C9.2,4.2,9.3,4.1,9.3,4.1z M9.3,5.6L9.3,5.6C9.3,5.5,9.2,5.5,9.3,5.6L2.9,5.5
	c-0.1,0-0.1,0-0.1,0.1l0,0c0,0.1,0,0.1,0.1,0.1L9.3,5.6C9.2,5.7,9.3,5.6,9.3,5.6z M9.3,7.1L9.3,7.1C9.3,7.1,9.2,7,9.3,7.1L2.9,7
	c-0.1,0-0.1,0-0.1,0.1v0c0,0.1,0,0.1,0.1,0.1L9.3,7.1C9.2,7.2,9.3,7.2,9.3,7.1z M9.3,8.7L9.3,8.7C9.3,8.6,9.2,8.6,9.3,8.7L2.9,8.6
	c-0.1,0-0.1,0-0.1,0.1l0,0c0,0.1,0,0.1,0.1,0.1L9.3,8.7C9.2,8.8,9.3,8.7,9.3,8.7z M9.3,10.2L9.3,10.2C9.3,10.1,9.2,10.1,9.3,10.2
	l-6.3-0.1c-0.1,0-0.1,0-0.1,0.1l0,0c0,0.1,0,0.1,0.1,0.1L9.3,10.2C9.2,10.3,9.3,10.2,9.3,10.2z M9.3,11.7L9.3,11.7
	C9.3,11.7,9.2,11.6,9.3,11.7l-6.3-0.1c-0.1,0-0.1,0-0.1,0.1l0,0c0,0.1,0,0.1,0.1,0.1L9.3,11.7C9.2,11.8,9.3,11.8,9.3,11.7z"/>
</svg>
