<?xml version="1.0" encoding="utf-8"?>

<!--
 * Copyright (c) 2015, WSO2 Inc. (http://www.wso2.org) All Rights Reserved.
 *
 * WSO2 Inc. licenses this file to you under the Apache License,
 * Version 2.0 (the "License"); you may not use this file except
 * in compliance with the License.
 * You may obtain a copy of the License at
 *
 * http://www.apache.org/licenses/LICENSE-2.0
 *
 * Unless required by applicable law or agreed to in writing,
 * software distributed under the License is distributed on an
 * "AS IS" BASIS, WITHOUT WARRANTIES OR CONDITIONS OF ANY
 * KIND, either express or implied. See the License for the
 * specific language governing permissions and limitations
 * under the License.
-->
<svg version="1.1" id="copy" xmlns="http://www.w3.org/2000/svg" xmlns:xlink="http://www.w3.org/1999/xlink" x="0px" y="0px"
	 viewBox="-413 291.28 14 14" style="enable-background:new -413 291.28 14 14;" xml:space="preserve">
<path d="M-400.50729,291.96979v11.24088c0,0.3804-0.30939,0.68979-0.68979,0.68979h-0.63867V303.134h0.56204v-11.08759h-7.12775
	v0.35767h-0.76642v-0.4343c0-0.3804,0.30939-0.68979,0.68979-0.68979h7.28101
	C-400.81668,291.28-400.50729,291.58939-400.50729,291.96979z M-402.09125,293.34933v9.52921v0.12775v0.12772v0.76645v0.12772
	v0.12775v0.4343c0,0.3804-0.30939,0.68979-0.68979,0.68979h-8.02188c-0.3804,0-0.68979-0.30939-0.68979-0.68979v-11.24088
	c0-0.3804,0.30939-0.68979,0.68979-0.68979h1.37955h0.12775h0.12775h0.76642h0.12775h0.12772h5.36496
	C-402.40063,292.65955-402.09125,292.96893-402.09125,293.34933z M-402.85767,302.87854v-9.45255h-5.28833h-0.12772h-0.12775
	h-0.76642h-0.12775h-0.12775h-1.30292v11.08759h7.86862v-0.35767v-0.12775v-0.12772V303.134v-0.12772V302.87854z
	 M-404.04987,295.13766h-5.44162c-0.16861,0-0.30658,0.13797-0.30658,0.30658v0.06812c0,0.16861,0.13797,0.30658,0.30658,0.30658
	h5.44162c0.16861,0,0.30655-0.13797,0.30655-0.30658v-0.06812C-403.74332,295.27563-403.88126,295.13766-404.04987,295.13766z
	 M-404.04987,296.92599h-5.44162c-0.16861,0-0.30658,0.13794-0.30658,0.30655v0.06815c0,0.16861,0.13797,0.30655,0.30658,0.30655
	h5.44162c0.16861,0,0.30655-0.13794,0.30655-0.30655v-0.06815C-403.74332,297.06393-403.88126,296.92599-404.04987,296.92599z
	 M-404.04987,298.64618h-5.44162c-0.16861,0-0.30658,0.13797-0.30658,0.30658v0.06812c0,0.16861,0.13797,0.30658,0.30658,0.30658
	h5.44162c0.16861,0,0.30655-0.13797,0.30655-0.30658v-0.06812C-403.74332,298.78415-403.88126,298.64618-404.04987,298.64618z
	 M-404.04987,300.38339h-5.44162c-0.16861,0-0.30658,0.13797-0.30658,0.30658v0.06812c0,0.16864,0.13797,0.30658,0.30658,0.30658
	h5.44162c0.16861,0,0.30655-0.13794,0.30655-0.30658v-0.06812C-403.74332,300.52136-403.88126,300.38339-404.04987,300.38339z
	 M-404.04987,302.23984h-5.44162c-0.16861,0-0.30658,0.13797-0.30658,0.30658v0.06815c0,0.16861,0.13797,0.30655,0.30658,0.30655
	h5.44162c0.16861,0,0.30655-0.13794,0.30655-0.30655v-0.06815C-403.74332,302.37781-403.88126,302.23984-404.04987,302.23984z"/>
</svg>
