<?xml version="1.0" encoding="utf-8"?>

<!--
 * Copyright (c) 2015, WSO2 Inc. (http://www.wso2.org) All Rights Reserved.
 *
 * WSO2 Inc. licenses this file to you under the Apache License,
 * Version 2.0 (the "License"); you may not use this file except
 * in compliance with the License.
 * You may obtain a copy of the License at
 *
 * http://www.apache.org/licenses/LICENSE-2.0
 *
 * Unless required by applicable law or agreed to in writing,
 * software distributed under the License is distributed on an
 * "AS IS" BASIS, WITHOUT WARRANTIES OR CONDITIONS OF ANY
 * KIND, either express or implied. See the License for the
 * specific language governing permissions and limitations
 * under the License.
-->

<svg version="1.1" id="dashboard" xmlns="http://www.w3.org/2000/svg" xmlns:xlink="http://www.w3.org/1999/xlink" x="0px" y="0px"
	 viewBox="0 0 14 14" enable-background="new 0 0 14 14" xml:space="preserve">
<path d="M10.8,1.1C10,1.7,9.2,2.3,8.5,2.9C8.2,3.1,8,3.2,7.6,3C4.5,1.6,0.9,3.6,0.4,7C0.3,7.7,0.4,8.5,0.6,9.2c0,0.2,0,0.2-0.1,0.3
	c-0.9-2-0.6-5.3,1.8-7.5C4.7-0.4,8.3-0.5,10.8,1.1z M7,8.9C8,8.9,8.9,8,8.9,7c0-0.1,0.1-0.3,0.1-0.4c1-1.3,2.1-2.7,3.1-4
	c0.1-0.1,0.1-0.1,0.2-0.2c0.2-0.2,0.2-0.5,0-0.7c-0.2-0.2-0.5-0.2-0.7,0c0,0-0.1,0.1-0.1,0.1C10.1,2.9,8.7,4,7.4,5
	C7.3,5.1,7.1,5.2,7,5.2C6,5.2,5.2,6,5.2,7C5.2,8,6,8.9,7,8.9z M6.2,7c0-0.5,0.4-0.8,0.8-0.9c0.5,0,0.8,0.4,0.9,0.8
	c0,0.5-0.4,0.8-0.8,0.9C6.6,7.9,6.2,7.5,6.2,7z M3.1,10.9c-0.2,0.2-0.3,0.4-0.5,0.5c-0.2,0.2-0.4,0.3-0.6,0.5c2.8,2.9,7.5,2.6,9.9,0
	c-0.3-0.3-0.7-0.7-1-1C8.8,13,5.2,13,3.1,10.9z M12.9,3.3c-0.7,1-1.5,1.9-2.2,2.9c0,0.1,0,0.2,0,0.2c0.1,0.5,0.1,0.9,0.2,1.4
	c0,0.1,0,0.2,0.2,0.2c0.9,0.2,1.7,0.5,2.6,0.7c0.1,0,0.1,0,0.2,0.1C14.3,6.8,14,5,12.9,3.3C12.9,3.3,12.9,3.3,12.9,3.3z"/>
</svg>
