<?xml version="1.0" encoding="utf-8"?>

<!--
 * Copyright (c) 2015, WSO2 Inc. (http://www.wso2.org) All Rights Reserved.
 *
 * WSO2 Inc. licenses this file to you under the Apache License,
 * Version 2.0 (the "License"); you may not use this file except
 * in compliance with the License.
 * You may obtain a copy of the License at
 *
 * http://www.apache.org/licenses/LICENSE-2.0
 *
 * Unless required by applicable law or agreed to in writing,
 * software distributed under the License is distributed on an
 * "AS IS" BASIS, WITHOUT WARRANTIES OR CONDITIONS OF ANY
 * KIND, either express or implied. See the License for the
 * specific language governing permissions and limitations
 * under the License.
-->

<svg version="1.1" id="deploy" xmlns="http://www.w3.org/2000/svg" xmlns:xlink="http://www.w3.org/1999/xlink" x="0px" y="0px"
	 viewBox="0 0 14 14" enable-background="new 0 0 14 14" xml:space="preserve">
<path d="M5.3,11.6c-0.2-0.1-0.4-0.1-0.5,0c-0.1,0.1-0.3,0.1-0.4,0.2c-0.1,0.1-0.3,0.1-0.4,0c-0.3-0.2-0.6-0.4-0.9-0.7
	c-0.3-0.3-0.5-0.6-0.8-0.9c-0.1-0.1-0.1-0.3,0-0.5c0.1-0.2,0.2-0.4,0.3-0.6c0,0,0-0.1,0-0.1c0-0.2,0-0.2-0.3-0.3
	C1.7,8.6,1.1,8.5,0.6,8.3c-0.2,0-0.2-0.1-0.1-0.2c0.4-0.5,0.8-1,1.2-1.5C1.8,6.5,1.8,6.5,2,6.5c0.7,0,1.4,0,2.2,0
	c0.1,0,0.2,0,0.2-0.1c1.1-1.3,2.1-2.6,3.3-3.8c0.8-0.9,1.8-1.5,3-2C11.7,0.2,12.8,0,13.9,0c0,0,0.1,0,0.2,0c0,0.2,0,0.3,0,0.4
	c-0.1,1.2-0.3,2.3-0.8,3.3c-0.4,1-1,1.8-1.8,2.6C10.3,7.5,9,8.6,7.6,9.7C7.6,9.7,7.5,9.8,7.5,9.9c0,0.7,0,1.5,0,2.2
	c0,0.1,0,0.2-0.1,0.3c-0.5,0.4-1,0.8-1.5,1.2c-0.1,0.1-0.2,0.1-0.2-0.1C5.6,12.9,5.4,12.3,5.3,11.6C5.3,11.6,5.3,11.6,5.3,11.6z
	 M9.8,5.4c0.6,0,1.1-0.5,1.1-1.1c0-0.6-0.5-1.1-1.1-1.1c-0.6,0-1.1,0.5-1.1,1.1C8.7,4.9,9.2,5.4,9.8,5.4z M3.7,12.4c0,0-0.1,0-0.1,0
	c-0.8,0.5-1.6,0.7-2.5,0.7c-0.1,0-0.1,0-0.1-0.1c0-0.2,0-0.4,0-0.6c0.1-0.6,0.2-1.2,0.6-1.8c0.1-0.2,0.1-0.2-0.1-0.4
	C0.2,11.2,0,12.5,0,14c1.5,0,2.9-0.2,3.9-1.5C3.8,12.5,3.7,12.5,3.7,12.4z"/>
</svg>
