<?xml version="1.0" encoding="utf-8"?>

<!--
 * Copyright (c) 2015, WSO2 Inc. (http://www.wso2.org) All Rights Reserved.
 *
 * WSO2 Inc. licenses this file to you under the Apache License,
 * Version 2.0 (the "License"); you may not use this file except
 * in compliance with the License.
 * You may obtain a copy of the License at
 *
 * http://www.apache.org/licenses/LICENSE-2.0
 *
 * Unless required by applicable law or agreed to in writing,
 * software distributed under the License is distributed on an
 * "AS IS" BASIS, WITHOUT WARRANTIES OR CONDITIONS OF ANY
 * KIND, either express or implied. See the License for the
 * specific language governing permissions and limitations
 * under the License.
-->

<svg version="1.1" id="devices" xmlns="http://www.w3.org/2000/svg" xmlns:xlink="http://www.w3.org/1999/xlink" x="0px" y="0px"
	 viewBox="0 0 14 14" enable-background="new 0 0 14 14" xml:space="preserve">
<path d="M0.5,8.6c0,0.4,0,0.7,0,1.1c0,0.2,0.2,0.4,0.5,0.4c0.9,0,1.8,0,2.7,0c1.1,0,2.2,0,3.3,0c0.1,0,0.1,0,0.2,0
	c0,0.2,0,0.3,0,0.5c-0.4,0-0.9,0-1.3,0c0,0.3,0,0.6,0,0.9c0.3,0,0.6,0,0.9,0c0,0.2,0,0.3,0,0.5c-1.2,0-2.4,0-3.6,0
	c0-0.2,0-0.3,0-0.5c0.3,0,0.6,0,0.9,0c0-0.3,0-0.6,0-0.9c-0.1,0-0.1,0-0.2,0c-0.9,0-1.9,0-2.8,0c-0.6,0-0.8-0.2-1-0.7c0,0,0,0,0,0
	c0-2.3,0-4.7,0-7c0,0,0,0,0-0.1c0.1-0.3,0.3-0.6,0.6-0.7c0,0,0.1,0,0.1,0c2.8,0,5.6,0,8.4,0c0,0,0,0,0,0c0.5,0.2,0.7,0.4,0.7,1
	c0,0.4,0,0.7,0,1.1c0,0,0,0.1,0,0.1c-0.2,0-0.3,0-0.4,0c0,0,0-0.1,0-0.1c0-0.4,0-0.8,0-1.1c0-0.3-0.2-0.5-0.5-0.5c-2.7,0-5.3,0-8,0
	c-0.3,0-0.5,0.2-0.5,0.5c0,1.1,0,2.2,0,3.4c0,0.5,0,1.1,0,1.6c0,0.1,0,0.1,0,0.2L0.5,8.6z M10.8,12c0-0.3,0-0.6,0-0.9
	c-0.9,0-1.8,0-2.7,0c0-1.9,0-3.7,0-5.6c1.4,0,2.7,0,4.1,0c0,0.5,0,1,0,1.6c0.2,0,0.3,0,0.4,0c0,0,0-0.1,0-0.1c0-0.5,0-1.1,0-1.6
	c0-0.3-0.2-0.5-0.5-0.5c-1.3,0-2.6,0-3.9,0c-0.4,0-0.5,0.2-0.5,0.5c0,2,0,4.1,0,6.1c0,0.3,0.1,0.5,0.3,0.6C8.9,12,9.9,12,10.8,12z
	 M13.7,7.2h-2.2c-0.2,0-0.3,0.1-0.3,0.3v4.1c0,0.2,0.1,0.3,0.3,0.3h2.2c0.2,0,0.3-0.1,0.3-0.3V7.5C14,7.3,13.9,7.2,13.7,7.2z
	 M13.6,11.5h-2.1V7.7h2.1V11.5z"/>
</svg>
