<?xml version="1.0" encoding="utf-8"?>

<!--
 * Copyright (c) 2015, WSO2 Inc. (http://www.wso2.org) All Rights Reserved.
 *
 * WSO2 Inc. licenses this file to you under the Apache License,
 * Version 2.0 (the "License"); you may not use this file except
 * in compliance with the License.
 * You may obtain a copy of the License at
 *
 * http://www.apache.org/licenses/LICENSE-2.0
 *
 * Unless required by applicable law or agreed to in writing,
 * software distributed under the License is distributed on an
 * "AS IS" BASIS, WITHOUT WARRANTIES OR CONDITIONS OF ANY
 * KIND, either express or implied. See the License for the
 * specific language governing permissions and limitations
 * under the License.
-->

<svg version="1.1" id="devices" xmlns="http://www.w3.org/2000/svg" xmlns:xlink="http://www.w3.org/1999/xlink" x="0px" y="0px"
	 viewBox="-413 291.28 14 14" style="enable-background:new -413 291.28 14 14;" xml:space="preserve">
<path d="M-399.67557,299.88828c-0.00034-1.79831-0.00064-3.59628-0.00034-5.39459c0-0.39441-0.15662-0.70035-0.51379-0.88245
	c-0.29733-0.15152-0.6163-0.09167-0.93527-0.09262c0,0.25308,0,0.48547,0,0.74139c0.15503,0,0.2919-0.00031,0.4288,0
	c0.24066,0.00098,0.27313,0.03345,0.27313,0.27759c0,2.15359,0,4.30746,0,6.46103c0,0.39346-0.00064,0.39474-0.40207,0.39474
	c-2.40283,0.00034-4.80566,0-7.2085,0c-1.08743,0-2.1749,0.00064-3.26233-0.00064c-0.23431-0.00031-0.28397-0.04266-0.28397-0.23938
	c-0.00064-2.22266-0.00031-4.44531,0.00064-6.66794c0-0.17859,0.04648-0.22284,0.22794-0.22412
	c0.22632-0.00159,0.453-0.00031,0.68475-0.00031c0-0.25723,0-0.49725,0-0.74811c-0.22318,0-0.43488-0.00064-0.64624,0
	c-0.64304,0.00223-1.01456,0.37405-1.01486,1.0209c-0.00064,2.6416-0.00034,5.28317,0.00031,7.92474
	c0,0.56314,0.32693,0.88437,0.892,0.88403c0.13687,0,0.27377-0.00031,0.41098,0v-0.00476h4.18835v0.61151
	c0,0.14832-0.12024,0.26855-0.26855,0.26855h-1.84924c-0.21011,0-0.38202,0.17191-0.38202,0.38202v0.2981
	c0,0.21011,0.17191,0.38202,0.38202,0.38202h5.83789c0.21008,0,0.38199-0.17191,0.38199-0.38202v-0.2981
	c0-0.21011-0.17191-0.38202-0.38199-0.38202h-1.76993c-0.19214,0-0.3479-0.02377-0.3479-0.21591v-0.66415h3.03787
	c0.16333,0,0.32663,0.00031,0.48993,0.00064c0.38202,0.00095,0.7637,0.00348,1.14539,0.00891
	c0.50427,0.00668,0.89581-0.34955,0.88849-0.89709C-399.68353,301.59647-399.67557,300.74237-399.67557,299.88828z
	 M-405.99527,301.99155c0.25467,0.00284,0.44983,0.20023,0.44855,0.45395c-0.00128,0.26358-0.19833,0.4584-0.46191,0.45682
	c-0.2518-0.00128-0.44791-0.20026-0.44821-0.45459C-406.45749,302.18573-406.25821,301.98898-405.99527,301.99155z
	 M-405.10135,293.13916c0.00827,1.40515,0.00348,2.8103,0.00412,4.21545c0.00034,0.45139,0.23492,0.68887,0.68475,0.69046
	c0.63095,0.00192,1.26221,0.00095,1.89316,0c0.43518-0.00031,0.67935-0.24481,0.67966-0.67996
	c0.00064-0.70514,0.00034-1.41025,0.00034-2.11569c0.00031-0.71054,0.00031-1.42108,0-2.13159
	c0-0.4288-0.23941-0.66821-0.66949-0.66885c-0.63092-0.00061-1.26221,0.01242-1.89282-0.00412
	C-404.87534,292.43213-405.10358,292.75397-405.10135,293.13916z M-403.48325,297.79358
	c-0.17032-0.00793-0.30307-0.15662-0.29477-0.33011c0.00793-0.16394,0.15311-0.29922,0.31482-0.29416
	c0.17447,0.00543,0.30783,0.1474,0.30243,0.32187C-403.16617,297.66403-403.31262,297.80154-403.48325,297.79358z
	 M-402.53076,293.50714c0.08722,0,0.16583-0.01019,0.16522,0.12448c-0.00446,1.09763-0.0032,2.19525-0.00415,3.29291
	c0,0.00986-0.0051,0.02005-0.01242,0.04742c-0.73535,0-1.46405,0-2.21436,0c0-0.07193,0-0.13403,0-0.19611
	c0-1.02344,0.00253-2.04691-0.00287-3.07007c-0.00098-0.14706,0.03149-0.20438,0.19162-0.20215
	C-403.78217,293.51257-403.15662,293.50748-402.53076,293.50714z M-409.97324,298.94693
	c0.00034,0.42499,0.27313,0.72327,0.67773,0.72421c1.53314,0.00415,3.06659,0.00351,4.5997,0.00098
	c0.31549-0.00064,0.58765-0.20596,0.64178-0.51443c0.035-0.19769,0.00668-0.40686,0.00668-0.62204c-0.06653,0-0.12418,0-0.18179,0
	c-1.58627,0-3.17255,0.00031-4.75851,0c-0.28812,0-0.39539-0.10791-0.39539-0.39124c0-1.89923,0-3.79843,0.00031-5.69766
	c0-0.35718,0.08405-0.44217,0.439-0.44217c1.57037-0.00064,3.14041-0.00031,4.71078-0.00031c0.06241,0,0.12448,0,0.18402,0
	c0.05377-0.39984-0.25055-0.72296-0.66852-0.72327c-1.51181-0.00159-3.02393-0.00098-4.53571-0.00034
	c-0.44727,0.00034-0.71915,0.27536-0.7204,0.72742c-0.00098,0.4985-0.00064,0.99734-0.00034,1.49588
	C-409.97388,295.31851-409.97418,297.13272-409.97324,298.94693z M-406.99899,298.81799
	c0.17349,0.00128,0.30945,0.14008,0.30847,0.31516c-0.00064,0.17606-0.13687,0.31262-0.31134,0.31293
	c-0.17093,0-0.31006-0.14163-0.30972-0.31516C-407.31128,298.9584-407.16992,298.81705-406.99899,298.81799z"/>
</svg>
