<?xml version="1.0" encoding="utf-8"?>

<!--
 * Copyright (c) 2015, WSO2 Inc. (http://www.wso2.org) All Rights Reserved.
 *
 * WSO2 Inc. licenses this file to you under the Apache License,
 * Version 2.0 (the "License"); you may not use this file except
 * in compliance with the License.
 * You may obtain a copy of the License at
 *
 * http://www.apache.org/licenses/LICENSE-2.0
 *
 * Unless required by applicable law or agreed to in writing,
 * software distributed under the License is distributed on an
 * "AS IS" BASIS, WITHOUT WARRANTIES OR CONDITIONS OF ANY
 * KIND, either express or implied. See the License for the
 * specific language governing permissions and limitations
 * under the License.
-->

<svg version="1.1" id="dots" xmlns="http://www.w3.org/2000/svg" xmlns:xlink="http://www.w3.org/1999/xlink" x="0px" y="0px"
	 viewBox="0 0 17 14" enable-background="new 0 0 17 14" xml:space="preserve">
<path d="M4.2,7c0,1.2-0.9,2.1-2.1,2.1S0,8.2,0,7S1,4.9,2.1,4.9S4.2,5.8,4.2,7z M8.5,4.9C7.3,4.9,6.4,5.8,6.4,7s0.9,2.1,2.1,2.1
	s2.1-0.9,2.1-2.1S9.7,4.9,8.5,4.9z M14.9,4.9c-1.2,0-2.1,0.9-2.1,2.1s0.9,2.1,2.1,2.1S17,8.2,17,7S16,4.9,14.9,4.9z"/>
</svg>
