<?xml version="1.0" encoding="utf-8"?>

<!--
 * Copyright (c) 2015, WSO2 Inc. (http://www.wso2.org) All Rights Reserved.
 *
 * WSO2 Inc. licenses this file to you under the Apache License,
 * Version 2.0 (the "License"); you may not use this file except
 * in compliance with the License.
 * You may obtain a copy of the License at
 *
 * http://www.apache.org/licenses/LICENSE-2.0
 *
 * Unless required by applicable law or agreed to in writing,
 * software distributed under the License is distributed on an
 * "AS IS" BASIS, WITHOUT WARRANTIES OR CONDITIONS OF ANY
 * KIND, either express or implied. See the License for the
 * specific language governing permissions and limitations
 * under the License.
-->

<svg version="1.1" id="dots" xmlns="http://www.w3.org/2000/svg" xmlns:xlink="http://www.w3.org/1999/xlink" x="0px" y="0px"
	 viewBox="0.3 0 13.3 14" enable-background="new 0.3 0 13.3 14" xml:space="preserve">
<path d="M3.8,7C3.8,8,3,8.7,2,8.7S0.3,8,0.3,7S1.1,5.3,2,5.3S3.8,6,3.8,7z"/>
<path d="M7,5.3C6,5.3,5.2,6,5.2,7S6,8.7,7,8.7S8.7,8,8.7,7S7.9,5.3,7,5.3z"/>
<path d="M11.9,5.3c-1,0-1.7,0.7-1.7,1.7s0.7,1.7,1.7,1.7S13.6,8,13.6,7S12.8,5.3,11.9,5.3z"/>
</svg>
