<?xml version="1.0" encoding="utf-8"?>

<!--
 * Copyright (c) 2015, WSO2 Inc. (http://www.wso2.org) All Rights Reserved.
 *
 * WSO2 Inc. licenses this file to you under the Apache License,
 * Version 2.0 (the "License"); you may not use this file except
 * in compliance with the License.
 * You may obtain a copy of the License at
 *
 * http://www.apache.org/licenses/LICENSE-2.0
 *
 * Unless required by applicable law or agreed to in writing,
 * software distributed under the License is distributed on an
 * "AS IS" BASIS, WITHOUT WARRANTIES OR CONDITIONS OF ANY
 * KIND, either express or implied. See the License for the
 * specific language governing permissions and limitations
 * under the License.
-->

<svg version="1.1" id="download" xmlns="http://www.w3.org/2000/svg" xmlns:xlink="http://www.w3.org/1999/xlink" x="0px" y="0px"
	 viewBox="0 0 14 14" style="enable-background:new 0 0 14 14;" xml:space="preserve">
<path d="M7.00037,0C7.4477,0.04741,7.44133,0.29728,7.44084,0.60033c-0.0054,3.33126-0.00334,6.66253-0.00319,9.9938
	c0,0.04447,0,0.08893,0,0.16092c0.05273-0.04835,0.08872-0.07896,0.12203-0.11226c1.02541-1.02488,2.04927-2.05133,3.07836-3.07249
	c0.07621-0.07562,0.18381-0.13908,0.28735-0.16342c0.18644-0.04383,0.3655,0.06234,0.45063,0.23099
	c0.08217,0.16279,0.05573,0.3522-0.07349,0.49273c-0.07069,0.07688-0.14688,0.14872-0.22078,0.22263
	c-1.23724,1.23727-2.47444,2.47455-3.7118,3.71169c-0.25774,0.25769-0.47968,0.25861-0.7389-0.00042
	c-1.29556-1.29458-2.59073-2.58954-3.8852-3.8852c-0.23726-0.23748-0.2156-0.5629,0.04392-0.71987
	C2.97107,7.34977,3.1779,7.38009,3.3472,7.54855c0.48,0.47764,0.95805,0.95723,1.43683,1.4361
	c0.56233,0.56242,1.12459,1.1249,1.68702,1.68722c0.02212,0.02213,0.04565,0.04285,0.08581,0.08037
	c0.00331-0.06026,0.00764-0.10229,0.00764-0.14432c0.00016-3.32643-0.00001-6.65285-0.00016-9.97928
	c0-0.01463-0.00127-0.03864-0.0023-0.05323C6.54174,0.28656,6.59032,0.0193,7.00037,0z M11.90951,14
	c0.03509-0.01911,0.07052-0.03763,0.10521-0.05743c0.15463-0.08827,0.24596-0.26253,0.21793-0.43594
	c-0.02924-0.18085-0.13105-0.3086-0.31097-0.35818c-0.06843-0.01886-0.14321-0.02016-0.2151-0.02018
	c-3.1282-0.00093-6.25639-0.00073-9.38458-0.00094c-0.31826-0.00002-0.48918,0.10537-0.54629,0.33943
	C1.7231,13.68231,1.82492,13.85371,2.09249,14C5.36483,14,8.63717,14,11.90951,14z"/>
</svg>
