<?xml version="1.0" encoding="utf-8"?>

<!--
 * Copyright (c) 2015, WSO2 Inc. (http://www.wso2.org) All Rights Reserved.
 *
 * WSO2 Inc. licenses this file to you under the Apache License,
 * Version 2.0 (the "License"); you may not use this file except
 * in compliance with the License.
 * You may obtain a copy of the License at
 *
 * http://www.apache.org/licenses/LICENSE-2.0
 *
 * Unless required by applicable law or agreed to in writing,
 * software distributed under the License is distributed on an
 * "AS IS" BASIS, WITHOUT WARRANTIES OR CONDITIONS OF ANY
 * KIND, either express or implied. See the License for the
 * specific language governing permissions and limitations
 * under the License.
-->

<svg version="1.1" id="ebook" xmlns="http://www.w3.org/2000/svg" xmlns:xlink="http://www.w3.org/1999/xlink" x="0px" y="0px"
	 viewBox="-407.35001 291.28 14 14" style="enable-background:new -407.35001 291.28 14 14;" xml:space="preserve">
<path d="M-400.19415,295.27948c0.00696,0.15582,0.00455,0.31207,0.00455,0.46817c-0.00012,1.6828-0.00055,3.3656-0.00098,5.0484
	c-0.00006,0.23108-0.06561,0.33398-0.21167,0.33377c-0.147-0.00018-0.21326-0.10556-0.21313-0.33307
	c0.00046-0.89752,0.00018-1.79501,0.00037-2.6925c0.00015-0.90237,0.00012-1.80475,0.00024-2.70712
	c0.00003-0.039-0.00101-0.07822,0.00253-0.11697c0.0116-0.12677,0.08655-0.19949,0.20929-0.19949
	C-400.28067,295.08069-400.19983,295.15198-400.19415,295.27948z M-401.39087,297.23923
	c-0.58557-0.24008-1.19223-0.39261-1.82379-0.4342c-0.84381-0.05563-1.67123,0.07144-2.4931,0.24274
	c-0.17215,0.03601-0.24945,0.13379-0.22427,0.26642c0.0249,0.13205,0.13556,0.18652,0.31006,0.15637
	c0.36923-0.06384,0.73697-0.13644,1.10794-0.1868c0.58646-0.07965,1.17758-0.11508,1.75964,0.0155
	c0.41107,0.09222,0.81396,0.22458,1.21741,0.34842c0.17685,0.05417,0.32736-0.02167,0.32675-0.13907
	C-401.21375,297.34143-401.28897,297.2811-401.39087,297.23923z M-405.65622,296.01596
	c0.3212-0.05652,0.64062-0.12238,0.96298-0.16895c0.62921-0.09045,1.2634-0.14581,1.89053-0.01404
	c0.4263,0.08929,0.8403,0.23715,1.26282,0.34784c0.07904,0.02078,0.18356,0.01022,0.25412-0.02725
	c0.04453-0.02371,0.08228-0.13907,0.0618-0.18738c-0.03165-0.07465-0.10452-0.15341-0.1792-0.18475
	c-0.70825-0.29688-1.44696-0.45236-2.2782-0.44913c-0.65759,0.00732-1.36469,0.11096-2.06473,0.26849
	c-0.14612,0.03278-0.21521,0.14111-0.18506,0.26526C-405.90305,295.98141-405.79529,296.04056-405.65622,296.01596z
	 M-401.40903,298.52457c-0.70941-0.2951-1.44843-0.44797-1.93884-0.4465c-0.98407,0.00732-1.67621,0.11331-2.3634,0.25912
	c-0.17041,0.03632-0.24768,0.13617-0.22046,0.26907c0.02695,0.13089,0.13702,0.18271,0.31329,0.15198
	c0.37387-0.065,0.74661-0.1391,1.12225-0.18915c0.56683-0.07553,1.13922-0.11362,1.70169,0.01199
	c0.42572,0.09488,0.84265,0.23044,1.26074,0.35663c0.10452,0.03131,0.20319,0.04276,0.26294-0.04803
	c0.03922-0.05972,0.05768-0.16132,0.03424-0.22543C-401.25851,298.60394-401.3414,298.5527-401.40903,298.52457z
	 M-401.40375,299.8439c-0.71411-0.29691-1.45779-0.4509-2.23251-0.44681c-0.69977,0.00555-1.38696,0.11301-2.06973,0.25589
	c-0.17712,0.0372-0.25824,0.14435-0.22485,0.27963c0.03104,0.12531,0.14462,0.1745,0.32089,0.142
	c0.29688-0.05475,0.59259-0.11655,0.89096-0.1593c0.58939-0.08432,1.18051-0.13116,1.77576-0.04565
	c0.48456,0.06967,0.95361,0.19147,1.40421,0.38208c0.10016,0.04245,0.20438,0.05008,0.26382-0.04068
	c0.04099-0.06296,0.0556-0.1669,0.03513-0.23892C-401.25589,299.91739-401.34021,299.87024-401.40375,299.8439z
	 M-393.35001,294.94025c-0.00031,2.49341-0.00031,4.98679-0.00116,7.48047c-0.00031,0.35956-0.20789,0.53903-0.561,0.49423
	c-0.72055-0.09134-1.4411-0.18063-2.16165-0.27081c-0.95917-0.12006-1.90781,0.01523-2.85791,0.11798
	c-0.03485,0.00381-0.08667,0.01962-0.09808,0.04449c-0.077,0.16953-0.23746,0.21112-0.38971,0.25357
	c-0.30618,0.08505-0.61673,0.12396-0.92813,0.11887l0,0c-0.00079,0.00003-0.00156,0-0.00235,0s-0.00156,0.00003-0.00235,0l0,0
	c-0.3114,0.0051-0.62195-0.03381-0.92813-0.11887c-0.15225-0.04245-0.31271-0.08405-0.38971-0.25357
	c-0.01141-0.02487-0.06323-0.04068-0.09808-0.04449c-0.9501-0.10275-1.89874-0.23804-2.85791-0.11798
	c-0.72055,0.09018-1.4411,0.17947-2.16165,0.27081c-0.35312,0.0448-0.5607-0.13467-0.561-0.49423
	c-0.00085-2.49368-0.00085-4.98706-0.00116-7.48047c0-0.03397,0.00116-0.06821,0.00351-0.10217
	c0.01962-0.26761,0.13031-0.38647,0.39938-0.42044c0.00262-0.04099,0.01288-0.08521,0.00671-0.12677
	c-0.03513-0.24127,0.09369-0.39059,0.29807-0.4588c0.34491-0.11536,0.6936-0.23657,1.05054-0.29633
	c0.90207-0.15048,1.81207-0.20581,2.72556-0.10187c0.82449,0.09369,1.61444,0.31561,2.36896,0.66022
	c0.0527,0.02411,0.0975,0.03247,0.14493,0.02478v-0.00046c0.00079,0.00015,0.00156,0.00009,0.00235,0.00021
	c0.00079-0.00012,0.00156-0.00006,0.00235-0.00021v0.00046c0.04742,0.00769,0.09222-0.00067,0.14493-0.02478
	c0.75452-0.3446,1.54446-0.56653,2.36896-0.66022c0.91348-0.10394,1.82349-0.04861,2.72556,0.10187
	c0.35693,0.05975,0.70563,0.18097,1.05054,0.29633c0.20438,0.06821,0.33319,0.21753,0.29807,0.4588
	c-0.00616,0.04156,0.00409,0.08578,0.00671,0.12677c0.26907,0.03397,0.37976,0.15283,0.39938,0.42044
	C-393.35117,294.87204-393.35001,294.90628-393.35001,294.94025z M-394.18094,294.43958
	c0.00058-0.15692-0.04831-0.24008-0.19119-0.27112c-0.39908-0.08667-0.79608-0.19058-1.19955-0.24857
	c-0.6626-0.09546-1.33218-0.11771-2.00003-0.06119c-0.93198,0.07904-1.81912,0.32703-2.65823,0.74426
	c-0.03247,0.01636-0.08145,0.0224-0.12006,0.01434c-0.0386,0.00806-0.08759,0.00201-0.12006-0.01434
	c-0.83911-0.41724-1.72626-0.66522-2.65823-0.74426c-0.66785-0.05652-1.33743-0.03427-2.00003,0.06119
	c-0.40347,0.05798-0.80048,0.1619-1.19955,0.24857c-0.14288,0.03104-0.19177,0.1142-0.19119,0.27112
	c0.00644,2.43484,0.00497,4.86969,0.00528,7.3045c0,0.04773,0,0.09576,0,0.16837c0.07816-0.02136,0.13702-0.03455,0.19412-0.05386
	c0.92667-0.31476,1.87646-0.48663,2.8576-0.45795c1.03003,0.03018,2.01672,0.26236,2.96655,0.65497
	c0.05182,0.02155,0.09732,0.02963,0.14316,0.02618v-0.00012c0.00079,0.00009,0.00156,0,0.00235,0.00006
	c0.00079-0.00006,0.00156,0.00003,0.00235-0.00006v0.00012c0.04584,0.00345,0.09134-0.00464,0.14316-0.02618
	c0.94983-0.39261,1.93652-0.62479,2.96655-0.65497c0.98114-0.02869,1.93094,0.14319,2.8576,0.45795
	c0.0571,0.01932,0.11597,0.0325,0.19412,0.05386c0-0.0726,0-0.12064,0-0.16837
	C-394.18591,299.30927-394.18738,296.87442-394.18094,294.43958z M-399.16302,297.64767
	c0.40344-0.12384,0.80634-0.2562,1.21741-0.34842c0.58206-0.13058,1.17319-0.09515,1.75964-0.0155
	c0.37097,0.05035,0.73871,0.12296,1.10794,0.1868c0.1745,0.03015,0.28516-0.02432,0.31006-0.15637
	c0.02518-0.13263-0.05212-0.23041-0.22427-0.26642c-0.82187-0.1713-1.64929-0.29837-2.4931-0.24274
	c-0.63156,0.0416-1.23822,0.19412-1.82379,0.4342c-0.1019,0.04187-0.17712,0.1022-0.18063,0.26938
	C-399.49039,297.62601-399.33987,297.70184-399.16302,297.64767z M-399.41425,296.15356
	c0.07056,0.03748,0.17508,0.04803,0.25412,0.02725c0.42252-0.11069,0.83652-0.25854,1.26282-0.34784
	c0.62714-0.13177,1.26132-0.07642,1.89053,0.01404c0.32236,0.04657,0.64178,0.11243,0.96298,0.16895
	c0.13907,0.0246,0.24683-0.03455,0.27493-0.1499c0.03015-0.12415-0.03894-0.23248-0.18506-0.26526
	c-0.70004-0.15753-1.40714-0.26117-2.06473-0.26849c-0.83124-0.00323-1.56995,0.15225-2.2782,0.44913
	c-0.07468,0.03134-0.14755,0.11011-0.1792,0.18475C-399.49652,296.0145-399.45877,296.12985-399.41425,296.15356z
	 M-399.16626,298.93771c0.41809-0.12619,0.83502-0.26175,1.26074-0.35663c0.56247-0.12561,1.13486-0.08752,1.70169-0.01199
	c0.37564,0.05005,0.74838,0.12415,1.12225,0.18915c0.17627,0.03073,0.28635-0.02109,0.31329-0.15198
	c0.02722-0.1329-0.05005-0.23276-0.22046-0.26907c-0.68719-0.14581-1.37933-0.2518-2.3634-0.25912
	c-0.49042-0.00146-1.22943,0.1514-1.93884,0.4465c-0.06763,0.02814-0.15048,0.07938-0.17245,0.13968
	c-0.02344,0.06412-0.00497,0.16571,0.03424,0.22543C-399.36945,298.98047-399.27078,298.96902-399.16626,298.93771z
	 M-394.99402,299.65298c-0.68277-0.14288-1.36996-0.25034-2.06973-0.25589c-0.77472-0.00409-1.5184,0.1499-2.23251,0.44681
	c-0.06354,0.02634-0.14786,0.07349-0.16367,0.12823c-0.02048,0.07202-0.00586,0.17596,0.03513,0.23892
	c0.05945,0.09076,0.16367,0.08313,0.26382,0.04068c0.45059-0.19061,0.91965-0.31241,1.40421-0.38208
	c0.59525-0.08551,1.18637-0.03867,1.77576,0.04565c0.29837,0.04276,0.59409,0.10455,0.89096,0.1593
	c0.17627,0.0325,0.28986-0.01669,0.32089-0.142C-394.73578,299.79733-394.81686,299.69019-394.99402,299.65298z"/>
</svg>
