<?xml version="1.0" encoding="utf-8"?>

<!--
 * Copyright (c) 2015, WSO2 Inc. (http://www.wso2.org) All Rights Reserved.
 *
 * WSO2 Inc. licenses this file to you under the Apache License,
 * Version 2.0 (the "License"); you may not use this file except
 * in compliance with the License.
 * You may obtain a copy of the License at
 *
 * http://www.apache.org/licenses/LICENSE-2.0
 *
 * Unless required by applicable law or agreed to in writing,
 * software distributed under the License is distributed on an
 * "AS IS" BASIS, WITHOUT WARRANTIES OR CONDITIONS OF ANY
 * KIND, either express or implied. See the License for the
 * specific language governing permissions and limitations
 * under the License.
-->

<svg version="1.1" id="enterprise-app" xmlns="http://www.w3.org/2000/svg" xmlns:xlink="http://www.w3.org/1999/xlink" x="0px"
	 y="0px" viewBox="0 0 12.19622 14" style="enable-background:new 0 0 12.19622 14;" xml:space="preserve">
<path d="M12.09998,7.21997l-0.02997-0.01996c-0.96002-0.47003-2.42999-1.20001-3.31-1.63c-0.06-0.03003-0.13-0.06-0.20001-0.08002
	C8.35999,5.45001,8.15002,5.46997,7.95001,5.57001C7.92999,5.58002,7.91998,5.59003,7.90002,5.59998
	c-0.54004,0.26001-1.08002,0.53003-1.62,0.81C6.21002,6.44,6.13,6.47998,6.06,6.52002
	C6.03003,6.53998,5.98999,6.54999,5.96002,6.57001L4.88,7.09998C4.84997,7.12,4.82,7.14002,4.79998,7.15998
	C4.77002,7.19,4.75,7.22998,4.76001,7.28003c0,0.02997,0.02002,0.06,0.03998,0.07996c0.03003,0.03003,0.06,0.04999,0.08002,0.06
	c0.70001,0.36005,1.40997,0.71002,2.10999,1.06L7.90002,8.94L8.19,9.08002c0.12,0.06,0.25,0.09998,0.37,0.10999
	c0.19,0.02002,0.37-0.02002,0.56-0.10999L11.78998,7.75v1.03998c0,0.87,0,1.76001,0,2.64001c0,0.28998-0.12,0.47998-0.38995,0.62
	c-0.83002,0.41003-1.67004,0.83002-2.51001,1.25l-0.07001,0.04004v-0.79004c0-0.76001,0-1.51001,0-2.26996
	c0-0.11005-0.01001-0.19-0.03003-0.27002c-0.02997-0.16998-0.10999-0.31-0.22998-0.44
	c-0.09003-0.10004-0.20001-0.17999-0.34003-0.25C8.10999,9.27002,8.01001,9.21002,7.90002,9.15997
	c-0.73004-0.37-1.48004-0.72998-2.22003-1.10999c-0.26001-0.13-0.52002-0.26001-0.77997-0.38
	C4.85999,7.65002,4.82001,7.64001,4.78998,7.64001c-0.01996,0-0.04999,0-0.07001,0.01001
	C4.67999,7.67999,4.65002,7.73999,4.65002,7.82001v1.01001V9.06c0,0.27002,0,0.53998,0,0.81c0,0.46002,0,0.91998,0,1.38
	c0,0.01001,0,0.02002,0,0.03003c0,0.22998,0.04999,0.42999,0.16998,0.58997c0,0.01001,0,0.01001,0,0.01001
	c0.09998,0.15002,0.24,0.27001,0.43,0.35998l1.02002,0.52002C6.62,12.94,6.98999,13.12,7.34003,13.29999
	c0.38995,0.19,0.75995,0.38,1.07996,0.54004l0.06,0.02997c0.03003,0.02002,0.05005,0.03003,0.08002,0.02002v0.01001
	c0.03998,0,0.08002-0.01001,0.12-0.03003l1.76001-0.88c0.39001-0.19,0.77002-0.38,1.15997-0.58002
	C12,12.21002,12.20001,11.88,12.20001,11.44c0-0.97003,0-1.95001,0-2.90997V7.40997
	C12.20001,7.40002,12.20001,7.27002,12.09998,7.21997z M11.46002,7.45001C10.60999,7.87,9.76001,8.28998,8.91998,8.71002
	C8.83002,8.76001,8.73999,8.78003,8.65002,8.78003c-0.03003,0-0.06,0-0.09003-0.01001C8.5,8.76001,8.45001,8.75,8.39001,8.71997
	L7.90002,8.47998L5.48999,7.27002L6.06,6.98999l0.07-0.03998c0.31-0.16003,0.62-0.31,0.92999-0.46002
	c0.28003-0.14996,0.56-0.28998,0.84003-0.41998c0.07996-0.03998,0.14996-0.08002,0.22998-0.12
	c0.08002-0.04004,0.15997-0.06,0.22998-0.04999C8.42999,5.90002,8.5,5.90997,8.56,5.94c0.02002,0,0.03998,0.01001,0.06,0.02002
	l0.90002,0.44c0.65997,0.32996,1.38,0.67999,1.94,0.95996l0.08997,0.04999L11.46002,7.45001z M8.40997,12.69v0.68l-0.07996-0.03998
	C8.20001,13.26001,8.06,13.19,7.90002,13.10999c-0.14001-0.06-0.27002-0.13-0.41003-0.20001L7.44,12.88
	c-0.27002-0.14001-0.53003-0.27002-0.71002-0.35999l-0.33997-0.17004c-0.04004-0.01996-0.09003-0.03998-0.13-0.06995H6.25
	c-0.07001-0.04004-0.13-0.07001-0.20001-0.10004C5.84998,12.08,5.65998,11.98998,5.46002,11.89
	C5.17999,11.75,5.04999,11.53998,5.06,11.23999c0-0.71997,0-1.45001,0-2.15997v-0.87l1.03003,0.50995
	C6.16998,8.76001,6.25,8.79999,6.33002,8.84003c0.23999,0.12,0.48999,0.25,0.72998,0.37C7.34003,9.34998,7.62,9.48999,7.90002,9.63
	C7.95001,9.65002,8,9.67999,8.04999,9.70001c0.23999,0.12,0.35999,0.32001,0.35999,0.58997
	C8.40997,11.09003,8.40997,11.89001,8.40997,12.69z M6.04999,1.53003c0,0.34998,0,0.68994,0,1.03998c0.34003,0,0.65002,0,1.01001,0
	c0-0.37,0-0.70001,0-1.03998C6.70001,1.53003,6.39001,1.53003,6.04999,1.53003z M6.03998,5.01001c0.36005,0,0.69,0,1.03003,0
	c0-0.35999,0-0.67999,0-1.04004c-0.37,0-0.69,0-1.03003,0C6.03998,4.34003,6.03998,4.66998,6.03998,5.01001z M4.81,1.53003
	c-0.35999,0-0.69,0-1.03998,0c0,0.34998,0,0.66998,0,1.02997c0.38,0,0.70996,0,1.03998,0C4.81,2.19,4.81,1.87,4.81,1.53003z
	 M4.79999,3.96997c-0.34998,0-0.67999,0-1.02997,0c0,0.36005,0,0.68005,0,1.04004c0.37,0,0.69,0,1.02997,0
	C4.79999,4.65002,4.79999,4.32001,4.79999,3.96997z M4.79999,7.04999V7.03998c0-0.21997,0-0.42999,0-0.63995
	c-0.35999,0-0.67999,0-1.01996,0c0,0.38,0,0.69995,0,1.02997c0.32996,0,0.62994,0,0.94995,0
	c-0.02997-0.02997-0.06-0.08002-0.07001-0.13C4.63,7.15997,4.72998,7.08002,4.79999,7.04999z M3.78003,9.87
	c0.25995,0,0.51996,0,0.76996,0c0-0.27002,0-0.53998,0-0.81V8.83002c-0.26001,0-0.51001,0-0.76996,0
	C3.78003,9.21002,3.78003,9.53003,3.78003,9.87z M2.54999,1.53003c-0.34998,0-0.69,0-1.02997,0c0,0.35999,0,0.68994,0,1.03998
	c0.34998,0,0.66998,0,1.02997,0C2.54999,2.19,2.54999,1.87,2.54999,1.53003z M2.54999,6.40997c-0.35999,0-0.69,0-1.01996,0
	c0,0.36005,0,0.69,0,1.03003c0.34998,0,0.66998,0,1.01996,0C2.54999,7.08002,2.54999,6.75,2.54999,6.40997z M2.54999,8.84003
	c-0.35999,0-0.69,0-1.01996,0c0,0.37,0,0.70996,0,1.03998c0.34998,0,0.66998,0,1.01996,0
	C2.54999,9.51001,2.54999,9.19,2.54999,8.84003z M2.53998,3.96002c-0.35999,0-0.67999,0-1.01996,0c0,0.35999,0,0.69995,0,1.06
	c0.35999,0,0.67999,0,1.01996,0C2.53998,4.65997,2.53998,4.31,2.53998,3.96002z M2.54999,11.27002c-0.35999,0-0.69,0-1.01996,0
	c0,0.35999,0,0.69,0,1.02997c0.34998,0,0.66998,0,1.01996,0C2.54999,11.95001,2.54999,11.60999,2.54999,11.27002z M8.38,13.94
	c-0.37-0.19-0.79999-0.40997-1.26001-0.64001c-0.75,0-1.51001,0-2.29999,0c0-0.42999,0-0.84998,0-1.26001
	c-0.17999-0.19995-0.27002-0.44995-0.27002-0.75995c0-0.01001,0-0.02002,0-0.03003c-0.26996,0-0.51001,0-0.77997,0
	c0,0.67999,0,1.34003,0,2.03003C3.60999,13.29999,3.48999,13.33002,3.37,13.33002c-0.76001,0.01001-1.52997-0.01001-2.28998,0.01001
	c-0.32001,0.00995-0.44-0.09003-0.42999-0.42004c0.01996-0.69,0.00995-1.37,0.00995-2.06c0-3.20996,0.01001-6.40997-0.00995-9.62
	C0.64001,0.75,0.78998,0.65002,1.25,0.65002c2.03998,0.02997,4.08002,0.01996,6.12,0.01996c0.16003,0,0.33002,0,0.53003,0
	c0,1.61005,0,3.21002,0,4.81C8.12,5.37,8.34998,5.34003,8.56,5.40002v-5.13C8.48999,0.07001,8.31,0,8,0
	C5.53998,0.02002,3.08002,0.01001,0.62,0.01001C0.04999,0.01001,0,0.06,0,0.62c0,2.12,0,4.22998,0,6.34998
	c0,2.13,0,4.26001,0,6.40002C0,13.94,0.06,14,0.65002,14c2.63995,0,5.26996,0,7.90997,0c-0.04999,0-0.08002-0.01001-0.13-0.03998
	L8.38,13.94z"/>
</svg>
