<?xml version="1.0" encoding="utf-8"?>

<!--
 * Copyright (c) 2015, WSO2 Inc. (http://www.wso2.org) All Rights Reserved.
 *
 * WSO2 Inc. licenses this file to you under the Apache License,
 * Version 2.0 (the "License"); you may not use this file except
 * in compliance with the License.
 * You may obtain a copy of the License at
 *
 * http://www.apache.org/licenses/LICENSE-2.0
 *
 * Unless required by applicable law or agreed to in writing,
 * software distributed under the License is distributed on an
 * "AS IS" BASIS, WITHOUT WARRANTIES OR CONDITIONS OF ANY
 * KIND, either express or implied. See the License for the
 * specific language governing permissions and limitations
 * under the License.
-->

<svg version="1.1" id="enterprise-app" xmlns="http://www.w3.org/2000/svg" xmlns:xlink="http://www.w3.org/1999/xlink" x="0px"
	 y="0px" viewBox="-414 291.28 12.19622 14" style="enable-background:new -414 291.28 12.19622 14;" xml:space="preserve">
<path d="M-401.81,300.37997c0-0.33997,0-0.67999,0-1.02997c0-0.09003-0.04999-0.16998-0.13-0.21002
	c-0.83002-0.40997-2.09998-1.03998-2.95001-1.45996l-0.04999-0.03003c-0.12-0.06-0.25-0.08997-0.37-0.08997
	c-0.03998,0-0.09003,0-0.13,0.01996c-0.09003,0.01001-0.17999,0.04004-0.27002,0.08002c-0.13,0.06-0.25995,0.13-0.38995,0.19
	c-0.31,0.15997-0.63,0.32001-0.94,0.46997c-0.17004,0.09003-0.35004,0.17999-0.52002,0.26001
	c-0.09003,0.04004-0.16998,0.09003-0.26001,0.13c-0.21997,0.12-0.45001,0.22998-0.66998,0.34003
	c-0.04999,0.02997-0.16003,0.07996-0.13,0.19c0.01001,0.07001,0.07001,0.12,0.13,0.14996c0.60999,0.31,1.22998,0.62,1.83002,0.92004
	c0.38995,0.18994,0.77997,0.38995,1.16998,0.57996c0.14001,0.08002,0.28998,0.10999,0.42999,0.10999
	c0.15002,0,0.28998-0.02997,0.44-0.10999c0.52002-0.26001,1.04999-0.51996,1.57001-0.77997l0.47998-0.23004
	c0.09003-0.04999,0.19-0.09998,0.29999-0.14996l0.04004-0.02002c0,0.28998,0,0.59003,0,0.88c0,0.78998,0,1.60999,0,2.40997
	c0,0.26001-0.10004,0.43005-0.34003,0.55005c-0.77002,0.38-1.53998,0.76996-2.31,1.14996V304.16c0-0.72003,0-1.47003,0-2.20001
	c0-0.08997-0.01001-0.17999-0.02002-0.25c-0.06995-0.27997-0.25-0.48999-0.53998-0.64001
	c-0.03998-0.01996-0.07001-0.03998-0.10999-0.06c-0.56-0.27997-1.14001-0.57001-1.69-0.83997l-0.51001-0.25
	c-0.22998-0.12-0.46997-0.23999-0.71002-0.35999c-0.03998-0.02002-0.07996-0.03003-0.10999-0.03003
	c-0.02997,0-0.04999,0.01001-0.07001,0.03003c-0.04999,0.02997-0.07996,0.07996-0.07996,0.16998c0,0.01001,0,0.02997,0,0.04999
	v0.02002c0,0.28998,0,0.57996,0,0.87c0,0.71997,0,1.46997,0,2.20001c0,0.40997,0.17999,0.70996,0.56,0.89996
	c0.25,0.13,0.53998,0.28003,0.84998,0.42999c0.34998,0.17999,0.71002,0.36005,1.06,0.54004s0.69,0.33997,0.96997,0.48999
	c0.02002,0.01001,0.04004,0.01001,0.06006,0.01996l0.00995,0.01001c0.02002,0.01001,0.05005,0.02002,0.08002,0.02002
	c0.03998,0,0.07001-0.01001,0.10999-0.03003c0.17999-0.08997,0.37-0.17999,0.55005-0.26996l0.43994-0.22003
	c0.17004-0.08997,0.34003-0.16998,0.51001-0.26001c0.38-0.17999,0.77002-0.37994,1.15002-0.57996
	c0.38-0.19,0.57001-0.48004,0.57001-0.90002C-401.81,302.13998-401.81,301.24997-401.81,300.37997z M-402.90002,299.56003
	c-0.63995,0.31995-1.28998,0.63995-1.92999,0.95996c-0.07001,0.04004-0.14996,0.06-0.22998,0.06
	c-0.07001,0-0.15002-0.01996-0.22003-0.06c-0.57996-0.28998-1.14996-0.57001-1.71997-0.85999l-0.88-0.44l0.38-0.19
	c0.46002-0.22998,0.92999-0.46002,1.40002-0.69v-0.01001c0.19-0.08997,0.38995-0.19,0.57996-0.27997
	c0.02002-0.01001,0.05005-0.02002,0.08002-0.04004c0.03003,0,0.07001-0.01001,0.09998-0.01001h0.01001
	c0.09003,0.01001,0.17004,0.03003,0.23004,0.06006c0.19995,0.08997,0.40997,0.19995,0.64996,0.31
	c0.66003,0.32996,1.41003,0.69995,1.97003,0.97998L-402.90002,299.56003z M-405.29999,304.26999v0.46002
	c-0.22003-0.10999-0.51001-0.25-0.79999-0.40002c-0.26001-0.14001-0.52002-0.26001-0.69-0.34998l-0.24005-0.12
	c-0.29999-0.15002-0.60999-0.31-0.91998-0.46002c-0.23999-0.12-0.34998-0.29999-0.34998-0.57001
	c0.01001-0.64996,0-1.32001,0-1.95996c0-0.25,0-0.5,0-0.75l0.62,0.31c0.66998,0.33997,1.38,0.67999,2.06,1.02997
	c0.21997,0.10999,0.32001,0.27002,0.32001,0.51001C-405.31,302.74002-405.29999,303.50998-405.29999,304.26999z
	 M-406.35999,304.94998c0.21997,0.12,0.44,0.23004,0.64001,0.33002c-2.55005,0-5.08002,0-7.63,0
	c-0.59003,0-0.65002-0.06-0.65002-0.63c0-2.14001,0-4.27002,0-6.40002c0-2.12,0-4.22998,0-6.34998
	c0-0.56,0.04999-0.60999,0.62-0.60999c2.46002,0,4.91998,0.01001,7.38-0.01001c0.31,0,0.48999,0.07001,0.56,0.27002v5.77997
	c-0.12,0.01001-0.22998,0.04004-0.34998,0.10004c-0.01001,0-0.02002,0.00995-0.03003,0.00995
	c-0.08997,0.05005-0.19,0.09003-0.27997,0.14001c0-1.70996,0-4.26001,0-5.63c-0.20001,0-0.37,0-0.53003,0
	c-2.03998,0-4.08002,0.01001-6.12-0.01996c-0.46002,0-0.60999,0.09998-0.59998,0.58997
	c0.01996,3.21002,0.00995,6.41003,0.00995,9.62c0,0.69,0.01001,1.37-0.00995,2.06c-0.01001,0.33002,0.10999,0.42999,0.42999,0.42004
	c0.76001-0.02002,1.52997,0,2.28998-0.01001c0.12,0,0.23999-0.03003,0.40002-0.04999c0-0.69,0-1.35004,0-2.03003
	c0.26996,0,0.77997,0,1.04999,0v0.78998c0,0.41003,0,0.83002,0,1.26001c0.71002,0,1.39996,0,2.07001,0
	C-406.85999,304.70999-406.60999,304.82999-406.35999,304.94998z M-406.92999,296.29001c-0.34003,0-0.66998,0-1.03003,0
	c0-0.34003,0-0.66998,0-1.04004c0.34003,0,0.66003,0,1.03003,0C-406.92999,295.61002-406.92999,295.93002-406.92999,296.29001z
	 M-406.94,292.81003c0,0.33997,0,0.66998,0,1.03998c-0.35999,0-0.66998,0-1.01001,0c0-0.35004,0-0.69,0-1.03998
	C-407.60999,292.81003-407.29999,292.81003-406.94,292.81003z M-408.06,297.68002c0.34003,0,0.65997,0,1.02002,0
	c0,0.12,0,0.23999,0,0.37c-0.21002,0.09998-0.42004,0.20996-0.63,0.31l-0.39001,0.20001
	C-408.06,298.28-408.06,297.99997-408.06,297.68002z M-409.19,293.84c-0.33002,0-0.65997,0-1.03998,0c0-0.35999,0-0.67999,0-1.02997
	c0.34998,0,0.67999,0,1.03998,0C-409.19,293.14999-409.19,293.47-409.19,293.84z M-409.21997,298.70999c-0.32001,0-0.67004,0-1,0
	c0-0.33002,0-0.64996,0-1.02997c0.33997,0,0.65997,0,1.01996,0c0,0.20996,0,0.41998,0,0.63995v0.01001L-409.21997,298.70999z
	 M-409.20001,296.29001c-0.33997,0-0.65997,0-1.02997,0c0-0.35999,0-0.67999,0-1.04004c0.34998,0,0.67999,0,1.02997,0
	C-409.20001,295.60001-409.20001,295.93002-409.20001,296.29001z M-410.21997,300.11002c0.25995,0,0.50995,0,0.76996,0V300.34
	c0,0.27002,0,0.53998,0,0.81c-0.25,0-0.51001,0-0.76996,0C-410.21997,300.81003-410.21997,300.49002-410.21997,300.11002z
	 M-411.45001,303.57999c-0.34998,0-0.66998,0-1.01996,0c0-0.33997,0-0.66998,0-1.02997c0.32996,0,0.65997,0,1.01996,0
	C-411.45001,302.88998-411.45001,303.23001-411.45001,303.57999z M-411.45001,301.16c-0.34998,0-0.66998,0-1.01996,0
	c0-0.33002,0-0.66998,0-1.03998c0.32996,0,0.65997,0,1.01996,0C-411.45001,300.47-411.45001,300.79001-411.45001,301.16z
	 M-411.45001,298.72c-0.34998,0-0.66998,0-1.01996,0c0-0.34003,0-0.66998,0-1.03003c0.32996,0,0.65997,0,1.01996,0
	C-411.45001,298.03-411.45001,298.36002-411.45001,298.72z M-411.45001,293.85001c-0.35999,0-0.67999,0-1.02997,0
	c0-0.35004,0-0.67999,0-1.03998c0.33997,0,0.67999,0,1.02997,0C-411.45001,293.14999-411.45001,293.47-411.45001,293.85001z
	 M-411.46002,296.30002c-0.33997,0-0.65997,0-1.01996,0c0-0.36005,0-0.70001,0-1.06c0.33997,0,0.65997,0,1.01996,0
	C-411.46002,295.59-411.46002,295.93997-411.46002,296.30002z"/>
</svg>
