<?xml version="1.0" encoding="utf-8"?>

<!--
 * Copyright (c) 2015, WSO2 Inc. (http://www.wso2.org) All Rights Reserved.
 *
 * WSO2 Inc. licenses this file to you under the Apache License,
 * Version 2.0 (the "License"); you may not use this file except
 * in compliance with the License.
 * You may obtain a copy of the License at
 *
 * http://www.apache.org/licenses/LICENSE-2.0
 *
 * Unless required by applicable law or agreed to in writing,
 * software distributed under the License is distributed on an
 * "AS IS" BASIS, WITHOUT WARRANTIES OR CONDITIONS OF ANY
 * KIND, either express or implied. See the License for the
 * specific language governing permissions and limitations
 * under the License.
-->

<svg version="1.1" id="enterprise-wipe" xmlns="http://www.w3.org/2000/svg" xmlns:xlink="http://www.w3.org/1999/xlink" x="0px"
	 y="0px" viewBox="0 0 14 14" style="enable-background:new 0 0 14 14;" xml:space="preserve">
<path d="M13.8,4.4c-0.1-0.2-0.3-0.3-0.5-0.3c-0.2,0-0.4,0.1-0.6,0.2c-1.1,1.1-2.2,2.2-3.3,3.3c0,0,0,0,0,0.1l0,0l0,0
	C8.9,7.6,8.8,7.5,8.6,7.6c-0.1,0-0.1,0.1-0.2,0.1C8.2,7.8,8.1,7.9,7.9,8C7.2,8.3,6.4,8.4,5.5,8.3C5,8.3,4.6,8.2,4.1,8C4.1,8,4,8,4,8
	C4,8,4,8,3.9,8C3.9,8,3.8,8.1,3.8,8.2c0,0.2,0,0.4,0,0.7c0,0.3,0,0.6,0.1,1c0,0,0,0,0,0.1c0.1,0.5,0.3,0.9,0.6,1.4
	c0.1,0.1,0.2,0.2,0.2,0.4c0.2,0.3,0.5,0.6,0.8,0.9c0.3,0.3,0.6,0.6,1,0.8c0.3,0.2,0.7,0.4,1.1,0.5C8,13.9,8.3,14,8.6,13.9
	c0.1,0,0.2,0,0.2,0c0.1,0,0.1-0.1,0.2-0.2c0.1-0.3,0.2-0.6,0.3-0.9l1.2-3.3c0.1-0.2,0-0.5-0.1-0.6l-0.1-0.1l0.1,0c0,0,0,0,0,0
	c0.5-0.5,1.1-1.1,1.6-1.6l0.6-0.6c0.4-0.4,0.8-0.8,1.2-1.2C14,5.1,14,4.7,13.8,4.4z M9.6,10.9l-0.3,0.9c-0.2,0.6-0.4,1.1-0.6,1.7
	c0,0,0,0.1-0.1,0.1l0,0c0,0,0,0-0.1,0c0,0-0.1,0-0.1,0c-0.2,0-0.4,0-0.6-0.1l-0.1,0l0-0.1c0,0,0,0,0,0c0.3-0.4,0.5-0.8,0.6-1.2
	c0-0.1,0-0.2,0-0.2c0,0-0.1-0.1-0.1-0.1c-0.1,0-0.2,0-0.2,0.1c-0.1,0.2-0.2,0.5-0.3,0.7c-0.1,0.2-0.2,0.4-0.4,0.6c0,0,0,0,0,0
	c0,0-0.1,0-0.1,0c0,0,0,0,0,0C7.2,13.2,7,13.1,6.8,13l-0.2-0.1l0.2-0.2c0.1-0.1,0.3-0.3,0.4-0.5c0.1-0.1,0.1-0.2,0.2-0.3l0,0
	c0-0.1,0-0.1,0-0.2c0,0,0-0.1-0.1-0.1c-0.1,0-0.2,0-0.3,0.1c-0.1,0.1-0.1,0.2-0.2,0.2c0,0,0,0,0,0C7,12,6.8,12.2,6.7,12.3
	c-0.1,0.1-0.2,0.2-0.3,0.3c-0.1,0-0.1,0.1-0.2,0c-0.1-0.1-0.3-0.2-0.4-0.4L5.6,12c0,0,0,0,0,0l0,0l0.1,0c0,0,0,0,0,0l0.2-0.1
	c0.1,0,0.1-0.1,0.2-0.1c0.1-0.1,0.2-0.1,0.3-0.2c0.1,0,0.1-0.1,0.1-0.1c0,0,0-0.1,0-0.1c0,0,0,0,0-0.1c-0.1-0.1-0.2-0.1-0.3,0
	c-0.2,0.1-0.5,0.3-0.8,0.4l0,0c0,0,0,0-0.1,0l0,0C5.1,11.4,5,11.2,4.9,11l-0.1-0.2l0.2,0c0.1,0,0.2,0,0.3,0c0.2,0,0.4-0.1,0.7-0.1
	c0.1,0,0.1,0,0.1-0.1c0,0,0-0.1,0-0.1s0-0.1-0.1-0.1c0,0-0.1,0-0.2,0c-0.4,0.1-0.7,0.2-1.1,0.1c0,0-0.1,0-0.1,0l0,0
	C4.5,10.2,4.4,10,4.4,9.9c0,0,0-0.1,0-0.1l0-0.2h0.1c0.1,0,0.2,0,0.2,0h0c0.1,0,0.1,0,0.2,0c0.2,0,0.3,0,0.5,0c0.2,0,0.4,0,0.5-0.1
	l0.1,0C6,9.5,6,9.5,6,9.5c0,0,0-0.1,0-0.1c0,0,0,0,0-0.1c0,0,0,0,0,0c0,0,0,0,0,0c0,0-0.1,0-0.2,0c-0.3,0.1-0.7,0.1-1,0.1
	c-0.2,0-0.3,0-0.5-0.1c0,0-0.1,0-0.1,0l0,0v0c0-0.1,0-0.2,0-0.3c0-0.1,0-0.2,0-0.4l0-0.1l0.2,0.1c0.1,0,0.2,0.1,0.3,0.1
	c0.9,0.2,1.8,0.2,2.6,0c0,0,0.1,0,0.1,0c0.2,0.2,0.3,0.3,0.5,0.5c0.2,0.2,0.4,0.4,0.7,0.7c0.1,0.1,0.1,0.1,0.2,0.2
	c0.3,0.3,0.6,0.6,0.8,0.8C9.6,10.8,9.6,10.8,9.6,10.9z M9.9,10.2l-0.1,0.3L8.6,9.2L7.9,8.5L7.8,8.4l0.1-0.1h0C8,8.3,8.2,8.2,8.3,8.2
	c0.1,0,0.1-0.1,0.2-0.1l0,0v0l0.1,0c0.1-0.1,0.2-0.1,0.3,0L9,8.1c0.4,0.3,0.7,0.7,1.1,1.1c0,0.1,0.1,0.1,0.1,0.2
	C10.1,9.6,10,9.9,9.9,10.2z M13.5,5C13.5,5.1,13.5,5.1,13.5,5L13.5,5L10,8.5L9.5,8l0,0c0,0,0,0,0,0c1.1-1.1,2.2-2.2,3.4-3.3
	c0.1-0.1,0.3-0.2,0.4-0.1c0.1,0,0.2,0.1,0.2,0.2C13.6,4.8,13.6,5,13.5,5z M7.1,5C6.7,5,6.4,5,6,5c0-0.3,0-0.7,0-1c0.3,0,0.7,0,1,0
	C7.1,4.3,7.1,4.7,7.1,5z M7.1,1.5c0,0.3,0,0.7,0,1c-0.4,0-0.7,0-1,0c0-0.4,0-0.7,0-1C6.4,1.5,6.7,1.5,7.1,1.5z M6.1,7.4
	c0-0.3,0-0.6,0-1c0.3,0,0.6,0,1,0c0,0.4,0,0.7,0,1C6.7,7.4,6.4,7.4,6.1,7.4z M4.8,2.6c-0.3,0-0.7,0-1,0c0-0.4,0-0.7,0-1
	c0.3,0,0.7,0,1,0C4.8,1.9,4.8,2.2,4.8,2.6z M4.8,5c-0.3,0-0.7,0-1,0c0-0.4,0-0.7,0-1c0.3,0,0.7,0,1,0C4.8,4.3,4.8,4.7,4.8,5z
	 M3.8,7.4c0-0.3,0-0.6,0-1c0.3,0,0.7,0,1,0c0,0.3,0,0.7,0,1C4.5,7.4,4.1,7.4,3.8,7.4z M3.8,9.9c0-0.2,0-0.3,0-0.5
	C3.8,9.5,3.8,9.7,3.8,9.9C3.9,9.8,3.9,9.9,3.8,9.9C3.8,9.9,3.8,9.9,3.8,9.9z M2.5,2.6c-0.4,0-0.7,0-1,0c0-0.4,0-0.7,0-1
	c0.3,0,0.7,0,1,0C2.5,1.9,2.5,2.2,2.5,2.6z M2.5,7.4c-0.3,0-0.7,0-1,0c0-0.3,0-0.7,0-1c0.3,0,0.7,0,1,0C2.5,6.8,2.5,7.1,2.5,7.4z
	 M2.5,9.9c-0.3,0-0.7,0-1,0c0-0.3,0-0.7,0-1c0.3,0,0.7,0,1,0C2.5,9.2,2.5,9.5,2.5,9.9z M2.5,5c-0.3,0-0.7,0-1,0c0-0.4,0-0.7,0-1.1
	c0.3,0,0.7,0,1,0C2.5,4.3,2.5,4.7,2.5,5z M2.5,12.3c-0.3,0-0.7,0-1,0c0-0.3,0-0.7,0-1c0.3,0,0.7,0,1,0C2.5,11.6,2.5,12,2.5,12.3z
	 M7.6,13.9C7.8,14,7.9,14,8,14c-2.5,0-4.9,0-7.4,0C0.1,14,0,13.9,0,13.4C0,11.2,0,9.1,0,7c0-2.1,0-4.2,0-6.3C0,0.1,0,0,0.6,0
	C3.1,0,5.5,0,8,0c0.3,0,0.5,0.1,0.6,0.3v7.2c-0.1,0-0.2,0.1-0.3,0.1C8.2,7.7,8,7.8,7.9,7.8c0-2.4,0-4.8,0-7.2c-0.2,0-0.4,0-0.5,0
	c-2,0-4.1,0-6.1,0c-0.5,0-0.6,0.1-0.6,0.6c0,3.2,0,6.4,0,9.6c0,0.7,0,1.4,0,2.1c0,0.3,0.1,0.4,0.4,0.4c0.8,0,1.5,0,2.3,0
	c0.1,0,0.2,0,0.4,0c0-0.7,0-1.4,0-2c0.2,0,0.5,0,0.7,0c0.1,0.2,0.2,0.3,0.4,0.5c0,0.5,0,1,0,1.5c0.5,0,1.1,0,1.6,0
	C6.8,13.6,7.2,13.8,7.6,13.9z"/>
</svg>
