<?xml version="1.0" encoding="utf-8"?>

<!--
 * Copyright (c) 2015, WSO2 Inc. (http://www.wso2.org) All Rights Reserved.
 *
 * WSO2 Inc. licenses this file to you under the Apache License,
 * Version 2.0 (the "License"); you may not use this file except
 * in compliance with the License.
 * You may obtain a copy of the License at
 *
 * http://www.apache.org/licenses/LICENSE-2.0
 *
 * Unless required by applicable law or agreed to in writing,
 * software distributed under the License is distributed on an
 * "AS IS" BASIS, WITHOUT WARRANTIES OR CONDITIONS OF ANY
 * KIND, either express or implied. See the License for the
 * specific language governing permissions and limitations
 * under the License.
-->

<svg version="1.1" id="factory-reset" xmlns="http://www.w3.org/2000/svg" xmlns:xlink="http://www.w3.org/1999/xlink" x="0px"
	 y="0px" viewBox="580 290.28003 14 14" style="enable-background:new 580 290.28003 14 14;" xml:space="preserve">
<style type="text/css">
	.st0{fill:#231F20;}
</style>
<path class="st0" d="M585.21216,293.86349v1.50604c0,0.19449,0.15869,0.35315,0.35321,0.35315h0.0614
	c0.19446,0,0.35315-0.15866,0.35315-0.35315v-1.94366c0.29175-0.12155,0.60266-0.20474,0.92767-0.24442v2.78052
	c0,0.19449,0.15869,0.35315,0.35315,0.35315h0.06146c0.19446,0,0.35315-0.15866,0.35315-0.35315v-2.7933
	c0.32373,0.02942,0.63464,0.10236,0.92767,0.21368v1.98718c0,0.19449,0.15869,0.35315,0.35315,0.35315h0.06146
	c0.19446,0,0.35315-0.15866,0.35315-0.35315v-1.58411c0.89954,0.62314,1.49707,1.65192,1.53162,2.82016h0.24188
	c0.11261,0,0.20343,0.09213,0.20343,0.20346v0.37491c0,0.11261-0.0921,0.20346-0.20343,0.20346h-7.63776
	c-0.11261,0-0.20349-0.09213-0.20349-0.20346v-0.37363c0-0.11261,0.09216-0.20346,0.20349-0.20346h0.28149
	C583.82001,295.48471,584.3728,294.49304,585.21216,293.86349z M590.16156,298.74506
	c0.10876-0.26617,0.23285-0.34167,0.23285-0.34167s0.04224-0.01663,0.37494-0.01663s0.29175-0.34164,0.29175-0.34164v-0.43378
	c0,0-0.91748,0-1.76709,0c-0.05756,1.97568-1.86688,2.05118-1.97565,2.04221c-2.08313-0.18298-1.95776-2.04221-1.95776-2.04221
	h-1.776c0,0,0.00891,0.37494,0.02557,0.508c0.0166,0.13309,0.11646,0.30072,0.41711,0.27512
	c0.30072-0.0256,0.4082,0.21625,0.4082,0.21625s0.03326,0.0755,0.15863,0.34164c0.12543,0.26614,0.0589,0.39154,0.0589,0.39154
	s-0.04224,0.09982-0.22522,0.26614c-0.18298,0.16635-0.03326,0.35831-0.03326,0.35831s0.50031,0.51694,0.64233,0.6257
	s0.30841,0.06653,0.30841,0.06653s0.14203-0.09979,0.20856-0.19193c0.16632-0.22903,0.39923-0.09213,0.39923-0.09213
	s0.18298,0.05887,0.41711,0.15866c0.23291,0.09982,0.24182,0.22522,0.24182,0.22522s0.04224,0.0499,0.03333,0.30835
	c-0.00897,0.25848,0.22516,0.31735,0.22516,0.31735s0.60016,0.01663,0.88293-0.00897
	c0.28278-0.02557,0.29175-0.16632,0.28278-0.41711c-0.00897-0.24954,0.15869-0.37494,0.15869-0.37494
	s0.03326,0.01663,0.35059-0.14203s0.46704-0.06653,0.46704-0.06653s0,0,0.20856,0.19193
	c0.20856,0.19196,0.40051,0.04224,0.40051,0.04224s0.45038-0.45041,0.63336-0.6257c0.18298-0.17532,0.04993-0.37494-0.08313-0.47473
	c-0.23291-0.25848-0.14972-0.44144-0.14972-0.44144S590.0528,299.0112,590.16156,298.74506z M593.47534,294.68185
	c-0.33624-0.79486-0.81744-1.50864-1.4303-2.12149s-1.3266-1.09409-2.12146-1.43027
	c-0.82312-0.34814-1.69727-0.52469-2.59821-0.52469c-1.41534,0-2.76758,0.43741-3.91052,1.26495
	c-0.54999,0.39822-1.03485,0.87607-1.4411,1.42026c-0.25671,0.34384-0.4787,0.70975-0.66376,1.09357
	c-0.24963-0.7327-0.48822-1.435-0.72925-2.14609c-0.01111-0.03275-0.04675-0.05035-0.07953-0.03925
	c-0.15765,0.05356-0.30304,0.10223-0.45862,0.15479c-0.03265,0.01102-0.05023,0.04636-0.03943,0.07904
	c0.34711,1.0455,0.69141,2.07861,1.04285,3.13281c0.01093,0.03284,0.04651,0.0506,0.07935,0.03958
	c1.04205-0.34991,2.06744-0.69565,3.1095-1.04559c0.03259-0.01093,0.05023-0.0462,0.03943-0.07886
	c-0.05383-0.16245-0.10339-0.31534-0.15417-0.4707c-0.0108-0.03293-0.04639-0.05075-0.07922-0.03976
	c-0.67303,0.22543-1.32977,0.44708-2.0022,0.67236c0.15607-0.31226,0.33984-0.61081,0.55023-0.89258
	c0.3598-0.48193,0.78918-0.90509,1.27618-1.25772c1.01111-0.73209,2.20764-1.11905,3.46027-1.11905
	c0.79761,0,1.57111,0.1561,2.29913,0.46402c0.70331,0.29749,1.33508,0.72345,1.87769,1.26605s0.96857,1.17435,1.26605,1.87769
	c0.30786,0.728,0.46399,1.50153,0.46399,2.2991s-0.15613,1.57111-0.46399,2.2991c-0.29749,0.70334-0.72345,1.33508-1.26605,1.87769
	s-1.17438,0.96857-1.87769,1.26605c-0.72803,0.30792-1.50153,0.46402-2.29913,0.46402c-1.24384,0-2.43347-0.38199-3.44031-1.10468
	c-0.48511-0.34818-0.9137-0.76627-1.27405-1.24265c-0.3537-0.46768-0.63446-0.98236-0.8349-1.53046
	c-0.00964-0.02643-0.03864-0.04022-0.06519-0.03079l-0.62689,0.22314c-0.02673,0.00952-0.04077,0.03903-0.03101,0.06567
	c0.22675,0.62177,0.54474,1.20544,0.94568,1.73553c0.40686,0.53796,0.89087,1.01007,1.43866,1.40326
	c1.13812,0.81689,2.4826,1.24872,3.888,1.24872c0.90094,0,1.77502-0.17654,2.59821-0.52469
	c0.79486-0.33618,1.50861-0.81741,2.12146-1.43027s1.09406-1.32663,1.4303-2.12149c0.34814-0.82312,0.52466-1.69727,0.52466-2.59818
	S593.82349,295.50497,593.47534,294.68185z"/>
</svg>
