<?xml version="1.0" encoding="utf-8"?>

<!--
 * Copyright (c) 2015, WSO2 Inc. (http://www.wso2.org) All Rights Reserved.
 *
 * WSO2 Inc. licenses this file to you under the Apache License,
 * Version 2.0 (the "License"); you may not use this file except
 * in compliance with the License.
 * You may obtain a copy of the License at
 *
 * http://www.apache.org/licenses/LICENSE-2.0
 *
 * Unless required by applicable law or agreed to in writing,
 * software distributed under the License is distributed on an
 * "AS IS" BASIS, WITHOUT WARRANTIES OR CONDITIONS OF ANY
 * KIND, either express or implied. See the License for the
 * specific language governing permissions and limitations
 * under the License.
-->

<svg version="1.1" id="factory-reset" xmlns="http://www.w3.org/2000/svg" xmlns:xlink="http://www.w3.org/1999/xlink" x="0px"
	 y="0px" viewBox="0 0 1008 1008" style="enable-background:new 0 0 1008 1008;" xml:space="preserve">
<style type="text/css">
	.st0{fill:#231F20;}
</style>
<path class="st0" d="M371.4,257.7v117.7c0,15.2,12.4,27.6,27.6,27.6h4.8c15.2,0,27.6-12.4,27.6-27.6V223.5
	c22.8-9.5,47.1-16,72.5-19.1v217.3c0,15.2,12.4,27.6,27.6,27.6h4.8c15.2,0,27.6-12.4,27.6-27.6V203.4c25.3,2.3,49.6,8,72.5,16.7
	v155.3c0,15.2,12.4,27.6,27.6,27.6h4.8c15.2,0,27.6-12.4,27.6-27.6V251.6c70.3,48.7,117,129.1,119.7,220.4h18.9
	c8.8,0,15.9,7.2,15.9,15.9v29.3c0,8.8-7.2,15.9-15.9,15.9H238.1c-8.8,0-15.9-7.2-15.9-15.9V488c0-8.8,7.2-15.9,15.9-15.9h22
	C262.6,384.4,305.8,306.9,371.4,257.7z M758.2,639.2c8.5-20.8,18.2-26.7,18.2-26.7s3.3-1.3,29.3-1.3s22.8-26.7,22.8-26.7v-33.9
	c0,0-71.7,0-138.1,0C685.9,705,544.5,710.9,536,710.2C373.2,695.9,383,550.6,383,550.6H244.2c0,0,0.7,29.3,2,39.7
	c1.3,10.4,9.1,23.5,32.6,21.5c23.5-2,31.9,16.9,31.9,16.9s2.6,5.9,12.4,26.7c9.8,20.8,4.6,30.6,4.6,30.6s-3.3,7.8-17.6,20.8
	c-14.3,13-2.6,28-2.6,28s39.1,40.4,50.2,48.9c11.1,8.5,24.1,5.2,24.1,5.2s11.1-7.8,16.3-15c13-17.9,31.2-7.2,31.2-7.2
	s14.3,4.6,32.6,12.4c18.2,7.8,18.9,17.6,18.9,17.6s3.3,3.9,2.6,24.1c-0.7,20.2,17.6,24.8,17.6,24.8s46.9,1.3,69-0.7
	c22.1-2,22.8-13,22.1-32.6c-0.7-19.5,12.4-29.3,12.4-29.3s2.6,1.3,27.4-11.1c24.8-12.4,36.5-5.2,36.5-5.2s0,0,16.3,15
	c16.3,15,31.3,3.3,31.3,3.3s35.2-35.2,49.5-48.9s3.9-29.3-6.5-37.1c-18.2-20.2-11.7-34.5-11.7-34.5S749.7,660,758.2,639.2z
	 M764.1,81.7C659,22.5,546.6,3.8,428.7,29.3C271.2,63.4,158.4,156.1,86.4,302.4c-16.8-49.3-32.8-96.4-49-144.2
	c-12.9,4.4-24.3,8.2-37,12.5C23.5,240.3,46.4,309,69.8,379.2c69.4-23.3,137.6-46.3,207-69.6c-4.4-13.2-8.3-25.3-12.4-37.8
	c-46.6,15.6-91.9,30.9-138.5,46.5C186.7,169.6,362.5,36.3,580,61.6C799,87,965.9,273.4,968.5,494.8c2.6,225.6-159,412.5-386.3,443.7
	c-105.7,14.5-204.9-8.5-294.4-66.9C168.1,793.5,102.4,681.3,85.7,539.2c-13.1,0.9-25.4,1.8-37.7,2.7C55.8,704.7,178,912.2,415.1,969
	c233.3,55.9,472.4-69.9,559.9-293.4C1062,453.5,971.7,198.5,764.1,81.7z"/>
</svg>
