<?xml version="1.0" encoding="utf-8"?>

<!--
 * Copyright (c) 2015, WSO2 Inc. (http://www.wso2.org) All Rights Reserved.
 *
 * WSO2 Inc. licenses this file to you under the Apache License,
 * Version 2.0 (the "License"); you may not use this file except
 * in compliance with the License.
 * You may obtain a copy of the License at
 *
 * http://www.apache.org/licenses/LICENSE-2.0
 *
 * Unless required by applicable law or agreed to in writing,
 * software distributed under the License is distributed on an
 * "AS IS" BASIS, WITHOUT WARRANTIES OR CONDITIONS OF ANY
 * KIND, either express or implied. See the License for the
 * specific language governing permissions and limitations
 * under the License.
-->

<svg version="1.1" id="fan" xmlns="http://www.w3.org/2000/svg" xmlns:xlink="http://www.w3.org/1999/xlink" x="0px" y="0px"
	 viewBox="0 0 14 14" style="enable-background:new 0 0 14 14;" xml:space="preserve">
<path d="M14.00146,7.00378c-0.02866,3.91474-3.16058,7.01006-7.02642,6.99618c-3.87036-0.0139-6.9802-3.12375-6.97649-7.00446
	c0.00376-3.93286,3.17968-7.00834,7.02157-6.99545C10.88193,0.01299,13.98598,3.12043,14.00146,7.00378z M6.99529,0.77695
	c-3.40268-0.005-6.21845,2.74248-6.22894,6.22972c-0.01033,3.431,2.82249,6.22818,6.24355,6.21798
	c3.41069-0.01017,6.21524-2.75029,6.21536-6.22377C13.22537,3.49253,10.38095,0.76613,6.99529,0.77695z M7.75923,5.46332
	C7.80632,5.19243,7.85723,4.95911,7.886,4.72309C7.97726,3.97437,7.8644,3.2644,7.44434,2.6237
	c-0.60403-0.9213-1.81872-1.23976-2.648-0.94858C4.19092,1.8877,3.80374,2.34999,3.72076,3.00795
	C3.63985,3.64942,3.92593,4.13541,4.43167,4.50286c0.51763,0.37608,1.13709,0.64409,1.35698,1.371
	C6.33951,5.16872,7.01003,5.14361,7.75923,5.46332z M6.45724,8.50631c-0.56917-0.07586-1.03339-0.56694-1.1085-1.2545
	C5.33222,7.10052,5.27143,7.06273,5.1319,7.10783c-0.45817,0.1481-0.88859,0.34918-1.28258,0.62968
	c-1.06972,0.76158-1.37278,2.1032-0.75083,3.25907c0.41387,0.76916,1.17915,0.99834,1.80839,0.87682
	c0.72305-0.13964,1.19499-0.7531,1.23456-1.56084c0.018-0.36738,0.05597-0.73833,0.1353-1.0965
	c0.04981-0.2249,0.19326-0.42905,0.30176-0.65736C6.54774,8.54492,6.50423,8.51258,6.45724,8.50631z M7.90339,8.38447
	C8.13512,8.57361,8.33036,8.75505,8.54696,8.9058c0.7794,0.54245,1.61973,0.801,2.56582,0.50321
	c0.84158-0.26489,1.61088-1.22674,1.57824-1.97548c-0.02795-0.64092-0.27098-1.15788-0.85728-1.4615
	c-0.52058-0.2696-1.03692-0.17873-1.54617,0.06201c-0.53844,0.25454-1.05206,0.6103-1.76175,0.42774
	C8.8856,7.30727,8.54716,7.89205,7.90339,8.38447z M7.96877,6.97684c0.00819-0.51918-0.4446-0.97908-0.96774-0.98294
	C6.4707,5.98999,6.02007,6.42787,6.01167,6.95528C6.00341,7.47381,6.45778,7.93532,6.97946,7.93828
	C7.51022,7.94128,7.96046,7.50373,7.96877,6.97684z"/>
</svg>
