<?xml version="1.0" encoding="utf-8"?>

<!--
 * Copyright (c) 2015, WSO2 Inc. (http://www.wso2.org) All Rights Reserved.
 *
 * WSO2 Inc. licenses this file to you under the Apache License,
 * Version 2.0 (the "License"); you may not use this file except
 * in compliance with the License.
 * You may obtain a copy of the License at
 *
 * http://www.apache.org/licenses/LICENSE-2.0
 *
 * Unless required by applicable law or agreed to in writing,
 * software distributed under the License is distributed on an
 * "AS IS" BASIS, WITHOUT WARRANTIES OR CONDITIONS OF ANY
 * KIND, either express or implied. See the License for the
 * specific language governing permissions and limitations
 * under the License.
-->

<svg version="1.1" id="file-browse" xmlns="http://www.w3.org/2000/svg" xmlns:xlink="http://www.w3.org/1999/xlink" x="0px"
	 y="0px" viewBox="0 0 14 14" style="enable-background:new 0 0 14 14;" xml:space="preserve">
<path d="M9.02734,9.59198c0.04504-0.08942,0.09003-0.08942,0.09003-0.13416c0.45007-0.89417,0.49512-1.78833,0-2.63776
	C8.62231,5.9259,7.81213,5.47882,6.77692,5.47882c-1.48529,0-2.65552,1.25183-2.61053,2.77191
	c0.09003,1.83301,2.07043,3.0401,3.73578,2.19067c0.13501-0.04474,0.27002-0.13416,0.36005-0.13416
	c0.13501,0,0.22504,0.17883,0.31506,0.26825c0.31506,0.31299,0.63013,0.62592,0.94519,0.9389
	c0.27008,0.31293,0.72015,0.22351,0.85516-0.13416c0.09003-0.22351,0.04504-0.40234-0.13501-0.58118
	C9.83752,10.39667,9.43243,9.99432,9.02734,9.59198z M6.86694,10.12842c-1.12524,0.04474-2.02539-0.84943-2.07043-1.9671
	C4.75153,7.04364,5.65167,6.14948,6.8219,6.10474C7.94714,6.06006,8.84735,6.95422,8.89233,8.0719
	C8.89233,9.18958,7.99219,10.08374,6.86694,10.12842z M13.75476,4.57953c-0.14484-0.16656-0.35193-0.24701-0.59747-0.26825
	c0-0.23633-0.01471-0.46698,0.00311-0.6955c0.03595-0.46173-0.44708-0.85577-0.91998-0.85315
	c-2.3548,0.01318-4.70972,0.005-7.06458,0.00885C5.0506,2.77167,4.97205,2.73712,4.90765,2.64191
	C4.78491,2.46027,4.65881,2.28033,4.52606,2.10486C4.33447,1.85162,4.08923,1.72186,3.73132,1.729
	C2.80255,1.74762,1.87305,1.73523,0.94385,1.73529C0.4743,1.73535,0.1637,1.94598,0.02094,2.36011
	C0.01703,2.37152,0.00714,2.38116,0,2.39166c0,3.27039,0,6.54077,0,9.8111c0.10907,0.15088,0.20068,0.31653,0.33209,0.44843
	c0.13531,0.13586,0.32764,0.18756,0.53406,0.18744c3.62268-0.0011,7.2453-0.00037,10.86798-0.0014
	c0.42615-0.00012,0.79095-0.30493,0.86755-0.7052c0.13055-0.68188,0.2644-1.36322,0.40045-2.04419
	c0.31348-1.5686,0.62897-3.13684,0.94452-4.70514C13.95966,5.31805,13.98199,5.255,14,5.19122c0-0.07568,0-0.15131,0-0.22699
	C13.91949,4.83508,13.85461,4.69434,13.75476,4.57953z M0.55896,9.00208c0-2.12256,0-4.24512,0.00018-6.36774
	c0-0.05457-0.00116-0.1095,0.00458-0.1637C0.57886,2.32751,0.64081,2.27063,0.7959,2.25458
	c0.04059-0.00421,0.08185-0.00421,0.1228-0.00421c0.96149-0.00024,1.92297,0.00165,2.8844-0.00262
	c0.11481-0.00049,0.19012,0.03345,0.24847,0.11975c0.08673,0.12823,0.1745,0.25604,0.26697,0.3808
	c0.0744,0.1004,0.15112,0.20013,0.23615,0.29291C4.70667,3.20697,4.8963,3.28577,5.14087,3.28528
	c2.34674-0.00464,4.69348-0.00275,7.04022-0.00275c0.38019,0,0.42084,0.03796,0.4209,0.39191c0,0.20898,0,0.41797,0,0.64105
	c-0.07825,0-0.14075,0-0.20331,0c-3.33099,0-6.66205,0-9.99304,0c-0.60529,0-0.91187,0.25287-1.0177,0.80725
	c-0.15857,0.83087-0.33203,1.6593-0.4989,2.48883C0.79279,8.09033,0.69708,8.56915,0.60071,9.04785
	C0.59595,9.07153,0.58728,9.09448,0.55896,9.11719C0.55896,9.07886,0.55896,9.04047,0.55896,9.00208z M13.27826,5.875
	c-0.34198,1.70898-0.68555,3.41766-1.02948,5.12634c-0.06726,0.33417-0.13605,0.66815-0.20831,1.0014
	c-0.07013,0.3233-0.07251,0.32294-0.44019,0.32294c-3.54089,0-7.08173,0-10.62262-0.00006
	c-0.05011,0-0.10034,0.00165-0.15033-0.00092C0.633,12.3147,0.54535,12.23541,0.57465,12.05829
	c0.05829-0.35254,0.13214-0.70294,0.20245-1.05371C1.11041,9.34106,1.44531,7.6778,1.77814,6.01422
	c0.06689-0.33423,0.12714-0.66956,0.19073-1.00433c0.01892-0.09955,0.08588-0.15607,0.19189-0.16931
	C2.21906,4.83331,2.27899,4.83575,2.3382,4.83575C4.12915,4.83551,5.9201,4.83557,7.711,4.83557c1.79095,0,3.58191,0,5.3728,0.00012
	c0.04559,0,0.09143-0.00153,0.1366,0.00281c0.14062,0.01343,0.22308,0.08698,0.20441,0.21741
	C13.38556,5.33014,13.3327,5.60284,13.27826,5.875z"/>
</svg>
