<?xml version="1.0" encoding="utf-8"?>

<!--
 * Copyright (c) 2015, WSO2 Inc. (http://www.wso2.org) All Rights Reserved.
 *
 * WSO2 Inc. licenses this file to you under the Apache License,
 * Version 2.0 (the "License"); you may not use this file except
 * in compliance with the License.
 * You may obtain a copy of the License at
 *
 * http://www.apache.org/licenses/LICENSE-2.0
 *
 * Unless required by applicable law or agreed to in writing,
 * software distributed under the License is distributed on an
 * "AS IS" BASIS, WITHOUT WARRANTIES OR CONDITIONS OF ANY
 * KIND, either express or implied. See the License for the
 * specific language governing permissions and limitations
 * under the License.
-->

<svg version="1.1" id="file-browse" xmlns="http://www.w3.org/2000/svg" xmlns:xlink="http://www.w3.org/1999/xlink" x="0px" y="0px" viewBox="0 0 14 14" style="enable-background:new 0 0 14 14;" xml:space="preserve">
<path class="st0" d="M7.87,6.46002C8.21997,6.79999,8.41998,7.26001,8.44,7.75c0,1.02002-0.81,1.84003-1.84998,1.88
	c-0.02002,0-0.05005,0-0.07001,0c-0.47003,0-0.91003-0.17999-1.23999-0.5C4.92999,8.78998,4.71997,8.33002,4.70001,7.83002
	C4.67999,7.37,4.84998,6.91998,5.16998,6.58002c0.35004-0.38,0.84003-0.60004,1.39001-0.62c0.02002,0,0.04999,0,0.07001,0
	C7.09003,5.96002,7.53003,6.13,7.87,6.46002z M14,4.76001v0.20996C14,5,14,5.02002,13.98999,5.03998
	c0,0.02002-0.01001,0.04004-0.02002,0.06C13.96002,5.14001,13.95001,5.16998,13.94,5.20001
	c-0.28003,1.40997-0.59998,3.01001-0.90997,4.56c-0.14001,0.70996-0.27002,1.34998-0.39001,1.96997
	c-0.04004,0.23999-0.17999,0.46002-0.37,0.62c-0.19,0.16003-0.44,0.25-0.69,0.25c-1.72003,0-3.44,0-5.15002,0
	c-1.78998,0-3.58002,0-5.37,0c-0.27997,0-0.51001-0.07996-0.66998-0.25C0.28003,12.25,0.21002,12.13,0.13,12.02002
	c-0.03003-0.04004-0.06-0.09003-0.09003-0.13C0.01001,11.84998,0,11.81,0,11.76001V2.27002c0-0.05005,0.01001-0.09003,0.03998-0.13
	c0,0,0,0,0-0.01001c0.17999-0.47003,0.56-0.72003,1.10004-0.72003c0.26001,0,0.51996,0,0.76996,0s0.51001,0,0.77002,0
	c0.45001,0,0.81,0,1.15002-0.00995c0.01001,0,0.01996,0,0.02997,0c0.39001,0,0.69,0.14996,0.92004,0.44995
	c0.12,0.16003,0.23999,0.33002,0.37994,0.53003c0.02002,0.02002,0.02002,0.02997,0.07001,0.02997c0.48004,0,0.98004,0,1.65002,0
	c0.27002,0,0.53998,0,0.82001,0c0.26996,0,0.54999,0,0.82001,0c1.13,0,2.34998,0,3.54999-0.00995h0.01001
	c0.31,0,0.63,0.13995,0.84998,0.38c0.17999,0.19995,0.28003,0.43994,0.26001,0.68994c-0.01001,0.14001-0.01001,0.28003-0.01001,0.44
	c0,0,0,0.01001,0,0.02002c0.22003,0.04999,0.40002,0.15002,0.53003,0.31c0.07996,0.09003,0.13995,0.19,0.19,0.29004
	C13.91998,4.56,13.94,4.59998,13.96997,4.64001C13.98999,4.66998,14,4.71002,14,4.76001z M9.94,10.31L8.83002,9.21002
	C8.84998,9.19,8.87,9.16998,8.88,9.13C9.34998,8.19,9.34998,7.29999,8.87,6.48999C8.38,5.59998,7.56,5.13,6.51001,5.13
	c-0.71002,0-1.38,0.27997-1.87,0.78998C4.12,6.46002,3.84998,7.16998,3.87,7.92999C3.90997,8.82001,4.40997,9.62,5.19,10.07001
	c0.76001,0.44,1.67999,0.46997,2.45001,0.08002c0.06-0.02002,0.10999-0.04004,0.15997-0.07001
	c0.04999-0.02002,0.12-0.04999,0.15002-0.04999c0.03998,0,0.09998,0.06995,0.14001,0.12994
	C8.12,10.19,8.14001,10.22998,8.16998,10.25l0.91003,0.90997C9.21002,11.29999,9.38,11.38,9.54999,11.38
	c0.03003,0,0.07001,0,0.10004-0.01001c0.20996-0.02997,0.37-0.17999,0.44995-0.37C10.20001,10.73999,10.15002,10.52002,9.94,10.31z
	 M12.20001,3.51001c0-0.08002,0-0.12-0.01001-0.15002c-0.03003,0-0.08002-0.01001-0.17999-0.01001c-0.51001,0-1.02002,0-1.53003,0
	s-1.01996,0-1.52997,0c-1.03003,0-2.39001,0-3.75,0c-0.29999,0-0.54004-0.09998-0.73004-0.29999
	c-0.08997-0.09998-0.16998-0.20996-0.25-0.31C4.13,2.62,4.03998,2.48999,3.96002,2.37
	C3.95001,2.35999,3.95001,2.35999,3.95001,2.35999c0-0.01001-0.01001-0.01001-0.04004-0.01001c-0.54999,0-1.08997,0-1.53998,0
	c-0.17999,0-0.35999,0-0.53998,0s-0.36005,0-0.54004,0H1.10999c-0.02997,0-0.06,0-0.08997,0.01001c-0.01001,0-0.02002,0-0.03003,0
	c0,0,0,0,0,0.01001c0,0.03003,0,0.07001,0,0.10999V2.5c0,1.38,0,2.77002,0,4.15002C1,6.60999,1.01001,6.57001,1.01001,6.53003
	C1.13,5.98999,1.23999,5.41998,1.34998,4.87c0.12-0.65002,0.52002-0.96997,1.20001-0.96997h9.65002V3.51001z"/>
</svg>
