<?xml version="1.0" encoding="utf-8"?>
<!--
 * Copyright (c) 2015, WSO2 Inc. (http://www.wso2.org) All Rights Reserved.
 *
 * WSO2 Inc. licenses this file to you under the Apache License,
 * Version 2.0 (the "License"); you may not use this file except
 * in compliance with the License.
 * You may obtain a copy of the License at
 *
 * http://www.apache.org/licenses/LICENSE-2.0
 *
 * Unless required by applicable law or agreed to in writing,
 * software distributed under the License is distributed on an
 * "AS IS" BASIS, WITHOUT WARRANTIES OR CONDITIONS OF ANY
 * KIND, either express or implied. See the License for the
 * specific language governing permissions and limitations
 * under the License.
-->

<svg version="1.1" id="folder" xmlns="http://www.w3.org/2000/svg" xmlns:xlink="http://www.w3.org/1999/xlink" x="0px" y="0px"
	 viewBox="0 0 14 14" style="enable-background:new 0 0 14 14;" xml:space="preserve">
<path d="M1.83,2.35c0.18,0,0.36,0,0.54,0c0.45,0,0.99,0,1.54,0c0.03,0,0.04,0,0.04,0.01c0,0,0,0,0.01,0.01
	c0.08,0.12,0.17,0.25,0.26,0.37c0.08,0.1,0.16,0.21,0.25,0.31c0.19,0.2,0.43,0.3,0.73,0.3c1.36,0,2.72,0,3.75,0
	c0.51,0,1.02,0,1.53,0c0.51,0,1.02,0,1.53,0c0.1,0,0.15,0.01,0.18,0.01c0.01,0.03,0.01,0.07,0.01,0.15V3.9H2.55
	c-0.68,0-1.08,0.32-1.2,0.97C1.24,5.42,1.13,5.99,1.01,6.53c0,0.04-0.01,0.08-0.02,0.12c0-1.38,0-2.77,0-4.15V2.48
	c0-0.04,0-0.08,0-0.11c0-0.01,0-0.01,0-0.01c0.01,0,0.02,0,0.03,0c0.03-0.01,0.06-0.01,0.09-0.01h0.18
	C1.47,2.35,1.65,2.35,1.83,2.35z M0.04,2.13c0,0.01,0,0.01,0,0.01C0.01,2.18,0,2.22,0,2.27v9.49c0,0.05,0.01,0.09,0.04,0.13
	s0.06,0.09,0.09,0.13c0.08,0.11,0.15,0.23,0.26,0.33c0.16,0.17,0.39,0.25,0.67,0.25c1.79,0,3.58,0,5.37,0c1.71,0,3.43,0,5.15,0
	c0.25,0,0.5-0.09,0.69-0.25s0.33-0.38,0.37-0.62c0.12-0.62,0.25-1.26,0.39-1.97c0.31-1.55,0.63-3.15,0.91-4.56
	c0.01-0.03,0.02-0.06,0.03-0.1c0.01-0.02,0.02-0.04,0.02-0.06C14,5.02,14,5,14,4.97V4.76c0-0.05-0.01-0.09-0.03-0.12
	c-0.03-0.04-0.05-0.08-0.07-0.11c-0.05-0.1-0.11-0.2-0.19-0.29c-0.13-0.16-0.31-0.26-0.53-0.31c0-0.01,0-0.02,0-0.02
	c0-0.16,0-0.3,0.01-0.44c0.02-0.25-0.08-0.49-0.26-0.69c-0.22-0.24-0.54-0.38-0.85-0.38h-0.01c-1.2,0.01-2.42,0.01-3.55,0.01
	c-0.27,0-0.55,0-0.82,0c-0.28,0-0.55,0-0.82,0c-0.67,0-1.17,0-1.65,0c-0.05,0-0.05-0.01-0.07-0.03C5.02,2.18,4.9,2.01,4.78,1.85
	C4.55,1.55,4.25,1.4,3.86,1.4c-0.01,0-0.02,0-0.03,0c-0.34,0.01-0.7,0.01-1.15,0.01c-0.26,0-0.52,0-0.77,0s-0.51,0-0.77,0
	C0.6,1.41,0.22,1.66,0.04,2.13z"/>
</svg>
