<?xml version="1.0" encoding="utf-8"?>

<!--
 * Copyright (c) 2015, WSO2 Inc. (http://www.wso2.org) All Rights Reserved.
 *
 * WSO2 Inc. licenses this file to you under the Apache License,
 * Version 2.0 (the "License"); you may not use this file except
 * in compliance with the License.
 * You may obtain a copy of the License at
 *
 * http://www.apache.org/licenses/LICENSE-2.0
 *
 * Unless required by applicable law or agreed to in writing,
 * software distributed under the License is distributed on an
 * "AS IS" BASIS, WITHOUT WARRANTIES OR CONDITIONS OF ANY
 * KIND, either express or implied. See the License for the
 * specific language governing permissions and limitations
 * under the License.
-->

<svg version="1.1" id="forum" xmlns="http://www.w3.org/2000/svg" xmlns:xlink="http://www.w3.org/1999/xlink" x="0px" y="0px"
	 viewBox="0 0 14 14" enable-background="new 0 0 14 14" xml:space="preserve">
<path d="M1.6,8.8c-0.2,0-0.3,0-0.5,0C0.5,8.6,0,8,0,7.4c0-1.5,0-3.1,0-4.6C0,2,0.6,1.3,1.4,1.3c2.6,0,5.2,0,7.8,0
	c0.8,0,1.4,0.6,1.4,1.4c0,1.6,0,3.1,0,4.7c0,0.8-0.6,1.4-1.4,1.4c-1.4,0-2.8,0-4.2,0C4.8,8.8,4.7,8.8,4.5,9c-0.7,0.7-1.3,1.3-2,2
	c-0.3,0.3-0.6,0.3-0.8,0c-0.1-0.1-0.1-0.3-0.1-0.4C1.6,10,1.6,9.4,1.6,8.8z M11.7,11.6c-0.5-0.5-1-1-1.5-1.5C10.1,10,10,9.9,9.9,9.9
	c-1.1,0-2.3,0-3.4,0c-0.2,0-0.4,0-0.5-0.2C5.8,9.5,5.7,9.5,5.5,9.5c-0.1,0-0.2,0-0.3,0C5,9.6,4.9,9.6,5,9.8c0.2,0.6,0.8,1,1.5,1
	c1,0,2,0,3,0c0.1,0,0.2,0,0.3,0.1c0.5,0.5,1,1,1.5,1.5c0.3,0.3,0.6,0.3,1,0.2c0.3-0.1,0.5-0.4,0.5-0.8c0-0.3,0-0.6,0-0.8
	c0-0.1,0-0.2,0.1-0.2C13.6,10.5,14,10,14,9.2c0-1.2,0-2.4,0-3.5c0-0.7-0.4-1.3-1.1-1.5c-0.5-0.1-1,0-1.5-0.1c0,0.3,0,0.5,0,0.7
	c0,0.1,0,0.1,0,0.2c0.1,0,0.1,0,0.2,0c0.3,0,0.5,0,0.8,0c0.4,0,0.7,0.3,0.7,0.7c0,1.2,0,2.3,0,3.5c0,0.4-0.3,0.7-0.7,0.7
	c-0.2,0-0.3,0-0.5,0c0,0.6,0,1.2,0,1.8C11.8,11.6,11.8,11.6,11.7,11.6z"/>
</svg>
