<?xml version="1.0" encoding="utf-8"?>

<!--
 * Copyright (c) 2015, WSO2 Inc. (http://www.wso2.org) All Rights Reserved.
 *
 * WSO2 Inc. licenses this file to you under the Apache License,
 * Version 2.0 (the "License"); you may not use this file except
 * in compliance with the License.
 * You may obtain a copy of the License at
 *
 * http://www.apache.org/licenses/LICENSE-2.0
 *
 * Unless required by applicable law or agreed to in writing,
 * software distributed under the License is distributed on an
 * "AS IS" BASIS, WITHOUT WARRANTIES OR CONDITIONS OF ANY
 * KIND, either express or implied. See the License for the
 * specific language governing permissions and limitations
 * under the License.
-->

<svg version="1.1" id="hand" xmlns="http://www.w3.org/2000/svg" xmlns:xlink="http://www.w3.org/1999/xlink" x="0px" y="0px"
	 viewBox="0 0 14 14" style="enable-background:new 0 0 14 14;" xml:space="preserve">
<path d="M6.77137,3.87268c0.83566-0.51337,1.6889-0.13734,1.99684,0.588c0.42304-0.32045,0.88672-0.41723,1.37905-0.19938
	c0.49553,0.21926,0.73865,0.62525,0.77924,1.14132c0.19063-0.06346,0.37796-0.15232,0.57481-0.18669
	c0.76908-0.13429,1.48626,0.4586,1.49253,1.23859c0.0089,1.1074,0.01929,2.21532-0.00374,3.32233
	c-0.04247,2.04168-1.64668,3.86798-3.66754,4.1622c-2.00218,0.2915-3.56387-0.47289-4.75131-2.07069
	c-0.12211-0.16432-0.23834-0.33532-0.33692-0.51444c-0.66986-1.21724-1.45784-2.35945-2.21343-3.52274
	c-0.31919-0.49142-0.59612-1.01242-0.86258-1.5351C1.01075,6.00656,0.94145,5.6806,1.0462,5.35305
	c0.16932-0.52949,0.70175-0.78857,1.29724-0.63767c0.41575,0.10535,0.77578,0.32318,1.11329,0.57827
	C3.69569,5.47425,3.92361,5.66948,4.17746,5.8752c0-0.07856,0-0.13555,0-0.19254C4.17751,4.22402,4.17474,2.76537,4.1788,1.30675
	c0.002-0.71912,0.55794-1.29057,1.25665-1.30639c0.72872-0.0165,1.32578,0.54796,1.33343,1.27735
	c0.00838,0.79946,0.00228,1.59908,0.00249,2.39863C6.77139,3.73518,6.77137,3.79403,6.77137,3.87268z M6.25259,6.73553
	c0-0.06963,0-0.12813,0-0.18664c0-0.77254,0.00002-1.54507-0.00001-2.31761c-0.00003-0.97242,0.00239-1.94486-0.0012-2.91727
	C6.24961,0.83399,5.86369,0.47907,5.40141,0.52093C4.98806,0.55837,4.69687,0.89654,4.69665,1.34612
	c-0.00092,1.86919-0.0004,3.73838-0.0004,5.60757c0,0.05513,0,0.11026,0,0.2085C4.61811,7.07816,4.57505,7.02992,4.52996,6.98367
	C4.00535,6.44559,3.47923,5.90606,2.83265,5.51271C2.60684,5.37534,2.34943,5.26868,2.09229,5.2092
	c-0.35676-0.08251-0.63,0.21189-0.55476,0.56917C1.57274,5.94555,1.62517,6.11536,1.7044,6.26573
	c0.18339,0.34806,0.37675,0.69198,0.58578,1.02522c0.80307,1.28028,1.61279,2.55639,2.42299,3.83218
	c0.12721,0.2003,0.26253,0.39637,0.40638,0.58504c1.05064,1.37801,2.42636,1.99106,4.15285,1.71043
	c1.72095-0.27974,3.16199-1.93584,3.19886-3.67212c0.02316-1.09079,0.00912-2.18246,0.00477-3.27371
	c-0.00172-0.43213-0.35301-0.76812-0.77993-0.76656c-0.4252,0.00155-0.76529,0.34121-0.7741,0.77402
	c-0.00172,0.08443-0.00025,0.16893-0.00025,0.25095c-0.18485,0-0.34874,0-0.51891,0c0-0.4172,0.00072-0.82203-0.00019-1.22687
	c-0.00108-0.48486-0.32818-0.83549-0.77796-0.83567C9.17548,4.66847,8.84793,5.01981,8.84662,5.50402
	C8.84598,5.73991,8.84651,5.9758,8.84651,6.21364c-0.18219,0-0.34591,0-0.50692,0C8.33429,6.1924,8.32956,6.18225,8.32954,6.17209
	C8.32866,5.77234,8.32906,5.37258,8.32747,4.97283c-0.00188-0.47239-0.3309-0.82117-0.7744-0.82297
	C7.10903,4.14807,6.77401,4.497,6.77163,4.96553C6.77029,5.23023,6.77138,5.49496,6.77137,5.75967c0,0.32268,0,0.64535,0,0.97586
	C6.59611,6.73553,6.43612,6.73553,6.25259,6.73553z"/>
</svg>
