<?xml version="1.0" encoding="utf-8"?>

<!--
 * Copyright (c) 2015, WSO2 Inc. (http://www.wso2.org) All Rights Reserved.
 *
 * WSO2 Inc. licenses this file to you under the Apache License,
 * Version 2.0 (the "License"); you may not use this file except
 * in compliance with the License.
 * You may obtain a copy of the License at
 *
 * http://www.apache.org/licenses/LICENSE-2.0
 *
 * Unless required by applicable law or agreed to in writing,
 * software distributed under the License is distributed on an
 * "AS IS" BASIS, WITHOUT WARRANTIES OR CONDITIONS OF ANY
 * KIND, either express or implied. See the License for the
 * specific language governing permissions and limitations
 * under the License.
-->

<svg version="1.1" id="hardware" xmlns="http://www.w3.org/2000/svg" xmlns:xlink="http://www.w3.org/1999/xlink" x="0px" y="0px"
	 viewBox="-290 413.89001 14 14" style="enable-background:new -290 413.89001 14 14;" xml:space="preserve">
<path d="M-280.15155,413.89026c-1.96881-0.00049-3.67444-0.00024-5.64319,0.00061c-0.97467,0.00043-1.25299,0.27917-1.25372,1.25415
	c-0.00073,0.97559-0.00012,4.77002-0.00012,5.74561c-0.00024,0-0.00043,0-0.00067,0c0,0.99927-0.00165,4.81647,0.00049,5.81573
	c0.00189,0.87781,0.30353,1.18079,1.18304,1.18188c2.00427,0.00238,3.74536,0.00214,5.74957,0.00043
	c0.85168-0.00073,1.16412-0.31342,1.16486-1.16528c0.00171-1.99847,0.0014-9.63379-0.00012-11.63232
	C-278.95215,414.18896-279.25165,413.89044-280.15155,413.89026z M-279.57501,426.65656
	c-0.00024,0.3728-0.23639,0.60815-0.60999,0.60834c-1.49011,0.00092-4.13672,0.00085-5.62683-0.00073
	c-0.38403-0.00043-0.61279-0.23425-0.61292-0.62262c-0.00061-1.47253-0.00073-10.00159,0.00043-11.47412
	c0.00031-0.43768,0.21533-0.65161,0.65411-0.65247c0.73322-0.00134,2.53125-0.00037,3.26447-0.00037
	c0.73914-0.00031,1.57007-0.00104,2.3092,0c0.38702,0.00049,0.62042,0.22992,0.62079,0.61462
	C-279.57422,416.61951-279.5741,425.16632-279.57501,426.65656z M-280.15808,415.4234
	c0.00085,1.28851,0.00104,9.63367,0.00031,10.92218c-0.00018,0.25763-0.0799,0.33636-0.3399,0.33655
	c-1.28845,0.00061-3.7334,0.00055-5.02179-0.00037c-0.23804-0.00018-0.3219-0.08307-0.32202-0.31769
	c-0.00073-1.30035-0.00085-9.65729,0.00006-10.95764c0.00018-0.22534,0.08435-0.30811,0.31189-0.30853
	c0.65015-0.0011,2.36505-0.00037,3.01514-0.00037c0.64423,0,1.38019-0.00043,2.02441,0.00018
	C-280.23993,415.09796-280.1582,415.17719-280.15808,415.4234z M-288.36395,414.82172h0.86707v1.53723h-0.86707v-0.35419
	c-0.44739,0.00031-0.88629,0.00507-1.32458-0.00281c-0.17712-0.00323-0.29858-0.11237-0.30658-0.24689
	c-0.00647-0.10962-0.00665-0.21979,0.00055-0.32928c0.00909-0.13849,0.1261-0.24402,0.30499-0.24719
	c0.43842-0.00775,0.8775-0.00305,1.32562-0.00275V414.82172z M-288.36395,417.42596h0.86707v1.53729h-0.86707v-0.35419
	c-0.44739,0.00031-0.88629,0.00507-1.32458-0.00287c-0.17712-0.00317-0.29858-0.1123-0.30658-0.24689
	c-0.00647-0.10956-0.00665-0.21973,0.00055-0.32928c0.00909-0.13849,0.1261-0.24402,0.30499-0.24713
	c0.43842-0.00775,0.8775-0.00311,1.32562-0.00275V417.42596z M-288.36395,420.03027h0.86707v1.53723h-0.86707v-0.35419
	c-0.44739,0.00037-0.88629,0.00513-1.32458-0.00281c-0.17712-0.00323-0.29858-0.11237-0.30658-0.24689
	c-0.00647-0.10962-0.00665-0.21973,0.00055-0.32928c0.00909-0.13849,0.1261-0.24402,0.30499-0.24719
	c0.43842-0.00775,0.8775-0.00305,1.32562-0.00275V420.03027z M-288.36395,422.63452h0.86707v1.53729h-0.86707v-0.35419
	c-0.44739,0.00031-0.88629,0.00507-1.32458-0.00287c-0.17712-0.00317-0.29858-0.1123-0.30658-0.24689
	c-0.00647-0.10956-0.00665-0.21973,0.00055-0.32928c0.00909-0.13843,0.1261-0.24396,0.30499-0.24713
	c0.43842-0.00775,0.8775-0.00305,1.32562-0.00275V422.63452z M-288.36395,425.23883h0.86707v1.53723h-0.86707v-0.35419
	c-0.44733,0.00037-0.88629,0.00513-1.32458-0.00281c-0.17712-0.00317-0.29852-0.11237-0.30658-0.24689
	c-0.00647-0.10956-0.00665-0.21973,0.00055-0.32928c0.00909-0.13849,0.1261-0.24402,0.30499-0.24713
	c0.43842-0.00781,0.8775-0.00311,1.32562-0.00281V425.23883z M-277.63605,416.26782h-0.86707v-1.53723h0.86707v0.35413
	c0.44812-0.00031,0.88721-0.005,1.32562,0.00275c0.17889,0.00317,0.2959,0.1087,0.30499,0.24719
	c0.00726,0.10956,0.00708,0.21967,0.00055,0.32928c-0.00806,0.13452-0.12946,0.24365-0.30658,0.24689
	c-0.43829,0.00793-0.87726,0.00317-1.32458,0.00281V416.26782z M-276.00543,417.93896
	c0.00726,0.1095,0.00708,0.21967,0.00055,0.32928c-0.008,0.13452-0.12946,0.24365-0.30658,0.24683
	c-0.43829,0.00793-0.8772,0.00317-1.32458,0.00287v0.35419h-0.86707v-1.53729h0.86707v0.35419
	c0.44812-0.00031,0.88721-0.005,1.32562,0.00275C-276.13153,417.69495-276.01453,417.80048-276.00543,417.93896z
	 M-276.00543,420.54321c0.00726,0.10956,0.00708,0.21973,0.00055,0.32928c-0.00806,0.13452-0.12946,0.24365-0.30658,0.24689
	c-0.43829,0.00793-0.87726,0.00317-1.32458,0.00281v0.35419h-0.86707v-1.53723h0.86707v0.35413
	c0.44812-0.00031,0.88721-0.00494,1.32562,0.00275C-276.13153,420.29919-276.01453,420.40472-276.00543,420.54321z
	 M-276.00543,423.14752c0.00726,0.10956,0.00708,0.21967,0.00055,0.32928c-0.00806,0.13452-0.12946,0.24365-0.30658,0.24689
	c-0.43829,0.00793-0.87726,0.00317-1.32458,0.00281v0.35419h-0.86707v-1.53723h0.86707v0.35413
	c0.44812-0.00031,0.88721-0.005,1.32562,0.00275C-276.13153,422.9035-276.01453,423.00903-276.00543,423.14752z
	 M-276.00543,425.75177c0.00726,0.10956,0.00708,0.21973,0.00055,0.32928c-0.00806,0.13452-0.12946,0.24371-0.30658,0.24689
	c-0.43829,0.00793-0.87726,0.00317-1.32458,0.00287v0.35419h-0.86707v-1.53729h0.86707v0.35419
	c0.44812-0.00037,0.88721-0.005,1.32562,0.00275C-276.13153,425.50775-276.01453,425.61328-276.00543,425.75177z"/>
</svg>
