<?xml version="1.0" encoding="utf-8"?>

<!--
 * Copyright (c) 2015, WSO2 Inc. (http://www.wso2.org) All Rights Reserved.
 *
 * WSO2 Inc. licenses this file to you under the Apache License,
 * Version 2.0 (the "License"); you may not use this file except
 * in compliance with the License.
 * You may obtain a copy of the License at
 *
 * http://www.apache.org/licenses/LICENSE-2.0
 *
 * Unless required by applicable law or agreed to in writing,
 * software distributed under the License is distributed on an
 * "AS IS" BASIS, WITHOUT WARRANTIES OR CONDITIONS OF ANY
 * KIND, either express or implied. See the License for the
 * specific language governing permissions and limitations
 * under the License.
-->

<svg version="1.1" id="hour-glass" xmlns="http://www.w3.org/2000/svg" xmlns:xlink="http://www.w3.org/1999/xlink" x="0px" y="0px"
	 viewBox="0 0 14 14" enable-background="new 0 0 14 14" xml:space="preserve">
<path d="M11,13.3c-2.6,0-5.3,0-7.9,0c0-0.4,0-0.8,0.1-1.2C3.3,10.7,4,9.6,5,8.7c0.3-0.3,0.6-0.5,0.9-0.8C6.5,7.3,6.5,6.7,6,6.2
	C5.6,5.8,5.2,5.4,4.8,5C3.5,3.9,3,2.5,3,0.8c0,0,0-0.1,0-0.1c2.6,0,5.3,0,7.9,0c0,0.4,0,0.8-0.1,1.2c-0.2,1.4-1,2.5-2,3.5
	C8.6,5.6,8.3,5.9,8,6.2c-0.5,0.6-0.5,1.1,0,1.7C8.5,8.2,8.9,8.6,9.3,9c1.2,1.1,1.7,2.5,1.7,4.2C11,13.2,11,13.2,11,13.3z M3.3,1
	c0.1,0.4,0.1,0.8,0.2,1.2c0.2,1.2,0.9,2,1.8,2.8c0.3,0.3,0.7,0.6,1,0.9c0.2,0.2,0.4,0.5,0.4,0.9c0.1,0.5-0.2,0.9-0.6,1.3
	C5.8,8.5,5.5,8.7,5.1,9c-0.7,0.6-1.3,1.4-1.5,2.3c-0.1,0.5-0.2,1-0.2,1.6c2.4,0,4.8,0,7.3,0c0-0.8-0.2-1.6-0.6-2.4
	c-0.4-0.7-1-1.3-1.6-1.8C8.2,8.4,7.9,8.1,7.6,7.8C7.4,7.6,7.3,7.3,7.3,7c0-0.5,0.2-0.8,0.5-1.2c0.4-0.4,0.7-0.7,1.1-1
	c0.8-0.8,1.4-1.7,1.6-2.8c0.1-0.3,0.1-0.6,0.1-1C8.2,1,5.8,1,3.3,1z M4.5,3.9c0.3,0.3,0.6,0.7,1,1c0.3,0.3,0.6,0.5,0.9,0.9
	c0.2,0.2,0.4,0.6,0.4,0.9c0.2,1,0.1,1.9,0.1,2.9c0,0.4-0.1,0.7-0.4,1c-0.3,0.4-0.6,0.7-1,1c-0.4,0.4-0.8,0.8-1.3,1.1
	c1.8,0,3.6,0,5.4,0c-0.1-0.1-0.2-0.1-0.2-0.2c-0.7-0.6-1.5-1.2-2.1-2C7.2,10.3,7.1,10,7.1,9.7c0-0.7,0-1.5,0-2.2
	c0-0.9,0.3-1.5,1-2.1C8.5,5,8.8,4.6,9.2,4.2C9.4,4,9.5,3.9,9.6,3.7c-1.8,0-3.5,0-5.3,0C4.4,3.8,4.5,3.9,4.5,3.9z M11.9,0.2L11.9,0.2
	c0-0.1-0.1-0.2-0.2-0.2H2.4C2.2,0,2.1,0.1,2.1,0.2v0c0,0.1,0.1,0.2,0.2,0.2h9.2C11.8,0.5,11.9,0.4,11.9,0.2z M11.9,13.8L11.9,13.8
	c0-0.1-0.1-0.2-0.2-0.2H2.4c-0.1,0-0.2,0.1-0.2,0.2l0,0c0,0.1,0.1,0.2,0.2,0.2h9.2C11.8,14,11.9,13.9,11.9,13.8z"/>
</svg>
