<?xml version="1.0" encoding="utf-8"?>

<!--
 * Copyright (c) 2015, WSO2 Inc. (http://www.wso2.org) All Rights Reserved.
 *
 * WSO2 Inc. licenses this file to you under the Apache License,
 * Version 2.0 (the "License"); you may not use this file except
 * in compliance with the License.
 * You may obtain a copy of the License at
 *
 * http://www.apache.org/licenses/LICENSE-2.0
 *
 * Unless required by applicable law or agreed to in writing,
 * software distributed under the License is distributed on an
 * "AS IS" BASIS, WITHOUT WARRANTIES OR CONDITIONS OF ANY
 * KIND, either express or implied. See the License for the
 * specific language governing permissions and limitations
 * under the License.
-->

<svg version="1.1" id="hour-glass" xmlns="http://www.w3.org/2000/svg" xmlns:xlink="http://www.w3.org/1999/xlink" x="0px" y="0px"
	 viewBox="-413 291.28 14 14" style="enable-background:new -413 291.28 14 14;" xml:space="preserve">
<style type="text/css">
	.st0{fill:#0C0D0D;}
</style>
<path class="st0" d="M-411.50333,291.70074c0.00555-0.2149,0.17477-0.39178,0.40329-0.41656
	c0.06525-0.00732,0.13187-0.00281,0.19781-0.00281c1.7095-0.00034,2.96579-0.00034,4.67529,0
	c1.7294,0,3.45877-0.00067,5.18817,0.0014c0.0907,0,0.18698,0.00732,0.27106,0.03769
	c0.18039,0.06525,0.26691,0.21176,0.27109,0.39841c0.00385,0.17758-0.12872,0.3468-0.30667,0.39319
	c-0.08755,0.02304-0.1821,0.02722-0.2735,0.02722c-3.42599,0.0014-6.39807,0.00174-9.82404,0.0014
	c-0.07886,0-0.15909,0.00067-0.23621-0.01328C-411.35822,292.08728-411.50858,291.90762-411.50333,291.70074z M-400.86362,304.43091
	c-0.07675-0.01428-0.15735-0.01151-0.23621-0.01151c-3.38586-0.00034-6.31818-0.00034-9.70401-0.00034
	c-0.09247,0-0.18561-0.00595-0.27701,0.00314c-0.1842,0.01813-0.3262,0.10361-0.39285,0.28467
	c-0.11197,0.30423,0.10782,0.57077,0.47482,0.57111c1.74231,0.00107,3.03107,0.00037,4.77368,0.0007
	c1.71579,0.00037,3.43192,0.00037,5.14804,0c0.05933,0,0.11932,0.00418,0.17795-0.00244
	c0.22885-0.02512,0.3956-0.20026,0.40225-0.41724C-400.49103,304.65387-400.64279,304.47174-400.86362,304.43091z
	 M-405.93283,298.73203c-0.00067-0.05585,0-0.11096,0.00247-0.16537c0.00244,0.01151,0.00522,0.02301,0.00836,0.03452
	c0.00732-0.24805,0.04779-0.47968,0.12-0.69669c0.13818-0.41446,0.39285-0.77591,0.75778-1.09723
	c0.20898-0.1842,0.40643-0.38168,0.5997-0.58401c-0.02649,0.02441-0.05301,0.04883-0.07986,0.07291
	c0.22675-0.23373,0.4462-0.47482,0.67087-0.70963c-0.01428,0.01886-0.02896,0.03769-0.04431,0.05652
	c0.02374-0.02512,0.04782-0.05023,0.07187-0.07535c0.06317-0.06592,0.10397-0.1535,0.16364-0.2442c-0.00104,0-0.00174,0-0.00278,0
	c-0.02271,0.03455-0.04605,0.06906-0.07013,0.10327c0.01953-0.03314,0.0401-0.06805,0.06314-0.10327c-1.56473,0-3.09558,0-4.65891,0
	c-0.00314,0-0.00662,0-0.00977,0c0.06174,0.09,0.1015,0.16467,0.15665,0.22537c0.26443,0.28922,0.5275,0.57983,0.79892,0.86243
	c0.02023,0.02164,0.04117,0.04291,0.06174,0.06418c0.25677,0.2648,0.5387,0.50589,0.78848,0.77661
	c0.18942,0.20514,0.30527,0.45004,0.37015,0.71869c0.01501,0.06107,0.02722,0.1235,0.03732,0.18665
	c0.01746,0.11163,0.0314,0.22293,0.04187,0.33456c0.06491,0.67719,0.01709,1.35504,0.0014,2.03326
	c-0.00836,0.35968-0.11093,0.681-0.3548,0.93884c-0.42947,0.45459-0.87082,0.89868-1.31805,1.33585
	c-0.19504,0.19119-0.41412,0.35794-0.64859,0.55505c-0.01047,0.00873-0.02094,0.01779-0.03137,0.02652
	c0.00311,0,0.00662,0,0.00977,0c1.63379,0,3.22711,0,4.86438,0c0.00314,0,0.00629,0,0.00943,0
	c-0.01117-0.00906-0.02197-0.01779-0.03281-0.02652h-0.00977c-0.11548-0.09244-0.21106-0.16153-0.29584-0.24213
	c-0.54355-0.51703-1.09305-1.02884-1.62265-1.56018c-0.29059-0.29129-0.40958-0.66391-0.40573-1.08115
	C-405.91434,299.89169-405.92374,299.31186-405.93283,298.73203z M-406.80118,298.30814
	c0.01328-0.21039-0.0715-0.41028-0.25153-0.59381c-0.23236-0.23688-0.48285-0.46783-0.72498-0.69147
	c-0.14758-0.13605-0.30005-0.27664-0.4483-0.4183c-0.53275-0.5097-0.93185-1.0979-1.18549-1.74823
	c-0.24353-0.62415-0.36005-1.3219-0.3461-2.07477c0.0007-0.03522,0.00665-0.06418,0.01154-0.09
	c0.00174-0.00839,0.00381-0.01746,0.00555-0.02792l0.02896-0.17514h0.17758h7.04034h0.19955l0.0098,0.19922
	c0.0307,0.63007-0.04327,1.23431-0.22644,1.84766c-0.26443,0.88474-0.80939,1.66763-1.71576,2.46411
	c-0.23831,0.20932-0.51636,0.46017-0.77243,0.73508c-0.13083,0.14062-0.20828,0.29202-0.2327,0.44379
	c-0.03595,0.22363,0.04324,0.44797,0.23792,0.63879c0.31226,0.30597,0.57706,0.55923,0.8558,0.80103
	c0.9863,0.8558,1.55844,1.8002,1.74857,2.88766c0.05234,0.29968,0.07886,0.59412,0.10678,0.90604
	c0.01221,0.13708,0.02475,0.27908,0.0401,0.42004l0.02478,0.23166h-0.23306h-7.09198h-0.20093l-0.00839-0.20096
	c-0.03033-0.73718,0.07294-1.44366,0.30737-2.09955c0.27945-0.78357,0.7724-1.46564,1.55145-2.14594l0.00385-0.00351
	c0.26968-0.23547,0.54843-0.479,0.80206-0.73404c0.12003-0.1207,0.20444-0.25189,0.24945-0.38654
	C-406.81757,298.43198-406.80502,298.36987-406.80118,298.30814z M-405.42416,299.06345
	c-0.41235-0.50238-0.40155-1.0592-0.00381-1.57623c0.11197-0.14581,0.24106-0.28049,0.37537-0.4068
	c0.2641-0.24875,0.53973-0.48529,0.80557-0.73227c0.55994-0.51913,0.9978-1.12131,1.24167-1.85361
	c0.16116-0.48389,0.23514-0.98035,0.24454-1.50226c-0.00836,0-0.01639,0-0.02475,0c-2.15118,0-4.28421,0-6.43958,0
	c0.01917,0.84149,0.19849,1.61426,0.62589,2.32108c0.36072,0.59692,0.87357,1.05222,1.38434,1.51205
	c0.24908,0.2243,0.49609,0.45947,0.69775,0.72495c0.37122,0.4881,0.34784,1.09338-0.06421,1.53577
	c-0.33597,0.36075-0.70682,0.69043-1.07419,1.02048c-0.77484,0.69635-1.31107,1.52841-1.48306,2.56912
	c-0.04849,0.29376-0.06839,0.59241-0.1012,0.88858c2.17874,0,4.3118,0,6.45496,0c0.00836,0,0.01639,0,0.02475,0
	c-0.01639-0.75146-0.15524-1.45447-0.49399-2.11279c-0.33633-0.65381-0.85199-1.1506-1.39447-1.6282
	C-404.92001,299.58398-405.19565,299.34149-405.42416,299.06345z"/>
</svg>
