<?xml version="1.0" encoding="utf-8"?>

<!--
 * Copyright (c) 2015, WSO2 Inc. (http://www.wso2.org) All Rights Reserved.
 *
 * WSO2 Inc. licenses this file to you under the Apache License,
 * Version 2.0 (the "License"); you may not use this file except
 * in compliance with the License.
 * You may obtain a copy of the License at
 *
 * http://www.apache.org/licenses/LICENSE-2.0
 *
 * Unless required by applicable law or agreed to in writing,
 * software distributed under the License is distributed on an
 * "AS IS" BASIS, WITHOUT WARRANTIES OR CONDITIONS OF ANY
 * KIND, either express or implied. See the License for the
 * specific language governing permissions and limitations
 * under the License.
-->

<svg version="1.1" id="Capa_1" xmlns="http://www.w3.org/2000/svg" xmlns:xlink="http://www.w3.org/1999/xlink" x="0px" y="0px"
	 viewBox="-0.395 0 14.791 14" enable-background="new -0.395 0 14.791 14" xml:space="preserve">
<path d="M12.57,6.791L7,10.762L1.43,6.791l-1.825-1.302V14h14.791V5.489L12.57,6.791z M6.968,0l-3.32,1.812h6.683L6.968,0z
	 M12.694,5.962V2.134H1.306v3.829L7,10.023L12.694,5.962z M1.554,2.382h10.892v3.453L7,9.718L1.554,5.835V2.382z M2.78,3.305h0.158
	v1.213H2.78V3.305z M3.361,4c0-0.201-0.002-0.348-0.013-0.501l0.006-0.002c0.06,0.132,0.141,0.271,0.224,0.405l0.385,0.616h0.159
	V3.305H3.975v0.508c0,0.19,0.004,0.337,0.018,0.499L3.988,4.313C3.932,4.189,3.86,4.061,3.772,3.919L3.385,3.305H3.212v1.213H3.36
	L3.361,4L3.361,4z M4.835,4.519l0.433-1.213H5.101l-0.205,0.6C4.841,4.063,4.792,4.216,4.758,4.356H4.754
	C4.72,4.214,4.674,4.067,4.625,3.903L4.436,3.305H4.265l0.397,1.213L4.835,4.519L4.835,4.519z M5.398,3.305h0.158v1.213H5.398V3.305
	z M6.06,4.519h0.158v-1.08H6.59V3.305H5.691v0.133H6.06V4.519z M6.659,4.519l0.127-0.382h0.43l0.129,0.382h0.169L7.1,3.305H6.912
	L6.498,4.519H6.659z M6.937,3.663C6.962,3.59,6.98,3.514,6.998,3.444h0.004c0.018,0.07,0.036,0.143,0.064,0.221l0.12,0.349H6.819
	C6.819,4.014,6.937,3.663,6.937,3.663z M7.782,4.519H7.94v-1.08h0.371V3.305H7.413v0.133h0.369V4.519z M8.445,3.305h0.158v1.213
	H8.445V3.305z M9.349,4.538c0.309,0,0.563-0.223,0.563-0.639c0-0.362-0.214-0.615-0.547-0.615c-0.324,0-0.56,0.251-0.56,0.638
	C8.805,4.288,9.027,4.538,9.349,4.538z M9.36,3.411c0.261,0,0.387,0.252,0.387,0.495c0,0.276-0.141,0.504-0.388,0.504
	c-0.249,0-0.389-0.232-0.389-0.493C8.969,3.653,9.099,3.411,9.36,3.411z M10.263,4c0-0.201-0.002-0.348-0.01-0.501l0.005-0.002
	c0.06,0.132,0.141,0.271,0.225,0.405l0.385,0.616h0.159V3.305h-0.148v0.508c0,0.19,0.004,0.337,0.018,0.499l-0.004,0.002
	c-0.056-0.124-0.128-0.253-0.216-0.394l-0.388-0.614h-0.173v1.213h0.148C10.263,4.519,10.263,4,10.263,4z M8.388,5.978L8.43,5.946
	l0.052-0.038C8.518,5.882,8.553,5.857,8.59,5.833C8.739,5.735,8.894,5.646,9.053,5.57c0.32-0.147,0.665-0.249,1.013-0.224
	c0.173,0.01,0.346,0.056,0.508,0.134c0.164,0.079,0.312,0.192,0.452,0.323c-0.095-0.165-0.221-0.316-0.378-0.439
	c-0.156-0.124-0.346-0.209-0.543-0.259C9.703,5.013,9.284,5.079,8.909,5.213C8.719,5.278,8.537,5.362,8.364,5.46
	C8.32,5.485,8.277,5.51,8.233,5.537L8.168,5.579L8.137,5.6L8.121,5.612L8.097,5.63c-0.06,0.046-0.138,0.097-0.211,0.141
	C7.586,5.952,7.26,6.089,6.937,6.125C6.614,6.164,6.307,6.086,6.053,5.89C5.99,5.842,5.926,5.783,5.873,5.728L5.78,5.624
	C5.746,5.585,5.709,5.547,5.67,5.51c-0.153-0.146-0.337-0.267-0.54-0.344C4.93,5.09,4.715,5.054,4.507,5.065
	c-0.208,0.01-0.406,0.055-0.594,0.121c-0.371,0.141-0.703,0.35-0.975,0.618c0.334-0.179,0.685-0.32,1.04-0.385
	c0.352-0.069,0.711-0.046,1,0.1c0.143,0.074,0.271,0.177,0.383,0.298c0.029,0.03,0.055,0.063,0.08,0.095l0.043,0.055
	C5.501,5.986,5.511,6.002,5.53,6.024c0.072,0.086,0.145,0.157,0.229,0.23c0.165,0.141,0.365,0.251,0.58,0.312
	c0.216,0.063,0.44,0.074,0.653,0.051c0.43-0.052,0.811-0.227,1.147-0.451C8.224,6.108,8.301,6.051,8.388,5.978z"/>
</svg>
