<?xml version="1.0" encoding="utf-8"?>

<!--
 * Copyright (c) 2015, WSO2 Inc. (http://www.wso2.org) All Rights Reserved.
 *
 * WSO2 Inc. licenses this file to you under the Apache License,
 * Version 2.0 (the "License"); you may not use this file except
 * in compliance with the License.
 * You may obtain a copy of the License at
 *
 * http://www.apache.org/licenses/LICENSE-2.0
 *
 * Unless required by applicable law or agreed to in writing,
 * software distributed under the License is distributed on an
 * "AS IS" BASIS, WITHOUT WARRANTIES OR CONDITIONS OF ANY
 * KIND, either express or implied. See the License for the
 * specific language governing permissions and limitations
 * under the License.
-->

<svg version="1.1" id="java-spring" xmlns="http://www.w3.org/2000/svg" xmlns:xlink="http://www.w3.org/1999/xlink" x="0px"
	 y="0px" viewBox="0 0 14 14" enable-background="new 0 0 14 14" xml:space="preserve">
<path d="M12.7,0.8c0.1,0.3,0.2,0.5,0.2,0.7c0.1,0.4,0.3,0.8,0.4,1.2c0.2,0.6,0.3,1.2,0.4,1.8c0.1,0.3,0.1,0.5,0.1,0.8
	c0,0.3,0,0.5,0.1,0.8C14,6.3,14,6.6,14,6.8c0,0.3-0.1,0.6-0.1,0.9c0,0.6-0.2,1.1-0.4,1.6c-0.3,0.7-0.6,1.4-1.1,2
	c-0.5,0.7-1.2,1.2-1.9,1.7c-0.4,0.2-0.9,0.5-1.3,0.6c-0.4,0.1-0.8,0.2-1.2,0.3C7.8,14,7.6,14,7.4,14c-0.1,0-0.2,0-0.4,0
	c-0.3,0-0.6,0-0.9,0c-0.4,0-0.7-0.1-1.1-0.2c-0.8-0.2-1.5-0.6-2.1-1c-0.1-0.1-0.3-0.2-0.4-0.3c0.2,0,0.3,0,0.5,0
	c0.1-0.1,0.3-0.2,0.3-0.3c0.1-0.2,0-0.5-0.2-0.7c-0.2-0.2-0.6-0.2-0.8,0c-0.2,0.2-0.2,0.5-0.2,0.8C2.2,12,2.1,12,2,11.9
	c-0.3-0.4-0.7-0.8-0.9-1.2c-0.2-0.4-0.4-0.8-0.6-1.2C0.3,9,0.2,8.6,0.1,8.1C0,7.9,0,7.6,0,7.3c0-0.3,0-0.5,0-0.8
	c0-0.2,0-0.3,0.1-0.5c0.1-0.4,0.1-0.8,0.2-1.1C0.4,4.6,0.5,4.3,0.7,4C0.8,3.7,1,3.3,1.3,3c0.4-0.6,0.9-1.1,1.5-1.6
	c0.4-0.3,0.9-0.6,1.4-0.8c0.5-0.2,1.1-0.4,1.6-0.5C6,0,6.2,0,6.5,0c0.2,0,0.4,0,0.6,0c0.7,0,1.5,0.2,2.2,0.4c0.7,0.3,1.4,0.6,2,1.1
	c0.2,0.2,0.4,0.3,0.6,0.5C11.9,2,12,2.1,12.1,2c0.2-0.3,0.4-0.7,0.6-1C12.6,0.9,12.7,0.9,12.7,0.8z M4.2,11.7
	C4.2,11.8,4.2,11.8,4.2,11.7c0.2,0,0.3,0,0.5,0c0.9,0,1.7,0,2.6,0c1,0,1.9,0,2.9-0.2c1.7-0.3,2.8-1.3,3.2-3c0.3-0.9,0.3-1.8,0.2-2.8
	c-0.1-1.2-0.4-2.3-0.7-3.4c-0.1-0.3-0.2-0.5-0.3-0.8c-0.1,0.2-0.3,0.4-0.4,0.6C11.4,3.3,10.4,4,9.1,4.4C8.3,4.7,7.4,4.8,6.5,4.8
	C5.7,4.8,4.9,5,4.2,5.3c-1.5,0.7-2.3,2.3-2,3.8c0.1,0.7,0.4,1.3,1.1,1.6c0.1,0,0.1,0,0.2,0c1-0.2,2-0.5,3-0.7
	c2.1-0.6,3.7-1.8,4.9-3.6c0.2-0.3,0.4-0.7,0.6-1c0,0,0,0.1,0,0.1c-0.8,2.5-2.4,4.2-4.8,5.2c-0.8,0.3-1.7,0.6-2.5,0.8
	C4.4,11.7,4.3,11.7,4.2,11.7z"/>
</svg>
