<?xml version="1.0" encoding="utf-8"?>

<!--
 * Copyright (c) 2015, WSO2 Inc. (http://www.wso2.org) All Rights Reserved.
 *
 * WSO2 Inc. licenses this file to you under the Apache License,
 * Version 2.0 (the "License"); you may not use this file except
 * in compliance with the License.
 * You may obtain a copy of the License at
 *
 * http://www.apache.org/licenses/LICENSE-2.0
 *
 * Unless required by applicable law or agreed to in writing,
 * software distributed under the License is distributed on an
 * "AS IS" BASIS, WITHOUT WARRANTIES OR CONDITIONS OF ANY
 * KIND, either express or implied. See the License for the
 * specific language governing permissions and limitations
 * under the License.
-->

<svg version="1.1" id="jaxrs" xmlns="http://www.w3.org/2000/svg" xmlns:xlink="http://www.w3.org/1999/xlink" x="0px" y="0px"
	 viewBox="0 0 14 14" enable-background="new 0 0 14 14" xml:space="preserve">
<path fill="#010101" d="M0,6.7c0.7,0,0.8-0.4,0.8-0.8c0-0.3,0-0.6-0.1-0.9S0.7,4.5,0.7,4.2c0-0.9,0.6-1.3,1.5-1.3h0.2v0.6H2.2
	c-0.6,0-0.8,0.3-0.8,0.9c0,0.2,0,0.5,0.1,0.7c0,0.3,0.1,0.5,0.1,0.8c0,0.7-0.3,1-0.7,1.1v0c0.5,0.1,0.8,0.5,0.7,1.1
	c0,0.3,0,0.5-0.1,0.8c0,0.3-0.1,0.5-0.1,0.7c0,0.6,0.2,0.9,0.8,0.9h0.2v0.6H2.2c-0.9,0-1.5-0.4-1.5-1.4c0-0.3,0-0.6,0.1-0.8
	c0-0.3,0.1-0.6,0.1-0.8c0-0.3-0.1-0.8-0.8-0.8C0,7.3,0,6.7,0,6.7z M14,7.3c-0.7,0-0.8,0.4-0.8,0.8c0,0.3,0,0.6,0.1,0.8
	c0,0.3,0.1,0.6,0.1,0.8c0,1-0.6,1.4-1.5,1.4h-0.2v-0.6h0.2c0.6,0,0.8-0.3,0.8-0.9c0-0.2,0-0.5-0.1-0.7c0-0.2-0.1-0.5-0.1-0.8
	c0-0.7,0.3-1,0.7-1.1v0c-0.5-0.1-0.7-0.5-0.7-1.1c0-0.3,0-0.5,0.1-0.8c0-0.2,0.1-0.5,0.1-0.7c0-0.6-0.2-0.9-0.8-0.9h-0.2V2.9h0.2
	c0.9,0,1.5,0.4,1.5,1.3c0,0.3,0,0.6-0.1,0.9c0,0.3-0.1,0.6-0.1,0.9c0,0.4,0.1,0.8,0.8,0.8C14,6.7,14,7.3,14,7.3z M3.5,4.7h0.6v2.9
	c0,1.2-0.6,1.5-1.3,1.5C2.5,9.1,2.3,9,2.1,9l0.1-0.5c0.1,0,0.3,0.1,0.5,0.1c0.5,0,0.8-0.2,0.8-1.1V4.7z M5.7,7.6L5.2,9H4.7l1.5-4.3
	h0.7L8.3,9H7.7L7.2,7.6H5.7z M7.1,7.2L6.7,5.9C6.6,5.7,6.5,5.4,6.5,5.2h0C6.4,5.4,6.3,5.7,6.2,5.9L5.8,7.2H7.1z M11.2,9l-0.6-1
	c-0.2-0.4-0.4-0.6-0.5-0.9h0C10,7.4,9.9,7.7,9.7,8L9.1,9H8.5l1.3-2.2L8.6,4.7h0.6l0.6,1c0.2,0.3,0.3,0.5,0.4,0.7h0
	c0.1-0.3,0.2-0.5,0.4-0.7l0.6-1h0.6l-1.3,2.1L11.9,9H11.2z"/>
</svg>
