<?xml version="1.0" encoding="utf-8"?>

<!--
 * Copyright (c) 2015, WSO2 Inc. (http://www.wso2.org) All Rights Reserved.
 *
 * WSO2 Inc. licenses this file to you under the Apache License,
 * Version 2.0 (the "License"); you may not use this file except
 * in compliance with the License.
 * You may obtain a copy of the License at
 *
 * http://www.apache.org/licenses/LICENSE-2.0
 *
 * Unless required by applicable law or agreed to in writing,
 * software distributed under the License is distributed on an
 * "AS IS" BASIS, WITHOUT WARRANTIES OR CONDITIONS OF ANY
 * KIND, either express or implied. See the License for the
 * specific language governing permissions and limitations
 * under the License.
-->

<svg version="1.1" id="key" xmlns="http://www.w3.org/2000/svg" xmlns:xlink="http://www.w3.org/1999/xlink" x="0px" y="0px"
	 viewBox="0 0 14 14" enable-background="new 0 0 14 14" xml:space="preserve">
<path d="M6.1,6.4C5.8,4.8,4.4,3.7,2.8,3.9C1.2,4.1,0.1,5.3,0,6.8C-0.1,8.3,0.9,9.7,2.4,10c0.3,0.1,0.5,0.1,0.8,0.1
	c0.5,0,0.9-0.1,1.3-0.3c0.9-0.4,1.5-1.2,1.7-2.2h4.1V9h1.2V7.6H12v2h1.2v-2H14V6.4H6.1z M3.1,5l0,0.1C4.1,5.1,5,6,5,7
	c0,1-0.8,1.9-1.9,1.9c-0.5,0-1-0.2-1.3-0.6C1.4,8,1.2,7.5,1.2,7c0-1,0.8-1.8,1.9-1.8L3.1,5L3.1,5z"/>
</svg>
