<?xml version="1.0" encoding="utf-8"?>

<!--
 * Copyright (c) 2015, WSO2 Inc. (http://www.wso2.org) All Rights Reserved.
 *
 * WSO2 Inc. licenses this file to you under the Apache License,
 * Version 2.0 (the "License"); you may not use this file except
 * in compliance with the License.
 * You may obtain a copy of the License at
 *
 * http://www.apache.org/licenses/LICENSE-2.0
 *
 * Unless required by applicable law or agreed to in writing,
 * software distributed under the License is distributed on an
 * "AS IS" BASIS, WITHOUT WARRANTIES OR CONDITIONS OF ANY
 * KIND, either express or implied. See the License for the
 * specific language governing permissions and limitations
 * under the License.
-->

<svg version="1.1" id="ldap" xmlns="http://www.w3.org/2000/svg" xmlns:xlink="http://www.w3.org/1999/xlink" x="0px" y="0px"
	 viewBox="0 0 14 14" enable-background="new 0 0 14 14" xml:space="preserve">
<path id="XMLID_8_" fill="#010101" d="M2.423,7.807c0.516,0,1.033,0.079,1.549,0.238C4.21,8.125,4.488,8.244,4.647,8.443
	C4.766,8.562,4.846,8.641,4.846,8.8c0.04,0.159-0.04,0.318-0.119,0.437C4.607,9.396,4.448,9.515,4.29,9.595
	C3.932,9.793,3.575,9.873,3.217,9.912c-0.516,0.079-0.993,0.079-1.509,0c-0.397-0.04-0.794-0.159-1.112-0.318
	C0.397,9.515,0.238,9.396,0.119,9.237c-0.159-0.238-0.159-0.477,0-0.715c0.159-0.199,0.357-0.318,0.596-0.437
	C1.072,7.926,1.43,7.847,1.827,7.807C2.026,7.847,2.224,7.807,2.423,7.807z M4.726,9.555C4.568,9.753,4.329,9.873,4.091,9.992
	c-0.318,0.119-0.675,0.199-1.072,0.278c-0.516,0.04-1.072,0.04-1.589-0.079c-0.357-0.079-0.715-0.159-0.993-0.357
	C0.238,9.714,0.04,9.555,0,9.277c0,0.278,0,0.516,0,0.794c0,0.079,0.04,0.159,0.04,0.199c0.079,0.159,0.238,0.278,0.397,0.397
	c0.238,0.159,0.516,0.238,0.834,0.318c0.437,0.119,0.874,0.159,1.35,0.119c0.477,0,0.914-0.079,1.35-0.238
	c0.278-0.079,0.516-0.199,0.715-0.397c0.119-0.119,0.199-0.278,0.199-0.437c0-0.238,0-0.477,0-0.715
	C4.806,9.396,4.766,9.475,4.726,9.555z M4.726,10.667c-0.119,0.159-0.278,0.278-0.437,0.357c-0.437,0.238-0.914,0.318-1.39,0.357
	c-0.357,0.04-0.715,0.04-1.033,0c-0.397-0.04-0.755-0.119-1.112-0.278c-0.199-0.079-0.318-0.159-0.477-0.238
	C0.159,10.746,0.04,10.588,0,10.429c0,0.199,0,0.357,0,0.516c0,0.079,0,0.159,0,0.238c0.04,0.199,0.159,0.357,0.318,0.477
	c0.238,0.199,0.477,0.278,0.755,0.357c0.556,0.159,1.112,0.199,1.668,0.159c0.437-0.04,0.834-0.079,1.231-0.238
	c0.238-0.079,0.516-0.199,0.675-0.397c0.119-0.119,0.199-0.238,0.199-0.437c0-0.238,0-0.477,0-0.715
	C4.806,10.508,4.766,10.627,4.726,10.667z M0,12.295c0,0.04,0,0.079,0,0.119c0.04,0.159,0.159,0.318,0.318,0.397
	c0.238,0.199,0.516,0.278,0.794,0.357c0.397,0.119,0.834,0.159,1.271,0.159c0.556,0,1.072-0.04,1.589-0.238
	c0.278-0.079,0.516-0.199,0.715-0.397c0.119-0.119,0.199-0.238,0.199-0.397c0-0.238,0-0.516,0-0.755
	c-0.04,0.079-0.079,0.159-0.119,0.238c-0.159,0.199-0.397,0.318-0.635,0.437c-0.357,0.159-0.715,0.238-1.072,0.278
	c-0.516,0.04-1.072,0.04-1.589-0.079c-0.357-0.079-0.715-0.159-0.993-0.357C0.238,11.938,0.04,11.779,0,11.541
	C0,11.819,0,12.057,0,12.295z M11.537,7.807c0.516,0,1.033,0.079,1.549,0.238c0.238,0.079,0.516,0.199,0.675,0.397
	C13.881,8.562,13.96,8.641,13.96,8.8c0.04,0.159-0.04,0.318-0.119,0.437c-0.119,0.159-0.278,0.278-0.437,0.357
	c-0.357,0.199-0.715,0.278-1.072,0.318c-0.516,0.079-0.993,0.079-1.509,0c-0.397-0.04-0.794-0.159-1.112-0.318
	C9.512,9.515,9.353,9.396,9.234,9.237c-0.159-0.238-0.159-0.477,0-0.715C9.393,8.324,9.591,8.204,9.83,8.085
	c0.357-0.159,0.715-0.238,1.112-0.278C11.14,7.847,11.339,7.807,11.537,7.807z M13.841,9.555c-0.159,0.199-0.397,0.318-0.635,0.437
	c-0.318,0.119-0.675,0.199-1.072,0.278c-0.516,0.04-1.072,0.04-1.589-0.079c-0.357-0.079-0.715-0.159-0.993-0.357
	C9.353,9.714,9.154,9.555,9.115,9.277c0,0.278,0,0.516,0,0.794c0,0.079,0.04,0.159,0.04,0.199c0.079,0.159,0.238,0.278,0.397,0.397
	c0.238,0.159,0.516,0.238,0.834,0.318c0.437,0.119,0.874,0.159,1.35,0.119c0.477,0,0.914-0.079,1.35-0.238
	c0.278-0.079,0.516-0.199,0.715-0.397C13.921,10.349,14,10.19,14,10.032c0-0.238,0-0.477,0-0.715
	C13.921,9.396,13.881,9.475,13.841,9.555z M13.841,10.667c-0.119,0.159-0.278,0.278-0.437,0.357
	c-0.437,0.238-0.914,0.318-1.39,0.357c-0.357,0.04-0.715,0.04-1.033,0c-0.397-0.04-0.755-0.119-1.112-0.278
	c-0.199-0.079-0.318-0.159-0.477-0.238c-0.119-0.119-0.238-0.278-0.278-0.437c0,0.199,0,0.357,0,0.516c0,0.079,0,0.159,0,0.238
	c0.04,0.199,0.159,0.357,0.318,0.477c0.238,0.199,0.477,0.278,0.755,0.357c0.556,0.159,1.112,0.199,1.668,0.159
	c0.437-0.04,0.834-0.079,1.231-0.238c0.238-0.079,0.516-0.199,0.675-0.397c0.119-0.119,0.199-0.238,0.199-0.437
	c0-0.238,0-0.477,0-0.715C13.921,10.508,13.881,10.627,13.841,10.667z M9.115,12.295c0,0.04,0,0.079,0,0.119
	c0.04,0.159,0.159,0.318,0.318,0.397c0.238,0.199,0.516,0.278,0.794,0.357c0.397,0.119,0.834,0.159,1.271,0.159
	c0.556,0,1.072-0.04,1.589-0.238c0.278-0.079,0.516-0.199,0.715-0.397C13.921,12.573,14,12.454,14,12.295c0-0.238,0-0.516,0-0.755
	c-0.04,0.079-0.079,0.159-0.119,0.238c-0.159,0.199-0.397,0.318-0.635,0.437c-0.357,0.159-0.715,0.238-1.072,0.278
	c-0.516,0.04-1.072,0.04-1.589-0.079c-0.357-0.079-0.715-0.159-0.993-0.357c-0.238-0.119-0.437-0.278-0.477-0.516
	C9.115,11.819,9.115,12.057,9.115,12.295z M1.983,7.711h0.831c-0.015-0.002-0.028-0.008-0.043-0.01h0.06V6.476h8.331v1.233
	c-0.002,0-0.004,0.001-0.006,0.002h0.883c-0.002,0-0.004-0.001-0.006-0.002V6.476h0.003v-0.87H7.468V3.909h-0.87v1.698H1.966v0.435
	H1.961v1.66h0.06C2.008,7.704,1.996,7.709,1.983,7.711z M2.118,0.672h9.685c0.394,0,0.709,0.315,0.709,0.709v1.811
	c0,0.315-0.315,0.63-0.63,0.63H2.118c-0.315,0-0.63-0.315-0.63-0.63V1.381C1.488,0.987,1.803,0.672,2.118,0.672z M5.918,2.257v-0.02
	c0-0.124-0.102-0.226-0.226-0.226H2.501c-0.124,0-0.226,0.102-0.226,0.226v0.02c0,0.124,0.102,0.226,0.226,0.226h3.191
	C5.817,2.483,5.918,2.381,5.918,2.257z M5.918,3.044v-0.02c0-0.124-0.102-0.226-0.226-0.226H2.501c-0.124,0-0.226,0.102-0.226,0.226
	v0.02c0,0.124,0.102,0.226,0.226,0.226h3.191C5.817,3.27,5.918,3.169,5.918,3.044z M5.918,1.47v-0.02
	c0-0.124-0.102-0.226-0.226-0.226H2.501c-0.124,0-0.226,0.102-0.226,0.226v0.02c0,0.124,0.102,0.226,0.226,0.226h3.191
	C5.817,1.696,5.918,1.594,5.918,1.47z"/>
</svg>
