<?xml version="1.0" encoding="utf-8"?>

<!--
 * Copyright (c) 2015, WSO2 Inc. (http://www.wso2.org) All Rights Reserved.
 *
 * WSO2 Inc. licenses this file to you under the Apache License,
 * Version 2.0 (the "License"); you may not use this file except
 * in compliance with the License.
 * You may obtain a copy of the License at
 *
 * http://www.apache.org/licenses/LICENSE-2.0
 *
 * Unless required by applicable law or agreed to in writing,
 * software distributed under the License is distributed on an
 * "AS IS" BASIS, WITHOUT WARRANTIES OR CONDITIONS OF ANY
 * KIND, either express or implied. See the License for the
 * specific language governing permissions and limitations
 * under the License.
-->

<svg version="1.1" id="left-arrow-2" xmlns="http://www.w3.org/2000/svg" xmlns:xlink="http://www.w3.org/1999/xlink" x="0px"
	 y="0px" viewBox="-413 291.28 14 14" style="enable-background:new -413 291.28 14 14;" xml:space="preserve">
<path d="M-399,298.27832c-0.05414,0.51089-0.33951,0.5036-0.68561,0.50305c-3.80453-0.00616-7.60907-0.00381-11.4136-0.00363
	c-0.05078,0-0.10156,0-0.18378,0c0.05524,0.06021,0.09018,0.10132,0.1282,0.13934c1.1705,1.17111,2.34277,2.34042,3.509,3.51572
	c0.08636,0.08704,0.15884,0.2099,0.18665,0.32816c0.05005,0.21292-0.0712,0.41742-0.26382,0.51465
	c-0.18591,0.09384-0.40222,0.06366-0.56271-0.08392c-0.08783-0.08075-0.16986-0.16776-0.25427-0.25214
	c-1.41306-1.41302-2.82611-2.82599-4.23898-4.23914c-0.29431-0.29434-0.29535-0.54782,0.00046-0.84387
	c1.47852-1.47961,2.95743-2.9588,4.43716-4.43716c0.27121-0.27097,0.64288-0.24622,0.82214,0.05017
	c0.12524,0.20706,0.09061,0.44327-0.10178,0.63663c-0.5455,0.54819-1.09323,1.09415-1.64014,1.64096
	c-0.6423,0.64221-1.2847,1.28433-1.92691,1.92667c-0.02527,0.02527-0.04892,0.05215-0.0918,0.09802
	c0.06885,0.00375,0.11682,0.00873,0.16483,0.00873c3.79901,0.00018,7.59802-0.00003,11.397-0.00018
	c0.01672,0,0.04413-0.00146,0.06079-0.00266C-399.32727,297.75455-399.02203,297.81003-399,298.27832z"/>
</svg>
