<?xml version="1.0" encoding="utf-8"?>

<!--
 * Copyright (c) 2015, WSO2 Inc. (http://www.wso2.org) All Rights Reserved.
 *
 * WSO2 Inc. licenses this file to you under the Apache License,
 * Version 2.0 (the "License"); you may not use this file except
 * in compliance with the License.
 * You may obtain a copy of the License at
 *
 * http://www.apache.org/licenses/LICENSE-2.0
 *
 * Unless required by applicable law or agreed to in writing,
 * software distributed under the License is distributed on an
 * "AS IS" BASIS, WITHOUT WARRANTIES OR CONDITIONS OF ANY
 * KIND, either express or implied. See the License for the
 * specific language governing permissions and limitations
 * under the License.
-->

<svg version="1.1" id="light" xmlns="http://www.w3.org/2000/svg" xmlns:xlink="http://www.w3.org/1999/xlink" x="0px" y="0px"
	 viewBox="0 0 14 14" style="enable-background:new 0 0 14 14;" xml:space="preserve">
<path d="M8.9945,12.48371c0.0077,0.28027-0.19493,0.48893-0.49337,0.51906c-0.04533,0.00458-0.10888,0.03939-0.12634,0.07748
	c-0.22675,0.49472-0.6026,0.79661-1.13693,0.90128C7.22897,13.98328,7.22177,13.99365,7.21378,14c-0.14583,0-0.29166,0-0.4375,0
	c-0.10315-0.03205-0.20859-0.0582-0.30906-0.09716c-0.42683-0.16554-0.71359-0.47231-0.88187-0.8944
	c-0.07022-0.00733-0.13848-0.00745-0.2033-0.02246c-0.24587-0.05692-0.40711-0.28258-0.38538-0.53206
	c0.02198-0.25235,0.22897-0.45054,0.49169-0.45218c0.697-0.00436,1.39405-0.00199,2.09108-0.00213
	c0.2965-0.00006,0.59301-0.00134,0.88949,0.00089C8.76736,12.00273,8.98688,12.20637,8.9945,12.48371z M10.59308,5.70955
	c-0.27201,0.61252-0.57547,1.21108-0.86489,1.81587C9.43368,8.14085,9.15522,8.76241,9.0449,9.44298
	c-0.02895,0.17859-0.04165,0.3598-0.06291,0.54959c-1.33186,0-2.65251,0-3.98166,0C4.96494,8.95058,4.49689,8.05942,4.06817,7.15186
	c-0.3082-0.65242-0.63939-1.30167-0.8656-1.98375c-0.77271-2.33,0.80039-4.80196,3.23108-5.13081
	c2.20073-0.29773,4.21202,1.21872,4.52537,3.40726C11.07281,4.23929,10.91254,4.99019,10.59308,5.70955z M5.58808,1.35103
	C4.49224,1.9311,3.84875,3.13449,4.0361,4.35573c0.0644,0.41981,0.2234,0.83318,0.39074,1.22761
	c0.48215,1.13647,1.16036,2.18885,1.44848,3.41059c0.74588,0,1.48399,0,2.23315,0C8.25821,8.3474,8.50806,7.754,8.78782,7.17189
	C9.07831,6.56744,9.37757,5.96703,9.6573,5.35765C9.84458,4.9497,9.98275,4.52142,9.99273,4.06708
	C10.04293,1.77979,7.60967,0.28092,5.58808,1.35103z M8.44546,10.49993c-0.48376-0.00154-0.96752-0.0004-1.45128-0.0004
	c0,0.00017,0,0.00034,0,0.0005c-0.48896,0-0.97793-0.00129-1.46688,0.00046c-0.31453,0.00113-0.53636,0.21497-0.53202,0.50757
	c0.00421,0.28421,0.22688,0.49168,0.53323,0.49194c0.97272,0.00083,1.94545,0.00054,2.91817-0.00023
	c0.3196-0.00025,0.5453-0.20446,0.54816-0.4926C8.99779,10.70885,8.77466,10.50098,8.44546,10.49993z"/>
</svg>
