<?xml version="1.0" encoding="utf-8"?>

<!--
 * Copyright (c) 2015, WSO2 Inc. (http://www.wso2.org) All Rights Reserved.
 *
 * WSO2 Inc. licenses this file to you under the Apache License,
 * Version 2.0 (the "License"); you may not use this file except
 * in compliance with the License.
 * You may obtain a copy of the License at
 *
 * http://www.apache.org/licenses/LICENSE-2.0
 *
 * Unless required by applicable law or agreed to in writing,
 * software distributed under the License is distributed on an
 * "AS IS" BASIS, WITHOUT WARRANTIES OR CONDITIONS OF ANY
 * KIND, either express or implied. See the License for the
 * specific language governing permissions and limitations
 * under the License.
-->

<svg version="1.1" id="link" xmlns="http://www.w3.org/2000/svg" xmlns:xlink="http://www.w3.org/1999/xlink" x="0px" y="0px"
	 viewBox="0 0 14 14" enable-background="new 0 0 14 14" xml:space="preserve">
<path id="XMLID_1_" fill="#010101" d="M8.2,6.5L7.8,6.8c0,0,0,0,0,0L8.2,6.5L8.2,6.5z M8.1,7.3c0,0,0.1,0,0.1,0
	c0.8,0.2,1.6,0,2.2-0.6l2.7-2.7c0.4-0.4,0.7-1,0.7-1.6c0-0.6-0.2-1.1-0.7-1.6C12.2,0,10.8,0,9.9,0.9L7.3,3.6C6.7,4.2,6.5,5,6.7,5.8
	c0,0.1,0,0.1,0.1,0.2L7,5.7c0,0,0,0,0,0C6.8,5,7,4.3,7.5,3.8l2.7-2.7c0.8-0.8,2-0.8,2.8,0c0.8,0.8,0.8,2,0,2.8l-2.7,2.7
	C9.7,7.1,9,7.2,8.3,7L8.1,7.3z M7.5,6.5c0.1,0.1,0.2,0.2,0.4,0.3l0.4-0.4l0,0l0.3-0.3c0.2-0.2,0.2-0.4,0-0.6L8.4,5.5
	C8.2,5.4,8,5.4,7.8,5.5L7.5,5.8L7.2,6.2C7.2,6.3,7.3,6.4,7.5,6.5z M7.6,7C7.6,7,7.6,7,7.6,7l0.2-0.2c0,0,0,0,0,0L7.6,7z M8.1,7.3
	L7.9,7.5C8,7.5,8,7.5,8.1,7.5c0.9,0.3,1.8,0,2.5-0.6l2.7-2.7c1-1,1-2.5,0-3.5c-1-1-2.5-1-3.5,0L7.1,3.4C6.5,4,6.2,5,6.4,5.8
	c0,0.1,0.1,0.2,0.1,0.3l0.2-0.2c0-0.1,0-0.1-0.1-0.2C6.5,5,6.7,4.2,7.3,3.6l2.7-2.7c0.9-0.9,2.3-0.9,3.1,0c0.4,0.4,0.7,1,0.7,1.6
	c0,0.6-0.2,1.1-0.7,1.6l-2.7,2.7C9.8,7.3,9,7.5,8.2,7.3C8.2,7.3,8.1,7.3,8.1,7.3z M7.4,7.2L7.6,7c0,0,0,0,0,0L7.4,7.2
	C7.4,7.2,7.4,7.2,7.4,7.2z M7.3,6.7C7.2,6.6,7.1,6.5,7,6.4L6.8,6.6C6.9,6.7,7,6.8,7.1,6.9C7.2,7,7.3,7.1,7.4,7.2L7.6,7
	C7.5,6.9,7.4,6.8,7.3,6.7z M7.2,6.2L7,6.4c0.1,0.1,0.2,0.2,0.3,0.4C7.4,6.8,7.5,6.9,7.6,7l0.2-0.2C7.7,6.8,7.6,6.7,7.5,6.5
	C7.3,6.4,7.2,6.3,7.2,6.2z M7.1,6.9C7,6.8,6.9,6.7,6.8,6.6L6.6,6.8C6.7,6.9,6.8,7,6.9,7.1C7,7.2,7.1,7.3,7.2,7.4l0.2-0.2
	C7.3,7.1,7.2,7,7.1,6.9z M6.9,7.1C6.8,7,6.7,6.9,6.6,6.8L6.4,7c0.1,0.1,0.2,0.2,0.4,0.3C6.8,7.4,6.9,7.5,7,7.6l0.2-0.2
	C7.1,7.3,7,7.2,6.9,7.1z M7.2,7.4l0.2-0.2c0,0,0,0,0,0L7.2,7.4C7.2,7.4,7.2,7.4,7.2,7.4z M7,7.6l0.2-0.2c0,0,0,0,0,0L7,7.6
	C7,7.6,7,7.6,7,7.6z M6.2,7.2c0.1,0.1,0.3,0.2,0.4,0.3c0.1,0.1,0.2,0.2,0.3,0.4L7,7.6C6.9,7.5,6.8,7.4,6.7,7.3
	C6.6,7.2,6.5,7.1,6.4,7L6.2,7.2z M6.8,7.8L7,7.6c0,0,0,0,0,0L6.8,7.8C6.8,7.8,6.8,7.8,6.8,7.8z M6.8,7.8L6.4,8.2l0,0L6.8,7.8
	C6.8,7.8,6.8,7.8,6.8,7.8z M4.2,13.3l2.7-2.7C7.5,10,7.8,9.1,7.6,8.2c0-0.1-0.1-0.2-0.1-0.4L7.3,8.1c0,0.1,0,0.1,0.1,0.2
	c0.2,0.7,0,1.5-0.6,2.1l-2.7,2.7c-0.9,0.9-2.3,0.9-3.1,0c-0.4-0.4-0.7-1-0.7-1.6c0-0.6,0.2-1.1,0.7-1.6l2.7-2.7
	c0.6-0.6,1.3-0.8,2.1-0.6c0.1,0,0.2,0,0.3,0.1l0.2-0.2C6,6.5,5.9,6.4,5.7,6.4C4.9,6.2,4,6.5,3.4,7.1L0.7,9.8c-1,1-1,2.5,0,3.5
	C1.7,14.2,3.3,14.2,4.2,13.3z M6.5,7.5C6.4,7.3,6.3,7.2,6.2,7.2L5.8,7.6L5.4,7.9c-0.2,0.2-0.2,0.4,0,0.6l0.1,0.1
	c0.2,0.2,0.4,0.2,0.6,0l0.3-0.3l0,0l0.4-0.4C6.8,7.7,6.7,7.6,6.5,7.5z M3.9,12.9c-0.8,0.8-2,0.8-2.8,0c-0.8-0.8-0.8-2,0-2.8l2.7-2.7
	C4.3,7,4.9,6.8,5.6,6.9c0,0,0.1,0,0.1,0l0.2-0.2c-0.1,0-0.2-0.1-0.3-0.1c-0.7-0.2-1.5,0-2.1,0.6L0.9,9.9c-0.4,0.4-0.7,1-0.7,1.6
	c0,0.6,0.2,1.1,0.7,1.6c0.9,0.9,2.3,0.9,3.1,0l2.7-2.7C7.3,9.8,7.5,9,7.3,8.3c0-0.1,0-0.1-0.1-0.2L7,8.3c0,0,0,0,0,0.1
	C7.2,9,7,9.7,6.5,10.2L3.9,12.9z"/>
</svg>
