<?xml version="1.0" encoding="utf-8"?>

<!--
 * Copyright (c) 2015, WSO2 Inc. (http://www.wso2.org) All Rights Reserved.
 *
 * WSO2 Inc. licenses this file to you under the Apache License,
 * Version 2.0 (the "License"); you may not use this file except
 * in compliance with the License.
 * You may obtain a copy of the License at
 *
 * http://www.apache.org/licenses/LICENSE-2.0
 *
 * Unless required by applicable law or agreed to in writing,
 * software distributed under the License is distributed on an
 * "AS IS" BASIS, WITHOUT WARRANTIES OR CONDITIONS OF ANY
 * KIND, either express or implied. See the License for the
 * specific language governing permissions and limitations
 * under the License.
-->

<svg version="1.1" id="link" xmlns="http://www.w3.org/2000/svg" xmlns:xlink="http://www.w3.org/1999/xlink" x="0px" y="0px" viewBox="0 0 14 14" style="enable-background:new 0 0 14 14;" xml:space="preserve">
<path class="st0" d="M7,5.7L7,5.7C6.8,5,7,4.3,7.5,3.8l2.7-2.7c0.8-0.8,2-0.8,2.8,0s0.8,2,0,2.8l-2.7,2.7C9.7,7.1,9,7.2,8.3,7
	L7.9,7.5c0.1,0,0.1,0,0.2,0c0.9,0.3,1.8,0,2.5-0.6l2.7-2.7c1-1,1-2.5,0-3.5s-2.5-1-3.5,0L7.1,3.4C6.5,4,6.2,5,6.4,5.8
	c0,0.1,0.1,0.2,0.1,0.3L7,5.7z M6.2,6.6C6,6.5,5.9,6.5,5.7,6.4C4.9,6.2,4,6.5,3.4,7.1L0.7,9.8c-1,1-1,2.5,0,3.5c1,0.9,2.6,0.9,3.5,0
	l2.7-2.7C7.5,10,7.8,9.1,7.6,8.2c0-0.1-0.1-0.3-0.1-0.4L7.2,8.1L7,8.3c0,0,0,0,0,0.1C7.2,9,7,9.7,6.5,10.2l-2.6,2.7
	c-0.8,0.8-2,0.8-2.8,0s-0.8-2,0-2.8l2.7-2.7C4.3,7,4.9,6.8,5.6,6.9h0.1L6.2,6.6z M8.4,6.4l-2,1.8c-0.2,0.2-0.5,0.2-0.7,0l0,0
	c-0.2-0.2-0.2-0.5,0-0.7l2-1.8c0.2-0.2,0.5-0.2,0.7,0l0,0C8.6,5.9,8.6,6.2,8.4,6.4z"/>
</svg>
