<?xml version="1.0" encoding="utf-8"?>

<!--
 * Copyright (c) 2015, WSO2 Inc. (http://www.wso2.org) All Rights Reserved.
 *
 * WSO2 Inc. licenses this file to you under the Apache License,
 * Version 2.0 (the "License"); you may not use this file except
 * in compliance with the License.
 * You may obtain a copy of the License at
 *
 * http://www.apache.org/licenses/LICENSE-2.0
 *
 * Unless required by applicable law or agreed to in writing,
 * software distributed under the License is distributed on an
 * "AS IS" BASIS, WITHOUT WARRANTIES OR CONDITIONS OF ANY
 * KIND, either express or implied. See the License for the
 * specific language governing permissions and limitations
 * under the License.
-->

<svg version="1.1" id="list" xmlns="http://www.w3.org/2000/svg" xmlns:xlink="http://www.w3.org/1999/xlink" x="0px" y="0px"
	 viewBox="-1.4 0 16.7 14" enable-background="new -1.4 0 16.7 14" xml:space="preserve">
<path d="M-1.4,1.8c0-0.1,0-0.1,0-0.2c0-0.1,0-0.2,0.1-0.2c0.1-0.1,0.2-0.2,0.4-0.3c0.2,0,0.3,0,0.4,0.1c0.3,0.2,0.5,0.5,0.8,0.7
	c0.4-0.5,0.9-1,1.4-1.6c0.3-0.2,0.6-0.4,0.9-0.1s0.1,0.6-0.2,0.9C1.9,1.7,1.3,2.3,0.8,2.9c-0.3,0.3-0.6,0.4-1,0
	c-0.2-0.2-0.4-0.4-0.6-0.6S-1.3,2-1.4,1.8z M-0.9,7.3c0.2,0.2,0.4,0.4,0.6,0.6c0.4,0.4,0.7,0.3,1,0c0.5-0.6,1.1-1.2,1.7-1.8
	C2.8,5.8,3,5.5,2.7,5.2S2.1,5.1,1.8,5.3c-0.5,0.6-1,1.1-1.4,1.6C0.1,6.7-0.2,6.4-0.5,6.2c-0.1-0.1-0.2-0.1-0.4-0.1
	c-0.2,0.1-0.3,0.2-0.4,0.3c-0.1,0.1-0.1,0.1-0.1,0.2c0,0.1,0,0.1,0,0.2C-1.3,7-1.1,7.2-0.9,7.3z M14.5,0.3H5.7
	c-0.5,0-0.9,0.4-0.9,0.9v0.2c0,0.5,0.4,0.9,0.9,0.9h8.7c0.5,0,0.9-0.3,0.9-0.8V1.2C15.4,0.7,15,0.3,14.5,0.3z M14.5,5.6H5.7
	C5.2,5.6,4.8,6,4.8,6.5v0.2c0,0.5,0.4,0.9,0.9,0.9h8.7c0.5,0,0.9-0.4,0.9-0.8V6.5C15.4,6,15,5.6,14.5,5.6z M14.5,10.8H5.7
	c-0.5,0-0.9,0.4-0.9,0.9V12c0,0.5,0.4,0.9,0.9,0.9h8.7c0.5,0,0.9-0.4,0.9-0.9v-0.3C15.4,11.2,15,10.8,14.5,10.8z M3,11.8
	C3,13,2,14,0.8,14s-2.2-1-2.2-2.2c0-1.2,1-2.2,2.2-2.2S3,10.6,3,11.8z M2,11.8c0-0.7-0.5-1.2-1.2-1.2c-0.7,0-1.2,0.5-1.2,1.2
	s0.5,1.2,1.2,1.2C1.5,13.1,2,12.5,2,11.8z"/>
</svg>
