<?xml version="1.0" encoding="utf-8"?>

<!--
 * Copyright (c) 2015, WSO2 Inc. (http://www.wso2.org) All Rights Reserved.
 *
 * WSO2 Inc. licenses this file to you under the Apache License,
 * Version 2.0 (the "License"); you may not use this file except
 * in compliance with the License.
 * You may obtain a copy of the License at
 *
 * http://www.apache.org/licenses/LICENSE-2.0
 *
 * Unless required by applicable law or agreed to in writing,
 * software distributed under the License is distributed on an
 * "AS IS" BASIS, WITHOUT WARRANTIES OR CONDITIONS OF ANY
 * KIND, either express or implied. See the License for the
 * specific language governing permissions and limitations
 * under the License.
-->

<svg version="1.1" id="mobile" xmlns="http://www.w3.org/2000/svg" xmlns:xlink="http://www.w3.org/1999/xlink" x="0px" y="0px"
	 viewBox="6.6 0 7.4 14" enable-background="new 6.6 0 7.4 14" xml:space="preserve">
<path id="path1" d="M9.9,12.4c-0.2,0-0.3,0.2-0.3,0.4V13c0,0.2,0.1,0.4,0.3,0.4h0.9c0.2,0,0.3-0.2,0.3-0.4v-0.2
	c0-0.2-0.1-0.4-0.3-0.4C10.8,12.4,9.9,12.4,9.9,12.4z M7.2,1.7v10h6.1v-10C13.3,1.7,7.2,1.7,7.2,1.7z M9,0.6c-0.1,0-0.1,0.1-0.1,0.2
	S9,1,9,1h2.8c0.1,0,0.1-0.1,0.1-0.2s-0.1-0.2-0.1-0.2H9z M7.4,0h5.8C13.6,0,14,0.4,14,0.9v12.3c0,0.5-0.4,0.9-0.8,0.9H7.4
	c-0.4-0.1-0.8-0.5-0.8-1V0.9C6.6,0.4,7,0,7.4,0z"/>
</svg>
