<?xml version="1.0" encoding="utf-8"?>

<!--
 * Copyright (c) 2015, WSO2 Inc. (http://www.wso2.org) All Rights Reserved.
 *
 * WSO2 Inc. licenses this file to you under the Apache License,
 * Version 2.0 (the "License"); you may not use this file except
 * in compliance with the License.
 * You may obtain a copy of the License at
 *
 * http://www.apache.org/licenses/LICENSE-2.0
 *
 * Unless required by applicable law or agreed to in writing,
 * software distributed under the License is distributed on an
 * "AS IS" BASIS, WITHOUT WARRANTIES OR CONDITIONS OF ANY
 * KIND, either express or implied. See the License for the
 * specific language governing permissions and limitations
 * under the License.
-->

<svg version="1.1" id="mute" xmlns="http://www.w3.org/2000/svg" xmlns:xlink="http://www.w3.org/1999/xlink" x="0px" y="0px"
	 viewBox="0 0 1008 1008" style="enable-background:new 0 0 1008 1008;" xml:space="preserve">
<path d="M0.1,686.7C0,562.3,0,437.8,0.1,313.4c0-29.6,17.1-46.1,47.6-46.2c115.3-0.1,230.5-0.2,345.8,0.2
	c17.7,0.1,32.3-4.6,46.5-15.3C542.8,174,646.2,96.5,749.4,18.8c3.1-2.3,6.3-4.5,11.7-8.2c0,59.6,0.2,116.4-0.3,173.2
	c0,4.2-3.7,9.5-7.2,12.5C656.5,280.3,559.2,364.1,461.9,448c-106.7,92-213.3,184-320.3,275.6c-5.1,4.4-13.3,7-20.1,7.2
	c-25.6,0.8-51.2,0.5-76.8,0.3C17.9,730.9,0.2,713.4,0.1,686.7z M382.4,731c13.9-0.2,25.6,3.8,36.7,12.1
	c110.2,83.1,220.5,166.1,330.7,249.1c3,2.3,6.3,4.4,10.7,7.4c0-227.5,0-453.2,0-681.6c-160,138-318.4,274.4-476.7,410.9
	C317.6,731.1,350,731.5,382.4,731z M1005.1,59.5L986.4,38c-4.3-5-12-5.6-17-1.2L10,869.3c-5,4.3-5.6,12-1.2,17l18.6,21.5
	c4.3,5,12,5.6,17,1.2l959.4-832.5C1008.9,72.1,1009.4,64.5,1005.1,59.5z"/>
</svg>
