<?xml version="1.0" encoding="utf-8"?>

<!--
 * Copyright (c) 2015, WSO2 Inc. (http://www.wso2.org) All Rights Reserved.
 *
 * WSO2 Inc. licenses this file to you under the Apache License,
 * Version 2.0 (the "License"); you may not use this file except
 * in compliance with the License.
 * You may obtain a copy of the License at
 *
 * http://www.apache.org/licenses/LICENSE-2.0
 *
 * Unless required by applicable law or agreed to in writing,
 * software distributed under the License is distributed on an
 * "AS IS" BASIS, WITHOUT WARRANTIES OR CONDITIONS OF ANY
 * KIND, either express or implied. See the License for the
 * specific language governing permissions and limitations
 * under the License.
-->

<svg version="1.1" id="nodejs" xmlns="http://www.w3.org/2000/svg" xmlns:xlink="http://www.w3.org/1999/xlink" x="0px" y="0px"
	 viewBox="0 0 14 14" enable-background="new 0 0 14 14" xml:space="preserve">
<path id="XMLID_1_" d="M4.6,12.7c0.3-0.2,0.6-0.3,0.9-0.4c0.1,0,0.1,0,0.2,0.1c0.4,0.2,0.8,0.4,1.1,0.7c0.1,0.1,0.2,0.1,0.3,0
	c1.6-1,3.3-1.9,4.9-2.9c0.1-0.1,0.2-0.1,0.2-0.3c0-1.9,0-3.8,0-5.7c0-0.1,0-0.2-0.2-0.3c-1.7-1-3.3-1.9-4.9-2.9C7,0.9,7,0.9,6.8,1
	c-1.6,1-3.3,1.9-4.9,2.9C1.8,3.9,1.7,4,1.7,4.1c0,1.9,0,3.8,0,5.7c0,0.1,0,0.2,0.2,0.3c0.4,0.2,0.8,0.5,1.3,0.7
	C3.3,10.9,3.4,11,3.6,11c0.5,0.1,0.8-0.2,0.8-0.7c0-0.4,0-0.8,0-1.2c0-1.5,0-3,0-4.4c0-0.3,0-0.3,0.3-0.3c0.2,0,0.3,0,0.5,0
	c0.1,0,0.2,0.1,0.2,0.2c0,0,0,0.1,0,0.1c0,1.8,0,3.7,0,5.5c0,0.3,0,0.5-0.1,0.8c-0.2,0.6-0.6,0.9-1.2,1c-0.5,0-1-0.1-1.4-0.3
	c-0.4-0.2-0.8-0.5-1.3-0.7c-0.4-0.2-0.6-0.6-0.6-1c0-1.9,0-3.9,0-5.8c0-0.5,0.2-0.8,0.6-1c1.7-1,3.3-1.9,5-2.9
	c0.4-0.2,0.8-0.2,1.2,0c1.7,1,3.3,1.9,5,2.9c0.4,0.2,0.6,0.6,0.6,1c0,1.9,0,3.9,0,5.8c0,0.5-0.2,0.8-0.6,1c-1.7,1-3.3,1.9-5,2.9
	c-0.4,0.2-0.8,0.2-1.2,0c-0.5-0.3-1.1-0.6-1.6-1C4.7,12.8,4.7,12.8,4.6,12.7z M8.9,9.8c0.6,0,1.1-0.1,1.6-0.4
	C11,9,11.2,8.5,11.1,7.8c-0.1-0.6-0.5-0.9-1-1.1C9.6,6.6,9,6.5,8.4,6.4C8.1,6.3,7.7,6.3,7.3,6.2C7.1,6.1,7,6,7.1,5.8
	c0-0.3,0.2-0.5,0.5-0.6C8,5.1,8.4,5.1,8.8,5.1c0.7,0,1,0.3,1.1,0.9c0,0.1,0.1,0.2,0.2,0.2c0.2,0,0.3,0,0.5,0c0.2,0,0.2-0.1,0.2-0.3
	c-0.1-0.7-0.4-1.3-1.2-1.5C9.2,4.1,8.5,4.1,7.9,4.2c-0.4,0-0.7,0.1-1,0.3C6.2,4.8,6,5.3,6,5.9c0,0.7,0.4,1.1,1,1.2
	c0.5,0.1,1,0.2,1.6,0.3C9,7.5,9.4,7.6,9.8,7.7c0.3,0.1,0.4,0.3,0.3,0.6c0,0.3-0.3,0.5-0.6,0.6C9,9,8.4,9,7.9,8.9
	C7.3,8.8,6.9,8.6,6.8,8c0-0.1-0.1-0.2-0.2-0.2c-0.2,0-0.4,0-0.5,0C5.9,7.8,5.8,7.9,5.9,8c0,0.7,0.3,1.2,0.9,1.5
	c0.5,0.3,1.1,0.3,1.7,0.3C8.7,9.8,8.8,9.8,8.9,9.8z"/>
</svg>
