<?xml version="1.0" encoding="utf-8"?>

<!--
 * Copyright (c) 2015, WSO2 Inc. (http://www.wso2.org) All Rights Reserved.
 *
 * WSO2 Inc. licenses this file to you under the Apache License,
 * Version 2.0 (the "License"); you may not use this file except
 * in compliance with the License.
 * You may obtain a copy of the License at
 *
 * http://www.apache.org/licenses/LICENSE-2.0
 *
 * Unless required by applicable law or agreed to in writing,
 * software distributed under the License is distributed on an
 * "AS IS" BASIS, WITHOUT WARRANTIES OR CONDITIONS OF ANY
 * KIND, either express or implied. See the License for the
 * specific language governing permissions and limitations
 * under the License.
-->

<svg version="1.1" id="paste" xmlns="http://www.w3.org/2000/svg" xmlns:xlink="http://www.w3.org/1999/xlink" x="0px" y="0px"
	 viewBox="0 0 14 14" enable-background="new 0 0 14 14" xml:space="preserve">
<path d="M6.7,0c0.2,0,0.4,0,0.6,0c0.1,0,0.2,0,0.3,0.1c0.8,0.1,1.3,0.6,1.5,1.4c0.1,0.2,0.1,0.5,0.1,0.8c0.2,0,0.5,0,0.8,0
	c0.4,0,0.5,0.1,0.5,0.4c0.2,0,0.3,0,0.5,0c0.6,0,1.1,0.2,1.4,0.7c0.2,0.3,0.2,0.6,0.2,1c0,2.3,0,4.7,0,7c0,0.4,0,0.8,0,1.2
	c-0.1,0.7-0.5,1.2-1.2,1.3c-0.1,0-0.2,0-0.3,0.1c-2.8,0-5.6,0-8.4,0c0,0-0.1,0-0.1,0c-0.4-0.1-0.8-0.2-1.1-0.6
	c-0.2-0.3-0.3-0.7-0.3-1.1c0-1.6,0-3.2,0-4.8c0-1.1,0-2.1,0-3.2c0-0.9,0.5-1.5,1.5-1.6c0.2,0,0.5,0,0.7,0C3.6,2.3,3.7,2.2,4,2.2
	c0.2,0,0.4,0,0.6,0c0.1,0,0.2,0,0.2,0c0-0.1,0-0.2,0-0.3c0-1,0.6-1.6,1.5-1.8C6.4,0,6.6,0,6.7,0z M3.5,3.5c-0.1,0-0.3,0-0.4,0
	c-0.5,0-0.9,0.4-0.9,0.9c0,2.6,0,5.2,0,7.8c0,0.5,0.4,0.9,0.9,0.9c2.6,0,5.2,0,7.8,0c0.6,0,1-0.4,1-1c0-2.6,0-5.2,0-7.8
	c0-0.1,0-0.1,0-0.2c-0.2-0.6-0.7-0.8-1.3-0.7c0,0,0,0,0,0c0,0.2,0,0.5,0,0.7c0,0.4-0.1,0.6-0.5,0.6c-2,0-4,0-6,0
	c-0.3,0-0.5-0.1-0.5-0.5C3.5,4.1,3.5,3.8,3.5,3.5z M3.9,4.4c2,0,4.1,0,6.1,0c0-0.6,0-1.2,0-1.8c-0.4,0-0.9,0-1.3,0
	c0-0.2,0-0.5,0-0.7c0-0.6-0.3-1-0.7-1.3C7.8,0.5,7.6,0.4,7.4,0.4c-0.3,0-0.5,0-0.8,0c-0.7,0-1.4,0.7-1.4,1.4c0,0.3,0,0.5,0,0.8
	c-0.4,0-0.9,0-1.3,0C3.9,3.2,3.9,3.8,3.9,4.4z M6.1,2.2c0-0.5,0.4-0.9,0.9-0.9c0.5,0,0.9,0.4,0.9,0.9c0,0.5-0.4,0.9-0.9,0.9
	C6.5,3.1,6.1,2.7,6.1,2.2z M7,1.7c-0.2,0-0.4,0.2-0.4,0.4c0,0.2,0.2,0.4,0.5,0.4c0.2,0,0.4-0.2,0.4-0.4C7.4,1.9,7.2,1.7,7,1.7z"/>
</svg>
