<?xml version="1.0" encoding="utf-8"?>

<!--
 * Copyright (c) 2015, WSO2 Inc. (http://www.wso2.org) All Rights Reserved.
 *
 * WSO2 Inc. licenses this file to you under the Apache License,
 * Version 2.0 (the "License"); you may not use this file except
 * in compliance with the License.
 * You may obtain a copy of the License at
 *
 * http://www.apache.org/licenses/LICENSE-2.0
 *
 * Unless required by applicable law or agreed to in writing,
 * software distributed under the License is distributed on an
 * "AS IS" BASIS, WITHOUT WARRANTIES OR CONDITIONS OF ANY
 * KIND, either express or implied. See the License for the
 * specific language governing permissions and limitations
 * under the License.
-->

<svg version="1.1" id="pie-chart" xmlns="http://www.w3.org/2000/svg" xmlns:xlink="http://www.w3.org/1999/xlink" x="0px" y="0px"
	 viewBox="0 0 14 14" enable-background="new 0 0 14 14" xml:space="preserve">
<path id="XMLID_1_" d="M6.5,0C6.5,0,6.5,0,6.5,0c0.1,0.1,0.1,0.1,0.1,0.2c0,2.2,0,4.5,0,6.7c0,0.2,0,0.3,0.1,0.4
	c1.1,1.9,2.2,3.9,3.4,5.8c0,0,0,0.1,0.1,0.1c0,0,0,0,0,0c-0.7,0.3-1.3,0.5-2.1,0.6c-0.2,0-0.5,0.1-0.7,0.1c-0.2,0-0.4,0-0.6,0
	c0,0,0,0-0.1,0c-0.3,0-0.6,0-0.9-0.1c-1.6-0.3-3-1.1-4.1-2.3c-0.9-1-1.4-2.2-1.6-3.6C0,7.7,0,7.5,0,7.3c0-0.2,0-0.4,0-0.5
	c0-0.1,0-0.3,0-0.4c0.1-1.1,0.4-2.2,1.1-3.1c1.1-1.7,2.7-2.8,4.7-3.1C6,0.1,6.3,0,6.5,0z M14,7.4c-0.1,0-0.1,0-0.2,0
	c-2,0-3.9,0-5.9,0c0,0-0.1,0-0.2,0c1,1.8,2.1,3.6,3.1,5.4c1.6-1.1,2.6-2.6,3-4.6C13.9,8,14,7.8,14,7.4C14,7.5,14,7.5,14,7.4z
	 M14,6.5c0-0.2,0-0.4-0.1-0.6c-0.4-2.5-1.8-4.2-4.1-5.3C9.2,0.3,8.4,0.1,7.6,0c0,0-0.1,0-0.1,0c0,0,0,0-0.1,0c0,0,0,0.1,0,0.1
	c0,2.1,0,4.2,0,6.3c0,0,0,0.1,0,0.1c0,0,0.1,0,0.1,0c2.1,0,4.2,0,6.3,0C13.9,6.6,14,6.5,14,6.5C14,6.5,14,6.5,14,6.5z"/>
</svg>
