<?xml version="1.0" encoding="utf-8"?>

<!--
 * Copyright (c) 2015, WSO2 Inc. (http://www.wso2.org) All Rights Reserved.
 *
 * WSO2 Inc. licenses this file to you under the Apache License,
 * Version 2.0 (the "License"); you may not use this file except
 * in compliance with the License.
 * You may obtain a copy of the License at
 *
 * http://www.apache.org/licenses/LICENSE-2.0
 *
 * Unless required by applicable law or agreed to in writing,
 * software distributed under the License is distributed on an
 * "AS IS" BASIS, WITHOUT WARRANTIES OR CONDITIONS OF ANY
 * KIND, either express or implied. See the License for the
 * specific language governing permissions and limitations
 * under the License.
-->

<svg version="1.1" id="public" xmlns="http://www.w3.org/2000/svg" xmlns:xlink="http://www.w3.org/1999/xlink" x="0px" y="0px"
	 viewBox="0 0 14 14" style="enable-background:new 0 0 14 14;" xml:space="preserve">
<path d="M5.99876,2.89624c-0.26356-0.26336-0.4016-0.61456-0.4016-0.97825c0-0.79015,0.62745-1.40465,1.40545-1.40465
	c0.01257,0,0.01257,0,0.01257,0c0.75286,0,1.38031,0.63956,1.38031,1.39214c0,0.3887-0.15061,0.73989-0.41411,0.99076
	C7.73045,3.1471,7.37907,3.31008,7.00261,3.31008H6.99004C6.61364,3.31008,6.26226,3.15967,5.99876,2.89624z M0.01318,5.84356
	C-0.01184,6.74655,0.00061,7.6496,0.00061,8.54002c0,0.16309,0.12553,0.31356,0.27607,0.33869
	c0.35138,0.0627,0.60237-0.06276,0.5898-0.46409c-0.01251-0.70232-0.01251-1.39214,0-2.09447
	c0-0.07526,0.03759-0.18816,0.10032-0.22573c0.15061-0.1129,0.33887,0,0.33887,0.21317c0,0.94062,0,1.86874,0,2.80936
	c0,0.92812,0,1.85623,0,2.78429c0,0.2383,0.10039,0.38882,0.31373,0.45152c0.30116,0.07526,0.55209-0.1254,0.55209-0.46409
	c0.01251-0.71483,0-1.41721,0-2.13204c0-0.21323,0-0.41395,0-0.62718C2.184,8.99155,2.25931,8.91628,2.39734,8.91628
	c0.12553,0,0.20077,0.07526,0.21334,0.21317c0,0.0627,0,0.13796,0,0.20066c0,0.85285,0,1.6932,0,2.54599
	c0,0.2383,0.08788,0.37626,0.26356,0.45152c0.31373,0.12546,0.61482-0.08777,0.61482-0.43896c0-1.02839,0-2.05684,0-3.08522
	c0-0.82785,0-1.65557,0-2.48329c0-0.1254,0.02508-0.21323,0.15061-0.2383C3.65219,6.0693,3.66476,6.0693,3.67733,6.0693
	c0-0.3637,0-0.73996,0.01251-1.10365c-0.92855-0.01256-1.84458-0.01256-2.76068,0C0.45237,4.96564,0.02569,5.37954,0.01318,5.84356z
	 M2.39734,4.80255c0.61494-0.0125,1.09173-0.48903,1.09173-1.10365c0-0.60193-0.48935-1.09115-1.09173-1.09115
	c-0.60225,0-1.09167,0.50172-1.09167,1.10371C1.30568,4.31352,1.79509,4.80255,2.39734,4.80255z M8.83474,3.67383
	c-1.07916,0-2.2587,0-3.7018,0c-0.75298,0-1.2925,0.53929-1.30507,1.27925v0.01256c0,0.37626,0,0.75246,0,1.12872
	c0,0.75252,0,1.50504,0,2.23243c0,0.1756,0.05022,0.30106,0.1381,0.37626c0.08781,0.07526,0.21328,0.1129,0.36389,0.1129
	c0.22579,0,0.36383-0.0627,0.4517-0.1881c0.05022-0.07526,0.06273-0.1756,0.0753-0.30106c0-0.07526,0-0.15053,0-0.22573
	c0-0.03763,0-0.0627,0-0.10039c0-0.23817,0-0.48903,0-0.72739c0-0.6145,0-1.25418,0-1.89374
	c0-0.13796,0.05016-0.25086,0.15055-0.32612c0.05022-0.03763,0.12553-0.0627,0.20083-0.0627
	c0.05016,0,0.08781,0.01256,0.13804,0.02507c0.23836,0.07526,0.23836,0.27593,0.23836,0.41395c0,0.84023,0,1.68051,0,2.5208v1.22911
	c0,0.35119,0,0.70238,0,1.05352c0,0.2508,0,0.50166,0,0.75252c0,0.62706,0,1.29181,0,1.93144
	c0,0.22573,0.07524,0.50166,0.41411,0.56442c0.16312,0.03757,0.3263,0,0.43919-0.10039
	c0.11296-0.08777,0.17569-0.2383,0.17569-0.41389c0-0.79009,0-1.60537,0-2.39546c0-0.38882,0-0.79009,0-1.17892
	c0-0.02507,0-0.03763,0-0.0627C6.60113,9.25491,6.60113,9.16708,6.63866,9.10438c0.0753-0.08771,0.20083-0.23824,0.33887-0.23824
	c0.10039,0,0.21334,0.07526,0.33881,0.22567c0.05022,0.0627,0.05022,0.15053,0.03765,0.21323c0,0.02507,0,0.0502,0,0.0627
	c0,0.40139,0,0.80266,0,1.20404c0,0.79009,0,1.60537,0,2.39546c0,0.1881,0.0753,0.35119,0.21334,0.43896
	c0.13804,0.08783,0.32618,0.1129,0.50186,0.03763c0.26356-0.10033,0.31373-0.301,0.31373-0.60205c0-2.3704,0-4.76586,0-7.08606
	v-0.3135c0-0.15053,0.03765-0.26336,0.10045-0.33863c0.06273-0.0627,0.15055-0.08783,0.2635-0.08783c0.01257,0,0.01257,0,0.01257,0
	c0.31367,0,0.35126,0.21323,0.35126,0.42646c0,0.01256,0,0.01256,0,0.01256c0,0.35113,0,0.68976,0,1.04095
	c0,0.58943,0,1.21655,0,1.81854c0,0.35119,0.16318,0.50166,0.53964,0.50166c0.12553,0,0.22591-0.02507,0.31373-0.07526
	c0.1254-0.0752,0.1882-0.21317,0.1882-0.43896v-0.0627c0-0.75252,0-1.53005,0-2.3077c0-0.31356,0-0.63962,0-0.95318
	c0-0.0752-0.01257-0.16303-0.02514-0.2383C10.02679,4.10029,9.53738,3.67383,8.83474,3.67383z M11.59768,4.80255
	c0.60231,0,1.09173-0.48903,1.09173-1.09109c0-0.60199-0.48942-1.10371-1.09173-1.10371c-0.60237,0-1.09173,0.48922-1.09173,1.09115
	C10.50596,4.31352,10.98274,4.79005,11.59768,4.80255z M13.98184,5.84356c-0.01251-0.46403-0.43919-0.87792-0.91598-0.87792
	c-0.9161-0.01256-1.83213-0.01256-2.76068,0c0.01257,0.3637,0.01257,0.73996,0.01257,1.10365c0.01251,0,0.02508,0,0.03759,0.01256
	c0.12553,0.02507,0.15061,0.1129,0.15061,0.2383c0,0.82772,0,1.65545,0,2.48329c0,1.02839,0,2.05684,0,3.08522
	c0,0.35119,0.3011,0.56442,0.61482,0.43896c0.17569-0.07526,0.26356-0.21323,0.26356-0.45152c0-0.85279,0-1.69314,0-2.54599
	c0-0.0627,0-0.13796,0-0.20066c0.01257-0.1379,0.08781-0.21317,0.21334-0.21317c0.13804,0,0.21334,0.07526,0.22585,0.21317
	c0,0.21323,0,0.41395,0,0.62718c0,0.71483-0.01251,1.41721,0,2.13204c0,0.33869,0.25093,0.53935,0.55209,0.46409
	c0.21334-0.0627,0.31373-0.21323,0.31373-0.45152c0-0.92805,0-1.85617,0-2.78429c0-0.94062,0-1.86874,0-2.80936
	c0-0.21317,0.18826-0.32606,0.33887-0.21317c0.06273,0.03757,0.10032,0.15047,0.10032,0.22573
	c0.01251,0.70232,0.01251,1.39214,0,2.09447c-0.01257,0.40133,0.23842,0.52679,0.5898,0.46409
	c0.15061-0.02513,0.27607-0.1756,0.27607-0.33869C13.99442,7.6496,14.00686,6.74655,13.98184,5.84356z"/>
</svg>
