<?xml version="1.0" encoding="utf-8"?>

<!--
 * Copyright (c) 2015, WSO2 Inc. (http://www.wso2.org) All Rights Reserved.
 *
 * WSO2 Inc. licenses this file to you under the Apache License,
 * Version 2.0 (the "License"); you may not use this file except
 * in compliance with the License.
 * You may obtain a copy of the License at
 *
 * http://www.apache.org/licenses/LICENSE-2.0
 *
 * Unless required by applicable law or agreed to in writing,
 * software distributed under the License is distributed on an
 * "AS IS" BASIS, WITHOUT WARRANTIES OR CONDITIONS OF ANY
 * KIND, either express or implied. See the License for the
 * specific language governing permissions and limitations
 * under the License.
-->

<svg version="1.1" id="raspberry" xmlns="http://www.w3.org/2000/svg" xmlns:xlink="http://www.w3.org/1999/xlink" x="0px" y="0px"
	 viewBox="0 0 14 14" style="enable-background:new 0 0 14 14;" xml:space="preserve">
<path d="M11.53657,6.35614L11.4374,6.17951c0.00391-1.2685-0.57586-1.78568-1.25187-2.17865
	c0.2046-0.05477,0.41586-0.09976,0.47375-0.3607c0.3515-0.09135,0.42505-0.25644,0.46026-0.4315
	c0.09193-0.0622,0.39962-0.23688,0.36735-0.53733c0.17233-0.12069,0.26837-0.27561,0.21947-0.49508
	c0.18504-0.20499,0.23394-0.37439,0.15531-0.53068c0.22221-0.2803,0.12362-0.42544,0.02875-0.57254
	c0.16646-0.30651,0.01956-0.63513-0.44578-0.58016c-0.18504-0.276-0.58858-0.21341-0.65097-0.21204
	c-0.06983-0.08861-0.16196-0.1645-0.44559-0.12773c-0.18367-0.16646-0.38906-0.1381-0.6009-0.05633
	C9.49563-0.10176,9.32917,0.05746,9.13904,0.11751C8.83448,0.01814,8.76485,0.15429,8.61521,0.20984
	C8.28307,0.13962,8.18214,0.29258,8.02292,0.45376L7.83768,0.45004C7.33673,0.7454,7.08773,1.3465,6.99951,1.65556
	C6.91129,1.3465,6.66307,0.74521,6.16213,0.45004L5.97689,0.45376C5.81747,0.29258,5.71654,0.13962,5.3844,0.20984
	C5.23476,0.15429,5.16532,0.01814,4.86057,0.11751C4.73577,0.078,4.62115-0.00396,4.48598,0.00015l0.0002,0.00019
	C4.41537,0.0025,4.33909,0.02871,4.25263,0.09678C4.04079,0.01521,3.8354-0.01315,3.65173,0.15311
	C3.3681,0.11634,3.27597,0.19223,3.20614,0.28084c-0.0622-0.00137-0.46593-0.06396-0.65097,0.21204
	C2.09002,0.43791,1.94292,0.76653,2.10958,1.07304c-0.09506,0.1471-0.19345,0.29243,0.02875,0.57273
	C2.0597,1.80187,2.1084,1.97126,2.29345,2.17645C2.24474,2.39592,2.34078,2.55084,2.51292,2.67153
	C2.48084,2.97198,2.78852,3.14646,2.88026,3.20886c0.0354,0.17507,0.10895,0.34016,0.46026,0.4315
	c0.0581,0.26074,0.26935,0.30593,0.47376,0.3607C3.13826,4.39403,2.55849,4.91101,2.5624,6.17971L2.46343,6.35634
	C1.68825,6.82775,0.99091,8.3429,2.08141,9.57443c0.0712,0.38554,0.19071,0.66232,0.29712,0.96883
	c0.15903,1.23485,1.19749,1.81306,1.47134,1.88153c0.40119,0.30573,0.82878,0.59562,1.40718,0.79885
	C5.80221,13.78601,6.39294,14.00039,6.9868,14c0.0088,0,0.01761,0,0.02641,0c0.59386,0.00039,1.18458-0.21399,1.72993-0.77636
	c0.57821-0.20323,1.0058-0.49312,1.40699-0.79885c0.27385-0.06846,1.31232-0.64667,1.47134-1.88153
	c0.10641-0.30651,0.22592-0.58329,0.29712-0.96883C13.00909,8.34271,12.31176,6.82755,11.53657,6.35614z M10.83552,6.13941
	C10.79503,6.65033,8.17216,4.35999,8.62499,4.2839C9.85398,4.07636,10.8768,4.80656,10.83552,6.13941z M7.95602,0.80037
	c0.02269,0.11482,0.04831,0.18739,0.07765,0.20871C8.1796,0.85044,8.29872,0.6879,8.4865,0.53532
	c0.00059,0.08959-0.0446,0.187,0.06709,0.258c0.10074-0.13732,0.23668-0.26015,0.41723-0.36422
	C8.88397,0.58149,8.95595,0.62765,9.0027,0.69083c0.1379-0.1201,0.26896-0.24177,0.52344-0.33585
	C9.45651,0.44085,9.35949,0.52476,9.46238,0.62374c0.1422-0.09017,0.28519-0.18015,0.62241-0.24412
	c-0.07589,0.08607-0.23316,0.17213-0.1379,0.2582c0.17839-0.06924,0.37576-0.11932,0.59425-0.14866
	c-0.10465,0.08743-0.19189,0.17291-0.10621,0.24059c0.19091-0.05966,0.454-0.13986,0.71083-0.07081l-0.16255,0.16626
	c-0.01819,0.0223,0.38045,0.01741,0.64354,0.02132c-0.09604,0.13536-0.19384,0.26602-0.25096,0.4986
	c0.02602,0.0268,0.15629,0.01193,0.27933,0c-0.12617,0.26935-0.34505,0.33742-0.3961,0.45263
	c0.07707,0.05927,0.18387,0.04382,0.30064,0.00352c-0.09076,0.18974-0.28108,0.31982-0.4315,0.47395
	c0.03795,0.02738,0.10445,0.04362,0.26172,0.02465c-0.13888,0.15003-0.30671,0.28695-0.50564,0.41018
	c0.03521,0.04147,0.15629,0.03971,0.26876,0.04245c-0.18035,0.17918-0.41214,0.27189-0.62965,0.38906
	c0.10836,0.07511,0.18582,0.0577,0.26876,0.05653c-0.15355,0.12832-0.41507,0.19502-0.65762,0.27228
	c0.04616,0.07296,0.09233,0.09272,0.19091,0.11326c-0.25683,0.14436-0.62476,0.07824-0.72843,0.15199
	C9.62199,3.80819,9.6926,3.85533,9.7773,3.89484C9.36379,3.91929,8.2328,3.87958,8.01607,3.01071
	c0.42329-0.47219,1.19573-1.02634,2.52467-1.71155C9.50678,1.65047,8.57394,2.11875,7.79328,2.76307
	C6.8753,2.32922,7.50808,1.235,7.95602,0.80037z M6.99462,3.93396C7.6456,3.92673,8.45149,4.41965,8.44836,4.88402
	C8.44542,5.29381,7.88228,5.62575,6.99971,5.6193c-0.86438-0.01017-1.4465-0.41683-1.44435-0.81411
	C5.55692,4.47833,6.2611,3.91479,6.99462,3.93396z M3.70454,3.58363C3.80313,3.5631,3.84929,3.54334,3.89545,3.47038
	C3.6529,3.39311,3.39138,3.32641,3.23783,3.1981c0.08294,0.00117,0.1604,0.01858,0.26876-0.05653
	C3.28908,3.0244,3.05729,2.93168,2.87694,2.75251C2.98941,2.74977,3.11049,2.75153,3.1457,2.71006
	C2.94677,2.58683,2.77894,2.44991,2.64006,2.29988c0.15727,0.01897,0.22377,0.00274,0.26172-0.02465
	C2.75136,2.1211,2.56104,1.99102,2.47027,1.80128c0.11678,0.04029,0.22358,0.05575,0.30064-0.00352
	c-0.05105-0.11521-0.26993-0.18328-0.3961-0.45263c0.12304,0.01193,0.25331,0.0268,0.27932,0
	c-0.05692-0.23257-0.15492-0.36324-0.25096-0.4986c0.26309-0.00391,0.66173,0.00098,0.64374-0.02112L2.88417,0.65914
	C3.1412,0.5899,3.40409,0.67029,3.595,0.72976c0.08568-0.06748-0.00156-0.15316-0.10602-0.2404
	C3.70728,0.5185,3.90465,0.56877,4.08304,0.63782c0.09526-0.08607-0.06181-0.17213-0.1379-0.258
	c0.33742,0.06396,0.48041,0.15394,0.62242,0.24392c0.10308-0.09878,0.00587-0.1827-0.06357-0.26876
	c0.25429,0.09428,0.38534,0.21595,0.52324,0.33605c0.04675-0.06318,0.11893-0.10954,0.03188-0.26172
	c0.18074,0.10406,0.31668,0.22671,0.41742,0.36422c0.11169-0.0712,0.0665-0.16842,0.06709-0.2582
	c0.18778,0.15277,0.3069,0.31512,0.45263,0.47395C6.02559,0.98776,6.05141,0.91519,6.0741,0.80056
	C6.52184,1.235,7.15482,2.32941,6.23685,2.76327C5.45599,2.11933,4.52354,1.65125,3.49035,1.29994
	c1.32816,0.68481,2.10041,1.23877,2.5235,1.71076C5.79713,3.87958,4.66614,3.91929,4.25263,3.89484
	c0.0847-0.03951,0.15531-0.08665,0.18035-0.15922C4.32931,3.66188,3.96137,3.72799,3.70454,3.58363z M5.22909,4.24478
	c0.45283,0.07609-2.17004,2.36643-2.21053,1.85551C2.97728,4.76763,3.99991,4.03724,5.22909,4.24478z M2.47536,9.34831
	C1.83788,8.83563,1.6325,7.33417,2.81434,6.65933C3.52654,6.46842,3.05474,9.60573,2.47536,9.34831z M4.95994,12.03554
	c-0.35933,0.21693-1.23251,0.12773-1.85297-0.76384c-0.4186-0.74799-0.36461-1.50929-0.07081-1.73287
	c0.43952-0.26759,1.11847,0.09389,1.64093,0.70027C5.13246,10.78777,5.34,11.75152,4.95994,12.03554z M4.25361,8.76385
	C3.59403,8.33156,3.4751,7.35197,3.98797,6.57581c0.51307-0.77636,1.46352-1.05529,2.12329-0.623
	C6.77085,6.3849,6.88978,7.36449,6.3769,8.14084C5.86383,8.917,4.91319,9.19594,4.25361,8.76385z M6.99697,13.56341
	c-0.79083,0.03423-1.56621-0.64765-1.55604-0.88394c-0.01174-0.34661,0.96296-0.61713,1.59848-0.60129
	c0.03482-0.00157,0.07022-0.00235,0.10621-0.00235c0.62437,0,1.39153,0.22514,1.39329,0.51875
	C8.54949,12.89581,7.76061,13.57671,6.99697,13.56341z M8.6244,10.14638c0.00469,0.81078-0.70437,1.47154-1.58362,1.47584
	c-0.87924,0.0043-1.59575-0.64961-1.60044-1.46039c0-0.00509,0-0.01017,0-0.01545C5.43584,9.3356,6.14472,8.67485,7.02396,8.67074
	c0.87925-0.0043,1.59575,0.64941,1.60044,1.46019C8.6244,10.13602,8.6244,10.1413,8.6244,10.14638z M7.62603,8.0626
	C7.11316,7.28624,7.23209,6.30665,7.89167,5.87456c0.65978-0.43229,1.61022-0.15335,2.12329,0.623
	c0.51288,0.77616,0.39395,1.75575-0.26563,2.18804C9.08975,9.1177,8.13911,8.83876,7.62603,8.0626z M10.85058,11.31473
	c-0.68149,0.94555-1.60396,0.98233-1.94764,0.71904c-0.35933-0.33898-0.08509-1.39153,0.40764-1.96857v-0.0002
	c0.56373-0.6365,1.16639-1.05216,1.58636-0.72746C11.17959,9.61923,11.34527,10.6798,10.85058,11.31473z M11.38381,9.30939
	c-0.57938,0.25742-1.05118-2.88009-0.33898-2.68918c0.61283,0.34994,0.85264,0.92208,0.85264,1.46352
	C11.89746,8.58643,11.69071,9.06254,11.38381,9.30939z"/>
</svg>
