<?xml version="1.0" encoding="utf-8"?>

<!--
 * Copyright (c) 2015, WSO2 Inc. (http://www.wso2.org) All Rights Reserved.
 *
 * WSO2 Inc. licenses this file to you under the Apache License,
 * Version 2.0 (the "License"); you may not use this file except
 * in compliance with the License.
 * You may obtain a copy of the License at
 *
 * http://www.apache.org/licenses/LICENSE-2.0
 *
 * Unless required by applicable law or agreed to in writing,
 * software distributed under the License is distributed on an
 * "AS IS" BASIS, WITHOUT WARRANTIES OR CONDITIONS OF ANY
 * KIND, either express or implied. See the License for the
 * specific language governing permissions and limitations
 * under the License.
-->

<svg version="1.1" id="refresh" xmlns="http://www.w3.org/2000/svg" xmlns:xlink="http://www.w3.org/1999/xlink" x="0px" y="0px"
	 viewBox="0 0 14 14" enable-background="new 0 0 14 14" xml:space="preserve">
<path fill="#010002" d="M8,1.8l0.3,0.3L6.5,3.9c-0.3,0.3-0.7,0.2-0.9,0C5.4,3.7,5.3,3.6,5.3,3.4c0-0.2,0.1-0.3,0.2-0.5l0.1-0.1
	C3.5,3.4,2,5.4,2,7.7c0,2.8,2.3,5,5,5c2.8,0,5-2.3,5-5c0-1.3-0.5-2.6-1.5-3.5c-0.1-0.1-0.2-0.3-0.2-0.5c0-0.2,0.1-0.3,0.2-0.5
	c0.3-0.2,0.7-0.2,0.9,0c1.2,1.2,1.9,2.8,1.9,4.5c0,3.5-2.8,6.3-6.3,6.3c-3.5,0-6.3-2.8-6.3-6.3c0-3.1,2.2-5.7,5.1-6.2L5.5,1.2
	C5.4,1.1,5.3,0.9,5.3,0.7c0-0.2,0.1-0.3,0.2-0.5C5.8,0,6.2,0,6.5,0.2L8,1.8L8,1.8z"/>
</svg>
