<?xml version="1.0" encoding="utf-8"?>

<!--
 * Copyright (c) 2015, WSO2 Inc. (http://www.wso2.org) All Rights Reserved.
 *
 * WSO2 Inc. licenses this file to you under the Apache License,
 * Version 2.0 (the "License"); you may not use this file except
 * in compliance with the License.
 * You may obtain a copy of the License at
 *
 * http://www.apache.org/licenses/LICENSE-2.0
 *
 * Unless required by applicable law or agreed to in writing,
 * software distributed under the License is distributed on an
 * "AS IS" BASIS, WITHOUT WARRANTIES OR CONDITIONS OF ANY
 * KIND, either express or implied. See the License for the
 * specific language governing permissions and limitations
 * under the License.
-->

<svg version="1.1" id="remove" xmlns="http://www.w3.org/2000/svg" xmlns:xlink="http://www.w3.org/1999/xlink" x="0px" y="0px"
	 viewBox="0 0 14 14" enable-background="new 0 0 14 14" xml:space="preserve">
<path d="M6.6,0c0.3,0,0.6,0,0.9,0c0,0,0.1,0,0.1,0C8,0.1,8.4,0.1,8.8,0.2c2.6,0.7,4.6,2.9,5.1,5.6c0,0.3,0.1,0.5,0.1,0.8
	c0,0.3,0,0.6,0,0.9c0,0,0,0.1,0,0.1c-0.1,0.7-0.2,1.3-0.4,2c-1,2.4-2.8,3.9-5.3,4.4c-0.2,0-0.5,0.1-0.8,0.1c-0.3,0-0.6,0-0.9,0
	c0,0-0.1,0-0.1,0c-0.4-0.1-0.9-0.1-1.3-0.2c-2.6-0.7-4.6-2.9-5.1-5.5C0.1,8,0,7.7,0,7.4c0-0.3,0-0.6,0-0.9c0,0,0-0.1,0-0.1
	C0.1,6,0.1,5.6,0.2,5.2C1,2.5,3.1,0.6,5.8,0.1C6.1,0.1,6.3,0,6.6,0z M0.9,7c0,3.4,2.7,6.1,6.1,6.1c3.4,0,6.1-2.7,6.1-6.1
	c0-3.4-2.8-6.1-6.1-6.1C3.6,0.9,0.9,3.6,0.9,7z M7.1,7.7C7.5,8.2,8,8.6,8.4,9C8.7,9.3,9,9.6,9.3,9.9c0.1,0.1,0.3,0.2,0.4,0.1
	C9.9,10,10,9.9,10.1,9.7c0-0.2,0-0.3-0.2-0.4C9.2,8.6,8.4,7.8,7.7,7.1c0,0-0.1-0.1-0.1-0.1c0,0,0.1-0.1,0.1-0.1
	c0.7-0.7,1.4-1.4,2.1-2.1c0,0,0.1-0.1,0.1-0.1C10.2,4.4,10,4,9.7,4c-0.2,0-0.3,0-0.4,0.1C8.6,4.8,7.8,5.5,7.1,6.3
	c0,0-0.1,0.1-0.1,0.1c0,0-0.1-0.1-0.1-0.1C6.2,5.6,5.5,4.8,4.7,4.1C4.6,4,4.5,4,4.4,3.9C4.2,3.9,4.1,4,4,4.2c-0.1,0.2,0,0.4,0.1,0.5
	c0.7,0.7,1.5,1.5,2.2,2.2c0,0,0.1,0.1,0.1,0.1c0,0-0.1,0.1-0.1,0.1C5.5,7.8,4.8,8.6,4.1,9.3C3.9,9.4,3.9,9.6,4,9.8
	c0.1,0.3,0.5,0.3,0.7,0.1c0.7-0.7,1.5-1.4,2.2-2.2c0,0,0.1-0.1,0.1-0.1C7,7.7,7.1,7.7,7.1,7.7z"/>
</svg>
