<?xml version="1.0" encoding="utf-8"?>
<!-- Generator: Adobe Illustrator 19.0.0, SVG Export Plug-In . SVG Version: 6.00 Build 0)  -->
<svg version="1.1" id="resource" xmlns="http://www.w3.org/2000/svg" xmlns:xlink="http://www.w3.org/1999/xlink" x="0px" y="0px"
	 viewBox="597 0 16 14" style="enable-background:new 597 0 16 14;" xml:space="preserve">
<path d="M612.6,2.1h-4.7V0.6c0-0.3-0.2-0.5-0.5-0.5h-4.7c-0.3,0-0.5,0.2-0.5,0.5v1.5h-4.7c-0.2,0-0.4,0.2-0.4,0.4V13
	c0,0.2,0.2,0.4,0.4,0.4h1.3v0.4c0,0.1,0,0.1,0.1,0.1h1.1c0.1,0,0.1,0,0.1-0.1v-0.4h10v0.4c0,0.1,0,0.1,0.1,0.1h1.1
	c0.1,0,0.1,0,0.1-0.1v-0.4h1.3c0.2,0,0.4-0.2,0.4-0.4V2.6C613,2.3,612.8,2.1,612.6,2.1z M603.3,1.3h3.5v0.9h-3.5V1.3z"/>
</svg>
