<?xml version="1.0" encoding="utf-8"?>

<!--
 * Copyright (c) 2015, WSO2 Inc. (http://www.wso2.org) All Rights Reserved.
 *
 * WSO2 Inc. licenses this file to you under the Apache License,
 * Version 2.0 (the "License"); you may not use this file except
 * in compliance with the License.
 * You may obtain a copy of the License at
 *
 * http://www.apache.org/licenses/LICENSE-2.0
 *
 * Unless required by applicable law or agreed to in writing,
 * software distributed under the License is distributed on an
 * "AS IS" BASIS, WITHOUT WARRANTIES OR CONDITIONS OF ANY
 * KIND, either express or implied. See the License for the
 * specific language governing permissions and limitations
 * under the License.
-->

<svg version="1.1" id="rest-service" xmlns="http://www.w3.org/2000/svg" xmlns:xlink="http://www.w3.org/1999/xlink" x="0px"
	 y="0px" viewBox="0 0 14 14" enable-background="new 0 0 14 14" xml:space="preserve">
<path d="M0,6.6c0.7,0,0.8-0.4,0.8-0.8c0-0.3,0-0.6-0.1-0.9S0.7,4.4,0.7,4.1c0-0.9,0.6-1.3,1.5-1.3h0.2v0.6H2.2
	c-0.6,0-0.8,0.3-0.8,0.9c0,0.2,0,0.5,0.1,0.7c0,0.3,0.1,0.5,0.1,0.8c0,0.7-0.3,1-0.7,1.1v0C1.2,7,1.5,7.4,1.5,8c0,0.3,0,0.5-0.1,0.8
	c0,0.3-0.1,0.5-0.1,0.7c0,0.6,0.2,0.9,0.8,0.9h0.2V11H2.2c-0.9,0-1.5-0.4-1.5-1.4c0-0.3,0-0.6,0.1-0.8c0-0.3,0.1-0.6,0.1-0.8
	c0-0.3-0.1-0.8-0.8-0.8C0,7.2,0,6.6,0,6.6z M14,7.2c-0.7,0-0.8,0.4-0.8,0.8c0,0.3,0,0.6,0.1,0.8c0,0.3,0.1,0.6,0.1,0.8
	c0,1-0.6,1.4-1.5,1.4h-0.2v-0.6h0.2c0.6,0,0.8-0.3,0.8-0.9c0-0.2,0-0.5-0.1-0.7c0-0.2-0.1-0.5-0.1-0.8c0-0.7,0.3-1,0.7-1.1v0
	c-0.5-0.1-0.7-0.5-0.7-1.1c0-0.3,0-0.5,0.1-0.8c0-0.2,0.1-0.5,0.1-0.7c0-0.6-0.2-0.9-0.8-0.9h-0.2V2.8h0.2c0.9,0,1.5,0.4,1.5,1.3
	c0,0.3,0,0.6-0.1,0.9c0,0.3-0.1,0.6-0.1,0.9c0,0.4,0.1,0.8,0.8,0.8C14,6.6,14,7.2,14,7.2z M2.8,5.6C2.9,5.7,3,5.9,3,6.1L2.8,6.4
	c-0.1,0.1-0.1,0.3,0,0.4l0.5,0.5c0.1,0.1,0.3,0.1,0.4,0L4,7c0.2,0.1,0.4,0.2,0.5,0.2l0,0.4c0,0.1,0.1,0.2,0.3,0.2h0.6
	c0.1,0,0.3-0.1,0.3-0.2l0-0.4C6,7.2,6.2,7.1,6.4,7l0.3,0.3c0.1,0.1,0.3,0.1,0.4,0l0.5-0.5c0.1-0.1,0.1-0.3,0-0.4L7.3,6.1
	c0.1-0.2,0.2-0.4,0.2-0.6l0.4,0c0.1,0,0.2-0.1,0.2-0.3V4.6c0-0.1-0.1-0.3-0.2-0.3l-0.4,0C7.5,4,7.4,3.9,7.3,3.7l0.2-0.3
	c0.1-0.1,0.1-0.3,0-0.4L7,2.6c-0.1-0.1-0.3-0.1-0.4,0L6.4,2.8C6.2,2.7,6,2.6,5.8,2.5l0-0.4c0-0.1-0.1-0.2-0.3-0.2H4.8
	C4.7,1.9,4.6,2,4.6,2.2l0,0.4C4.3,2.6,4.1,2.7,3.9,2.8L3.6,2.5c-0.1-0.1-0.3-0.1-0.4,0L2.8,3c-0.1,0.1-0.1,0.3,0,0.4L3,3.7
	C2.9,3.9,2.9,4.1,2.8,4.3l-0.4,0c-0.1,0-0.2,0.1-0.2,0.3v0.6c0,0.1,0.1,0.3,0.2,0.3L2.8,5.6z M5.2,3.8c0.6,0,1.1,0.5,1.1,1.1
	S5.8,5.9,5.2,5.9S4.1,5.5,4.1,4.9C4.1,4.3,4.6,3.8,5.2,3.8z M11.5,5.7l-0.3-0.3c-0.1-0.1-0.3-0.1-0.4,0l-0.2,0.2
	c-0.2-0.1-0.3-0.1-0.5-0.2l-0.1-0.3C10.1,5.1,10,5,9.8,5L9.4,5C9.2,5,9.1,5.1,9.1,5.3l0,0.3C8.9,5.6,8.8,5.7,8.6,5.8L8.4,5.6
	C8.3,5.6,8.1,5.6,8.1,5.7L7.8,6c-0.1,0.1-0.1,0.3,0,0.4L8,6.6C7.9,6.8,7.9,6.9,7.8,7.1L7.5,7.1c-0.1,0-0.2,0.2-0.2,0.3l0,0.4
	c0,0.1,0.1,0.2,0.3,0.2l0.3,0C8,8.3,8.1,8.4,8.1,8.5L8,8.8C7.9,8.9,7.9,9.1,8,9.1l0.3,0.3c0.1,0.1,0.3,0.1,0.4,0L9,9.2
	c0.1,0.1,0.3,0.1,0.5,0.1l0.1,0.3c0,0.1,0.2,0.2,0.3,0.2l0.4,0c0.1,0,0.2-0.1,0.2-0.3l0-0.3c0.2-0.1,0.3-0.1,0.5-0.2l0.2,0.2
	c0.1,0.1,0.3,0.1,0.4-0.1l0.3-0.3c0.1-0.1,0.1-0.3,0-0.4l-0.2-0.2c0.1-0.2,0.1-0.3,0.2-0.5L12,7.7c0.1,0,0.2-0.2,0.2-0.3l0-0.4
	c0-0.1-0.1-0.2-0.3-0.2l-0.3,0c-0.1-0.2-0.1-0.3-0.2-0.4l0.1-0.2C11.7,6,11.6,5.8,11.5,5.7z M9.9,8.3C9.4,8.3,9,8,8.9,7.5
	c0-0.5,0.3-0.9,0.8-0.9c0.5,0,0.9,0.3,0.9,0.8C10.7,7.8,10.3,8.2,9.9,8.3z M4.4,9.5c-0.1,0-0.2,0.1-0.2,0.3l0,0.3
	c0,0.1,0.1,0.3,0.2,0.3l0.2,0c0,0.1,0.1,0.2,0.1,0.3l-0.1,0.2c-0.1,0.1-0.1,0.3,0,0.4l0.2,0.2c0.1,0.1,0.2,0.1,0.4,0l0.2-0.1
	c0.1,0.1,0.2,0.1,0.4,0.2l0,0.2c0,0.1,0.1,0.2,0.3,0.2l0.3,0c0.1,0,0.3-0.1,0.3-0.2l0-0.2c0.1,0,0.3-0.1,0.4-0.2l0.2,0.1
	c0.1,0.1,0.3,0.1,0.4,0l0.2-0.2c0.1-0.1,0.1-0.2,0-0.4l-0.1-0.2c0.1-0.1,0.1-0.2,0.2-0.4l0.2,0c0.1,0,0.2-0.1,0.2-0.3l0-0.3
	c0-0.1-0.1-0.3-0.2-0.3l-0.2,0c0-0.1-0.1-0.3-0.1-0.4L7.7,9c0.1-0.1,0.1-0.3,0-0.4L7.5,8.4c-0.1-0.1-0.2-0.1-0.4,0L7,8.5
	C6.9,8.4,6.7,8.4,6.6,8.3l0-0.2c0-0.1-0.1-0.2-0.3-0.2L6,7.9C5.9,7.9,5.8,8,5.8,8.1l0,0.2c-0.1,0-0.3,0.1-0.4,0.2L5.2,8.4
	c-0.1-0.1-0.3-0.1-0.4,0L4.6,8.6c-0.1,0.1-0.1,0.2,0,0.4l0.1,0.1C4.7,9.2,4.6,9.3,4.6,9.5L4.4,9.5z M6.1,9.2c0.4,0,0.7,0.3,0.7,0.7
	c0,0.4-0.3,0.7-0.7,0.7c-0.4,0-0.7-0.3-0.7-0.7C5.4,9.5,5.8,9.2,6.1,9.2z"/>
</svg>
