<?xml version="1.0" encoding="utf-8"?>
<!-- Generator: Adobe Illustrator 19.1.0, SVG Export Plug-In . SVG Version: 6.00 Build 0)  -->
<svg version="1.1" id="ring-message" xmlns="http://www.w3.org/2000/svg" xmlns:xlink="http://www.w3.org/1999/xlink" x="0px"
	 y="0px" viewBox="-413 291.3515 14 14" style="enable-background:new -413 291.3515 14 14;" xml:space="preserve">
<path d="M-406.39999,303.66354c-0.20001,0-0.30002,0.19861-0.30002,0.39719v0.19858c0,0.19858,0.10001,0.39716,0.30002,0.39716
	H-405.5c0.20001,0,0.29999-0.19858,0.29999-0.39716v-0.19858c0-0.19858-0.09998-0.39716-0.29999-0.39716
	C-405.5,303.66354-406.39999,303.66354-406.39999,303.66354z M-409.10001,293.03946v9.92908H-403v-9.92908
	C-403,293.03946-409.10001,293.03946-409.10001,293.03946z M-407.29999,291.94724c-0.10001,0-0.10001,0.0993-0.10001,0.19858
	c0,0.0993,0.10001,0.19861,0.10001,0.19861H-404.5c0.10001,0,0.10001-0.0993,0.10001-0.19861
	c0-0.09927-0.10001-0.19858-0.10001-0.19858H-407.29999z M-408.89999,291.3515h5.79999c0.39999,0,0.80002,0.39716,0.80002,0.89362
	v12.21277c0,0.49646-0.40002,0.89362-0.80002,0.89362h-5.79999c-0.39999-0.0993-0.80002-0.49646-0.80002-0.99292v-12.11346
	C-409.70001,291.74866-409.29999,291.3515-408.89999,291.3515z M-410.04407,294.479v0.31177
	c0,0.06406-0.04523,0.11737-0.10315,0.12045c-1.30594,0.0694-2.35168,1.45059-2.35168,3.13846s1.04575,3.06906,2.35168,3.13849
	c0.05792,0.00305,0.10315,0.05637,0.10315,0.12042v0.3118c0,0.06915-0.05243,0.12415-0.11499,0.12115
	c-1.57681-0.07578-2.84094-1.70279-2.84094-3.69186c0-1.98911,1.26413-3.61609,2.84094-3.69183
	C-410.0965,294.35483-410.04407,294.40985-410.04407,294.479z M-411.62595,298.04968c0,1.08221,0.6705,1.9678,1.50784,2.0123
	c0.03714,0.00198,0.06613,0.03616,0.06613,0.07724v0.19989c0,0.04434-0.03363,0.07962-0.07373,0.0777
	c-1.01102-0.04858-1.82153-1.09177-1.82153-2.36713s0.81052-2.31854,1.82153-2.3671c0.0401-0.00192,0.07373,0.03333,0.07373,0.07767
	v0.19992c0,0.04108-0.02899,0.07526-0.06613,0.07721C-410.95544,296.08188-411.62595,296.96747-411.62595,298.04968z
	 M-399,298.06281c0,1.98203-1.25961,3.60324-2.83084,3.67874c-0.06232,0.00299-0.11456-0.05182-0.11456-0.12073v-0.3107
	c0-0.06381,0.04504-0.11691,0.10275-0.12c1.30133-0.06915,2.34335-1.44543,2.34335-3.12732
	c0-1.68185-1.04202-3.05814-2.34335-3.12729c-0.05771-0.00308-0.10275-0.05621-0.10275-0.12003v-0.31067
	c0-0.06891,0.05225-0.12372,0.11456-0.12073C-400.25961,294.45956-399,296.08078-399,298.06281z M-400.36914,298.06281
	c0-1.07834-0.66812-1.96078-1.5025-2.00513c-0.03699-0.00195-0.06589-0.03604-0.06589-0.07693v-0.19922
	c0-0.04416,0.03351-0.07932,0.07349-0.07739c1.00742,0.0484,1.81503,1.08786,1.81503,2.35867s-0.80765,2.3103-1.81503,2.3587
	c-0.03998,0.00192-0.07349-0.03323-0.07349-0.07739v-0.19922c0-0.04089,0.02887-0.07498,0.06589-0.07693
	C-401.03726,300.02362-400.36914,299.14117-400.36914,298.06281z"/>
</svg>
