<?xml version="1.0" encoding="utf-8"?>

<!--
 * Copyright (c) 2015, WSO2 Inc. (http://www.wso2.org) All Rights Reserved.
 *
 * WSO2 Inc. licenses this file to you under the Apache License,
 * Version 2.0 (the "License"); you may not use this file except
 * in compliance with the License.
 * You may obtain a copy of the License at
 *
 * http://www.apache.org/licenses/LICENSE-2.0
 *
 * Unless required by applicable law or agreed to in writing,
 * software distributed under the License is distributed on an
 * "AS IS" BASIS, WITHOUT WARRANTIES OR CONDITIONS OF ANY
 * KIND, either express or implied. See the License for the
 * specific language governing permissions and limitations
 * under the License.
-->

<svg version="1.1" id="ring-message" xmlns="http://www.w3.org/2000/svg" xmlns:xlink="http://www.w3.org/1999/xlink" x="0px" y="0px"
	 viewBox="0 0 14 13.857" style="enable-background:new 0 0 14 13.857;" xml:space="preserve">
<path d="M9.63486,0.00204C7.87274-0.00062,6.11061-0.00076,4.34849,0.00211C3.49221,0.00351,3.1842,0.31605,3.18358,1.17616
	c-0.00139,1.90158-0.00043,3.94582-0.00044,5.8474c-0.00001,1.87622-0.0006,3.75243,0.00025,5.62865
	c0.0004,0.88272,0.32649,1.20404,1.22146,1.20444c1.73677,0.00076,3.47355,0.00113,5.21032-0.00018
	c0.84749-0.00064,1.18338-0.32998,1.18366-1.16565c0.0013-3.79048,0.00124-7.72362,0.00008-11.51409
	C10.79865,0.31344,10.49234,0.00334,9.63486,0.00204z M10.43254,7.02012c0.00002,1.88907,0.00114,3.77814-0.0006,5.66721
	c-0.00059,0.64337-0.16196,0.80032-0.81511,0.80069c-1.74961,0.00099-3.49922,0.00105-5.24883-0.00003
	c-0.66856-0.00042-0.81885-0.15371-0.81899-0.83671C3.54829,8.88582,3.54832,4.97769,3.549,1.21223
	c0.00013-0.71913,0.14539-0.86073,0.87459-0.86086c1.73693-0.00032,3.47386-0.00075,5.21079,0.00026
	c0.62619,0.00036,0.79659,0.16495,0.79733,0.78254C10.43397,3.0486,10.43254,5.1057,10.43254,7.02012z M7.79692,12.3109H6.18569
	c-0.19527,0-0.35416,0.15892-0.35416,0.35419s0.15889,0.35419,0.35416,0.35419h1.61123c0.19527,0,0.35419-0.15892,0.35419-0.35419
	S7.99219,12.3109,7.79692,12.3109z M7.79692,12.94317H6.18569c-0.15331,0-0.27804-0.12473-0.27804-0.27808
	s0.12473-0.27808,0.27804-0.27808h1.61123c0.15335,0,0.27808,0.12473,0.27808,0.27808S7.95027,12.94317,7.79692,12.94317z
	 M9.78888,1.28001H4.19376c-0.21441,0-0.38883,0.17442-0.38883,0.3888v10.10236c0,0.21437,0.17442,0.38876,0.38883,0.38876h5.59512
	c0.21438,0,0.38876-0.17438,0.38876-0.38876V1.66881C10.17764,1.45443,10.00325,1.28001,9.78888,1.28001z M10.02541,11.77117
	c0,0.13045-0.10607,0.23653-0.23653,0.23653H4.19376c-0.13045,0-0.2366-0.10607-0.2366-0.23653V1.66881
	c0-0.13045,0.10615-0.23656,0.2366-0.23656h5.59512c0.13045,0,0.23653,0.10611,0.23653,0.23656V11.77117z M2.4303,3.34748v0.25635
	c0,0.05266-0.03718,0.09649-0.0848,0.09902C1.27177,3.75992,0.41198,4.8955,0.41198,6.28322
	c0,1.38774,0.85979,2.52332,1.93352,2.58039c0.04762,0.00253,0.0848,0.04636,0.0848,0.09902v0.25635
	c0,0.05685-0.04311,0.10208-0.09454,0.09961C1.03933,9.2563,0,7.91861,0,6.28322c0-1.63539,1.03933-2.97307,2.33576-3.03535
	C2.38719,3.2454,2.4303,3.29063,2.4303,3.34748z M1.12971,6.28322c0,0.88978,0.55127,1.61788,1.23972,1.65447
	C2.39996,7.93932,2.4238,7.96743,2.4238,8.00119v0.16436c0,0.03645-0.02764,0.06545-0.06061,0.06387
	C1.53195,8.18948,0.86556,7.33179,0.86556,6.28322s0.66639-1.90625,1.49763-1.94618C2.39616,4.33546,2.4238,4.36446,2.4238,4.40091
	v0.16437c0,0.03376-0.02384,0.06186-0.05437,0.06348C1.68098,4.66535,1.12971,5.39346,1.12971,6.28322z M14,6.28322
	c0,1.63539-1.03933,2.97308-2.33576,3.03537c-0.05142,0.00247-0.09454-0.04276-0.09454-0.09961V8.96263
	c0-0.05266,0.03718-0.09649,0.0848-0.09902c1.07373-0.05707,1.93352-1.19266,1.93352-2.58039
	c0-1.38772-0.85979-2.5233-1.93352-2.58037c-0.04762-0.00253-0.0848-0.04637-0.0848-0.09902V3.34748
	c0-0.05685,0.04311-0.10208,0.09454-0.09961C12.96067,3.31015,14,4.64783,14,6.28322z M12.8703,6.28322
	c0-0.88976-0.55128-1.61787-1.23972-1.65446c-0.03053-0.00162-0.05437-0.02973-0.05437-0.06348V4.40091
	c0-0.03645,0.02765-0.06545,0.06062-0.06387c0.83124,0.03994,1.49762,0.89762,1.49762,1.94618s-0.66639,1.90626-1.49762,1.94619
	C11.60385,8.231,11.5762,8.202,11.5762,8.16555V8.00119c0-0.03376,0.02384-0.06187,0.05437-0.06349
	C12.31902,7.90111,12.8703,7.173,12.8703,6.28322z"/>
</svg>
