<?xml version="1.0" encoding="utf-8"?>

<!--
 * Copyright (c) 2015, WSO2 Inc. (http://www.wso2.org) All Rights Reserved.
 *
 * WSO2 Inc. licenses this file to you under the Apache License,
 * Version 2.0 (the "License"); you may not use this file except
 * in compliance with the License.
 * You may obtain a copy of the License at
 *
 * http://www.apache.org/licenses/LICENSE-2.0
 *
 * Unless required by applicable law or agreed to in writing,
 * software distributed under the License is distributed on an
 * "AS IS" BASIS, WITHOUT WARRANTIES OR CONDITIONS OF ANY
 * KIND, either express or implied. See the License for the
 * specific language governing permissions and limitations
 * under the License.
-->

<svg version="1.1" id="schema" xmlns="http://www.w3.org/2000/svg" xmlns:xlink="http://www.w3.org/1999/xlink" x="0px" y="0px"
	 viewBox="0 0 14 14" style="enable-background:new 0 0 14 14;" xml:space="preserve">
<path d="M13.63,11.14001h-1.53003c0-0.60999,0-1.75,0-2.23999c0-0.30005,0-0.30005-0.29999-0.30005c-1.5,0-3,0-4.59998,0
	c-0.10004,0-0.20001,0-0.29999,0c0-0.45135,0-0.98938,0-1.45544h2.18982c0.20996,0,0.375-0.16455,0.375-0.37451V4.02979
	c0-0.20117-0.16797-0.36475-0.375-0.36475H4.35986c-0.20654,0-0.375,0.16357-0.375,0.36475v2.74023
	c0,0.20996,0.16455,0.37451,0.375,0.37451h2.24011c0,0.46606,0,1.00409,0,1.45544c-0.69995,0-1.29999,0-1.89996,0
	c-0.90002,0-1.79999,0-2.70001,0c-0.20001,0-0.29999,0-0.29999,0.20001c0,0.48999,0,1.72003,0,2.34003H0.37
	c-0.20001,0-0.37,0.15997-0.37,0.37v2.12C0,13.83002,0.16998,14,0.37,14h3.73999c0.21002,0,0.37-0.16998,0.37-0.37v-2.12
	c0-0.21002-0.15997-0.37-0.37-0.37H2C2,10.60999,2,9.38,2,8.90002c1.5,0,3.09998,0,4.59998,0c0,0.47998,0,1.70996,0,2.23999H5.13
	c-0.20001,0-0.37,0.15997-0.37,0.37v2.12c0,0.20001,0.16998,0.37,0.37,0.37H8.87c0.21002,0,0.37-0.16998,0.37-0.37v-2.12
	c0-0.21002-0.15997-0.37-0.37-0.37H6.90002c0-0.53003,0-1.76001,0-2.23999c1.59998,0,3.29999,0,4.89996,0
	c0,0.38995,0,1.62,0,2.23999H9.89001c-0.21002,0-0.37,0.15997-0.37,0.37v2.12c0,0.20001,0.15997,0.37,0.37,0.37H13.63
	c0.20001,0,0.37-0.16998,0.37-0.37v-2.12C14,11.29999,13.83002,11.14001,13.63,11.14001z M4.23486,6.77002V4.02979
	c0-0.06348,0.05615-0.11475,0.125-0.11475h4.72998c0.06934,0,0.125,0.05127,0.125,0.11475v2.74023
	c0,0.0708-0.05371,0.12451-0.125,0.12451H4.35986C4.28857,6.89453,4.23486,6.84082,4.23486,6.77002z M4.10999,11.39001
	c0.07001,0,0.12,0.04999,0.12,0.12v2.12c0,0.06-0.04999,0.12-0.12,0.12H0.37c-0.06,0-0.12-0.06-0.12-0.12v-2.12
	c0-0.07001,0.06-0.12,0.12-0.12H4.10999z M8.87,11.39001c0.07001,0,0.12,0.04999,0.12,0.12v2.12c0,0.06-0.04999,0.12-0.12,0.12H5.13
	c-0.07001,0-0.12-0.06-0.12-0.12v-2.12c0-0.07001,0.04999-0.12,0.12-0.12H8.87z M13.75,13.63c0,0.06-0.06,0.12-0.12,0.12H9.89001
	c-0.07001,0-0.12-0.06-0.12-0.12v-2.12c0-0.07001,0.04999-0.12,0.12-0.12H13.63c0.06,0,0.12,0.04999,0.12,0.12V13.63z M10.23999,2.5
	c0.01001,0,0.02002,0,0.03003,0c0.19995,0,2.06,0,2.46997,0c0.02002,0,0.04004,0,0.06,0
	c0.41003,0.03003,0.73999,0.32001,0.83002,0.73999c0.08997,0.47003-0.27002,0.95001-0.73999,1.03003c-0.06,0-0.15002,0-0.23999,0
	c-0.77002,0-1.53003,0-2.30005,0c-0.02997,0-0.02997,0-0.06,0c0-0.03003,0-0.05005,0-0.05005
	c0.26001-0.26996,0.5-0.50995,0.74005-0.73999c0.02997-0.02997,0.06-0.06,0.06-0.12s-0.03003-0.08997-0.06-0.12
	c-0.06006-0.02997-0.12006,0-0.15002,0.03003c-0.12,0.12-0.21002,0.20996-0.33002,0.32001
	C10.32001,3.83002,10.08002,4.07001,9.81,4.29999c-0.08002,0.09003-0.08002,0.15002,0,0.23999
	c0.33002,0.33002,0.67999,0.67999,1.01001,1.01001C10.88,5.59998,10.94,5.59998,11,5.57001
	c0.06-0.02002,0.09003-0.08002,0.09003-0.14001c0-0.02997-0.03003-0.08997-0.06-0.08997
	c-0.24005-0.27002-0.48004-0.5-0.74005-0.74005l-0.02997-0.02997c0.02997,0,0.02997,0,0.06,0c0.79999,0,1.62,0,2.41998,0
	c0.62,0,1.12-0.44,1.17999-1.03003c0.06-0.59998-0.38-1.19-0.96997-1.27997c-0.17999-0.03003-0.35999-0.03003-0.53003-0.03003
	c-0.76996,0-1.38,0-2.14996,0c-0.01001,0-0.02002,0-0.03003,0.01001V0H3.09998v3.03998h7.14001V2.5z M9.98999,2.78998H3.34998V0.25
	h6.64001V2.78998z"/>
</svg>
