<?xml version="1.0" encoding="utf-8"?>

<!--
 * Copyright (c) 2015, WSO2 Inc. (http://www.wso2.org) All Rights Reserved.
 *
 * WSO2 Inc. licenses this file to you under the Apache License,
 * Version 2.0 (the "License"); you may not use this file except
 * in compliance with the License.
 * You may obtain a copy of the License at
 *
 * http://www.apache.org/licenses/LICENSE-2.0
 *
 * Unless required by applicable law or agreed to in writing,
 * software distributed under the License is distributed on an
 * "AS IS" BASIS, WITHOUT WARRANTIES OR CONDITIONS OF ANY
 * KIND, either express or implied. See the License for the
 * specific language governing permissions and limitations
 * under the License.
-->

<svg version="1.1" id="schema" xmlns="http://www.w3.org/2000/svg" xmlns:xlink="http://www.w3.org/1999/xlink" x="0px" y="0px"
	 viewBox="0 0 14 14" enable-background="new 0 0 14 14" xml:space="preserve">
<path d="M9.9,0.1c0,0.8,0,1.7,0,2.5c-2,0-3.9,0-5.9,0c0-0.8,0-1.7,0-2.5C5.9,0.1,7.9,0.1,9.9,0.1z M9.2,0.7c-1.5,0-3.1,0-4.6,0
	c0,0.4,0,0.8,0,1.2c1.5,0,3.1,0,4.6,0C9.2,1.6,9.2,1.1,9.2,0.7z M6.9,3.6c0.5,0,1,0,1.5,0c0.6,0,0.9,0.4,0.9,0.9c0,0.4,0,0.9,0,1.3
	c0,0.6-0.4,0.9-0.9,0.9c-1,0-2,0-3,0c-0.6,0-0.9-0.4-0.9-1c0-0.4,0-0.8,0-1.3c0-0.5,0.4-0.9,0.9-0.9c0.3,0,0.5,0,0.8,0
	C6.4,3.6,6.7,3.6,6.9,3.6z M6.9,4.2c-0.5,0-1,0-1.5,0c-0.2,0-0.3,0.1-0.3,0.3c0,0.4,0,0.8,0,1.2c0,0.2,0.1,0.3,0.4,0.3
	c1,0,1.9,0,2.9,0c0.3,0,0.4-0.1,0.4-0.4c0-0.4,0-0.8,0-1.1c0-0.3-0.1-0.4-0.4-0.4C7.9,4.2,7.4,4.2,6.9,4.2z M6.9,10.7
	c0.3,0,0.7,0,1,0c0.5,0,0.9,0.4,0.9,0.9c0,0.5,0,0.9,0,1.4c0,0.5-0.4,0.9-0.9,0.9c-0.7,0-1.4,0-2.1,0c-0.5,0-0.9-0.4-0.9-1
	c0-0.4,0-0.8,0-1.3c0-0.6,0.4-1,0.9-1C6.2,10.7,6.6,10.7,6.9,10.7z M6.9,13.3C6.9,13.3,6.9,13.3,6.9,13.3c0.3,0,0.7,0,1,0
	c0.2,0,0.3-0.1,0.3-0.3c0-0.4,0-0.8,0-1.2c0-0.2-0.1-0.4-0.4-0.4c-0.7,0-1.3,0-2,0c-0.2,0-0.3,0.1-0.3,0.4c0,0.4,0,0.8,0,1.2
	c0,0.3,0.1,0.4,0.4,0.4C6.3,13.3,6.6,13.3,6.9,13.3z M12,10.7c0.3,0,0.7,0,1,0c0.5,0,0.9,0.4,0.9,0.9c0,0.5,0,0.9,0,1.4
	c0,0.5-0.4,0.9-0.9,0.9c-0.7,0-1.4,0-2.1,0c-0.5,0-0.9-0.4-0.9-1c0-0.4,0-0.8,0-1.3c0-0.5,0.4-0.9,0.9-0.9
	C11.3,10.7,11.7,10.7,12,10.7z M12,11.4C12,11.4,12,11.4,12,11.4c-0.3,0-0.7,0-1,0c-0.2,0-0.3,0.1-0.3,0.3c0,0.4,0,0.8,0,1.2
	c0,0.2,0.1,0.3,0.3,0.3c0.7,0,1.3,0,2,0c0.3,0,0.4-0.1,0.4-0.4c0-0.4,0-0.8,0-1.2c0-0.3-0.1-0.4-0.4-0.4
	C12.7,11.4,12.3,11.4,12,11.4z M2,13.9c-0.3,0-0.6,0-1,0c-0.6,0-1-0.4-1-1c0-0.4,0-0.8,0-1.2c0-0.6,0.4-1,1-1c0.7,0,1.4,0,2.1,0
	c0.5,0,0.9,0.4,0.9,0.9c0,0.4,0,0.9,0,1.3c0,0.6-0.4,0.9-1,0.9C2.7,13.9,2.3,13.9,2,13.9C2,13.9,2,13.9,2,13.9z M2,11.4
	c-0.3,0-0.7,0-1,0c-0.3,0-0.4,0.1-0.4,0.3c0,0.4,0,0.8,0,1.2c0,0.3,0.1,0.4,0.3,0.4c0.7,0,1.3,0,2,0c0.2,0,0.3-0.1,0.3-0.4
	c0-0.4,0-0.8,0-1.2c0-0.3-0.1-0.4-0.4-0.4C2.6,11.4,2.3,11.4,2,11.4z M12.1,8.9c0-0.3,0-0.3-0.3-0.3c-1.5,0-3,0-4.6,0
	c-0.1,0-0.2,0-0.3,0c0-0.5,0-1.1,0-1.6c-0.1,0-0.2,0-0.3,0c0,0.5,0,1.1,0,1.6c-0.7,0-1.3,0-1.9,0c-0.9,0-1.8,0-2.7,0
	c-0.2,0-0.3,0-0.3,0.2c0,0.5,0,1,0,1.5c0.1,0,0.2,0,0.3,0c0-0.5,0-0.9,0-1.4c1.5,0,3.1,0,4.6,0c0,0.5,0,0.9,0,1.4c0.1,0,0.2,0,0.3,0
	C7,9.9,7,9.5,7,9c1.6,0,3.2,0,4.8,0c0,0.5,0,0.9,0,1.4c0.1,0,0.2,0,0.3,0C12.1,9.9,12.1,9.4,12.1,8.9z M10.4,1.8c0.7,0,1.4,0,2.2,0
	c0.5,0,0.9,0.3,0.9,0.8c0,0.5,0,0.9,0,1.4c0,0.6-0.5,1-1,1c-0.5,0-0.9,0-1.4,0c-0.1,0-0.1,0-0.2,0c0.3-0.3,0.5-0.5,0.7-0.8
	c0-0.1,0.1-0.2,0-0.3c-0.1-0.1-0.2-0.1-0.3,0c-0.3,0.3-0.6,0.6-0.9,0.9c-0.1,0.1-0.1,0.2,0,0.3c0.3,0.3,0.6,0.6,0.9,0.9
	c0.1,0.1,0.2,0.1,0.3,0c0.1-0.1,0-0.2-0.1-0.2c-0.2-0.2-0.4-0.4-0.7-0.6c0.6,0,1.1,0,1.6,0c0.8,0,1.4-0.6,1.4-1.3c0-0.4,0-0.8,0-1.2
	c0-0.8-0.5-1.3-1.3-1.3c-0.5,0-1,0-1.5,0c-0.3,0-0.6,0-0.8,0c0,0.1,0,0.2,0,0.3C10.3,1.8,10.3,1.8,10.4,1.8z"/>
</svg>
