<?xml version="1.0" encoding="utf-8"?>

<!--
 * Copyright (c) 2015, WSO2 Inc. (http://www.wso2.org) All Rights Reserved.
 *
 * WSO2 Inc. licenses this file to you under the Apache License,
 * Version 2.0 (the "License"); you may not use this file except
 * in compliance with the License.
 * You may obtain a copy of the License at
 *
 * http://www.apache.org/licenses/LICENSE-2.0
 *
 * Unless required by applicable law or agreed to in writing,
 * software distributed under the License is distributed on an
 * "AS IS" BASIS, WITHOUT WARRANTIES OR CONDITIONS OF ANY
 * KIND, either express or implied. See the License for the
 * specific language governing permissions and limitations
 * under the License.
-->

<svg version="1.1" id="security" xmlns="http://www.w3.org/2000/svg" xmlns:xlink="http://www.w3.org/1999/xlink" x="0px" y="0px"
	 viewBox="0 0 14 14" enable-background="new 0 0 14 14" xml:space="preserve">
<path d="M7.395,7.22c0,0.131-0.088,0.263-0.175,0.351v0.92H6.782v-0.92C6.694,7.483,6.607,7.352,6.607,7.22
	c0-0.219,0.175-0.394,0.394-0.394S7.395,7.001,7.395,7.22z M13.015,2.249c0,2.075-0.549,4.475-1.507,6.583
	c-0.777,1.71-2.174,3.991-4.417,5.146C7.062,13.993,7.031,14,7,14s-0.062-0.007-0.091-0.022c-2.243-1.156-3.64-3.436-4.417-5.146
	C1.534,6.724,0.985,4.325,0.985,2.249c0-0.084,0.053-0.159,0.133-0.187l5.816-2.051c0.043-0.015,0.089-0.015,0.132,0l5.816,2.051
	C12.962,2.09,13.015,2.165,13.015,2.249z M5.38,5.818h0.657V4.942c0-0.526,0.438-0.964,0.964-0.964s0.964,0.438,0.964,0.964v0.876
	h0.657v-0.92c0-0.876-0.701-1.621-1.621-1.621S5.38,4.022,5.38,4.942V5.818z M9.323,6.475c0-0.175-0.175-0.351-0.351-0.351H5.029
	c-0.219,0-0.35,0.131-0.35,0.351V9.06c0,0.175,0.131,0.351,0.35,0.351h3.943c0.219,0,0.351-0.175,0.351-0.351V6.475z"/>
</svg>
