<?xml version="1.0" encoding="utf-8"?>

<!--
 * Copyright (c) 2015, WSO2 Inc. (http://www.wso2.org) All Rights Reserved.
 *
 * WSO2 Inc. licenses this file to you under the Apache License,
 * Version 2.0 (the "License"); you may not use this file except
 * in compliance with the License.
 * You may obtain a copy of the License at
 *
 * http://www.apache.org/licenses/LICENSE-2.0
 *
 * Unless required by applicable law or agreed to in writing,
 * software distributed under the License is distributed on an
 * "AS IS" BASIS, WITHOUT WARRANTIES OR CONDITIONS OF ANY
 * KIND, either express or implied. See the License for the
 * specific language governing permissions and limitations
 * under the License.
-->

<svg version="1.1" id="send-message" xmlns="http://www.w3.org/2000/svg" xmlns:xlink="http://www.w3.org/1999/xlink" x="0px"
	 y="0px" viewBox="0 0 14 6.53943" style="enable-background:new 0 0 14 6.53943;" xml:space="preserve">
<path d="M13.99937,1.07177c-0.00004-0.07625-0.00124-0.15403-0.01546-0.22851c-0.09634-0.50462-0.5048-0.84424-1.02272-0.84455
	c-2.43108-0.00147-4.86216-0.00095-7.29324,0.00041c-0.08548,0.00005-0.17292,0.00774-0.2561,0.0266
	C4.92645,0.1358,4.61293,0.53291,4.61089,1.04367C4.60804,1.7551,4.60992,2.46655,4.60986,3.17799
	C4.6098,3.95324,4.60813,4.72849,4.61041,5.50374C4.612,6.04777,4.99593,6.48015,5.53853,6.5245
	c0.27505,0.02248,5.50356,0.01421,6.63806,0.00935c0.00806,0.00052,0.01625,0.00087,0.0247,0.00091
	c0.25841,0.00111,0.51685,0.00198,0.77524-0.00094c0.07285-0.00082,0.14708-0.00841,0.21807-0.02444
	c0.48812-0.11019,0.80418-0.51213,0.8046-1.02538C14.00039,4.01326,14.00008,2.54252,13.99937,1.07177z M13.59263,5.4904
	c-0.00017,0.3698-0.26158,0.63033-0.63333,0.63277c-0.23667,0.00155-0.47335-0.00002-0.71003,0.00059
	C11.40657,6.12292,5.8966,6.12446,5.65903,6.12326C5.27447,6.12132,5.01765,5.86361,5.01756,5.48004
	C5.01722,4.01568,5.01722,2.55132,5.01718,1.08695C5.01718,0.65598,5.26227,0.40978,5.69254,0.40967
	c1.20276-0.0003,2.40552-0.0001,3.60828-0.00007c1.21871,0.00003,2.43742-0.00069,3.65613,0.00046
	c0.37321,0.00035,0.63555,0.26104,0.63572,0.62983C13.59335,2.52339,13.59331,4.00689,13.59263,5.4904z M9.2801,3.67858
	C9.09033,3.67923,8.88121,3.61949,8.69717,3.48689C7.63947,2.72483,6.58264,1.96155,5.5261,1.19787
	C5.41569,1.11807,5.39394,0.99592,5.46681,0.89805c0.07386-0.0992,0.19176-0.10849,0.3127-0.02124
	c0.77803,0.56135,1.55561,1.12331,2.33335,1.68504c0.26097,0.18849,0.52138,0.37778,0.78317,0.56513
	C9.17097,3.32374,9.44174,3.32309,9.718,3.12385c1.01857-0.73461,2.03651-1.47011,3.05475-2.20517
	c0.03617-0.02611,0.07122-0.05451,0.10999-0.07611c0.0895-0.04988,0.19698-0.02686,0.25786,0.0516
	c0.06418,0.08272,0.05793,0.19495-0.01649,0.27011c-0.0178,0.01798-0.03893,0.0329-0.05956,0.04779
	c-1.03885,0.75007-2.07811,1.49959-3.11651,2.25027C9.75891,3.59907,9.55069,3.67508,9.2801,3.67858z M7.87587,3.49807
	c-0.01562,0.02797-0.0343,0.08848-0.07384,0.12825C7.13021,4.30217,6.45622,4.97587,5.78147,5.64879
	c-0.09162,0.09137-0.2157,0.09052-0.29813,0.00608C5.40244,5.572,5.40193,5.45306,5.49072,5.36403
	C6.16585,4.68699,6.8423,4.01126,7.5185,3.33529c0.06419-0.06417,0.13909-0.08846,0.22646-0.05295
	C7.82693,3.31564,7.86881,3.3781,7.87587,3.49807z M10.97145,3.26448c0.02956,0.01876,0.08946,0.04346,0.13191,0.0857
	c0.66875,0.66536,1.33544,1.33278,2.00208,2.00026c0.09919,0.09932,0.10551,0.21755,0.01991,0.30487
	c-0.0869,0.08864-0.20961,0.08175-0.31185-0.02032c-0.44208-0.44132-0.88354-0.88325-1.32522-1.32497
	c-0.2276-0.22762-0.45477-0.45567-0.68306-0.6826c-0.06861-0.0682-0.08866-0.14786-0.05359-0.23567
	C10.78406,3.31055,10.85103,3.27069,10.97145,3.26448z M3.98257,2.74624c-0.03082,0.00874-0.08682,0.03831-0.1429,0.03847
	C2.88673,2.78756,1.16808,2.78735,0.21513,2.78606C0.08574,2.78588-0.0014,2.69754,0.00002,2.57954
	c0.00139-0.1158,0.08514-0.20026,0.21088-0.20044c0.95613-0.00135,2.67796-0.00084,3.63409-0.00068
	c0.09076,0.00002,0.1609,0.0358,0.19757,0.12269C4.07696,2.58263,4.06242,2.65641,3.98257,2.74624z M3.98257,5.10604
	c-0.03082,0.00874-0.08682,0.03831-0.1429,0.03847c-0.95294,0.00284-1.9059,0.00264-2.85885,0.00134
	C0.85143,5.14568,0.76429,5.05734,0.76571,4.93934C0.7671,4.82354,0.85085,4.73908,0.97659,4.7389
	c0.95613-0.00135,1.91226-0.00084,2.8684-0.00068c0.09076,0.00002,0.1609,0.0358,0.19757,0.12269
	C4.07696,4.94243,4.06242,5.01621,3.98257,5.10604z M3.98257,3.92088c-0.03082,0.00874-0.08682,0.03831-0.1429,0.03847
	C2.88673,3.96219,1.55093,3.96199,0.59798,3.96069C0.46859,3.96052,0.38144,3.87218,0.38286,3.75418
	c0.00139-0.1158,0.08514-0.20026,0.21088-0.20044C1.54987,3.5524,2.88885,3.5529,3.84499,3.55307
	c0.09076,0.00002,0.1609,0.0358,0.19757,0.12269C4.07696,3.75727,4.06242,3.83105,3.98257,3.92088z"/>
</svg>
