<?xml version="1.0" encoding="utf-8"?>

<!--
 * Copyright (c) 2015, WSO2 Inc. (http://www.wso2.org) All Rights Reserved.
 *
 * WSO2 Inc. licenses this file to you under the Apache License,
 * Version 2.0 (the "License"); you may not use this file except
 * in compliance with the License.
 * You may obtain a copy of the License at
 *
 * http://www.apache.org/licenses/LICENSE-2.0
 *
 * Unless required by applicable law or agreed to in writing,
 * software distributed under the License is distributed on an
 * "AS IS" BASIS, WITHOUT WARRANTIES OR CONDITIONS OF ANY
 * KIND, either express or implied. See the License for the
 * specific language governing permissions and limitations
 * under the License.
-->

<svg version="1.1" id="settings" xmlns="http://www.w3.org/2000/svg" xmlns:xlink="http://www.w3.org/1999/xlink" x="0px" y="0px"
	 viewBox="0 0 48 48" enable-background="new 0 0 48 48" xml:space="preserve">
<path d="M24.07,14.06c-5.691-0.037-10.331,4.385-10.369,9.875c-0.037,5.488,4.548,9.969,10.232,10.002
	c5.696,0.037,10.338-4.381,10.375-9.873C34.346,18.574,29.761,14.096,24.07,14.06z M24.161,0c2.156,0.016,4.237,0.322,6.223,0.832
	l0.819,5.252c2.01,0.748,3.864,1.791,5.496,3.093l5.154-1.882c2.897,2.882,5.034,6.459,6.146,10.45l-4.315,3.32
	c0.159,0.992,0.264,2.014,0.253,3.052c-0.009,1.051-0.122,2.066-0.296,3.068l4.273,3.365c-1.17,3.975-3.352,7.523-6.286,10.373
	l-5.125-1.942c-1.65,1.276-3.521,2.289-5.536,3.02l-0.893,5.248c-1.997,0.482-4.078,0.757-6.234,0.75
	c-2.153-0.016-4.234-0.32-6.227-0.832l-0.81-5.25c-2.011-0.754-3.869-1.796-5.498-3.094L6.151,40.7
	C3.256,37.824,1.119,34.242,0,30.256l4.322-3.316c-0.163-1-0.265-2.015-0.257-3.064c0.009-1.041,0.124-2.06,0.296-3.055
	l-4.273-3.369c1.168-3.98,3.353-7.527,6.283-10.371l5.134,1.943c1.645-1.285,3.518-2.299,5.535-3.029l0.884-5.242
	C19.925,0.266,22.008-0.012,24.161,0z"/>
</svg>
