<?xml version="1.0" encoding="utf-8"?>

<!--
 * Copyright (c) 2015, WSO2 Inc. (http://www.wso2.org) All Rights Reserved.
 *
 * WSO2 Inc. licenses this file to you under the Apache License,
 * Version 2.0 (the "License"); you may not use this file except
 * in compliance with the License.
 * You may obtain a copy of the License at
 *
 * http://www.apache.org/licenses/LICENSE-2.0
 *
 * Unless required by applicable law or agreed to in writing,
 * software distributed under the License is distributed on an
 * "AS IS" BASIS, WITHOUT WARRANTIES OR CONDITIONS OF ANY
 * KIND, either express or implied. See the License for the
 * specific language governing permissions and limitations
 * under the License.
-->

<svg version="1.1" id="sign-up" xmlns="http://www.w3.org/2000/svg" xmlns:xlink="http://www.w3.org/1999/xlink" x="0px" y="0px"
	 viewBox="-2.15336 0 14 14" style="enable-background:new -2.15336 0 14 14;" xml:space="preserve">
<path d="M11.84664,7.0001c0,3.86601-3.13399,7-7,7s-7-3.13399-7-7c0-3.86622,3.13399-7.00021,7-7.00021
	c0.98045,0,1.91361,0.20156,2.76072,0.5655L6.83449,1.33827c-0.62232-0.21919-1.2915-0.33843-1.98785-0.33843
	c-3.30839,0-6.00006,2.69167-6.00006,6.00027c0,3.30839,2.69167,6.00006,6.00006,6.00006s6.00006-2.69167,6.00006-6.00006
	c0-0.69075-0.11737-1.35454-0.33304-1.97251l0.7737-0.7737C11.64736,5.09706,11.84664,6.02525,11.84664,7.0001z M10.67396,3.45303
	l0.06615-0.06636l0.06387-0.06387c0-0.00021,0-0.00042-0.00021-0.00042c0.25797-0.26108,0.51324-0.52651,0.75151-0.75089
	c0.00435-0.00415,0.0085-0.00809,0.01265-0.01182c0.04313-0.04065,0.08585-0.07984,0.12774-0.11737
	c0.19348-0.21774,0.20405-0.4473-0.00788-0.65923c-0.56488-0.49437-1.12996-1.05925-1.62433-1.62433
	C9.85173-0.05298,9.6089-0.0225,9.39697,0.18943C9.39096,0.19545,9.38515,0.20125,9.37914,0.20727
	C9.16575,0.42065,8.97497,0.61164,8.79497,0.79184L8.68507,0.90175L8.53659,1.05023L8.47085,1.11596L8.45468,1.13214
	c-0.00995,0.00995-0.01846,0.01825-0.0253,0.0253L8.40387,1.18294C9.18089,1.95976,9.89715,2.67601,10.67396,3.45303z
	 M2.78952,6.7975c0.7063,0.7063,1.48291,1.48291,2.25972,2.25972c0.71128-0.71128,1.42236-1.41095,2.13364-2.11311
	c0.83363-0.82305,1.66726-1.64922,2.5011-2.5011L9.6875,4.43949c0.12712-0.13002,0.25424-0.26046,0.38135-0.39172
	c0.09249-0.09539,0.18477-0.19099,0.27726-0.28721c-0.7063-0.7063-1.48311-1.48311-2.25992-2.25992L7.8054,1.78142
	C6.13316,3.45344,4.46134,5.12527,2.78931,6.79729L2.78952,6.7975z M1.942,9.76352c0,0-0.07071,0.14122,0.14122,0.14122
	C2.93053,9.76352,3.84877,9.6223,4.69609,9.48108C3.91928,8.70407,3.14247,7.92726,2.36566,7.15045
	C2.22444,7.99797,2.08322,8.84549,1.942,9.76352z"/>
</svg>
