<?xml version="1.0" encoding="utf-8"?>

<!--
 * Copyright (c) 2015, WSO2 Inc. (http://www.wso2.org) All Rights Reserved.
 *
 * WSO2 Inc. licenses this file to you under the Apache License,
 * Version 2.0 (the "License"); you may not use this file except
 * in compliance with the License.
 * You may obtain a copy of the License at
 *
 * http://www.apache.org/licenses/LICENSE-2.0
 *
 * Unless required by applicable law or agreed to in writing,
 * software distributed under the License is distributed on an
 * "AS IS" BASIS, WITHOUT WARRANTIES OR CONDITIONS OF ANY
 * KIND, either express or implied. See the License for the
 * specific language governing permissions and limitations
 * under the License.
-->

<svg version="1.1" id="sign-up" xmlns="http://www.w3.org/2000/svg" xmlns:xlink="http://www.w3.org/1999/xlink" x="0px" y="0px"
	 viewBox="0 0 14 14" enable-background="new 0 0 14 14" xml:space="preserve">
<path fill="#020202" d="M2.5,3.9L2.1,4.4c0,0.1-0.1,0.1-0.2,0c-0.1,0-0.1-0.1,0-0.2l0.3-0.6L1.7,3.4c-0.1,0-0.1-0.1,0-0.2
	c0-0.1,0.1-0.1,0.2,0l0.6,0.3L2.7,3c0-0.1,0.1-0.1,0.2,0C3,3,3,3,2.9,3.1L2.6,3.7L3.2,4c0.1,0,0.1,0.1,0,0.2c0,0.1-0.1,0.1-0.2,0
	L2.5,3.9z M3.5,10.2l0.4-0.6c0,0,0-0.1,0-0.1l0,0c0,0-0.1,0-0.1,0l-0.4,0.6L2.7,9.8c-0.1,0-0.1,0-0.2,0c0,0.1,0,0.1,0,0.2l0.6,0.3
	l-0.4,0.6c0,0,0,0.1,0,0.1l0,0c0,0,0.1,0,0.1,0l0.4-0.6l0.6,0.3c0.1,0,0.1,0,0.2,0c0-0.1,0-0.1,0-0.2L3.5,10.2z M8.1,2.7
	c0-0.1-0.1-0.2-0.3-0.2L4.1,3C3.9,3,3.8,3.2,3.9,3.3c0,0.1,0.1,0.2,0.3,0.2L7.9,3C8.1,3,8.1,2.9,8.1,2.7z M11.2,5.4l1.4,5.5
	c0,0.1,0,0.1,0,0.2c0,0.1-0.1,0.1-0.2,0.1L1.2,14.1l0,0c-0.1,0-0.3-0.1-0.3-0.3L0.3,1.4c0-0.1,0.1-0.3,0.2-0.3l9.1-1.1l0,0
	c0.1,0,0.2,0.1,0.3,0.2l0.5,1.9c0,0,0,0,0,0c0.7,0.6,1.4,1.3,2,1.9C12,4.5,11.6,5,11.2,5.4z M10.8,5.9c-0.9,1-1.8,2-2.7,2.9
	C7.5,8.2,6.7,7.6,6.1,7c0.1-0.1,0.2-0.2,0.3-0.4L5,6.8c-0.1,0-0.3-0.1-0.3-0.2s0.1-0.3,0.2-0.3L7,6c1-1.1,2-2.3,3-3.4L9.5,0.6
	l-8.7,1l0.6,12l10.7-2.7L10.8,5.9z M13.5,2.3c-0.5-0.4-1-0.9-1.4-1.3c-0.2-0.2-0.4-0.2-0.6,0c-0.3,0.3-0.5,0.6-0.8,0.8
	c-0.1,0-0.1,0.1-0.1,0.1c0.7,0.6,1.4,1.2,2.1,1.9c0.3-0.3,0.5-0.6,0.8-0.9C13.8,2.7,13.8,2.5,13.5,2.3z M5.8,7.3
	C5.7,8.1,5.6,8.8,5.5,9.6c0,0,0,0.1,0,0.1c0,0,0,0,0,0.1c0,0.1,0.1,0.2,0.3,0.2l3.8-0.5c0.1,0,0.2-0.1,0.2-0.3S9.7,9,9.5,9L7.8,9.2
	C7.2,8.6,6.4,7.9,5.8,7.3z"/>
</svg>
