<?xml version="1.0" encoding="utf-8"?>

<!--
 * Copyright (c) 2015, WSO2 Inc. (http://www.wso2.org) All Rights Reserved.
 *
 * WSO2 Inc. licenses this file to you under the Apache License,
 * Version 2.0 (the "License"); you may not use this file except
 * in compliance with the License.
 * You may obtain a copy of the License at
 *
 * http://www.apache.org/licenses/LICENSE-2.0
 *
 * Unless required by applicable law or agreed to in writing,
 * software distributed under the License is distributed on an
 * "AS IS" BASIS, WITHOUT WARRANTIES OR CONDITIONS OF ANY
 * KIND, either express or implied. See the License for the
 * specific language governing permissions and limitations
 * under the License.
-->

<svg version="1.1" id="sign-up" xmlns="http://www.w3.org/2000/svg" xmlns:xlink="http://www.w3.org/1999/xlink" x="0px" y="0px"
	 viewBox="0 0 14 14" enable-background="new 0 0 14 14" xml:space="preserve">
<path fill="#020202" d="M12.3,3.9c-0.7-0.7-1.5-1.5-2.2-2.2C8.4,3.5,6.7,5.2,5,7c0.7,0.7,1.5,1.5,2.2,2.2C8.9,7.4,10.6,5.8,12.3,3.9
	z M12.7,3.7c0.3-0.3,0.7-0.7,1-1c0.2-0.2,0.2-0.5,0-0.7c-0.6-0.5-1.1-1.1-1.6-1.6c-0.2-0.2-0.5-0.2-0.7-0.1C11,0.7,10.8,1,10.4,1.3
	c-0.1,0-0.1,0.1-0.1,0.1C11.2,2.1,11.9,2.9,12.7,3.7C12.7,3.6,12.8,3.6,12.7,3.7z M4.1,9.9c0,0-0.1,0.2,0.2,0.2
	C5.1,9.9,6,9.9,6.9,9.7C6.1,8.9,5.3,8.1,4.5,7.4C4.4,8.2,4.2,9,4.1,9.9z M9.6,1.6c0,0-0.1,0-0.1-0.1C8.7,1.2,7.9,1,7,1
	C3.7,1,1,3.7,1,7c0,3.3,2.7,6,6,6c3.3,0,6-2.7,6-6c0-0.9-0.2-1.7-0.5-2.5l0.7-0.8C13.7,4.7,14,5.8,14,7c0,3.9-3.1,7-7,7
	c-3.9,0-7-3.1-7-7c0-3.9,3.1-7,7-7c1.2,0,2.3,0.3,3.3,0.8L9.6,1.6z"/>
</svg>
