<?xml version="1.0" encoding="utf-8"?>

<!--
 * Copyright (c) 2015, WSO2 Inc. (http://www.wso2.org) All Rights Reserved.
 *
 * WSO2 Inc. licenses this file to you under the Apache License,
 * Version 2.0 (the "License"); you may not use this file except
 * in compliance with the License.
 * You may obtain a copy of the License at
 *
 * http://www.apache.org/licenses/LICENSE-2.0
 *
 * Unless required by applicable law or agreed to in writing,
 * software distributed under the License is distributed on an
 * "AS IS" BASIS, WITHOUT WARRANTIES OR CONDITIONS OF ANY
 * KIND, either express or implied. See the License for the
 * specific language governing permissions and limitations
 * under the License.
-->

<svg version="1.1" id="statistics" xmlns="http://www.w3.org/2000/svg" xmlns:xlink="http://www.w3.org/1999/xlink" x="0px" y="0px"
	 viewBox="0 0 14 14" enable-background="new 0 0 14 14" xml:space="preserve">
<path d="M10.8,3.7c-0.1,0-0.2,0-0.3-0.1c-0.3-0.1-0.4-0.3-0.4-0.5c0-0.3,0.2-0.5,0.5-0.5c0.6,0,1.2,0,1.7,0c0.3,0,0.5,0.2,0.5,0.6
	c0,0.5,0,1.1,0,1.6c0,0.3-0.2,0.6-0.5,0.6c-0.3,0-0.5-0.2-0.5-0.6c0-0.1,0-0.2,0-0.4c-0.1,0.1-0.2,0.2-0.3,0.2
	c-0.7,0.7-1.5,1.3-2.2,2C9,6.9,8.7,6.9,8.3,6.8c-0.7-0.3-1.5-0.7-2.2-1c-0.2-0.1-0.3-0.1-0.5,0C4.7,6.4,3.8,7,2.9,7.6
	C2.7,7.7,2.5,7.8,2.4,7.7C2.2,7.7,2,7.5,1.9,7.3C1.9,7.1,2,6.9,2.2,6.8C2.8,6.4,3.4,6,3.9,5.6C4.4,5.3,4.9,5,5.3,4.7
	c0.3-0.2,0.6-0.2,0.9-0.1c0.7,0.3,1.4,0.7,2.2,1c0.1,0,0.3,0,0.4,0c0.7-0.6,1.3-1.2,1.9-1.8C10.7,3.8,10.7,3.8,10.8,3.7z M13.5,12.2
	c-0.4,0-0.7,0-1.1,0c-0.5,0-0.5,0-0.5-0.5c0-1.5,0-3.1,0-4.6c0,0,0,0,0,0V6.7c0-0.3-0.3-0.5-0.5-0.5h0c-0.3,0-0.5,0.2-0.5,0.5v5.4
	c-0.1,0.1-0.1,0.1-0.3,0.1c-0.4,0-0.7,0-1.1,0c-0.3,0-0.4,0-0.4-0.1V8.3c0-0.3-0.2-0.5-0.5-0.5H8.5C8.2,7.8,8,8.1,8,8.3v3.8
	c-0.1,0.1-0.3,0.1-0.7,0.1c-0.2,0-0.4,0-0.5,0c-0.5,0-0.6,0-0.6-0.1V7.6c0,0,0,0,0-0.1c0-0.1,0-0.2-0.2-0.3C5.9,7.2,5.8,7.1,5.7,7.1
	H5.5C5.3,7.1,5,7.3,5,7.6v4.5c-0.1,0.1-0.1,0.1-0.3,0.1c-0.4,0-0.8,0-1.2,0c-0.2,0-0.3,0-0.3-0.2V9.2c0,0,0-0.1,0-0.1c0,0,0,0,0-0.1
	c0,0,0,0,0,0C3.2,8.8,3,8.7,2.8,8.7H2.6c-0.3,0-0.5,0.2-0.5,0.5v2.9c-0.1,0.2-0.2,0.2-0.7,0.1c-0.5,0-0.5,0-0.5-0.5c0-3,0-6,0-9
	c0-0.5,0-0.9,0-1.4C1,1,0.8,0.8,0.5,0.8C0.3,0.8,0,1,0,1.3c0,0.1,0,0.2,0,0.3c0,3.6,0,7.2,0,10.9c0,0.6,0.1,0.8,0.7,0.8
	c4.2,0,8.3,0,12.5,0c0.1,0,0.2,0,0.3,0c0.3,0,0.5-0.2,0.5-0.5C14,12.4,13.8,12.2,13.5,12.2z"/>
</svg>
