<?xml version="1.0" encoding="utf-8"?>

<!--
 * Copyright (c) 2015, WSO2 Inc. (http://www.wso2.org) All Rights Reserved.
 *
 * WSO2 Inc. licenses this file to you under the Apache License,
 * Version 2.0 (the "License"); you may not use this file except
 * in compliance with the License.
 * You may obtain a copy of the License at
 *
 * http://www.apache.org/licenses/LICENSE-2.0
 *
 * Unless required by applicable law or agreed to in writing,
 * software distributed under the License is distributed on an
 * "AS IS" BASIS, WITHOUT WARRANTIES OR CONDITIONS OF ANY
 * KIND, either express or implied. See the License for the
 * specific language governing permissions and limitations
 * under the License.
-->

<svg version="1.1" id="store" xmlns="http://www.w3.org/2000/svg" xmlns:xlink="http://www.w3.org/1999/xlink" x="0px" y="0px"
	 viewBox="0 0 12.7 14" enable-background="new 0 0 12.7 14" xml:space="preserve">
<path d="M12.1,2.2L12.7,13c0,0.6-0.3,1-0.9,1c-3.6,0-7.3,0-10.9,0C0.3,14,0,13.6,0,13c0.1-1.1,0.1-2.2,0.2-3.4
	c0.1-1.1,0.1-2.2,0.2-3.3C0.5,5,0.6,3.5,0.7,2.1l0.9-0.7L1,0h11l-0.5,1.4L12.1,2.2z M8.4,6.2C8.4,6.2,8.4,6.2,8.4,6.2
	c0,0.6,0,1.2-0.1,1.8C8.2,8.9,7.4,9.6,6.6,9.6c-0.9,0-1.8-0.8-1.8-1.8c-0.1-1,0-2.1,0-3.1c0-0.1,0.1-0.2,0.1-0.2
	c0.3-0.4,0.3-0.9,0-1.2C4.5,3,4,3,3.7,3.3C3.4,3.6,3.4,4.1,3.7,4.5c0.1,0.1,0.1,0.2,0.1,0.3c0,0.8,0,1.7,0,2.5
	c0,0.4,0.1,0.8,0.2,1.2c0.5,1.6,1.9,2.4,3.3,2c1.2-0.4,2-1.6,2.1-3c0-0.9,0-1.8,0-2.6c0-0.2,0-0.3,0.1-0.4c0.3-0.3,0.2-0.8-0.1-1.1
	C9.1,3,8.7,3,8.4,3.3C8.1,3.5,8,4,8.2,4.3c0.2,0.3,0.2,0.5,0.2,0.8C8.4,5.5,8.4,5.8,8.4,6.2z M1.7,1.9c3.2,0,6.3,0,9.5,0
	c-0.2-0.2-0.4-0.3-0.6-0.4c0.1-0.2,0.2-0.4,0.3-0.6c-2.9,0-6,0-8.9,0l0.4,0.6L1.7,1.9z"/>
</svg>
