<?xml version="1.0" encoding="utf-8"?>

<!--
 * Copyright (c) 2015, WSO2 Inc. (http://www.wso2.org) All Rights Reserved.
 *
 * WSO2 Inc. licenses this file to you under the Apache License,
 * Version 2.0 (the "License"); you may not use this file except
 * in compliance with the License.
 * You may obtain a copy of the License at
 *
 * http://www.apache.org/licenses/LICENSE-2.0
 *
 * Unless required by applicable law or agreed to in writing,
 * software distributed under the License is distributed on an
 * "AS IS" BASIS, WITHOUT WARRANTIES OR CONDITIONS OF ANY
 * KIND, either express or implied. See the License for the
 * specific language governing permissions and limitations
 * under the License.
-->

<svg version="1.1" id="subscribed-calendar" xmlns="http://www.w3.org/2000/svg" xmlns:xlink="http://www.w3.org/1999/xlink"
	 x="0px" y="0px" viewBox="0 0 14 14" enable-background="new 0 0 14 14" xml:space="preserve">
<path d="M8.2,2.9c0-0.5,0-1,0-1.5c0-0.1,0.1-0.2,0.2-0.2c0.1,0,0.2,0.1,0.2,0.2c0,0.2,0,0.5,0,0.7c0,0.2,0,0.5,0,0.7
	c0,0.1,0,0.1,0,0.2C8.5,3,8.4,3.1,8.3,3.1C8.2,3.1,8.2,3,8.2,2.9z M11.2,3.1c0.1,0,0.2-0.2,0.2-0.3c0-0.4,0-0.9,0-1.4
	c0-0.1-0.1-0.2-0.2-0.2c-0.1,0-0.2,0-0.2,0.2c0,0.2,0,0.5,0,0.7c0,0.3-0.1,0.5,0,0.8C11,3,11,3.1,11.2,3.1z M9.2,12.8
	c-0.067,0-0.133,0-0.2,0c-2.6,0-5.3,0-8,0c-0.6,0-1-0.4-1-1C0,8.9,0,6,0,3.1C0,3,0,2.8,0,2.7C0.1,2.3,0.4,2,0.7,2.1c0.5,0,1,0,1.5,0
	c0,0.3,0,0.5,0,0.8c0,0.2,0.1,0.4,0.3,0.5C2.7,3.5,3,3.6,3.2,3.5S3.6,3.3,3.6,3s0-0.5,0-0.8c0-0.1,0-0.1,0-0.2C4,2,4.5,2,5,2
	c0,0.3,0,0.5,0,0.8C5,2.9,5,3,5,3.1c0.1,0.3,0.4,0.5,0.7,0.5C6,3.5,6.3,3.3,6.3,3s0-0.5,0-0.8c0-0.1,0-0.1,0-0.2c0.5,0,1,0,1.4,0
	c0,0.1,0,0.1,0,0.2c0,0.3,0,0.5,0,0.8c0.1,0.3,0.4,0.6,0.7,0.6c0.4,0,0.7-0.3,0.7-0.6c0-0.2,0-0.5,0-0.7c0-0.1,0-0.2,0-0.3
	c0.4,0,0.9,0,1.5,0c0,0.2,0,0.4,0,0.6c0,0.1,0,0.3,0,0.4c0,0.4,0.3,0.6,0.6,0.6c0.4,0,0.7-0.3,0.7-0.6s0-0.5,0-0.8
	c0-0.1,0-0.2,0-0.2c0.4,0,0.9,0,1.4,0C13.7,2,14,2.4,14,2.8c0,0.5,0,1,0,1.5c0,1.9,0,3.7-0.1,5.5c0,0.146-0.026,0.292-0.073,0.427
	c-0.109-0.109-0.22-0.22-0.329-0.329C13.596,9.89,13.6,9.858,13.6,9.7c0-0.4,0-0.9,0-1.3H12c-0.034-0.034-0.066-0.066-0.1-0.1h1.7
	c0-0.6,0-1.3,0-1.9h-2.3v1.3c-0.067-0.067-0.133-0.133-0.2-0.2V6.4H8.5v0.1c-0.067,0-0.133,0-0.2,0V6.4H5.7v1.9h0.8
	c0,0.033,0,0.067,0,0.1H5.7v1.9c0,0,0.542,0,1.043,0c0.033,0.046,0.065,0.091,0.1,0.143C6.862,10.462,6.881,10.481,6.9,10.5H5.8v1.9
	c0.8,0,1.7,0,2.6,0V12c0.034,0.034,0.066,0.066,0.1,0.1v0.3c0.096,0,0.201,0,0.3,0C8.934,12.534,9.066,12.666,9.2,12.8z M11.3,6.3
	h2.3c0-0.5,0-1,0-1.5c0-0.2,0-0.2-0.2-0.2c-0.7,0-1.4,0-2.1,0V6.3z M8.5,6.3h2.7V4.6c-0.9,0-1.8,0-2.7,0V6.3z M5.7,6.3h2.7V4.6
	c-0.5,0-0.9,0-1.4,0c-0.4,0-0.8,0-1.3,0V6.3z M2.8,10.5H0.4c0,0.4,0,0.9,0,1.3c0,0.4,0.2,0.6,0.6,0.6c0.6,0,1.2,0,1.8,0V10.5z
	 M2.8,8.4H0.4c0,0.6,0,1.3,0,1.9h2.4V8.4z M2.8,6.4H0.4c0,0.6,0,1.3,0,1.9h2.4V6.4z M2.8,4.6c-0.7,0-1.5,0-2.2,0
	c-0.1,0-0.2,0-0.2,0.2c0,0.5,0,1,0,1.5h2.4V4.6z M5.6,10.5H3v1.9c0.2,0,0.5,0,0.7,0c0.6,0,1.3,0,1.9,0V10.5z M5.6,8.4H3v1.9h2.6V8.4
	z M5.6,6.4H3v1.9h2.6V6.4z M5.6,4.6c-0.9,0-1.8,0-2.6,0v1.7h2.6V4.6z M2.9,3.1C3,3.1,3.1,3,3.1,2.9c0-0.5,0-0.9,0-1.4
	c0-0.1-0.1-0.2-0.2-0.2c-0.1,0-0.2,0-0.2,0.2s0,0.5,0,0.7s0,0.5,0,0.7C2.7,3,2.8,3.1,2.9,3.1z M5.6,3.1c0.1,0,0.2,0,0.3-0.1
	c0-0.1,0-0.1,0-0.2c0-0.2,0-0.5,0-0.7c0-0.2,0-0.5,0-0.7c0-0.1-0.1-0.2-0.2-0.2c-0.1,0-0.2,0.1-0.2,0.2c0,0.5,0,1,0,1.5
	C5.5,3,5.5,3.1,5.6,3.1z M7,9.85C7,9,7,8.15,7,7.3C7.05,7.15,7.15,7.05,7.3,7C8.15,7,9,7,9.85,7c0,0,0,0,0.05,0
	c0.2,0.05,0.4,0.15,0.55,0.3c1.1,1.1,2.25,2.25,3.35,3.35c0.1,0.1,0.15,0.15,0.2,0.25c0,0.05,0,0.1,0,0.15
	c-0.05,0.1-0.1,0.2-0.2,0.3c-0.8,0.8-1.6,1.6-2.45,2.45c-0.1,0.1-0.15,0.15-0.3,0.2c-0.05,0-0.1,0-0.15,0
	c-0.1-0.05-0.2-0.1-0.25-0.2c-1.1-1.1-2.25-2.25-3.35-3.35C7.2,10.3,7.1,10.2,7.05,10C7.05,9.95,7,9.9,7,9.85z M8.1,8.55
	c0.25,0,0.45-0.2,0.45-0.45c0-0.25-0.2-0.45-0.45-0.45S7.65,7.85,7.65,8.1C7.65,8.35,7.85,8.55,8.1,8.55z"/>
</svg>
