<?xml version="1.0" encoding="utf-8"?>

<!--
 * Copyright (c) 2015, WSO2 Inc. (http://www.wso2.org) All Rights Reserved.
 *
 * WSO2 Inc. licenses this file to you under the Apache License,
 * Version 2.0 (the "License"); you may not use this file except
 * in compliance with the License.
 * You may obtain a copy of the License at
 *
 * http://www.apache.org/licenses/LICENSE-2.0
 *
 * Unless required by applicable law or agreed to in writing,
 * software distributed under the License is distributed on an
 * "AS IS" BASIS, WITHOUT WARRANTIES OR CONDITIONS OF ANY
 * KIND, either express or implied. See the License for the
 * specific language governing permissions and limitations
 * under the License.
-->

<svg version="1.1" id="tag" xmlns="http://www.w3.org/2000/svg" xmlns:xlink="http://www.w3.org/1999/xlink" x="0px" y="0px"
	 viewBox="0 0 14 14" enable-background="new 0 0 14 14" xml:space="preserve">
<path d="M14,7.7c0,0.1,0,0.2,0,0.3c0,0,0,0,0,0c0,0.3-0.2,0.6-0.5,0.9c-0.3,0.3-0.7,0.7-1,1c-0.7,0.7-1.4,1.4-2.1,2.1
	c-0.5,0.5-1.4,0.6-1.9,0c-1.3-1.3-2.6-2.6-3.9-3.9C4.4,8,4.2,7.7,4.1,7.5C3.8,6.7,3.5,5.8,3.2,5C3,4.6,3.1,4.2,3.3,3.8
	c0.1-0.1,0.2-0.2,0.3-0.3C3.7,3.3,3.9,3.2,4.1,3C3.9,2.9,3.7,2.8,3.6,2.8C3.3,2.9,2.9,3.1,2.7,3.4C2.4,3.8,2.4,4.2,2.4,4.7
	c0,0.5,0.1,1,0.2,1.5c0.1,0.5,0.1,0.9,0,1.4c-0.1,0.6-0.5,0.9-1.1,1C1.1,8.6,0.6,8.3,0.4,7.8C0.2,7.5,0.1,7.2,0.1,6.9
	C0.1,6.7,0,6.4,0,6.2C0,6,0,5.7,0,5.5c0-0.1,0-0.1,0-0.2c0-0.4,0.1-0.9,0.3-1.3c0.6-1.7,2.1-2.3,3.5-2c0.3,0.1,0.6,0.2,0.9,0.3
	c0.1-0.1,0.3-0.3,0.5-0.5C5.5,1.5,6,1.4,6.6,1.6C7.4,2,8.2,2.3,9,2.6c0.3,0.1,0.5,0.3,0.7,0.5C11,4.4,12.3,5.7,13.6,7
	c0.2,0.2,0.3,0.3,0.3,0.5C14,7.6,14,7.7,14,7.7z M2,3.1C1.9,3.1,1.9,3.1,2,3.1c-0.1,0-0.2,0.1-0.2,0.1C1.3,3.6,1.1,4,1,4.4
	C0.7,5.2,0.7,6,0.9,6.8c0,0.2,0.1,0.5,0.2,0.7c0.1,0.1,0.2,0.2,0.4,0.2c0.2,0,0.3-0.1,0.3-0.3c0-0.2,0.1-0.5,0.1-0.7
	c0-0.4-0.1-0.9-0.2-1.3C1.6,4.6,1.5,3.8,2,3.1z M5.3,4.3C5.1,4.6,5.3,5.1,5.6,5.3C6,5.6,6.5,5.5,6.8,5.2c0.3-0.3,0.3-0.8,0-1.2
	C6.6,3.7,6.1,3.6,5.9,3.8C5.9,3.9,6,4.1,6,4.3c0,0.2-0.1,0.4-0.3,0.4c-0.2,0-0.3-0.1-0.4-0.2C5.4,4.4,5.4,4.3,5.3,4.3z"/>
</svg>
