<?xml version="1.0" encoding="utf-8"?>

<!--
 * Copyright (c) 2015, WSO2 Inc. (http://www.wso2.org) All Rights Reserved.
 *
 * WSO2 Inc. licenses this file to you under the Apache License,
 * Version 2.0 (the "License"); you may not use this file except
 * in compliance with the License.
 * You may obtain a copy of the License at
 *
 * http://www.apache.org/licenses/LICENSE-2.0
 *
 * Unless required by applicable law or agreed to in writing,
 * software distributed under the License is distributed on an
 * "AS IS" BASIS, WITHOUT WARRANTIES OR CONDITIONS OF ANY
 * KIND, either express or implied. See the License for the
 * specific language governing permissions and limitations
 * under the License.
-->

<svg version="1.1" id="tasks" xmlns="http://www.w3.org/2000/svg" xmlns:xlink="http://www.w3.org/1999/xlink" x="0px" y="0px"
	 viewBox="0 0 14 14" enable-background="new 0 0 14 14" xml:space="preserve">
<path d="M0.1,8.2c2,0.8,4.1,1.6,6,2.4c0.1,0.4,0.1,0.7,0.2,1.1c0.2,0.6,0.5,1,1.1,1.1c0.6,0.1,1.1,0,1.5-0.5c0.3-0.3,0.5-0.7,0.7-1
	c0.5-1.2,1-2.3,1.4-3.5c0.6-1.6,1.1-3.1,1.7-4.7c0-0.1,0-0.1,0.1-0.2c-2.3-0.6-4.6-1.2-6.9-1.8C4.9,3.6,4,6,3,8.4
	C2.7,8.3,2.4,8.2,2,8.1C2,8,2.1,8,2.1,7.9C3.1,5.4,4,3,5,0.5C5.1,0.1,5.4,0,5.7,0.1c2.6,0.6,5.2,1.2,7.8,1.9
	c0.4,0.1,0.6,0.4,0.4,0.7c-1,2.8-2,5.5-3,8.3c-0.2,0.7-0.6,1.3-1,1.9c-0.8,1-2.2,1.3-3.3,0.9c-0.7-0.2-1.3-0.6-2-0.9
	c-1-0.4-2-0.9-3-1.4C0.7,11.1,0.2,10.4,0,9.4C0,9,0,8.6,0.1,8.2z M8.2,2.9c-0.1,0.2,0,0.5,0.2,0.6c0.1,0,0.2,0.1,0.2,0.1
	c0.7,0.2,1.4,0.4,2.1,0.7c0.3,0.1,0.6,0,0.7-0.3c0.1-0.3,0-0.6-0.3-0.7C10.4,3,9.6,2.8,8.9,2.5c-0.1,0-0.1,0-0.1,0
	C8.4,2.5,8.2,2.7,8.2,2.9z M7.4,4.6c0,0.2,0.1,0.5,0.3,0.6c0.8,0.3,1.6,0.5,2.4,0.7c0.4,0.1,0.7-0.2,0.6-0.6c0-0.2-0.2-0.3-0.4-0.4
	C9.6,4.7,8.8,4.4,8.1,4.2c-0.1,0-0.1,0-0.1,0C7.6,4.2,7.4,4.4,7.4,4.6z M6.9,1.9c-0.3,0-0.6,0.3-0.6,0.6C6.4,2.8,6.6,3,6.9,3
	c0.3,0,0.6-0.3,0.6-0.6C7.5,2.1,7.2,1.9,6.9,1.9z M5.5,4.1c0,0.3,0.2,0.6,0.6,0.6c0.3,0,0.6-0.2,0.6-0.5c0-0.3-0.2-0.6-0.6-0.6
	C5.8,3.6,5.6,3.8,5.5,4.1z M6.5,6.4c0,0.2,0.1,0.5,0.3,0.6c0.8,0.3,1.6,0.5,2.4,0.7c0.4,0.1,0.7-0.2,0.6-0.6c0-0.2-0.2-0.3-0.4-0.4
	C8.7,6.5,7.9,6.2,7.2,6C7.1,6,7,6,7,6C6.7,6,6.5,6.1,6.5,6.4z M4.7,5.9c0,0.3,0.2,0.6,0.6,0.6c0.3,0,0.6-0.2,0.6-0.5
	c0-0.3-0.2-0.6-0.6-0.6C4.9,5.3,4.7,5.6,4.7,5.9z M5.7,8.3c0,0.2,0.1,0.5,0.3,0.6c0.8,0.3,1.6,0.5,2.4,0.7C8.8,9.7,9.1,9.4,9,9
	c0-0.2-0.2-0.3-0.4-0.4C7.9,8.4,7.1,8.1,6.4,7.9c-0.1,0-0.1,0-0.1,0C5.9,7.9,5.7,8,5.7,8.3z M3.9,7.8c0,0.3,0.2,0.6,0.6,0.6
	C4.8,8.4,5,8.2,5,7.9c0-0.3-0.2-0.6-0.6-0.6C4.1,7.3,3.9,7.5,3.9,7.8z"/>
</svg>
