<?xml version="1.0" encoding="utf-8"?>

<!--
 * Copyright (c) 2015, WSO2 Inc. (http://www.wso2.org) All Rights Reserved.
 *
 * WSO2 Inc. licenses this file to you under the Apache License,
 * Version 2.0 (the "License"); you may not use this file except
 * in compliance with the License.
 * You may obtain a copy of the License at
 *
 * http://www.apache.org/licenses/LICENSE-2.0
 *
 * Unless required by applicable law or agreed to in writing,
 * software distributed under the License is distributed on an
 * "AS IS" BASIS, WITHOUT WARRANTIES OR CONDITIONS OF ANY
 * KIND, either express or implied. See the License for the
 * specific language governing permissions and limitations
 * under the License.
-->

<svg version="1.1" id="upload" xmlns="http://www.w3.org/2000/svg" xmlns:xlink="http://www.w3.org/1999/xlink" x="0px" y="0px"
	 viewBox="0 0 14 14" style="enable-background:new 0 0 14 14;" xml:space="preserve">
<path d="M6.99963,14c-0.44733-0.04741-0.44096-0.29728-0.44047-0.60033c0.0054-3.33126,0.00334-6.66253,0.00319-9.9938
	c0-0.04447,0-0.08893,0-0.16092C6.50962,3.2933,6.47363,3.32391,6.44032,3.35721C5.41491,4.38209,4.39105,5.40854,3.36196,6.4297
	C3.28575,6.50532,3.17815,6.56878,3.07461,6.59312c-0.18644,0.04383-0.3655-0.06234-0.45063-0.23099
	c-0.08217-0.16279-0.05573-0.3522,0.07349-0.49273c0.07069-0.07688,0.14688-0.14872,0.22078-0.22263
	C4.15549,4.4095,5.39269,3.17222,6.63005,1.93508c0.25774-0.25769,0.47968-0.25861,0.7389,0.00042
	c1.29556,1.29458,2.59073,2.58954,3.8852,3.8852c0.23726,0.23748,0.2156,0.5629-0.04392,0.71987
	c-0.1813,0.10966-0.38813,0.07934-0.55743-0.08912c-0.48-0.47764-0.95805-0.95723-1.43683-1.4361
	c-0.56233-0.56242-1.12459-1.1249-1.68702-1.68722C7.50683,3.306,7.4833,3.28528,7.44314,3.24776
	C7.43983,3.30802,7.4355,3.35005,7.4355,3.39208c-0.00016,3.32643,0.00001,6.65285,0.00016,9.97928
	c0,0.01463,0.00127,0.03864,0.0023,0.05323C7.45826,13.71344,7.40968,13.9807,6.99963,14z M2.09049,0
	C2.0554,0.01911,2.01997,0.03763,1.98528,0.05743C1.83065,0.1457,1.73932,0.31996,1.76735,0.49337
	C1.79659,0.67422,1.8984,0.80197,2.07832,0.85155c0.06843,0.01886,0.14321,0.02016,0.2151,0.02018
	C5.42162,0.87266,8.54981,0.87246,11.678,0.87267c0.31826,0.00002,0.48918-0.10537,0.54629-0.33943
	C12.2769,0.31769,12.17508,0.14629,11.90751,0C8.63517,0,5.36283,0,2.09049,0z"/>
</svg>
