<?xml version="1.0" encoding="utf-8"?>
<!-- Generator: Adobe Illustrator 19.0.0, SVG Export Plug-In . SVG Version: 6.00 Build 0)  -->
<svg version="1.1" id="vpn" xmlns="http://www.w3.org/2000/svg" xmlns:xlink="http://www.w3.org/1999/xlink" x="0px" y="0px"
	 viewBox="0 0 14 14" enable-background="new 0 0 14 14" xml:space="preserve">
<path id="XMLID_6_" d="M2.835,14L1.34,9.422h0.639l0.713,2.255c0.197,0.618,0.367,1.175,0.489,1.711h0.014
	c0.129-0.53,0.319-1.107,0.523-1.704l0.774-2.262h0.632L3.487,14H2.835z M5.614,9.476C5.9,9.429,6.273,9.389,6.748,9.389
	c0.585,0,1.012,0.136,1.284,0.38c0.251,0.217,0.4,0.55,0.4,0.957c0,0.414-0.122,0.74-0.353,0.978
	c-0.312,0.334-0.822,0.503-1.398,0.503c-0.177,0-0.34-0.007-0.476-0.041V14H5.614V9.476z M6.205,11.685
	c0.129,0.034,0.292,0.047,0.489,0.047c0.713,0,1.148-0.347,1.148-0.978c0-0.604-0.428-0.897-1.08-0.897
	c-0.258,0-0.455,0.02-0.557,0.048V11.685z M9.223,14V9.422h0.645l1.467,2.317c0.34,0.536,0.604,1.019,0.821,1.487l0.014-0.007
	c-0.054-0.61-0.069-1.168-0.069-1.881V9.422h0.557V14h-0.598l-1.453-2.323c-0.319-0.509-0.625-1.032-0.855-1.528l-0.02,0.006
	c0.034,0.578,0.047,1.128,0.047,1.888V14H9.223z M9.464,3.484H8.563V2.283c0-0.721-0.601-1.322-1.322-1.322S5.92,1.562,5.92,2.283
	v1.202H5.019V2.283C5.019,1.021,5.98,0,7.241,0s2.223,1.021,2.223,2.223V3.484z M10.425,7.93V4.386c0-0.24-0.24-0.481-0.481-0.481
	H4.538c-0.3,0-0.481,0.18-0.481,0.481V7.93c0,0.24,0.18,0.481,0.481,0.481h5.407C10.245,8.411,10.425,8.17,10.425,7.93z
	 M7.542,5.888v1.262H6.941V5.888c-0.12-0.12-0.24-0.3-0.24-0.481c0-0.3,0.24-0.541,0.541-0.541s0.541,0.24,0.541,0.541
	C7.782,5.587,7.662,5.767,7.542,5.888z"/>
<g id="XMLID_2_">
</g>
<g id="XMLID_15_">
</g>
<g id="XMLID_16_">
</g>
<g id="XMLID_17_">
</g>
<g id="XMLID_18_">
</g>
<g id="XMLID_19_">
</g>
</svg>
