<?xml version="1.0" encoding="utf-8"?>

<!--
 * Copyright (c) 2015, WSO2 Inc. (http://www.wso2.org) All Rights Reserved.
 *
 * WSO2 Inc. licenses this file to you under the Apache License,
 * Version 2.0 (the "License"); you may not use this file except
 * in compliance with the License.
 * You may obtain a copy of the License at
 *
 * http://www.apache.org/licenses/LICENSE-2.0
 *
 * Unless required by applicable law or agreed to in writing,
 * software distributed under the License is distributed on an
 * "AS IS" BASIS, WITHOUT WARRANTIES OR CONDITIONS OF ANY
 * KIND, either express or implied. See the License for the
 * specific language governing permissions and limitations
 * under the License.
-->

<svg version="1.1" id="web-app" xmlns="http://www.w3.org/2000/svg" xmlns:xlink="http://www.w3.org/1999/xlink" x="0px" y="0px"
	 viewBox="0 0 14 14" style="enable-background:new 0 0 14 14;" xml:space="preserve">
<path d="M13.685,11.57001c0,0.29999-0.13,0.51001-0.41003,0.64996l-2.54999,1.27002l-0.06,0.02002v-0.09003
	c0-0.98999,0-1.98999,0-2.97998c0-0.09003-0.01001-0.17999-0.03003-0.26001c-0.00995-0.06-0.02997-0.10999-0.06-0.15997
	c-0.07996-0.20001-0.23999-0.36005-0.46997-0.48004l-3.27002-1.63c-0.02997-0.00995-0.06-0.01996-0.08002-0.01996
	c-0.01996,0-0.03998,0-0.04999,0.01001c-0.02997,0.01996-0.04999,0.06-0.04999,0.12v3.39996
	c0,0.22003,0.04999,0.41003,0.16003,0.57001c0.09998,0.14001,0.22998,0.25,0.39996,0.34003l1.13,0.57001
	c0.70001,0.34998,1.44,0.71997,1.98999,1c0.02002,0.00995,0.04004,0.01996,0.06,0.02997h0.01001
	c0.03998,0.03003,0.09003,0.03003,0.14001,0l2.87-1.44c0.39001-0.19,0.57001-0.48999,0.57001-0.90997V7.62
	c0-0.03998-0.01001-0.09998-0.06-0.14001l-3.34003-1.64996h-0.01001c-0.19995-0.09003-0.40997-0.09003-0.62,0L6.85498,7.35999
	c-0.07001,0.04004-0.10999,0.07001-0.09003,0.12c0.01001,0.04004,0.06,0.09003,0.10004,0.11005l3.26996,1.63995
	c0.27002,0.13,0.57001,0.13,0.84003-0.01996L13.67499,7.88L13.685,11.57001z M13.495,7.62l-2.95001,1.40002
	c-0.08002,0-0.15002-0.02002-0.22003-0.05005L7.26834,7.44809l2.73661-1.30808c0.07001-0.04004,0.15002-0.06,0.23004-0.06H10.245
	c0.10999,0.01001,0.20996,0.02997,0.28998,0.07001L13.495,7.62z M10.35498,13.47998V13.56l-0.07001-0.03998
	c-0.23999-0.11005-0.56-0.28003-0.88-0.44l-0.17999-0.09003c-0.22998-0.12-0.44-0.22998-0.59003-0.29999l-0.17999-0.09003
	C8.09497,12.41998,7.745,12.23999,7.38495,12.06c-0.06995-0.03998-0.13995-0.08002-0.19-0.13
	c-0.15997-0.13-0.23999-0.31-0.22998-0.54999c0-0.08002,0-0.16003,0-0.23999c0-0.02002,0-0.04999,0-0.07001
	c0-0.21002,0-0.41998,0-0.63c0-0.40002,0-0.79999,0-1.19V8.95001V8.63V8.33002l0.62,0.31c0.13,0.06,0.25,0.12,0.38,0.19
	c0.01001,0,0.01001,0,0.02002,0.01001C8.55499,9.12,9.13495,9.40997,9.71497,9.70001h0.01001
	c0.08002,0.04999,0.16998,0.08997,0.25,0.13c0.20001,0.08997,0.32001,0.23999,0.35999,0.45001
	c0.01001,0.04999,0.02002,0.10999,0.02002,0.16998C10.35498,11.46002,10.35498,12.46997,10.35498,13.47998z M6.55499,10.89001
	c-0.11005,0.13-0.23004,0.23999-0.35004,0.34998c0-0.77002,0-1.53998,0-2.32001c0.08002-0.01996,0.21002-0.01996,0.35004-0.01001
	v-0.31c-0.12-0.01996-0.23004-0.01996-0.35004-0.01996c0-0.86005,0-1.63,0-2.41003c0.77002,0,1.54004,0,2.32001,0
	c0,0.09003,0,0.17999-0.01001,0.26001c0.15002-0.08002,0.29004-0.14996,0.44-0.21997c0-0.01001,0-0.03003,0-0.04004
	c0.03003,0,0.04999,0,0.08002,0c0.22998-0.12,0.45001-0.22998,0.67999-0.33997c-0.26001,0-0.51001,0-0.76001,0
	C8.86499,5.48999,8.86499,5.06,8.77496,4.63c-0.08002-0.42999-0.16998-0.85999-0.25-1.21002
	c0.42999-0.33997,0.94-0.59998,1.46002-0.85999c0.59998,0.52002,1.28998,2.23999,1.28998,3.27002c-0.14996,0-0.29999,0-0.45001,0
	l0.52002,0.26001c0.22998,0.12,0.47998,0.23999,0.72998,0.35999c0.17004-2.79004-1.62-5.46002-4.40997-6.21002
	c-0.42999-0.16998-0.78003-0.16998-1.21002-0.25H6.375c-0.26001,0-0.43005,0-0.69,0c-0.17004,0-0.34003,0-0.51001,0.08002
	c-1.81,0.26001-3.17999,1.20001-4.22003,2.66998C0.44495,3.51001,0.10498,4.45001,0.01501,5.40002c0,0.08997,0,0.16998,0,0.25995
	c0,0.25,0,0.43005,0,0.68005c0,0.17999,0,0.34998,0.08997,0.51996c0.25,1.54999,0.94,2.84003,2.22998,3.87
	C3.19495,11.5,4.315,11.92999,5.51495,12.02002c0.41003,0.02997,0.81,0.02997,1.20001-0.02002
	c-0.10999-0.15997-0.15997-0.35999-0.15997-0.58002C6.55499,11.25,6.55499,11.07001,6.55499,10.89001z M9.72498,2.21997
	C9.29498,2.56,8.86499,2.82001,8.435,2.98999C8.17499,2.65002,8.00494,2.21997,7.745,1.88
	c-0.25-0.34998-0.51001-0.69-0.77002-1.03003C8.00494,1.02002,8.86499,1.53003,9.72498,2.21997z M6.20496,0.76001
	C6.63495,0.92999,7.745,2.47998,8.00494,3.16998c-0.33997,0.17004-1.28998,0.34003-1.79999,0.25
	C6.20496,2.56,6.20496,1.62,6.20496,0.76001z M6.20496,3.84998c0.67999,0,1.29004-0.16998,1.89001-0.33997
	c0.25,0.77002,0.42999,1.54999,0.42999,2.32001c-0.77997,0-1.54999,0-2.32001,0C6.20496,5.14001,6.20496,4.53998,6.20496,3.84998z
	 M5.08496,0.84998C4.82495,1.19,4.565,1.53003,4.315,1.88C4.13495,2.21997,3.88495,2.65002,3.70496,2.98999
	C3.27496,2.82001,2.84497,2.56,2.42499,2.21997C3.19495,1.53003,4.05499,1.02002,5.08496,0.84998z M2.07495,2.56
	c0.26001,0.15002,0.31,0.16998,0.57001,0.31c0.22003,0.14001,0.63,0.38,0.89001,0.47003
	C3.45496,3.77002,3.36499,4.20001,3.27496,4.63C3.19495,4.96997,3.19495,5.40002,3.10498,5.83002c-0.77002,0-1.53998,0-2.32001,0
	C0.70496,4.88,1.38495,3.16998,2.07495,2.56z M0.78497,6.16998c0.78003,0,1.54999,0,2.32001,0
	C3.19495,7.12,3.36499,8.06,3.70496,8.91998c-0.51001,0.26001-0.94,0.52002-1.37,0.78003
	C1.38495,8.75,0.875,7.54999,0.78497,6.16998z M2.67499,9.95001C2.84497,9.78003,3.53497,9.44,3.88495,9.34998
	c0.34003,0.69,0.77002,1.29004,1.29004,1.81C4.22498,10.97998,3.36499,10.64001,2.67499,9.95001z M5.85498,11.23999
	c-0.67999-0.59998-1.20001-1.28998-1.63-2.06c0.52002-0.16998,1.02997-0.26001,1.63-0.26001
	C5.85498,9.70001,5.85498,10.46997,5.85498,11.23999z M5.85498,8.58002c-0.51001,0-1.10999,0.07996-1.72003,0.26001
	C3.70496,7.97998,3.53497,7.12,3.53497,6.16998c0.78003,0,1.54999,0,2.32001,0.09003C5.85498,7.03003,5.85498,7.81,5.85498,8.58002z
	 M5.85498,5.83002c-0.77002,0-1.53998,0-2.32001,0c0-0.77002,0.09003-1.54999,0.42999-2.32001
	C4.565,3.67999,5.17499,3.84998,5.85498,3.84998C5.85498,4.53998,5.85498,5.14001,5.85498,5.83002z M5.85498,3.51001
	c-0.60004,0-1.10999-0.16998-1.72003-0.34003c0.35004-0.95001,0.95001-1.71997,1.72003-2.40997
	C5.85498,1.70001,5.85498,2.56,5.85498,3.51001z"/>
</svg>
