<?xml version="1.0" encoding="utf-8"?>

<!--
 * Copyright (c) 2015, WSO2 Inc. (http://www.wso2.org) All Rights Reserved.
 *
 * WSO2 Inc. licenses this file to you under the Apache License,
 * Version 2.0 (the "License"); you may not use this file except
 * in compliance with the License.
 * You may obtain a copy of the License at
 *
 * http://www.apache.org/licenses/LICENSE-2.0
 *
 * Unless required by applicable law or agreed to in writing,
 * software distributed under the License is distributed on an
 * "AS IS" BASIS, WITHOUT WARRANTIES OR CONDITIONS OF ANY
 * KIND, either express or implied. See the License for the
 * specific language governing permissions and limitations
 * under the License.
-->

<svg version="1.1" id="jaxws" xmlns="http://www.w3.org/2000/svg" xmlns:xlink="http://www.w3.org/1999/xlink" x="0px" y="0px"
	 viewBox="0 0 14 14" enable-background="new 0 0 14 14" xml:space="preserve">
<path fill="#010101" d="M10,8.4c0.4-0.6,0.7-1.4,0.8-2.2v0.4c0.2,0,0.4,0.2,0.7,0.3c0,0.2-0.1,0.3-0.1,0.4c-0.1,0.5-0.3,1-0.6,1.4
	C10.5,8.5,10.3,8.4,10,8.4z M9.1,5.9c0.1-0.1,0.2-0.2,0.3-0.2h0.9c0.1,0,0.2,0.1,0.3,0.2C10.1,5.9,9.6,5.9,9.1,5.9z M8.7,8.9
	C8.4,8.8,8.2,8.7,7.9,8.5C8.2,8,8.4,7.4,8.4,6.8C8.6,6.7,8.8,6.7,9,6.6V6.1C9,6,9,6,9.1,5.9c0.5,0,1,0,1.5,0c0,0,0.1,0.1,0.1,0.2
	v0.2C10.6,7,10.4,7.8,10,8.4c-0.1,0-0.1,0-0.2,0C9.3,8.4,8.9,8.6,8.7,8.9z M6.6,12.5c-0.1-0.2-0.1-0.4,0-0.5L7,11.6
	c0-0.1,0-0.1-0.1-0.2c0.6-0.1,1.3-0.3,1.8-0.7c0.3,0.4,0.7,0.6,1.2,0.6c0.8,0,1.5-0.7,1.5-1.5c0-0.5-0.2-0.9-0.6-1.1
	c0.3-0.4,0.5-0.9,0.6-1.4c0-0.2,0.1-0.3,0.1-0.4h0.1L12,6.5c0.2-0.2,0.4-0.1,0.5,0l0.6,0.6c0.1,0.2,0.1,0.4,0,0.5l-0.3,0.5
	C12.9,8.5,13,8.7,13.1,9l0.6,0.1c0.2,0,0.4,0.2,0.4,0.4v0.9c0,0.2-0.2,0.3-0.4,0.3l-0.6,0.1c-0.1,0.3-0.2,0.5-0.3,0.8l0.3,0.5
	c0.2,0.2,0.1,0.4,0,0.5l-0.6,0.6c-0.2,0.1-0.4,0.1-0.5,0l-0.5-0.4c-0.2,0.1-0.5,0.2-0.7,0.3l-0.1,0.5c0,0.2-0.2,0.4-0.4,0.4H9.4
	C9.2,14,9,13.8,9,13.6v-0.5c-0.2-0.1-0.5-0.2-0.8-0.3l-0.5,0.4c-0.2,0.2-0.4,0.1-0.5,0L6.6,12.5z M6.6,10.7c0.5-0.5,0.9-1.1,1.2-1.8
	C8,9,8.3,9.1,8.5,9.2C8.4,9.4,8.3,9.6,8.3,9.9V10C7.8,10.3,7.2,10.6,6.6,10.7z M6.9,8.1L6.6,7.8c-0.1-0.2-0.1-0.4,0-0.5l0.7-0.7
	c0.2-0.1,0.4-0.1,0.5,0l0.3,0.3C8,7.4,7.8,7.9,7.6,8.4c-0.2,0-0.5-0.1-0.8-0.1C6.9,8.2,6.9,8.2,6.9,8.1z M6.8,11.4
	c-0.1-0.2-0.2-0.4-0.2-0.7H6.5l0,0c0.6-0.1,1.3-0.3,1.8-0.7c0,0.3,0.1,0.5,0.3,0.8C8.1,11.1,7.5,11.3,6.8,11.4z M6,10.6
	c0.6-0.5,1-1.2,1.4-1.8C7.3,8.7,7,8.6,6.7,8.6c0-0.1,0.1-0.2,0.1-0.3c0.3,0,0.5,0.1,0.8,0.2C7.8,7.9,8,7.4,8.1,6.8l0.1,0.1
	c0.1,0,0.2-0.1,0.3-0.1C8.4,7.4,8.2,8,7.9,8.5c0.2,0.1,0.5,0.3,0.7,0.4c0,0.1-0.1,0.2-0.1,0.3C8.3,9.1,8,9,7.8,8.9
	c-0.3,0.7-0.7,1.3-1.2,1.8l0,0L6,10.6C6.1,10.6,6,10.6,6,10.6z M5.9,10.6c0-0.5,0-1,0-1.5C5.9,9.1,6,9,6.1,9h0.5
	c0.1-0.1,0.1-0.3,0.2-0.4c0.2,0,0.5,0.1,0.7,0.2C7.1,9.5,6.6,10.1,5.9,10.6L5.9,10.6z M5.7,9.4c0-0.1,0.1-0.3,0.2-0.3
	c0,0.5,0,1,0,1.5c-0.1-0.1-0.2-0.2-0.2-0.3V9.4z M8.4,4.4c0.1,0.4,0.1,0.8,0.2,1.2c0.7,0,1.5,0,2.2,0c0-1-0.6-2.6-1.2-3.1
	C9,2.7,8.5,3,8.1,3.3C8.2,3.6,8.3,4,8.4,4.4z M6.6,0.8c0.3,0.3,0.5,0.7,0.7,1C7.6,2.1,7.8,2.5,8,2.9c0.4-0.2,0.8-0.4,1.2-0.7
	C8.4,1.5,7.6,1,6.6,0.8z M7.6,3C7.4,2.4,6.3,0.9,5.9,0.7c0,0.8,0,1.7,0,2.5C6.4,3.4,7.3,3.2,7.6,3z M7.7,3.4
	C7.1,3.5,6.6,3.7,5.9,3.7c0,0.7,0,1.2,0,1.9c0.7,0,1.5,0,2.2,0C8.1,4.8,7.9,4.1,7.7,3.4z M5.6,0.7C4.8,1.4,4.3,2.1,3.9,3
	C4.5,3.2,5,3.4,5.6,3.4C5.6,2.5,5.6,1.6,5.6,0.7z M4,8.8c0.4,0.7,0.9,1.4,1.6,2c0-0.7,0-1.5,0-2.2C5,8.5,4.5,8.6,4,8.8z M3.4,5.9
	c0,0.9,0.2,1.7,0.6,2.5c0.6-0.2,1.1-0.3,1.6-0.3c0-0.7,0-1.5,0-2.2C4.8,5.9,4.1,5.9,3.4,5.9z M5.6,3.7c-0.7,0-1.2-0.2-1.8-0.3
	C3.4,4.1,3.4,4.8,3.4,5.6c0.7,0,1.5,0,2.2,0C5.6,4.9,5.6,4.3,5.6,3.7z M2.2,9.3C2.6,9,3,8.8,3.5,8.5C3.2,7.7,3,6.8,3,5.9
	c-0.7,0-1.5,0-2.2,0C0.8,7.2,1.3,8.4,2.2,9.3z M2.3,2.1c0.4,0.3,0.8,0.6,1.2,0.7c0.2-0.3,0.4-0.7,0.6-1.1c0.3-0.3,0.5-0.6,0.7-1
	C3.8,1,3,1.5,2.3,2.1z M3.7,8.9C3.4,9,2.7,9.4,2.5,9.5c0.7,0.7,1.5,1,2.4,1.1C4.4,10.2,4,9.6,3.7,8.9z M0.7,5.6c0.7,0,1.5,0,2.2,0
	C3,5.2,3,4.8,3.1,4.4C3.2,4,3.3,3.6,3.4,3.2C3.1,3.1,2.9,3,2.7,2.9C2.5,2.7,2.2,2.5,2,2.5C1.3,3,0.7,4.7,0.7,5.6z M0,5.4
	c0-0.1,0-0.2,0-0.2c0.1-0.9,0.4-1.8,0.9-2.6c1-1.4,2.3-2.3,4-2.5C5.1,0,5.3,0,5.4,0c0.3,0,0.4,0,0.7,0h0.1c0.4,0.1,0.7,0.1,1.2,0.3
	C10.2,1,12,4,11.4,6.9c-0.2-0.1-0.5-0.2-0.7-0.3V6.2c0-0.1,0-0.2,0-0.3c-0.1,0-0.1,0-0.1,0c-0.1-0.1-0.2-0.2-0.3-0.2H9.4
	c-0.1,0-0.3,0.1-0.3,0.2c-0.2,0-0.4,0-0.6,0c0,0.3,0,0.6-0.1,0.9c-0.1,0-0.2,0.1-0.3,0.1l0-0.1c0-0.3,0.1-0.6,0.1-0.9
	c-0.7,0-1.5,0-2.2,0c0,0.7,0,1.5,0,2.3c0.3,0,0.6,0,0.9,0.1c0,0.1-0.1,0.2-0.1,0.3C6.5,8.5,6.2,8.5,6,8.6C6,8.8,6,9,6,9.2
	C5.8,9.1,5.7,9.3,5.7,9.4v0.9c0,0.1,0.1,0.2,0.2,0.3c0,0.1,0,0.1,0,0.2L6,10.7l0,0l0.5,0.1h0.1c0,0.3,0.1,0.5,0.2,0.7
	c-0.5,0.1-1.1,0.1-1.6,0.1c-1.2-0.1-2.2-0.5-3-1.2C1,9.3,0.3,8,0.1,6.6C0,6.4,0,6.2,0,6.1C0,5.8,0,5.7,0,5.4z"/>
</svg>
