<?xml version="1.0" encoding="utf-8"?>

<!--
 * Copyright (c) 2015, WSO2 Inc. (http://www.wso2.org) All Rights Reserved.
 *
 * WSO2 Inc. licenses this file to you under the Apache License,
 * Version 2.0 (the "License"); you may not use this file except
 * in compliance with the License.
 * You may obtain a copy of the License at
 *
 * http://www.apache.org/licenses/LICENSE-2.0
 *
 * Unless required by applicable law or agreed to in writing,
 * software distributed under the License is distributed on an
 * "AS IS" BASIS, WITHOUT WARRANTIES OR CONDITIONS OF ANY
 * KIND, either express or implied. See the License for the
 * specific language governing permissions and limitations
 * under the License.
-->

<svg version="1.1" id="web-service" xmlns="http://www.w3.org/2000/svg" xmlns:xlink="http://www.w3.org/1999/xlink" x="0px"
	 y="0px" viewBox="0 0 14 14" style="enable-background:new 0 0 14 14;" xml:space="preserve">
<path d="M13.7,9.5l-0.6-0.1l0-0.1c0-0.2-0.1-0.4-0.2-0.6c0-0.1-0.1-0.1-0.1-0.2l0,0l0.4-0.5c0.1-0.1,0.1-0.3,0-0.4L13,7.5L12.6,7
	c-0.1-0.1-0.2-0.1-0.4,0c0,0,0,0,0,0l-0.4,0.4l-0.1,0c-0.2-0.1-0.5-0.2-0.7-0.3l-0.1,0l0-0.4l0-0.2c0-0.1-0.1-0.2-0.1-0.2
	c-0.1-0.1-0.1-0.1-0.2-0.1H9.7h0c-0.1,0-0.3,0.1-0.3,0.3L9.4,7.1l-0.1,0c0,0-0.1,0-0.1,0C9,7.2,8.9,7.3,8.7,7.3
	c-0.1,0-0.1,0.1-0.2,0.1l0,0L8.1,7C8,7,7.9,7,7.7,7.1L7.1,7.7C7,7.8,7,8,7.1,8.1l0.3,0.4l0,0C7.3,8.8,7.2,9,7.1,9.3l0,0h0l0,0
	L6.6,9.4c-0.2,0-0.3,0.1-0.3,0.3v0v0.8c0,0.1,0,0.1,0.1,0.2c0,0.1,0.1,0.1,0.2,0.1l0.2,0l0.4,0l0,0.1c0,0.3,0.1,0.5,0.2,0.7v0
	c0,0,0,0.1,0.1,0.1l0,0l-0.4,0.4c-0.1,0.1-0.1,0.3,0,0.4L7.5,13l0.2,0.2c0.1,0.1,0.1,0.1,0.2,0.1s0.1,0,0.2-0.1l0.5-0.4l0,0
	c0.2,0.1,0.5,0.2,0.7,0.3l0.1,0l0.1,0.6c0,0.1,0.1,0.3,0.3,0.3h0.8c0.1,0,0.3-0.1,0.3-0.3l0.1-0.6l0.1,0c0.2-0.1,0.4-0.2,0.7-0.3
	l0,0l0,0l0.5,0.3c0.1,0.1,0.3,0.1,0.4,0l0.6-0.6c0.1-0.1,0.1-0.3,0-0.4l-0.4-0.5l0,0c0.1-0.2,0.2-0.4,0.3-0.7l0-0.1l0.6-0.1
	c0.1,0,0.3-0.1,0.3-0.3V9.7C14,9.6,13.9,9.5,13.7,9.5z M9.4,8.9c0.2-0.1,0.5-0.2,0.7-0.2c0.6,0,1.1,0.3,1.3,0.8
	c0.1,0.2,0.2,0.4,0.2,0.7c0,0.4-0.2,0.8-0.4,1s-0.6,0.4-1,0.4c-0.2,0-0.5-0.1-0.7-0.2c-0.4-0.2-0.7-0.5-0.8-0.9
	c0-0.1-0.1-0.2-0.1-0.3C8.6,9.6,8.9,9.1,9.4,8.9z M6.9,12.1l0.3-0.4c0,0,0,0,0,0c-0.2,0.2-0.3,0.3-0.5,0.5c0-0.4,0-0.8,0-1.3l-0.2,0
	c-0.1,0-0.2,0-0.2-0.1c0,0.4,0,0.9,0,1.3C5.6,11.6,5,10.8,4.6,10c0.5-0.2,1-0.3,1.6-0.3v0c0-0.1,0.1-0.3,0.2-0.3
	c-0.6,0-1.2,0.1-1.9,0.3C4,8.7,3.8,7.8,3.8,6.7c0.8,0,1.7,0,2.5,0.1c0,0.8,0,1.7,0,2.5c0.1,0,0.1-0.1,0.2-0.1l0.2,0
	c0-0.9,0-1.7,0-2.5c0.8,0,1.7,0,2.5,0c0,0.1,0,0.2,0,0.3c0,0,0,0,0,0l0.1-0.5c0-0.3,0.2-0.4,0.4-0.4C9.6,5.8,9.6,5.4,9.5,5
	C9.4,4.6,9.3,4.1,9.2,3.7c0.5-0.4,1-0.7,1.6-0.9c0.6,0.6,1.4,2.4,1.4,3.6c-0.4,0-0.9,0-1.3,0c0,0.1,0,0.1,0.1,0.2l0,0.2
	c0.4,0,0.8,0,1.2,0c0,0,0,0.1,0,0.1c0.2-0.1,0.3,0,0.5,0.1l0.4,0.4c0.4-3.1-1.6-6.2-4.8-7C7.8,0.1,7.5,0.1,7,0H6.9
	C6.6,0,6.4,0,6.2,0C6,0,5.8,0,5.6,0.1C3.6,0.4,2.1,1.4,1,3C0.5,3.8,0.1,4.9,0,5.9C0,6,0,6.1,0,6.2c0,0.3,0,0.5,0,0.7
	c0,0.2,0,0.4,0.1,0.6c0.3,1.7,1,3.1,2.4,4.2C3.4,12.5,4.7,13,6,13.1c0.4,0,0.9,0,1.3,0l-0.3-0.3C6.8,12.5,6.8,12.3,6.9,12.1z
	 M10.5,2.4c-0.5,0.4-0.9,0.7-1.4,0.8C8.9,2.9,8.7,2.4,8.4,2.1C8.1,1.7,7.8,1.3,7.6,0.9C8.7,1.1,9.6,1.7,10.5,2.4z M6.7,0.8
	c0.5,0.2,1.7,1.9,2,2.6c-0.4,0.2-1.4,0.4-2,0.3C6.7,2.8,6.7,1.8,6.7,0.8z M6.7,4.2c0.7,0,1.4-0.2,2-0.4C9,4.7,9.2,5.5,9.2,6.4
	c-0.8,0-1.7,0-2.5,0C6.7,5.6,6.7,5,6.7,4.2z M6.3,6.4c-0.8,0-1.7,0-2.5,0c0-0.8,0.1-1.7,0.5-2.5C4.9,4,5.6,4.2,6.3,4.2
	C6.3,5,6.3,5.6,6.3,6.4z M6.3,0.8c0,1,0,2,0,3c-0.7,0-1.2-0.2-1.9-0.4C4.9,2.4,5.5,1.6,6.3,0.8z M5.5,0.9C5.2,1.3,4.9,1.7,4.7,2.1
	C4.5,2.4,4.2,2.9,4,3.3C3.5,3.1,3.1,2.8,2.6,2.4C3.4,1.7,4.4,1.1,5.5,0.9z M2.2,2.8c0.3,0.1,0.6,0.3,0.8,0.5
	c0.2,0.2,0.5,0.3,0.7,0.4C3.7,4.1,3.6,4.6,3.5,5C3.4,5.4,3.4,5.9,3.4,6.4c-0.8,0-1.7,0-2.5,0C0.7,5.3,1.5,3.5,2.2,2.8z M0.8,6.7
	c0.8,0,1.7,0,2.5,0c0.1,1,0.3,2,0.7,3c-0.6,0.3-1,0.6-1.5,0.8C1.5,9.5,0.9,8.2,0.8,6.7z M2.9,10.8c0.2-0.2,0.9-0.6,1.3-0.7
	c0.4,0.7,0.8,1.4,1.4,2C4.6,12,3.6,11.6,2.9,10.8z"/>
</svg>
