<?xml version="1.0" encoding="utf-8"?>

<!--
 * Copyright (c) 2015, WSO2 Inc. (http://www.wso2.org) All Rights Reserved.
 *
 * WSO2 Inc. licenses this file to you under the Apache License,
 * Version 2.0 (the "License"); you may not use this file except
 * in compliance with the License.
 * You may obtain a copy of the License at
 *
 * http://www.apache.org/licenses/LICENSE-2.0
 *
 * Unless required by applicable law or agreed to in writing,
 * software distributed under the License is distributed on an
 * "AS IS" BASIS, WITHOUT WARRANTIES OR CONDITIONS OF ANY
 * KIND, either express or implied. See the License for the
 * specific language governing permissions and limitations
 * under the License.
-->

<svg version="1.1" id="wifi" xmlns="http://www.w3.org/2000/svg" xmlns:xlink="http://www.w3.org/1999/xlink" x="0px" y="0px"
	 viewBox="2 0 18.1 14" style="enable-background:new 2 0 18.1 14;" xml:space="preserve">
<path d="M13.5,10.5c-1.4-1.3-3.3-1.5-4.9,0c-0.1,0.1-0.1,0.1,0,0.3l2.4,2.4l2.4-2.3C13.7,10.6,13.6,10.5,13.5,10.5z M17,7.5
	c-3.3-3.3-8.7-3.3-12,0C5,7.7,5,7.8,5,7.9l1.7,1.7C6.8,9.7,7,9.7,7,9.6c2.2-2.2,5.8-2.2,8,0c0.1,0.1,0.2,0.1,0.3,0l1.7-1.7l0,0
	C17.2,7.8,17.2,7.6,17,7.5L17,7.5z M20.1,4.6L20.1,4.6c-5-5-13.1-4.9-18,0C2,4.7,2,4.8,2.1,4.9l1.8,1.8c0.1,0.1,0.2,0.1,0.3,0
	c3.8-3.8,10.1-3.8,13.9,0c0.1,0.1,0.2,0.1,0.3,0l1.8-1.8l0,0C20.1,4.8,20.1,4.7,20.1,4.6z"/>
</svg>
