<?xml version="1.0" encoding="utf-8"?>

<!--
 * Copyright (c) 2015, WSO2 Inc. (http://www.wso2.org) All Rights Reserved.
 *
 * WSO2 Inc. licenses this file to you under the Apache License,
 * Version 2.0 (the "License"); you may not use this file except
 * in compliance with the License.
 * You may obtain a copy of the License at
 *
 * http://www.apache.org/licenses/LICENSE-2.0
 *
 * Unless required by applicable law or agreed to in writing,
 * software distributed under the License is distributed on an
 * "AS IS" BASIS, WITHOUT WARRANTIES OR CONDITIONS OF ANY
 * KIND, either express or implied. See the License for the
 * specific language governing permissions and limitations
 * under the License.
-->

<svg version="1.1" id="zoom-out" xmlns="http://www.w3.org/2000/svg" xmlns:xlink="http://www.w3.org/1999/xlink" x="0px" y="0px"
	 viewBox="0 0 14 14" enable-background="new 0 0 14 14" xml:space="preserve">
<path id="XMLID_1_" fill="#010101" d="M10.8,9.2c0.9,0.9,1.8,1.8,2.7,2.7c0.4,0.4,0.5,0.8,0.3,1.3c-0.3,0.8-1.3,1-1.9,0.3
	c-0.7-0.7-1.4-1.4-2.1-2.1c-0.2-0.2-0.4-0.6-0.7-0.6c-0.2,0-0.5,0.2-0.8,0.3C4.6,13,0.2,10.3,0,6.2C-0.1,2.8,2.5,0,5.8,0
	C8.1,0,9.9,1,11,3c1.1,1.9,1,3.9,0,5.9C11,9,10.9,9,10.8,9.2C10.9,9.1,10.9,9.2,10.8,9.2z M6,10.4c2.5-0.1,4.5-2.1,4.5-4.6
	c-0.1-2.5-2.1-4.5-4.6-4.4C3.3,1.5,1.3,3.5,1.4,6S3.5,10.5,6,10.4z M9.2,6.4H2.7c-0.2,0-0.5-0.3-0.5-0.5s0.2-0.5,0.5-0.5h6.6
	c0.2,0,0.5,0.3,0.5,0.5S9.5,6.4,9.2,6.4z"/>
</svg>
