<?xml version="1.0" encoding="utf-8"?>

<!--
 ~   Copyright 2017, WSO2 Inc. (http://www.wso2.com)
 ~
 ~   Licensed under the Apache License, Version 2.0 (the "License");
 ~   you may not use this file except in compliance with the License.
 ~   You may obtain a copy of the License at
 ~
 ~        http://www.apache.org/licenses/LICENSE-2.0
 ~
 ~   Unless required by applicable law or agreed to in writing, software
 ~   distributed under the License is distributed on an "AS IS" BASIS,
 ~   WITHOUT WARRANTIES OR CONDITIONS OF ANY KIND, either express or implied.
 ~   See the License for the specific language governing permissions and
 ~   limitations under the License.
-->

<svg version="1.1" id="aggregate" xmlns="http://www.w3.org/2000/svg" xmlns:xlink="http://www.w3.org/1999/xlink" x="0px" y="0px"
	 viewBox="0 0 14 14" style="enable-background:new 0 0 14 14;" xml:space="preserve">
<path d="M8.7,7.2c0,0.9-0.8,1.7-1.7,1.7S5.3,8.1,5.3,7.2c0-0.9,0.8-1.7,1.7-1.7S8.7,6.3,8.7,7.2z M2.4,4c0-0.4-0.4-0.8-0.8-0.8
	S0.8,3.6,0.8,4s0.4,0.8,0.8,0.8S2.4,4.4,2.4,4z M7,1.6c0.4,0,0.8-0.4,0.8-0.8S7.4,0,7,0S6.2,0.4,6.2,0.8S6.6,1.6,7,1.6z M12.8,4.5
	c0.4-0.2,0.5-0.7,0.3-1.1C12.9,3,12.4,2.9,12,3.1c-0.4,0.2-0.5,0.7-0.3,1.1C11.9,4.6,12.4,4.7,12.8,4.5z M12.4,9.7
	c-0.4,0-0.8,0.4-0.8,0.8s0.4,0.8,0.8,0.8s0.8-0.4,0.8-0.8S12.8,9.7,12.4,9.7z M7,12.4c-0.4,0-0.8,0.4-0.8,0.8S6.6,14,7,14
	s0.8-0.4,0.8-0.8S7.4,12.4,7,12.4z M1.9,9.7c-0.4,0-0.8,0.4-0.8,0.8s0.4,0.8,0.8,0.8s0.8-0.4,0.8-0.8S2.3,9.7,1.9,9.7z M6.9,12.3
	h0.3V12H6.9V12.3z M6.9,11.7h0.3v-0.3H6.9V11.7z M6.9,11.1h0.3v-0.3H6.9V11.1z M6.9,10.4h0.3v-0.3H6.9V10.4z M7.2,9.5H6.9v0.3h0.3
	V9.5z M6.9,9.2h0.3V8.9H7H6.9V9.2z M6.9,5h0.3V4.7H6.9V5z M7.2,4.1H6.9v0.3h0.3V4.1z M7.2,3.5H6.9v0.3h0.3V3.5z M7.2,2.9H6.9v0.3
	h0.3V2.9z M7.2,2.3H6.9v0.3h0.3V2.3z M7.2,1.7H6.9V2h0.3V1.7z M5.5,6.1L5.2,5.9L5.1,6.2l0.2,0.1L5.5,6.1z M5,5.8L4.7,5.6L4.6,5.9
	L4.8,6L5,5.8z M4.4,5.8l0.1-0.3L4.3,5.4L4.1,5.6L4.4,5.8z M4.1,5.3L3.8,5.1L3.7,5.4l0.2,0.1L4.1,5.3z M3.5,5.3L3.6,5L3.4,4.9
	L3.2,5.1L3.5,5.3z M3.2,4.7L2.9,4.6L2.8,4.8L3,5L3.2,4.7z M2.6,4.7l0.1-0.2L2.5,4.3L2.3,4.6L2.6,4.7z M11.8,9.8l-0.3-0.2l-0.1,0.3
	l0.2,0.1L11.8,9.8z M10.9,9.6l0.3,0.2l0.1-0.3l-0.2-0.2L10.9,9.6z M10.6,9.1l-0.1,0.2l0.2,0.2l0.2-0.3L10.6,9.1z M10,9.1l0.3,0.1
	L10.4,9l-0.2-0.2L10,9.1z M9.7,8.6L9.6,8.8L9.8,9L10,8.7L9.7,8.6z M9.1,8.6l0.3,0.1l0.1-0.3L9.3,8.3L9.1,8.6z M8.8,8L8.6,8.3
	l0.3,0.1l0.2-0.2L8.8,8z M11.7,4.4l-0.2-0.3l-0.2,0.2l0.2,0.3L11.7,4.4z M10.9,4.6L11,4.8l0.3-0.1l-0.2-0.3L10.9,4.6z M10.8,5
	l-0.1-0.3l-0.3,0.2l0.2,0.2L10.8,5z M10,5.2l0.1,0.2l0.3-0.2L10.2,5L10,5.2z M9.9,5.5L9.8,5.3L9.5,5.4l0.2,0.3L9.9,5.5z M9.1,5.7
	L9.3,6l0.2-0.2L9.3,5.6L9.1,5.7z M9.1,6.1L8.9,5.8L8.7,6l0.1,0.3L9.1,6.1z M5.2,8.2l0.2,0.3l0.2-0.2L5.5,8.1L5.2,8.2z M4.8,8.5
	l0.1,0.3l0.3-0.2L5,8.4L4.8,8.5z M4.3,8.8l0.2,0.3l0.2-0.2L4.6,8.6L4.3,8.8z M3.9,9.1l0.2,0.2l0.2-0.1L4.1,8.9L3.9,9.1z M3.5,9.4
	l0.1,0.2l0.3-0.1L3.7,9.2L3.5,9.4z M3,9.6l0.2,0.3l0.2-0.2L3.3,9.5L3,9.6z M2.6,9.9l0.1,0.3L3,10L2.8,9.8L2.6,9.9z"/>
</svg>
