<?xml version="1.0" encoding="utf-8"?>

<!--
 ~   Copyright (c) WSO2 Inc. (http://wso2.com) All Rights Reserved.
 ~
 ~   Licensed under the Apache License, Version 2.0 (the "License");
 ~   you may not use this file except in compliance with the License.
 ~   You may obtain a copy of the License at
 ~
 ~        http://www.apache.org/licenses/LICENSE-2.0
 ~
 ~   Unless required by applicable law or agreed to in writing, software
 ~   distributed under the License is distributed on an "AS IS" BASIS,
 ~   WITHOUT WARRANTIES OR CONDITIONS OF ANY KIND, either express or implied.
 ~   See the License for the specific language governing permissions and
 ~   limitations under the License.
-->


<svg version="1.1" id="android-logcat" xmlns="http://www.w3.org/2000/svg" xmlns:xlink="http://www.w3.org/1999/xlink" x="0px"
	 y="0px" viewBox="0 0 14 14" style="enable-background:new 0 0 14 14;" xml:space="preserve">
<path d="M12.5,9.5c0.4,0,0.9,0,1.3-0.1c0.1,0,0.2-0.1,0.2-0.2c0-0.2,0-0.5,0-0.7c0-0.2-0.1-0.3-0.2-0.2c-0.4,0-0.7,0-1.1,0
	c-0.1,0-0.2,0-0.2-0.2c0-0.6-0.2-1.2-0.5-1.7c-0.1-0.1-0.1-0.2-0.1-0.3c0-0.5,0.1-1,0.1-1.5C12,3.8,12,3,11.8,2.2
	c-0.1-0.5-0.4-0.7-0.8-0.4c-0.3,0.1-0.5,0.3-0.7,0.5C9.7,2.8,9.2,3.4,8.6,4C8.5,4.1,8.3,4.2,8.1,4.2c-0.7,0-1.4,0-2.1,0
	c-0.3,0-0.4,0-0.6-0.2C4.8,3.2,4.2,2.5,3.5,2C3.3,1.9,3.2,1.8,3,1.7c-0.4-0.2-0.7,0-0.7,0.4C2.2,2.6,2.2,3,2.1,3.5
	C2.1,4.4,2.2,5.2,2.3,6.1c0,0.2,0,0.3-0.1,0.4C1.9,7,1.8,7.5,1.8,8c0,0.2-0.1,0.3-0.3,0.3c-0.4,0-0.8,0-1.2-0.1C0.1,8.2,0,8.3,0,8.5
	c0,0.2,0,0.4,0,0.7c0,0.3,0,0.3,0.3,0.3c0.5,0,1,0,1.6,0.1C1.9,9.5,2,9.6,2,9.6C2,9.7,1.9,9.7,1.9,9.8c-0.4,0.2-0.8,0.3-1.2,0.5
	c-0.2,0.1-0.3,0.1-0.5,0.2c0,0.1,0,0.1,0,0.2c0.1,0.3,0.2,0.6,0.3,0.9c0.1,0,0.2-0.1,0.3-0.1c0.6-0.2,1.2-0.4,1.8-0.7
	c0.2-0.1,0.3,0,0.5,0.1c0.4,0.4,0.9,0.7,1.4,1c1.1,0.5,2.2,0.6,3.3,0.5c1.3-0.1,2.4-0.5,3.4-1.4c0.2-0.1,0.3-0.2,0.5-0.1
	c0.5,0.2,1.1,0.4,1.6,0.6c0.1,0,0.2,0.1,0.3,0.1c0.1-0.4,0.2-0.8,0.3-1.1c-0.1-0.1-0.2-0.1-0.3-0.1c-0.4-0.2-0.9-0.3-1.3-0.5
	c-0.1,0-0.1-0.1-0.1-0.1c0.1-0.1,0.1-0.1,0.2-0.2C12.3,9.5,12.4,9.5,12.5,9.5z M7.1,11.7c-2.6,0-4.6-1.5-4.6-3.5s2.1-3.5,4.6-3.5
	s4.6,1.5,4.6,3.5S9.7,11.7,7.1,11.7z M4.1,6.6h1.2v0.8H4.1V6.6z M6,6.6h4.2v0.8H6V6.6z M4.1,8h1.2v0.8H4.1V8z M6,8h4.2v0.8H6V8z
	 M4.1,9.6h1.2v0.8H4.1V9.6z M6,9.6h4.2v0.8H6V9.6z"/>
</svg>
