<?xml version="1.0" encoding="utf-8"?>
<!-- Generator: Adobe Illustrator 19.1.0, SVG Export Plug-In . SVG Version: 6.00 Build 0)  -->
<svg version="1.1" id="android" xmlns="http://www.w3.org/2000/svg" xmlns:xlink="http://www.w3.org/1999/xlink" x="0px" y="0px"
	 viewBox="0 0 14 14" style="enable-background:new 0 0 14 14;" xml:space="preserve">
<path d="M12,4.1000061c0.3999939,0,0.8000031,0.3999939,0.8000031,0.7999878V8.5
	c0,0.3999939-0.4000092,0.8000031-0.8000031,0.8000031c-0.4000092,0-0.8000031-0.4000092-0.8000031-0.8000031V4.8999939
	C11.1999969,4.3999939,11.5999908,4.1000061,12,4.1000061z M10.8999939,7.5V4.8000031v-0.5h-0.5H3.6999969h-0.5v3.0999908v3.3000031
	c0,0.3000031,0.1999969,0.5,0.5,0.5h1v2.0000153C4.6999969,13.6000061,5.0999908,14,5.5,14
	c0.3999939,0,0.8000031-0.3999939,0.8000031-0.7999878v-2.0000153h1.5v2.0000153C7.8000031,13.6000061,8.1999969,14,8.5999908,14
	C9,14,9.3999939,13.6000061,9.3999939,13.2999878v-1.9999847h1c0.3000031,0,0.5-0.1999969,0.5-0.5V7.5z M5.4400024,2.7700043
	c-0.3000031,0-0.5400085-0.25-0.5400085-0.5400085c0-0.019989,0-0.0299988,0.0100098-0.0500031c0-0.0099945,0-0.019989,0-0.0299988
	c0-0.0099945,0-0.019989,0.0099945-0.0299988c0-0.019989,0-0.0399933,0.0099945-0.0599976V2.0500031
	C5,1.8399963,5.1999969,1.6900024,5.4400024,1.6900024c0.2999878,0,0.5399933,0.2399902,0.5399933,0.5399933
	C5.9799957,2.5200043,5.7399902,2.7700043,5.4400024,2.7700043z M8.1600037,2.2299957
	c0-0.3000031,0.2399902-0.5399933,0.5399933-0.5399933s0.5399933,0.2399902,0.5399933,0.5399933
	c0,0.2900085-0.2399902,0.5400085-0.5399933,0.5400085S8.1600037,2.5200043,8.1600037,2.2299957z M9.5099945,0.1499939L9.3199921,0
	L8.6100006,0.8699951C8.1399994,0.6900024,7.6600037,0.6000061,7,0.6000061c-0.6999969,0-1.1900024,0.0999908-1.6900024,0.2999878
	L4.5999908,0L4.4199982,0.1499939l0.6199951,0.7900085C3.3000031,1.8500061,3.1999969,3.8000031,3.1999969,3.8000031h7.5
	c0,0,0-1.9900055-1.8899994-2.8000031L9.5099945,0.1499939z M2,4.1000061c-0.5,0-0.8000031,0.2999878-0.8000031,0.7999878V8.5
	c0,0.3999939,0.3999939,0.8000031,0.8000031,0.8000031c0.3999939,0,0.8000031-0.4000092,0.8000031-0.8000031V4.8999939
	C2.8000031,4.5,2.3999939,4.1000061,2,4.1000061z"/>
</svg>
