<?xml version="1.0" encoding="utf-8"?>

<!--
 * Copyright (c) 2015, WSO2 Inc. (http://www.wso2.org) All Rights Reserved.
 *
 * WSO2 Inc. licenses this file to you under the Apache License,
 * Version 2.0 (the "License"); you may not use this file except
 * in compliance with the License.
 * You may obtain a copy of the License at
 *
 * http://www.apache.org/licenses/LICENSE-2.0
 *
 * Unless required by applicable law or agreed to in writing,
 * software distributed under the License is distributed on an
 * "AS IS" BASIS, WITHOUT WARRANTIES OR CONDITIONS OF ANY
 * KIND, either express or implied. See the License for the
 * specific language governing permissions and limitations
 * under the License.
-->

<svg version="1.1" id="android" xmlns="http://www.w3.org/2000/svg" xmlns:xlink="http://www.w3.org/1999/xlink" x="0px" y="0px"
	 viewBox="1.2 0 11.6 14" enable-background="new 1.2 0 11.6 14" xml:space="preserve">
<path id="path1" d="M3.2,4.3h0.5h6.7h0.5v0.5v2.7v3.3c0,0.3-0.2,0.5-0.5,0.5h-1v2C9.4,13.6,9,14,8.6,14s-0.8-0.4-0.8-0.8v-2H6.3v2
	c0,0.4-0.4,0.8-0.8,0.8c-0.4,0-0.8-0.4-0.8-0.8v-2h-1c-0.3,0-0.5-0.2-0.5-0.5V7.4h0V4.3z M12,4.1c0.4,0,0.8,0.4,0.8,0.8v3.6
	c0,0.4-0.4,0.8-0.8,0.8c-0.4,0-0.8-0.4-0.8-0.8V4.9C11.2,4.4,11.6,4.1,12,4.1z M2,4.1c0.4,0,0.8,0.4,0.8,0.8v3.6
	c0,0.4-0.4,0.8-0.8,0.8S1.2,8.9,1.2,8.5V4.9C1.2,4.4,1.5,4.1,2,4.1z M8.7,1.8C8.4,1.8,8.2,2,8.2,2.2s0.2,0.5,0.5,0.5
	s0.5-0.2,0.5-0.5S8.9,1.8,8.7,1.8z M5.3,1.8C5.1,1.8,4.9,2,4.9,2.2s0.2,0.5,0.5,0.5c0.3,0,0.5-0.2,0.5-0.5S5.6,1.8,5.3,1.8z M4.6,0
	C4.6,0,4.6,0,4.6,0l0.7,0.9c0.5-0.2,1-0.3,1.7-0.3c0.7,0,1.2,0.1,1.7,0.3L9.3,0c0,0,0.1,0,0.1,0c0,0,0.1,0.1,0,0.1L8.8,1
	c1.9,0.8,1.9,2.8,1.9,2.8H3.2c0,0,0.1-2,1.9-2.9L4.5,0.1C4.5,0.1,4.5,0.1,4.6,0C4.6,0,4.6,0,4.6,0z"/>
</svg>
