<?xml version="1.0" encoding="utf-8"?>

<!--
 ~   Copyright (c) WSO2 Inc. (http://wso2.com) All Rights Reserved.
 ~
 ~   Licensed under the Apache License, Version 2.0 (the "License");
 ~   you may not use this file except in compliance with the License.
 ~   You may obtain a copy of the License at
 ~
 ~        http://www.apache.org/licenses/LICENSE-2.0
 ~
 ~   Unless required by applicable law or agreed to in writing, software
 ~   distributed under the License is distributed on an "AS IS" BASIS,
 ~   WITHOUT WARRANTIES OR CONDITIONS OF ANY KIND, either express or implied.
 ~   See the License for the specific language governing permissions and
 ~   limitations under the License.
-->

<svg version="1.1" id="annotation" xmlns="http://www.w3.org/2000/svg" xmlns:xlink="http://www.w3.org/1999/xlink" x="0px" y="0px"
	 viewBox="0 0 14 14" style="enable-background:new 0 0 14 14;" xml:space="preserve">
<g>
	<path d="M11.3409796,0.8110794c0.2849665-0.4094793,0.5365591-0.4736611,0.7573442-0.1886942
		c0.4723778,0.5673663,0.7239695,1.9228842-0.0308075,3.4991872c-0.693162,1.4184155-2.2720327,3.7828703-3.0268097,5.4541616
		c-0.7881508,1.7662811-0.8215256,3.1217985,0.2515926,3.0589008c1.2913361-0.0628977,3.0268097-2.2078514,4.1307354-4.3823271
		c0.1566029-0.2836838,0.377388-0.3157744,0.5031843-0.0320911c0.1257963,0.2836828,0.1257963,1.0718346-0.2823992,1.9549751
		c-0.8215265,1.73419-2.8060246,3.46838-4.5414982,3.3733912c-1.7020993-0.0949898-2.5852399-1.1039257-2.5852399-2.5852404
		c-1.0089364,1.2926197-2.4273524,2.459444-3.940757,2.459444c-2.9318209,0-3.5312781-4.0049391-0.9139477-7.8199005
		c2.5531487-3.7199721,5.044683-5.1383882,6.6209855-5.1383882c1.3555183,0,1.9870663,1.0397438,1.9228849,2.2694654
		C10.6170101,1.977903,10.9943981,1.3155477,11.3409796,0.8110794z M8.8199215,2.1036992
		C7.8109851,2.0087101,5.5081453,4.0586743,3.775239,6.8646989c-1.6712918,2.7110353-2.0820546,5.4862533-0.8523331,5.5170598
		c1.2926197,0.0320911,2.9318209-1.9857817,4.5414982-4.7609992C9.4489031,4.1523795,9.7338696,2.198688,8.8199215,2.1036992z"/>
</g>
</svg>
