<?xml version="1.0" encoding="utf-8"?>
<!-- Generator: Adobe Illustrator 19.2.0, SVG Export Plug-In . SVG Version: 6.00 Build 0)  -->
<svg version="1.1" id="api" xmlns="http://www.w3.org/2000/svg" xmlns:xlink="http://www.w3.org/1999/xlink" x="0px" y="0px"
	 viewBox="0 0 14 14" style="enable-background:new 0 0 14 14;" xml:space="preserve">
<path d="M14.0004883,6.2089844c0.000061-0.0203247-0.0088501-0.0380249-0.0106201-0.0579224l-0.0024414-0.5195312
	l-1.4437256-0.1658936c-0.121521-0.461792-0.303833-0.9026489-0.5353394-1.3167114l0.9111328-1.1466675l-1.8659668-1.8752441
	l-0.444458,0.3475952c-0.0067749,0.0049438-0.0149536,0.0061646-0.0215454,0.0114136l-0.4942627,0.3920288L9.9140015,2.0181885
	C9.4787598,1.7628784,9.0137329,1.5683594,8.5258789,1.4364624L8.3621826,0.0065918L7.8154907,0.005249
	C7.8057251,0.0048218,7.7973022,0,7.7874756,0H6.2744751C6.2719116,0,6.2696533,0.0012817,6.2670898,0.0013428L5.7167969,0
	L5.6538696,0.5145874C5.6500244,0.5328369,5.6397705,0.5481567,5.6375122,0.5670166L5.536499,1.4359741
	c-0.5003662,0.133606-0.9765625,0.3369141-1.4223633,0.600708l-0.2575076-0.197937L3.4124753,1.4869995
	C3.3991697,1.4764404,3.3830564,1.4733887,3.3692014,1.4640503L2.9331052,1.1288452l-1.276245,1.3114624L1.4924926,2.6049805
	C1.4882201,2.6092529,1.4866942,2.6149902,1.4825438,2.6193848L1.0881346,3.0247192l0.6611938,0.8178711L2.026489,4.1929932
	C1.7955321,4.6104126,1.6203612,5.0545044,1.5032958,5.5172729l-1.5032959,0.1790161l0.0011597,0.5667114
	c-0.000061,0.0031128-0.0016479,0.0057983-0.0016479,0.0089722v1.5130005c0,0.0091553,0.0045166,0.0169678,0.0048828,0.026062
	L0.005493,8.3417358l0.4921875,0.0578613c0.0237426,0.0056152,0.0441284,0.0184937,0.0688476,0.0214233L1.550476,8.5349731
	c0.1240234,0.4260254,0.2960205,0.8359985,0.5150145,1.2210083L1.4434813,10.539978
	c-0.0045776,0.0057983-0.0055542,0.0129395-0.0098877,0.0188599L1.0863036,11l1.8744506,1.8666382l0.449707-0.3550415
	c0.0009155-0.0007324,0.0021362-0.0008545,0.0030518-0.0015869l0.7780154-0.6149902
	c0.3984375,0.2290649,0.8228149,0.4083252,1.2639771,0.5352173L5.6424561,14l0.5646973-0.0011597
	C6.2093506,13.9988403,6.2112427,14,6.213501,14h1.5130005c0.0083008,0,0.0153809-0.0041504,0.0236206-0.0044556
	l0.5377197-0.0010986l0.0610962-0.5192871c0.0029297-0.0155029,0.0117188-0.0283203,0.0135498-0.0441895l0.1119995-0.9659424
	c0.4766235-0.1239014,0.9313354-0.3078613,1.3599854-0.5495605l0.133606,0.1046143l0.6204224,0.4919434
	c0.0073853,0.0058594,0.0166016,0.0072021,0.0241699,0.0126953l0.4395752,0.3441162l1.8616943-1.8794556l-0.6767578-0.852478
	l-0.265686-0.3369141c0.242981-0.4209595,0.4329834-0.8690186,0.559021-1.3389893l0.9019775-0.1040039
	c0.0211182-0.0024414,0.038269-0.0136719,0.0585938-0.0180664L14,8.2769165l-0.0025635-0.5394897
	c0.0001831-0.0057373,0.0030518-0.0106812,0.0030518-0.0164185V6.2089844z M7,11.092041
	c-2.2599487,0-4.092041-1.8320923-4.092041-4.092041S4.7400513,2.907959,7,2.907959S11.092041,4.7400513,11.092041,7
	S9.2599487,11.092041,7,11.092041z M4.7145157,5.5281372L3.5677264,8.4718628h0.6309812l0.2427368-0.668457h1.1762695
	l0.257019,0.668457h0.6470337L5.3428116,5.5281372H4.7145157z M4.6243668,7.307251l0.3971558-1.0924072L5.4275894,7.307251
	H4.6243668z M8.4976578,5.5722656C8.3878555,5.5428467,8.1522598,5.5281372,7.7908096,5.5281372H6.8367691v2.9437256h0.5944214
	V7.3616943h0.3881836c0.2686157,0,0.473877-0.0142822,0.6157837-0.0428467
	c0.1044312-0.0223389,0.2070923-0.0687256,0.3088379-0.1392212c0.1008301-0.0704956,0.1838379-0.1669312,0.2498779-0.2900391
	c0.0651245-0.1231689,0.0981445-0.2749023,0.0981445-0.4560547c0-0.2338257-0.0571289-0.425293-0.1704712-0.572998
	C8.8073502,5.7124023,8.6662979,5.6164551,8.4976578,5.5722656z M8.4119644,6.6708984
	C8.3673477,6.736084,8.3057632,6.7842407,8.2263565,6.8154907C8.1478043,6.8458252,7.9907608,6.8618774,7.7569351,6.8618774
	H7.4311905V6.026123H7.718544c0.2141724,0,0.3569946,0.0066528,0.4274902,0.0200806
	C8.2424088,6.0635986,8.3218155,6.1072998,8.38517,6.1765137c0.0625,0.0695801,0.0946045,0.1588135,0.0946045,0.2650146
	C8.4797745,6.5289917,8.4574966,6.6048584,8.4119644,6.6708984z M10.1567154,5.5281372v2.9437256H9.562355V5.5281372H10.1567154z"/>
</svg>
