<?xml version="1.0" encoding="utf-8"?>
<!-- Generator: Adobe Illustrator 19.1.0, SVG Export Plug-In . SVG Version: 6.00 Build 0)  -->
<svg version="1.1" id="api" xmlns="http://www.w3.org/2000/svg" xmlns:xlink="http://www.w3.org/1999/xlink" x="0px" y="0px"
	 viewBox="0 0 14 14" style="enable-background:new 0 0 14 14;" xml:space="preserve">
<path d="M0.0346799,7c0,0.39398,0.3184199,0.7129803,0.70948,0.7129803h1.14627V6.2869902h-1.14627
	C0.3531001,6.2869902,0.0346799,6.6059904,0.0346799,7z M0.0346799,4.6819801c0,0.3940096,0.3184199,0.7130098,0.70948,0.7130098
	h1.14627v-1.427h-1.14627C0.3531001,3.9679899,0.0346799,4.2879896,0.0346799,4.6819801z M13.9653196,4.6799898
	c0-0.3940096-0.3184204-0.7120099-0.7094803-0.7120099h-1.1462698v1.4249902h1.1462698
	C13.6469002,5.39398,13.9653196,5.0739698,13.9653196,4.6799898z M3.9830101,13.2869892
	C3.9830101,13.6809998,4.3014297,14,4.6924901,14c0.3920598,0,0.7094798-0.3200092,0.7094798-0.7130108v-1.15201H3.9830101
	V13.2869892z M0.0346799,9.3179903c0,0.39398,0.3184199,0.7129803,0.70948,0.7129803h1.14627V8.6059809h-1.14627
	C0.3531001,8.6069899,0.0346799,8.9249897,0.0346799,9.3179903z M6.2905197,13.2869892C6.2905197,13.6799908,6.6079397,14,7,14
	s0.7094798-0.3200092,0.7094798-0.7130108v-1.15201H6.2905197V13.2869892z M10.0169907,0.7129798
	C10.0169907,0.3199801,9.6985703,0,9.30651,0C8.9144802,0,8.5990295,0.3199801,8.5990295,0.7129798v1.15201h1.4179611V0.7129798z
	 M7.7094798,0.7129798C7.7094798,0.3199801,7.3920598,0,7,0S6.2905197,0.3199801,6.2905197,0.7129798v1.15201h1.4199305
	C7.7094798,1.8649902,7.7094798,0.7129798,7.7094798,0.7129798z M5.4019699,0.7129798C5.4019699,0.3199801,5.08355,0,4.6914902,0
	C4.2994599,0,3.9830101,0.3199801,3.9830101,0.7129798v1.15201H5.40097v-1.15201H5.4019699z M13.2558403,8.6069899h-1.1462708
	v1.4249897h1.1462698c0.3920603,0,0.7094803-0.3200102,0.7094803-0.7129803
	C13.9653196,8.9249897,13.6469002,8.6069899,13.2558403,8.6069899z M10.6886301,2.5499902H3.3123701
	c-0.4079702,0-0.7393301,0.3330102-0.7393301,0.74301v7.4129896c0,0.4099998,0.3313601,0.74298,0.7393301,0.74298h7.3762693
	c0.4079704,0,0.7393303-0.3329802,0.7393303-0.74298V3.2939801C11.4279604,2.8829999,11.0966101,2.5499902,10.6886301,2.5499902z
	 M5.6805801,8.4019804L5.4457302,7.6189899H4.5720901L4.3601303,8.4019794H3.64868l0.9273899-3.0509901H5.4726l0.94631,3.0509901
	C6.41891,8.4019794,5.6805801,8.4019794,5.6805801,8.4019804z M8.7304001,7.0029898
	c-0.2348499,0.21698-0.5860996,0.32199-0.9910698,0.32199c-0.0905499,0-0.1711402-0.0050001-0.2348499-0.0180101v1.0950003
	H6.8248806V5.3920002c0.2119193-0.0360098,0.5084496-0.0630198,0.9273896-0.0630198
	c0.4238801,0,0.7303405,0.0809898,0.9323401,0.2489901c0.1940403,0.1490202,0.3204298,0.40201,0.3204298,0.7010202
	C9.0050297,6.5819702,8.9095001,6.8360004,8.7304001,7.0029898z M10.1314106,8.4019804H9.4468002V5.3509798h0.6846104V8.4019804z
	 M13.2558403,6.2869902h-1.1462708v1.427h1.1462698C13.6469002,7.7129803,13.9653196,7.39398,13.9653196,7
	C13.9653196,6.6059904,13.6469002,6.2869902,13.2558403,6.2869902z M7.7880702,5.8529997
	c-0.1392899,0-0.23382,0.0089998-0.2835898,0.0229797v0.901C7.5632105,6.789979,7.6348405,6.7949896,7.7343502,6.7949896
	c0.3651905,0,0.5900497-0.1859999,0.5900497-0.4930096C8.3243999,6.0209999,8.1353397,5.8529997,7.7880702,5.8529997z
	 M8.6000299,13.2869892H8.5990295C8.5990295,13.6809998,8.9164505,14,9.3085098,14
	c0.3920298,0,0.7094498-0.3200092,0.7094498-0.7130108v-1.15201H8.6000299V13.2869892L8.6000299,13.2869892z M5.00493,5.8669701
	H4.9909902C4.9502101,6.0479698,4.9004698,6.2789898,4.85568,6.4549799L4.6715999,7.1029997h0.67064L5.1532097,6.4559994
	C5.1034403,6.2739897,5.0497198,6.0439796,5.00493,5.8669701z"/>
</svg>
