<?xml version="1.0" encoding="utf-8"?>
<!-- Generator: Adobe Illustrator 19.2.0, SVG Export Plug-In . SVG Version: 6.00 Build 0)  -->
<svg version="1.1" id="api" xmlns="http://www.w3.org/2000/svg" xmlns:xlink="http://www.w3.org/1999/xlink" x="0px" y="0px"
	 viewBox="0 0 14 14" style="enable-background:new 0 0 14 14;" xml:space="preserve">
<path d="M14,5.6l-1.4-0.2C12.4,5,12.2,4.6,12,4.1L12.9,3l-1.9-1.9L9.9,2C9.5,1.8,9,1.6,8.5,1.4L8.4,0L5.7,0L5.5,1.4
	C5,1.6,4.6,1.8,4.1,2L2.9,1.1L1.1,3L2,4.2C1.8,4.6,1.6,5.1,1.5,5.5L0,5.7l0,2.6l1.5,0.2C1.7,9,1.8,9.4,2.1,9.8l-1,1.2L3,12.9l1.2-1
	c0.4,0.2,0.8,0.4,1.3,0.5L5.6,14l2.6,0l0.2-1.5c0.5-0.1,0.9-0.3,1.4-0.5l1.2,1l1.9-1.9L12,9.8c0.2-0.4,0.4-0.9,0.6-1.3L14,8.3
	L14,5.6z M7,11.1c-2.3,0-4.1-1.8-4.1-4.1S4.7,2.9,7,2.9s4.1,1.8,4.1,4.1S9.3,11.1,7,11.1z M4.7,5.5L3.6,8.5h0.6l0.2-0.7h1.2l0.3,0.7
	h0.6L5.3,5.5H4.7z M4.6,7.3L5,6.2l0.4,1.1H4.6z M8.5,5.6c-0.1,0-0.3,0-0.7,0h-1v2.9h0.6V7.4h0.4c0.3,0,0.5,0,0.6,0
	c0.1,0,0.2-0.1,0.3-0.1C8.8,7.1,8.9,7,9,6.9c0.1-0.1,0.1-0.3,0.1-0.5C9.1,6.2,9,6,8.9,5.9C8.8,5.7,8.7,5.6,8.5,5.6z M8.4,6.7
	c0,0.1-0.1,0.1-0.2,0.1c-0.1,0-0.2,0-0.5,0H7.4V6h0.3c0.2,0,0.4,0,0.4,0c0.1,0,0.2,0.1,0.2,0.1c0.1,0.1,0.1,0.2,0.1,0.3
	C8.5,6.5,8.5,6.6,8.4,6.7z M10.2,5.5v2.9H9.6V5.5H10.2z"/>
</svg>
