<?xml version="1.0" encoding="utf-8"?>
<!-- Generator: Adobe Illustrator 19.1.0, SVG Export Plug-In . SVG Version: 6.00 Build 0)  -->
<svg version="1.1" id="apn" xmlns="http://www.w3.org/2000/svg" xmlns:xlink="http://www.w3.org/1999/xlink" x="0px" y="0px"
	 viewBox="0 0 14 14" style="enable-background:new 0 0 14 14;" xml:space="preserve">
<path d="M5.8119802,3.7625098C5.8635001,3.7066398,5.91853,3.6516099,5.9744,3.5974798l1.1473699-1.1464701l2.2126198-2.2126503
	C9.4946003,0.0777202,9.6539698,0,9.8216,0c0.0004301,0,0.0004301,0,0.0008698,0
	c0.1676607,0,0.3274403,0.0777202,0.4885502,0.2383599l3.4739304,3.47436C13.9412498,3.86902,14.01723,4.0707302,13.9936399,4.26719
	c-0.02139,0.1798897-0.1274996,0.3396702-0.2903204,0.4383297c-0.2527905,0.1519299-0.5479202,0.1091604-0.77145-0.1117601
	l-2.4959793-2.4955096l-0.0016899,9.6337204c-0.0013304,0.2490301,0.0104895,0.4221897-0.1410303,0.5924606
	c-0.1052198,0.1183109-0.2606201,0.1833706-0.4618902,0.1925201l-0.0170403,0.0008698l-0.0170097-0.0017395
	c-0.6066303,0-0.5942001-0.4920292-0.59377-0.7487297c0.0040598-2.38552,0.0051899-5.5036402,0.0047197-8.1393003V2.0982499
	l-0.2562599,0.2567C8.2114697,3.0953999,7.4710302,3.83672,6.7270699,4.5745602c-0.1004,0.0995302-0.23312,0.17377-0.36236,0.20432
	C6.1062403,4.8382702,5.8381801,4.7073002,5.71071,4.4549398C5.5945702,4.22791,5.6338601,3.9554901,5.8119802,3.7625098z
	 M8.3935099,9.4890404C8.26441,9.23351,7.99297,9.1008806,7.7312799,9.1610308
	C7.60042,9.1919603,7.4660296,9.2671309,7.3643398,9.3679209c-0.7532797,0.7471199-1.5030699,1.4977598-2.25283,2.24751
	l-0.25949,0.2599401v-1.5490503c-0.0004401-2.6688004,0.0007-5.8261299,0.0048099-8.2416496
	C4.8572698,1.8247409,4.8698597,1.3265209,4.2556,1.3265209L4.2383399,1.32476l-0.01722,0.0008802
	C4.0173202,1.3349104,3.85993,1.4007802,3.7533901,1.5205803C3.5999899,1.6929903,3.6119599,1.8683305,3.61062,2.1204901
	l-0.00173,9.7548704L1.0815501,9.3484602C0.8552101,9.1247606,0.5563703,9.0814505,0.3004003,9.2352905
	c-0.1649001,0.0999098-0.27232,0.2616901-0.2939701,0.4438496c-0.02388,0.1989298,0.05305,0.4031801,0.2113199,0.56145
	l3.5176101,3.5180502C3.8984499,13.9213104,4.0602698,14,4.23001,14c0.0004401,0,0.0004401,0,0.0008802,0
	c0.1697698,0,0.3311195-0.0786896,0.4933701-0.2413597l2.2404394-2.2404699l1.1617708-1.1608896
	c0.0565996-0.0548096,0.1122894-0.1105299,0.1644592-0.1671C8.4712906,9.9947596,8.5110798,9.7189302,8.3935099,9.4890404z"/>
</svg>
