<?xml version="1.0" encoding="utf-8"?>
<!-- Generator: Adobe Illustrator 19.1.0, SVG Export Plug-In . SVG Version: 6.00 Build 0)  -->
<svg version="1.1" id="applications" xmlns="http://www.w3.org/2000/svg" xmlns:xlink="http://www.w3.org/1999/xlink" x="0px"
	 y="0px" viewBox="0 0 14 14" style="enable-background:new 0 0 14 14;" xml:space="preserve">
<path d="M6.6190948,7.7767115L3.4813995,6.4947748C3.4226685,6.4704676,3.3519135,6.4707117,3.2960663,6.4945307
	l-2.984848,1.1676178c-0.0960388,0.0397186-0.1593475,0.1374359-0.1574249,0.243103
	c0.0019379,0.1066284,0.0657196,0.1995392,0.1639252,0.2373199l3.2594757,1.1825409
	c0.0541534,0.0175629,0.1126556,0.0163574,0.1646423-0.0043335l2.4454498-0.936554v3.2929535l-2.5999756,1.1119995
	L3.5870667,9.5571375c0-0.1078339-0.0661926-0.204834-0.1653595-0.2416534L0.3362427,8.2171869
	C0.2597046,8.1887903,0.1716156,8.2010584,0.1068573,8.2482386C0.0401917,8.2956476,0.0002441,8.3743677,0.0002441,8.4586115
	L0,11.9154596c0,0.1030121,0.0594482,0.1959229,0.152359,0.2368469l3.0857086,1.3035889
	c0.0300751,0.0134888,0.0644989,0.0207214,0.0991516,0.0207214c0.0322571,0,0.0647583-0.0062866,0.0938721-0.0187988
	l3.191864-1.324295c0.0938568-0.0409088,0.1545258-0.1343079,0.1545258-0.237793V8.0157251
	C6.7774811,7.9110193,6.7139282,7.8149805,6.6190948,7.7767115z M5.6476593,8.0058527L3.6520538,8.7602015l-2.4071808-0.8694
	l2.0976562-0.8342438L5.6476593,8.0058527z M2.9968872,12.7256403l-2.4064636-1.0272827L0.5906677,8.920495l2.4059753,0.9098358
	L2.9968872,12.7256403z M13.8416138,7.7767115l-3.1376953-1.2819366c-0.0587158-0.0243073-0.1294861-0.0240631-0.1853333-0.0002441
	l-2.984848,1.1676178c-0.0960388,0.0397186-0.1593475,0.1374359-0.1574249,0.243103
	c0.0019379,0.1066284,0.0657196,0.1995392,0.1639252,0.2373199l3.2594757,1.1825409
	c0.0541687,0.0175629,0.1126556,0.0163574,0.1646423-0.0043335l2.4454651-0.936554v3.2929535l-2.5999908,1.1119995
	l-0.0002289-3.2320404c0-0.1078339-0.0661926-0.204834-0.1653748-0.2416534L7.5587769,8.2171869
	C7.4822388,8.1887903,7.3941345,8.2010584,7.3293762,8.2482386C7.2627258,8.2956476,7.2227631,8.3743677,7.2227631,8.4586115
	l-0.0002441,3.4568481c0,0.1030121,0.0594482,0.1959229,0.152359,0.2368469l3.0857086,1.3035889
	c0.0300751,0.0134888,0.0644989,0.0207214,0.0991669,0.0207214c0.0322571,0,0.064743-0.0062866,0.0938721-0.0187988
	l3.1918488-1.324295C13.9393311,12.0926142,14,11.9992151,14,11.89573V8.0157251
	C14,7.9110193,13.9364624,7.8149805,13.8416138,7.7767115z M12.8701782,8.0058527l-1.9956055,0.7543488l-2.4071808-0.8694
	l2.0976562-0.8342438L12.8701782,8.0058527z M10.2194061,12.7256403l-2.4064636-1.0272827L7.8131866,8.920495l2.4059906,0.9098358
	L10.2194061,12.7256403z M10.2303619,1.8234949L7.0926666,0.5415583C7.0339355,0.517251,6.9631653,0.5174799,6.9073334,0.5413141
	l-2.984848,1.1676025c-0.0960388,0.0397186-0.1593475,0.1374359-0.1574249,0.243103
	C3.7669983,2.0586481,3.83078,2.1515589,3.9289856,2.1893549l3.2594757,1.1825256
	C7.2426147,3.3894587,7.3011169,3.3882532,7.3530884,3.367547l2.4454651-0.9365387v3.2929382L7.1985779,6.8359461
	L7.1983337,3.6039057c0-0.1078186-0.0661926-0.2048187-0.1653595-0.2416534L3.9475098,2.2639704
	C3.8709717,2.2355585,3.7828674,2.2478418,3.7181244,2.2950068C3.6514587,2.3424311,3.6115112,2.4211359,3.6115112,2.5053797
	L3.6112671,5.9622431c0,0.1030121,0.0594482,0.1959229,0.1523438,0.2368317l3.0857239,1.3036041
	C6.8794098,7.5161524,6.9138184,7.523385,6.9484863,7.523385c0.0322571,0,0.0647583-0.0062714,0.0938721-0.0187836
	l3.191864-1.324295c0.0938568-0.0409241,0.1545105-0.1343079,0.1545105-0.2378082V2.0625086
	C10.3887329,1.9578028,10.3251953,1.861764,10.2303619,1.8234949z M9.2589111,2.0526361L7.2633209,2.8069696L4.8561401,1.9375849
	l2.0976562-0.8342438L9.2589111,2.0526361z M6.6081543,6.7724085L4.2016907,5.7451258l0.0002441-2.7778473L6.6079102,3.877099
	L6.6081543,6.7724085z"/>
</svg>
