<?xml version="1.0" encoding="utf-8"?>

<!--
 * Copyright (c) 2015, WSO2 Inc. (http://www.wso2.org) All Rights Reserved.
 *
 * WSO2 Inc. licenses this file to you under the Apache License,
 * Version 2.0 (the "License"); you may not use this file except
 * in compliance with the License.
 * You may obtain a copy of the License at
 *
 * http://www.apache.org/licenses/LICENSE-2.0
 *
 * Unless required by applicable law or agreed to in writing,
 * software distributed under the License is distributed on an
 * "AS IS" BASIS, WITHOUT WARRANTIES OR CONDITIONS OF ANY
 * KIND, either express or implied. See the License for the
 * specific language governing permissions and limitations
 * under the License.
-->

<svg version="1.1" id="application" xmlns="http://www.w3.org/2000/svg" xmlns:xlink="http://www.w3.org/1999/xlink" x="0px"
	 y="0px" viewBox="0 0 14 14" style="enable-background:new 0 0 14 14;" xml:space="preserve">
<path d="M7.6,6.1L11,8.4L10.1,9l1.2,1.6l-0.7,0.6L9.3,9.5l-0.9,0.6L7.6,6.1z M0.6,4.7c-0.1,0-0.1,0-0.1,0.1v7.4c0,0.1,0,0.1,0.1,0.1
	h12.8c0.1,0,0.1,0,0.1-0.1V4.8c0-0.1,0-0.1-0.1-0.1H0.6z M0.6,3.5c-0.1,0-0.1,0-0.1,0.1v0.5c0,0.1,0,0.1,0.1,0.1h12.8
	c0.1,0,0.1,0,0.1-0.1V3.6c0-0.1,0-0.1-0.1-0.1H0.6z M12.4,1.7c-0.1,0-0.3,0.1-0.3,0.3v0.5c0,0.1,0.1,0.3,0.3,0.3h0.4
	c0.1,0,0.3-0.1,0.3-0.3V1.9c0-0.1-0.1-0.3-0.3-0.3H12.4z M10.7,1.7c-0.1,0-0.3,0.1-0.3,0.3v0.5c0,0.1,0.1,0.3,0.3,0.3h0.4
	c0.1,0,0.3-0.1,0.3-0.3V1.9c0-0.1-0.1-0.3-0.3-0.3H10.7z M9,1.7c-0.1,0-0.3,0.1-0.3,0.3v0.5c0,0.1,0.1,0.3,0.3,0.3h0.4
	c0.1,0,0.3-0.1,0.3-0.3V1.9c0-0.1-0.1-0.3-0.3-0.3H9z M0.6,1h12.8C13.7,1,14,1.3,14,1.6v10.9c0,0.3-0.3,0.6-0.6,0.6H0.6
	C0.3,13,0,12.7,0,12.4V1.6C0,1.3,0.3,1,0.6,1z"/>
</svg>
