<?xml version="1.0" encoding="utf-8"?>

<!--
 * Copyright (c) 2015, WSO2 Inc. (http://www.wso2.org) All Rights Reserved.
 *
 * WSO2 Inc. licenses this file to you under the Apache License,
 * Version 2.0 (the "License"); you may not use this file except
 * in compliance with the License.
 * You may obtain a copy of the License at
 *
 * http://www.apache.org/licenses/LICENSE-2.0
 *
 * Unless required by applicable law or agreed to in writing,
 * software distributed under the License is distributed on an
 * "AS IS" BASIS, WITHOUT WARRANTIES OR CONDITIONS OF ANY
 * KIND, either express or implied. See the License for the
 * specific language governing permissions and limitations
 * under the License.
-->

<svg version="1.1" id="application" xmlns="http://www.w3.org/2000/svg" xmlns:xlink="http://www.w3.org/1999/xlink" x="0px"
	 y="0px" viewBox="-414 291.28 12.5 14" style="enable-background:new -414 291.28 12.5 14;" xml:space="preserve">
<path d="M-401.47955,296.39548c0.00064-0.62317,0.00125-1.24637,0.00125-1.86954c0-0.16257-0.08875-0.30576-0.23483-0.37906
	c-1.51224-0.75763-3.82343-1.89908-5.35281-2.65442l-0.1022-0.05048c-0.44611-0.22034-0.92538-0.21585-1.38593,0.01315
	c-1.11945,0.55655-2.25613,1.12521-3.35541,1.67517c-0.56766,0.284-1.13531,0.56799-1.70319,0.85162
	c-0.09076,0.04535-0.27963,0.13968-0.23428,0.34161c0.02618,0.1167,0.13718,0.21881,0.2355,0.26825
	c1.10599,0.55621,2.23166,1.11938,3.32025,1.66397c0.71036,0.35541,1.42072,0.71078,2.13077,1.06677
	c0.51868,0.26004,1.04724,0.25964,1.5712-0.00107c0.95255-0.47409,1.90582-0.94675,2.85916-1.4194l0.85803-0.42548
	c0.18054-0.08957,0.3613-0.17868,0.54846-0.27094l0.07773-0.03836c0,0.53543-0.00055,1.07077-0.00104,1.6062
	c-0.00143,1.43475-0.0029,2.9184,0.00595,4.37772c0.00281,0.46082-0.19266,0.7738-0.61508,0.98508
	c-1.39813,0.69922-2.79617,1.39841-4.1944,2.09735l0.00009-0.99146c0.00015-1.30502,0.00031-2.65442-0.00189-3.98169
	c-0.00031-0.1738-0.01498-0.32251-0.04492-0.45477c-0.11496-0.50708-0.43997-0.89795-0.966-1.16177
	c-1.09161-0.54745-2.20255-1.10184-3.27692-1.63797l-0.91553-0.45697c-0.42886-0.21408-0.85803-0.42752-1.28772-0.63995
	c-0.16638-0.08228-0.27567-0.05417-0.33807-0.01605c-0.09158,0.05597-0.13916,0.16165-0.14139,0.31418
	c-0.00043,0.02881-0.00034,0.05762-0.00021,0.0864l0.00006,0.03647c0,0.53003,0.00055,1.06003,0.0011,1.59003
	c0.00137,1.30829,0.00278,2.6611-0.00458,3.99142c-0.00406,0.74002,0.33649,1.28824,1.01215,1.62933
	c0.4577,0.23111,0.98877,0.49985,1.54807,0.78287c1.24536,0.63013,2.65689,1.34439,3.68762,1.86026
	c0.03278,0.01639,0.06641,0.03156,0.10452,0.04865l0.01202,0.0054c0.04767,0.02798,0.10187,0.04199,0.15918,0.04199
	c0.06134,0,0.12622-0.01605,0.19046-0.0481c0.33652-0.16812,0.67294-0.33643,1.0094-0.50476l0.78134-0.39078
	c0.30951-0.15479,0.61926-0.30905,0.92902-0.46338c0.68896-0.34329,1.4014-0.69821,2.09982-1.05231
	c0.69003-0.34988,1.02344-0.88541,1.01917-1.63727C-401.48276,299.58762-401.48111,297.96484-401.47955,296.39548z
	 M-402.69479,294.52319l-0.77414,0.38385c-1.16324,0.57678-2.32645,1.15359-3.48929,1.73114
	c-0.2818,0.13998-0.55222,0.14111-0.82666,0.00369c-1.03928-0.52054-2.07898-1.04016-3.11871-1.55978l-1.5867-0.79315
	l0.68854-0.34512c1.17215-0.58765,2.38419-1.19531,3.57886-1.78748c0.10654-0.05276,0.23785-0.08224,0.35248-0.07855
	c0.15909,0.00504,0.30942,0.03879,0.42337,0.09509c0.34674,0.17133,0.74347,0.36707,1.16525,0.5752
	C-405.07584,293.34314-403.72049,294.01187-402.69479,294.52319z M-407.82498,303.43945l0.00043,0.84781
	c-0.39359-0.19672-0.92432-0.4671-1.44-0.72992c-0.4848-0.24701-0.94272-0.48032-1.25677-0.63718l-0.43344-0.21667
	c-0.54706-0.2735-1.11273-0.5563-1.67087-0.8313c-0.43689-0.21533-0.63855-0.54236-0.63458-1.02924
	c0.00967-1.18814,0.00793-2.39594,0.00623-3.564c-0.00067-0.45236-0.00131-0.90469-0.00134-1.35706l1.11569,0.55588
	c1.2287,0.61209,2.49927,1.24503,3.74741,1.87045c0.38541,0.19308,0.57202,0.49768,0.57053,0.93115
	C-407.82657,300.66614-407.82574,302.07599-407.82498,303.43945z"/>
</svg>
