<?xml version="1.0" encoding="utf-8"?>

<!--
 * Copyright (c) 2015, WSO2 Inc. (http://www.wso2.org) All Rights Reserved.
 *
 * WSO2 Inc. licenses this file to you under the Apache License,
 * Version 2.0 (the "License"); you may not use this file except
 * in compliance with the License.
 * You may obtain a copy of the License at
 *
 * http://www.apache.org/licenses/LICENSE-2.0
 *
 * Unless required by applicable law or agreed to in writing,
 * software distributed under the License is distributed on an
 * "AS IS" BASIS, WITHOUT WARRANTIES OR CONDITIONS OF ANY
 * KIND, either express or implied. See the License for the
 * specific language governing permissions and limitations
 * under the License.
-->

<svg version="1.1" id="apple" xmlns="http://www.w3.org/2000/svg" xmlns:xlink="http://www.w3.org/1999/xlink" x="0px" y="0px"
	 viewBox="1 0 12 14" enable-background="new 1 0 12 14" xml:space="preserve">
<path id="path1" d="M4.6,3.3c1.1,0,1.8,0.6,2.7,0.6c0.9,0,1.4-0.6,2.7-0.6c1,0,2,0.5,2.7,1.4c-2.4,1.3-2,4.7,0.4,5.6
	c-0.3,0.7-0.5,1.1-0.9,1.7c-0.6,0.9-1.4,2-2.5,2c-0.9,0-1.2-0.6-2.4-0.6C6,13.4,5.8,14,4.8,14c-1,0-1.8-1-2.4-1.9
	C0.8,9.6,0.6,6.6,1.6,5C2.3,3.9,3.5,3.3,4.6,3.3z M9.6,0C9.8,0.9,9.4,1.7,9,2.3C8.5,2.9,7.6,3.4,6.8,3.4C6.7,2.6,7,1.7,7.5,1.2
	C8,0.5,8.9,0.1,9.6,0z"/>
</svg>
