<?xml version="1.0" encoding="utf-8"?>
<!-- Generator: Adobe Illustrator 19.2.0, SVG Export Plug-In . SVG Version: 6.00 Build 0)  -->
<svg version="1.1" id="application" xmlns="http://www.w3.org/2000/svg" xmlns:xlink="http://www.w3.org/1999/xlink" x="0px"
	 y="0px" viewBox="0 0 14 14" style="enable-background:new 0 0 14 14;" xml:space="preserve">
<path d="M12.4242096,11.5029516l1.2403898-0.5542088l-0.042635-3.4338498V3.0702369L7.1180644,0L0.4335263,2.8787532
	l7.0391288,2.6342564l4.9927406-1.9833241v6.635592L7.382009,12.5658827V7.8098788l0.0047684-0.000421V5.6558275
	L6.2331071,5.2322822v0.0009351l-4.741138-1.7436423L1.4414804,3.4683976L1.2928187,3.4130001l-0.2910589-0.099575
	L0.4732629,3.1219413L0.3430671,3.0759871v8.0423145l-0.0076668,0.0152874h0.0076668l0.2987258,0.1378622l0.4289216,0.1914835
	l4.9170542,2.1437197L6.8841329,14l1.804462-0.7749577l-0.0002337-0.0000467L12.4242096,11.5029516z M7.4603133,4.2816424
	L3.5117574,2.8040018l3.5846157-1.5437905l3.6420236,1.7192858L7.4603133,4.2816424z M6.22544,12.4356871l-4.7258039-2.0756998
	V4.7380524L6.22544,6.5763144V12.4356871z"/>
</svg>
