<?xml version="1.0" encoding="utf-8"?>
<!-- Generator: Adobe Illustrator 19.1.0, SVG Export Plug-In . SVG Version: 6.00 Build 0)  -->
<svg version="1.1" id="application" xmlns="http://www.w3.org/2000/svg" xmlns:xlink="http://www.w3.org/1999/xlink" x="0px"
	 y="0px" viewBox="0 0 14 14" style="enable-background:new 0 0 14 14;" xml:space="preserve">
<path d="M13.263072,2.6244965L7.1796632,0.0606232C7.0657949,0.0120087,6.9285994,0.0124817,6.8203368,0.0601349
	L1.0332561,2.3953552C0.8470547,2.4747925,0.7243257,2.6702271,0.7280532,2.8815613
	c0.0037424,0.2132568,0.1274033,0.3990784,0.3178056,0.4746552L7.3653913,5.721283
	c0.1049938,0.035141,0.2184038,0.0327301,0.3191962-0.008667l4.7412882-1.8730927v6.5858917l-5.040885,2.223999L7.3845325,6.1853333
	c0-0.2156525-0.1283355-0.4096527-0.3206015-0.4833069l-5.9821424-2.196579
	c-0.1483931-0.0568085-0.319196-0.0322571-0.4447356,0.062088C0.5078006,3.6623688,0.4303351,3.8197937,0.4303351,3.9882812
	l-0.0004734,6.9137115c0,0.2060242,0.1152591,0.3918457,0.2953958,0.4736786l5.9826159,2.6072083
	c0.0583248,0.026947,0.125051,0.0414124,0.1922512,0.0414124c0.0625405,0,0.1255393-0.0125427,0.1820006-0.0375671
	l6.188416-2.6486053c0.1819859-0.0818329,0.2995968-0.2686157,0.2995968-0.4756012V3.1025238
	C13.570138,2.8931122,13.4469357,2.7010345,13.263072,2.6244965z M11.3796234,3.0827789L7.5105305,4.5914612L2.8434393,2.8526764
	l4.0669661-1.6684875L11.3796234,3.0827789z M6.2402692,12.5223389l-4.6656857-2.0545654l0.0004734-5.5557098L6.2398105,6.73172
	L6.2402692,12.5223389z"/>
</svg>
