<?xml version="1.0" encoding="utf-8"?>
<!-- Generator: Adobe Illustrator 19.1.0, SVG Export Plug-In . SVG Version: 6.00 Build 0)  -->
<svg version="1.1" id="bar-chart" xmlns="http://www.w3.org/2000/svg" xmlns:xlink="http://www.w3.org/1999/xlink" x="0px" y="0px"
	 viewBox="0 0 14 14" style="enable-background:new 0 0 14 14;" xml:space="preserve">
<path d="M13.8999939,11.5c-1.1000061,0-2.2000122,0-3.3999939,0c0-3.7000122,0-7.2999878,0-11c1.1000061,0,2.2000122,0,3.3999939,0
	C13.8999939,4.2000122,13.8999939,7.8999939,13.8999939,11.5z M9.7000122,4.7999878c-1.1000061,0-2.2000122,0-3.2999878,0
	c0,2.2000122,0,4.5,0,6.7000122c1.1000061,0,2.2000122,0,3.2999878,0C9.7000122,9.2999878,9.7000122,7,9.7000122,4.7999878z
	 M5.5,8.2000122c-1.1000061,0-2.2000122,0-3.2999878,0c0,1.1000061,0,2.2000122,0,3.2999878c1.1000061,0,2.2000122,0,3.2999878,0
	C5.5,10.3999939,5.5,9.2999878,5.5,8.2000122z M1,12.7999878V-0.1000061H0v0.2000122c0,4.2000122,0,8.5,0,12.7000122
	c0,0.2999878,0,0.5,0,0.7999878v0.2000122h14v-0.2000122c0-0.2999878,0-0.5,0-0.7999878l0,0
	C9.7999878,12.7999878,5.2000122,12.7999878,1,12.7999878z"/>
</svg>
