<?xml version="1.0" encoding="utf-8"?>

<!--
 ~   Copyright 2017, WSO2 Inc. (http://www.wso2.com)
 ~
 ~   Licensed under the Apache License, Version 2.0 (the "License");
 ~   you may not use this file except in compliance with the License.
 ~   You may obtain a copy of the License at
 ~
 ~        http://www.apache.org/licenses/LICENSE-2.0
 ~
 ~   Unless required by applicable law or agreed to in writing, software
 ~   distributed under the License is distributed on an "AS IS" BASIS,
 ~   WITHOUT WARRANTIES OR CONDITIONS OF ANY KIND, either express or implied.
 ~   See the License for the specific language governing permissions and
 ~   limitations under the License.
-->

<svg version="1.1" id="bean" xmlns="http://www.w3.org/2000/svg" xmlns:xlink="http://www.w3.org/1999/xlink" x="0px" y="0px"
	 viewBox="0 0 14 14" style="enable-background:new 0 0 14 14;" xml:space="preserve">
<path d="M13.7833843,6.9855433c-0.338728,1.0333519-0.9137154,1.9315815-1.624752,2.7411613
	c-1.1132421,1.2675304-2.4582644,2.1955061-4.0775881,2.7077169c-0.7094674,0.2244072-1.6649089,0.3714533-2.8021059,0.3716459
	c-1.0036488-0.0288992-2.2325602-0.2787476-3.324821-1.0058718c-0.3769523-0.2509375-0.7032629-0.5580206-0.8935297-0.9834204
	c-0.2325332-0.519886-0.1174228-0.9524994,0.347103-1.2765255c0.4575794-0.3191767,0.9822218-0.4908266,1.5056753-0.6591549
	c1.0523822-0.3384171,2.112731-0.65271,3.160634-1.00425C7.3813996,7.4382486,8.607914,6.8157821,9.8271952,6.1777024
	c0.844101-0.4417362,1.6981697-0.8649826,2.5559187-1.2796707c0.1973314-0.0953989,0.4247789-0.1442871,0.6439409-0.1755934
	c0.5234489-0.0747662,0.8405094,0.1739817,0.9358616,0.6968708C14.0615911,5.9604297,13.9502029,6.4766216,13.7833843,6.9855433z
	 M1.4008193,9.2086563c0.6108108-0.2772293,1.2262368-0.5479822,1.8184595-0.861721
	C4.542254,7.6460648,5.849278,6.9075198,7.2603111,6.3983026c1.2254238-0.4422393,2.4776611-0.809895,3.7158585-1.2171755
	c0.5645971-0.1857128,1.1350069-0.3634777,1.6253681-0.7178659c0.4640751-0.3353906,0.5694427-0.7414119,0.3308325-1.2583702
	c-0.235795-0.5108812-0.6456518-0.8586845-1.1137257-1.1355801c-1.0588732-0.6263958-2.2228832-0.8567905-3.7504082-0.8753787
	C7.7330852,1.2417538,7.0767555,1.2683084,6.4583077,1.4352119C3.7139688,2.175844,1.7410746,3.8768666,0.4746439,6.40343
	C0.1457812,7.0595102-0.080548,7.7575045,0.0270707,8.5130396C0.1122285,9.110898,0.4020772,9.3895187,0.9538006,9.3082142
	C1.1048607,9.2859507,1.2646486,9.2704601,1.4008193,9.2086563z"/>
</svg>
