<?xml version="1.0" encoding="utf-8"?>
<!-- Generator: Adobe Illustrator 19.1.0, SVG Export Plug-In . SVG Version: 6.00 Build 0)  -->
<svg version="1.1" id="blank-document" xmlns="http://www.w3.org/2000/svg" xmlns:xlink="http://www.w3.org/1999/xlink" x="0px"
	 y="0px" viewBox="0 0 14 14" style="enable-background:new 0 0 14 14;" xml:space="preserve">
<path id="Blank" d="M9.1307068,0H8.6452179l0,0l0,0H2.6796875C2.2913055,0,2,0.296875,2,0.692749v12.614502
	C2,13.7030945,2.291275,14,2.6796875,14h8.7813416c0.388382,0,0.6796875-0.296875,0.6796875-0.692749V2.9689026L9.1307068,0z
	 M10.934082,13.0846863H3.206604c-0.1941986,0-0.2912903-0.0989685-0.2912903-0.296875V1.2121887
	c0-0.197937,0.0971069-0.296875,0.2912903-0.296875h5.4386139v1.7306519c0,0.3958435,0.291275,0.692749,0.6796875,0.692749
	h1.9004822v9.4490967C11.2253571,12.9857178,11.031189,13.0846863,10.934082,13.0846863z"/>
</svg>
