<?xml version="1.0" encoding="utf-8"?>
<!-- Generator: Adobe Illustrator 19.1.0, SVG Export Plug-In . SVG Version: 6.00 Build 0)  -->
<svg version="1.1" id="block" xmlns="http://www.w3.org/2000/svg" xmlns:xlink="http://www.w3.org/1999/xlink" x="0px" y="0px"
	 viewBox="0 0 14 14" style="enable-background:new 0 0 14 14;" xml:space="preserve">
<path d="M7,0C3.1000061,0,0,3.1000061,0,7s3.1000061,7,7,7s7-3.1000061,7-7S10.8999939,0,7,0z M2,7c0-2.7999878,2.2000122-5,5-5
	c1,0,2,0.2999878,2.7999878,0.7999878l-6.8999939,7C2.2999878,9,2,8.1000061,2,7z M7,12c-1,0-2-0.2999878-2.7999878-0.7999878
	l6.8999939-7C11.7000122,5,12,6,12,7.1000061C12,9.7000122,9.7999878,12,7,12z"/>
</svg>
