<?xml version="1.0" encoding="utf-8"?>

<!--
 * Copyright (c) 2015, WSO2 Inc. (http://www.wso2.org) All Rights Reserved.
 *
 * WSO2 Inc. licenses this file to you under the Apache License,
 * Version 2.0 (the "License"); you may not use this file except
 * in compliance with the License.
 * You may obtain a copy of the License at
 *
 * http://www.apache.org/licenses/LICENSE-2.0
 *
 * Unless required by applicable law or agreed to in writing,
 * software distributed under the License is distributed on an
 * "AS IS" BASIS, WITHOUT WARRANTIES OR CONDITIONS OF ANY
 * KIND, either express or implied. See the License for the
 * specific language governing permissions and limitations
 * under the License.
-->

<svg version="1.1" id="bookmark" xmlns="http://www.w3.org/2000/svg" xmlns:xlink="http://www.w3.org/1999/xlink" x="0px" y="0px"
	 viewBox="0 0 14 14" enable-background="new 0 0 14 14" xml:space="preserve">
<path fill="#020202" d="M12,0c0.1,0.1,0.1,0.2,0.1,0.3c0,4.5,0,8.9,0,13.4c0,0.1,0,0.2-0.1,0.3c-0.1,0.1-0.2,0-0.3-0.1
	c-1.6-1-3.1-2-4.7-3c-0.1-0.1-0.2-0.1-0.3,0c-1.5,1-3,2-4.5,3c-0.1,0-0.1,0.1-0.2,0.1c-0.1,0-0.2-0.1-0.2-0.3c0-0.7,0-1.4,0-2.1
	c0-3.8,0-7.5,0-11.3c0-0.1,0-0.2,0.1-0.3C5.3,0,8.7,0,12,0z M8.9,7.6L8.7,6c0-0.1,0-0.2,0.1-0.2l1.1-1.1C10,4.5,9.9,4.2,9.7,4.2
	L8.1,4C8.1,4,8,3.9,7.9,3.8L7.2,2.4c-0.1-0.2-0.4-0.2-0.5,0L6.1,3.9C6,3.9,5.9,4,5.9,4L4.3,4.2C4.1,4.3,4,4.5,4.1,4.7l1.2,1.1
	C5.3,5.9,5.4,5.9,5.4,6L5.1,7.6c0,0.2,0.2,0.4,0.4,0.3l1.4-0.8c0.1,0,0.2,0,0.2,0l1.4,0.7C8.7,8,9,7.8,8.9,7.6z"/>
</svg>
