<?xml version="1.0" encoding="utf-8"?>
<!-- Generator: Adobe Illustrator 19.1.0, SVG Export Plug-In . SVG Version: 6.00 Build 0)  -->
<svg version="1.1" id="bpel" xmlns="http://www.w3.org/2000/svg" xmlns:xlink="http://www.w3.org/1999/xlink" x="0px" y="0px"
	 viewBox="0 0 14 14" style="enable-background:new 0 0 14 14;" xml:space="preserve">
<path d="M11.5510111,8.2520103V6.5861206H7.4966989V5.7440205C8.8819466,5.52215,9.9430256,4.3364706,9.9430256,2.8952503
	C9.9430256,1.2962599,8.6405811,0,7.0339518,0S4.1248875,1.2962599,4.1248875,2.8952599
	c0,1.4430399,1.0638018,2.6296501,2.451612,2.8492804v0.8415804H2.4514711v1.6692896C1.0637513,8.4751301,0,9.6617403,0,11.1047401
	C0.0000002,12.7037392,1.3024449,14,2.9090641,14s2.9090741-1.2962608,2.9090741-2.8952599
	c0-1.4413204-1.0611291-2.6270399-2.4465175-2.8488197V7.5019608h7.2591805v0.7500496
	C9.244297,8.4727602,8.1818523,9.6590004,8.1818523,11.1011105c0,1.5990009,1.3024445,2.8952599,2.9090738,2.8952599
	S14,12.7001095,14,11.1011105C14,9.6589499,12.9375658,8.4727602,11.5510111,8.2520103z M5.2751293,2.8952599
	c0-0.96521,0.7890167-1.7504802,1.7588325-1.7504802s1.7588325,0.7852702,1.7588325,1.7504802S8.0037766,4.64569,7.0339518,4.64569
	S5.2751293,3.8604698,5.2751293,2.8952599z M4.6678958,11.1047401c0,0.96521-0.7890165,1.7504807-1.7588317,1.7504807
	S1.150232,12.0699501,1.150232,11.1047411c0-0.9238901,0.7251234-1.6749697,1.6375662-1.7382698h0.2425315
	C3.9427726,9.4297705,4.6678958,10.18085,4.6678958,11.1047401z M11.0909367,12.8515892
	c-0.9698153,0-1.758832-0.7852707-1.758832-1.7504797s0.7890167-1.7504797,1.758832-1.7504797
	s1.758832,0.7852697,1.758832,1.7504797S12.0607519,12.8515892,11.0909367,12.8515892z"/>
</svg>
