<?xml version="1.0" encoding="utf-8"?>

<!--
 * Copyright (c) 2015, WSO2 Inc. (http://www.wso2.org) All Rights Reserved.
 *
 * WSO2 Inc. licenses this file to you under the Apache License,
 * Version 2.0 (the "License"); you may not use this file except
 * in compliance with the License.
 * You may obtain a copy of the License at
 *
 * http://www.apache.org/licenses/LICENSE-2.0
 *
 * Unless required by applicable law or agreed to in writing,
 * software distributed under the License is distributed on an
 * "AS IS" BASIS, WITHOUT WARRANTIES OR CONDITIONS OF ANY
 * KIND, either express or implied. See the License for the
 * specific language governing permissions and limitations
 * under the License.
-->

<svg version="1.1" id="bpel" xmlns="http://www.w3.org/2000/svg" xmlns:xlink="http://www.w3.org/1999/xlink" x="0px" y="0px"
	 viewBox="-413 291.28 14 14" style="enable-background:new -413 291.28 14 14;" xml:space="preserve">
<path d="M-401.18298,299.71799v-0.797h0.00299v-0.83203h-4.36902v-1.20966c1.35822-0.2019,2.40741-1.36523,2.40741-2.77899
	c0-1.55518-1.26562-2.82031-2.82031-2.82031c-1.55518,0-2.8208,1.26514-2.8208,2.82031c0,1.41168,1.04614,2.57391,2.40173,2.77838
	v1.2113h-4.43201v0.41595h-0.00403v1.2121C-412.06488,300.00876-413,301.12418-413,302.4592c0,1.55518,1.26562,2.8208,2.8208,2.8208
	c1.55469,0,2.82031-1.26562,2.82031-2.8208c0-1.48901-1.16382-2.69946-2.62714-2.80078v-0.73743h7.97003v0.73767
	c-1.46252,0.1026-2.62512,1.31238-2.62512,2.80054c0,1.55518,1.26562,2.8208,2.8208,2.8208
	c1.55469,0,2.82031-1.26562,2.82031-2.8208C-399,301.12405-399.93524,300.00858-401.18298,299.71799z M-408.10889,302.4592
	c0,1.14209-0.92871,2.0708-2.07031,2.0708s-2.0708-0.92871-2.0708-2.0708c0-1.1416,0.9292-2.07031,2.0708-2.07031
	S-408.10889,301.3176-408.10889,302.4592z M-408.03271,294.10031c0-1.1416,0.9292-2.07031,2.0708-2.07031
	s2.07031,0.92871,2.07031,2.07031c0,1.14209-0.92871,2.0708-2.07031,2.0708S-408.03271,295.2424-408.03271,294.10031z
	 M-401.82031,304.53c-1.1416,0-2.0708-0.92871-2.0708-2.0708c0-1.1416,0.9292-2.07031,2.0708-2.07031
	s2.07031,0.92871,2.07031,2.07031C-399.75,303.60129-400.67871,304.53-401.82031,304.53z"/>
</svg>
