<?xml version="1.0" encoding="utf-8"?>
<!-- Generator: Adobe Illustrator 19.1.0, SVG Export Plug-In . SVG Version: 6.00 Build 0)  -->
<svg version="1.1" id="bpmn" xmlns="http://www.w3.org/2000/svg" xmlns:xlink="http://www.w3.org/1999/xlink" x="0px" y="0px"
	 viewBox="0 0 14 14" style="enable-background:new 0 0 14 14;" xml:space="preserve">
<path d="M14,2.2000027C14,0.9999956,13.0070925,0,11.8155918,0S9.6311836,0.9999956,9.6311836,2.2000027
	c0,1.1000013,0.7943134,1.8999858,1.787221,2.099997v2.2000027H9.9290438l-2.780129-2.7999759
	c-0.0992966-0.1000056-0.1985936-0.1000056-0.2978601,0L4.0709262,6.5000024H1.5886579l0,0l0,0v3.1999984
	C0.6950473,9.900012,0,10.8000021,0,11.7999973C0,13.0000048,0.9929073,14,2.1844084,14s2.1844084-0.9999952,2.1844084-2.2000027
	c0-0.9999952-0.6950474-1.8999853-1.6879549-2.0999966V7.4999976h1.4893613l2.7801285,2.7999759
	c0.0992966,0.1000051,0.1985936,0.1000051,0.2978601,0l2.7801285-2.7999759h2.4822683l0,0l0,0v-3.299973
	C13.3049526,3.9999826,14,3.0999925,14,2.2000027z M3.6737695,11.7999668c0,0.799984-0.5957506,1.3999882-1.3900642,1.3999882
	s-1.3900644-0.6000042-1.3900644-1.3999882s0.5957505-1.3999882,1.3900644-1.3999882
	C3.0780189,10.3999481,3.6737695,10.9999523,3.6737695,11.7999668z M11.8155918,3.5999904
	c-0.7943144,0-1.3900642-0.6000035-1.3900642-1.3999877s0.5957499-1.3999879,1.3900642-1.3999879
	c0.7943134,0,1.3900642,0.6000035,1.3900642,1.3999879C13.3049526,2.9999869,12.6099358,3.5999904,11.8155918,3.5999904z"/>
</svg>
