<?xml version="1.0" encoding="utf-8"?>
<!-- Generator: Adobe Illustrator 19.1.0, SVG Export Plug-In . SVG Version: 6.00 Build 0)  -->
<svg version="1.1" id="broken-link" xmlns="http://www.w3.org/2000/svg" xmlns:xlink="http://www.w3.org/1999/xlink" x="0px"
	 y="0px" viewBox="0 0 14 14" style="enable-background:new 0 0 14 14;" xml:space="preserve">
<path d="M6.524332,5.5034237C6.3753576,5.2190409,6.3119087,4.9447374,6.2919927,4.6626701
	C6.235683,3.8651743,6.497889,3.1872287,7.0686083,2.6241388c0.6207638-0.6124678,1.2332191-1.2333493,1.8511086-1.8487434
	c1.0356112-1.0314293,2.5693817-1.0339608,3.6036863-0.0069609c0.2536755,0.2518835,0.5074377,0.5037293,0.7578287,0.7588611
	c0.946907,0.9648342,0.9591875,2.5056567,0.0159082,3.4743552c-0.6650133,0.6829338-1.3323212,1.3647881-2.0242367,2.0200596
	C10.519495,7.735218,9.6295071,7.8844547,8.6532345,7.5517731C8.5991573,7.5333424,8.5363827,7.5124454,8.4926929,7.474391
	l0.1448345-0.1429901c1.0660706-1.0634527,2.1308136-2.1282406,3.1951733-3.193409
	c0.5356369-0.5360456,0.5370531-1.1827259,0.0053396-1.7165942c-0.0917349-0.0921054-0.1827812-0.1849108-0.275423-0.2760954
	c-0.5161915-0.5080757-1.1721621-0.5079122-1.6819515,0.0015211C8.8078671,3.218873,7.7355719,4.2914248,6.6639042,5.3646059
	L6.524332,5.5034237z M7.3305926,8.6378975c-1.0787425,1.081274-2.1575799,2.1624622-3.2398243,3.2402277
	c-0.4880662,0.4860487-1.1590667,0.4799376-1.6474626-0.0062208c-0.099802-0.0993452-0.2000341-0.1982765-0.2987311-0.2987137
	C1.628299,11.0478115,1.629241,10.3987474,2.1479523,9.8796358C3.1586349,8.8681736,4.1696768,7.857069,5.1814184,6.8466654
	C5.284658,6.7435627,5.3936682,6.6462402,5.5166512,6.5305758C5.465116,6.503088,5.4470758,6.4919624,5.4278793,6.4834414
	c-0.9033175-0.400959-1.9904532-0.2049599-2.721909,0.5096788c-0.677917,0.6623297-1.349179,1.3318338-2.0103583,2.01085
	c-0.9250288,0.9499826-0.9229691,2.4813375-0.0052638,3.4386168c0.2510691,0.261898,0.5111046,0.5152225,0.7680032,0.7715015
	c1.0484788,1.0459518,2.5787356,1.0482655,3.626128,0.0046196c0.6138682-0.6116714,1.2219906-1.2291651,1.8402157-1.8363867
	c0.4246993-0.417141,0.6947875-0.9097614,0.7705584-1.5005732C7.7550631,9.4154034,7.6973429,8.963685,7.4748926,8.4817867
	L7.3305926,8.6378975z M9.99403,13.1922874l-0.7762918-1.784296c-0.0264311-0.060751-0.097106-0.0885725-0.1578569-0.0621414
	l-0.3014593,0.131155c-0.060751,0.0264311-0.0885725,0.097106-0.0621424,0.1578569l0.7762918,1.7842951
	c0.0264311,0.060751,0.097106,0.0885735,0.1578569,0.0621433l0.3014593-0.1311569
	C9.9926386,13.3237133,10.0204601,13.2530384,9.99403,13.1922874z M12.0561152,11.7009592l-1.3144445-1.4257994
	c-0.0461435-0.0500526-0.1241245-0.0532207-0.1741762-0.0070782l-0.2368536,0.2183552
	c-0.0500526,0.0461435-0.0532207,0.1241245-0.0070782,0.1741762l1.3144445,1.4257994
	c0.0461426,0.0500526,0.1241236,0.0532207,0.1741753,0.0070782l0.2368546-0.2183552
	C12.0990887,11.8289928,12.1022577,11.7510109,12.0561152,11.7009592z M13.3902636,9.4915819l-1.8273582-0.6450138
	c-0.0645561-0.0227871-0.1353617,0.0110741-0.1581488,0.0756302l-0.1067638,0.3024673
	c-0.0227871,0.0645571,0.0110741,0.1353626,0.0756302,0.1581488l1.8273582,0.6450148
	c0.0645561,0.0227871,0.1353617-0.0110741,0.1581488-0.0756302l0.1067638-0.3024683
	C13.4886808,9.5851746,13.4548197,9.514369,13.3902636,9.4915819z M4.0260124,0.8794398l0.7727203,1.7760868
	c0.0274172,0.0630178,0.100729,0.0918779,0.1637468,0.0644608l0.2932501-0.127584
	c0.0630178-0.0274172,0.0918779-0.100729,0.0644608-0.1637468L4.5474706,0.6525698
	C4.5200534,0.5895519,4.4467416,0.5606918,4.3837237,0.588109L4.0904732,0.7156935
	C4.0274553,0.7431102,3.9985955,0.816422,4.0260124,0.8794398z M1.9571968,2.3613l1.3243345,1.4365273
	c0.0434117,0.0470896,0.1167774,0.0500712,0.163867,0.006659L3.6929801,3.576241
	c0.0470896-0.0434117,0.050071-0.1167779,0.0066593-0.163867L2.3753047,1.9758463
	c-0.0434117-0.0470896-0.1167774-0.0500708-0.163867-0.006659L1.963856,2.1974325
	C1.9167664,2.2408442,1.913785,2.3142104,1.9571968,2.3613z M0.6289334,4.5763731l1.8254774,0.6443501
	c0.0650756,0.0229702,0.136451-0.0111628,0.1594212-0.0762386l0.1061001-0.3005877
	c0.0229702-0.0650749-0.0111632-0.1364508-0.0762389-0.159421L0.8182161,4.0401258
	c-0.0650756-0.0229702-0.136451,0.0111628-0.1594212,0.0762386L0.5526948,4.4169521
	C0.5297246,4.4820271,0.5638578,4.5534029,0.6289334,4.5763731z"/>
</svg>
