<?xml version="1.0" encoding="utf-8"?>

<!--
 * Copyright (c) 2015, WSO2 Inc. (http://www.wso2.org) All Rights Reserved.
 *
 * WSO2 Inc. licenses this file to you under the Apache License,
 * Version 2.0 (the "License"); you may not use this file except
 * in compliance with the License.
 * You may obtain a copy of the License at
 *
 * http://www.apache.org/licenses/LICENSE-2.0
 *
 * Unless required by applicable law or agreed to in writing,
 * software distributed under the License is distributed on an
 * "AS IS" BASIS, WITHOUT WARRANTIES OR CONDITIONS OF ANY
 * KIND, either express or implied. See the License for the
 * specific language governing permissions and limitations
 * under the License.
-->

<svg version="1.1" id="bug" xmlns="http://www.w3.org/2000/svg" xmlns:xlink="http://www.w3.org/1999/xlink" x="0px" y="0px"
	 viewBox="0 0 14 14" enable-background="new 0 0 14 14" xml:space="preserve">
<path d="M7,13.4c-0.6,0-1.2-0.2-1.7-0.6c-1-0.7-1.5-1.7-1.8-2.8c0-0.1-0.1-0.2-0.1-0.3c0,0,0,0-0.1,0c-0.5,0.2-0.9,0.4-1.3,0.6
	c-0.1,0-0.1,0.2-0.1,0.3c-0.2,1-0.3,2-0.5,3C1.2,13.8,1,14,0.8,14c-0.3,0-0.4-0.2-0.4-0.6c0.2-1.2,0.4-2.3,0.6-3.5
	c0-0.1,0.1-0.2,0.3-0.3c0.5-0.2,1-0.5,1.6-0.7c0.2-0.1,0.4-0.2,0.3-0.5c0-0.2,0-0.5,0-0.7c0-0.2-0.1-0.3-0.3-0.4
	C2.4,7.2,1.8,7,1.3,6.8C1.2,6.8,1,6.7,1,6.5C0.7,5.8,0.5,5,0.2,4.2c-0.1-0.3,0-0.6,0.3-0.6C0.8,3.4,1,3.6,1.1,3.9
	c0.2,0.6,0.4,1.3,0.6,1.9C1.7,6,1.8,6.1,2,6.1c0.4,0.1,0.8,0.2,1.2,0.3c0,0,0.1,0,0.1-0.1c0,0,0-0.1,0-0.1c0,0,0-0.1,0.1-0.1
	c0.2,0,0.3,0,0.4,0c0.9,0,1.7,0,2.6,0l0,0c0.1,0,0.2,0,0.2,0c0.1,0,0.2,0,0.3,0c0.1,0,0.1,0,0.2,0c0.1,0,0.1,0,0.2,0
	c0.1,0,0.2,0,0.3,0c0.1,0,0.2,0,0.2,0l0,0c0.9,0,1.7,0,2.6,0c0.1,0,0.3,0,0.4,0c0,0,0,0,0.1,0.1c0,0,0,0.1,0,0.1c0,0,0,0.1,0.1,0.1
	c0.4-0.1,0.8-0.2,1.2-0.3c0.2,0,0.3-0.1,0.3-0.3c0.2-0.6,0.4-1.3,0.6-1.9c0.1-0.3,0.3-0.5,0.6-0.4c0.3,0.1,0.4,0.3,0.3,0.6
	C13.5,5,13.3,5.8,13,6.5c0,0.1-0.2,0.3-0.3,0.3c-0.5,0.2-1.1,0.3-1.6,0.5c-0.2,0.1-0.3,0.2-0.3,0.4c0,0.2,0,0.5,0,0.7
	c0,0.3,0.1,0.4,0.3,0.5c0.5,0.2,1.1,0.5,1.6,0.7c0.1,0.1,0.2,0.2,0.3,0.3c0.2,1.2,0.4,2.3,0.6,3.5c0.1,0.4-0.1,0.6-0.4,0.6
	c-0.2,0-0.4-0.2-0.5-0.5c-0.2-1-0.3-2-0.5-3c0-0.1-0.1-0.2-0.1-0.3c-0.4-0.2-0.9-0.4-1.3-0.6c0,0-0.1,0-0.1,0c0,0.1-0.1,0.2-0.1,0.3
	c-0.3,1.1-0.9,2.1-1.8,2.8C8.2,13.2,7.6,13.4,7,13.4L7,13.4z M2.6,0.7C3.8,1,4.6,1.8,4.9,3C5,3.3,5,3.4,4.8,3.6
	c-0.5,0.6-0.7,1.3-0.7,2c1.9,0,3.8,0,5.7,0C9.9,5,9.6,4.2,9.2,3.6C9,3.4,9,3.3,9,3.1c0.4-1.2,1.2-2,2.4-2.4c0.2-0.1,0.4-0.2,0.4-0.5
	C11.7,0,11.5,0,11.3,0C9.9,0.5,9,1.3,8.5,2.6c0,0.1-0.1,0.2-0.1,0.3c-0.9-0.5-1.8-0.5-2.8,0C5.5,2.8,5.5,2.7,5.5,2.5
	C5,1.2,4,0.4,2.7,0c-0.3-0.1-0.5,0-0.5,0.3C2.2,0.6,2.4,0.6,2.6,0.7z"/>
</svg>
