<?xml version="1.0" encoding="utf-8"?>
<!-- Generator: Adobe Illustrator 19.1.0, SVG Export Plug-In . SVG Version: 6.00 Build 0)  -->
<svg version="1.1" id="bug" xmlns="http://www.w3.org/2000/svg" xmlns:xlink="http://www.w3.org/1999/xlink" x="0px" y="0px"
	 viewBox="0 0 14 14" style="enable-background:new 0 0 14 14;" xml:space="preserve">
<path d="M9.8698864,6.1006927L8.4721813,6.0999603c-1.4625697,0-2.8451381,0.0007324-4.3076472,0.0007324l0.0104675-0.2913818
	c0-0.9265747,0.3084106-1.7489319,0.9109955-2.3151093c0.0022888-0.03685-0.0001831-0.0734406-0.0190277-0.1100922
	C4.764235,2.0856628,3.7817824,1.1226349,2.5707686,0.7980347C2.3689253,0.6897888,2.1670821,0.6897888,2.1670821,0.3651886
	s0.2018433-0.4328461,0.5045776-0.3246002c1.2923889,0.4263,2.5162814,1.6276093,3.0349123,3.0080261
	c0.3844147-0.2038116,0.8113861-0.3288879,1.2692871-0.3288879c0.5332947,0,1.0264735,0.1660309,1.454864,0.4368744
	c0.0224915-0.0992737,0.0675812-0.1972809,0.0941315-0.3027496C9.0294323,1.4472198,9.9377117,0.581604,11.350584,0.0405884
	c0.2146606-0.0406036,0.4036255,0,0.5045776,0.2164307c0.0979462,0.3095398-0.1988831,0.3880615-0.4007263,0.4962311
	C10.2434063,1.1860962,9.3786755,2.244751,8.97505,3.5432129c0,0.0230408,0.0036316,0.0342712,0.0049896,0.0520935
	c0.478775,0.4984283,0.7847137,1.175293,0.8499451,1.9290314C9.8299847,5.5243378,9.8698864,5.9999542,9.8698864,6.1006927z
	 M3.3536818,6.5676727C3.2510817,6.5733337,3.2035506,6.661377,3.2031844,6.7559357
	c0,0.0012817,0.0043945,0.1345367-0.1251221,0.094101c-0.3974304-0.094101-0.8753204-0.1914978-1.2726898-0.2856598
	C1.5957472,6.5045776,1.5691664,6.4635315,1.5073378,6.2820282C1.3086226,5.7173157,1.0115645,5.0380096,0.8128493,4.4732361
	C0.7135146,4.1908875,0.6131575,4.0230865,0.3151228,4.1172485c-0.2980347,0.0940857-0.3263245,0.2508087-0.226944,0.5331573
	C0.495497,5.5096436,0.7124922,6.2820282,1.0105879,6.9408875c0.052002,0.1046906,0.1776733,0.2304535,0.2980347,0.2823486
	C1.8053725,7.411499,2.4014571,7.5056,2.8982069,7.6938477c0.1987152,0.094101,0.2980499,0.1882477,0.2980499,0.3765106
	c0,0.1882019,0,0.4706116,0,0.6587982c0,0.2824097-0.0028839,0.3163147-0.0028839,0.3163147
	C2.6966231,9.2337189,1.8053725,9.6703796,1.3086226,9.8586273c-0.223053,0.0884094-0.2658997,0.1216431-0.2980347,0.2823486
	c-0.1987152,1.1294708-0.3974304,2.1648407-0.5961456,3.2942657C0.3151228,13.8117371,0.5138381,14,0.8118727,14
	c0.1987152,0,0.3973694-0.1882629,0.4967499-0.4706116c0.1987152-0.9412231,0.2980499-1.882431,0.4967499-2.8236389
	c0.0167084-0.1218262,0.0204773-0.2419434,0.159668-0.3105927c0.3974304-0.1882477,0.9283447-0.3742676,1.3257141-0.5625153l0,0
	c0.0401154,0.095871,0.0685883,0.1944275,0.1042023,0.3083344c0.2980499,1.0353851,0.8941805,1.9766083,1.7882998,2.6354523
	c0.5961456,0.4706116,1.1922302,0.6588135,1.7883606,0.6588135h0.0567627c0.5961456,0,1.1922145-0.1882019,1.7883601-0.6588135
	c0.8941193-0.658844,1.4902496-1.6000671,1.7882996-2.6354523c0.035614-0.1139069,0.0640869-0.2124634,0.1042023-0.3083344l0,0
	c0.3973694,0.1882477,0.9282837,0.3742676,1.3257141,0.5625153c0.1391907,0.0686493,0.1429596,0.1887665,0.159668,0.3105927
	c0.1987152,0.9412079,0.2980347,1.8824158,0.4967499,2.8236389C12.7907543,13.8117371,12.9894085,14,13.1881237,14
	c0.2980347,0,0.4967499-0.1882629,0.3974304-0.5647583c-0.1987152-1.129425-0.3974304-2.1647949-0.5961456-3.2942657
	c-0.032135-0.1607056-0.0749817-0.1939392-0.2980347-0.2823486c-0.4967499-0.1882477-1.3880005-0.6249084-1.8847504-0.8131561
	c0,0-0.0028687-0.033905-0.0028687-0.3163147c0-0.1881866,0-0.4705963,0-0.6587982
	c0-0.1882629,0.0993195-0.2824097,0.2980347-0.3765106C11.5985394,7.5056,12.1946239,7.411499,12.6913738,7.2232361
	c0.1203613-0.0518951,0.2460327-0.1776581,0.2980347-0.2823486c0.2980957-0.6588593,0.5151062-1.4312439,0.9224091-2.2904816
	c0.0993805-0.2823486,0.071106-0.4390717-0.226944-0.5331573c-0.2980347-0.094162-0.3983917,0.0736389-0.4977264,0.3559875
	c-0.1987,0.5647736-0.4957733,1.2440796-0.6944885,1.8087921c-0.0618286,0.1815033-0.0884094,0.2225494-0.2980347,0.2823486
	c-0.3973694,0.094162-0.8713379,0.1882477-1.2687683,0.2823486c-0.1295166,0.040451-0.1251221-0.092804-0.1251221-0.094101
	c-0.0003662-0.0945435-0.0478973-0.1825867-0.1504974-0.1882477C10.5356884,6.5580597,3.46826,6.5613556,3.3536818,6.5676727z"/>
</svg>
