<?xml version="1.0" encoding="utf-8"?>
<!-- Generator: Adobe Illustrator 19.2.0, SVG Export Plug-In . SVG Version: 6.00 Build 0)  -->
<svg version="1.1" id="build" xmlns="http://www.w3.org/2000/svg" xmlns:xlink="http://www.w3.org/1999/xlink" x="0px" y="0px"
	 viewBox="0 0 14 14" style="enable-background:new 0 0 14 14;" xml:space="preserve">
<path d="M13.6280937,11.9351969c-0.4926491-0.468606-0.985878-0.9366074-1.479188-1.4046631l-1.321022-1.2533264
	C10.0437813,8.533308,9.242837,7.7734509,8.4400988,7.0134349l0.0230494-0.0363245
	c0.014019-0.0221152,0.0255308-0.0426879,0.0356932-0.0608649C8.5080395,6.899776,8.5206261,6.8772202,8.5263271,6.870996
	c0.6008301-0.6036944,1.2135296-1.2161055,1.8060427-1.8083425l0.1366024-0.1365199
	c0.0390253-0.0391078,0.0601768-0.057395,0.071578-0.0659051c0.0129166,0.0035391,0.0372353,0.0119667,0.0827875,0.0314379
	c0.4702873,0.2017913,0.9638186,0.2537198,1.4669886,0.1543937c0.6556635-0.1294694,1.2320919-0.5481858,1.5814199-1.1487677
	c0.3430758-0.5897999,0.421484-1.2826023,0.2151213-1.9007831l-0.0975771-0.2923317l-0.224761,0.2108661
	c-0.0152025,0.0142798-0.0291376,0.0271827-0.0421648,0.0392318c-0.0275955,0.0255579-0.051446,0.0476731-0.0751038,0.0711242
	c-0.1203804,0.1202843-0.2406235,0.240679-0.3608665,0.3610597c-0.2249813,0.2252562-0.4499617,0.4504986-0.6756859,0.6749287
	c-0.1678343,0.1666493-0.3233843,0.1672413-0.4895658,0.0018313c-0.2459936-0.2447689-0.4705887-0.4695704-0.6868114-0.6873906
	c-0.1781063-0.1790841-0.1782446-0.3315911-0.0003586-0.5100694c0.2014332-0.2024111,0.4034452-0.4041474,0.6054573-0.6058837
	c0.1404305-0.1402514,0.2808886-0.280503,0.4215937-0.4214292c0.0256405-0.0258608,0.0489683-0.0517078,0.0784922-0.0844401
	c0.0149822-0.0166209,0.0319471-0.0354312,0.0521345-0.0574501l0.2542286-0.2774459l-0.3727646-0.0514737
	c-0.0693197-0.0095704-0.1358309-0.0204904-0.2001667-0.0310385c-0.1402645-0.0229965-0.2727633-0.0447263-0.4105501-0.049119
	C10.8494205,0.260558,10.0850258,0.6479468,9.619339,1.3240319C9.1502638,2.0050056,9.0603151,2.8641407,9.3787422,3.6222837
	C9.39433,3.6593812,9.4187593,3.7175336,9.4275169,3.7478697c-0.0197744,0.0250897-0.0651617,0.070477-0.0941343,0.0994499
	l-1.94416,1.9447517C7.3644633,5.8170094,7.3405032,5.8427191,7.3153033,5.8697915
	C7.3037362,5.8822398,7.2918658,5.8949914,7.2794728,5.9081283L7.2755961,5.9122338
	C7.1933026,5.8345118,7.1109042,5.7566471,7.0287414,5.6790991C6.919652,5.5763855,6.761981,5.5103431,6.6262326,5.5103431
	c-0.000854,0-0.0017352,0-0.0025887,0C6.5431418,5.5108523,6.5039515,5.49576,6.4542127,5.4456773
	c-0.574666-0.578536-1.1610374-1.1641769-1.7281022-1.730526L4.3114839,3.3009927
	C4.2870827,3.2765918,4.2624335,3.2544076,4.2406764,3.2348399L4.211082,3.2077844
	C4.2755671,3.1434405,4.3400145,3.0791361,4.4045715,3.01472l0.2833123-0.2826924L4.5751042,2.5936489
	C4.5497394,2.5625141,4.4725146,2.4677875,4.5635924,2.2701685c0.0822639-0.1786435,0.1599016-0.3127947,0.2442594-0.4220903
	C5.214767,1.3215533,5.7406859,0.8765904,6.3707089,0.5257069c0.029634-0.0164556,0.0587444-0.0338338,0.0976048-0.0570783
	c0.0171027-0.0102314,0.0362434-0.0216884,0.0584416-0.0348529l0.619585-0.3672289H6.4260936
	c-0.034894,0-0.0648584-0.0003993-0.0916009-0.0007574C6.2816148,0.0650734,6.2359796,0.0644537,6.1891603,0.0675108
	C5.1979671,0.130111,4.317102,0.5220578,3.5709944,1.2324727C3.1253018,1.6570828,2.6853375,2.1005721,2.2598324,2.529465
	C2.0792475,2.7114959,1.8925208,2.8997235,1.7081627,3.0836685C1.6820265,3.1097357,1.6674573,3.1359134,1.6596082,3.1499729
	L1.602406,3.2383513l0.042468,0.097343c0.0779405,0.1785882,0.0632887,0.2602603-0.0714133,0.3973584
	C1.4794364,3.8289223,1.3792155,3.9306855,1.2785814,4.0277119C1.1329181,4.1673574,1.0291444,4.151783,0.9399949,4.1145754
	c-0.0862027-0.036643-0.223824-0.0316858-0.3094208,0.050097C0.4970562,4.293026,0.3671188,4.4234452,0.2414501,4.5495687
	L0,4.7912664l1.3420905,1.3407273l0.1395491-0.1415324c0.0396588-0.0402508,0.0794277-0.0803499,0.119169-0.1204357
	c0.1176819-0.1186733,0.2393571-0.2413812,0.357094-0.3664303c0.0826499-0.0883923,0.0884609-0.2296076,0.0524101-0.3165812
	C1.9612901,5.0668674,1.9824965,4.9739032,2.0834887,4.8661499c0.0461032-0.0491738,0.0942721-0.0965443,0.1452777-0.1466823
	c0.0465989-0.045814,0.0947678-0.0931706,0.1416421-0.142427c0.175077-0.1839037,0.2921252-0.1595578,0.3835332-0.111444
	L2.882447,4.5332093L2.9852843,4.430675c0.1375268-0.1371617,0.2743511-0.273644,0.4108984-0.4098587l0.0408258,0.04285
	c0.0223079,0.0236712,0.045635,0.0484028,0.0695405,0.0723081c0.1630964,0.1632619,0.3262756,0.3264275,0.4894273,0.489593
	c0.538588,0.5385051,1.0954628,1.0953522,1.6389527,1.6466641c0.0326633,0.0331039,0.0561833,0.0829802,0.0579457,0.1025066
	c-0.0119524,0.1845236,0.0440102,0.3351164,0.176096,0.4738669C5.9609504,6.944993,6.0532684,7.0419278,6.1455922,7.1389127
	l-0.009944,0.01512C6.1221809,7.1745505,6.1102557,7.1947379,6.0989089,7.2141819
	C6.088829,7.2314224,6.0750036,7.2550521,6.0690823,7.2610836C5.3860431,7.9466567,4.7003322,8.6321192,4.0372877,9.2948885
	c-0.0363812,0.0362988-0.0562935,0.0534573-0.067117,0.0614986C3.9567585,9.3528624,3.9307873,9.3440218,3.8807459,9.3226776
	C3.164933,9.017498,2.3745399,9.0608473,1.7122388,9.4415712c-0.6619155,0.380476-1.0969224,1.0413723-1.1934253,1.8132029
	c-0.0432115,0.3449764-0.0011843,0.6653585,0.1284227,0.9794331l0.0937489,0.2271843l0.2016261-0.1405401
	c0.0544207-0.0379238,0.0879654-0.0823479,0.1124766-0.1147909c0.0074636-0.0098591,0.0159186-0.0210409,0.0203252-0.0255022
	c0.4051526-0.4087877,0.733907-0.7380104,1.03457-1.0359745c0.1532919-0.1517773,0.3158102-0.1515846,0.4700387,0.0005503
	c0.2451956,0.2419739,0.4934208,0.4912729,0.706917,0.7060633c0.1652999,0.1660719,0.1645839,0.3217316-0.0022583,0.4899235
	c-0.3497682,0.3527699-0.672133,0.6750526-0.9853821,0.9851065c-0.0208483,0.0206013-0.0523,0.0420275-0.0855691,0.0646935
	c-0.0207107,0.014101-0.041394,0.0282574-0.0614161,0.043047l-0.1534021,0.1134949l0.1813836,0.263814l0.0670342,0.0198011
	c0.2339592,0.069128,0.467092,0.1037188,0.6971676,0.1037188c0.158277,0,0.3151219-0.016387,0.4697359-0.04916
	c0.7002797-0.1486378,1.2932606-0.6004725,1.6269174-1.239666c0.3362732-0.644207,0.3675046-1.3965664,0.0856519-2.0642376
	c-0.0102453-0.0242367-0.0351143-0.0830355-0.0431013-0.1126976c0.0187826-0.024869,0.0648584-0.0710554,0.083724-0.0899477
	C5.8319011,9.7146378,6.4963503,9.050189,7.1609921,8.3849688c0.02531-0.0255032,0.0491605-0.0515013,0.0722394-0.0766468
	c0.0035906-0.0039206,0.0074825-0.0080738,0.0111351-0.0120506l1.8207407,1.920187
	c1.0171089,1.0727148,2.0341635,2.145401,3.0515757,3.2179499c0.0843019,0.0888462,0.2164707,0.2072716,0.3904734,0.2097225
	c0.0018997,0.0000277,0.0037727,0.0000277,0.0056458,0.0000277c0.1702023,0,0.3003597-0.1078224,0.3950996-0.2022867
	c0.2429104-0.2426071,0.4854898-0.4852142,0.7277937-0.7280684c0.0948229-0.0949612,0.2033882-0.2255039,0.2012405-0.3934479
	C13.8347597,12.1529617,13.724184,12.0266047,13.6280937,11.9351969z"/>
</svg>
