<?xml version="1.0" encoding="UTF-8" standalone="no"?>

<!--
 ~   Copyright 2017, WSO2 Inc. (http://www.wso2.com)
 ~
 ~   Licensed under the Apache License, Version 2.0 (the "License");
 ~   you may not use this file except in compliance with the License.
 ~   You may obtain a copy of the License at
 ~
 ~        http://www.apache.org/licenses/LICENSE-2.0
 ~
 ~   Unless required by applicable law or agreed to in writing, software
 ~   distributed under the License is distributed on an "AS IS" BASIS,
 ~   WITHOUT WARRANTIES OR CONDITIONS OF ANY KIND, either express or implied.
 ~   See the License for the specific language governing permissions and
 ~   limitations under the License.
-->

<svg
   xmlns:dc="http://purl.org/dc/elements/1.1/"
   xmlns:cc="http://creativecommons.org/ns#"
   xmlns:rdf="http://www.w3.org/1999/02/22-rdf-syntax-ns#"
   xmlns:svg="http://www.w3.org/2000/svg"
   xmlns="http://www.w3.org/2000/svg"
   version="1.1"
   id="svg2"
   viewBox="0 0 14 14"
   height="14"
   width="14">
  <defs
     id="defs4" />
  <metadata
     id="metadata7">
    <rdf:RDF>
      <cc:Work
         rdf:about="">
        <dc:format>image/svg+xml</dc:format>
        <dc:type
           rdf:resource="http://purl.org/dc/dcmitype/StillImage" />
        <dc:title></dc:title>
      </cc:Work>
    </rdf:RDF>
  </metadata>
  <g
     style="display:none"
     transform="translate(0,-1038.3622)"
     id="layer1">
    <g
       transform="matrix(0.11,0,0,0.11,-21.374995,1038.3223)"
       id="g4355">
      <path
         d="M 257.77,2.702 200.09,23 209.204,98.571 257.831,125.297 306.708,98.21 315.819,22.641 257.77,2.702 Z"
         id="path4339" />
      <path
         d="m 310.067,27.01 -52.43,-17.88 0,109.783 43.938,-24.319 8.492,-67.584 z"
         id="path4341" />
      <path
         d="m 206.562,27.331 7.813,67.586 43.26,23.996 0,-109.785 -51.073,18.203 z"
         id="path4343" />
      <path
         style="fill:#f2f2f2"
         d="m 272.069,67.573 -14.432,6.75 -15.213,0 -7.151,17.885 -13.299,0.247 35.663,-79.339 14.432,54.457 0,0 z m -1.397,-3.399 -12.941,-25.62 -10.616,25.18 10.52,0 13.037,0.44 z"
         id="path4345" />
      <path
         style="fill:#b3b3b3"
         d="m 257.635,13.116 0.096,25.438 12.045,25.199 -12.115,0 -0.026,10.552 16.75,0.017 7.828,18.134 12.727,0.235 -37.305,-79.575 z"
         id="path4347" />
    </g>
  </g>
  <g
     style="display:none"
     id="layer2">
    <g
       transform="matrix(0.11,0,0,0.11,-21.374995,-0.03978)"
       id="original">
      <path
         d="m 281.16,43.936 0,-0.268 -0.437,0 0,0.268 0.437,0 z m 2.913,7.015 0,0.129 0.307,0 c 0.002,-0.146 0.032,-0.292 0.089,-0.427 l 0,-0.267 c -0.129,0 -0.257,0.208 -0.376,0.574 l -0.02,-0.009 z m -11.375,8.837 c -0.639,-1.091 -1.421,-2.092 -2.329,-2.972 0,-0.317 0.496,-0.782 1.576,-1.407 l 3.081,-2.686 c 0.816,-1.272 1.239,-2.758 1.219,-4.27 l 0,-0.456 c -0.119,-1.368 -1.109,-2.467 -2.972,-3.309 -1.11,-0.747 -3.092,-1.16 -5.945,-1.238 -3.237,0.432 -6.398,1.313 -9.393,2.615 -1.156,0.822 -2.357,1.58 -3.597,2.269 l 0,0.229 c 0.13,-0.025 0.251,-0.08 0.356,-0.159 0.111,-0.026 0.225,0.041 0.252,0.153 0.004,0.019 0.006,0.037 0.006,0.055 l 0.229,-0.118 0.108,0 0,0.099 c -0.749,0.764 -1.591,1.43 -2.507,1.982 l 0.129,0.237 -0.109,0 -0.277,-0.099 c 0,0.079 -0.109,0.138 -0.336,0.158 l 0,0.099 0.267,0.337 c -0.134,-0.003 -0.265,-0.034 -0.386,-0.089 -0.446,0.062 -0.854,0.284 -1.149,0.624 l 0.157,-0.684 c 0.51,-2.122 0.894,-4.273 1.15,-6.44 l 0,-0.118 c -0.428,-0.283 -0.807,-0.635 -1.119,-1.041 0.01,-0.162 0.01,-0.324 0,-0.485 l 0,-0.099 -0.109,0 c -1.215,1.83 -3.564,4.95 -7.045,9.363 -2.643,3.137 -4.01,4.881 -4.102,5.231 -1.08,1.12 -1.596,1.794 -1.546,1.981 -0.287,0.189 -0.406,0.367 -0.356,0.575 -0.062,0.023 -0.131,-0.008 -0.153,-0.07 -0.003,-0.006 -0.004,-0.013 -0.005,-0.019 -0.457,0.745 -1.204,1.265 -2.062,1.437 l -0.99,0.217 c -0.124,0.019 -0.21,0.135 -0.192,0.26 0.001,0.006 0.002,0.012 0.004,0.018 l 0,0.12 0.356,-0.08 0,0.099 -0.813,0.317 -1.437,0.336 -0.753,0 c -0.108,0.109 0.604,0 0.327,0.061 l -0.99,0.217 c -0.576,0.129 -0.883,0.08 -0.992,-0.148 l -0.107,0 c 0.017,0.078 0.017,0.159 0,0.237 l 0.118,-0.159 -0.753,0.179 c -0.053,-0.35 -1.074,-1.625 -3.063,-3.824 0,-0.426 0.664,-1.04 2.102,-1.843 l 4.042,-3.557 c 0.905,-1.163 1.443,-3.029 1.614,-5.598 l -0.049,-0.584 c -0.158,-1.813 -1.467,-3.27 -3.963,-4.399 -1.457,-0.992 -4.082,-1.517 -7.867,-1.595 -4.219,0.573 -8.342,1.713 -12.256,3.388 -1.519,1.084 -3.1,2.076 -4.736,2.972 l 0,0.317 c 0.17,-0.029 0.332,-0.093 0.476,-0.188 0.143,-0.038 0.289,0.046 0.327,0.189 0.006,0.022 0.01,0.045 0.01,0.068 l 0.316,-0.178 0.159,0 0,0.149 c -1.002,0.981 -2.112,1.846 -3.31,2.575 l 0.179,0.277 -0.148,0 -0.337,-0.118 c 0,0.089 -0.148,0.158 -0.476,0.188 l 0,0.168 0.366,0.407 c -0.17,-10e-4 -0.338,-0.035 -0.495,-0.1 -0.896,0.186 -1.667,0.754 -2.11,1.556 l 0.178,0.278 c 0.306,-0.333 0.66,-0.617 1.051,-0.843 l 0,0.456 c -0.168,0.035 -0.329,0.098 -0.476,0.188 l 0.416,0.555 c 0.717,-0.758 1.525,-1.424 2.407,-1.982 0.436,0.109 0.664,0.248 0.674,0.397 l 0.337,0 c 2.144,-1.638 4.53,-2.928 7.075,-3.824 l 0,0.316 c -0.437,0.661 -0.73,0.991 -0.883,0.991 0.012,0.214 0.092,0.419 0.229,0.584 0.039,0.396 -1.021,3.071 -3.181,8.025 -4.854,11.447 -8.944,19.922 -12.267,25.423 0.031,0.163 0.1,0.315 0.199,0.446 0.553,-0.09 1.082,-0.292 1.555,-0.594 l 0.179,0 0,0.316 0.308,0 0.316,-0.178 c 0,0.089 0.109,0.138 0.327,0.119 l 0,0.317 c -0.04,0.483 -0.203,0.947 -0.476,1.348 -0.496,0.722 -0.859,1.528 -1.07,2.377 l 0,0.149 0.308,0 c 1.206,-1.311 2.227,-2.781 3.032,-4.37 3.075,-0.82 6.062,-1.941 8.917,-3.349 1.693,-0.047 3.332,-0.61 4.696,-1.615 l 0,-0.168 -0.773,0.228 -0.178,0 0,-0.168 c 1.11,-0.076 2.188,-0.416 3.141,-0.991 2.945,-2.272 5.172,-3.881 6.678,-4.825 3.092,-2.272 5.096,-4.485 6.014,-6.639 l 0.516,-0.119 c 0.248,0.014 0.496,0.014 0.743,0 0,-0.079 0,-0.128 0.099,-0.149 0.693,-0.069 0.357,0 0.803,-0.059 l 1.159,-0.267 c -0.069,0 -0.099,0.059 -0.079,0.128 l 0.179,-0.109 -0.09,0 0.198,0 -0.089,0.061 c 0.142,0.026 0.285,0.026 0.427,0 l 0.078,0.336 -5.369,8.253 -1.17,1.467 -0.574,1.902 0.109,0 0.574,-0.237 -0.188,0.743 0.059,0.218 0.158,0.198 c -0.068,0 -0.099,0.07 -0.078,0.149 l 0,0.119 0.237,-0.059 c 0.35,-0.304 0.498,-0.582 0.445,-0.833 0.245,0.063 0.501,0.083 0.753,0.06 l 0,0.118 c -0.228,0.06 -0.346,0.238 -0.366,0.555 l 0,0.12 0.128,0 c 1.923,-2.1 6.629,-9.264 10.404,-14.139 -0.119,-0.528 1.863,-1.262 5.945,-2.199 l 0.128,0 c 0.146,0.66 -0.185,2.203 -0.991,4.627 -0.314,0.78 -0.551,1.59 -0.703,2.417 -0.398,1.035 -0.703,2.102 -0.911,3.19 l -1.437,4.717 c -0.947,2.475 -1.664,5.033 -2.141,7.639 0.131,-0.028 0.266,-0.028 0.396,0 l 0.198,-0.179 c 0.013,0.065 0.074,0.107 0.14,0.096 0.006,-0.002 0.013,-0.004 0.02,-0.006 l 0.01,-0.376 0.623,0 c 0.189,0 0.338,-0.277 0.477,-0.704 0,-0.634 0.099,-0.99 0.386,-1.051 0.146,-0.792 0.386,-1.563 0.714,-2.298 0.152,-0.891 0.422,-1.757 0.803,-2.577 0.545,-1.982 0.99,-2.972 1.199,-3.031 l 0.059,0.238 -0.396,0.99 c -0.516,2.478 -1.218,4.912 -2.101,7.283 l 0.209,0.881 0.128,0 c 1.718,-3.692 4.188,-11.004 7.412,-21.936 0.072,-0.922 0.584,-1.751 1.377,-2.229 l -0.188,-0.199 0,-0.099 c 0.302,-0.046 0.577,-0.202 0.772,-0.436 0,-0.08 -0.336,-0.208 -0.99,-0.367 l 1.605,-6.935 c 0.176,-0.191 0.385,-0.353 0.613,-0.477 l 0,0.348 c -0.129,0.024 -0.252,0.079 -0.356,0.158 l 0.308,0.436 c 0.539,-0.59 1.147,-1.111 1.813,-1.555 0.337,0.09 0.496,0.208 0.516,0.317 l 0.238,0 c 1.631,-1.236 3.446,-2.209 5.379,-2.882 l 0,0.228 c -0.323,0.488 -0.545,0.736 -0.664,0.743 0.014,0.159 0.065,0.312 0.149,0.447 -0.636,2.093 -1.435,4.134 -2.388,6.103 -2.695,6.652 -5.82,13.123 -9.354,19.37 0.031,0.124 0.088,0.239 0.169,0.337 0.417,-0.067 0.815,-0.223 1.169,-0.456 l 0.109,0 0,0.228 0.258,0 0.227,-0.119 c 0,0.066 0.083,0.092 0.248,0.08 l 0,0.247 c -0.033,0.38 -0.17,0.743 -0.396,1.05 -0.393,0.542 -0.678,1.154 -0.842,1.803 l 0,0.12 0.238,0 c 0.916,-0.995 1.689,-2.112 2.298,-3.32 2.323,-0.625 4.579,-1.475 6.737,-2.536 1.293,-0.034 2.545,-0.462 3.588,-1.229 l 0,-0.119 -0.605,0.178 -0.129,0 0,-0.118 c 0.842,-0.062 1.657,-0.324 2.379,-0.763 2.229,-1.714 3.963,-2.972 5.072,-3.666 3.566,-2.596 5.222,-5.083 5.023,-7.481 l 0.069,0.02 z m -0.604,0.16 0.079,0.931 c -0.109,0.228 -0.228,0.347 -0.337,0.356 l -0.139,-1.585 c 0.257,0.09 0.387,0.188 0.397,0.298 l 0,0 z m -69.91,-7.511 -0.158,0 0,-0.287 0.613,-0.08 0,0.149 c -0.166,0.031 -0.324,0.094 -0.465,0.188 l 0.01,0.03 z m -3.111,31.121 c -0.307,-0.154 -0.648,-0.226 -0.99,-0.208 l 0,-0.456 c 0,-0.179 0.079,-0.297 0.307,-0.336 0.228,-0.04 0.326,0.128 0.337,0.425 0.261,-0.358 0.556,-0.69 0.882,-0.991 l 0.336,0.139 c -0.107,0.921 -0.396,1.396 -0.852,1.427 l -0.02,0 z m 33.241,-34.777 c -0.159,0 -0.476,-0.475 -0.921,-1.436 l 0,-0.288 c 0.297,0 0.604,0.456 0.921,1.437 l 0,0.287 z m -0.437,-3.448 -0.128,0.307 -4.528,-1.882 c 3.012,0.099 4.561,0.624 4.646,1.575 l 0.01,0 z m -19.062,16.368 -0.635,0.059 0,-0.287 0.635,-0.06 0,0.288 z m -0.516,-9.829 0.159,0 0,0.456 c -0.149,0 -0.337,0.228 -0.585,0.654 l 0,-0.317 c 0.287,-0.337 0.436,-0.604 0.416,-0.782 l 0.01,-0.011 z m -1.348,3.171 0.061,0.604 -0.159,0 -0.06,-0.604 0.158,0 z m -0.703,1.13 0.308,0 c 0,0.495 -0.169,0.763 -0.417,0.782 l -0.158,0 c 0.16,-0.224 0.253,-0.488 0.268,-0.763 l 0,-0.019 z m -0.525,1.565 0.179,0 0,0.148 -0.288,0.477 -0.307,0 0,-0.149 c 0.219,0.017 0.409,-0.147 0.426,-0.365 0.004,-0.04 0,-0.081 -0.01,-0.121 l 0,0.01 z m -0.515,1.417 -0.089,0.753 -0.159,0 -0.069,-0.744 0.317,0 0,-0.009 z m -5.182,14.713 c -0.207,0.99 -0.426,1.555 -0.653,1.575 l 0,-0.149 c -0.037,-0.554 0.209,-1.091 0.653,-1.426 z m -0.991,2.061 0,0.149 c 0.039,0.142 -0.045,0.289 -0.188,0.328 -0.029,0.007 -0.06,0.01 -0.09,0.008 l 0,-0.149 c 0.001,-0.178 0.094,-0.29 0.278,-0.336 z m -0.277,4.27 0.477,0 0,0.168 c -0.171,0.028 -0.332,0.092 -0.477,0.188 l -0.307,0 c 0,-0.158 0.079,-0.277 0.277,-0.336 l 0.03,-0.02 z m 13.663,-4.221 c -1.679,0.728 -3.272,1.635 -4.756,2.706 -2.886,1.01 -4.307,1.641 -4.261,1.892 -1.759,0.634 -3.479,1.372 -5.152,2.209 -0.293,-0.004 -0.582,-0.079 -0.842,-0.218 -0.037,-0.53 0.237,-1.033 0.703,-1.289 0.443,-0.041 0.889,0.028 1.299,0.199 0.805,-0.36 1.645,-0.636 2.506,-0.823 l 0,-0.316 -0.99,0.079 c 0.871,-0.54 1.802,-0.976 2.774,-1.297 l 0.476,0 0,0.149 c -0.822,0.069 -1.278,0.316 -1.377,0.743 0,0.198 0.129,0.277 0.336,0.258 0.615,-0.387 0.922,-0.614 0.912,-0.684 1.176,-0.224 4.416,-1.919 9.72,-5.083 l 0,0.288 c 0,0.139 -0.446,0.525 -1.357,1.188 l 0.009,0 z m -8.143,2.675 c 0.749,-0.06 1.452,-0.386 1.98,-0.921 0.219,0 0.338,0.069 0.348,0.258 -0.774,0.206 -1.508,0.54 -2.17,0.991 l -0.158,0 0,-0.307 0,-0.021 z m 13.187,-10.096 -4.072,3.23 c -1.559,1.102 -3.191,2.095 -4.885,2.973 -4.822,2.642 -7.818,4.019 -8.987,4.132 l -0.178,0 c 0.146,-0.542 2.292,-4.938 6.44,-13.188 2.974,-0.478 5.875,-1.337 8.629,-2.556 l 0.991,-0.079 c 1.578,-0.282 3.2,0.133 4.448,1.139 l 0.06,0.604 c -0.739,2.121 -1.548,3.363 -2.427,3.725 l -0.019,0.02 z m -7.927,-4.478 0.653,-0.06 0,0.149 -0.653,0.059 0,-0.148 z m 9.204,-1.556 0.477,0 c 0.445,0.208 0.673,0.396 0.692,0.565 l 0,0.149 c -0.483,0.006 -0.934,-0.247 -1.179,-0.664 l 0.01,-0.05 z m 1.298,-7.41 c -1.058,0.997 -2.229,1.868 -3.487,2.595 -0.625,0.06 -2.973,0.991 -7.005,2.734 -0.202,-0.091 -0.424,-0.128 -0.644,-0.108 l 0,-0.288 c 0.021,-0.797 0.295,-1.568 0.782,-2.2 0.317,-1.665 0.653,-2.615 0.991,-2.843 l 3.368,-7.58 c -0.04,-0.47 0.681,-0.83 2.16,-1.08 l 0.476,0 0,0.436 c 1.447,-0.218 2.357,-0.347 2.705,-0.376 2.675,-0.228 4.072,0.317 4.181,1.615 l 0.308,0 -0.07,-0.763 0.406,-0.139 c 0.665,0.274 1.144,0.868 1.27,1.576 -0.031,0.59 -0.274,1.15 -0.685,1.575 -0.198,0 -0.327,-0.128 -0.337,-0.425 l -0.337,0 -0.069,0.921 c -1.354,2.028 -2.345,3.071 -2.973,3.131 -0.555,0.763 -0.891,1.149 -0.99,1.149 l -0.05,0.07 z m 2.072,5.31 c -0.189,-0.151 -0.422,-0.241 -0.664,-0.257 l 0,-0.456 0.307,0 0.674,0.396 c 0.039,0.142 -0.045,0.29 -0.188,0.328 -0.029,0.008 -0.06,0.011 -0.09,0.008 l -0.039,-0.019 z m 2.099,2.546 c 0.297,0.12 0.477,0.248 0.506,0.367 l -0.148,0 0,0 -0.089,0 -0.218,0.179 -0.051,-0.546 z m 0.209,1.278 0,-0.118 0.387,-0.09 0,0.119 -0.387,0.089 z m 0.932,1.04 c 0.396,-0.069 0.594,-0.089 1.326,-0.257 l 0,0.119 -1.406,0.327 c 0.004,-0.063 0.004,-0.125 0,-0.188 l 0.08,0 z m 1.367,0.586 c -0.477,0.01 -0.948,0.076 -1.407,0.198 l 0,-0.119 1.169,-0.376 0.564,-0.129 0.06,0.219 c -0.247,0.059 -0.069,0.059 -0.356,0.208 l -0.03,0 z m 1.248,-0.298 c -0.138,0.037 -0.279,-0.044 -0.316,-0.182 0,-0.002 0,-0.004 -0.001,-0.006 l 0.356,-0.08 c 0.112,-0.044 0.239,0.011 0.283,0.123 0.008,0.021 0.013,0.042 0.014,0.066 l -0.336,0.079 z m 3.379,-3.636 0,-0.119 0.584,-0.139 0.06,0.217 -0.614,0 -0.03,0.041 z m 3.605,22.134 c 0.025,-0.121 0.025,-0.246 0,-0.367 l 0.129,0 c 0.106,-0.044 0.229,0.005 0.273,0.112 0.007,0.018 0.012,0.037 0.014,0.058 l 0,0.118 -0.475,0.109 0.059,-0.03 z m 2.538,-21.193 -0.258,0 c -0.341,0.142 -0.691,0.258 -1.051,0.347 l -0.237,0.059 c -0.124,0.042 -0.259,-0.024 -0.302,-0.149 -0.002,-0.006 -0.004,-0.013 -0.006,-0.019 l 1.695,-0.387 0.555,-0.257 0.188,0.208 c -0.209,0.029 -0.406,0.11 -0.574,0.238 l -0.01,-0.04 z m 1.297,-0.416 0,-0.118 c 0.122,-0.04 0.232,-0.112 0.317,-0.209 l 1.198,-0.277 0,0.119 c -0.518,0.115 -1.024,0.274 -1.516,0.476 l 0,0.009 z m 0.189,-2.468 c -0.125,0.046 -0.24,0.117 -0.337,0.208 0,-0.079 -0.188,-0.079 -0.495,0 -0.061,-0.228 0.832,-0.555 2.664,-0.991 l 0.258,-0.059 0.061,0.217 c -1.289,0.376 -1.982,0.595 -2.15,0.615 l 0,0.01 z m 3.229,-3.487 c -0.159,1.506 -0.644,2.329 -1.565,2.497 l 0,-0.119 -0.813,0.316 -0.356,0.08 c -0.162,0.045 -0.333,0.045 -0.495,0 l -0.109,-0.277 c 1.075,-1.692 2.253,-3.317 3.527,-4.864 l 0.277,0 c 0.035,0.815 -0.127,1.628 -0.476,2.367 l 0.01,0 z m 5.718,-4.895 -0.109,0 0,-0.228 0.475,0 0,0.12 c -0.124,0.034 -0.244,0.084 -0.355,0.148 l -0.011,-0.04 z m -2.359,23.68 c -0.229,-0.119 -0.484,-0.177 -0.742,-0.168 l 0,-0.347 c 0,-0.118 0.072,-0.201 0.218,-0.248 0.158,0 0.247,0.089 0.268,0.337 0.188,-0.281 0.411,-0.537 0.663,-0.763 l 0.248,0.099 c -0.089,0.704 -0.307,1.07 -0.634,1.1 l -0.021,-0.01 z M 274.78,48.89 c -0.119,0 -0.348,-0.356 -0.715,-1.11 l 0,-0.228 c 0.229,0 0.477,0.337 0.715,1.08 l 0,0.258 z m -0.337,-2.636 -0.109,0.238 -3.418,-1.426 c 2.278,0.069 3.456,0.475 3.527,1.188 z m -14.456,12.424 -0.476,0 0,-0.228 0.476,0 0,0.219 0,0.009 z m -0.397,-7.47 0.129,0 0,0.347 c -0.119,0 -0.268,0.166 -0.445,0.496 l 0,-0.229 c 0.167,-0.165 0.273,-0.381 0.307,-0.614 l 0.009,0 z m -0.991,2.398 0,0.456 -0.128,0 0,-0.456 0.128,0 z m -0.544,0.862 0.237,0 c 0,0.389 -0.103,0.595 -0.308,0.614 l -0.129,0 c 0.117,-0.181 0.186,-0.389 0.199,-0.604 l 0,-0.01 z m -0.387,1.179 0.108,0 0,0.119 -0.208,0.366 -0.237,0 0,-0.099 c 0.247,0 0.356,-0.149 0.337,-0.376 l 0,-0.01 z m -0.387,1.07 -0.079,0.595 -0.108,0 0,-0.584 0.237,0 -0.05,-0.011 z m -3.962,11.197 c -0.158,0.772 -0.324,1.169 -0.496,1.188 l 0,-0.099 c -0.016,-0.424 0.172,-0.829 0.506,-1.089 l -0.01,0 z m -0.734,1.555 0,0.099 c 0.033,0.11 -0.028,0.226 -0.139,0.259 -0.025,0.008 -0.053,0.011 -0.079,0.008 l 0,-0.118 c 0,-0.12 0.073,-0.202 0.218,-0.248 l 0,0 z m -0.208,3.25 0.367,0 0,0.118 c -0.127,0.025 -0.248,0.071 -0.357,0.139 l -0.238,0 c 0,-0.132 0.073,-0.214 0.219,-0.247 l 0.009,-0.01 z m 10.364,-3.201 c -1.269,0.562 -2.479,1.246 -3.617,2.041 -2.22,0.773 -3.31,1.258 -3.3,1.446 -1.311,0.498 -2.592,1.074 -3.834,1.725 -0.223,-0.01 -0.439,-0.071 -0.633,-0.179 -0.045,-0.409 0.167,-0.803 0.533,-0.991 0.338,-0.031 0.679,0.02 0.992,0.149 0.616,-0.265 1.257,-0.47 1.912,-0.614 l 0,-0.228 -0.753,0.059 c 0.665,-0.414 1.376,-0.746 2.12,-0.992 l 0.367,0 0,0.1 c -0.625,0.059 -0.992,0.238 -1.051,0.574 -0.004,0.115 0.087,0.211 0.201,0.214 0.02,0 0.038,-0.001 0.056,-0.006 0.466,-0.307 0.685,-0.475 0.685,-0.535 0.885,-0.158 3.342,-1.447 7.371,-3.864 l 0,0.228 c 0,0.1 -0.337,0.396 -0.991,0.901 l -0.058,-0.028 z m -6.182,1.982 c 0.576,-0.044 1.12,-0.29 1.535,-0.693 0.111,-0.028 0.225,0.041 0.252,0.152 0.004,0.019 0.006,0.037 0.006,0.056 -0.581,0.149 -1.136,0.387 -1.645,0.704 l -0.129,0 0,-0.219 -0.019,0 z m 9.997,-7.609 -3.072,2.477 c -1.188,0.85 -2.437,1.612 -3.734,2.279 -3.653,1.981 -5.929,3.026 -6.827,3.131 l -0.129,0 c 0.112,-0.417 1.748,-3.752 4.904,-10.007 2.26,-0.38 4.459,-1.046 6.55,-1.982 l 0.743,-0.069 c 1.197,-0.212 2.428,0.11 3.369,0.882 l 0,0.456 c -0.566,1.585 -1.169,2.516 -1.833,2.804 l 0.029,0.029 z m -6.034,-3.399 0.475,0 0,0.12 -0.475,0 0,-0.12 z m 6.984,-1.189 0.366,0 c 0.337,0.169 0.517,0.317 0.525,0.437 l 0,0.099 c -0.371,0.014 -0.719,-0.181 -0.9,-0.505 l 0.009,-0.031 z m 0.992,-5.617 c -0.8,0.761 -1.684,1.426 -2.636,1.981 -1.827,0.543 -3.606,1.231 -5.321,2.061 -0.156,-0.056 -0.32,-0.08 -0.484,-0.069 l 0,-0.229 c 0.014,-0.605 0.219,-1.19 0.584,-1.674 0.236,-1.278 0.505,-1.982 0.782,-2.15 L 264,47.849 c 0,-0.336 0.514,-0.614 1.623,-0.833 l 0.367,0 0,0.347 c 1.091,-0.179 1.773,-0.28 2.051,-0.307 1.981,-0.179 3.093,0.229 3.181,1.229 l 0.238,0 0,-0.555 0.237,0 c 0.516,0.185 0.893,0.63 0.991,1.169 -0.05,0.455 -0.261,0.876 -0.595,1.189 -0.158,0 -0.247,-0.089 -0.268,-0.337 l -0.238,0 -0.069,0.693 c -0.99,1.556 -1.772,2.369 -2.238,2.398 -0.416,0.565 -0.675,0.853 -0.794,0.862 l 0.012,-0.018 z m 1.079,3.844 0,-0.347 0.237,0 0.517,0.316 c 0.016,0.119 -0.068,0.229 -0.188,0.246 -0.011,0.002 -0.021,0.003 -0.031,0.002 -0.147,-0.111 -0.321,-0.18 -0.505,-0.198 l -0.03,-0.019 z m -42.99,22.411 -0.237,0.06 -0.209,0.178 c 0.013,0.115 0.115,0.197 0.23,0.184 0.02,-0.003 0.039,-0.007 0.057,-0.016 0.159,0 0.219,-0.128 0.188,-0.277 l 0,-0.119 -0.029,-0.01 z m -0.912,-1.822 0,0.118 c 0.159,0 0.218,-0.128 0.188,-0.277 l 0,-0.119 c -0.119,0.011 -0.207,0.119 -0.195,0.238 0.001,0.014 0.003,0.027 0.007,0.04 z m 6.5,-15.457 0.277,-0.069 -0.06,-0.238 -0.277,0.069 0.06,0.238 z m 83.773,7.035 c -1.221,0.34 -2.479,0.53 -3.746,0.565 l 0,0.228 0.258,0 0.139,0 0,0 0.307,-0.118 c 2.774,-0.308 3.102,-0.199 3.072,-0.506 l 0,-0.109 -0.03,-0.06 z m -15.111,1.981 0,0.228 0,0 0,-0.228 z m -1.734,-6.084 -0.248,-0.079 c -0.14,0.316 -0.239,0.649 -0.297,0.991 l 0,0.099 c 0.198,0 0.366,-0.337 0.536,-0.991 l 0.009,-0.02 z m 17.419,4.033 0,0.229 0.405,0.069 0,-0.229 -0.405,-0.069 z m -19.114,2.359 -0.624,-0.069 -0.109,0.237 0,0.12 3.735,-0.317 0,-0.229 -2.972,0.258 -0.03,0 z m -1.694,-8.185 0,-0.118 -0.129,0 -0.228,0.149 0.129,0.217 c 0.178,0 0.258,-0.099 0.237,-0.257 l -0.009,0.009 z m 22.571,4.122 0.177,0 c 0.101,0 0.15,-0.088 0.139,-0.237 l -0.098,-0.217 c -0.506,-0.004 -1.004,0.123 -1.446,0.366 l 0,-0.109 -0.764,0.069 c 0,-0.228 -0.08,-0.347 -0.188,-0.336 l -0.396,0 c -0.466,0 -0.684,0 -0.911,0.198 0,-0.08 0,-0.118 -0.079,-0.118 l -0.445,0 -0.259,0.148 c 0,-0.079 0,-0.119 -0.079,-0.119 l -0.158,0.138 0,-0.119 -0.614,0 -0.148,0 0,0.228 0.317,0.08 0.296,0 c 0.103,0.06 0.221,0.084 0.337,0.069 l 0.258,-0.128 0,0.088 c -0.802,0.209 -1.615,0.365 -2.437,0.466 -0.07,-0.059 -0.157,-0.094 -0.248,-0.099 l 0,0 c -0.108,-0.005 -0.194,-0.099 -0.188,-0.208 l 0,0 0.517,-0.069 c 0.112,0.036 0.229,0.066 0.346,0.089 0.416,-0.208 0.437,-0.288 0.654,-0.307 l 0,-0.228 c -0.869,0.16 -1.751,0.243 -2.636,0.247 l -0.079,0 0,-0.228 c 2.288,-0.277 1.525,-0.118 2.309,-0.336 0,0.079 0,0.118 0.079,0.118 0.085,-0.087 0.196,-0.143 0.317,-0.158 l 0.158,0 c 0.898,0.028 1.794,-0.09 2.655,-0.347 l 0,0.099 0.258,-0.129 0.237,0 c 0,-0.228 0.338,-0.267 0.456,-0.277 l 0,-0.248 c -2.783,0.565 -3.518,0.406 -4.29,0.624 l 0,-0.099 c -0.324,0.075 -0.658,0.102 -0.99,0.08 -0.089,0.026 -0.169,0.078 -0.229,0.148 0,-0.08 0,-0.118 -0.09,-0.118 l 0,0 -2.367,0.386 c 0,-0.069 0,-0.099 -0.089,-0.089 -0.827,0.242 -1.678,0.395 -2.537,0.456 -0.11,0.02 -0.216,0.063 -0.307,0.128 0,-0.069 0,-0.099 -0.129,-0.089 l -0.991,0.079 -0.673,0.169 c 0,-0.069 0,-0.1 -0.13,-0.09 -0.324,0.094 -0.655,0.157 -0.99,0.188 l 0,0 c -0.169,0 0.078,0 0,-0.099 l -0.208,0.118 c -0.298,0 -0.139,0 -1.149,0 -1.783,0.218 -1.586,0.248 -1.783,0.258 l -0.664,0 c 0.012,0.048 -0.018,0.096 -0.065,0.107 -0.012,0.003 -0.022,0.003 -0.034,0.001 -0.752,-0.099 -1.149,-0.217 -1.149,-0.356 0.1,-0.72 0.275,-1.09 0.525,-1.11 l 0.129,0 -0.112,0.239 0.13,0 c 0.236,-0.128 0.346,-0.248 0.336,-0.357 l 0,-0.247 -0.238,0 0,-0.229 c -0.021,-0.158 0.002,-0.32 0.07,-0.465 l 0.545,-0.882 0,0.228 0.258,0 0,-0.228 -0.148,-0.208 c 0.127,-0.13 0.288,-0.223 0.465,-0.268 l 0,-0.119 -0.346,0 0,-0.347 c 0.445,-0.799 0.778,-1.656 0.99,-2.546 l 0.247,0.099 c 0.159,0 0.229,-0.099 0.218,-0.267 l -0.237,0 0,-0.099 c -0.018,-0.167 0.014,-0.335 0.09,-0.485 0.342,-0.307 0.53,-0.75 0.515,-1.208 0.069,0 0.108,0 0.119,0.108 0.327,-0.188 0.574,-0.673 0.753,-1.486 0.894,-1.999 1.646,-4.058 2.249,-6.163 1.981,-5.469 1.981,-6.043 2.229,-7.341 l -0.238,0 c 0.018,0.164 -0.013,0.329 -0.09,0.475 -0.121,-0.055 -0.252,-0.086 -0.386,-0.089 l 0,-0.099 c 0.011,-0.616 0.223,-1.211 0.604,-1.694 l 0.05,0 0.208,0.792 0.237,0 c 0.04,-0.334 0.104,-0.665 0.189,-0.99 0,-0.119 -0.101,-0.198 -0.288,-0.208 l -0.229,0.149 c 0,-0.169 0,-0.605 0,-1.289 l -0.118,0 c -0.16,-0.127 -0.271,-0.306 -0.317,-0.506 l -1.317,0.13 c -0.025,-0.144 -0.076,-0.281 -0.148,-0.407 0,-0.118 0.287,-0.238 0.892,-0.356 l 0.268,0.099 0.247,-0.149 c 0,0.08 0.06,0.119 0.149,0.109 l 0.248,-0.149 c 0,0.08 0.059,0.12 0.147,0.109 l 0.119,0 0,-0.268 c -0.188,0 -0.674,0 -1.447,0 l -0.247,0.168 0,-0.179 c -6.195,0.509 -9.713,0.803 -10.552,0.882 -0.109,0 -0.545,0 -1.308,0 0,0.099 -0.08,0.158 -0.268,0.178 l -0.268,-0.118 -0.902,0.227 c -0.355,0.033 -0.714,0.033 -1.069,0 -0.145,0.116 -0.32,0.185 -0.506,0.199 l 2.646,-0.169 c -0.191,0.129 -0.415,0.202 -0.645,0.209 -0.181,0.024 -0.364,-0.007 -0.524,-0.09 -0.649,0.2 -1.312,0.355 -1.983,0.466 l -0.267,-0.1 -4.32,0.664 c -0.183,-0.083 -0.385,-0.114 -0.584,-0.088 -0.39,0.051 -0.773,0.134 -1.148,0.248 l -2.092,0.872 0.158,0.257 c 0.152,-0.027 0.297,-0.084 0.427,-0.168 l 0.742,0.069 -0.089,0.693 c -0.595,0.212 -1.043,0.712 -1.188,1.328 -0.991,0.456 -1.535,0.772 -1.535,0.991 l 0,0.119 0.158,0 0.278,-0.149 0.326,0.387 0,0.534 c 0,0.166 -1.722,3.798 -5.162,10.899 -2.973,6.837 -4.559,10.572 -4.706,11.245 -0.992,0.288 -1.615,0.704 -1.794,1.259 0,0.179 0.327,0.297 0.911,0.337 l 0,0.268 -0.268,0.446 0,0.534 c 0,0.278 0.747,0.489 2.239,0.635 0,-0.09 0,-0.149 0.139,-0.159 -0.009,0.669 -0.103,1.335 -0.277,1.982 l 0.159,0 c 0.524,-0.512 0.871,-1.179 0.99,-1.902 l 0.129,0 c 0.148,0 0.307,0.159 0.486,0.515 -0.185,0.073 -0.846,1.542 -1.982,4.409 l 0.158,0.257 0.219,0 c 1.354,-3.435 2.206,-5.333 2.556,-5.697 1.783,-0.158 4.865,-0.488 9.244,-0.99 l 0.278,-0.168 c -0.004,0.07 0.052,0.131 0.122,0.134 0.016,0.001 0.031,0 0.046,-0.005 l 0.287,0 0.277,-0.168 c -0.003,0.071 0.052,0.131 0.123,0.135 0.016,0 0.03,-0.002 0.046,-0.006 l 3.319,-0.288 c 0.882,-0.069 1.287,-0.337 1.258,-0.793 0,-0.119 0.506,-0.257 1.555,-0.406 0.155,-0.002 0.312,0.025 0.457,0.08 0,-0.08 0.515,-0.169 1.564,-0.258 0,-0.555 0.209,-0.852 0.516,-0.882 l 0,-0.268 c -0.338,0.04 -0.67,0.116 -0.99,0.229 -0.444,-0.005 -0.887,-0.059 -1.318,-0.159 -0.13,0.083 -0.274,0.14 -0.426,0.168 l -2.309,0.069 -0.277,0.149 c 0,-0.086 -0.056,-0.122 -0.168,-0.109 l -0.13,0 -0.296,0.148 c 0,-0.079 -0.248,-0.148 -0.734,-0.208 l -0.297,0.179 -0.574,0 0,-0.149 c 2.973,-0.324 4.439,-0.727 4.398,-1.208 0.139,-0.034 0.277,0.052 0.311,0.19 0.006,0.025 0.009,0.051 0.007,0.077 l 0.872,-0.217 0,-0.269 -7.114,0.199 c 0,0.089 0,0.148 -0.139,0.158 l -0.872,-0.069 c -0.2,0.012 -0.393,0.08 -0.555,0.198 l -0.327,-0.119 c -0.67,0.042 -1.334,0.151 -1.981,0.327 -0.659,-0.052 -1.322,-0.052 -1.981,0 l -1.595,0.139 -0.743,-0.079 c 0,-0.476 0.882,-2.785 2.764,-6.936 0.279,-0.988 0.805,-1.887 1.525,-2.616 0.159,0.003 0.314,0.04 0.456,0.109 l 1.141,-0.386 0.584,0.089 c 1.171,-0.128 2.321,-0.412 3.418,-0.843 0.25,-0.036 0.504,-0.012 0.744,0.069 l 0.871,-0.208 2.586,-0.217 c 1.219,-0.116 2.421,-0.361 3.586,-0.733 l 0,-0.268 c -0.476,0 -0.732,0 -0.742,-0.228 0,-0.357 -0.377,-0.505 -1.05,-0.456 l 0,-0.267 0.713,-0.208 1.862,-0.158 0,-0.268 c -0.069,0 -0.456,0 -1.149,0 l 0,-0.287 0.724,-0.069 c 0.197,0 0.277,-0.109 0.258,-0.298 -0.991,0 -1.457,0 -1.466,-0.148 -6.759,0.329 -10.147,0.392 -10.166,0.188 -0.153,0.033 -0.299,0.097 -0.427,0.189 L 282.27,54.38 c 1.79,-3.804 2.839,-5.721 3.15,-5.747 -0.019,0.252 -0.097,0.497 -0.228,0.713 l 0,0.12 0.286,0 c 0.714,-1.695 1.309,-2.577 1.814,-2.616 2.12,-0.188 -0.298,-0.327 4.25,-0.991 0.124,0.068 0.264,0.105 0.406,0.109 1.783,-0.357 4.268,-0.733 7.451,-1.13 l 0,-0.268 -1.694,0.159 0,-0.269 c 0.185,-0.014 0.361,-0.082 0.505,-0.198 l 0,0.149 c 0.141,-0.034 0.273,-0.098 0.387,-0.188 0.228,-0.038 0.461,-0.011 0.674,0.08 0.464,-0.13 0.938,-0.227 1.416,-0.288 l 1.061,-0.099 c 0.258,-0.168 0.377,-0.317 0.367,-0.456 l 0,-0.119 c -0.313,0.024 -0.626,0.004 -0.932,-0.059 -0.017,-0.146 0.088,-0.279 0.234,-0.297 0.001,0 0.002,0 0.003,0 l 1.982,-0.189 0.9,-0.228 c 0,0.099 0.061,0.139 0.13,0.139 0.141,-0.034 0.273,-0.098 0.386,-0.189 l 0.148,0 c -0.159,0.35 -0.292,0.71 -0.396,1.08 l -0.258,0 c -0.014,-0.167 -0.064,-0.33 -0.149,-0.475 l -0.128,0 c -2.397,6.688 -3.468,9.799 -5.688,14.932 -0.406,1.308 -0.743,2.04 -1.04,2.199 -0.003,0.115 0.087,0.211 0.202,0.213 0.019,0.001 0.037,-10e-4 0.056,-0.005 0.051,0.669 -0.109,1.338 -0.457,1.913 -0.989,2.972 -1.703,4.567 -2.061,4.864 l 0.228,1.397 c 0.017,0.119 -0.066,0.229 -0.186,0.245 -0.01,0.002 -0.021,0.003 -0.031,0.003 l -0.238,0 c 0,-0.386 -0.178,-0.575 -0.426,-0.545 l -0.129,0 c -0.333,0.523 -0.573,1.101 -0.714,1.704 l 0.239,0 c 0.28,-0.139 0.455,-0.43 0.445,-0.743 l 0.476,0 0.277,0.1 c -0.187,0.242 -0.294,0.537 -0.308,0.842 l 0.129,0.218 -0.317,0.743 0,0.119 c 0.32,-0.013 0.637,0.078 0.902,0.258 0.265,-0.037 0.517,-0.14 0.733,-0.298 0.277,0 1.308,0 3.09,0 l 0.893,-0.307 c 0.639,0.002 1.276,-0.023 1.913,-0.08 l 0.385,0 0.21,-0.139 0,0.119 c 0.624,-0.092 1.259,-0.085 1.882,0.02 l 0,0.119 -0.545,0 0,0.228 c 0.159,-0.01 0.311,-0.068 0.437,-0.168 0.139,0 0.217,0.069 0.228,0.229 -0.254,0.027 -0.503,0.083 -0.744,0.168 l -0.237,-0.08 c -0.376,0.099 -0.297,0.128 -0.555,0.149 l -0.377,-0.069 c 0.012,0.048 -0.019,0.095 -0.066,0.106 -0.007,0.001 -0.015,0.002 -0.021,0.002 -0.008,0.109 0.075,0.204 0.185,0.21 0.015,0.001 0.028,0 0.042,-0.002 l 0.387,0 1.981,-0.178 0.764,-0.168 c 0,0.069 0,0.099 0.098,0.089 l 0.367,-0.139 0.694,-0.059 c 0.535,0 0.524,-0.08 1.684,-0.268 0,-0.069 0,-0.1 0.07,-0.109 l 0,0.099 c 0.781,-0.096 1.557,-0.244 2.317,-0.446 l 0,0.059 c 0.476,-0.109 0.208,-0.08 0.337,-0.179 0,0.08 0,0.12 0.079,0.12 l 0.337,0 0,-0.248 -0.673,0 0,0 -0.069,0 -0.09,0 0,0 c -0.248,0.046 -0.5,0.066 -0.753,0.059 l -1.694,0.09 0,-0.119 0.991,-0.129 0.337,0 0.197,-0.139 0,0.119 c 1.328,-0.109 1.804,0.218 7.927,-1.089 0.338,0 0.308,-0.307 0.516,-0.882 -0.113,0.01 -0.228,-0.014 -0.328,-0.069 -0.575,0.14 -1.161,0.227 -1.753,0.258 -0.08,0 -0.148,-0.069 -0.178,-0.208 l 0,-0.099 0.99,0 c 0.351,-0.038 0.689,-0.152 0.99,-0.337 0,0.08 -0.188,0.129 -0.068,0.119 l -0.019,-0.011 z m -45.488,0.763 -0.436,0 c 0.146,-0.687 0.378,-1.353 0.693,-1.981 l 0.287,0 c -0.09,0.681 -0.272,1.348 -0.544,1.981 l 0,0 z m 0.526,-2.1 0,-0.119 c 0,-0.148 0.079,-0.248 0.288,-0.297 l 0,0.118 c 0,0.179 -0.08,0.278 -0.288,0.298 z m 5.765,4.458 0,0.119 -0.723,0.069 0,-0.119 0.723,-0.069 z m -0.871,-0.069 c 0,0.149 -0.209,0.317 -0.693,0.475 l -0.882,-0.068 -0.287,0 0,-0.268 1.893,-0.179 -0.031,0.04 z m 5.876,-26.831 -0.397,0 0,-0.148 c 0,-0.149 0.07,-0.248 0.259,-0.298 l 0.158,0 0.297,0.119 c 0.022,0.141 -0.073,0.272 -0.214,0.294 -0.018,0.002 -0.035,0.003 -0.054,0.002 l -0.049,0.031 z m 6.598,-1.288 0.139,0 0,0.268 -0.396,0 c -0.018,-0.147 0.087,-0.279 0.234,-0.297 10e-4,0 0.003,0 0.004,-10e-4 l 0.019,0.03 z m -1.664,0.585 -0.653,-0.07 0,-0.218 c 0.568,-0.038 1.13,-0.144 1.674,-0.317 0,0.099 0.1,0.139 0.268,0.119 l 0,0.267 -0.258,0 c -0.18,0.024 -0.362,-0.006 -0.525,-0.088 -0.15,0.102 -0.324,0.167 -0.505,0.188 l 0,0.119 z m 0.823,2.388 0,-0.12 1.06,-0.099 0,0.119 -1.06,0.1 z m 1.139,-0.923 0,-0.148 0.515,0 0,0.148 -0.515,0 z m 0.119,-1.812 -0.14,0 0.119,-0.288 1.18,-0.109 0,0.149 c -0.396,0.046 -0.787,0.125 -1.169,0.237 l 0.01,0.011 z m 0.604,2.546 0,-0.267 0.515,0 c 0.179,0 0.271,0.082 0.276,0.248 l -0.771,0.069 -0.02,-0.05 z m 3.131,-4.26 -0.664,0.188 -0.119,0 c -0.398,0.035 -0.8,0.035 -1.199,0 0.862,-0.059 1.685,-0.119 1.982,-0.168 l 0,-0.02 z m -0.714,2.972 0,0.119 -0.911,0.08 0,-0.119 0.911,-0.08 z m 1.496,0.714 c 0,-0.109 -0.188,-0.188 -0.545,-0.218 l -0.912,0.258 -0.703,0 c -0.159,-0.109 -0.237,-0.189 -0.247,-0.238 l 0.812,0 1.823,-0.298 0.932,0 0,0.149 c -0.397,0.034 -0.79,0.114 -1.169,0.238 l 0.009,0.109 z m 9.403,-2.428 0.209,0 c 0.315,-0.314 0.689,-0.567 1.1,-0.744 -0.203,1.205 -0.743,2.329 -1.556,3.24 l -0.516,-0.317 c 0.306,-0.715 0.56,-1.45 0.763,-2.199 l 0,0.02 z m -1.585,2.725 0.129,0 c -0.179,0.336 -0.337,0.506 -0.466,0.515 l 0,-0.347 c 0.131,-0.022 0.253,-0.077 0.356,-0.158 l -0.019,-0.01 z m -0.991,2.447 c 0.079,-0.622 0.325,-1.211 0.713,-1.704 l 0,0.02 c -0.128,0.922 -0.337,1.417 -0.604,1.446 l 0,0.584 c -0.182,0.208 -0.292,0.469 -0.317,0.744 l -0.128,0 -0.07,-0.803 c 0.148,0 0.268,-0.149 0.348,-0.387 l 0.058,0.1 z m -0.397,1.327 c -0.037,0.342 -0.128,0.676 -0.267,0.991 l -0.129,0 0,-0.346 c 0.178,-0.407 0.327,-0.615 0.426,-0.615 l -0.03,-0.03 z m -7.459,21.56 0,-0.099 0.236,0 0,0.347 c -0.129,0 -0.219,-0.069 -0.257,-0.228 l 0.021,-0.02 z m 10.641,0.278 c 0,-0.08 0,-0.119 -0.13,-0.109 l -0.604,0.03 0,-0.099 0,0 1.416,-0.118 0,0.118 c -0.26,-0.02 -0.521,0.042 -0.742,0.179 l 0.06,0 z m -0.715,-0.297 c 0.061,0 0,0.059 0,0.069 0,0.01 -0.069,0 0,-0.069 z m 0.07,-1.665 -0.793,0.069 0,-0.168 0.704,0 0.624,-0.159 c 0,0.069 0,0.099 0.128,0.09 0.744,-0.129 0.675,-0.169 0.992,-0.199 0.119,0 0.197,0.069 0.208,0.208 l -1.913,0.169 0.05,-0.01 z m 2.774,-0.237 c -0.258,-0.053 -0.521,-0.072 -0.783,-0.06 l 0,-0.099 0.713,-0.069 0,0.099 c -0.068,0 0.198,0 0.07,0.119 l 0,0.01 z m 0.06,-0.13 0,-0.099 0.387,0 0,0.099 -0.387,0 z m 0.862,-0.069 0,-0.099 c 0.103,-0.027 0.197,-0.078 0.277,-0.148 0.151,-0.022 0.292,0.082 0.314,0.234 10e-4,0.007 0.002,0.016 0.002,0.023 l -0.593,-0.01 z m 1.1,-0.138 0,-0.119 0.475,0 0,0.119 -0.475,0 z m 0.653,-0.06 c 0,-0.139 0,-0.218 0.168,-0.237 l 0.159,0.208 c -0.012,-0.048 0.017,-0.096 0.065,-0.108 0.002,0 0.002,-0.001 0.003,-0.001 l 0.12,0.218 -0.516,-0.069 0,-0.011 z m -6.935,2.972 0,-0.228 -0.068,0 0,0.228 0.068,0 z m 16.219,-4.2 c 0.069,0 0.108,-0.09 -0.069,-0.119 -0.179,-0.03 0.089,0.119 -0.089,0.128 l 0,0.08 0.098,-0.069 -0.098,0.08 0,0 -0.199,0.248 0.387,-0.139 0,0 0,-0.23 -0.03,0.021 z m 0.674,0.525 -0.07,0 0,0.228 0.546,0 c 0,-0.149 -0.367,-0.199 -0.486,-0.199 l 0.01,-0.029 z m -0.843,-0.407 0,0 0,0 z"
         id="path4366" />
      <path
         d="m 283.696,50.218 0,0.149 0.308,0 c 0.004,-0.147 0.033,-0.291 0.09,-0.426 l 0,-0.267 c -0.129,0 -0.259,0.208 -0.377,0.574 l -0.021,-0.03 z m -2.972,-7.065 0,-0.267 -0.437,0 0,0.267 0.437,0 z m -8.442,15.853 c -0.639,-1.092 -1.421,-2.092 -2.329,-2.972 0,-0.317 0.496,-0.783 1.576,-1.408 l 3.091,-2.556 c 0.815,-1.272 1.239,-2.758 1.219,-4.27 l 0,-0.456 c -0.118,-1.368 -1.11,-2.467 -2.973,-3.309 -1.109,-0.747 -3.091,-1.16 -5.944,-1.239 -3.211,0.42 -6.348,1.28 -9.323,2.556 -1.156,0.823 -2.356,1.581 -3.597,2.27 l 0,0.228 c 0.129,-0.025 0.251,-0.079 0.356,-0.158 0.112,-0.028 0.225,0.041 0.252,0.153 0.005,0.018 0.007,0.037 0.006,0.055 l 0.228,-0.119 0.109,0 0,0.1 c -0.746,0.763 -1.584,1.428 -2.497,1.981 l 0.129,0.238 -0.108,0 -0.278,-0.1 c 0,0.079 -0.109,0.139 -0.337,0.159 l 0,0.099 0.267,0.336 c -0.133,-0.003 -0.265,-0.033 -0.387,-0.088 -0.445,0.062 -0.854,0.284 -1.148,0.624 l 0.158,-0.685 c 0.509,-2.122 0.893,-4.272 1.149,-6.44 l 0,-0.119 c -0.428,-0.283 -0.806,-0.634 -1.12,-1.04 0.012,-0.162 0.012,-0.324 0,-0.486 l 0,-0.099 -0.108,0 c -1.222,1.829 -3.57,4.95 -7.044,9.362 -2.643,3.138 -4.01,4.881 -4.103,5.231 -1.08,1.12 -1.595,1.793 -1.546,1.982 -0.287,0.188 -0.406,0.366 -0.356,0.574 -0.062,0.023 -0.13,-0.008 -0.153,-0.069 -0.002,-0.006 -0.004,-0.013 -0.006,-0.02 -0.456,0.745 -1.203,1.266 -2.061,1.437 l -0.99,0.218 c -0.125,0.019 -0.211,0.135 -0.191,0.259 0,0.006 0.002,0.012 0.003,0.019 l 0,0.118 0.356,-0.079 0,0.099 -0.813,0.317 -1.436,0.336 -0.754,0 c -0.109,0.109 0.604,0 0.327,0.059 l -0.991,0.218 c -0.574,0.129 -0.881,0.08 -0.99,-0.149 l -0.109,0 c 0.018,0.079 0.018,0.16 0,0.239 l -0.059,-0.229 -0.754,0.179 c -0.053,-0.351 -1.073,-1.625 -3.062,-3.825 0,-0.425 0.664,-1.04 2.101,-1.842 l 4.132,-3.498 c 0.905,-1.162 1.442,-3.028 1.615,-5.599 l -0.06,-0.604 c -0.158,-1.813 -1.467,-3.27 -3.963,-4.399 -1.457,-0.99 -4.082,-1.516 -7.867,-1.595 -4.214,0.559 -8.332,1.682 -12.246,3.339 -1.519,1.084 -3.1,2.076 -4.736,2.972 l 0,0.317 c 0.17,-0.03 0.332,-0.093 0.475,-0.189 0.144,-0.038 0.291,0.046 0.328,0.189 0.006,0.023 0.01,0.046 0.01,0.069 l 0.316,-0.179 0.158,0 0,0.149 c -1.001,0.981 -2.111,1.845 -3.309,2.576 l 0.178,0.277 -0.139,0 -0.336,-0.119 c 0,0.09 -0.148,0.159 -0.477,0.188 l 0,0.168 0.367,0.406 c -0.17,-10e-4 -0.338,-0.035 -0.495,-0.099 -0.896,0.186 -1.667,0.754 -2.11,1.555 l 0.178,0.278 c 0.31,-0.33 0.667,-0.61 1.061,-0.833 l 0,0.456 c -0.168,0.035 -0.328,0.099 -0.476,0.188 l 0.376,0.574 c 0.717,-0.758 1.525,-1.424 2.408,-1.981 0.436,0.109 0.664,0.248 0.674,0.396 l 0.337,0 c 2.144,-1.638 4.53,-2.928 7.074,-3.824 l 0,0.316 c -0.437,0.661 -0.729,0.992 -0.882,0.992 0.011,0.214 0.091,0.418 0.229,0.584 0.039,0.396 -1.021,3.071 -3.182,8.025 -4.809,11.46 -8.891,19.945 -12.246,25.454 0.031,0.162 0.1,0.314 0.198,0.446 0.554,-0.091 1.083,-0.293 1.556,-0.595 l 0.179,0 0,0.317 0.308,0 0.316,-0.179 c 0,0.089 0.109,0.139 0.326,0.119 l 0,0.317 c -0.04,0.508 -0.218,0.993 -0.514,1.407 -0.498,0.722 -0.859,1.528 -1.07,2.378 l 0,0.149 0.307,0 c 1.207,-1.31 2.227,-2.781 3.031,-4.37 3.076,-0.82 6.063,-1.942 8.918,-3.35 1.693,-0.046 3.332,-0.61 4.696,-1.615 l 0,-0.168 -0.772,0.228 -0.179,0 0,-0.168 c 1.11,-0.076 2.188,-0.415 3.141,-0.99 2.946,-2.272 5.172,-3.881 6.679,-4.826 3.09,-2.272 5.099,-4.484 6.023,-6.638 l 0.516,-0.119 c 0.247,0.014 0.495,0.014 0.742,0 0,-0.079 0,-0.129 0.1,-0.148 0.693,-0.069 0.357,0 0.803,-0.059 l 1.129,-0.437 0.198,0 -0.089,0.059 c 0.141,0.028 0.285,0.028 0.426,0 l 0.08,0.338 -5.262,8.372 -1.169,1.466 -0.575,1.922 0.109,0 0.574,-0.237 -0.188,0.743 0.059,0.218 0.159,0.198 c -0.069,0 -0.1,0.069 -0.079,0.149 l 0,0.119 0.238,-0.06 c 0.35,-0.303 0.498,-0.581 0.445,-0.833 0.245,0.064 0.5,0.084 0.752,0.06 l 0,0.119 c -0.227,0.059 -0.346,0.238 -0.365,0.555 l 0,0.12 0.129,0 c 1.922,-2.102 6.628,-9.265 10.402,-14.139 -0.119,-0.528 1.863,-1.262 5.945,-2.199 l 0.129,0 c 0.145,0.66 -0.186,2.203 -0.991,4.626 -0.292,0.767 -0.508,1.56 -0.644,2.369 -0.398,1.034 -0.703,2.101 -0.912,3.19 l -1.447,4.736 c -0.945,2.475 -1.662,5.032 -2.139,7.639 0.131,-0.027 0.266,-0.027 0.396,0 l 0.208,-0.178 c 0.013,0.064 0.074,0.107 0.139,0.095 0.008,-0.002 0.014,-0.004 0.02,-0.006 l -0.078,-0.337 0.624,0 c 0.188,0 0.337,-0.277 0.476,-0.703 0,-0.635 0.099,-0.992 0.387,-1.051 0.146,-0.792 0.385,-1.563 0.713,-2.299 0.152,-0.89 0.422,-1.756 0.803,-2.576 0.545,-1.982 0.99,-2.972 1.199,-3.032 l 0.059,0.238 -0.396,0.991 c -0.515,2.483 -1.217,4.924 -2.1,7.302 l 0.207,0.881 0.129,0 c 1.718,-3.692 4.188,-11.004 7.412,-21.936 0.071,-0.922 0.584,-1.752 1.377,-2.229 l -0.188,-0.199 0,-0.099 c 0.302,-0.046 0.577,-0.202 0.772,-0.436 0,-0.08 -0.337,-0.208 -0.99,-0.367 l 1.604,-6.935 c 0.178,-0.191 0.386,-0.352 0.614,-0.475 l 0,0.347 c -0.129,0.024 -0.251,0.079 -0.356,0.158 L 251,52.07 c 0.539,-0.589 1.148,-1.111 1.813,-1.556 0.338,0.09 0.496,0.208 0.516,0.317 l 0.238,0 c 1.625,-1.231 3.434,-2.201 5.359,-2.873 l 0,0.228 c -0.323,0.488 -0.545,0.736 -0.663,0.743 0.013,0.158 0.063,0.312 0.148,0.446 -0.636,2.094 -1.435,4.134 -2.388,6.104 -2.686,6.655 -5.801,13.128 -9.324,19.38 0.031,0.123 0.088,0.239 0.169,0.337 0.415,-0.069 0.81,-0.224 1.159,-0.456 l 0.109,0 0,0.229 0.258,0 0.227,-0.12 c 0,0.067 0.084,0.093 0.248,0.08 l 0,0.248 c -0.033,0.379 -0.172,0.743 -0.396,1.05 -0.393,0.542 -0.678,1.154 -0.842,1.803 l 0,0.119 0.238,0 c 0.916,-0.995 1.689,-2.111 2.299,-3.319 2.338,-0.639 4.607,-1.506 6.776,-2.587 1.294,-0.033 2.545,-0.461 3.587,-1.228 l 0,-0.119 -0.604,0.178 -0.109,0 0,-0.118 c 0.842,-0.062 1.657,-0.324 2.379,-0.763 2.229,-1.714 3.963,-2.972 5.072,-3.666 3.547,-2.567 5.211,-5.083 5.013,-7.521 z m -0.614,0.158 0.079,0.931 c -0.108,0.229 -0.229,0.347 -0.336,0.357 l -0.139,-1.585 c 0.258,0.089 0.385,0.188 0.396,0.297 l 0,0 z m -69.9,-7.47 -0.159,0 0,-0.287 0.634,-0.06 0,0.149 c -0.166,0.029 -0.324,0.094 -0.465,0.188 l -0.01,0.01 z m -3.112,31.091 c -0.307,-0.154 -0.648,-0.226 -0.991,-0.208 l 0,-0.456 c 0,-0.179 0.079,-0.297 0.308,-0.337 0.228,-0.04 0.327,0.128 0.337,0.426 0.261,-0.358 0.556,-0.69 0.882,-0.991 l 0.337,0.139 c -0.109,0.922 -0.396,1.397 -0.853,1.427 l -0.02,0 z m 33.242,-34.776 c -0.159,0 -0.476,-0.477 -0.922,-1.438 l 0,-0.287 c 0.298,0 0.604,0.455 0.922,1.437 l 0,0.288 z m -0.447,-3.449 -0.129,0.308 -4.518,-1.883 c 3.013,0.099 4.561,0.624 4.647,1.575 l 0,0 z m -19.091,16.428 -0.635,0.059 0,-0.287 0.635,-0.059 0,0.287 z m -0.516,-9.829 0.158,0 0,0.455 c -0.148,0 -0.337,0.229 -0.584,0.655 l 0,-0.317 c 0.287,-0.338 0.436,-0.605 0.416,-0.783 l 0.01,-0.01 z m -1.338,3.16 0.059,0.605 -0.157,0 -0.03,-0.625 0.128,0.02 z m -0.703,1.13 0.307,0 c 0,0.496 -0.168,0.763 -0.416,0.782 l -0.158,0 c 0.16,-0.224 0.253,-0.488 0.268,-0.763 l 0,-0.019 z m -0.496,1.575 0.179,0 0,0.149 -0.287,0.475 -0.308,0 0,-0.148 c 0.219,0.018 0.409,-0.146 0.426,-0.365 0.003,-0.041 0,-0.081 -0.01,-0.121 l 0,0.01 z m -0.515,1.417 -0.089,0.753 -0.158,0 -0.07,-0.744 0.317,0 0,-0.009 z m -5.181,14.684 c -0.208,0.99 -0.427,1.556 -0.654,1.575 l 0,-0.148 c -0.033,-0.558 0.216,-1.094 0.664,-1.427 l -0.01,0 z m -0.992,2.06 0,0.149 c 0.039,0.142 -0.045,0.29 -0.188,0.328 -0.029,0.008 -0.06,0.011 -0.09,0.008 l 0,-0.148 c 0.001,-0.178 0.094,-0.291 0.278,-0.337 z m -0.277,4.271 0.476,0 0,0.168 c -0.17,0.03 -0.331,0.093 -0.476,0.188 l -0.307,0 c 0,-0.158 0.078,-0.277 0.277,-0.336 l 0.03,-0.02 z m 13.663,-4.221 c -1.679,0.727 -3.272,1.634 -4.756,2.705 -2.886,1.017 -4.316,1.642 -4.29,1.873 -1.75,0.659 -3.461,1.419 -5.123,2.279 -0.293,-0.005 -0.582,-0.08 -0.842,-0.218 -0.037,-0.53 0.237,-1.033 0.703,-1.288 0.444,-0.034 0.891,0.041 1.299,0.218 0.805,-0.361 1.645,-0.636 2.506,-0.822 l 0,-0.317 -0.99,0.08 c 0.871,-0.54 1.802,-0.976 2.773,-1.298 l 0.477,0 0,0.149 c -0.822,0.069 -1.278,0.317 -1.377,0.744 0,0.198 0.129,0.277 0.336,0.257 0.615,-0.386 0.922,-0.614 0.912,-0.683 1.17,-0.225 4.408,-1.919 9.719,-5.083 l 0,0.287 c 0,0.139 -0.445,0.525 -1.356,1.189 l 0.009,-0.072 z m -8.144,2.675 c 0.75,-0.06 1.452,-0.387 1.981,-0.922 0.219,0 0.338,0.069 0.348,0.258 -0.774,0.205 -1.508,0.54 -2.17,0.99 l -0.159,0 0,-0.306 0,-0.02 z m 13.187,-10.086 -4.072,3.23 c -1.559,1.105 -3.194,2.099 -4.894,2.972 -4.822,2.642 -7.818,4.019 -8.987,4.132 l -0.179,0 c 0.146,-0.542 2.293,-4.938 6.44,-13.188 2.975,-0.479 5.874,-1.338 8.63,-2.556 l 0.991,-0.08 c 1.577,-0.282 3.2,0.133 4.448,1.139 l 0.06,0.605 c -0.733,2.11 -1.546,3.349 -2.417,3.715 l -0.02,0.031 z m -7.927,-4.479 0.654,-0.059 0,0.149 -0.654,0.059 0,-0.149 z m 9.147,-1.554 0.475,0 c 0.445,0.207 0.674,0.396 0.693,0.564 l 0,0.149 c -0.49,-0.008 -0.938,-0.281 -1.168,-0.713 z m 1.297,-7.412 c -1.059,0.997 -2.229,1.868 -3.487,2.596 -0.624,0.059 -2.972,0.99 -7.005,2.734 -0.201,-0.091 -0.424,-0.129 -0.645,-0.109 l 0,-0.288 c 0.021,-0.797 0.297,-1.568 0.783,-2.199 0.316,-1.665 0.654,-2.616 0.99,-2.844 l 3.369,-7.58 c -0.039,-0.469 0.68,-0.83 2.16,-1.08 l 0.476,0 0,0.436 c 1.446,-0.217 2.358,-0.347 2.704,-0.376 2.676,-0.228 4.072,0.317 4.182,1.616 l 0.307,0 -0.068,-0.763 0.336,0 c 0.665,0.274 1.144,0.868 1.269,1.575 -0.03,0.59 -0.273,1.149 -0.684,1.576 -0.208,0 -0.327,-0.129 -0.337,-0.426 l -0.336,0 -0.07,0.921 c -1.354,2.028 -2.345,3.072 -2.973,3.131 -0.555,0.763 -0.891,1.149 -0.99,1.149 l 0.019,-0.069 z m 2.071,5.31 c -0.19,-0.151 -0.422,-0.241 -0.664,-0.257 l 0,-0.456 0.308,0 0.673,0.396 c 0.039,0.143 -0.046,0.29 -0.188,0.328 -0.028,0.008 -0.059,0.011 -0.089,0.009 l -0.04,-0.02 z m 2.14,2.537 c 0.297,0.119 0.476,0.248 0.506,0.366 l -0.149,0 0,0 -0.089,0 -0.218,0.178 -0.06,-0.614 0.01,0.07 z m 0.198,1.278 0,-0.119 0.386,-0.089 0,0.119 -0.386,0.089 z m 0.932,1.041 c 0.396,-0.069 0.595,-0.089 1.327,-0.258 l 0,0.12 -1.406,0.327 c 0.003,-0.063 0.003,-0.125 0,-0.188 l 0.079,0 z m 1.367,0.584 c -0.476,0.01 -0.947,0.077 -1.407,0.198 l 0,-0.118 1.18,-0.376 0.564,-0.129 0.059,0.218 c -0.257,0.059 -0.068,0.059 -0.365,0.208 l -0.031,0 z m 1.248,-0.297 c -0.137,0.037 -0.278,-0.045 -0.315,-0.182 0,-0.003 -10e-4,-0.005 -0.002,-0.007 l 0.357,-0.079 c 0.111,-0.043 0.238,0.011 0.283,0.124 0.008,0.021 0.012,0.042 0.014,0.065 l -0.337,0.079 z m 3.378,-3.636 0,-0.119 0.586,-0.139 0.059,0.218 -0.613,0 -0.032,0.04 z m 3.607,22.134 c 0.025,-0.121 0.025,-0.245 0,-0.366 l 0.129,0 c 0.105,-0.044 0.229,0.005 0.272,0.111 0.007,0.019 0.013,0.038 0.015,0.058 l 0,0.119 -0.476,0.108 0.06,-0.03 z m 2.586,-21.194 -0.258,0 c -0.341,0.143 -0.691,0.258 -1.051,0.348 l -0.236,0.059 c -0.125,0.042 -0.26,-0.025 -0.303,-0.149 -0.002,-0.006 -0.004,-0.013 -0.005,-0.019 l 1.665,-0.397 0.554,-0.257 0.188,0.207 c -0.209,0.029 -0.406,0.111 -0.574,0.238 l 0.02,-0.03 z m 1.299,-0.415 0,-0.12 c 0.122,-0.039 0.231,-0.111 0.316,-0.208 l 1.199,-0.277 0,0.118 c -0.519,0.116 -1.025,0.275 -1.516,0.477 l 0,0.01 z m 0.187,-2.427 c -0.125,0.045 -0.24,0.116 -0.337,0.208 0,-0.08 -0.188,-0.08 -0.495,0 -0.061,-0.229 0.832,-0.555 2.665,-0.991 l 0.257,-0.06 0.061,0.219 c -1.289,0.376 -1.982,0.594 -2.15,0.614 l 0,0.01 z m 3.231,-3.488 c -0.13,1.466 -0.645,2.298 -1.557,2.506 l 0,-0.119 -0.813,0.317 -0.355,0.08 c -0.162,0.046 -0.334,0.046 -0.496,0 l -0.069,-0.328 c 1.075,-1.692 2.253,-3.316 3.526,-4.864 l 0.278,0 c 0.036,0.815 -0.128,1.628 -0.476,2.368 l -0.038,0.04 z m 5.717,-4.895 -0.109,0 0,-0.229 0.475,0 0,0.12 c -0.124,0.034 -0.244,0.084 -0.355,0.148 l -0.011,-0.039 z m -2.379,23.641 c -0.229,-0.12 -0.484,-0.178 -0.742,-0.168 l 0,-0.347 c 0,-0.12 0.072,-0.202 0.217,-0.248 0.159,0 0.248,0.089 0.268,0.336 0.189,-0.281 0.412,-0.537 0.664,-0.763 l 0.248,0.099 c -0.09,0.704 -0.307,1.07 -0.634,1.099 l -0.021,-0.008 z m 25.236,-26.445 c -0.119,0 -0.348,-0.357 -0.714,-1.109 l 0,-0.229 c 0.228,0 0.476,0.337 0.714,1.08 l 0,0.258 z m -0.337,-2.635 -0.109,0.237 -3.418,-1.427 c 2.278,0.07 3.458,0.477 3.527,1.19 z m -14.475,12.474 -0.477,0 0,-0.229 0.477,0 0,0.229 z m -0.397,-7.471 0.129,0 0,0.348 c -0.119,0 -0.268,0.165 -0.445,0.495 l 0,-0.228 c 0.166,-0.165 0.273,-0.382 0.307,-0.615 l 0.009,0 z m -0.99,2.398 0,0.456 -0.129,0 0,-0.456 0.129,0 z m -0.545,0.862 0.237,0 c 0,0.39 -0.103,0.591 -0.308,0.605 l -0.129,0 c 0.118,-0.182 0.186,-0.39 0.2,-0.605 z m -0.387,1.179 0.109,0 0,0.129 -0.209,0.366 -0.238,0 0,-0.119 c 0.248,0 0.358,-0.149 0.338,-0.376 l 0,0 z m -0.406,1.12 -0.08,0.595 -0.118,0 0,-0.585 0.237,0 -0.039,-0.01 z m -3.963,11.195 c -0.159,0.773 -0.324,1.169 -0.496,1.189 l 0,-0.098 c -0.017,-0.423 0.172,-0.83 0.506,-1.09 l -0.01,0 z m -0.734,1.556 0,0.1 c 0.034,0.109 -0.028,0.226 -0.139,0.259 -0.025,0.008 -0.052,0.01 -0.078,0.009 l 0,-0.12 c 0,-0.119 0.072,-0.202 0.217,-0.248 l 0,0 z m -0.159,3.211 0.367,0 0,0.118 c -0.127,0.024 -0.248,0.071 -0.357,0.139 l -0.237,0 c 0,-0.132 0.073,-0.214 0.218,-0.248 l 0.009,-0.009 z m 10.365,-3.201 c -1.269,0.563 -2.479,1.246 -3.617,2.041 -2.219,0.773 -3.309,1.259 -3.298,1.447 -1.322,0.49 -2.612,1.059 -3.865,1.704 -0.223,-0.009 -0.439,-0.07 -0.635,-0.178 -0.045,-0.409 0.169,-0.804 0.536,-0.991 0.337,-0.032 0.677,0.02 0.99,0.149 0.617,-0.265 1.257,-0.47 1.913,-0.615 l 0,-0.228 -0.744,0.069 c 0.666,-0.414 1.377,-0.746 2.121,-0.991 l 0.366,0 0,0.099 c -0.624,0.059 -0.99,0.238 -1.05,0.574 -0.004,0.115 0.087,0.211 0.201,0.215 0.02,0 0.037,-0.002 0.057,-0.007 0.465,-0.307 0.684,-0.475 0.684,-0.535 0.885,-0.158 3.342,-1.446 7.371,-3.864 l 0,0.229 c 0,0.088 -0.337,0.386 -0.99,0.891 l -0.04,-0.009 z m -6.183,1.982 c 0.577,-0.044 1.121,-0.29 1.535,-0.693 0.158,0 0.248,0.059 0.258,0.208 -0.581,0.149 -1.135,0.387 -1.645,0.704 l -0.129,0 0,-0.218 -0.019,0 z m 9.987,-7.669 -3.071,2.477 c -1.193,0.872 -2.447,1.653 -3.756,2.338 -3.652,1.982 -5.928,3.025 -6.826,3.132 l -0.129,0 c 0.112,-0.417 1.747,-3.752 4.904,-10.007 2.259,-0.38 4.459,-1.046 6.55,-1.982 l 0.743,-0.059 c 1.197,-0.213 2.428,0.109 3.368,0.881 l 0,0.456 c -0.524,1.635 -1.09,2.526 -1.803,2.804 l 0.02,-0.04 z m -6.034,-3.398 0.475,0 0,0.119 -0.475,0 0,-0.119 z m 6.986,-1.19 0.366,0 c 0.337,0.168 0.516,0.317 0.525,0.436 l 0,0.099 c -0.372,0.015 -0.72,-0.18 -0.901,-0.505 l 0.01,-0.03 z m 0.989,-5.617 c -0.797,0.761 -1.681,1.427 -2.635,1.981 -1.838,0.567 -3.627,1.283 -5.35,2.14 -0.155,-0.056 -0.32,-0.08 -0.486,-0.069 l 0,-0.228 c 0.005,-0.605 0.199,-1.195 0.555,-1.684 0.238,-1.279 0.506,-1.982 0.783,-2.15 l 2.586,-5.777 c 0,-0.336 0.516,-0.614 1.625,-0.832 l 0.366,0 0,0.346 c 1.09,-0.178 1.773,-0.28 2.051,-0.307 1.982,-0.178 3.092,0.229 3.182,1.229 l 0.237,0 0,-0.555 0.238,0 c 0.514,0.185 0.893,0.63 0.99,1.169 -0.016,0.447 -0.187,0.875 -0.485,1.208 -0.158,0 -0.248,-0.089 -0.268,-0.336 l -0.237,0 -0.069,0.693 c -1.11,1.506 -1.853,2.338 -2.349,2.338 -0.416,0.565 -0.674,0.853 -0.793,0.863 l 0.059,-0.029 z m 1.08,3.844 0,-0.347 0.239,0 0.515,0.317 c 0.016,0.12 -0.067,0.229 -0.186,0.246 -0.011,10e-4 -0.022,0.002 -0.032,0.002 -0.147,-0.112 -0.321,-0.18 -0.505,-0.198 l -0.031,-0.02 z m -43.01,22.461 -0.237,0.06 -0.208,0.177 c 0.014,0.115 0.115,0.197 0.23,0.184 0.02,-0.002 0.039,-0.007 0.057,-0.015 0.158,0 0.219,-0.129 0.188,-0.277 l 0,-0.119 -0.03,-0.01 z m -0.931,-1.823 0,0.118 c 0.16,0 0.219,-0.128 0.189,-0.276 l 0,-0.12 c -0.12,0.012 -0.208,0.119 -0.196,0.238 0.001,0.015 0.004,0.027 0.007,0.04 z m 6.54,-12.275 0.179,-0.109 -0.09,0 c -0.057,0.015 -0.092,0.071 -0.079,0.128 l -0.01,-0.019 z m 0,-3.182 0.277,-0.069 -0.06,-0.238 -0.277,0.069 0.06,0.238 z m 65.243,9.324 -0.623,-0.069 -0.109,0.238 0,0.119 3.734,-0.317 0,-0.228 -2.972,0.257 -0.03,0 z m 3.418,-0.287 0,0.229 0,0 0,-0.229 z m 15.655,-2.051 0,0.228 0.407,0.069 0,-0.228 -0.407,-0.069 z m -0.575,0 c -1.221,0.339 -2.478,0.529 -3.744,0.564 l 0,0.229 0.258,0 0.139,0 0,0 0.307,-0.119 c 2.774,-0.307 3.102,-0.198 3.071,-0.505 l 0,-0.168 -0.031,0 z m -16.842,-4.082 -0.248,-0.08 c -0.141,0.316 -0.24,0.649 -0.298,0.99 l 0,0.099 c 0.197,0 0.366,-0.336 0.534,-0.99 l 0.012,-0.019 z m -3.38,-1.823 0,-0.04 -0.128,0 -0.229,0.149 0.129,0.218 c 0.178,0 0.258,-0.099 0.237,-0.258 l -0.009,-0.069 z m 7.342,7.589 0,-0.228 -0.119,0 0,0.228 0.119,0 z m 15.228,-3.438 0.179,0 c 0.099,0 0.149,-0.089 0.138,-0.238 l -0.098,-0.217 c -0.506,-0.003 -1.005,0.123 -1.446,0.366 l 0,-0.119 -0.764,0.069 c 0,-0.228 -0.079,-0.347 -0.188,-0.337 l -0.396,0 c -0.465,0 -0.684,0 -0.912,0.198 0,-0.079 0,-0.119 -0.078,-0.119 l -0.446,0 -0.258,0.149 c 0,-0.08 0,-0.119 -0.079,-0.119 l -0.157,0.139 0,0 -0.615,0 -0.148,0 0,0.228 0.316,0.08 0.297,0 c 0.103,0.06 0.221,0.084 0.338,0.069 l 0.258,-0.128 0,0.099 c -0.802,0.208 -1.616,0.364 -2.438,0.466 -0.07,-0.059 -0.157,-0.094 -0.248,-0.1 l 0,0 c -0.109,-0.004 -0.194,-0.098 -0.188,-0.207 0,0 0,0 0,-10e-4 l 0.516,-0.069 c 0.113,0.037 0.229,0.066 0.347,0.09 0.416,-0.208 0.437,-0.288 0.654,-0.307 l 0,-0.229 c -0.87,0.16 -1.752,0.243 -2.636,0.248 l -0.079,0 0,-0.228 c 2.289,-0.277 1.525,-0.119 2.308,-0.337 0,0.079 0,0.119 0.08,0.119 0.085,-0.087 0.196,-0.144 0.316,-0.158 l 0.159,0 c 0.897,0.027 1.794,-0.09 2.655,-0.348 l 0,0.1 0.258,-0.128 0.237,0 c 0,-0.229 0.338,-0.268 0.456,-0.278 l 0,-0.247 c -2.784,0.564 -3.519,0.406 -4.29,0.623 l 0,-0.099 c -0.325,0.075 -0.658,0.102 -0.99,0.079 -0.089,0.027 -0.169,0.079 -0.229,0.149 0,-0.08 0,-0.119 -0.089,-0.119 l 0,0 -2.369,0.386 c 0,-0.069 0,-0.099 -0.088,-0.088 -0.827,0.241 -1.678,0.395 -2.537,0.455 -0.11,0.021 -0.216,0.065 -0.307,0.13 0,-0.069 0,-0.099 -0.129,-0.09 l -0.991,0.08 -0.674,0.168 c 0,-0.069 0,-0.099 -0.129,-0.089 -0.324,0.093 -0.655,0.156 -0.99,0.188 l 0,0 c -0.169,0 0.079,0 0,-0.099 l -0.209,0.119 c -0.297,0 -0.139,0 -1.149,0 -1.782,0.218 -1.585,0.247 -1.782,0.257 l -0.664,0 c 0.011,0.048 -0.018,0.096 -0.066,0.107 -0.011,0.003 -0.021,0.004 -0.033,0.002 -0.752,-0.099 -1.149,-0.217 -1.149,-0.356 0.1,-0.721 0.274,-1.09 0.525,-1.111 l 0.129,0 -0.109,0.239 0.13,0 c 0.237,-0.129 0.346,-0.248 0.336,-0.357 l 0,-0.248 -0.237,0 0,-0.228 c -0.023,-0.159 0.002,-0.321 0.069,-0.466 l 0.545,-0.881 0,0.227 0.258,0 0,-0.227 -0.149,-0.208 c 0.128,-0.13 0.289,-0.223 0.466,-0.268 l 0,-0.118 -0.346,0 0,-0.347 c 0.445,-0.799 0.778,-1.656 0.989,-2.547 l 0.248,0.1 c 0.159,0 0.229,-0.1 0.218,-0.268 l -0.236,0 0,-0.101 c -0.019,-0.167 0.013,-0.335 0.089,-0.485 0.342,-0.306 0.53,-0.749 0.514,-1.209 0.07,0 0.109,0 0.119,0.109 0.327,-0.188 0.574,-0.674 0.754,-1.486 0.962,-2.003 1.78,-4.073 2.447,-6.192 2.03,-5.469 1.98,-6.044 2.229,-7.342 l -0.237,0 c 0.018,0.164 -0.014,0.329 -0.089,0.475 -0.121,-0.055 -0.253,-0.086 -0.387,-0.088 l 0,-0.099 c 0.01,-0.616 0.223,-1.211 0.604,-1.694 l 0.109,0 0.209,0.793 0.237,0 c 0.04,-0.335 0.104,-0.666 0.188,-0.992 0,-0.118 -0.1,-0.198 -0.287,-0.208 l -0.229,0.149 c 0,-0.168 0,-0.604 0,-1.288 l -0.119,0 c -0.159,-0.128 -0.271,-0.305 -0.316,-0.505 l -1.318,0.128 c -0.024,-0.144 -0.074,-0.28 -0.148,-0.406 0,-0.119 0.287,-0.238 0.892,-0.357 l 0.269,0.099 0.248,-0.148 c 0,0.079 0.059,0.118 0.147,0.108 l 0.248,-0.148 c 0,0.079 0.06,0.119 0.147,0.109 l 0.12,0 0,-0.268 c -0.188,0 -0.675,0 -1.446,0 l -0.248,0.168 0,-0.148 c -6.195,0.509 -9.713,0.803 -10.552,0.881 -0.109,0 -0.545,0 -1.308,0 0,0.099 -0.08,0.159 -0.268,0.179 l -0.269,-0.119 -0.901,0.228 c -0.356,0.032 -0.714,0.032 -1.07,0 -0.144,0.116 -0.32,0.184 -0.505,0.198 l 2.646,-0.168 c -0.19,0.129 -0.415,0.202 -0.644,0.208 -0.18,0.025 -0.364,-0.006 -0.525,-0.089 -0.649,0.2 -1.312,0.355 -1.981,0.465 l -0.268,-0.099 -4.32,0.664 c -0.183,-0.083 -0.386,-0.115 -0.585,-0.089 -0.389,0.051 -0.773,0.133 -1.148,0.247 l -2.091,0.872 0.158,0.258 c 0.152,-0.027 0.297,-0.085 0.427,-0.168 l 0.742,0.069 -0.089,0.693 c -0.642,0.117 -1.175,0.56 -1.406,1.169 -0.991,0.455 -1.537,0.772 -1.537,0.991 l 0,0.119 0.159,0 0.277,-0.149 0.327,0.387 0,0.534 c 0,0.166 -1.721,3.798 -5.162,10.9 -2.972,6.836 -4.557,10.571 -4.707,11.244 -0.989,0.288 -1.614,0.704 -1.792,1.259 0,0.179 0.326,0.298 0.911,0.337 l 0,0.268 -0.268,0.446 0,0.534 c 0,0.278 0.746,0.489 2.24,0.635 0,-0.089 0,-0.149 0.138,-0.158 -0.011,0.669 -0.103,1.334 -0.276,1.981 l 0.157,0 c 0.448,-0.477 0.751,-1.071 0.873,-1.714 l 0.128,0 c 0.149,0 0.308,0.158 0.485,0.515 -0.185,0.073 -0.845,1.542 -1.981,4.41 l 0.158,0.257 0.159,0 c 1.354,-3.435 2.206,-5.333 2.556,-5.697 1.783,-0.159 4.864,-0.489 9.244,-0.991 l 0.277,-0.168 c -0.003,0.071 0.051,0.132 0.122,0.135 0.016,10e-4 0.032,-0.001 0.047,-0.006 l 0.286,0 0.277,-0.169 c -0.002,0.071 0.052,0.132 0.123,0.135 0.016,0.001 0.032,-10e-4 0.047,-0.005 l 3.428,-0.397 c 0.882,-0.069 1.287,-0.336 1.258,-0.792 0,-0.118 0.505,-0.257 1.556,-0.406 0.155,-0.002 0.311,0.025 0.457,0.08 0,-0.08 0.514,-0.169 1.564,-0.258 0,-0.555 0.198,-0.853 0.515,-0.882 l 0,-0.269 c -0.337,0.039 -0.67,0.116 -0.99,0.228 -0.443,-0.004 -0.886,-0.058 -1.317,-0.158 -0.131,0.083 -0.274,0.14 -0.427,0.168 l -2.308,0.069 -0.278,0.149 c 0,-0.086 -0.056,-0.122 -0.168,-0.109 l -0.129,0 -0.297,0.149 c 0,-0.08 -0.247,-0.149 -0.733,-0.208 l -0.297,0.179 -0.574,0 0,-0.09 c 2.972,-0.324 4.438,-0.726 4.397,-1.208 0.139,-0.034 0.278,0.052 0.312,0.19 0.005,0.025 0.008,0.052 0.006,0.078 l 0.872,-0.218 0,-0.269 -7.113,0.199 c 0,0.089 0,0.149 -0.139,0.158 l -0.873,-0.069 c -0.2,0.012 -0.392,0.08 -0.555,0.199 l -0.326,-0.12 c -0.67,0.042 -1.334,0.151 -1.982,0.327 -0.658,-0.052 -1.321,-0.052 -1.98,0 l -1.596,0.139 -0.843,-0.099 c 0,-0.475 0.883,-2.783 2.766,-6.935 0.277,-0.988 0.803,-1.888 1.525,-2.616 0.157,0.002 0.313,0.04 0.455,0.109 l 1.14,-0.387 0.585,0.09 c 1.171,-0.128 2.32,-0.412 3.418,-0.842 0.249,-0.035 0.505,-0.012 0.743,0.069 l 0.872,-0.208 2.556,-0.179 c 1.219,-0.116 2.421,-0.361 3.588,-0.733 l 0,-0.267 c -0.477,0 -0.734,0 -0.744,-0.228 0,-0.357 -0.377,-0.506 -1.05,-0.456 l 0,-0.267 0.714,-0.208 1.862,-0.159 0,-0.268 c -0.07,0 -0.456,0 -1.149,0 l 0,-0.287 0.723,-0.069 c 0.199,0 0.278,-0.109 0.259,-0.297 -0.992,0 -1.458,0 -1.467,-0.149 -6.758,0.33 -10.146,0.393 -10.166,0.188 -0.153,0.033 -0.298,0.097 -0.426,0.188 L 281.7,53.736 c 1.79,-3.805 2.841,-5.72 3.151,-5.747 -0.018,0.251 -0.093,0.495 -0.219,0.714 l 0,0.119 0.287,0 c 0.715,-1.694 1.309,-2.576 1.813,-2.616 2.121,-0.188 -0.297,-0.327 4.251,-0.991 0.125,0.069 0.264,0.106 0.406,0.109 1.782,-0.363 4.267,-0.74 7.45,-1.129 l 0,-0.267 -1.693,0.158 0,-0.268 c 0.184,-0.014 0.359,-0.083 0.505,-0.198 l 0,0.148 c 0.142,-0.033 0.272,-0.098 0.387,-0.188 0.227,-0.038 0.461,-0.01 0.674,0.078 0.468,-0.13 0.944,-0.227 1.426,-0.287 l 1.061,-0.099 c 0.258,-0.169 0.377,-0.317 0.366,-0.456 l 0,-0.119 c -0.312,0.024 -0.625,0.003 -0.931,-0.059 -0.017,-0.147 0.088,-0.28 0.234,-0.297 0.001,0 0.002,-10e-4 0.004,-10e-4 l 1.98,-0.188 0.902,-0.228 c 0,0.099 0.059,0.138 0.128,0.138 0.141,-0.033 0.273,-0.097 0.387,-0.188 l 0.148,0 c -0.159,0.35 -0.292,0.71 -0.396,1.08 l -0.257,0 c -0.014,-0.167 -0.064,-0.33 -0.148,-0.475 l -0.129,0 c -2.397,6.687 -3.468,9.798 -5.688,14.931 -0.407,1.308 -0.743,2.041 -1.04,2.2 -0.003,0.114 0.087,0.21 0.202,0.213 0.019,0 0.037,-0.002 0.056,-0.006 0.05,0.669 -0.109,1.338 -0.457,1.912 -0.989,2.973 -1.703,4.568 -2.061,4.866 l 0.101,1.327 c 0.016,0.12 -0.068,0.229 -0.188,0.246 -0.011,0.002 -0.021,0.002 -0.031,0.002 l -0.238,0 c 0,-0.387 -0.178,-0.574 -0.426,-0.545 l -0.129,0 c -0.331,0.523 -0.574,1.1 -0.714,1.705 l 0.238,0 c 0.281,-0.14 0.455,-0.43 0.445,-0.744 l 0.476,0 0.277,0.099 c -0.187,0.242 -0.294,0.537 -0.307,0.842 l 0.129,0.218 -0.317,0.743 0,0.12 c 0.321,-0.013 0.638,0.077 0.902,0.257 0.265,-0.037 0.518,-0.139 0.732,-0.297 0.277,0 1.309,0 3.093,0 l 0.891,-0.307 c 0.737,0.016 1.475,-0.007 2.21,-0.069 l 0.387,0 0.208,-0.139 0,0.119 c 0.607,-0.069 1.223,-0.045 1.822,0.069 l 0,0.119 -0.545,0 0,0.228 c 0.159,-0.01 0.312,-0.068 0.436,-0.168 0.139,0 0.218,0.069 0.229,0.228 -0.253,0.028 -0.503,0.084 -0.743,0.169 l -0.237,-0.08 c -0.377,0.099 -0.297,0.128 -0.556,0.149 l -0.376,-0.069 c 0.011,0.048 -0.019,0.095 -0.066,0.106 -0.008,0.002 -0.015,0.003 -0.022,0.003 -0.008,0.109 0.076,0.203 0.185,0.21 0.016,0 0.028,0 0.043,-0.002 l 0.387,0 1.98,-0.178 0.764,-0.169 c 0,0.07 0,0.1 0.099,0.09 l 0.367,-0.139 0.693,-0.059 c 0.535,0 0.525,-0.08 1.694,-0.268 0,-0.07 0,-0.1 0.069,-0.109 l 0,0.098 c 0.807,-0.108 1.604,-0.273 2.388,-0.496 l 0,0.059 c 0.476,-0.108 0.208,-0.078 0.337,-0.177 0,0.079 0,0.118 0.079,0.118 l 0.337,0 0,-0.248 -0.673,0 0,0 -0.07,0 -0.089,0 0,0 c -0.248,0.047 -0.501,0.066 -0.753,0.06 l -1.694,0.089 0,-0.12 0.99,-0.128 0.338,0 0.197,-0.139 0,0.119 c 1.328,-0.109 1.804,0.217 7.926,-1.09 0.338,0 0.308,-0.307 0.517,-0.881 -0.113,0.009 -0.228,-0.015 -0.328,-0.069 -0.575,0.14 -1.161,0.226 -1.753,0.257 -0.08,0 -0.148,-0.069 -0.179,-0.208 l 0,-0.099 0.99,0 c 0.352,-0.037 0.69,-0.153 0.991,-0.336 0,0.079 -0.197,0.128 -0.079,0.118 l -0.065,-0.069 z m -45.457,0.763 -0.437,0 c 0.146,-0.687 0.379,-1.353 0.694,-1.98 l 0.286,0 c -0.089,0.681 -0.272,1.347 -0.543,1.98 l 0,0 z m 0.526,-2.1 0,-0.119 c 0,-0.148 0.079,-0.248 0.287,-0.297 l 0,0.119 c 0,0.177 -0.08,0.277 -0.287,0.297 z m 5.805,4.479 0,0.118 -0.724,0.069 0,-0.118 0.724,-0.069 z m -0.873,-0.07 c 0,0.148 -0.207,0.317 -0.693,0.475 l -0.881,-0.069 -0.288,0 0,-0.267 1.893,-0.179 -0.031,0.04 z m 5.827,-26.861 -0.436,0 0,-0.149 c 0,-0.148 0.069,-0.248 0.259,-0.297 l 0.157,0 0.297,0.119 c 0.022,0.141 -0.073,0.273 -0.214,0.295 -0.017,0.002 -0.035,0.003 -0.053,0.003 l -0.01,0.029 z m 6.599,-1.288 0.139,0 0,0.267 -0.396,0 c -0.018,-0.146 0.088,-0.279 0.233,-0.297 0.002,0 0.003,0 0.004,0 l 0.02,0.03 z m -1.645,0.574 -0.653,-0.069 0,-0.128 c 0.559,-0.034 1.109,-0.133 1.645,-0.297 0,0.099 0.1,0.139 0.268,0.118 l 0,0.269 -0.257,0 c -0.182,0.024 -0.364,-0.008 -0.525,-0.09 -0.151,0.103 -0.324,0.167 -0.506,0.188 l 0.028,0.009 z m 0.822,2.389 0,-0.119 1.06,-0.1 0,0.12 -1.06,0.099 z m 1.101,-0.902 0,-0.148 0.515,0 0,0.148 -0.515,0 z m 0.118,-1.813 -0.139,0 0.12,-0.288 1.179,-0.109 0,0.149 c -0.396,0.046 -0.787,0.126 -1.169,0.238 l 0.009,0.01 z m 0.605,2.546 0,-0.267 0.514,0 c 0.18,0 0.272,0.083 0.278,0.248 l -0.772,0.069 -0.02,-0.05 z m 3.13,-4.261 -0.663,0.189 -0.159,0 c -0.399,0.035 -0.8,0.035 -1.198,0 0.862,-0.06 1.685,-0.12 1.981,-0.168 l 0.039,-0.021 z m -0.713,2.973 0,0.12 -0.912,0.08 0,-0.12 0.912,-0.08 z m 1.496,0.714 c 0,-0.109 -0.188,-0.189 -0.545,-0.218 l -0.911,0.258 -0.704,0 c -0.159,-0.109 -0.237,-0.188 -0.248,-0.238 l 0.813,0 1.823,-0.297 0.932,0 0,0.148 c -0.396,0.034 -0.79,0.114 -1.169,0.238 l 0.009,0.109 z m 9.403,-2.428 0.208,0 c 0.316,-0.314 0.69,-0.567 1.1,-0.744 -0.202,1.205 -0.742,2.329 -1.555,3.241 l -0.516,-0.317 c 0.306,-0.715 0.56,-1.45 0.763,-2.199 l 0,0.019 z m -1.586,2.725 0.13,0 c -0.179,0.336 -0.337,0.506 -0.466,0.515 l 0,-0.347 c 0.131,-0.021 0.253,-0.076 0.356,-0.158 l -0.02,-0.01 z m -0.99,2.448 c 0.079,-0.623 0.325,-1.211 0.712,-1.705 l 0,0.119 c -0.127,0.922 -0.337,1.417 -0.603,1.447 l 0,0.584 c -0.183,0.207 -0.293,0.468 -0.318,0.743 l -0.129,0 -0.069,-0.803 c 0.149,0 0.269,-0.148 0.347,-0.386 l 0.06,0 z m -0.396,1.327 c -0.038,0.342 -0.129,0.676 -0.268,0.99 l -0.13,0 0,-0.346 c 0.179,-0.407 0.328,-0.615 0.427,-0.615 l -0.029,-0.029 z m -7.451,21.618 0,-0.099 0.237,0 0,0.347 c -0.128,0 -0.217,-0.069 -0.258,-0.228 l 0.021,-0.02 z m 10.64,0.278 c 0,-0.079 0,-0.118 -0.128,-0.108 l -0.604,0.059 0,-0.119 0.059,0 1.338,-0.198 0,0.12 c -0.26,-0.021 -0.52,0.042 -0.743,0.177 l 0.078,0.069 z m -0.713,-0.297 c 0.06,0 0,0.059 0,0.069 0,0.01 -0.069,0 0,-0.069 z m 0.07,-1.665 -0.793,0.069 0,-0.158 0.724,-0.069 0.624,-0.159 c 0,0.069 0,0.099 0.13,0.089 0.742,-0.129 0.673,-0.168 0.99,-0.199 0.119,0 0.198,0.069 0.208,0.208 l -1.913,0.169 0.03,0.05 z m 2.774,-0.237 C 306.702,68.02 306.44,68 306.178,68.012 l 0,-0.09 0.713,-0.069 0,0.069 c -0.069,0 0.198,0 0.069,0.12 l 0,0.03 z m 0.059,-0.129 0,-0.099 0.387,0 0,0.099 -0.387,0 z m 0.862,-0.069 0,-0.099 c 0.104,-0.028 0.198,-0.079 0.277,-0.149 0.151,-0.022 0.293,0.083 0.314,0.234 0.002,0.008 0.002,0.016 0.004,0.023 l -0.595,-0.009 z m 1.101,-0.139 0,-0.119 0.476,0 0,0.119 -0.476,0 z m 0.653,-0.059 c 0,-0.139 0,-0.218 0.169,-0.239 l 0.158,0.208 c -0.012,-0.047 0.018,-0.096 0.064,-0.107 0.002,-10e-4 0.004,-10e-4 0.006,-10e-4 l 0.118,0.217 -0.516,-0.069 0,-0.009 z m 9.086,-1.071 0,0 0,0 z m 0.169,-0.118 c 0.068,0 0.109,-0.089 -0.07,-0.119 -0.178,-0.03 0.089,0.119 -0.089,0.129 l 0,0.079 0.099,-0.069 -0.099,0.08 0,0 -0.198,0.248 0.387,-0.139 0,0 0,-0.228 -0.03,0.019 z m 0.673,0.525 -0.069,0 0,0.228 0.545,0 c 0,-0.149 -0.366,-0.198 -0.485,-0.198 l 0.009,-0.03 z"
         id="path4368" />
    </g>
  </g>
  <g
     style="display:none"
     id="layer3">
    <g
       transform="matrix(0.11,0,0,0.11,-21.37505,-0.03989)"
       id="g4394">
      <path
         d="m 210.529,5.092 0,63.716 47.426,27.033 0,-18.376 -31.728,-18.085 0,-28.408 31.727,18.086 0,-16.932 -47.425,-27.034 0,0 z"
         id="path4380" />
      <path
         d="m 305.381,5.092 0,63.716 -47.426,27.033 0,-18.376 31.727,-18.084 0,-28.409 -31.727,18.086 0,-16.932 47.426,-27.034 0,0 z"
         id="path4382" />
      <path
         d="m 210.529,122.906 0,-63.716 47.426,-27.035 0,18.378 -31.727,18.083 0,26.964 31.727,-18.085 0,18.377 -47.426,27.034 0,0 z"
         id="path4384" />
      <path
         d="m 305.381,122.906 0,-63.716 -47.426,-27.035 0,18.378 31.727,18.083 0,26.964 -31.727,-18.085 0,18.377 47.426,27.034 0,0 z"
         id="path4386" />
    </g>
  </g>
  <g
     style="display:none"
     id="layer4">
    <g
       transform="matrix(0.11,0,0,0.11,-21.375105,-0.04005499)"
       id="g4401">
      <path
         d="m 257.956,7.96 0,0.002 0,-0.002 c -26.69,0 -48.538,7.184 -48.538,16.104 0,2.349 5.827,36.036 8.138,49.396 1.036,5.99 16.512,14.775 40.382,14.775 l 0.018,-0.071 0,0.071 c 24.021,0 39.359,-8.785 40.395,-14.778 2.312,-13.358 8.142,-47.045 8.142,-49.393 C 306.492,15.143 284.648,7.959 257.956,7.96 l 0,0 z m 0,69.452 c -8.521,0 -15.429,-6.911 -15.429,-15.431 0,-8.52 6.909,-15.428 15.429,-15.428 8.522,0 15.431,6.908 15.431,15.429 0,8.521 -6.908,15.43 -15.431,15.43 l 0,0 z m -0.008,-48.371 c -17.167,-0.027 -31.08,-3.011 -31.075,-6.665 0.007,-3.653 13.929,-6.592 31.097,-6.564 17.166,0.028 31.08,3.01 31.073,6.665 -0.004,3.652 -13.926,6.589 -31.094,6.563 l -0.001,0.001 z"
         id="path4403" />
      <path
         d="m 292.843,86.846 c -0.738,0 -1.329,0.523 -1.329,0.523 0,0 -11.952,9.467 -33.558,9.467 -21.604,0 -33.556,-9.467 -33.556,-9.467 0,0 -0.592,-0.522 -1.33,-0.522 -0.881,0 -1.717,0.593 -1.717,1.9 0,0.137 0.014,0.275 0.039,0.411 1.855,9.929 3.212,16.984 3.449,18.056 1.62,7.305 15.908,12.827 33.113,12.827 l 0.002,0 c 17.209,0 31.497,-5.522 33.116,-12.827 0.238,-1.071 1.593,-8.122 3.449,-18.051 0.025,-0.136 0.038,-0.276 0.038,-0.414 0,-1.307 -0.836,-1.901 -1.717,-1.901 l 0,-0.002 z"
         id="path4405" />
      <circle
         cx="257.94199"
         cy="61.977001"
         r="7.7319999"
         id="circle4407" />
    </g>
  </g>
  <g
     style="display:inline"
     id="layer5">
    <g
       transform="matrix(0.11,0,0,0.11,-21.375105,-0.04)"
       id="plain">
      <path
         d="m 198.981,73.216 0,18.367 c 0,10.167 26.394,18.404 58.97,18.404 l 0,-18.405 c -32.576,0 -58.97,-8.217 -58.97,-18.366 z"
         id="path4423" />
      <path
         d="m 257.951,54.812 46.129,11.413 c 8.027,-3.139 12.85,-7.134 12.85,-11.413 l 0,-18.395 c 0,-10.158 -26.403,-18.404 -58.97,-18.404 -32.566,0 -58.979,8.218 -58.979,18.404 l 0,18.395 c 0,10.139 26.394,18.403 58.97,18.403 l 0,-18.403 z"
         id="path4425" />
      <path
         d="m 304.071,84.677 -46.12,-11.462 0,18.367 46.129,11.461 c 8.018,-3.11 12.84,-7.096 12.84,-11.461 l 0,-18.366 c 0,4.327 -4.822,8.313 -12.849,11.461 z"
         id="path4427" />
    </g>
  </g>
</svg>
