<?xml version="1.0" encoding="utf-8"?>
<!-- Generator: Adobe Illustrator 19.1.0, SVG Export Plug-In . SVG Version: 6.00 Build 0)  -->
<svg version="1.1" id="calendar" xmlns="http://www.w3.org/2000/svg" xmlns:xlink="http://www.w3.org/1999/xlink" x="0px" y="0px"
	 viewBox="0 0 14 14" style="enable-background:new 0 0 14 14;" xml:space="preserve">
<path d="M14,2.3351202c0-0.5153198-0.4966002-0.9342899-1.0771198-0.9342899h-2.3347397V0.42869
	C10.5881405,0.1932502,10.37045,0,10.1052599,0h-0.0382795c-0.265871,0-0.4829102,0.1932502-0.4829102,0.42869v0.9721398H4.5044703
	V0.42869C4.5044699,0.1932502,4.2874298,0,4.0215502,0H3.9839301C3.7180901,0,3.50105,0.1932502,3.50105,0.42869v0.9721398
	H1.0771501C0.4965999,1.4008198,0,1.8202701,0,2.3355899v1.6138997l14-0.0004702V2.3351202z M3.9806399,3.46455
	C3.4555101,3.46455,3.03,3.0862498,3.03,2.6206698c0-0.3109698,0.1893301-0.5821099,0.47105-0.7285099v0.63131
	c0,0.23599,0.2170401,0.4286599,0.4828801,0.4286599h0.0376201c0.2658796,0,0.4829197-0.1926699,0.4829197-0.4286599V1.9161801
	c0.2572699,0.1510801,0.4268103,0.4099298,0.4268103,0.7044902C4.9312801,3.0862498,4.5057697,3.46455,3.9806399,3.46455z
	 M10.0636902,3.46455c-0.5244799,0-0.9506397-0.3783002-0.9506397-0.8438802c0-0.3109698,0.1893291-0.5821099,0.4710197-0.7285099
	v0.63131c0,0.23599,0.2170401,0.4286599,0.4829197,0.4286599h0.038271c0.2651901,0,0.4828796-0.1926699,0.4828796-0.4286599V1.91675
	c0.25665,0.1510801,0.4261999,0.4099302,0.4261999,0.7039099C11.0143299,3.0862498,10.5888195,3.46455,10.0636902,3.46455z
	 M0,4.4169998v8.6437798C0,13.5761395,0.4965999,14,1.0771199,14h11.8457298C13.5033998,14,14,13.5756607,14,13.0603104V4.4165297
	L0,4.4169998z M3.5107999,13.1526108H0.98212v-2.2253799h2.5286798V13.1526108z M3.5107999,10.3222904H0.98212V8.0969105h2.5286798
	V10.3222904z M3.5107999,7.4919701H0.98212V5.2665901h2.5286798V7.4919701z M6.68467,13.1526108H4.1560001v-2.2253799H6.68468
	v2.2253799H6.68467z M6.68467,10.3222904H4.1560001V8.0969105H6.68468v2.2253799H6.68467z M6.68467,7.4919701H4.1560001V5.2665901
	H6.68468v2.2253799H6.68467z M9.8591595,13.1526108H7.3298597v-2.2253799h2.5292997
	C9.8591595,10.9272308,9.8591595,13.1526108,9.8591595,13.1526108z M9.8591595,10.3222904H7.3298597V8.0969105h2.5292997
	C9.8591595,8.0969105,9.8591595,10.3222904,9.8591595,10.3222904z M9.8591595,7.4919701H7.3298597V5.2665901h2.5292997
	C9.8591595,5.2665901,9.8591595,7.4919701,9.8591595,7.4919701z M13.0330296,13.1526108h-2.5293293v-2.2253799h2.5293293V13.1526108
	z M13.0330296,10.3222904h-2.5293293V8.0969105h2.5293293V10.3222904z M13.0330296,7.4919701h-2.5293293V5.2665901h2.5293293
	V7.4919701z"/>
</svg>
