<?xml version="1.0" encoding="utf-8"?>
<!-- Generator: Adobe Illustrator 19.1.0, SVG Export Plug-In . SVG Version: 6.00 Build 0)  -->
<svg version="1.1" id="change-passcode" xmlns="http://www.w3.org/2000/svg" xmlns:xlink="http://www.w3.org/1999/xlink" x="0px"
	 y="0px" viewBox="0 0 14 14" style="enable-background:new 0 0 14 14;" xml:space="preserve">
<path d="M11.4270277,9.1189251c-0.6053972,0-1.0594568-0.4540596-1.0594568-1.0594568s0.4540596-1.0594568,1.0594568-1.0594568
	s1.0594559,0.4540596,1.0594559,1.0594568S12.0324249,9.1189251,11.4270277,9.1189251z M7.2648582,8.0594683
	c0,0.6053972,0.4540596,1.0594568,1.0594568,1.0594568s1.0594568-0.4540596,1.0594568-1.0594568
	S8.9297123,7.0000114,8.3243151,7.0000114C7.7945981,6.9999886,7.2648582,7.4540477,7.2648582,8.0594683z M9.7240686,4.1687155
	c0.1513615-0.151361,0.194726-0.4252217,0.0433884-0.5765827C9.6929474,3.5297182,8.7167234,2.5615926,8.200738,2.0300987
	c-0.1117125-0.1082237-0.2270184-0.151361-0.3783793-0.151361c-0.1513605,0-0.2313724,0.0392157-0.3783789,0.151361
	C7.0656009,2.4084775,6.8385825,2.6354957,6.535861,2.9382174C6.4601808,3.0138979,6.4601808,3.0138979,6.4601808,3.0138979
	L6.535861,3.0895782c0.7567577,0.7567582,1.3571906,1.3539701,2.1139488,2.1107283L9.7240686,4.1687155z M5.2216024,9.1189251
	c0.6053972,0,1.0594568-0.4540596,1.0594568-1.0594568V7.9837875C5.9026799,8.3621664,5.5243011,8.7405453,5.1459222,9.1189251
	C5.1459451,9.1189251,5.2216024,9.1189251,5.2216024,9.1189251z M0.8324153,8.435379
	C0.8324153,8.435379,0.9080958,8.435379,0.8324153,8.435379c0.756758,0.7567587,1.4378357,1.4378357,2.1945937,2.1945944
	c0,0,0,0,0.0756803,0.0756798c0.5297399-0.5297394,1.1351371-1.1351366,1.7405343-1.6648769
	c0.4540596-0.4540586,0.9081187-0.9081182,1.362155-1.362155C6.9621367,6.9218636,7.6432142,6.2407861,8.399972,5.4840279l0,0
	C7.7188945,4.8029504,6.9621367,4.0461922,6.2053785,3.2894342l0,0C6.054018,3.4407952,5.9026799,3.5921328,5.7513194,3.7434938
	c-0.2270184,0.2270181-0.5297399,0.5297396-0.7567582,0.756758C3.5567489,5.7110691,2.1945705,7.0732241,0.8324153,8.435379z
	 M13.318922,3.6702578h-2.9513512h-0.3026991c0.0756807,0.2270181,0,0.5297401-0.2270174,0.756758l0,0h0.0756798h3.1783934
	c0,0,0.0756798,0,0.0756798,0.0756803v6.962183c0,0,0,0.0756807-0.0756798,0.0756807H1.5891733H1.5134929l-0.0756805,0.0756798
	v0.5297403c0,0.0756807,0.0756805,0.0756807,0.2270182,0.0756807h11.8054295C13.7729588,12.2216606,14,11.9946423,14,11.6919203
	V4.0486598C14,3.8972991,13.7729816,3.6702578,13.318922,3.6702578z M0.1513377,7.7567463h0.5297399
	c0,0,0.0756804,0,0.0756804-0.0756803V4.5783534c0,0,0-0.0756803,0.0756804-0.0756803h3.7081094l0.7567582-0.756758H0.5297399
	C0.2270413,3.7459152,0,3.9729333,0,4.2756548v3.4810915C0.0756573,7.6810889,0.0756573,7.7567463,0.1513377,7.7567463z
	 M2.7243104,11.0840321c-0.7567581-0.7567577-1.5135161-1.5135155-2.2702742-2.2702732
	c-0.0756804,0.4540586-0.1513608,0.9081182-0.2270182,1.362155C0.1513377,10.5542927,0.0756573,11.0083523,0,11.3867311l0,0l0,0l0,0
	c0,0.0756807,0,0.0756807,0.1513608,0.0756807c0.756758-0.1513615,1.6648768-0.2270184,2.4216349-0.3783798
	C2.6486299,11.0840321,2.6486299,11.0840321,2.7243104,11.0840321z"/>
</svg>
