<?xml version="1.0" encoding="utf-8"?>

<!--
 * Copyright (c) 2015, WSO2 Inc. (http://www.wso2.org) All Rights Reserved.
 *
 * WSO2 Inc. licenses this file to you under the Apache License,
 * Version 2.0 (the "License"); you may not use this file except
 * in compliance with the License.
 * You may obtain a copy of the License at
 *
 * http://www.apache.org/licenses/LICENSE-2.0
 *
 * Unless required by applicable law or agreed to in writing,
 * software distributed under the License is distributed on an
 * "AS IS" BASIS, WITHOUT WARRANTIES OR CONDITIONS OF ANY
 * KIND, either express or implied. See the License for the
 * specific language governing permissions and limitations
 * under the License.
-->

<svg version="1.1" id="chat" xmlns="http://www.w3.org/2000/svg" xmlns:xlink="http://www.w3.org/1999/xlink" x="0px" y="0px"
	 viewBox="0 0 14 14" style="enable-background:new 0 0 14 14;" xml:space="preserve">
<path d="M0.59111,12.98232c0.09031-0.33281,0.19439-0.64881,0.2598-0.97264c0.10731-0.53126,0.02291-1.02244-0.30589-1.47881
	c-0.82761-1.1487-0.6994-2.61431,0.2943-3.62732C1.56495,6.16382,2.45976,5.76053,3.4707,5.61432
	c1.28775-0.18624,2.50884,0.01761,3.61893,0.72365c0.69224,0.44028,1.22112,1.02511,1.46641,1.82734
	c0.27951,0.91417,0.09673,1.75047-0.47331,2.50015c-0.6072,0.79855-1.44265,1.24883-2.40012,1.48466
	c-0.93557,0.23044-1.87031,0.21104-2.80089-0.04599c-0.08322-0.02299-0.19125-0.01492-0.27122,0.01841
	c-0.62911,0.2622-1.25417,0.53412-1.88055,0.80286C0.68409,12.94508,0.63761,12.9633,0.59111,12.98232z M1.93939,5.85267
	c0.20284-0.09559,0.24699-0.18478,0.30196-0.45474c0.01055-0.0518,0.01561-0.1093,0.02762-0.16344
	c0.12253-0.55231,0.40504-1.01981,0.77359-1.43898c0.60137-0.68395,1.34068-1.17866,2.16799-1.54394
	c0.73744-0.3256,1.50778-0.5286,2.31953-0.51176c1.05399,0.02186,2.06215,0.26159,3.01625,0.70956
	c0.89104,0.41837,1.65822,0.98727,2.14006,1.87378c0.40858,0.75172,0.51696,1.54507,0.28417,2.37387
	c-0.17197,0.61227-0.49615,1.14745-0.87469,1.651c-0.15087,0.20069-0.23218,0.42183-0.25748,0.6689
	c-0.04066,0.39708,0.0083,0.78697,0.09155,1.17364c0.04414,0.20502,0.09941,0.40764,0.15492,0.63272
	c-0.06473-0.03156-0.10959-0.05179-0.15297-0.07483c-0.52642-0.27961-1.05202-0.56078-1.57989-0.83765
	c-0.04881-0.0256-0.11472-0.04211-0.16746-0.03289c-0.35787,0.06257-0.71274,0.14411-1.07191,0.19683
	C8.91805,10.10331,8.78734,10.16153,8.7,10.35865c-0.08219,0.1855-0.2279,0.3432-0.34843,0.51115
	c-0.03673,0.05118-0.0826,0.0958-0.14218,0.16387c0.55536-0.04172,1.06841-0.13956,1.57301-0.29123
	c0.08188-0.02461,0.19096-0.01646,0.27032,0.01709c0.98617,0.41701,1.96913,0.8416,2.95308,1.26387
	c0.04787,0.02054,0.09725,0.03755,0.14924,0.05748c-0.11035-0.33328-0.229-0.64475-0.31656-0.96472
	c-0.27514-1.00545-0.24992-1.95509,0.44035-2.82728c0.37865-0.47845,0.58111-1.06009,0.67259-1.66942
	c0.17179-1.14435-0.1166-2.17746-0.79443-3.09973c-0.68074-0.92623-1.59757-1.553-2.65877-1.96401
	C8.98697,0.97041,7.43081,0.87154,5.85093,1.21577C4.43857,1.5235,3.19961,2.15599,2.2261,3.24916
	c-0.6104,0.68543-0.9929,1.48249-1.10454,2.39775c-0.0258,0.21147-0.00381,0.42877-0.00381,0.64597
	C1.39047,6.14511,1.65842,5.98508,1.93939,5.85267z"/>
</svg>
