<?xml version="1.0" encoding="utf-8"?>
<!-- Generator: Adobe Illustrator 19.1.0, SVG Export Plug-In . SVG Version: 6.00 Build 0)  -->
<svg version="1.1" id="checklist" xmlns="http://www.w3.org/2000/svg" xmlns:xlink="http://www.w3.org/1999/xlink" x="0px" y="0px"
	 viewBox="0 0 14 14" style="enable-background:new 0 0 14 14;" xml:space="preserve">
<path d="M13.2900391,5.81633H5.8900299c-0.3999939,0-0.7999878,0.3000031-0.7999878,0.8000031v0.3000031
	c0,0.3999939,0.2999878,0.8000031,0.7999878,0.8000031h7.3000031c0.4000092,0,0.8000031-0.3000031,0.8000031-0.8000031V6.616333
	C14.0900421,6.116333,13.690033,5.81633,13.2900391,5.81633z M3.7362366,6.1668854L2.1651154,7.6211548L1.6508942,8.0971222
	L1.6463776,8.1013031c-0.059433,0.0550232-0.1521606,0.0514374-0.2071381-0.0079498L1.4350128,8.0887756L0.9633179,7.5791779
	L0.1148224,6.6625061C0.059845,6.6031189,0.0634308,6.5103912,0.1228638,6.4553833l0.5187378-0.4801636
	C0.701004,5.9202423,0.7937164,5.9238281,0.8486938,5.9832306L1.5933685,6.787735l1.4635773-1.3547211
	c0.0619507-0.0573425,0.1586304-0.0536041,0.2159729,0.0083313l0.4716949,0.509613
	C3.8019562,6.0128937,3.7981873,6.1095428,3.7362366,6.1668854z M13.2900391,1.4670105H5.8900299
	c-0.3999939,0-0.7999878,0.3000031-0.7999878,0.8000031v0.2999878c0,0.4000092,0.2999878,0.8000031,0.7999878,0.8000031h7.3000031
	c0.4000092,0,0.8000031-0.3000031,0.8000031-0.8000031V2.2670135C14.0900421,1.7670135,13.690033,1.4670105,13.2900391,1.4670105z
	 M3.7362366,1.8175507L2.1651154,3.2718201L1.6508942,3.7477875L1.6463776,3.7519684
	c-0.059433,0.0550232-0.1521606,0.0514374-0.2071381-0.0079498L1.4350128,3.7394562l-0.4716949-0.509613L0.1148224,2.3131866
	C0.059845,2.2537842,0.0634308,2.1610718,0.1228638,2.1060486l0.5187378-0.4801483
	C0.701004,1.5709229,0.7937164,1.5744934,0.8486938,1.6338959l0.7446747,0.8045044l1.4635773-1.3547211
	c0.0619507-0.0573425,0.1586304-0.0536041,0.2159729,0.0083466l0.4716949,0.5095978
	C3.8019562,1.6635742,3.7981873,1.7602081,3.7362366,1.8175507z M13.2900391,10.1656647H5.8900299
	c-0.3999939,0-0.7999878,0.3000031-0.7999878,0.8000031v0.3000031c0,0.3999939,0.2999878,0.8000031,0.7999878,0.8000031h7.3000031
	c0.4000092,0,0.8000031-0.3000031,0.8000031-0.8000031v-0.3000031
	C14.0900421,10.4656677,13.690033,10.1656647,13.2900391,10.1656647z M1.8362274,12.9570007
	c-1.015625,0-1.8417969-0.8261719-1.8417969-1.8418274c0-1.0146484,0.8261719-1.8408203,1.8417969-1.8408203
	c1.0151367,0,1.8413086,0.8261719,1.8413086,1.8408203C3.677536,12.1308289,2.8513641,12.9570007,1.8362274,12.9570007z
	 M1.8362274,10.274353c-0.4643555,0-0.8417969,0.3769531-0.8417969,0.8408203s0.3774414,0.8417969,0.8417969,0.8417969
	c0.4638672,0,0.8413086-0.3779297,0.8413086-0.8417969S2.3000946,10.274353,1.8362274,10.274353z"/>
</svg>
