<?xml version="1.0" encoding="utf-8"?>
<!-- Generator: Adobe Illustrator 19.2.0, SVG Export Plug-In . SVG Version: 6.00 Build 0)  -->
<svg version="1.1" id="checklist" xmlns="http://www.w3.org/2000/svg" xmlns:xlink="http://www.w3.org/1999/xlink" x="0px" y="0px"
	 viewBox="0 0 14 14" style="enable-background:new 0 0 14 14;" xml:space="preserve">
<path d="M1.5955447,4.0005236L0,2.1012409l0.8254088-0.6938066l0.8975267,1.0686097l2.1982827-1.8734885l0.6990707,0.8201448
	L1.5955447,4.0005236z M4.6202888,5.725544L3.9212182,4.9053993L1.7229356,6.7788877L0.8254088,5.710278L0,6.4040847
	l1.5955447,1.8992829L4.6202888,5.725544z M3.6544616,9.7429829H0v3.6544619h3.6544616V9.7429829z M0.9529333,10.6959162h1.7485952
	v1.7485952H0.9529333V10.6959162z M14,1.5053811H6.3301954V2.799083H14V1.5053811z M14,6.3868833H6.3301954v1.2937021H14V6.3868833z
	 M14,11.2683859H6.3301954v1.2937012H14V11.2683859z"/>
</svg>
