<?xml version="1.0" encoding="UTF-8" standalone="no"?>

<!--
 ~   Copyright 2017, WSO2 Inc. (http://www.wso2.com)
 ~
 ~   Licensed under the Apache License, Version 2.0 (the "License");
 ~   you may not use this file except in compliance with the License.
 ~   You may obtain a copy of the License at
 ~
 ~        http://www.apache.org/licenses/LICENSE-2.0
 ~
 ~   Unless required by applicable law or agreed to in writing, software
 ~   distributed under the License is distributed on an "AS IS" BASIS,
 ~   WITHOUT WARRANTIES OR CONDITIONS OF ANY KIND, either express or implied.
 ~   See the License for the specific language governing permissions and
 ~   limitations under the License.
-->

<svg
   xmlns:dc="http://purl.org/dc/elements/1.1/"
   xmlns:cc="http://creativecommons.org/ns#"
   xmlns:rdf="http://www.w3.org/1999/02/22-rdf-syntax-ns#"
   xmlns:svg="http://www.w3.org/2000/svg"
   xmlns="http://www.w3.org/2000/svg"
   version="1.1"
   id="chrome"
   viewBox="0 0 14 14"
   height="14"
   width="14">
  <defs
     id="defs4" />
  <metadata
     id="metadata7">
    <rdf:RDF>
      <cc:Work
         rdf:about="">
        <dc:format>image/svg+xml</dc:format>
        <dc:type
           rdf:resource="http://purl.org/dc/dcmitype/StillImage" />
        <dc:title></dc:title>
      </cc:Work>
    </rdf:RDF>
  </metadata>
  <style
     type="text/css"
     id="style4988">
	.st0{fill:#FFFFFF;}
</style>
  <style
     type="text/css"
     id="style5049">
	.st0{fill:#FFFFFF;}
</style>
  <style
     type="text/css"
     id="style5067">
	.st0{clip-path:url(#SVGID_2_);}
</style>
  <style
     type="text/css"
     id="style5111">
	.st0{fill:#CECDB7;}
	.st1{fill:#4FAA41;}
</style>
  <style
     type="text/css"
     id="style5194">
	.st0{fill:#A1A1A4;}
	.st1{fill:#EFF3F3;}
	.st2{fill:#FFFFFF;}
</style>
  <style
     type="text/css"
     id="style5252">
	.st0{fill:#FFFFFF;}
	.st1{fill:none;stroke:#FFFFFF;stroke-width:3;stroke-linecap:round;stroke-linejoin:round;}
</style>
  <g
     transform="matrix(0.11,0,0,0.11,-26.015565,-72.013214)"
     id="g5291" />
  <style
     type="text/css"
     id="style5296">
	.st0{opacity:0.444;fill:url(#SVGID_1_);enable-background:new    ;}
</style>
  <style
     type="text/css"
     id="style5371">
	.st0{fill:none;stroke:#FFFFFF;}
	.st1{fill:#FFFFFF;}
</style>
  <style
     type="text/css"
     id="style5401">
	.st0{fill:#FEFEFE;}
</style>
  <style
     type="text/css"
     id="style5421">
	.st0{fill:#FFFFFF;}
</style>
  <style
     type="text/css"
     id="style5508">
	.st0{fill:#FFFFFF;}
</style>
  <g
     style="display:inline"
     id="layer6">
    <g
       transform="matrix(0.11,0,0,0.11,-21.353022,-0.03993635)"
       id="g4600">
      <circle
         style="fill:#ffffff"
         cx="257.89999"
         cy="64.231003"
         r="59.777"
         id="circle4584" />
      <circle
         style="fill:#09090a"
         cx="257.89999"
         cy="64.230003"
         r="22.281"
         id="circle4586" />
      <path
         style="fill:#09090a"
         d="M 312.241,36.572 C 297.282,6.472 260.752,-5.802 230.652,9.159 c -9.386,4.666 -17.409,11.674 -23.288,20.35 l 24.454,42.386 c -4.505,-14.313 3.45,-29.569 17.763,-34.072 2.516,-0.792 5.139,-1.213 7.777,-1.249"
         id="path4588" />
      <path
         style="fill:#080809"
         d="m 206.877,30.482 c -18.717,27.92 -11.255,65.727 16.664,84.444 8.638,5.79 18.617,9.271 28.983,10.111 l 25.54,-43.474 c -9.55,11.574 -26.674,13.216 -38.25,3.665 -3.931,-3.242 -6.872,-7.525 -8.484,-12.36"
         id="path4590" />
      <path
         style="fill:#060708"
         d="m 253.496,125.038 c 33.518,2.534 62.744,-22.584 65.278,-56.102 0.817,-10.816 -1.27,-21.65 -6.047,-31.389 l -54.883,0 c 15.005,0.068 27.116,12.289 27.044,27.295 -0.027,6.071 -2.088,11.96 -5.852,16.722"
         id="path4592" />
    </g>
  </g>
  <g
     style="display:none"
     id="layer7">
    <g
       transform="matrix(0.11,0,0,0.11,-0.0345,-0.04090042)"
       id="g5088" />
    <path
       d="m 5.5121551,3.216273 c 1.28139,-0.10945 1.64285,-0.93093 3.14336,-1.07327 0.7337,-0.06578 1.20472,0.08767 1.2485,0.33946 0.0438,0.2409 -0.31746,0.40524 -0.7667,0.43813 -0.61325,0.06578 -0.87615,-0.16423 -0.91982,-0.37235 -0.44913,0.04378 -0.5258,0.24101 -0.50391,0.38335 0.0438,0.26279 0.60247,0.51469 1.54429,0.42713 1.0733799,-0.08767 1.4238399,-0.50391 1.3361699,-0.93093 -0.10956,-0.54769 -0.9309299,-1.00771 -2.4095499,-0.87626 -1.89475,0.17523 -1.88375,1.04049 -3.1652505,1.14994 -0.52558,0.04378 -0.82137,-0.07667 -0.87604,-0.28468 -0.033,-0.20812 0.2189,-0.30679 0.52558,-0.32868 0.28479,-0.02189 0.6243605,0.02189 0.7885905,0.10956 0.12045,-0.06578 0.16434,-0.12056 0.14234,-0.19712 -0.0438,-0.19712 -0.4380205,-0.28479 -0.9309305,-0.24101 -0.95282,0.08767 -0.95282,0.51469 -0.91982,0.70092 0.12034,0.51491 0.85415,0.84348 1.7631905,0.75581 l 0,0 z m 6.4180599,2.16865 c -1.18283,0.27368 -2.6942299,0.44902 -4.5123099,0.44902 -1.85097,0 -3.3623705,-0.19712 -4.5452005,-0.44902 -1.05138,-0.2739 -1.62096,-0.56958 -1.81808,-0.87615 0.0986,0.68992 0.27379,1.35806 0.5038,1.99331 -0.2629,0.16434 -0.51469,0.38335 -0.73380996,0.65714 -0.41624,0.5258 -0.60236,1.13905 -0.56947,1.74152 0.0329,0.60236 0.32857,1.09527 0.79958996,1.47851 0.4928,0.38335 1.0186,0.49291 1.62085,0.38335 0.23001,-0.03289 0.49291,-0.16434 0.72281,-0.23001 -0.4928,0 -0.90904,-0.16423 -1.32517,-0.4928 -0.44913,-0.32857 -0.7667,-0.79959 -0.83237,-1.35817 -0.10956,-0.52569 0,-1.01849 0.29579,-1.44573 0.0657,-0.08767 0.13123,-0.15334 0.20812,-0.21901 0.16423,0.41624 0.36135,0.81048 0.56947,1.19383 0.44902,0.68992 0.90904,1.29239 1.35817,1.93853 0.19712,0.38335 0.32846,0.7667 0.41613,1.13905 0.29568,0.41624 0.72281,0.71203 1.2486105,0.86526 0.64625,0.23001 1.32517,0.31757 2.0152,0.31757 l 0.0767,0 c 0.68992,0 1.41284,-0.10945 2.08087,-0.32857 0.4927999,-0.16423 0.9091499,-0.43813 1.2157199,-0.87626 l 0.0329,0 c 0.0766,-0.32857 0.19712,-0.7447 0.38335,-1.12805 0.44902,-0.64614 0.90904,-1.2485 1.35806,-1.93853 0.60247,-1.09527 1.01871,-2.34388 1.24861,-3.68005 -0.23012,0.32857 -0.79981,0.63514 -1.8183,0.86526 l 0,0 z M 2.8727046,4.431993 c 1.18283,0.29568 2.6943405,0.44902 4.5123105,0.44902 1.85086,0 3.3294799,-0.16423 4.5123099,-0.44902 1.2485,-0.29579 1.85086,-0.68992 1.85086,-1.05138 0,-0.27379 -0.27368,-0.5258 -0.7667,-0.72292 0.10945,0.07667 0.19712,0.19712 0.19712,0.32868 0,0.38335 -0.56947,0.68992 -1.70841,0.94193 -1.05149,0.2299 -2.4095499,0.39413 -4.0523999,0.39413 -1.58818,0 -3.0009105,-0.16434 -4.0195105,-0.38324 -1.09527,-0.2739 -1.67585,-0.56958 -1.67585,-0.94204 0,-0.16423 0.0768,-0.29568 0.29579,-0.44902 -0.68992,0.2739 -1.05148996,0.4928 -1.05148996,0.83237 0.0331,0.38335 0.64646996,0.7667 1.90596996,1.05149 l 0,0 z"
       id="path4608" />
  </g>
</svg>
