<?xml version="1.0" encoding="utf-8"?>
<!-- Generator: Adobe Illustrator 19.1.0, SVG Export Plug-In . SVG Version: 6.00 Build 0)  -->
<svg version="1.1" id="clear-passcode" xmlns="http://www.w3.org/2000/svg" xmlns:xlink="http://www.w3.org/1999/xlink" x="0px"
	 y="0px" viewBox="0 0 14 14" style="enable-background:new 0 0 14 14;" xml:space="preserve">
<path d="M14,4.8222089v6.4484849c0,0.1980009-0.1626129,0.3606138-0.3606129,0.3606138H8.3787756
	c0.2545786-0.197958,0.530304-0.431303,0.8131495-0.7070713h4.1010036V5.1686668H8.9090796
	C8.4353533,4.9424419,7.9757833,4.694941,7.6575928,4.4615955h5.9817944C13.8373871,4.4615955,14,4.6242514,14,4.8222089z
	 M12.2535553,8.9302902c0.4878807,0,0.8838387-0.3959579,0.8838387-0.8838387s-0.3959579-0.8838391-0.8838387-0.8838391
	c-0.233346,0-0.4454584,0.0848451-0.601037,0.2333455c-0.1767673,0.1626129-0.2898798,0.3959584-0.2898798,0.6504936
	c0,0.0141554,0,0.0283108,0.0070772,0.0424223C11.3838282,8.5555649,11.7727518,8.9302902,12.2535553,8.9302902z
	 M8.1242409,10.9242363c-0.3888807,0.3181906-0.728261,0.5515366-0.9686842,0.7070713
	c-0.2262683,0.1414223-0.3606133,0.2191896-0.3606133,0.2191896c-0.0990005,0.0707331-0.1838455,0.0990009-0.2616129,0.0990009
	c-0.1979575,0-0.3323026-0.1767683-0.4101133-0.3181906c-0.0494571-0.1060352-0.0777674-0.1908798-0.0777674-0.1908798
	c-0.0777674-0.1555786-0.1767678-0.332346-0.2828026-0.5161915C5.0767655,9.7434397,3.9595811,8.194952,3.9595811,8.194952
	l2.7434394-3.0262852l0.2970009-0.3252254C7.1202116,4.9494762,7.268712,5.0626321,7.4384022,5.1686668
	c1.1242189,0.7283039,3.0757427,1.4353752,3.0757427,1.4353752c0.7141485,0.1767678,0.4101133,0.7565713,0.4101133,0.7565713
	C10.2454538,8.9656782,9.0505018,10.1676645,8.1242409,10.9242363z M8.6197462,9.778966
	c0,0-0.1419697-0.1627941-0.2975054-0.3324842c0,0-0.8115959-0.9244928-0.8131466-0.926259
	C7.469418,8.4750271,7.4592471,8.3988047,7.4867897,8.3451042C7.5250239,8.2705584,7.621798,8.2872658,7.6787825,8.3292971
	c0,0,0.8590851,0.6580629,1.3965769,0.9306154l0.5832138-0.782115c0,0-0.9703321-0.9424977-1.0747194-1.1384182
	C8.5531311,7.2817192,8.5112324,7.2365742,8.5462608,7.169899C8.5521097,7.1587663,8.559186,7.147747,8.569747,7.1409192
	C8.5804949,7.1339698,8.593688,7.132102,8.6064491,7.1311169c0.047575-0.0036721,0.0716562,0.016974,0.1075611,0.0410905
	c0.04496,0.0301995,0.0902834,0.0598588,0.1358671,0.089108c0.1453171,0.093245,0.293314,0.1825233,0.4447851,0.2654338
	C9.4582987,7.6163177,9.6269588,7.701539,9.8041573,7.761066c0.082427,0.0276899,0.1698141,0.052083,0.2574511,0.052083
	c0,0,0.3252687-0.6081138,0.3040352-0.6505365c-0.0282669,0-0.7211828-0.3181472-1.4635992-0.6858382
	c-0.7494936-0.3606133-1.5484872-0.763649-1.7818327-0.9191837L4.6737299,8.2161417c0,0,1.1878743,1.8030663,1.6969881,2.7080946
	c0.0990005,0.1767673,0.1767678,0.3181906,0.2121124,0.4101133l0.6858816-0.4101133c0,0-0.5277405-0.8568563-0.7707267-1.1807966
	c0,0-0.148963-0.26056,0.0392694-0.2846165c0.0350599-0.0044804,0.1137257,0.0117655,0.1516538,0.0512705
	c0,0,1.0322962,0.8555717,1.1878743,0.9474945L8.6197462,9.778966z M2.4040592,7.2828455
	c-0.1273108-0.0778103-0.275768-0.1202331-0.4383807-0.1202331c-0.4878808,0-0.8838389,0.3959584-0.8838389,0.8838391
	s0.3959581,0.8838387,0.8838389,0.8838387c0.4878378,0,0.8838389-0.3959579,0.8838389-0.8838387
	c0-0.0353451,0-0.0706902-0.0141551-0.1060348C2.8070517,7.6575708,2.6373615,7.417191,2.4040592,7.2828455z M2.5384045,4.4615955
	l0.777761,0.7070713l0.3578734,0.3366838c0.0495002,0.0212331,0.0868986-0.0397258-0.0326052-0.1033382L3.1252425,5.9818158
	c0,0-0.5291641,0.4652429-0.0424225,1.0959516l0.5161912,0.714149l2.4110935-2.6232495L6.5828304,4.546484l-0.113112-0.0848885
	L5.8545699,4.0091028c0,0-0.2475009-0.1698871-0.5091138-0.1698871c-0.1555781,0-0.263103,0.0549018-0.4596133,0.2123098
	L4.5111175,4.4615955l-0.247458,0.2757683c0-0.0211897,0.0856986,0.0338693,0.0644655,0.0126362L4.0090814,4.4615955
	L1.4070647,2.0929246C1.3646421,2.0717349,1.3151419,2.0505021,1.2727194,2.0505021S1.1878743,2.0717349,1.1242621,2.0929246
	L0.6929159,2.5666502C0.6504934,2.6303055,0.6504934,2.7363403,0.7141488,2.7999957L2.5384045,4.4615955z M0.7070711,10.9242363
	V5.1686668h1.5555651l-0.777804-0.7070713H0.3606132C0.1626126,4.4615955,0,4.6242514,0,4.8222089v6.4484849
	c0,0.1980009,0.1626126,0.3606138,0.3606132,0.3606138h4.9848428c-0.1060781-0.2121134-0.2474575-0.4525366-0.4030356-0.7070713
	H0.7070711z"/>
</svg>
