<?xml version="1.0" encoding="utf-8"?>

<!--
 * Copyright (c) 2015, WSO2 Inc. (http://www.wso2.org) All Rights Reserved.
 *
 * WSO2 Inc. licenses this file to you under the Apache License,
 * Version 2.0 (the "License"); you may not use this file except
 * in compliance with the License.
 * You may obtain a copy of the License at
 *
 * http://www.apache.org/licenses/LICENSE-2.0
 *
 * Unless required by applicable law or agreed to in writing,
 * software distributed under the License is distributed on an
 * "AS IS" BASIS, WITHOUT WARRANTIES OR CONDITIONS OF ANY
 * KIND, either express or implied. See the License for the
 * specific language governing permissions and limitations
 * under the License.
-->

<svg version="1.1" id="clean" xmlns="http://www.w3.org/2000/svg" xmlns:xlink="http://www.w3.org/1999/xlink" x="0px" y="0px"
	 viewBox="0 0 14 14" style="enable-background:new 0 0 14 14;" xml:space="preserve">
<path d="M8.0263777,3.8953145L4.1104097,8.1496515L3.2876196,6.9940991
	C2.9401629,6.3142924,3.4902041,5.7828398,3.4902041,5.7828398l0.5852711-0.659153L0,1.3474566l0.9857193-1.0640858
	l4.0775404,3.7781188L5.8004837,3.247256C6.4090643,2.6991031,7.068748,3.1907234,7.068748,3.1907234L8.0263777,3.8953145z
	 M13.7119675,7.6002007c-0.0859203,0.1972146-0.1830521,0.4072351-0.2824268,0.6014395
	c-1.1860609,2.3391361-3.1479406,3.9464779-4.2681456,4.727252c-0.943881,0.725009-1.4474802,0.7877369-1.4474802,0.7877369
	l-1.1223297-2.0470905c-0.8845749-1.4281244-2.0027738-2.984067-2.0027738-2.984067l4.0299773-4.4805264
	c0.7002249,0.6206183,2.0657387,1.3039064,3.1217403,1.7813053l-0.0192375-0.0137496L14,6.897675
	c0,0-0.108285,0.2843738-0.2586451,0.6341319c-0.0125103,0.0315118-0.0227194,0.054172-0.0227194,0.054172
	C13.7165699,7.5908771,13.7140331,7.5953026,13.7119675,7.6002007z M12.9862509,7.3310513
	c0,0.0296826-3.6350765-1.6891298-4.2552814-2.1118846L5.5186477,8.7133245c0,0,2.225894,3.3810339,2.50773,4.0856247
	l0.9020424-0.534934c-0.2443647-0.3811522-0.4911489-0.7608871-0.7424173-1.1375551
	c-0.0700464-0.1050386-0.1404467-0.2097836-0.2120857-0.3137608c-0.0811992-0.1178455-0.1863565-0.2654314-0.1128287-0.4152603
	c0.0632596-0.1289387,0.2184587-0.0491562,0.3071523,0.0068455c0,0,1.3525906,1.1273451,1.5500412,1.2395248l0.9021006-0.8167706
	l-1.3822727-1.719698c0,0-0.1975098-0.3949604,0.2252445-0.2540417c0,0,1.127346,0.9020414,1.8875256,1.155139l0.7045908-0.9576883
	c0,0-1.2847872-1.3365989-1.4312525-1.5401869c0,0-0.1394424-0.2304378,0.1351938-0.2073054
	c0,0,1.4324331,0.8463941,1.8318777,0.8733029C12.5912895,8.1765604,13.0140448,7.3875842,12.9862509,7.3310513z"/>
</svg>
