<?xml version="1.0" encoding="utf-8"?>

<!--
 * Copyright (c) 2015, WSO2 Inc. (http://www.wso2.org) All Rights Reserved.
 *
 * WSO2 Inc. licenses this file to you under the Apache License,
 * Version 2.0 (the "License"); you may not use this file except
 * in compliance with the License.
 * You may obtain a copy of the License at
 *
 * http://www.apache.org/licenses/LICENSE-2.0
 *
 * Unless required by applicable law or agreed to in writing,
 * software distributed under the License is distributed on an
 * "AS IS" BASIS, WITHOUT WARRANTIES OR CONDITIONS OF ANY
 * KIND, either express or implied. See the License for the
 * specific language governing permissions and limitations
 * under the License.
-->

<svg version="1.1" id="clear-passcode" xmlns="http://www.w3.org/2000/svg" xmlns:xlink="http://www.w3.org/1999/xlink" x="0px"
	 y="0px" viewBox="-390.5882 291.28 14 14" style="enable-background:new -390.5882 291.28 14 14;" xml:space="preserve">
<path d="M-378.94,300.09c-0.58002,0-1.06-0.47998-1.06-1.06s0.47998-1.06,1.06-1.06c0.59003,0,1.06,0.47998,1.06,1.06
	S-378.34998,300.09-378.94,300.09z M-383.67999,303.16c-0.10999,0.07001-0.20001,0.14001-0.28998,0.20001
	c-0.11005,0.07001-0.20001,0.13-0.26001,0.16998c-0.08002,0.03998-0.12,0.07001-0.12,0.07001
	c-0.09003,0.07001-0.17004,0.08997-0.25,0.08997c-0.03003,0-0.07001,0-0.10004-0.00995
	c-0.14001-0.05005-0.23999-0.21002-0.28998-0.32001c-0.04999-0.08002-0.07001-0.15002-0.07001-0.15002
	c-0.09003-0.17999-0.20001-0.38-0.33002-0.58997c-0.64001-1.10004-1.63-2.48004-1.76001-2.67004l1.01001-1.12v-0.01001
	l0.73004-0.79999l1.31995-1.46997h0.01001c0.48004,0.42999,1.33002,0.87,2.09003,1.21997c0.75,0.35004,1.38,0.60004,1.39001,0.60004
	c0.21997,0.06,0.35999,0.14996,0.41998,0.27997c0.08997,0.21002-0.02002,0.42999-0.03003,0.42999
	c-0.65997,1.58002-1.82001,2.77002-2.75,3.53003c-0.25995,0.21997-0.5,0.39996-0.70996,0.54999H-383.67999z M-383.81,302.70999
	l-0.01001-0.02997c0-0.01001-0.02002-0.03003-0.03998-0.07001H-383.87c-0.01001-0.01001-0.02002-0.03003-0.03003-0.04999
	c-0.13995-0.27002-0.48999-0.88-0.70996-1.08002c-0.04999-0.04999-0.09003-0.15002-0.06-0.17999
	c0-0.01001,0.01996-0.03003,0.07001-0.03003c0.02997,0,0.07996,0.01001,0.13995,0.03003
	c0.10004,0.07996,1.05005,0.87,1.20001,0.95996l0.02002,0.01001l0.71997-0.66998v-0.02002c-0.01001,0-0.09998-0.21997-0.25-0.39996
	l-0.82001-0.93005c-0.01996-0.03998-0.03998-0.12-0.01996-0.14996c0.01001-0.01001,0.01996-0.01001,0.03998-0.01001
	s0.04999,0,0.10004,0.02002c0.08997,0.06,0.89996,0.70001,1.46997,0.88l0.02002,0.00995l0.54999-0.75l0.02002-0.01996
	l-0.02002-0.02002c-0.07001-0.07001-0.14001-0.14001-0.22003-0.21997c-0.38-0.38-0.81-0.82001-0.85999-0.92999v-0.01001
	c-0.02002-0.01001-0.04999-0.05005-0.03998-0.07001c0-0.03003,0.02997-0.04999,0.09998-0.06
	c0.10004,0.07001,0.82001,0.56,1.25,0.64996c0.04999,0.01001,0.09003,0.02002,0.13,0.02002c0.01001,0,0.02002,0,0.03003,0h0.01996
	l0.01001-0.02002c0.22998-0.42999,0.29004-0.57996,0.29999-0.64996V298.91c0.01001-0.01001,0-0.02002,0-0.02002l-0.03998-0.01996
	l-0.02002-0.01001c-0.06-0.03003-0.17999-0.08002-0.32996-0.15002c0-0.01001-0.01001-0.01001-0.01001-0.01001
	c-0.34003-0.15997-0.85999-0.40997-1.37-0.65997c-0.08002-0.04004-0.17004-0.08002-0.25-0.12
	c-0.03003-0.01001-0.04004-0.02002-0.06-0.02002c-0.03003-0.02002-0.05005-0.02997-0.09003-0.04999
	c-0.04999-0.03003-0.08997-0.04999-0.15002-0.07001c-0.43994-0.22998-0.81995-0.42999-0.95996-0.53003l-0.03003-0.00995
	L-384.75,298.03l-1.32001,1.44l-0.44,0.47998l-0.01001,0.02002l0.01001,0.02002c0.02002,0.01996,1.12,1.69995,1.66003,2.63
	c0.13,0.21997,0.22998,0.39996,0.26996,0.5l0.01001,0.03998L-383.81,302.70999z M-377.21997,294.62997h-2.95001h-1.48004H-384.75
	l-0.01001-0.01996l-0.01001,0.01996h-1.14996H-388h-0.72998l0.03998,0.04004l0.47003,0.42999l0.31,0.27997h0.5h2.63995
	l-0.46997,0.01001h4.53998l3.23004-0.02997c0,0,0.10999,0,0.10999,0.10999l-0.01001,7.02002c0,0,0,0.09998-0.09998,0.09998
	l-5.31006,0.02002c-0.31,0.26001-0.58997,0.46997-0.82996,0.63995c-0.01001,0.01001-0.02002,0.01001-0.03003,0.01001
	c-0.04999,0.03003-0.08997,0.07001-0.13,0.10004h6.65002c0.32001,0,0.52997-0.21002,0.52997-0.52002v-7.69
	C-376.59003,294.84-376.79999,294.62997-377.21997,294.62997z M-389.15002,299.03c0,0.58002,0.48004,1.06,1.06,1.06
	c0.29004,0,0.56-0.12,0.75-0.31c0.18005-0.17999,0.30005-0.42999,0.31-0.70001l-0.44995,0.48004
	C-387.5,299.57999-387.53003,299.59-387.56,299.59c-0.03998,0-0.07001-0.02002-0.08002-0.03998l-0.51001-0.70001
	c-0.17999-0.35999-0.16998-0.66003-0.10999-0.85999C-388.76001,298.06998-389.15002,298.50998-389.15002,299.03z
	 M-385.15997,303.24997c-0.10004-0.18994-0.21002-0.39996-0.35004-0.62994l-2.58997,0.00995h-1.61005c0,0-0.10999,0-0.10999-0.10999
	L-389.81,298.28c-0.01001,0-0.01001,0-0.02002,0v-2.79999c0,0,0-0.09003,0.11005-0.09003h0.12l-0.74005-0.67999
	c-0.15997,0.07001-0.25,0.22998-0.25,0.44v3.47998v0.01001V302.84c0,0.31,0.21002,0.52002,0.63,0.52002h0.90002
	c0.02002,0,0.02997,0,0.04999,0h3.89001c-0.01001-0.04004-0.03003-0.07001-0.03998-0.10004
	C-385.15997,303.25998-385.15997,303.25998-385.15997,303.24997z M-390.23999,294.66l0.78998,0.71997l0.02002,0.01001
	l1.89996,1.73004l0.04004,0.02997l-0.52002,0.59003c-0.01001,0.00995-0.08002,0.08997-0.12,0.22998
	c-0.07001,0.19-0.09998,0.46997,0.08002,0.83002l0.48999,0.67999l0.52002-0.56l2.22998-2.42004l0.15002-0.15997l0.04999-0.07001
	l-0.69-0.52002c-0.02002-0.00995-0.20001-0.09998-0.44-0.09998c-0.15002,0-0.32001,0.03998-0.5,0.14001l-0.62,0.67999
	l-0.03003-0.02002l-1.16998-1.06l-0.01001-0.01001l-0.21997-0.19995l-0.48004-0.43005l-0.13-0.12l-0.88995-0.81
	c-0.04004-0.00995-0.08002-0.02997-0.11005-0.02997c-0.02997,0-0.06,0.01001-0.09998,0.02002
	c-0.01001,0-0.02002,0.00995-0.03998,0.00995l-0.42004,0.47003c-0.02997,0.04999-0.02997,0.13,0.02002,0.19L-390.23999,294.66z"/>
</svg>
