<?xml version="1.0" encoding="utf-8"?>
<!-- Generator: Adobe Illustrator 19.1.0, SVG Export Plug-In . SVG Version: 6.00 Build 0)  -->
<svg version="1.1" id="clean" xmlns="http://www.w3.org/2000/svg" xmlns:xlink="http://www.w3.org/1999/xlink" x="0px" y="0px"
	 viewBox="0 0 14 14" style="enable-background:new 0 0 14 14;" xml:space="preserve">
<path d="M13.3605347,6.4669189c0,0-3.4394531-1.3404541-4.7214966-2.4767456L4.4708252,8.6243896
	c0,0,2.0107422,2.7970581,2.8267822,4.4003296c0,0,0.321167,1.0490112,1.0202026,0.5532837
	c0,0,3.9352417-2.1565552,5.5960083-6.0908203C13.9138184,7.4871826,14.3223267,6.6999512,13.3605347,6.4669189z
	 M12.7478027,8.0980225c-0.413147-0.027832-1.8947144-0.9032593-1.8947144-0.9032593
	c-0.2840576-0.0239258-0.1398315,0.2144165-0.1398315,0.2144165c0.1514893,0.2105713,1.4803467,1.5930176,1.4803467,1.5930176
	l-0.7287598,0.9905396C10.6785889,9.730957,9.5125732,8.7979736,9.5125732,8.7979736
	C9.0753174,8.6522217,9.2796021,9.06073,9.2796021,9.06073l1.4296875,1.7786865l-0.9330444,0.8447876
	c-0.2042236-0.1160278-1.6032104-1.2820435-1.6032104-1.2820435c-0.0917358-0.0579224-0.2522583-0.1404419-0.317688-0.0070801
	c-0.0760498,0.1549683,0.0327148,0.3076172,0.1166992,0.4295044c0.0740967,0.1075439,0.1469116,0.2158813,0.2193604,0.3245239
	c0.2598877,0.3895874,0.5151367,0.7823486,0.7678833,1.1765747l-0.9329834,0.5532837
	c-0.2915039-0.7287598-2.59375-4.225769-2.59375-4.225769l3.3225098-3.6140137
	c0.6414795,0.4372559,4.4012451,2.2150269,4.4012451,2.1843262C13.1850586,7.2819824,12.7478027,8.0980225,12.7478027,8.0980225z
	 M8.0263062,3.6699219l-4.050293,4.4002686L3.276062,7.1084595C2.8388062,6.2052002,3.3345337,5.6221924,3.3345337,5.6221924
	l0.6636353-0.7473755L0.0695801,1.3082275C-0.0176392,1.2209473-0.0176392,1.0751953,0.0407715,0.987915l0.5830078-0.6414795
	C0.7110596,0.317688,0.7695312,0.2889404,0.828064,0.2889404c0.0584717,0,0.1169434,0.0287476,0.1744995,0.0584717
	l3.90979,3.5487061l0.8117065-0.8964844c0.6294556-0.5669556,1.3117676-0.0584717,1.3117676-0.0584717L8.0263062,3.6699219z"/>
</svg>
