<?xml version="1.0" encoding="utf-8"?>
<!-- Generator: Adobe Illustrator 19.1.0, SVG Export Plug-In . SVG Version: 6.00 Build 0)  -->
<svg version="1.1" id="clock" xmlns="http://www.w3.org/2000/svg" xmlns:xlink="http://www.w3.org/1999/xlink" x="0px" y="0px"
	 viewBox="0 0 14 14" style="enable-background:new 0 0 14 14;" xml:space="preserve">
<path d="M7,0C3.1340332,0,0,3.1340332,0,7s3.1340332,7,7,7s7-3.1340332,7-7S10.8659668,0,7,0z M7,12.7999878
	c-3.1981201,0-5.7999878-2.6018677-5.7999878-5.7999878S3.8018799,1.2000122,7,1.2000122S12.7999878,3.8018799,12.7999878,7
	S10.1981201,12.7999878,7,12.7999878z M10.3022461,7.0414429c0,0.3499756-0.1772461,0.5205688-0.3939209,0.5205688H7.7911987
	C7.6121216,7.8318481,7.3204956,8.0205688,6.9723511,8.0205688c-0.5522461,0-1-0.4476929-1-1
	c0-0.3908691,0.2301636-0.7207642,0.5570679-0.8851929V3.2258301c0-0.2166138,0.2058716-0.3938599,0.505249-0.3938599
	c0.2888794,0,0.494751,0.1772461,0.494751,0.3938599v2.9865112c0.1324463,0.0915527,0.2421265,0.2064819,0.317627,0.3496704
	h2.0612793C10.125,6.5620117,10.3022461,6.68927,10.3022461,7.0414429z"/>
</svg>
