<?xml version="1.0" encoding="utf-8"?>

<!--
 * Copyright (c) 2015, WSO2 Inc. (http://www.wso2.org) All Rights Reserved.
 *
 * WSO2 Inc. licenses this file to you under the Apache License,
 * Version 2.0 (the "License"); you may not use this file except
 * in compliance with the License.
 * You may obtain a copy of the License at
 *
 * http://www.apache.org/licenses/LICENSE-2.0
 *
 * Unless required by applicable law or agreed to in writing,
 * software distributed under the License is distributed on an
 * "AS IS" BASIS, WITHOUT WARRANTIES OR CONDITIONS OF ANY
 * KIND, either express or implied. See the License for the
 * specific language governing permissions and limitations
 * under the License.
-->

<svg version="1.1" id="clock" xmlns="http://www.w3.org/2000/svg" xmlns:xlink="http://www.w3.org/1999/xlink" x="0px" y="0px"
	 viewBox="-413 291.28 14 14" style="enable-background:new -413 291.28 14 14;" xml:space="preserve">
<path d="M-406,291.28c-3.87903,0-7,3.12097-7,7c0,3.87897,3.12097,7,7,7s7-3.12103,7-7C-399,294.40097-402.12097,291.28-406,291.28z
	 M-406,304.405c-3.383,0-6.125-2.742-6.125-6.125c0-3.38306,2.742-6.125,6.125-6.125s6.125,2.74194,6.125,6.125
	C-399.875,301.66299-402.617,304.405-406,304.405z M-402.69775,298.31155c0,0.21667-0.17725,0.39392-0.39392,0.39392h-2.36804
	c-0.13312,0.17981-0.34302,0.30347-0.56927,0.30347c-0.40802,0-0.729-0.32098-0.729-0.72894
	c0-0.29315,0.15112-0.53009,0.39874-0.63733v-3.17828c0-0.21661,0.17725-0.39386,0.39392-0.39386s0.39392,0.17725,0.39392,0.39386
	v3.23596c0.08197,0.06146,0.14825,0.13367,0.19672,0.21735h2.28302C-402.875,297.91769-402.69775,298.09494-402.69775,298.31155z"/>
</svg>
