<?xml version="1.0" encoding="utf-8"?>
<!-- Generator: Adobe Illustrator 19.1.0, SVG Export Plug-In . SVG Version: 6.00 Build 0)  -->
<svg version="1.1" id="compare" xmlns="http://www.w3.org/2000/svg" xmlns:xlink="http://www.w3.org/1999/xlink" x="0px" y="0px"
	 viewBox="0 0 14 14" style="enable-background:new 0 0 14 14;" xml:space="preserve">
<path d="M13.5,3.971638h-6c-0.2000122,0-0.3999634,0.1985338-0.5,0.3971274V0.4964547C7,0.1985334,6.7999878,0,6.5,0h-6
	C0.2000122,0,0,0.1985334,0,0.4964547v9.0354519c0,0.2978611,0.2000122,0.4964552,0.5,0.4964552h6
	c0.2000122,0,0.4000244-0.1985941,0.5-0.3971281v3.8723106C7,13.8014059,7.2000122,14,7.5,14h6
	c0.2999878,0,0.5-0.1985941,0.5-0.4964552V4.4680929C14,4.1701717,13.7999878,3.971638,13.5,3.971638z M6,9.0354528H1V0.9929095h5
	V9.0354528z M13,13.1064177H8V4.9674563h5V13.1064177z M8.3403931,8.8488579l-0.189209-0.1878071l2-1.9858189
	c0.1000366-0.099267,0.2000122-0.099267,0.2999878-0.099267c0.2000122,0,0.4000244,0.1985335,0.4000244,0.3971276
	c0,0.0993271,0,0.1985941-0.1000366,0.2978606L9.6610718,8.3533726h2.7877197c0.2000122,0,0.4000244,0.1985941,0.4000244,0.3971882
	c0,0.1985331-0.2000122,0.3971272-0.4000244,0.3971272h-0.1459351c-0.0143433,0.0019999-0.0278931,0.0098181-0.0422974,0.0098181
	H9.8493042l1.0900879,1.0824184c0.1000366,0.099267,0.1000366,0.198534,0.1000366,0.2978611
	c0,0.1985941-0.2000122,0.3971272-0.4000244,0.3971272c-0.0999756,0-0.1999512,0-0.2999878-0.0992661l-2-1.9858198
	L8.3403931,8.8488579z M1.1511841,5.0092721c0-0.1985941,0.2000122-0.3971882,0.4000244-0.3971882h2.7877197L3.2488403,3.5296648
	C3.1488037,3.4303982,3.1488037,3.3311315,3.1488037,3.2318041c0-0.1985941,0.2000122-0.3971274,0.4000244-0.3971274
	c0.0999756,0,0.1999512,0,0.2999878,0.0992668l2,1.9858191l-0.189209,0.1878066l0.0009766,0.0009699l-2,1.9858189
	C3.5605469,7.1936245,3.4605713,7.1936245,3.3605957,7.1936245c-0.2000122,0-0.4000244-0.1985331-0.4000244-0.3971272
	c0-0.0993276,0-0.1985941,0.1000366-0.2978611l1.0900879-1.0824189H1.7394409c-0.0144043,0-0.0279541-0.0078177-0.0422974-0.0098176
	H1.5512085C1.3511963,5.4063997,1.1511841,5.2078056,1.1511841,5.0092721z"/>
</svg>
