<?xml version="1.0" encoding="utf-8"?>
<!-- Generator: Adobe Illustrator 19.2.0, SVG Export Plug-In . SVG Version: 6.00 Build 0)  -->
<svg version="1.1" id="computer" xmlns="http://www.w3.org/2000/svg" xmlns:xlink="http://www.w3.org/1999/xlink" x="0px" y="0px"
	 viewBox="0 0 14 14" style="enable-background:new 0 0 14 14;" xml:space="preserve">
<path d="M10.609375,6.1467285c1.137146,0,2.263855,0,3.390625,0c0,1.871582,0,3.743103,0,5.614624
	c-1.130188,0-2.260437,0-3.390625,0C10.609375,9.8988037,10.609375,8.0362549,10.609375,6.1467285z M10.6199341,3.28479
	c0,0.3751831,0,0.7282104,0,1.09375c1.1323242,0,2.2561646,0,3.3800659,0c0-0.364624,0-0.729187,0-1.09375
	C12.8728638,3.28479,11.7457275,3.28479,10.6199341,3.28479z M10.6199341,5.800415c1.1323242,0,2.2561646,0,3.3800659,0
	c0-0.364624,0-0.729187,0-1.09375c-1.1271362,0-2.2542725,0-3.3800659,0
	C10.6199341,5.0819092,10.6199341,5.4348755,10.6199341,5.800415z M2.8619995,10.9765625l-0.4557495,0.78479
	c0.0385742-0.0467529,1.09021-0.0597534,2.2451782-0.0597534c1.4385986,0,3.0374756,0.0201416,3.0374756,0.0201416
	L7.182312,10.9765625H2.8619995z M0,4.5143433h10.052063v6.2321777H0V4.5143433z M1.2000122,9.5465088h7.6520386V5.7143555
	H1.2000122V9.5465088z"/>
</svg>
