<?xml version="1.0" encoding="UTF-8" standalone="no"?>

<!--
 ~   Copyright 2017, WSO2 Inc. (http://www.wso2.com)
 ~
 ~   Licensed under the Apache License, Version 2.0 (the "License");
 ~   you may not use this file except in compliance with the License.
 ~   You may obtain a copy of the License at
 ~
 ~        http://www.apache.org/licenses/LICENSE-2.0
 ~
 ~   Unless required by applicable law or agreed to in writing, software
 ~   distributed under the License is distributed on an "AS IS" BASIS,
 ~   WITHOUT WARRANTIES OR CONDITIONS OF ANY KIND, either express or implied.
 ~   See the License for the specific language governing permissions and
 ~   limitations under the License.
-->

<svg
   xmlns:dc="http://purl.org/dc/elements/1.1/"
   xmlns:cc="http://creativecommons.org/ns#"
   xmlns:rdf="http://www.w3.org/1999/02/22-rdf-syntax-ns#"
   xmlns:svg="http://www.w3.org/2000/svg"
   xmlns="http://www.w3.org/2000/svg"
   version="1.1"
   id="confluence"
   viewBox="0 0 14 14"
   height="14"
   width="14">
  <defs
     id="defs4" />
  <metadata
     id="metadata7">
    <rdf:RDF>
      <cc:Work
         rdf:about="">
        <dc:format>image/svg+xml</dc:format>
        <dc:type
           rdf:resource="http://purl.org/dc/dcmitype/StillImage" />
        <dc:title></dc:title>
      </cc:Work>
    </rdf:RDF>
  </metadata>
  <g
     transform="matrix(0.11,0,0,0.11,80.888055,-21.298865)"
     id="g4600">
    <circle
       style="fill:#ffffff"
       cx="257.89999"
       cy="64.231003"
       r="59.777"
       id="circle4584" />
    <circle
       style="fill:#09090a"
       cx="257.89999"
       cy="64.230003"
       r="22.281"
       id="circle4586" />
    <path
       style="fill:#09090a"
       d="M 312.241,36.572 C 297.282,6.472 260.752,-5.802 230.652,9.159 c -9.386,4.666 -17.409,11.674 -23.288,20.35 l 24.454,42.386 c -4.505,-14.313 3.45,-29.569 17.763,-34.072 2.516,-0.792 5.139,-1.213 7.777,-1.249"
       id="path4588" />
    <path
       style="fill:#080809"
       d="m 206.877,30.482 c -18.717,27.92 -11.255,65.727 16.664,84.444 8.638,5.79 18.617,9.271 28.983,10.111 l 25.54,-43.474 c -9.55,11.574 -26.674,13.216 -38.25,3.665 -3.931,-3.242 -6.872,-7.525 -8.484,-12.36"
       id="path4590" />
    <path
       style="fill:#060708"
       d="m 253.496,125.038 c 33.518,2.534 62.744,-22.584 65.278,-56.102 0.817,-10.816 -1.27,-21.65 -6.047,-31.389 l -54.883,0 c 15.005,0.068 27.116,12.289 27.044,27.295 -0.027,6.071 -2.088,11.96 -5.852,16.722"
       id="path4592" />
  </g>
  <path
     d="m 129.53896,-18.756941 c 1.28139,-0.10945 1.64285,-0.93093 3.14336,-1.07327 0.7337,-0.06578 1.20472,0.08767 1.2485,0.33946 0.0438,0.2409 -0.31746,0.40524 -0.7667,0.43813 -0.61325,0.06578 -0.87615,-0.16423 -0.91982,-0.37235 -0.44913,0.04378 -0.5258,0.24101 -0.50391,0.38335 0.0438,0.26279 0.60247,0.51469 1.54429,0.42713 1.07338,-0.08767 1.42384,-0.50391 1.33617,-0.93093 -0.10956,-0.54769 -0.93093,-1.00771 -2.40955,-0.87626 -1.89475,0.17523 -1.88375,1.04049 -3.16525,1.14994 -0.52558,0.04378 -0.82137,-0.07667 -0.87604,-0.28468 -0.033,-0.20812 0.2189,-0.30679 0.52558,-0.32868 0.28479,-0.02189 0.62436,0.02189 0.78859,0.10956 0.12045,-0.06578 0.16434,-0.12056 0.14234,-0.19712 -0.0438,-0.19712 -0.43802,-0.28479 -0.93093,-0.24101 -0.95282,0.08767 -0.95282,0.51469 -0.91982,0.70092 0.12034,0.51491 0.85415,0.84348 1.76319,0.75581 l 0,0 z m 6.41806,2.16865 c -1.18283,0.27368 -2.69423,0.44902 -4.51231,0.44902 -1.85097,0 -3.36237,-0.19712 -4.5452,-0.44902 -1.05138,-0.2739 -1.62096,-0.56958 -1.81808,-0.87615 0.0986,0.68992 0.27379,1.35806 0.5038,1.99331 -0.2629,0.16434 -0.51469,0.38335 -0.73381,0.65714 -0.41624,0.5258 -0.60236,1.13905 -0.56947,1.74152 0.0329,0.60236 0.32857,1.09527 0.79959,1.47851 0.4928,0.38335 1.0186,0.49291 1.62085,0.38335 0.23001,-0.03289 0.49291,-0.16434 0.72281,-0.23001 -0.4928,0 -0.90904,-0.16423 -1.32517,-0.4928 -0.44913,-0.32857 -0.7667,-0.79959 -0.83237,-1.35817 -0.10956,-0.52569 0,-1.01849 0.29579,-1.44573 0.0657,-0.08767 0.13123,-0.15334 0.20812,-0.21901 0.16423,0.41624 0.36135,0.81048 0.56947,1.19383 0.44902,0.68992 0.90904,1.29239 1.35817,1.93853 0.19712,0.38335 0.32846,0.7667 0.41613,1.13905 0.29568,0.41624 0.72281,0.7120295 1.24861,0.8652595 0.64625,0.23001 1.32517,0.31757 2.0152,0.31757 l 0.0767,0 c 0.68992,0 1.41284,-0.10945 2.08087,-0.32857 0.4928,-0.16423 0.90915,-0.4381295 1.21572,-0.8762595 l 0.0329,0 c 0.0766,-0.32857 0.19712,-0.7447 0.38335,-1.12805 0.44902,-0.64614 0.90904,-1.2485 1.35806,-1.93853 0.60247,-1.09527 1.01871,-2.34388 1.24861,-3.68005 -0.23012,0.32857 -0.79981,0.63514 -1.8183,0.86526 l 0,0 z m -9.05751,-0.95293 c 1.18283,0.29568 2.69434,0.44902 4.51231,0.44902 1.85086,0 3.32948,-0.16423 4.51231,-0.44902 1.2485,-0.29579 1.85086,-0.68992 1.85086,-1.05138 0,-0.27379 -0.27368,-0.5258 -0.7667,-0.72292 0.10945,0.07667 0.19712,0.19712 0.19712,0.32868 0,0.38335 -0.56947,0.68992 -1.70841,0.94193 -1.05149,0.2299 -2.40955,0.39413 -4.0524,0.39413 -1.58818,0 -3.00091,-0.16434 -4.01951,-0.38324 -1.09527,-0.2739 -1.67585,-0.56958 -1.67585,-0.94204 0,-0.16423 0.0768,-0.29568 0.29579,-0.44902 -0.68992,0.2739 -1.05149,0.4928 -1.05149,0.83237 0.0331,0.38335 0.64647,0.7667 1.90597,1.05149 l 0,0 z"
     id="path4608" />
  <style
     type="text/css"
     id="style4988">
	.st0{fill:#FFFFFF;}
</style>
  <style
     type="text/css"
     id="style5049">
	.st0{fill:#FFFFFF;}
</style>
  <style
     type="text/css"
     id="style5067">
	.st0{clip-path:url(#SVGID_2_);}
</style>
  <style
     type="text/css"
     id="style5111">
	.st0{fill:#CECDB7;}
	.st1{fill:#4FAA41;}
</style>
  <style
     type="text/css"
     id="style5194">
	.st0{fill:#A1A1A4;}
	.st1{fill:#EFF3F3;}
	.st2{fill:#FFFFFF;}
</style>
  <style
     type="text/css"
     id="style5252">
	.st0{fill:#FFFFFF;}
	.st1{fill:none;stroke:#FFFFFF;stroke-width:3;stroke-linecap:round;stroke-linejoin:round;}
</style>
  <g
     transform="matrix(0.11,0,0,0.11,-26.015565,-72.013214)"
     id="g5291" />
  <style
     type="text/css"
     id="style5296">
	.st0{opacity:0.444;fill:url(#SVGID_1_);enable-background:new    ;}
</style>
  <style
     type="text/css"
     id="style5371">
	.st0{fill:none;stroke:#FFFFFF;}
	.st1{fill:#FFFFFF;}
</style>
  <style
     type="text/css"
     id="style5401">
	.st0{fill:#FEFEFE;}
</style>
  <style
     type="text/css"
     id="style5421">
	.st0{fill:#FFFFFF;}
</style>
  <style
     type="text/css"
     id="style5508">
	.st0{fill:#FFFFFF;}
</style>
  <g
     style="display:none"
     id="layer6">
    <g
       transform="translate(25.973213,71.973214)"
       id="g6520">
      <path
         id="path5281"
         d="m 96.3,40.7 -0.5,0 C 85,40.6 75.6,47.8 72.9,58.2 l -0.1,0 C 70.7,69.1 60.2,76.3 49.3,74.2 39.8,72.4 32.9,64.1 32.9,54.4 c 0,-0.7 0.1,-1.5 0.2,-2.2 0,-0.2 0,-0.3 0.1,-0.5 0.1,-0.2 0.1,-0.6 0.2,-0.8 C 37.4,32.1 49.7,16.1 66.9,7.4 40.8,-0.2 13.6,14.7 6,40.6 5.1,43.7 4.5,47 4.2,50.2 4.1,50.4 4,50.5 4,50.7 l 0,71.6 29,0 0,-23.1 c 24.7,11 53.7,-0.1 64.7,-24.8 4.7,-10.6 5.5,-22.6 2.3,-33.7 l -3.7,0 0,0 z"
         transform="matrix(0.11,0,0,0.11,-26.015565,-72.013214)" />
      <path
         id="path5283"
         d="M 67.9,57.3 68,57.1 c 3.1,-12.6 14.4,-21.4 27.4,-21.4 0.3,0 0.6,0 0.9,0 l 0.7,0 12.3,0 c 2.1,-0.1 4.2,-0.6 6.2,-1.5 -0.5,-0.1 -1,-0.1 -1.4,-0.2 -7.1,-1.4 -12.8,-6.5 -15,-13.4 2.9,3.8 7.1,6.4 11.8,7.4 4,0.8 8.2,0.3 11.9,-1.4 C 126.1,18.9 122.6,10 115,6.7 113.1,5.9 111.1,5.4 109,5.4 l -11.2,0 -2.4,0 c -27.5,0 -51.3,19.2 -57.2,46 -0.2,1 -0.4,2 -0.4,3 0,8.4 6.8,15.2 15.2,15.2 7.3,0.1 13.6,-5.1 14.9,-12.3 l 0,0 z m 36.2,-43.1 c 0.5,-2.5 3,-4.2 5.5,-3.7 2.5,0.5 4.2,3 3.7,5.5 -0.5,2.5 -3,4.2 -5.5,3.7 0,0 0,0 0,0 -2.5,-0.5 -4.1,-2.9 -3.7,-5.5 l 0,0 z m 19.9,93.2 c 0,8.4 -6.8,15.2 -15.2,15.2 l 0,0 -13.4,0 c -14.1,0 -27.7,-5.1 -38.3,-14.3 13.1,-1 25.5,-6.7 34.6,-16.2 1.2,0.2 2.4,0.3 3.7,0.3 0.3,0 13.3,0 13.4,0 8.4,-0.1 15.2,6.6 15.2,15 z"
         transform="matrix(0.11,0,0,0.11,-26.015565,-72.013214)" />
    </g>
  </g>
  <g
     style="display:none"
     id="layer7">
    <g
       transform="matrix(0.11,0,0,0.11,-0.0345,-0.04090042)"
       id="g5088" />
    <g
       transform="matrix(0.11,0,0,0.11,-0.08124914,-0.4855)"
       id="g5316">
      <path
         d="m 63,10.1 c -4.2,0 -8.2,0.4 -11.7,1 C 40.9,12.9 39,16.8 39,23.9 l 0,9.1 25,0 0,3 -33.9,0 c -7.2,0 -13.4,4.3 -15.4,12.5 -2.3,9.4 -2.4,15.2 0,25 1.8,7.3 6,12.5 13.1,12.5 l 8.2,0 0,-11 c 0,-8 6.9,-15 15.1,-15 l 24.7,0 C 82.6,60 88,54.3 88,47.5 L 88,23.9 C 88,17.2 82.4,12.2 75.7,11.1 71.5,10.4 67.2,10.1 63,10.1 Z m -13,7.5 c 2.5,0 4.6,2.1 4.6,4.7 0,2.6 -2.1,4.7 -4.6,4.7 -2.6,0 -4.6,-2.1 -4.6,-4.7 0,-2.6 2.1,-4.7 4.6,-4.7 z"
         id="path5298" />
      <path
         d="m 92,36 0,11.3 C 92,55.8 84.8,63 76.6,63 L 51.3,63 C 44.5,63 39,68.8 39,75.5 L 39,99 c 0,6.7 5.8,10.6 12.3,12.5 7.8,2.3 15.2,2.7 24.5,0 6.2,-1.8 12.3,-5.4 12.3,-12.5 l 0,-9 -24.1,0 0,-4 37.4,0 c 7.2,0 9.9,-5 12.5,-12.5 2.6,-7.7 2.5,-15.1 0,-25 C 112,41.4 108.6,36 101.4,36 l -9.4,0 0,0 z M 77.8,95.9 c 2.6,0 4.6,2.1 4.6,4.7 0,2.6 -2.1,4.7 -4.6,4.7 -2.6,0 -4.6,-2.1 -4.6,-4.7 0,-2.6 2.1,-4.7 4.6,-4.7 z"
         id="path5300" />
      <path
         class="st0"
         d="m 97.3,119.6 c 0,3.5 -14.8,6.4 -33.1,6.4 -18.3,0 -33.1,-2.9 -33.1,-6.4 0,-3.5 14.8,-6.4 33.1,-6.4 18.3,0 33.1,2.9 33.1,6.4 z"
         id="path5307"
         style="opacity:0.444;fill:url(#SVGID_1_-7);enable-background:new" />
    </g>
  </g>
  <g
     style="display:none"
     id="layer8">
    <path
       d="M 12.016,1.555 C 10.674,0.895 9.299,0.829 7.891,1.324 6.593,1.786 5.559,2.6 4.789,3.722 3.491,5.614 2.545,7.671 2.017,9.915 1.742,11.059 1.566,12.28 1.621,13.457 c 0,0.099 0.022,0.121 0.033,0.341 l 6.644,0 C 8.276,13.578 8.265,13.644 8.254,13.6 7.902,12.709 7.627,11.763 7.44,10.828 7.165,9.475 7.022,8.111 7.308,6.747 7.704,4.844 8.793,3.469 10.619,2.754 c 1.034,-0.407 2.024,-0.286 2.882,0.473 0.011,0.011 0.022,0 0.044,0.011 L 13.831,2.809 C 13.27,2.292 12.665,1.885 12.016,1.555 l 0,0 z M 0.312,10.322 C 0.268,10.751 0.213,11.158 0.169,11.576 L 1.39,11.719 1.61,10.41 C 1.17,10.388 0.752,10.355 0.312,10.322 Z M 2.721,6.56 1.566,6.109 1.192,7.165 2.369,7.539 C 2.49,7.209 2.6,6.901 2.721,6.56 Z m 5.434,5.907 C 8.551,12.5 8.947,12.511 9.376,12.544 9.222,12.214 9.079,11.917 8.936,11.631 8.925,11.598 8.87,11.565 8.826,11.565 c -0.33,0 -0.671,0 -1.023,0 0.077,0.286 0.154,0.561 0.231,0.814 0.011,0.033 0.077,0.077 0.121,0.088 z M 4.668,3.359 3.788,2.776 C 3.557,3.04 3.326,3.293 3.084,3.557 L 3.986,4.162 4.668,3.359 Z m 2.794,5.874 c 0,0.033 0.033,0.088 0.066,0.11 C 7.847,9.486 8.166,9.618 8.507,9.772 8.496,9.497 8.485,9.266 8.463,9.035 8.463,8.991 8.441,8.936 8.408,8.914 8.122,8.749 7.825,8.606 7.506,8.43 7.484,8.727 7.473,8.98 7.462,9.233 Z M 7.198,1.291 6.604,0.609 5.779,1.038 C 5.988,1.291 6.175,1.522 6.384,1.764 6.373,1.775 7.198,1.291 7.198,1.291 Z M 7.572,6.703 C 7.55,6.747 7.583,6.835 7.616,6.868 7.858,7.088 8.1,7.286 8.375,7.528 8.441,7.264 8.496,7.033 8.551,6.791 8.562,6.747 8.551,6.681 8.518,6.659 8.309,6.483 8.078,6.318 7.858,6.142 7.748,6.34 7.66,6.516 7.572,6.703 Z M 8.947,0.939 c 0.308,0.011 0.616,0 0.935,0 C 9.849,0.719 9.838,0.543 9.794,0.378 9.783,0.334 9.706,0.268 9.662,0.257 9.354,0.235 9.046,0.224 8.705,0.202 8.749,0.433 8.782,0.631 8.837,0.829 8.848,0.873 8.903,0.928 8.947,0.939 Z M 9.321,4.855 C 9.332,4.822 9.343,4.778 9.321,4.745 9.167,4.514 9.013,4.283 8.848,4.03 L 8.32,4.514 9.046,5.317 C 9.145,5.152 9.233,5.009 9.321,4.855 Z M 9.882,3.26 10.19,3.843 C 10.674,3.579 10.729,3.48 10.553,3.095 10.553,3.084 9.882,3.26 9.882,3.26 Z m 2.343,-1.793 c 0.209,0.121 0.418,0.231 0.638,0.352 L 13.006,1.588 C 12.742,1.39 12.478,1.203 12.192,0.994 12.181,1.115 12.159,1.203 12.17,1.28 c 0,0.066 0.011,0.165 0.055,0.187 z m -0.286,1.837 c 0.22,0.022 0.55,0.044 0.77,0.066 l 0,-0.297 C 12.489,3.029 12.159,2.974 11.939,2.93 l 0,0.374 z"
       id="path5322" />
  </g>
  <g
     style="display:none"
     id="layer9">
    <g
       transform="matrix(0.11,0,0,0.11,-0.04,-0.0455)"
       id="g5005">
      <path
         d="M 19,113.9 9,1.7 119,1.7 109,113.9 64,126.4 19,113.9 Z"
         id="path4990" />
      <path
         d="m 64,116.8 36.4,-10.1 8.6,-95.9 -45,0 0,106 z"
         id="path4992" />
      <path
         style="fill:#ffffff"
         class="st0"
         d="m 64,52.5 -18.2,0 -1.3,-14.1 19.5,0 0,-13.8 -34.5,0 0.3,3.7 3.4,37.9 30.8,0 0,-13.7 z m 0,35.7 0,0 -15.4,-4.1 -1,-11 -13.8,0 1.9,21.6 28.2,7.8 0.1,0 0,-14.3 z"
         id="path4994" />
      <path
         style="fill:#ffffff"
         class="st0"
         d="m 64,52.5 0,13.8 16.9,0 -1.6,17.8 -15.3,4.1 0,14.3 28.2,-7.8 0.2,-2.3 3.2,-36.2 0.3,-3.7 -3.7,0 -28.2,0 z m 0,-27.9 0,13.8 33.2,0 0.3,-3.1 0.6,-7 0.3,-3.7 -34.4,0 z"
         id="path4996" />
    </g>
  </g>
  <g
     style="display:none"
     id="layer10">
    <g
       transform="matrix(0.11,0,0,0.11,-0.02325281,-0.04)"
       id="g5026">
      <path
         d="m 5.6,64.7 c 0,9.4 7.7,17.1 17.1,17.1 9.4,0 17.1,-7.7 17.1,-17.1 0,-9.4 -7.7,-17.1 -17.1,-17.1 -9.5,0.1 -17.1,7.7 -17.1,17.1 z"
         id="path5014" />
      <path
         d="m 107.5,4.7 c -9.4,0 -15,7.6 -15,20.2 l 0,77.8 c 0,12.7 5.6,20.2 15,20.2 9.4,0 15,-7.6 15,-20.2 l 0,-26 0,0 0,-51.7 C 122.4,12.3 116.8,4.7 107.5,4.7 Z"
         id="path5016" />
      <path
         d="m 81.3,6.4 -61.4,0 0,0 C 11.6,6.7 5.3,13.7 5.6,22 c 0.3,7.7 6.5,13.9 14.2,14.2 l 0,0.1 31.4,0 0,27.2 c 0,0.2 0,0.4 0,0.7 l 0,0 c 0,0.2 0,0.4 0,0.5 0,15.8 -12.8,28.7 -28.6,28.7 -0.3,0 -0.5,0 -0.8,0 l -0.1,0.1 c -0.4,0 -0.9,-0.1 -1.3,-0.1 -8.1,-0.2 -15,6.3 -15.2,14.6 -0.2,8.3 6.3,15.1 14.5,15.3 0.3,0 0.5,0 0.8,0 0.5,0 0.9,0 1.3,-0.1 l 0,0.1 0.8,0 c 32.3,0 58.6,-26.2 58.6,-58.6 0,-0.2 0,-0.3 0,-0.5 l 0,0 c 0,-1.3 0,-4.8 0,-9.6 0,0 0,-0.1 0,-0.1 0,0 0.1,-46.8 0.1,-48.1 z"
         id="path5018" />
    </g>
  </g>
  <g
     style="display:none"
     id="layer14">
    <g
       transform="matrix(0.11,0,0,0.11,-0.03338015,-0.0345)"
       id="original-6">
      <circle
         cx="64"
         cy="64"
         r="24.1"
         id="circle5035" />
      <path
         d="m 113.1,23.1 c 0,-4.6 -3.7,-8.3 -8.3,-8.3 -2,0 -3.9,0.7 -5.4,2 -26,-19.6 -63,-14.4 -82.6,11.7 -19.6,26.1 -14.4,63 11.7,82.6 26.1,19.6 63,14.4 82.6,-11.7 15.8,-21 15.8,-49.9 0,-70.9 1.3,-1.4 2,-3.4 2,-5.4 z M 64,121 C 32.5,121 7,95.5 7,64 7,32.5 32.5,7 64,7 c 12.3,0 24.3,4 34.2,11.4 -2.6,3.7 -1.8,8.9 2,11.5 2.9,2 6.7,2 9.6,0 18.8,25.2 13.7,60.9 -11.6,79.8 C 88.2,117 76.3,121 64,121 Z"
         id="path5037" />
    </g>
  </g>
  <g
     style="display:inline"
     id="layer15">
    <g
       transform="matrix(0.11,0,0,0.11,-21.375325,-0.04002851)"
       id="g4618">
      <path
         d="m 282.935,81.648 c -1.51,-2.975 -3.298,-5.984 -5.391,-9.044 -1.511,-2.2 -3.106,-4.34 -4.783,-6.416 -0.683,-0.85 -0.396,-1.908 0.125,-2.434 0.516,-0.529 1.034,-1.056 1.554,-1.589 7.175,-7.319 14.593,-14.881 20.281,-23.055 6.053,-8.694 9.405,-16.941 10.252,-25.425 0.076,-0.879 -0.297,-1.739 -0.99,-2.284 -0.705,-0.535 -1.636,-0.668 -2.462,-0.354 -5.519,2.11 -11.12,3.712 -16.232,4.903 -1.021,0.242 -1.854,0.971 -2.235,1.948 -3.728,10.206 -13.241,19.922 -23.219,30.101 -0.401,0.381 -0.962,0.882 -1.876,0.882 -0.911,0 -1.467,-0.486 -1.875,-0.883 -9.981,-10.179 -19.492,-19.861 -23.219,-30.067 -0.38,-0.977 -1.215,-1.704 -2.233,-1.947 -5.116,-1.193 -10.722,-2.93 -16.23,-5.039 -1.317,-0.504 -2.793,0.154 -3.298,1.471 -0.143,0.371 -0.196,0.77 -0.156,1.166 0.846,8.486 4.197,16.834 10.25,25.529 5.687,8.171 13.106,15.736 20.281,23.052 13.216,13.477 25.699,26.21 26.797,40.974 0.098,1.333 1.207,2.365 2.545,2.365 l 15.528,0 c 1.41,-10e-4 2.556,-1.146 2.553,-2.557 0,-0.042 0,-0.083 -0.002,-0.124 -0.145,-2.815 -0.544,-5.612 -1.193,-8.356 l 0.005,-0.007 c -0.147,-0.543 0.175,-1.103 0.718,-1.25 0.086,-0.023 0.174,-0.036 0.264,-0.036 0.048,0 0.096,0.01 0.144,0.017 l 0.002,0 c 12.677,1.855 20.694,4.82 20.706,8.086 l 0,0.007 c 0,3.077 -7.207,7.723 -18.922,11.121 l -0.004,0.006 c -1.042,0.298 -1.801,1.238 -1.801,2.355 0,1.354 1.117,2.456 2.499,2.456 0.193,0 0.375,-0.022 0.556,-0.063 15.746,-3.641 26.185,-9.762 26.185,-16.672 -0.001,-8.206 -14.112,-15.534 -35.124,-18.838 l 0,0 z m -41.639,-8.004 c -0.476,-0.491 -1.129,-0.771 -1.813,-0.776 -1.16,0 -1.846,0.748 -2.105,1.144 -1.627,2.464 -3.114,5.016 -4.455,7.646 -20.981,3.309 -35.067,10.631 -35.067,18.829 0,6.918 10.363,13.026 26.138,16.667 0.002,0 0.018,0 0.023,-0.002 0.186,0.045 0.377,0.073 0.577,0.073 1.381,0 2.5,-1.102 2.5,-2.456 0,-1.116 -0.762,-2.044 -1.798,-2.344 l -0.007,-0.017 c -11.715,-3.4 -18.922,-8.046 -18.922,-11.122 l 0,-0.008 c 0.012,-3.259 8.007,-6.222 20.652,-8.077 0.045,-0.009 0.09,-0.015 0.135,-0.016 0.568,0.001 1.028,0.462 1.028,1.03 0,0.09 -0.012,0.181 -0.037,0.269 l 0.01,0.01 c -0.644,2.731 -1.04,5.516 -1.182,8.32 -0.035,0.695 0.221,1.385 0.704,1.895 0.48,0.504 1.159,0.794 1.856,0.794 l 15.53,0 c 1.34,-0.005 2.451,-1.038 2.555,-2.373 0.336,-4.543 1.757,-9.096 4.332,-13.884 0.893,-1.656 0.199,-3.211 -0.315,-3.875 -2.557,-3.324 -5.686,-6.868 -10.339,-11.727 l 0,0 z"
         id="path4620" />
      <path
         d="m 256.165,35.283 c 0.615,0.596 1.31,0.71 1.788,0.71 l 0.005,0 c 0.481,0 1.177,-0.112 1.791,-0.71 5.477,-5.325 8.419,-11.533 9.063,-13.258 0.123,-0.299 0.188,-0.619 0.19,-0.943 0,-1.379 -1.148,-2.362 -2.35,-2.362 -0.99,0 -3.814,0.292 -8.68,0.292 l -0.031,0 c -4.865,0 -7.687,-0.292 -8.678,-0.292 -1.2,0 -2.35,0.984 -2.35,2.362 0,0.4 0.097,0.688 0.19,0.942 0.646,1.725 3.589,7.933 9.062,13.259 l 0,0 z"
         id="path4622" />
    </g>
  </g>
  <g
     style="display:none"
     id="layer16">
    <g
       transform="matrix(0.11,0,0,0.11,-21.375105,-0.040055)"
       id="g4646">
      <path
         d="M 309.571,30.594 261.116,2.704 c -0.802,-0.501 -1.905,-0.702 -3.109,-0.702 -1.204,0 -2.308,0.3 -3.11,0.702 l -48.154,27.99 c -1.706,1.003 -2.909,3.511 -2.909,5.417 l 0,55.878 c 0,1.104 0.201,2.408 1.003,3.511 L 311.979,33.301 c -0.602,-1.203 -1.505,-2.106 -2.408,-2.707 l 0,0 z"
         id="path4634" />
      <path
         d="m 204.535,95.401 c 0.501,0.802 1.203,1.504 1.905,1.905 l 48.355,27.99 c 0.803,0.501 1.906,0.703 3.11,0.703 1.204,0 2.308,-0.3 3.11,-0.703 l 48.154,-27.99 c 1.704,-1.002 2.908,-3.511 2.908,-5.417 l 0,-55.879 c 0,-0.903 -0.101,-1.906 -0.601,-2.81 l -106.941,62.201 0,0 z"
         id="path4636" />
      <path
         style="fill:#ffffff"
         d="m 279.374,76.138 c -4.213,7.424 -12.239,12.44 -21.368,12.44 -13.544,0 -24.579,-11.036 -24.579,-24.579 0,-13.543 11.035,-24.579 24.579,-24.579 9.129,0 17.155,5.017 21.368,12.54 l 13.042,-7.523 c -6.822,-11.938 -19.663,-20.064 -34.41,-20.064 -21.87,0 -39.627,17.757 -39.627,39.626 0,21.87 17.757,39.627 39.627,39.627 14.647,0 27.487,-8.026 34.31,-19.863 l -12.942,-7.625 0,0 z"
         id="path4638" />
    </g>
  </g>
  <g
     style="display:none"
     id="layer17">
    <g
       transform="matrix(0.11,0,0,0.11,-21.375105,-0.03989)"
       id="original-3">
      <path
         d="m 294.102,76.757 c 0,4.832 -2.609,7.249 -7.346,7.442 l -57.891,0 c -4.736,0 -7.345,-2.417 -7.345,-7.442 0,-4.832 2.609,-7.248 7.345,-7.441 l 58.181,0 c 4.735,0.193 7.056,2.609 7.056,7.441 z m -7.056,11.114 -58.181,0 c -4.736,0 -7.345,2.32 -7.345,7.442 0,4.832 2.609,7.151 7.345,7.441 l 58.181,0 c 4.735,0 7.345,-2.416 7.345,-7.441 -0.289,-5.121 -2.61,-7.442 -7.345,-7.442 z m 17.977,-40.687 0,0 c -4.735,0 -7.345,2.416 -7.345,7.151 l 0,40.688 c 0,4.832 2.609,7.248 7.345,7.441 l 0,0 c 7.151,-0.193 10.921,-7.441 10.921,-22.132 l 0,-18.265 c 0,-9.858 -3.77,-14.691 -10.921,-14.883 z m -94.135,0 0,0 c -7.152,0.192 -10.921,5.025 -10.921,14.883 l 0,18.267 c 0,14.69 3.769,21.938 10.921,22.132 l 0,0 c 4.736,0 7.345,-2.319 7.345,-7.441 l 0,-40.4 c -0.193,-4.833 -2.609,-7.249 -7.345,-7.441 l 0,0 z m 94.135,-3.673 c 0,-12.274 -6.379,-18.073 -17.977,-18.267 l -58.181,0 c -11.791,0.193 -17.977,6.282 -17.977,18.267 l 0,0 c 7.152,0 10.921,3.865 10.921,11.114 0,7.248 3.769,11.018 10.921,11.018 l 50.74,0 c 7.055,0 10.92,-3.77 10.92,-11.018 -0.288,-7.441 3.77,-10.824 10.633,-11.114 l 0,0 z"
         id="path4655" />
    </g>
  </g>
  <g
     style="display:none"
     id="layer18">
    <g
       transform="matrix(0.11,0,0,0.11,-21.37493,-0.0399397)"
       id="original">
      <path
         d="m 235.101,89.661 c -0.934,-0.234 -1.843,-0.559 -2.715,-0.969 -1.988,3.122 -6.593,11.024 -7.253,18.18 l 11.926,0 c -1.477,-5.613 -2.137,-11.41 -1.958,-17.211 z"
         id="path4564" />
      <path
         d="m 273.748,83.32 c -2.391,5.356 -4.246,10.936 -5.537,16.658 -0.514,2.308 1.049,4.605 0.756,6.894 l 15.002,0 c -3.957,-10.918 -4.85,-26.799 -6.895,-33.15 -0.048,-0.087 -3.269,9.676 -3.326,9.598 z"
         id="path4566" />
      <path
         d="m 316.449,45.768 c -3.414,-4.848 -11.199,-8.92 -13.014,-14.457 -0.463,-1.416 -0.541,-4.324 0.35,-5.682 0.893,-1.356 -0.523,-0.969 -0.523,-0.969 -1.939,0.747 -2.771,-1.386 -2.771,-1.386 -0.291,-0.747 0.105,-3.025 -1.563,-1.784 -3.004,2.259 -2.016,7.757 -1.453,9.967 1.025,3.773 2.994,7.224 5.719,10.025 0.971,0.902 7.08,7.621 6.246,11.063 -0.063,1.213 -0.908,2.244 -2.086,2.541 -4.449,0.892 -5.895,-4.567 -5.895,-4.567 -3.336,-14.242 -8.727,-19.226 -8.727,-19.226 -8.742,-0.318 -17.49,0.451 -26.043,2.288 -33.325,-1.251 -58.398,8.988 -58.398,8.988 -7.33,10.52 -11.635,30.057 -11.635,30.057 0,0 0,0.097 0.068,0.106 0.102,0.011 0.2,-0.038 0.252,-0.125 2.749,-3.446 5.859,-6.586 9.279,-9.366 -0.699,27.148 5.449,43.631 5.449,43.631 l 11.635,0 c 0.824,-9.784 8.503,-20.565 8.503,-20.565 4.324,3.277 14.097,2.308 14.097,2.308 1.726,6.535 5.236,18.247 5.236,18.247 l 14.019,0 c 1.215,-8.948 3.787,-17.658 7.631,-25.829 0,0 3.473,-7.874 3.559,-10.239 0.223,-4.121 4.121,-5.342 6.234,-5.342 2.113,0 11.732,5.371 18.918,5.013 12.516,-0.63 17.451,-6.419 17.693,-13.022 0.195,-4.538 -0.871,-8.95 -2.78,-11.675 z M 276.221,59.76 c -0.063,0.186 -0.15,0.362 -0.262,0.523 -0.127,0.189 -0.295,0.345 -0.494,0.456 -0.219,0.116 -0.463,0.17 -0.709,0.156 -0.219,-0.015 -0.434,-0.063 -0.641,-0.146 -0.68,-0.312 -1.299,-0.746 -1.82,-1.28 -0.262,-0.243 -0.506,-0.495 -0.738,-0.737 l -0.678,-0.708 c -0.424,-0.357 -0.91,-0.63 -1.436,-0.805 -0.572,-0.204 -1.193,-0.369 -1.842,-0.523 -0.65,-0.155 -1.299,-0.32 -2.008,-0.552 -0.174,-0.059 -0.357,-0.127 -0.563,-0.223 l -0.281,-0.107 c -0.131,-0.074 -0.254,-0.162 -0.367,-0.261 -0.221,-0.192 -0.404,-0.421 -0.543,-0.679 -0.121,-0.226 -0.213,-0.467 -0.271,-0.717 -0.09,-0.42 -0.121,-0.851 -0.098,-1.279 0.016,-0.378 0.059,-0.753 0.125,-1.125 0.135,-0.699 0.313,-1.388 0.535,-2.064 0.211,-0.646 0.449,-1.294 0.707,-1.94 0.127,-0.319 0.252,-0.629 0.398,-0.969 0.15,-0.332 0.318,-0.655 0.504,-0.97 0.729,-1.219 1.691,-2.282 2.83,-3.132 0.553,-0.416 1.141,-0.786 1.756,-1.105 0.615,-0.326 1.268,-0.585 1.938,-0.776 -1.09,0.761 -2.092,1.643 -2.984,2.628 -0.871,0.923 -1.588,1.981 -2.123,3.131 -0.127,0.282 -0.238,0.569 -0.33,0.863 l -0.303,0.97 c -0.193,0.63 -0.387,1.26 -0.541,1.891 -0.166,0.609 -0.299,1.228 -0.398,1.851 -0.045,0.289 -0.074,0.58 -0.088,0.873 -0.012,0.243 0.008,0.488 0.059,0.727 0.02,0.124 0.072,0.238 0.156,0.33 l 0,0 0.135,0.078 0.379,0.155 c 0.563,0.212 1.213,0.378 1.861,0.581 0.678,0.203 1.34,0.445 1.986,0.728 0.74,0.302 1.404,0.766 1.941,1.357 0.24,0.301 0.416,0.562 0.621,0.833 l 0.588,0.786 c 0.195,0.252 0.4,0.495 0.611,0.718 0.195,0.212 0.412,0.402 0.65,0.563 0.168,0.133 0.381,0.192 0.594,0.165 0.242,-0.091 0.445,-0.266 0.57,-0.495 0.172,-0.271 0.314,-0.561 0.428,-0.862 0.125,-0.312 0.223,-0.631 0.328,-0.971 0.066,0.691 0.003,1.391 -0.182,2.063 z m 12.391,-8.649 c -0.367,1.114 -1.57,1.718 -2.682,1.349 -1.113,-0.368 -1.719,-1.568 -1.352,-2.682 0.369,-1.113 1.572,-1.717 2.686,-1.349 0.174,0.058 0.34,0.138 0.494,0.239 0.897,0.45 1.275,1.532 0.854,2.443 z"
         id="path4568" />
      <path
         d="m 316.449,45.768 c -3.414,-4.848 -11.199,-8.92 -13.014,-14.457 -0.463,-1.416 -0.541,-4.324 0.35,-5.682 0.893,-1.356 -0.523,-0.969 -0.523,-0.969 -1.939,0.747 -2.771,-1.386 -2.771,-1.386 -0.291,-0.747 0.105,-3.025 -1.563,-1.784 -3.004,2.259 -2.016,7.757 -1.453,9.967 1.025,3.773 2.994,7.224 5.719,10.025 0.971,0.902 7.08,7.621 6.246,11.063 -0.063,1.213 -0.908,2.244 -2.086,2.541 -4.449,0.892 -5.895,-4.567 -5.895,-4.567 -3.336,-14.242 -8.727,-19.226 -8.727,-19.226 -8.742,-0.318 -17.49,0.451 -26.043,2.288 -33.325,-1.251 -58.398,8.988 -58.398,8.988 -7.33,10.52 -11.635,30.057 -11.635,30.057 0,0 0,0.097 0.068,0.106 0.102,0.011 0.2,-0.038 0.252,-0.125 2.749,-3.446 5.859,-6.586 9.279,-9.366 -0.699,27.148 5.449,43.631 5.449,43.631 l 11.635,0 c 0.824,-9.784 8.503,-20.565 8.503,-20.565 4.324,3.277 14.097,2.308 14.097,2.308 1.726,6.535 5.236,18.247 5.236,18.247 l 14.019,0 c 1.215,-8.948 3.787,-17.658 7.631,-25.829 0,0 3.473,-7.874 3.559,-10.239 0.223,-4.121 4.121,-5.342 6.234,-5.342 2.113,0 11.732,5.371 18.918,5.013 12.516,-0.63 17.451,-6.419 17.693,-13.022 0.195,-4.538 -0.871,-8.95 -2.78,-11.675 z M 276.221,59.76 c -0.063,0.186 -0.15,0.362 -0.262,0.523 -0.127,0.189 -0.295,0.345 -0.494,0.456 -0.219,0.116 -0.463,0.17 -0.709,0.156 -0.219,-0.015 -0.434,-0.063 -0.641,-0.146 -0.68,-0.312 -1.299,-0.746 -1.82,-1.28 -0.262,-0.243 -0.506,-0.495 -0.738,-0.737 l -0.678,-0.708 c -0.424,-0.357 -0.91,-0.63 -1.436,-0.805 -0.572,-0.204 -1.193,-0.369 -1.842,-0.523 -0.65,-0.155 -1.299,-0.32 -2.008,-0.552 -0.174,-0.059 -0.357,-0.127 -0.563,-0.223 l -0.281,-0.107 c -0.131,-0.074 -0.254,-0.162 -0.367,-0.261 -0.221,-0.192 -0.404,-0.421 -0.543,-0.679 -0.121,-0.226 -0.213,-0.467 -0.271,-0.717 -0.09,-0.42 -0.121,-0.851 -0.098,-1.279 0.016,-0.378 0.059,-0.753 0.125,-1.125 0.135,-0.699 0.313,-1.388 0.535,-2.064 0.211,-0.646 0.449,-1.294 0.707,-1.94 0.127,-0.319 0.252,-0.629 0.398,-0.969 0.15,-0.332 0.318,-0.655 0.504,-0.97 0.729,-1.219 1.691,-2.282 2.83,-3.132 0.553,-0.416 1.141,-0.786 1.756,-1.105 0.615,-0.326 1.268,-0.585 1.938,-0.776 -1.09,0.761 -2.092,1.643 -2.984,2.628 -0.871,0.923 -1.588,1.981 -2.123,3.131 -0.127,0.282 -0.238,0.569 -0.33,0.863 l -0.303,0.97 c -0.193,0.63 -0.387,1.26 -0.541,1.891 -0.166,0.609 -0.299,1.228 -0.398,1.851 -0.045,0.289 -0.074,0.58 -0.088,0.873 -0.012,0.243 0.008,0.488 0.059,0.727 0.02,0.124 0.072,0.238 0.156,0.33 l 0,0 0.135,0.078 0.379,0.155 c 0.563,0.212 1.213,0.378 1.861,0.581 0.678,0.203 1.34,0.445 1.986,0.728 0.74,0.302 1.404,0.766 1.941,1.357 0.24,0.301 0.416,0.562 0.621,0.833 l 0.588,0.786 c 0.195,0.252 0.4,0.495 0.611,0.718 0.195,0.212 0.412,0.402 0.65,0.563 0.168,0.133 0.381,0.192 0.594,0.165 0.242,-0.091 0.445,-0.266 0.57,-0.495 0.172,-0.271 0.314,-0.561 0.428,-0.862 0.125,-0.312 0.223,-0.631 0.328,-0.971 0.066,0.691 0.003,1.391 -0.182,2.063 z m 12.391,-8.649 c -0.367,1.114 -1.57,1.718 -2.682,1.349 -1.113,-0.368 -1.719,-1.568 -1.352,-2.682 0.369,-1.113 1.572,-1.717 2.686,-1.349 0.174,0.058 0.34,0.138 0.494,0.239 0.897,0.45 1.275,1.532 0.854,2.443 z"
         id="path4570" />
    </g>
  </g>
</svg>
