<?xml version="1.0" encoding="utf-8"?>
<!-- Generator: Adobe Illustrator 19.1.0, SVG Export Plug-In . SVG Version: 6.00 Build 0)  -->
<svg version="1.1" id="contract" xmlns="http://www.w3.org/2000/svg" xmlns:xlink="http://www.w3.org/1999/xlink" x="0px" y="0px"
	 viewBox="0 0 14 14" style="enable-background:new 0 0 14 14;" xml:space="preserve">
<path d="M7.1018066,7.7341309c0.0005493,0.480896,0.0010376,0.9613037,0.0010376,1.442749
	c0,0.5825195-0.0004883,1.1660767-0.0010376,1.7485962c-0.0004883,0.4783325-0.3068848,0.8148804-0.7456055,0.8170166
	c-0.434021,0.0010376-0.7503052-0.3407593-0.7523804-0.8139038L5.6027832,9.4509277l-4.2547607,4.2558594
	c-0.0422363,0.0427246-0.0854492,0.0864868-0.1323242,0.1239624l-0.0010376,0.0010986
	c-0.199585,0.1594238-0.4501953,0.208374-0.6878052,0.1343994c-0.2349854-0.0739746-0.4194336-0.2625732-0.4934082-0.5054321
	c-0.0859375-0.2833862-0.0067749-0.5449829,0.2443848-0.7971802c1.2567139-1.2546387,2.5123901-2.5103149,3.7686157-3.7670898
	l0.5023193-0.5022583H4.1746216C3.8223877,8.3953247,3.4702148,8.3953247,3.117981,8.3932495
	c-0.3433838-0.0010376-0.6247559-0.187561-0.7341309-0.4855957C2.2963257,7.6710815,2.3265381,7.423584,2.4640503,7.2261353
	c0.1448975-0.2078857,0.3856201-0.3277588,0.6601562-0.3287964C3.9448853,6.8942261,4.7655029,6.8952637,5.5861206,6.895813
	l0.6710815,0.0004883C6.7928467,6.8968506,7.100769,7.2021484,7.1018066,7.7341309z M13.9663696,0.5247192
	c-0.0736694-0.2340088-0.2615356-0.4177246-0.5033569-0.4914551c-0.2822876-0.0855713-0.5428467-0.0067139-0.7940063,0.2434082
	c-1.2496338,1.251709-2.5003052,2.5024414-3.7520752,3.7536011L8.416687,4.5305786V4.157959
	c0.0010376-0.3508301,0.0010376-0.7015991-0.0010376-1.0524292c-0.0010376-0.34198-0.1868286-0.6222534-0.4837036-0.7312012
	c-0.2355957-0.0872192-0.4820557-0.0571289-0.678772,0.079895c-0.2070312,0.1442871-0.326416,0.3840332-0.3274536,0.6575317
	C6.9226074,3.9290771,6.923645,4.74646,6.9241333,5.5638428l0.0005493,0.668396
	c0.0004883,0.5334473,0.3046265,0.84021,0.8344727,0.8412476C8.2381592,7.0739746,8.7166138,7.0745239,9.196167,7.0745239
	c0.5802002,0,1.161438-0.0005493,1.7415771-0.0010376c0.4764404-0.0005493,0.8116455-0.3057251,0.8137207-0.7426758
	c0.0010376-0.432251-0.3393555-0.7472534-0.8106079-0.7493286L9.4691162,5.5804443l4.2388306-4.237793
	c0.0425415-0.0420532,0.0861816-0.085144,0.1235352-0.1318359l0.0010376-0.0010376
	C13.991333,1.0109863,14.0401001,0.7614136,13.9663696,0.5247192z"/>
</svg>
