<?xml version="1.0" encoding="utf-8"?>
<!-- Generator: Adobe Illustrator 19.2.0, SVG Export Plug-In . SVG Version: 6.00 Build 0)  -->
<svg version="1.1" id="contact" xmlns="http://www.w3.org/2000/svg" xmlns:xlink="http://www.w3.org/1999/xlink" x="0px" y="0px"
	 viewBox="0 0 14 14" style="enable-background:new 0 0 14 14;" xml:space="preserve">
<path d="M13,3.0218678v7.4731598H1V3.0218678H13 M14,2.0218678H0v9.4731598h14V2.0218678L14,2.0218678z M7.2384033,8.5696411
	c-0.1756592-0.1901855-0.482666-0.3425903-0.7461548-0.4187622C6.2287598,8.074646,5.9661255,7.9984741,5.7026367,7.8845215
	c-0.3948364-0.1524048-0.5261841-0.571167-0.3513184-0.8752441c0.1321411-0.2285767,0.2199707-0.4564819,0.3078003-0.6850586
	C5.7026367,6.2479858,5.7460938,6.171814,5.7904663,6.1340942c0.1756592-0.1901855,0.1756592-0.4187622,0-0.6473389
	c0-0.0762329,0-0.1524658,0-0.2286377c0-0.7228394-0.5704956-1.1793213-1.2288208-1.1416016
	C3.9033203,4.0787964,3.3328247,4.5352783,3.3328247,5.2581177c0,0.0761719,0,0.1524048,0,0.2286377
	c-0.1756592,0.2285767-0.1756592,0.4571533,0,0.6473389C3.3771973,6.171814,3.4206543,6.2479858,3.4641724,6.3242188
	C3.552002,6.5527954,3.6398315,6.7807007,3.7719727,7.0092773c0.1748657,0.3040771,0.0435181,0.7228394-0.3513184,0.8752441
	C3.1571655,7.9984741,2.8945312,8.074646,2.6310425,8.1508789C2.3675537,8.2270508,2.0605469,8.3794556,1.8848877,8.5696411
	C1.7970581,8.6835327,1.710083,8.8359375,1.6665649,8.9883423c0,0.1139526-0.0443726,0.2286377,0.0435181,0.3425293
	c0.0452271,0.1290283,0.3947754,0.1139526,0.5704346,0.1139526s0.3070068,0,0.482666,0c0.3070068,0,0.6583252,0,0.965332,0
	c0.2626343,0,0.5696411,0,0.8331299,0s0.5704956,0,0.8331299,0c0.3070068,0,0.6583252,0,0.965332,0
	c0.1756592,0,0.3070068,0,0.482666,0S7.367981,9.4598999,7.413208,9.3308716
	C7.5010986,9.21698,7.4567261,9.1022949,7.4567261,8.9883423C7.413208,8.8359375,7.3262329,8.6835327,7.2384033,8.5696411z
	 M12.4112549,5.9108276L7.9874878,5.90271L7.9855957,6.5946045l4.4237061,0.0081177L12.4112549,5.9108276z M12.4371948,7.3065796
	L7.9616089,7.2984619L7.9596558,7.9903564l4.4755859,0.0081177L12.4371948,7.3065796z M7.9596558,9.3861084l4.4755859,0.0081177
	l0.0019531-0.6918945L7.9616089,8.6942139L7.9596558,9.3861084z"/>
</svg>
