<?xml version="1.0" encoding="utf-8"?>
<!-- Generator: Adobe Illustrator 19.1.0, SVG Export Plug-In . SVG Version: 6.00 Build 0)  -->
<svg version="1.1" id="contact" xmlns="http://www.w3.org/2000/svg" xmlns:xlink="http://www.w3.org/1999/xlink" x="0px" y="0px"
	 viewBox="0 0 14 14" style="enable-background:new 0 0 14 14;" xml:space="preserve">
<g>
	<path d="M6.9888,8.9883728C6.9452972,8.8359375,6.8583069,8.6835632,6.7704926,8.5696259
		c-0.1756592-0.1901398-0.482666-0.3425751-0.74617-0.4187469c-0.2634735-0.0762024-0.526123-0.15242-0.7896271-0.2663574
		c-0.3948212-0.15242-0.5261688-0.571167-0.3513184-0.8752441c0.1321564-0.2285919,0.2200012-0.4564514,0.3078156-0.6850586
		c0.0435028-0.0762024,0.0869904-0.15242,0.1313477-0.1901398c0.1756592-0.1901398,0.1756592-0.4187469,0-0.6473389
		c0-0.0762177,0-0.15242,0-0.2286377c0-0.7228241-0.5705109-1.1792755-1.2288055-1.1415558
		C3.4354095,4.0788269,2.8648987,4.5352783,2.8648987,5.2581024c0,0.0762177,0,0.15242,0,0.2286377
		c-0.1756592,0.2285919-0.1756592,0.4571991,0,0.6473389C2.909256,6.1717987,2.9527435,6.2480164,2.9962463,6.3242188
		c0.0878143,0.2286072,0.1756592,0.4564667,0.3078156,0.6850586c0.1748505,0.3040771,0.0435028,0.7228241-0.3513184,0.8752441
		C2.6892395,7.9984589,2.42659,8.0746765,2.1631165,8.1508789c-0.263504,0.0761719-0.5705109,0.2286072-0.74617,0.4187469
		C1.3291321,8.6835632,1.2421417,8.8359375,1.1986389,8.9883728c0,0.1139221-0.0443573,0.2285919,0.0435028,0.3425293
		C1.287384,9.4599304,1.6369476,9.4448242,1.8126068,9.4448242s0.3070068,0,0.482666,0c0.3070068,0,0.6583252,0,0.965332,0
		c0.262619,0,0.5696259,0,0.8331299,0c0.2634735,0,0.5704803,0,0.8331299,0c0.3069763,0,0.6582947,0,0.9653015,0
		c0.1756592,0,0.3070068,0,0.482666,0s0.5252228,0.0151062,0.5704651-0.1139221
		C7.0331573,9.2169647,6.9888,9.1022949,6.9888,8.9883728z"/>
	<path d="M12.6832581,5.3286591V5.1154327c0-0.1221313-0.1124115-0.2220459-0.2498016-0.2220459H7.5183258
		c-0.1373901,0-0.2498016,0.0999146-0.2498016,0.2220459v0.2132111c0,0.1221313,0.1124115,0.2220459,0.2498016,0.2220459h4.9151306
		C12.5708466,5.5506897,12.6832581,5.4507751,12.6832581,5.3286591z"/>
	<path d="M12.6893311,6.9255981V6.7123718c0-0.1221313-0.1184845-0.2220459-0.2558746-0.2220459H7.5183258
		c-0.1373901,0-0.2498016,0.0999146-0.2498016,0.2220459v0.2132263c0,0.1221161,0.1124115,0.2220459,0.2498016,0.2220459h4.9151306
		C12.5708466,7.147644,12.6893311,7.0477142,12.6893311,6.9255981z"/>
	<path d="M12.6772003,8.5225372V8.3093109c0-0.1221313-0.1184845-0.2220459-0.2558746-0.2220459H7.5061951
		c-0.1374054,0-0.2498169,0.0999146-0.2498169,0.2220459V8.522522c0,0.1221313,0.1124115,0.2220459,0.2498169,0.2220459h4.9151306
		C12.5587158,8.7445679,12.6772003,8.6446533,12.6772003,8.5225372z"/>
	<g>
		<path d="M13.25,3.3229218v7.3541565H0.75V3.3229218H13.25 M13.3506165,2.5729218H0.6493835
			C0.2922211,2.5729218,0,2.8651428,0,3.2223053v7.5553894c0,0.3571625,0.2922211,0.6493835,0.6493835,0.6493835h12.7012329
			C13.7077789,11.4270782,14,11.1348572,14,10.7776947V3.2223053C14,2.8651428,13.7077789,2.5729218,13.3506165,2.5729218
			L13.3506165,2.5729218z"/>
	</g>
</g>
</svg>
