<?xml version="1.0" encoding="UTF-8" standalone="no"?>

<!--
 ~   Copyright 2017, WSO2 Inc. (http://www.wso2.com)
 ~
 ~   Licensed under the Apache License, Version 2.0 (the "License");
 ~   you may not use this file except in compliance with the License.
 ~   You may obtain a copy of the License at
 ~
 ~        http://www.apache.org/licenses/LICENSE-2.0
 ~
 ~   Unless required by applicable law or agreed to in writing, software
 ~   distributed under the License is distributed on an "AS IS" BASIS,
 ~   WITHOUT WARRANTIES OR CONDITIONS OF ANY KIND, either express or implied.
 ~   See the License for the specific language governing permissions and
 ~   limitations under the License.
-->

<svg
   xmlns:dc="http://purl.org/dc/elements/1.1/"
   xmlns:cc="http://creativecommons.org/ns#"
   xmlns:rdf="http://www.w3.org/1999/02/22-rdf-syntax-ns#"
   xmlns:svg="http://www.w3.org/2000/svg"
   xmlns="http://www.w3.org/2000/svg"
   version="1.1"
   id="svg2"
   viewBox="0 0 14 14"
   height="14"
   width="14">
  <defs
     id="defs4" />
  <metadata
     id="metadata7">
    <rdf:RDF>
      <cc:Work
         rdf:about="">
        <dc:format>image/svg+xml</dc:format>
        <dc:type
           rdf:resource="http://purl.org/dc/dcmitype/StillImage" />
        <dc:title></dc:title>
      </cc:Work>
    </rdf:RDF>
  </metadata>
  <g
     transform="matrix(0.11,0,0,0.11,57.651859,-21.656012)"
     id="original">
    <path
       d="m 235.101,89.661 c -0.934,-0.234 -1.843,-0.559 -2.715,-0.969 -1.988,3.122 -6.593,11.024 -7.253,18.18 l 11.926,0 c -1.477,-5.613 -2.137,-11.41 -1.958,-17.211 z"
       id="path4564" />
    <path
       d="m 273.748,83.32 c -2.391,5.356 -4.246,10.936 -5.537,16.658 -0.514,2.308 1.049,4.605 0.756,6.894 l 15.002,0 c -3.957,-10.918 -4.85,-26.799 -6.895,-33.15 -0.048,-0.087 -3.269,9.676 -3.326,9.598 z"
       id="path4566" />
    <path
       d="m 316.449,45.768 c -3.414,-4.848 -11.199,-8.92 -13.014,-14.457 -0.463,-1.416 -0.541,-4.324 0.35,-5.682 0.893,-1.356 -0.523,-0.969 -0.523,-0.969 -1.939,0.747 -2.771,-1.386 -2.771,-1.386 -0.291,-0.747 0.105,-3.025 -1.563,-1.784 -3.004,2.259 -2.016,7.757 -1.453,9.967 1.025,3.773 2.994,7.224 5.719,10.025 0.971,0.902 7.08,7.621 6.246,11.063 -0.063,1.213 -0.908,2.244 -2.086,2.541 -4.449,0.892 -5.895,-4.567 -5.895,-4.567 -3.336,-14.242 -8.727,-19.226 -8.727,-19.226 -8.742,-0.318 -17.49,0.451 -26.043,2.288 -33.325,-1.251 -58.398,8.988 -58.398,8.988 -7.33,10.52 -11.635,30.057 -11.635,30.057 0,0 0,0.097 0.068,0.106 0.102,0.011 0.2,-0.038 0.252,-0.125 2.749,-3.446 5.859,-6.586 9.279,-9.366 -0.699,27.148 5.449,43.631 5.449,43.631 l 11.635,0 c 0.824,-9.784 8.503,-20.565 8.503,-20.565 4.324,3.277 14.097,2.308 14.097,2.308 1.726,6.535 5.236,18.247 5.236,18.247 l 14.019,0 c 1.215,-8.948 3.787,-17.658 7.631,-25.829 0,0 3.473,-7.874 3.559,-10.239 0.223,-4.121 4.121,-5.342 6.234,-5.342 2.113,0 11.732,5.371 18.918,5.013 12.516,-0.63 17.451,-6.419 17.693,-13.022 0.195,-4.538 -0.871,-8.95 -2.78,-11.675 z M 276.221,59.76 c -0.063,0.186 -0.15,0.362 -0.262,0.523 -0.127,0.189 -0.295,0.345 -0.494,0.456 -0.219,0.116 -0.463,0.17 -0.709,0.156 -0.219,-0.015 -0.434,-0.063 -0.641,-0.146 -0.68,-0.312 -1.299,-0.746 -1.82,-1.28 -0.262,-0.243 -0.506,-0.495 -0.738,-0.737 l -0.678,-0.708 c -0.424,-0.357 -0.91,-0.63 -1.436,-0.805 -0.572,-0.204 -1.193,-0.369 -1.842,-0.523 -0.65,-0.155 -1.299,-0.32 -2.008,-0.552 -0.174,-0.059 -0.357,-0.127 -0.563,-0.223 l -0.281,-0.107 c -0.131,-0.074 -0.254,-0.162 -0.367,-0.261 -0.221,-0.192 -0.404,-0.421 -0.543,-0.679 -0.121,-0.226 -0.213,-0.467 -0.271,-0.717 -0.09,-0.42 -0.121,-0.851 -0.098,-1.279 0.016,-0.378 0.059,-0.753 0.125,-1.125 0.135,-0.699 0.313,-1.388 0.535,-2.064 0.211,-0.646 0.449,-1.294 0.707,-1.94 0.127,-0.319 0.252,-0.629 0.398,-0.969 0.15,-0.332 0.318,-0.655 0.504,-0.97 0.729,-1.219 1.691,-2.282 2.83,-3.132 0.553,-0.416 1.141,-0.786 1.756,-1.105 0.615,-0.326 1.268,-0.585 1.938,-0.776 -1.09,0.761 -2.092,1.643 -2.984,2.628 -0.871,0.923 -1.588,1.981 -2.123,3.131 -0.127,0.282 -0.238,0.569 -0.33,0.863 l -0.303,0.97 c -0.193,0.63 -0.387,1.26 -0.541,1.891 -0.166,0.609 -0.299,1.228 -0.398,1.851 -0.045,0.289 -0.074,0.58 -0.088,0.873 -0.012,0.243 0.008,0.488 0.059,0.727 0.02,0.124 0.072,0.238 0.156,0.33 l 0,0 0.135,0.078 0.379,0.155 c 0.563,0.212 1.213,0.378 1.861,0.581 0.678,0.203 1.34,0.445 1.986,0.728 0.74,0.302 1.404,0.766 1.941,1.357 0.24,0.301 0.416,0.562 0.621,0.833 l 0.588,0.786 c 0.195,0.252 0.4,0.495 0.611,0.718 0.195,0.212 0.412,0.402 0.65,0.563 0.168,0.133 0.381,0.192 0.594,0.165 0.242,-0.091 0.445,-0.266 0.57,-0.495 0.172,-0.271 0.314,-0.561 0.428,-0.862 0.125,-0.312 0.223,-0.631 0.328,-0.971 0.066,0.691 0.003,1.391 -0.182,2.063 z m 12.391,-8.649 c -0.367,1.114 -1.57,1.718 -2.682,1.349 -1.113,-0.368 -1.719,-1.568 -1.352,-2.682 0.369,-1.113 1.572,-1.717 2.686,-1.349 0.174,0.058 0.34,0.138 0.494,0.239 0.897,0.45 1.275,1.532 0.854,2.443 z"
       id="path4568" />
    <path
       d="m 316.449,45.768 c -3.414,-4.848 -11.199,-8.92 -13.014,-14.457 -0.463,-1.416 -0.541,-4.324 0.35,-5.682 0.893,-1.356 -0.523,-0.969 -0.523,-0.969 -1.939,0.747 -2.771,-1.386 -2.771,-1.386 -0.291,-0.747 0.105,-3.025 -1.563,-1.784 -3.004,2.259 -2.016,7.757 -1.453,9.967 1.025,3.773 2.994,7.224 5.719,10.025 0.971,0.902 7.08,7.621 6.246,11.063 -0.063,1.213 -0.908,2.244 -2.086,2.541 -4.449,0.892 -5.895,-4.567 -5.895,-4.567 -3.336,-14.242 -8.727,-19.226 -8.727,-19.226 -8.742,-0.318 -17.49,0.451 -26.043,2.288 -33.325,-1.251 -58.398,8.988 -58.398,8.988 -7.33,10.52 -11.635,30.057 -11.635,30.057 0,0 0,0.097 0.068,0.106 0.102,0.011 0.2,-0.038 0.252,-0.125 2.749,-3.446 5.859,-6.586 9.279,-9.366 -0.699,27.148 5.449,43.631 5.449,43.631 l 11.635,0 c 0.824,-9.784 8.503,-20.565 8.503,-20.565 4.324,3.277 14.097,2.308 14.097,2.308 1.726,6.535 5.236,18.247 5.236,18.247 l 14.019,0 c 1.215,-8.948 3.787,-17.658 7.631,-25.829 0,0 3.473,-7.874 3.559,-10.239 0.223,-4.121 4.121,-5.342 6.234,-5.342 2.113,0 11.732,5.371 18.918,5.013 12.516,-0.63 17.451,-6.419 17.693,-13.022 0.195,-4.538 -0.871,-8.95 -2.78,-11.675 z M 276.221,59.76 c -0.063,0.186 -0.15,0.362 -0.262,0.523 -0.127,0.189 -0.295,0.345 -0.494,0.456 -0.219,0.116 -0.463,0.17 -0.709,0.156 -0.219,-0.015 -0.434,-0.063 -0.641,-0.146 -0.68,-0.312 -1.299,-0.746 -1.82,-1.28 -0.262,-0.243 -0.506,-0.495 -0.738,-0.737 l -0.678,-0.708 c -0.424,-0.357 -0.91,-0.63 -1.436,-0.805 -0.572,-0.204 -1.193,-0.369 -1.842,-0.523 -0.65,-0.155 -1.299,-0.32 -2.008,-0.552 -0.174,-0.059 -0.357,-0.127 -0.563,-0.223 l -0.281,-0.107 c -0.131,-0.074 -0.254,-0.162 -0.367,-0.261 -0.221,-0.192 -0.404,-0.421 -0.543,-0.679 -0.121,-0.226 -0.213,-0.467 -0.271,-0.717 -0.09,-0.42 -0.121,-0.851 -0.098,-1.279 0.016,-0.378 0.059,-0.753 0.125,-1.125 0.135,-0.699 0.313,-1.388 0.535,-2.064 0.211,-0.646 0.449,-1.294 0.707,-1.94 0.127,-0.319 0.252,-0.629 0.398,-0.969 0.15,-0.332 0.318,-0.655 0.504,-0.97 0.729,-1.219 1.691,-2.282 2.83,-3.132 0.553,-0.416 1.141,-0.786 1.756,-1.105 0.615,-0.326 1.268,-0.585 1.938,-0.776 -1.09,0.761 -2.092,1.643 -2.984,2.628 -0.871,0.923 -1.588,1.981 -2.123,3.131 -0.127,0.282 -0.238,0.569 -0.33,0.863 l -0.303,0.97 c -0.193,0.63 -0.387,1.26 -0.541,1.891 -0.166,0.609 -0.299,1.228 -0.398,1.851 -0.045,0.289 -0.074,0.58 -0.088,0.873 -0.012,0.243 0.008,0.488 0.059,0.727 0.02,0.124 0.072,0.238 0.156,0.33 l 0,0 0.135,0.078 0.379,0.155 c 0.563,0.212 1.213,0.378 1.861,0.581 0.678,0.203 1.34,0.445 1.986,0.728 0.74,0.302 1.404,0.766 1.941,1.357 0.24,0.301 0.416,0.562 0.621,0.833 l 0.588,0.786 c 0.195,0.252 0.4,0.495 0.611,0.718 0.195,0.212 0.412,0.402 0.65,0.563 0.168,0.133 0.381,0.192 0.594,0.165 0.242,-0.091 0.445,-0.266 0.57,-0.495 0.172,-0.271 0.314,-0.561 0.428,-0.862 0.125,-0.312 0.223,-0.631 0.328,-0.971 0.066,0.691 0.003,1.391 -0.182,2.063 z m 12.391,-8.649 c -0.367,1.114 -1.57,1.718 -2.682,1.349 -1.113,-0.368 -1.719,-1.568 -1.352,-2.682 0.369,-1.113 1.572,-1.717 2.686,-1.349 0.174,0.058 0.34,0.138 0.494,0.239 0.897,0.45 1.275,1.532 0.854,2.443 z"
       id="path4570" />
  </g>
  <g
     transform="matrix(0.11,0,0,0.11,80.888055,-21.298865)"
     id="g4600">
    <circle
       style="fill:#ffffff"
       cx="257.89999"
       cy="64.231003"
       r="59.777"
       id="circle4584" />
    <circle
       style="fill:#09090a"
       cx="257.89999"
       cy="64.230003"
       r="22.281"
       id="circle4586" />
    <path
       style="fill:#09090a"
       d="M 312.241,36.572 C 297.282,6.472 260.752,-5.802 230.652,9.159 c -9.386,4.666 -17.409,11.674 -23.288,20.35 l 24.454,42.386 c -4.505,-14.313 3.45,-29.569 17.763,-34.072 2.516,-0.792 5.139,-1.213 7.777,-1.249"
       id="path4588" />
    <path
       style="fill:#080809"
       d="m 206.877,30.482 c -18.717,27.92 -11.255,65.727 16.664,84.444 8.638,5.79 18.617,9.271 28.983,10.111 l 25.54,-43.474 c -9.55,11.574 -26.674,13.216 -38.25,3.665 -3.931,-3.242 -6.872,-7.525 -8.484,-12.36"
       id="path4590" />
    <path
       style="fill:#060708"
       d="m 253.496,125.038 c 33.518,2.534 62.744,-22.584 65.278,-56.102 0.817,-10.816 -1.27,-21.65 -6.047,-31.389 l -54.883,0 c 15.005,0.068 27.116,12.289 27.044,27.295 -0.027,6.071 -2.088,11.96 -5.852,16.722"
       id="path4592" />
  </g>
  <path
     d="m 129.53896,-18.756941 c 1.28139,-0.10945 1.64285,-0.93093 3.14336,-1.07327 0.7337,-0.06578 1.20472,0.08767 1.2485,0.33946 0.0438,0.2409 -0.31746,0.40524 -0.7667,0.43813 -0.61325,0.06578 -0.87615,-0.16423 -0.91982,-0.37235 -0.44913,0.04378 -0.5258,0.24101 -0.50391,0.38335 0.0438,0.26279 0.60247,0.51469 1.54429,0.42713 1.07338,-0.08767 1.42384,-0.50391 1.33617,-0.93093 -0.10956,-0.54769 -0.93093,-1.00771 -2.40955,-0.87626 -1.89475,0.17523 -1.88375,1.04049 -3.16525,1.14994 -0.52558,0.04378 -0.82137,-0.07667 -0.87604,-0.28468 -0.033,-0.20812 0.2189,-0.30679 0.52558,-0.32868 0.28479,-0.02189 0.62436,0.02189 0.78859,0.10956 0.12045,-0.06578 0.16434,-0.12056 0.14234,-0.19712 -0.0438,-0.19712 -0.43802,-0.28479 -0.93093,-0.24101 -0.95282,0.08767 -0.95282,0.51469 -0.91982,0.70092 0.12034,0.51491 0.85415,0.84348 1.76319,0.75581 l 0,0 z m 6.41806,2.16865 c -1.18283,0.27368 -2.69423,0.44902 -4.51231,0.44902 -1.85097,0 -3.36237,-0.19712 -4.5452,-0.44902 -1.05138,-0.2739 -1.62096,-0.56958 -1.81808,-0.87615 0.0986,0.68992 0.27379,1.35806 0.5038,1.99331 -0.2629,0.16434 -0.51469,0.38335 -0.73381,0.65714 -0.41624,0.5258 -0.60236,1.13905 -0.56947,1.74152 0.0329,0.60236 0.32857,1.09527 0.79959,1.47851 0.4928,0.38335 1.0186,0.49291 1.62085,0.38335 0.23001,-0.03289 0.49291,-0.16434 0.72281,-0.23001 -0.4928,0 -0.90904,-0.16423 -1.32517,-0.4928 -0.44913,-0.32857 -0.7667,-0.79959 -0.83237,-1.35817 -0.10956,-0.52569 0,-1.01849 0.29579,-1.44573 0.0657,-0.08767 0.13123,-0.15334 0.20812,-0.21901 0.16423,0.41624 0.36135,0.81048 0.56947,1.19383 0.44902,0.68992 0.90904,1.29239 1.35817,1.93853 0.19712,0.38335 0.32846,0.7667 0.41613,1.13905 0.29568,0.41624 0.72281,0.7120295 1.24861,0.8652595 0.64625,0.23001 1.32517,0.31757 2.0152,0.31757 l 0.0767,0 c 0.68992,0 1.41284,-0.10945 2.08087,-0.32857 0.4928,-0.16423 0.90915,-0.4381295 1.21572,-0.8762595 l 0.0329,0 c 0.0766,-0.32857 0.19712,-0.7447 0.38335,-1.12805 0.44902,-0.64614 0.90904,-1.2485 1.35806,-1.93853 0.60247,-1.09527 1.01871,-2.34388 1.24861,-3.68005 -0.23012,0.32857 -0.79981,0.63514 -1.8183,0.86526 l 0,0 z m -9.05751,-0.95293 c 1.18283,0.29568 2.69434,0.44902 4.51231,0.44902 1.85086,0 3.32948,-0.16423 4.51231,-0.44902 1.2485,-0.29579 1.85086,-0.68992 1.85086,-1.05138 0,-0.27379 -0.27368,-0.5258 -0.7667,-0.72292 0.10945,0.07667 0.19712,0.19712 0.19712,0.32868 0,0.38335 -0.56947,0.68992 -1.70841,0.94193 -1.05149,0.2299 -2.40955,0.39413 -4.0524,0.39413 -1.58818,0 -3.00091,-0.16434 -4.01951,-0.38324 -1.09527,-0.2739 -1.67585,-0.56958 -1.67585,-0.94204 0,-0.16423 0.0768,-0.29568 0.29579,-0.44902 -0.68992,0.2739 -1.05149,0.4928 -1.05149,0.83237 0.0331,0.38335 0.64647,0.7667 1.90597,1.05149 l 0,0 z"
     id="path4608" />
  <g
     transform="matrix(0.11,0,0,0.11,125.86574,-22.727528)"
     id="g4618">
    <path
       d="m 282.935,81.648 c -1.51,-2.975 -3.298,-5.984 -5.391,-9.044 -1.511,-2.2 -3.106,-4.34 -4.783,-6.416 -0.683,-0.85 -0.396,-1.908 0.125,-2.434 0.516,-0.529 1.034,-1.056 1.554,-1.589 7.175,-7.319 14.593,-14.881 20.281,-23.055 6.053,-8.694 9.405,-16.941 10.252,-25.425 0.076,-0.879 -0.297,-1.739 -0.99,-2.284 -0.705,-0.535 -1.636,-0.668 -2.462,-0.354 -5.519,2.11 -11.12,3.712 -16.232,4.903 -1.021,0.242 -1.854,0.971 -2.235,1.948 -3.728,10.206 -13.241,19.922 -23.219,30.101 -0.401,0.381 -0.962,0.882 -1.876,0.882 -0.911,0 -1.467,-0.486 -1.875,-0.883 -9.981,-10.179 -19.492,-19.861 -23.219,-30.067 -0.38,-0.977 -1.215,-1.704 -2.233,-1.947 -5.116,-1.193 -10.722,-2.93 -16.23,-5.039 -1.317,-0.504 -2.793,0.154 -3.298,1.471 -0.143,0.371 -0.196,0.77 -0.156,1.166 0.846,8.486 4.197,16.834 10.25,25.529 5.687,8.171 13.106,15.736 20.281,23.052 13.216,13.477 25.699,26.21 26.797,40.974 0.098,1.333 1.207,2.365 2.545,2.365 l 15.528,0 c 1.41,-10e-4 2.556,-1.146 2.553,-2.557 0,-0.042 0,-0.083 -0.002,-0.124 -0.145,-2.815 -0.544,-5.612 -1.193,-8.356 l 0.005,-0.007 c -0.147,-0.543 0.175,-1.103 0.718,-1.25 0.086,-0.023 0.174,-0.036 0.264,-0.036 0.048,0 0.096,0.01 0.144,0.017 l 0.002,0 c 12.677,1.855 20.694,4.82 20.706,8.086 l 0,0.007 c 0,3.077 -7.207,7.723 -18.922,11.121 l -0.004,0.006 c -1.042,0.298 -1.801,1.238 -1.801,2.355 0,1.354 1.117,2.456 2.499,2.456 0.193,0 0.375,-0.022 0.556,-0.063 15.746,-3.641 26.185,-9.762 26.185,-16.672 -0.001,-8.206 -14.112,-15.534 -35.124,-18.838 l 0,0 z m -41.639,-8.004 c -0.476,-0.491 -1.129,-0.771 -1.813,-0.776 -1.16,0 -1.846,0.748 -2.105,1.144 -1.627,2.464 -3.114,5.016 -4.455,7.646 -20.981,3.309 -35.067,10.631 -35.067,18.829 0,6.918 10.363,13.026 26.138,16.667 0.002,0 0.018,0 0.023,-0.002 0.186,0.045 0.377,0.073 0.577,0.073 1.381,0 2.5,-1.102 2.5,-2.456 0,-1.116 -0.762,-2.044 -1.798,-2.344 l -0.007,-0.017 c -11.715,-3.4 -18.922,-8.046 -18.922,-11.122 l 0,-0.008 c 0.012,-3.259 8.007,-6.222 20.652,-8.077 0.045,-0.009 0.09,-0.015 0.135,-0.016 0.568,0.001 1.028,0.462 1.028,1.03 0,0.09 -0.012,0.181 -0.037,0.269 l 0.01,0.01 c -0.644,2.731 -1.04,5.516 -1.182,8.32 -0.035,0.695 0.221,1.385 0.704,1.895 0.48,0.504 1.159,0.794 1.856,0.794 l 15.53,0 c 1.34,-0.005 2.451,-1.038 2.555,-2.373 0.336,-4.543 1.757,-9.096 4.332,-13.884 0.893,-1.656 0.199,-3.211 -0.315,-3.875 -2.557,-3.324 -5.686,-6.868 -10.339,-11.727 l 0,0 z"
       id="path4620" />
    <path
       d="m 256.165,35.283 c 0.615,0.596 1.31,0.71 1.788,0.71 l 0.005,0 c 0.481,0 1.177,-0.112 1.791,-0.71 5.477,-5.325 8.419,-11.533 9.063,-13.258 0.123,-0.299 0.188,-0.619 0.19,-0.943 0,-1.379 -1.148,-2.362 -2.35,-2.362 -0.99,0 -3.814,0.292 -8.68,0.292 l -0.031,0 c -4.865,0 -7.687,-0.292 -8.678,-0.292 -1.2,0 -2.35,0.984 -2.35,2.362 0,0.4 0.097,0.688 0.19,0.942 0.646,1.725 3.589,7.933 9.062,13.259 l 0,0 z"
       id="path4622" />
  </g>
  <g
     transform="matrix(0.11,0,0,0.11,147.65168,-20.584698)"
     id="g4646">
    <path
       d="M 309.571,30.594 261.116,2.704 c -0.802,-0.501 -1.905,-0.702 -3.109,-0.702 -1.204,0 -2.308,0.3 -3.11,0.702 l -48.154,27.99 c -1.706,1.003 -2.909,3.511 -2.909,5.417 l 0,55.878 c 0,1.104 0.201,2.408 1.003,3.511 L 311.979,33.301 c -0.602,-1.203 -1.505,-2.106 -2.408,-2.707 l 0,0 z"
       id="path4634" />
    <path
       d="m 204.535,95.401 c 0.501,0.802 1.203,1.504 1.905,1.905 l 48.355,27.99 c 0.803,0.501 1.906,0.703 3.11,0.703 1.204,0 2.308,-0.3 3.11,-0.703 l 48.154,-27.99 c 1.704,-1.002 2.908,-3.511 2.908,-5.417 l 0,-55.879 c 0,-0.903 -0.101,-1.906 -0.601,-2.81 l -106.941,62.201 0,0 z"
       id="path4636" />
    <path
       style="fill:#ffffff"
       d="m 279.374,76.138 c -4.213,7.424 -12.239,12.44 -21.368,12.44 -13.544,0 -24.579,-11.036 -24.579,-24.579 0,-13.543 11.035,-24.579 24.579,-24.579 9.129,0 17.155,5.017 21.368,12.54 l 13.042,-7.523 c -6.822,-11.938 -19.663,-20.064 -34.41,-20.064 -21.87,0 -39.627,17.757 -39.627,39.626 0,21.87 17.757,39.627 39.627,39.627 14.647,0 27.487,-8.026 34.31,-19.863 l -12.942,-7.625 0,0 z"
       id="path4638" />
  </g>
  <g
     transform="matrix(0.11,0,0,0.11,168.36596,-22.72739)"
     id="original-3">
    <path
       d="m 294.102,76.757 c 0,4.832 -2.609,7.249 -7.346,7.442 l -57.891,0 c -4.736,0 -7.345,-2.417 -7.345,-7.442 0,-4.832 2.609,-7.248 7.345,-7.441 l 58.181,0 c 4.735,0.193 7.056,2.609 7.056,7.441 z m -7.056,11.114 -58.181,0 c -4.736,0 -7.345,2.32 -7.345,7.442 0,4.832 2.609,7.151 7.345,7.441 l 58.181,0 c 4.735,0 7.345,-2.416 7.345,-7.441 -0.289,-5.121 -2.61,-7.442 -7.345,-7.442 z m 17.977,-40.687 0,0 c -4.735,0 -7.345,2.416 -7.345,7.151 l 0,40.688 c 0,4.832 2.609,7.248 7.345,7.441 l 0,0 c 7.151,-0.193 10.921,-7.441 10.921,-22.132 l 0,-18.265 c 0,-9.858 -3.77,-14.691 -10.921,-14.883 z m -94.135,0 0,0 c -7.152,0.192 -10.921,5.025 -10.921,14.883 l 0,18.267 c 0,14.69 3.769,21.938 10.921,22.132 l 0,0 c 4.736,0 7.345,-2.319 7.345,-7.441 l 0,-40.4 c -0.193,-4.833 -2.609,-7.249 -7.345,-7.441 l 0,0 z m 94.135,-3.673 c 0,-12.274 -6.379,-18.073 -17.977,-18.267 l -58.181,0 c -11.791,0.193 -17.977,6.282 -17.977,18.267 l 0,0 c 7.152,0 10.921,3.865 10.921,11.114 0,7.248 3.769,11.018 10.921,11.018 l 50.74,0 c 7.055,0 10.92,-3.77 10.92,-11.018 -0.288,-7.441 3.77,-10.824 10.633,-11.114 l 0,0 z"
       id="path4655" />
  </g>
  <style
     type="text/css"
     id="style4988">
	.st0{fill:#FFFFFF;}
</style>
  <g
     transform="matrix(0.11,0,0,0.11,147.20107,-45.233)"
     id="g5005">
    <path
       d="M 19,113.9 9,1.7 119,1.7 109,113.9 64,126.4 19,113.9 Z"
       id="path4990" />
    <path
       d="m 64,116.8 36.4,-10.1 8.6,-95.9 -45,0 0,106 z"
       id="path4992" />
    <path
       style="fill:#ffffff"
       class="st0"
       d="m 64,52.5 -18.2,0 -1.3,-14.1 19.5,0 0,-13.8 -34.5,0 0.3,3.7 3.4,37.9 30.8,0 0,-13.7 z m 0,35.7 0,0 -15.4,-4.1 -1,-11 -13.8,0 1.9,21.6 28.2,7.8 0.1,0 0,-14.3 z"
       id="path4994" />
    <path
       style="fill:#ffffff"
       class="st0"
       d="m 64,52.5 0,13.8 16.9,0 -1.6,17.8 -15.3,4.1 0,14.3 28.2,-7.8 0.2,-2.3 3.2,-36.2 0.3,-3.7 -3.7,0 -28.2,0 z m 0,-27.9 0,13.8 33.2,0 0.3,-3.1 0.6,-7 0.3,-3.7 -34.4,0 z"
       id="path4996" />
  </g>
  <g
     transform="matrix(0.11,0,0,0.11,169.71782,-45.941786)"
     id="g5026">
    <path
       d="m 5.6,64.7 c 0,9.4 7.7,17.1 17.1,17.1 9.4,0 17.1,-7.7 17.1,-17.1 0,-9.4 -7.7,-17.1 -17.1,-17.1 -9.5,0.1 -17.1,7.7 -17.1,17.1 z"
       id="path5014" />
    <path
       d="m 107.5,4.7 c -9.4,0 -15,7.6 -15,20.2 l 0,77.8 c 0,12.7 5.6,20.2 15,20.2 9.4,0 15,-7.6 15,-20.2 l 0,-26 0,0 0,-51.7 C 122.4,12.3 116.8,4.7 107.5,4.7 Z"
       id="path5016" />
    <path
       d="m 81.3,6.4 -61.4,0 0,0 C 11.6,6.7 5.3,13.7 5.6,22 c 0.3,7.7 6.5,13.9 14.2,14.2 l 0,0.1 31.4,0 0,27.2 c 0,0.2 0,0.4 0,0.7 l 0,0 c 0,0.2 0,0.4 0,0.5 0,15.8 -12.8,28.7 -28.6,28.7 -0.3,0 -0.5,0 -0.8,0 l -0.1,0.1 c -0.4,0 -0.9,-0.1 -1.3,-0.1 -8.1,-0.2 -15,6.3 -15.2,14.6 -0.2,8.3 6.3,15.1 14.5,15.3 0.3,0 0.5,0 0.8,0 0.5,0 0.9,0 1.3,-0.1 l 0,0.1 0.8,0 c 32.3,0 58.6,-26.2 58.6,-58.6 0,-0.2 0,-0.3 0,-0.5 l 0,0 c 0,-1.3 0,-4.8 0,-9.6 0,0 0,-0.1 0,-0.1 0,0 0.1,-46.8 0.1,-48.1 z"
       id="path5018" />
  </g>
  <g
     transform="matrix(0.11,0,0,0.11,188.99341,-48.079143)"
     id="original-6">
    <circle
       cx="64"
       cy="64"
       r="24.1"
       id="circle5035" />
    <path
       d="m 113.1,23.1 c 0,-4.6 -3.7,-8.3 -8.3,-8.3 -2,0 -3.9,0.7 -5.4,2 -26,-19.6 -63,-14.4 -82.6,11.7 -19.6,26.1 -14.4,63 11.7,82.6 26.1,19.6 63,14.4 82.6,-11.7 15.8,-21 15.8,-49.9 0,-70.9 1.3,-1.4 2,-3.4 2,-5.4 z M 64,121 C 32.5,121 7,95.5 7,64 7,32.5 32.5,7 64,7 c 12.3,0 24.3,4 34.2,11.4 -2.6,3.7 -1.8,8.9 2,11.5 2.9,2 6.7,2 9.6,0 18.8,25.2 13.7,60.9 -11.6,79.8 C 88.2,117 76.3,121 64,121 Z"
       id="path5037" />
  </g>
  <style
     type="text/css"
     id="style5049">
	.st0{fill:#FFFFFF;}
</style>
  <style
     type="text/css"
     id="style5067">
	.st0{clip-path:url(#SVGID_2_);}
</style>
  <style
     type="text/css"
     id="style5111">
	.st0{fill:#CECDB7;}
	.st1{fill:#4FAA41;}
</style>
  <style
     type="text/css"
     id="style5194">
	.st0{fill:#A1A1A4;}
	.st1{fill:#EFF3F3;}
	.st2{fill:#FFFFFF;}
</style>
  <style
     type="text/css"
     id="style5252">
	.st0{fill:#FFFFFF;}
	.st1{fill:none;stroke:#FFFFFF;stroke-width:3;stroke-linecap:round;stroke-linejoin:round;}
</style>
  <g
     transform="matrix(0.11,0,0,0.11,148.27015,-68.084643)"
     id="g5291">
    <path
       d="m 96.3,40.7 -0.5,0 C 85,40.6 75.6,47.8 72.9,58.2 l -0.1,0 C 70.7,69.1 60.2,76.3 49.3,74.2 39.8,72.4 32.9,64.1 32.9,54.4 c 0,-0.7 0.1,-1.5 0.2,-2.2 0,-0.2 0,-0.3 0.1,-0.5 0.1,-0.2 0.1,-0.6 0.2,-0.8 C 37.4,32.1 49.7,16.1 66.9,7.4 40.8,-0.2 13.6,14.7 6,40.6 5.1,43.7 4.5,47 4.2,50.2 4.1,50.4 4,50.5 4,50.7 l 0,71.6 29,0 0,-23.1 c 24.7,11 53.7,-0.1 64.7,-24.8 4.7,-10.6 5.5,-22.6 2.3,-33.7 l -3.7,0 0,0 z"
       id="path5281" />
    <path
       d="M 67.9,57.3 68,57.1 c 3.1,-12.6 14.4,-21.4 27.4,-21.4 0.3,0 0.6,0 0.9,0 l 0.7,0 12.3,0 c 2.1,-0.1 4.2,-0.6 6.2,-1.5 -0.5,-0.1 -1,-0.1 -1.4,-0.2 -7.1,-1.4 -12.8,-6.5 -15,-13.4 2.9,3.8 7.1,6.4 11.8,7.4 4,0.8 8.2,0.3 11.9,-1.4 C 126.1,18.9 122.6,10 115,6.7 113.1,5.9 111.1,5.4 109,5.4 l -11.2,0 -2.4,0 c -27.5,0 -51.3,19.2 -57.2,46 -0.2,1 -0.4,2 -0.4,3 0,8.4 6.8,15.2 15.2,15.2 7.3,0.1 13.6,-5.1 14.9,-12.3 l 0,0 z m 36.2,-43.1 c 0.5,-2.5 3,-4.2 5.5,-3.7 2.5,0.5 4.2,3 3.7,5.5 -0.5,2.5 -3,4.2 -5.5,3.7 0,0 0,0 0,0 -2.5,-0.5 -4.1,-2.9 -3.7,-5.5 l 0,0 z m 19.9,93.2 c 0,8.4 -6.8,15.2 -15.2,15.2 l 0,0 -13.4,0 c -14.1,0 -27.7,-5.1 -38.3,-14.3 13.1,-1 25.5,-6.7 34.6,-16.2 1.2,0.2 2.4,0.3 3.7,0.3 0.3,0 13.3,0 13.4,0 8.4,-0.1 15.2,6.6 15.2,15 z"
       id="path5283" />
  </g>
  <style
     type="text/css"
     id="style5296">
	.st0{opacity:0.444;fill:url(#SVGID_1_);enable-background:new    ;}
</style>
  <g
     transform="matrix(0.11,0,0,0.11,170.73125,-68.530143)"
     id="g5316">
    <path
       d="m 63,10.1 c -4.2,0 -8.2,0.4 -11.7,1 C 40.9,12.9 39,16.8 39,23.9 l 0,9.1 25,0 0,3 -33.9,0 c -7.2,0 -13.4,4.3 -15.4,12.5 -2.3,9.4 -2.4,15.2 0,25 1.8,7.3 6,12.5 13.1,12.5 l 8.2,0 0,-11 c 0,-8 6.9,-15 15.1,-15 l 24.7,0 C 82.6,60 88,54.3 88,47.5 L 88,23.9 C 88,17.2 82.4,12.2 75.7,11.1 71.5,10.4 67.2,10.1 63,10.1 Z m -13,7.5 c 2.5,0 4.6,2.1 4.6,4.7 0,2.6 -2.1,4.7 -4.6,4.7 -2.6,0 -4.6,-2.1 -4.6,-4.7 0,-2.6 2.1,-4.7 4.6,-4.7 z"
       id="path5298" />
    <path
       d="m 92,36 0,11.3 C 92,55.8 84.8,63 76.6,63 L 51.3,63 C 44.5,63 39,68.8 39,75.5 L 39,99 c 0,6.7 5.8,10.6 12.3,12.5 7.8,2.3 15.2,2.7 24.5,0 6.2,-1.8 12.3,-5.4 12.3,-12.5 l 0,-9 -24.1,0 0,-4 37.4,0 c 7.2,0 9.9,-5 12.5,-12.5 2.6,-7.7 2.5,-15.1 0,-25 C 112,41.4 108.6,36 101.4,36 l -9.4,0 0,0 z M 77.8,95.9 c 2.6,0 4.6,2.1 4.6,4.7 0,2.6 -2.1,4.7 -4.6,4.7 -2.6,0 -4.6,-2.1 -4.6,-4.7 0,-2.6 2.1,-4.7 4.6,-4.7 z"
       id="path5300" />
    <path
       class="st0"
       d="m 97.3,119.6 c 0,3.5 -14.8,6.4 -33.1,6.4 -18.3,0 -33.1,-2.9 -33.1,-6.4 0,-3.5 14.8,-6.4 33.1,-6.4 18.3,0 33.1,2.9 33.1,6.4 z"
       id="path5307"
       style="opacity:0.444;fill:url(#SVGID_1_-7);enable-background:new" />
  </g>
  <path
     d="m 199.61421,-68.275357 c -1.342,-0.66 -2.717,-0.726 -4.125,-0.231 -1.298,0.462 -2.332,1.276 -3.102,2.398 -1.298,1.892 -2.244,3.949 -2.772,6.193 -0.275,1.144 -0.451,2.365 -0.396,3.542 0,0.099 0.022,0.121 0.033,0.341 l 6.644,0 c -0.022,-0.22 -0.033,-0.154 -0.044,-0.198 -0.352,-0.891 -0.627,-1.837 -0.814,-2.772 -0.275,-1.353 -0.418,-2.717 -0.132,-4.081 0.396,-1.903 1.485,-3.278 3.311,-3.993 1.034,-0.407 2.024,-0.286 2.882,0.473 0.011,0.011 0.022,0 0.044,0.011 l 0.286,-0.429 c -0.561,-0.517 -1.166,-0.924 -1.815,-1.254 l 0,0 z m -11.704,8.767 c -0.044,0.429 -0.099,0.836 -0.143,1.254 l 1.221,0.143 0.22,-1.309 c -0.44,-0.022 -0.858,-0.055 -1.298,-0.088 z m 2.409,-3.762 -1.155,-0.451 -0.374,1.056 1.177,0.374 c 0.121,-0.33 0.231,-0.638 0.352,-0.979 z m 5.434,5.907 c 0.396,0.033 0.792,0.044 1.221,0.077 -0.154,-0.33 -0.297,-0.627 -0.44,-0.913 -0.011,-0.033 -0.066,-0.066 -0.11,-0.066 -0.33,0 -0.671,0 -1.023,0 0.077,0.286 0.154,0.561 0.231,0.814 0.011,0.033 0.077,0.077 0.121,0.088 z m -3.487,-9.108 -0.88,-0.583 c -0.231,0.264 -0.462,0.517 -0.704,0.781 l 0.902,0.605 0.682,-0.803 z m 2.794,5.874 c 0,0.033 0.033,0.088 0.066,0.11 0.319,0.143 0.638,0.275 0.979,0.429 -0.011,-0.275 -0.022,-0.506 -0.044,-0.737 0,-0.044 -0.022,-0.099 -0.055,-0.121 -0.286,-0.165 -0.583,-0.308 -0.902,-0.484 -0.022,0.297 -0.033,0.55 -0.044,0.803 z m -0.264,-7.942 -0.594,-0.682 -0.825,0.429 c 0.209,0.253 0.396,0.484 0.605,0.726 -0.011,0.011 0.814,-0.473 0.814,-0.473 z m 0.374,5.412 c -0.022,0.044 0.011,0.132 0.044,0.165 0.242,0.22 0.484,0.418 0.759,0.66 0.066,-0.264 0.121,-0.495 0.176,-0.737 0.011,-0.044 0,-0.11 -0.033,-0.132 -0.209,-0.176 -0.44,-0.341 -0.66,-0.517 -0.11,0.198 -0.198,0.374 -0.286,0.561 z m 1.375,-5.764 c 0.308,0.011 0.616,0 0.935,0 -0.033,-0.22 -0.044,-0.396 -0.088,-0.561 -0.011,-0.044 -0.088,-0.11 -0.132,-0.121 -0.308,-0.022 -0.616,-0.033 -0.957,-0.055 0.044,0.231 0.077,0.429 0.132,0.627 0.011,0.044 0.066,0.099 0.11,0.11 z m 0.374,3.916 c 0.011,-0.033 0.022,-0.077 0,-0.11 -0.154,-0.231 -0.308,-0.462 -0.473,-0.715 l -0.528,0.484 0.726,0.803 c 0.099,-0.165 0.187,-0.308 0.275,-0.462 z m 0.561,-1.595 0.308,0.583 c 0.484,-0.264 0.539,-0.363 0.363,-0.748 0,-0.011 -0.671,0.165 -0.671,0.165 z m 2.343,-1.793 c 0.209,0.121 0.418,0.231 0.638,0.352 l 0.143,-0.231 c -0.264,-0.198 -0.528,-0.385 -0.814,-0.594 -0.011,0.121 -0.033,0.209 -0.022,0.286 0,0.066 0.011,0.165 0.055,0.187 z m -0.286,1.837 c 0.22,0.022 0.55,0.044 0.77,0.066 l 0,-0.297 c -0.22,-0.044 -0.55,-0.099 -0.77,-0.143 l 0,0.374 z"
     id="path5322" />
  <style
     type="text/css"
     id="style5371">
	.st0{fill:none;stroke:#FFFFFF;}
	.st1{fill:#FFFFFF;}
</style>
  <style
     type="text/css"
     id="style5401">
	.st0{fill:#FEFEFE;}
</style>
  <style
     type="text/css"
     id="style5421">
	.st0{fill:#FFFFFF;}
</style>
  <style
     type="text/css"
     id="style5508">
	.st0{fill:#FFFFFF;}
</style>
  <g
     style="display:none"
     id="layer6">
    <g
       transform="matrix(0.11,0,0,0.11,-21.37505,-0.03989)"
       id="g4682">
      <path
         d="M 309.933,30.359 261.138,2.273 c -0.808,-0.505 -1.92,-0.707 -3.132,-0.707 -1.212,0 -2.324,0.303 -3.132,0.707 l -48.492,28.186 c -1.718,1.01 -2.93,3.536 -2.93,5.456 l 0,56.271 c 0,1.111 0.202,2.424 1.01,3.535 L 312.357,33.086 c -0.606,-1.212 -1.516,-2.121 -2.424,-2.727 l 0,0 z"
         id="path4666" />
      <path
         d="m 204.16,95.62 c 0.505,0.809 1.212,1.516 1.919,1.919 l 48.694,28.186 c 0.808,0.504 1.919,0.707 3.132,0.707 1.213,0 2.325,-0.303 3.132,-0.707 l 48.49,-28.186 c 1.719,-1.01 2.931,-3.536 2.931,-5.456 l 0,-56.269 c 0,-0.909 -0.101,-1.919 -0.605,-2.829 L 204.16,95.62 l 0,0 z"
         id="path4668" />
      <path
         style="fill:#ffffff"
         d="M 279.525,76.224 C 275.282,83.7 267.2,88.751 258.006,88.751 244.367,88.751 233.255,77.638 233.255,64 c 0,-13.639 11.112,-24.751 24.751,-24.751 9.193,0 17.275,5.051 21.519,12.628 L 292.658,44.3 C 285.79,32.279 272.857,24.095 258.007,24.095 c -22.023,0 -39.905,17.882 -39.905,39.905 0,22.023 17.881,39.905 39.905,39.905 14.749,0 27.681,-8.082 34.551,-20.002 l -13.033,-7.679 0,0 z"
         id="path4670" />
      <g
         id="g4672">
        <path
           style="fill:#ffffff"
           d="m 276.291,61.778 5.254,0 0,-5.355 4.445,0 0,5.355 5.354,0 0,4.444 -5.354,0 0,5.254 -4.445,0 0,-5.254 -5.254,0 0,-4.444 0,0 z m 18.691,0 5.253,0 0,-5.355 4.445,0 0,5.355 5.354,0 0,4.444 -5.354,0 0,5.254 -4.445,0 0,-5.254 -5.253,0 0,-4.444 0,0 z"
           id="path4674" />
      </g>
    </g>
  </g>
  <g
     style="display:inline"
     id="layer7">
    <g
       transform="matrix(0.11,0,0,0.11,-0.0345,-0.04090042)"
       id="g5088" />
    <g
       transform="matrix(0.11,0,0,0.11,-21.375105,-0.040055)"
       id="g4702">
      <path
         d="M 310.039,30.29 261.145,2.148 C 260.334,1.642 259.22,1.44 258.006,1.44 c -1.215,0 -2.329,0.303 -3.138,0.708 l -48.591,28.243 c -1.721,1.012 -2.936,3.543 -2.936,5.467 l 0,56.386 c 0,1.114 0.202,2.429 1.012,3.543 L 312.469,33.023 c -0.608,-1.215 -1.52,-2.126 -2.43,-2.733 l 0,0 z"
         id="path4690" />
      <path
         d="m 204.05,95.686 c 0.506,0.809 1.215,1.518 1.923,1.923 l 48.793,28.244 c 0.81,0.506 1.923,0.708 3.138,0.708 1.215,0 2.328,-0.304 3.138,-0.708 l 48.592,-28.244 c 1.721,-1.012 2.936,-3.543 2.936,-5.466 l 0,-56.386 c 0,-0.911 -0.101,-1.924 -0.606,-2.834 l -107.914,62.763 0,0 z"
         id="path4692" />
      <path
         style="fill:#ffffff"
         d="m 279.569,76.249 c -4.253,7.49 -12.352,12.553 -21.563,12.553 -13.667,0 -24.802,-11.136 -24.802,-24.802 0,-13.666 11.135,-24.802 24.802,-24.802 9.211,0 17.31,5.061 21.563,12.654 l 13.159,-7.593 c -6.884,-12.046 -19.841,-20.246 -34.722,-20.246 -22.069,0 -39.986,17.918 -39.986,39.986 0,22.068 17.917,39.987 39.986,39.987 14.779,0 27.736,-8.099 34.621,-20.044 l -13.058,-7.693 0,0 z m 11.842,-10.022 0.911,-4.353 -4.251,0 0,-4.758 5.162,0 1.216,-6.277 4.96,0 -1.214,6.175 3.847,0 1.214,-6.175 4.859,0 -1.215,6.175 2.43,0 0,4.758 -3.341,0 -0.911,4.354 4.252,0 0,4.758 -5.163,0 -1.214,6.073 -4.962,0 1.216,-6.073 -3.847,0 -1.216,6.073 -4.858,0 1.215,-6.073 -2.43,0 0,-4.758 3.34,0 0,0.101 z m 4.86,0 3.848,0 0.911,-4.353 -3.848,0 -0.911,4.353 z"
         id="path4694" />
    </g>
  </g>
  <g
     style="display:none"
     id="layer8">
    <g
       transform="matrix(0.11,0,0,0.11,-21.37516,-0.039945)"
       id="g4726">
      <path
         d="m 213.549,113.257 -9.88,-110.825 108.574,0 -9.891,110.809 -44.462,12.326 -44.341,-12.31 0,0 z"
         id="path4708" />
      <path
         d="m 257.956,116.145 35.929,-9.961 8.451,-94.69 -44.38,0 0,104.651 0,0 z"
         id="path4710" />
      <path
         style="fill:#ffffff"
         d="m 257.956,51.646 17.985,0 1.242,-13.919 -19.228,0 0,-13.592 34.083,0 -0.325,3.646 -3.342,37.457 -30.416,0 0,-13.592 0.001,0 z"
         id="path4712" />
      <path
         style="fill:#ffffff"
         d="m 258.037,86.946 -0.06,0.018 -15.137,-4.087 -0.968,-10.841 -13.643,0 1.903,21.343 27.842,7.727 0.062,-0.017 0,-14.143 10e-4,0 z"
         id="path4714" />
      <path
         style="fill:#ffffff"
         d="m 274.786,64.662 -1.637,18.203 -15.16,4.092 0,14.142 27.865,-7.723 0.204,-2.297 2.364,-26.417 -13.636,0 0,0 z"
         id="path4716" />
      <path
         style="fill:#ffffff"
         d="m 258.002,24.135 0,13.592 -32.831,0 -0.272,-3.054 -0.619,-6.891 -0.325,-3.646 34.047,0 z m -0.046,27.512 0,13.593 -14.946,0 -0.272,-3.054 -0.62,-6.892 -0.324,-3.646 16.162,0 z"
         id="path4718" />
    </g>
  </g>
  <g
     style="display:none"
     id="layer9">
    <g
       transform="matrix(0.11,0,0,0.11,-21.41982,-0.09577)"
       id="g4745">
      <path
         d="m 319.817,83.976 c 0,3.736 -3.048,6.784 -6.785,6.784 l -109.34,0 c -3.736,0 -6.785,-3.048 -6.785,-6.784 l 0,-38.938 c 0,-3.736 3.048,-6.784 6.785,-6.784 l 109.34,0 c 3.737,0 6.785,3.048 6.785,6.784 l 0,38.938 z"
         id="path4735" />
      <path
         style="fill:#ffffff"
         d="m 216.359,45.332 6.087,0 0,27.799 c -3.043,0.608 -5.377,0.812 -7.812,0.812 -7.305,0 -11.16,-3.348 -11.16,-9.639 0,-6.087 4.058,-10.145 10.348,-10.145 1.015,0 1.725,0.102 2.638,0.305 l 0,-9.131 -0.101,0 0,-10e-4 z m 0,14.001 c -0.71,-0.203 -1.319,-0.305 -2.029,-0.305 -3.043,0 -4.769,1.826 -4.769,5.175 0,3.246 1.725,4.971 4.769,4.971 0.71,0 1.217,0 2.029,-0.203 l 0,-9.638 z m 15.624,-4.667 0,13.899 c 0,4.769 -0.304,7.102 -1.42,9.131 -1.014,1.928 -2.232,3.146 -4.87,4.464 l -5.58,-2.638 c 2.638,-1.218 3.957,-2.333 4.769,-4.058 0.812,-1.726 1.116,-3.754 1.116,-8.929 l 0,-11.87 5.985,0 z m -5.986,-9.233 5.986,0 0,6.188 -5.986,0 0,-6.188 z m 9.638,10.552 c 2.637,-1.217 5.174,-1.826 7.913,-1.826 3.043,0 5.073,0.812 5.986,2.435 0.507,0.913 0.71,2.029 0.71,4.565 l 0,12.175 c -2.739,0.405 -6.087,0.71 -8.623,0.71 -5.073,0 -7.305,-1.725 -7.305,-5.682 0,-4.261 3.044,-6.188 10.349,-6.797 l 0,-1.319 c 0,-1.116 -0.507,-1.521 -2.029,-1.521 -2.232,0 -4.768,0.608 -7.102,1.826 l 0,-4.566 0.101,0 0,0 z m 9.334,9.536 c -3.957,0.406 -5.275,1.015 -5.275,2.536 0,1.218 0.71,1.726 2.333,1.726 0.914,0 1.725,-0.102 2.841,-0.305 l 0,-3.957 0.101,0 0,0 z m 8.218,-9.942 c 3.551,-0.913 6.493,-1.319 9.436,-1.319 3.044,0 5.275,0.71 6.595,2.029 1.217,1.319 1.623,2.739 1.623,5.681 l 0,11.769 -5.986,0 0,-11.565 c 0,-2.334 -0.812,-3.146 -2.941,-3.146 -0.813,0 -1.522,0.102 -2.74,0.406 l 0,14.305 -5.985,0 0,-18.16 -0.002,0 z m 19.987,21.407 c 2.13,1.115 4.26,1.623 6.391,1.623 3.957,0 5.58,-1.623 5.58,-5.377 l 0,-0.102 c -1.217,0.608 -2.333,0.812 -3.855,0.812 -5.275,0 -8.623,-3.449 -8.623,-8.928 0,-6.798 4.971,-10.653 13.696,-10.653 2.536,0 4.972,0.304 7.812,0.812 l -2.029,4.363 c -1.623,-0.305 -0.101,0 -1.318,-0.203 l 0,0.608 0.102,2.536 0,3.247 c 0,0.812 0,1.623 0.102,2.435 l 0,1.624 c 0,5.174 -0.406,7.608 -1.725,9.536 -1.826,2.942 -5.072,4.363 -9.74,4.363 -2.333,0 -4.362,-0.305 -6.492,-1.218 l 0,-5.479 0.099,0 0,0.001 z m 11.971,-17.856 -0.608,0 c -1.218,0 -2.536,0.305 -3.449,0.812 -1.421,0.812 -2.231,2.334 -2.231,4.362 0,3.044 1.521,4.769 4.158,4.769 0.813,0 1.522,-0.202 2.232,-0.405 l 0,-9.538 -0.102,0 0,0 z m 18.465,-4.972 c 5.986,0 9.639,3.754 9.639,9.943 0,6.29 -3.855,10.247 -9.943,10.247 -5.985,0 -9.739,-3.754 -9.739,-9.842 0.1,-6.391 3.955,-10.348 10.043,-10.348 z m -0.102,15.219 c 2.334,0 3.652,-1.928 3.652,-5.275 0,-3.247 -1.318,-5.275 -3.652,-5.275 -2.333,0 -3.754,1.927 -3.754,5.275 0.102,3.449 1.421,5.275 3.754,5.275 z"
         id="path4737" />
    </g>
  </g>
  <g
     style="display:none"
     id="layer10">
    <g
       transform="matrix(0.11,0,0,0.11,-21.37505,-0.04)"
       id="g4782">
      <path
         d="m 267.806,50.781 11.359,0 0,11.56 5.73,0 c 2.613,0 5.327,-0.502 7.84,-1.306 1.207,-0.402 2.613,-1.005 3.82,-1.709 -1.608,-2.111 -2.412,-4.725 -2.613,-7.338 -0.302,-3.519 0.401,-8.143 2.814,-10.857 l 1.206,-1.407 1.407,1.106 c 3.619,2.915 6.534,6.835 7.138,11.459 4.322,-1.307 9.349,-1.006 13.169,1.207 l 1.508,0.904 -0.805,1.608 c -3.217,6.232 -9.952,8.244 -16.486,7.841 -9.852,24.428 -31.162,35.988 -57.098,35.988 -13.369,0 -25.633,-5.026 -32.67,-16.888 l -0.1,-0.201 -1.006,-2.111 c -2.412,-5.227 -3.116,-10.958 -2.613,-16.688 l 0.201,-1.708 9.65,0 0,-11.46 11.358,0 0,-11.259 22.618,0 0,-11.359 13.57,0 0,22.618 z"
         id="path4750" />
      <path
         d="m 304.597,55.103 c 0.805,-5.931 -3.617,-10.554 -6.433,-12.766 -3.116,3.619 -3.618,13.27 1.307,17.291 -2.814,2.412 -8.544,4.724 -14.575,4.724 l -72.578,0 c -0.604,6.233 0.502,11.962 3.015,16.889 l 0.805,1.508 c 0.503,0.904 1.106,1.708 1.709,2.613 3.015,0.201 5.729,0.301 8.243,0.201 4.926,-0.101 8.946,-0.704 12.063,-1.709 0.503,-0.201 0.904,0.1 1.105,0.503 0.201,0.502 -0.1,0.904 -0.502,1.105 -0.402,0.101 -0.805,0.301 -1.308,0.402 -2.412,0.704 -5.026,1.106 -8.343,1.307 l -0.604,0 c -1.307,0.101 -2.714,0.101 -4.223,0.101 -1.607,0 -3.115,0 -4.925,-0.101 6.031,6.836 15.48,10.856 27.343,10.856 25.131,0 46.441,-11.158 55.79,-36.088 6.735,0.705 13.169,-1.004 16.084,-6.735 -4.523,-2.714 -10.555,-1.81 -13.973,-0.101 l 0,0 z"
         id="path4752" />
      <path
         style="fill:#ffffff"
         d="m 222.168,52.691 9.852,0 0,9.851 -9.852,0 0,-9.851 z m 0.804,0.804 0.805,0 0,8.142 -0.805,0 0,-8.142 z m 1.408,0 0.804,0 0,8.142 -0.804,0 0,-8.142 z m 1.508,0 0.805,0 0,8.142 -0.805,0 0,-8.142 z m 1.508,0 0.804,0 0,8.142 -0.804,0 0,-8.142 z m 1.508,0 0.805,0 0,8.142 -0.805,0 0,-8.142 z m 1.507,0 0.805,0 0,8.142 -0.805,0 0,-8.142 z m 3.016,-12.063 9.852,0 0,9.851 -9.852,0 0,-9.851 z m 0.904,0.804 0.805,0 0,8.143 -0.805,0 0,-8.143 z m 1.409,0 0.804,0 0,8.143 -0.804,0 0,-8.143 z m 1.507,0 0.804,0 0,8.143 -0.804,0 0,-8.143 z m 1.508,0 0.804,0 0,8.143 -0.804,0 0,-8.143 z m 1.407,0 0.804,0 0,8.143 -0.804,0 0,-8.143 z m 1.507,0 0.805,0 0,8.143 -0.805,0 0,-8.143 z"
         id="path4754" />
      <path
         style="fill:#ffffff"
         d="m 233.427,52.691 9.852,0 0,9.851 -9.852,0 0,-9.851 z m 0.904,0.804 0.805,0 0,8.142 -0.805,0 0,-8.142 z m 1.409,0 0.804,0 0,8.142 -0.804,0 0,-8.142 z m 1.507,0 0.804,0 0,8.142 -0.804,0 0,-8.142 z m 1.508,0 0.804,0 0,8.142 -0.804,0 0,-8.142 z m 1.407,0 0.804,0 0,8.142 -0.804,0 0,-8.142 z m 1.507,0 0.805,0 0,8.142 -0.805,0 0,-8.142 z"
         id="path4756" />
      <path
         style="fill:#ffffff"
         d="m 244.786,52.691 9.852,0 0,9.851 -9.852,0 0,-9.851 z m 0.804,0.804 0.804,0 0,8.142 -0.804,0 0,-8.142 z m 1.509,0 0.804,0 0,8.142 -0.804,0 0,-8.142 z m 1.508,0 0.804,0 0,8.142 -0.804,0 0,-8.142 z m 1.406,0 0.805,0 0,8.142 -0.805,0 0,-8.142 z m 1.508,0 0.805,0 0,8.142 -0.805,0 0,-8.142 z m 1.508,0 0.805,0 0,8.142 -0.805,0 0,-8.142 z"
         id="path4758" />
      <path
         style="fill:#ffffff"
         d="m 244.786,41.432 9.852,0 0,9.851 -9.852,0 0,-9.851 z m 0.804,0.804 0.804,0 0,8.143 -0.804,0 0,-8.143 z m 1.509,0 0.804,0 0,8.143 -0.804,0 0,-8.143 z m 1.508,0 0.804,0 0,8.143 -0.804,0 0,-8.143 z m 1.406,0 0.805,0 0,8.143 -0.805,0 0,-8.143 z m 1.508,0 0.805,0 0,8.143 -0.805,0 0,-8.143 z m 1.508,0 0.805,0 0,8.143 -0.805,0 0,-8.143 z m 3.117,10.455 9.852,0 0,9.851 -9.852,0 0,-9.851 z m 0.803,0.804 0.804,0 0,8.142 -0.804,0 0,-8.142 z m 1.508,0 0.804,0 0,8.142 -0.804,0 0,-8.142 z m 1.408,0 0.805,0 0,8.142 -0.805,0 0,-8.142 z m 1.507,0 0.805,0 0,8.142 -0.805,0 0,-8.142 z m 1.508,0 0.805,0 0,8.142 -0.805,0 0,-8.142 z m 1.508,0 0.805,0 0,8.142 -0.805,0 0,-8.142 z"
         id="path4760" />
      <path
         style="fill:#ffffff"
         d="m 256.146,41.432 9.852,0 0,9.851 -9.852,0 0,-9.851 z m 0.803,0.804 0.804,0 0,8.143 -0.804,0 0,-8.143 z m 1.508,0 0.804,0 0,8.143 -0.804,0 0,-8.143 z m 1.408,0 0.805,0 0,8.143 -0.805,0 0,-8.143 z m 1.507,0 0.805,0 0,8.143 -0.805,0 0,-8.143 z m 1.508,0 0.805,0 0,8.143 -0.805,0 0,-8.143 z m 1.508,0 0.805,0 0,8.143 -0.805,0 0,-8.143 z"
         id="path4762" />
      <path
         style="fill:#ffffff"
         d="m 256.146,30.073 9.852,0 0,9.851 -9.852,0 0,-9.851 z m 0.803,0.804 0.804,0 0,8.143 -0.804,0 0,-8.143 0,0 z m 1.508,0 0.804,0 0,8.143 -0.804,0 0,-8.143 0,0 z m 1.408,0 0.805,0 0,8.143 -0.805,0 0,-8.143 0,0 z m 1.507,0 0.805,0 0,8.143 -0.805,0 0,-8.143 0,0 z m 1.508,0 0.805,0 0,8.143 -0.805,0 0,-8.143 0,0 z m 1.508,0 0.805,0 0,8.143 -0.805,0 0,-8.143 0,0 z"
         id="path4764" />
      <path
         style="fill:#ffffff"
         d="m 267.504,52.691 9.852,0 0,9.851 -9.852,0 0,-9.851 z m 0.805,0.804 0.804,0 0,8.142 -0.804,0 0,-8.142 z m 1.407,0 0.805,0 0,8.142 -0.805,0 0,-8.142 z m 1.508,0 0.805,0 0,8.142 -0.805,0 0,-8.142 z m 1.508,0 0.805,0 0,8.142 -0.805,0 0,-8.142 z m 1.508,0 0.805,0 0,8.142 -0.805,0 0,-8.142 z m 1.507,0 0.805,0 0,8.142 -0.805,0 0,-8.142 z"
         id="path4766" />
      <path
         style="fill:#ffffff"
         d="m 242.675,78.425 c 1.508,0 2.715,1.207 2.715,2.715 0,1.508 -1.207,2.714 -2.715,2.714 -1.508,0 -2.715,-1.206 -2.715,-2.714 0,-1.508 1.207,-2.715 2.715,-2.715"
         id="path4768" />
      <path
         d="m 242.675,79.229 c 0.201,0 0.503,0 0.703,0.101 -0.2,0.101 -0.402,0.402 -0.402,0.704 0,0.402 0.402,0.805 0.805,0.805 0.303,0 0.604,-0.201 0.704,-0.403 0.101,0.202 0.101,0.503 0.101,0.704 0,1.105 -0.904,1.91 -1.91,1.91 -1.105,0 -1.91,-0.905 -1.91,-1.91 -0.001,-1.006 0.804,-1.911 1.909,-1.911 m -47.949,-6.333 126.057,0 c -2.715,-0.704 -8.646,-1.609 -7.74,-5.228 -5.027,5.729 -16.989,4.021 -20.105,1.207 -3.418,4.926 -23.121,3.016 -24.428,-0.805 -4.221,5.026 -17.391,5.026 -21.611,0 -1.408,3.821 -21.11,5.73 -24.428,0.805 -3.016,2.815 -15.078,4.523 -20.105,-1.207 1.104,3.519 -4.926,4.525 -7.64,5.228"
         id="path4770" />
      <path
         style="fill:#ffffff"
         d="m 249.913,98.027 c -6.735,-3.217 -10.354,-7.539 -12.466,-12.264 -2.513,0.705 -5.528,1.207 -8.946,1.408 -1.307,0.101 -2.714,0.101 -4.121,0.101 -1.709,0 -3.418,0 -5.228,-0.101 6.031,6.031 13.671,10.756 27.644,10.856 l 3.117,0 0,0 z"
         id="path4772" />
      <path
         style="fill:#ffffff"
         d="m 239.96,90.086 c -0.904,-1.307 -1.809,-2.815 -2.513,-4.323 -2.513,0.705 -5.528,1.207 -8.946,1.408 2.313,1.206 5.731,2.412 11.459,2.915 z"
         id="path4774" />
    </g>
  </g>
  <g
     style="display:none"
     id="layer14">
    <g
       transform="matrix(0.11,0,0,0.11,-21.375215,-0.04)"
       id="g4878">
      <path
         d="m 238.85,49.255 c 4.51,13.791 6.218,38.392 19.406,38.392 1.002,0 2.018,-0.098 3.037,-0.292 -11.987,-2.794 -13.408,-27.127 -20.724,-39.729 -0.574,0.521 -1.142,1.064 -1.719,1.629"
         id="path4798" />
      <path
         d="m 240.569,47.625 c 7.315,12.602 8.737,36.934 20.724,39.729 0.942,-0.173 1.886,-0.435 2.831,-0.765 -10.76,-5.272 -13.733,-28.9 -22.042,-40.276 -0.503,0.42 -1.008,0.857 -1.513,1.312"
         id="path4800" />
      <path
         d="m 251.108,40.132 c -1,0 -2.018,0.098 -3.04,0.292 -2.667,0.503 -5.378,1.651 -8.111,3.391 0.746,0.737 1.457,1.579 2.125,2.499 2.78,-2.306 5.541,-4.01 8.291,-5.035 1.033,-0.383 2.062,-0.67 3.093,-0.859 -0.745,-0.189 -1.528,-0.288 -2.358,-0.288"
         id="path4802" />
      <path
         d="m 272.524,81.731 c 1.1,-0.875 2.203,-1.843 3.308,-2.899 -4.582,-13.726 -6.224,-38.679 -19.502,-38.679 -0.949,0 -1.907,0.088 -2.863,0.265 12.095,3.009 13.645,29.325 19.057,41.313"
         id="path4804" />
      <path
         d="m 253.467,40.419 c -0.745,-0.189 -1.529,-0.288 -2.36,-0.288 l 5.222,0.02 c -0.948,0 -1.906,0.087 -2.862,0.268"
         id="path4806" />
      <path
         d="m 272.291,84.646 c -0.52,-0.495 -1.013,-1.038 -1.498,-1.617 -2.234,1.582 -4.459,2.781 -6.67,3.563 0.787,0.384 1.611,0.67 2.487,0.847 0.678,0.139 1.382,0.21 2.118,0.21 2.482,0 4.445,-0.294 6.113,-1.095 -0.918,-0.499 -1.761,-1.142 -2.55,-1.908"
         id="path4808" />
      <path
         d="m 250.372,41.281 c 10.834,5.666 11.776,31.329 20.421,41.748 0.58,-0.408 1.154,-0.841 1.727,-1.298 -5.411,-11.987 -6.958,-38.308 -19.052,-41.313 -1.032,0.193 -2.062,0.479 -3.096,0.863"
         id="path4810" />
      <path
         d="m 242.082,46.314 c 8.308,11.376 11.281,35.005 22.042,40.277 2.211,-0.781 4.438,-1.979 6.67,-3.563 -8.645,-10.419 -9.587,-36.08 -20.421,-41.748 -2.75,1.024 -5.511,2.728 -8.291,5.034"
         id="path4812" />
      <path
         d="m 233.536,48.924 c -1.302,2.943 -2.632,6.813 -4.239,11.865 3.197,-4.506 6.384,-8.387 9.553,-11.533 -0.437,-1.341 -0.905,-2.579 -1.411,-3.682 -1.296,0.992 -2.602,2.108 -3.903,3.35"
         id="path4814" />
      <path
         d="m 238.594,44.724 c -0.382,0.274 -0.767,0.554 -1.154,0.85 0.505,1.104 0.973,2.341 1.409,3.683 0.576,-0.563 1.148,-1.108 1.72,-1.63 -0.614,-1.055 -1.267,-2.029 -1.975,-2.903"
         id="path4816" />
      <path
         d="m 239.958,43.814 c -0.454,0.288 -0.907,0.592 -1.365,0.909 0.709,0.873 1.361,1.849 1.977,2.904 0.505,-0.458 1.01,-0.897 1.513,-1.314 -0.668,-0.919 -1.379,-1.762 -2.125,-2.499"
         id="path4818" />
      <path
         d="m 313.858,39.081 c -6.128,23.63 -18.926,42.611 -29.654,47.396 l -0.021,0 -0.58,0.248 -0.07,0.027 -0.164,0.063 -0.074,0.03 -0.268,0.096 -0.11,0.038 -0.134,0.045 -0.129,0.044 -0.114,0.039 -0.229,0.069 -0.099,0.025 -0.154,0.042 -0.104,0.029 -0.169,0.043 -0.205,0.046 c 0.485,0.178 0.99,0.269 1.535,0.269 10.174,0 20.434,-18.232 37.408,-48.555 l -6.666,0 10e-4,0.006 z"
         id="path4820" />
      <path
         d="m 227.086,41.091 0.019,-0.016 0.023,-0.016 0.014,0 0.164,-0.063 0.033,-0.016 0.043,-0.018 0.176,-0.063 0.01,0 0.391,-0.137 0.059,-0.016 0.167,-0.05 0.077,-0.024 0.168,-0.05 0.064,-0.018 0.56,-0.146 0.077,-0.017 0.163,-0.032 0.08,-0.024 0.164,-0.03 0.039,0 0.34,-0.063 0.067,0 0.157,-0.027 0.089,-0.016 0.15,-0.022 0.083,-0.017 0.366,-0.032 c -0.352,-0.033 -0.713,-0.056 -1.083,-0.056 -11.459,0 -27.246,21.26 -34.356,48.793 l 1.371,0 c 2.276,-4.059 4.32,-7.898 6.189,-11.503 4.982,-19.502 15.125,-32.802 24.137,-36.325"
         id="path4822" />
      <path
         d="m 233.536,48.924 c 1.302,-1.242 2.607,-2.358 3.903,-3.351 -0.295,-0.646 -0.602,-1.247 -0.93,-1.798 -1.047,1.273 -2.005,2.952 -2.973,5.149"
         id="path4824" />
      <path
         d="m 234.477,41.252 c 0.748,0.627 1.419,1.49 2.032,2.524 0.193,-0.236 0.389,-0.456 0.592,-0.662 -0.852,-0.795 -1.771,-1.446 -2.769,-1.938 l 0.123,0.059 0.022,0.017"
         id="path4826" />
      <path
         d="M 202.95,77.414 C 213.398,57.28 218.348,44.538 227.087,41.089 218.076,44.616 207.931,57.915 202.95,77.414"
         id="path4828" />
      <path
         d="m 237.1,43.115 c -0.203,0.208 -0.397,0.426 -0.592,0.662 0.329,0.55 0.634,1.147 0.932,1.797 0.386,-0.296 0.771,-0.574 1.153,-0.85 -0.472,-0.582 -0.971,-1.124 -1.493,-1.609"
         id="path4830" />
      <path
         d="m 207.694,88.826 -0.19,0.022 -0.036,0 -0.161,0.016 -0.026,0 -0.384,0.026 -0.04,0 c 10.574,-0.297 15.408,-5.59 17.806,-13.271 1.823,-5.821 3.32,-10.726 4.633,-14.841 -4.429,6.234 -8.879,13.665 -13.352,21.992 -2.156,4.013 -5.437,5.689 -8.25,6.046"
         id="path4832" />
      <path
         d="m 207.694,88.823 c 2.813,-0.358 6.094,-2.033 8.25,-6.048 4.473,-8.322 8.925,-15.755 13.35,-21.991 1.61,-5.053 2.938,-8.92 4.241,-11.865 -8.82,8.396 -17.675,22.356 -25.842,39.898"
         id="path4834" />
      <path
         d="m 202.95,77.415 c -1.869,3.604 -3.914,7.444 -6.19,11.503 l 3.986,0 c 0.528,-4.031 1.275,-7.873 2.203,-11.501"
         id="path4836" />
      <path
         d="m 230.462,40.22 -0.084,0.016 -0.149,0.021 -0.088,0.016 -0.157,0.027 -0.067,0.017 -0.34,0.059 -0.039,0 -0.165,0.033 -0.083,0.022 -0.16,0.031 -0.076,0.019 -0.561,0.146 -0.064,0.019 -0.169,0.05 -0.077,0.021 -0.167,0.05 -0.061,0.017 -0.389,0.137 -0.177,0.062 -0.073,0.03 -0.165,0.062 -0.055,0.026 c -8.738,3.448 -13.688,16.19 -24.136,36.323 -0.928,3.627 -1.679,7.47 -2.203,11.501 l 0.559,0 3.833,-0.017 1.759,0 0.383,-0.025 0.025,0 0.161,-0.017 0.038,0 0.19,-0.022 c 8.168,-17.543 17.022,-31.502 25.842,-39.898 0.97,-2.197 1.926,-3.875 2.972,-5.146 -0.612,-1.034 -1.282,-1.9 -2.03,-2.527 l -0.021,-0.017 -0.125,-0.061 -0.124,-0.063 -0.12,-0.058 -0.142,-0.06 -0.11,-0.048 -0.232,-0.097 -0.099,-0.037 -0.172,-0.069 -0.093,-0.03 -0.24,-0.083 -0.02,0 -0.278,-0.079 -0.062,-0.02 -0.234,-0.064 -0.054,-0.016 c -0.189,-0.051 -0.384,-0.09 -0.581,-0.128 l -0.06,-0.017 -0.252,-0.04 -0.05,-0.016 -0.298,-0.04 -0.052,0 -0.23,-0.025 -0.366,0.033"
         id="path4838" />
      <path
         d="m 289.924,52.163 c -2.012,6.439 -3.638,11.752 -5.056,16.123 5.517,-7.592 10.95,-17.14 16.124,-28.159 -6.037,1.897 -9.255,6.237 -11.068,12.036"
         id="path4840" />
      <path
         d="m 285.043,86.075 c -0.281,0.143 -0.564,0.279 -0.84,0.402 10.729,-4.785 23.527,-23.767 29.654,-47.396 l -1.242,0 C 298.537,64.23 294.01,81.066 285.043,86.075"
         id="path4842" />
      <path
         d="m 278.037,83.963 c 2.334,-2.85 4.234,-7.693 6.831,-15.677 -2.995,4.113 -6.009,7.649 -9.026,10.533 l -0.016,0.025 c 0.66,1.972 1.381,3.712 2.204,5.117"
         id="path4844" />
      <path
         d="m 278.037,83.963 c -0.795,0.97 -1.637,1.708 -2.572,2.255 -0.205,0.12 -0.412,0.232 -0.623,0.334 0.988,0.533 2.065,0.891 3.273,1.033 l 0.535,0.046 0.031,0 0.258,0.017 0.873,0 0.099,-0.017 0.192,-0.016 0.094,0 0.21,-0.022 0.018,0 0.064,-0.016 0.224,-0.034 0.064,0 0.252,-0.042 0.041,0 0.501,-0.106 c -1.386,-0.507 -2.544,-1.702 -3.542,-3.404"
         id="path4846" />
      <path
         d="m 258.257,87.648 c 1.002,0 2.017,-0.098 3.036,-0.294 0.943,-0.17 1.887,-0.433 2.831,-0.763 0.787,0.384 1.612,0.67 2.486,0.849 0.678,0.138 1.383,0.209 2.121,0.209 l -10.474,-0.001 0,0 z"
         id="path4848" />
      <path
         d="m 268.731,87.648 c 2.479,0 4.443,-0.294 6.111,-1.096 0.988,0.534 2.065,0.891 3.273,1.034 l 0.535,0.045 0.031,0 0.258,0.017 0.309,0 -10.517,0 z"
         id="path4850" />
      <path
         d="m 279.248,87.648 0.572,0 0.1,-0.017 0.194,-0.016 0.095,0 0.207,-0.022 0.018,0 0.063,-0.017 0.224,-0.033 0.068,-0.016 0.252,-0.041 0.04,0 0.501,-0.106 c 0.485,0.179 0.99,0.27 1.535,0.27 l -3.867,0.017 -0.002,-0.019 0,0 z"
         id="path4852" />
      <path
         d="m 275.834,78.846 0,-0.017 c -1.104,1.057 -2.207,2.024 -3.309,2.899 -0.574,0.457 -1.148,0.89 -1.729,1.298 0.486,0.58 0.98,1.123 1.5,1.618 0.787,0.765 1.63,1.409 2.55,1.906 0.21,-0.103 0.419,-0.215 0.622,-0.334 0.938,-0.547 1.777,-1.286 2.572,-2.255 -0.822,-1.405 -1.545,-3.146 -2.201,-5.117"
         id="path4854" />
      <path
         d="m 308.684,39.081 -6.249,0 -0.99,0.048 -0.46,0.986 c -5.176,11.02 -10.607,20.568 -16.123,28.159 -2.594,7.982 -4.497,12.827 -6.831,15.677 0.997,1.702 2.159,2.899 3.539,3.406 l 0.108,-0.023 0.022,0 0.076,-0.017 0.174,-0.042 0.103,-0.03 0.154,-0.04 0.096,-0.027 0.231,-0.069 0.114,-0.039 0.129,-0.046 0.133,-0.043 0.107,-0.04 0.27,-0.096 0.075,-0.027 0.165,-0.064 0.069,-0.025 0.58,-0.248 0.021,0 c 0.277,-0.121 0.559,-0.259 0.838,-0.402 8.971,-5.011 13.498,-21.846 27.576,-46.993 l -3.932,0 0.005,-0.005 0,0 z"
         id="path4856" />
      <path
         d="m 230.83,40.187 0.064,0.017 0.164,0.018 0.055,0 0.298,0.038 0.05,0.017 0.251,0.042 0.063,0.016 0.579,0.128 0.053,0.017 0.233,0.065 0.064,0.02 0.276,0.078 0.021,0.017 0.242,0.083 0.092,0.029 0.173,0.07 0.098,0.035 0.23,0.096 0.112,0.048 0.139,0.061 0.123,0.058 0.122,0.063 c 1,0.49 1.918,1.145 2.77,1.938 0.314,-0.33 0.641,-0.626 0.982,-0.893 -1.861,-1.32 -3.972,-2.072 -6.402,-2.072 -0.282,0 -0.564,0.016 -0.85,0.037"
         id="path4858" />
      <path
         d="m 237.1,43.115 c 0.521,0.484 1.021,1.026 1.493,1.609 0.457,-0.317 0.911,-0.623 1.365,-0.909 -0.595,-0.596 -1.223,-1.131 -1.877,-1.593 -0.341,0.266 -0.667,0.563 -0.981,0.893"
         id="path4860" />
      <g
         transform="matrix(5.048,0,0,-5.048,-9064.26,2270.61)"
         id="g4862">
        <path
           d="m 1841.288,441.83 0.169,0.007 c 0.482,0 0.9,-0.149 1.268,-0.41 0.389,0.307 0.86,0.415 1.513,0.415 l -3.164,0 0.214,-0.012"
           id="path4864" />
      </g>
      <g
         transform="matrix(5.048,0,0,-5.048,-9064.26,2270.61)"
         id="g4866">
        <path
           d="m 1844.238,441.841 c -0.654,0 -1.123,-0.107 -1.513,-0.415 0.129,-0.091 0.253,-0.197 0.372,-0.316 0.542,0.344 1.078,0.573 1.607,0.672 0.202,0.038 0.403,0.057 0.601,0.057 l -1.067,0 0,0.002 0,0 z"
           id="path4868" />
      </g>
      <path
         d="m 284.87,68.29 c 1.421,-4.374 3.042,-9.685 5.058,-16.126 1.814,-5.804 5.029,-10.143 11.063,-12.036 l 0.467,-0.985 c -9.839,0.589 -14.438,5.594 -16.75,13.006 -4.047,12.938 -6.499,21.326 -8.859,26.672 3.012,-2.883 6.026,-6.421 9.021,-10.531"
         id="path4870" />
    </g>
  </g>
  <g
     style="display:none"
     id="layer15">
    <g
       transform="matrix(0.11,0,0,0.11,-21.375083,-0.03998257)"
       id="g4943">
      <ellipse
         cx="257.784"
         cy="63.785"
         rx="60.432999"
         ry="60.472"
         id="ellipse4918" />
      <ellipse
         style="fill:#ffffff"
         cx="257.784"
         cy="63.785"
         rx="59.291"
         ry="59.331001"
         id="ellipse4920" />
      <path
         style="fill:url(#SVGID_1_)"
         d="m 258.656,77.628 c -0.343,0.34 0.049,1.366 0.49,1.319 0.443,-0.05 1.131,-0.244 1.131,-0.244 0,0 0.344,0.685 0,0.881 -0.344,0.193 -1.344,0.11 -0.049,0.585 1.326,0.489 1.672,0.343 1.77,0.1 0.098,-0.244 0.54,-1.076 0.787,-1.028 0.197,-0.438 -0.689,-0.83 -0.197,-1.122 0.492,-0.296 0.102,-1.37 0.102,-1.37 0,0 -0.689,0.048 -0.984,0.538 -0.295,0.488 -0.688,-0.05 -0.984,-0.05 -0.049,0.293 -0.242,0.537 -0.242,0.537 l -0.198,-0.439 c -0.003,-10e-4 -1.381,-0.05 -1.626,0.293 l 0,0 z"
         id="path4929" />
      <path
         style="fill:#020202"
         d="m 320.489,47.193 -1.453,9.319 c 0,0 -2.076,-17.253 -4.621,-23.704 -3.9,-9.884 -5.637,-9.804 -5.646,-9.789 2.611,6.64 2.138,10.206 2.138,10.206 0,0 -4.629,-12.616 -16.87,-16.63 -14.494,-4.751 -21.877,-3.035 -21.823,-2.968 0.056,0.066 14.981,2.608 17.628,6.247 0,0 -6.34,0 -12.65,1.816 -0.284,0.082 23.215,2.936 28.02,26.418 0,0 -2.576,-5.375 -5.762,-6.287 2.094,6.373 1.557,18.467 -0.438,24.479 -0.256,0.774 -0.52,-3.342 -4.451,-5.112 1.258,9.02 -0.075,23.329 -6.334,27.269 -0.487,0.307 3.924,-14.123 0.888,-8.544 -18.126,27.792 -39.676,11.244 -48.417,5.347 7.017,1.719 14.467,0.481 18.782,-2.469 4.354,-2.978 6.929,-5.151 9.243,-4.638 2.312,0.518 3.852,-1.803 2.055,-3.861 -1.797,-2.063 -6.162,-4.897 -12.067,-3.352 -4.164,1.09 -9.325,5.698 -17.204,1.032 -6.72,-3.982 -6.675,-7.216 -6.675,-9.275 0,-2.061 1.833,-5.194 5.17,-4.681 2.987,0.462 1.413,-1.292 4.629,0 0.876,0.353 -0.088,-4.205 -1.334,-7.125 2.401,-5.01 10.188,-6.499 10.769,-6.938 1.053,-0.796 0.475,-1.193 0.833,-2.393 0.336,-1.118 0.551,-4.138 -8.165,-3.302 -4.012,0.383 -6.563,-4.814 -7.399,-6.075 0.271,-1.607 0.705,-3.074 1.295,-4.419 0.597,-1.225 1.249,-2.347 1.902,-3.196 l 0.542,-0.717 c 1.299,-1.516 2.895,-2.813 4.809,-3.888 0.999,-0.564 -11.172,-0.036 -16.648,7.102 -1.47,0.192 -3.486,-0.232 -5.74,-0.232 -2.825,0 -5.044,0.309 -7.099,0.824 -0.329,0.084 -0.859,0.038 -1.509,-0.116 -1.807,-1.873 -6.922,-6.374 -7.157,-12.48 0,0 -7.437,5.716 -6.324,21.297 -0.098,8.619 -2.641,6.156 -3.95,10.832 -0.609,2.216 0.915,3.884 0.915,3.949 -0.002,0.034 1.828,-1.981 1.828,-1.981 0,0 -11.531,19.979 3.363,45.485 12.835,21.987 34.378,31.704 56.729,29.813 3.912,-0.255 7.849,-0.838 11.779,-1.787 52.081,-12.591 46.419,-75.476 46.419,-75.476 l 0,0 z"
         id="path4931" />
      <path
         style="fill:#020202"
         d="m 196.326,75.799 c 0,0 1.583,-20.565 11.876,-28.092 8.081,-5.912 1.805,-3.765 -1.315,-3.519 -3.291,0.259 -5.045,2.262 -4.41,1.525 l 0.032,-0.057 c -0.109,-0.126 -7.725,6.267 -6.183,30.143 z"
         id="path4933" />
      <path
         style="fill:#020202"
         d="m 195.241,59.999 c 0,0 5.517,-17.511 16.664,-17.361 7.393,0.099 1.529,-6.248 -0.708,-7.213 -2.333,-0.999 -2.891,-0.96 -3.436,-0.478 -0.816,0.725 -8.15,0.445 -12.52,25.052 z"
         id="path4935" />
    </g>
  </g>
  <g
     style="display:none"
     id="layer16">
    <path
       d="M 13.676304,6.384 7.6153043,0.323 c -0.352,-0.352 -0.913,-0.352 -1.265,0 l -1.254,1.254 1.595,1.595 c 0.374,-0.121 0.792,-0.044 1.089,0.253 0.297,0.297 0.385,0.726 0.253,1.1 l 1.54,1.54 c 0.374,-0.132 0.8029997,-0.044 1.0999997,0.253 0.418,0.418 0.418,1.089 0,1.507 -0.418,0.418 -1.0889997,0.418 -1.5069997,0 -0.308,-0.308 -0.385,-0.77 -0.231,-1.155 l -1.43,-1.43 0,3.773 c 0.099,0.055 0.198,0.121 0.286,0.198 0.418,0.418 0.418,1.089 0,1.507 -0.418,0.418 -1.089,0.418 -1.507,0 -0.418,-0.418 -0.418,-1.089 0,-1.507 0.099,-0.099 0.22,-0.176 0.352,-0.231 l 0,-3.817 c -0.132,-0.055 -0.242,-0.132 -0.352,-0.231 -0.319,-0.319 -0.396,-0.781 -0.231,-1.166 l -1.573,-1.573 -4.15799998,4.158 c -0.352,0.352 -0.352,0.913 0,1.265 l 6.06099998,6.061 c 0.352,0.352 0.913,0.352 1.265,0 L 13.687304,7.638 c 0.341,-0.341 0.341,-0.902 -0.011,-1.254 z"
       id="path4952" />
  </g>
  <g
     style="display:none"
     id="layer17">
    <g
       transform="matrix(0.11,0,0,0.11,-0.05196049,-0.02862075)"
       id="g4962">
      <path
         d="m 108.2,64.8 c -0.1,-0.1 -0.2,-0.2 -0.4,-0.2 l -0.1,-0.1 c -0.1,-0.1 -0.2,-0.1 -0.2,-0.2 l -0.1,-0.1 c -0.1,0 -0.2,-0.1 -0.2,-0.1 L 107,64 c -0.1,0 -0.2,-0.1 -0.2,-0.1 l -0.2,-0.1 c -0.1,0 -0.2,-0.1 -0.2,-0.1 -0.1,0 -0.1,0 -0.2,-0.1 l -0.3,-0.1 c -0.1,0 -0.1,0 -0.2,-0.1 l -0.3,-0.1 -0.1,0 -0.4,-0.1 -0.2,0 c -0.1,0 -0.2,0 -0.3,-0.1 l -2.3,0 C 101.5,49.8 102.7,36.3 99.3,23.5 112.2,18.9 102.1,1.2 90.9,9.1 83.5,2.7 73.3,1.3 62.6,1.3 52.1,2 42.2,4.2 35.2,9.7 32.4,8.3 29.7,7.9 27.3,8.6 l 0,0.1 c -0.1,0 -0.3,0.1 -0.4,0.2 -0.1,0 -0.3,0.1 -0.4,0.2 l -0.1,0 c -0.1,0 -0.2,0.1 -0.4,0.2 l -0.1,0 -0.3,0.2 -0.1,0 -0.3,0.2 -0.1,0 -0.3,0.2 c 0,0 -0.1,0 -0.1,0.1 l -0.3,0.2 c 0,0 -0.1,0 -0.1,0.1 L 24,10.5 c 0,0 -0.1,0 -0.1,0.1 l -0.3,0.2 -0.1,0.1 C 23.4,11 23.3,11 23.3,11.1 l -0.1,0.1 -0.2,0.2 -0.1,0.1 c -0.1,0.1 -0.1,0.2 -0.2,0.2 l -0.1,0.1 C 22.5,11.9 22.5,12 22.4,12 l -0.1,0.1 c -0.1,0.1 -0.1,0.2 -0.2,0.2 L 22,12.4 c -0.1,0.1 -0.1,0.2 -0.2,0.2 l -0.1,0.1 c -0.1,0.1 -0.1,0.2 -0.2,0.2 l -0.1,0.1 -0.1,0.3 c 0,0 0,0.1 -0.1,0.1 l -0.1,0.3 c 0,0 0,0.1 -0.1,0.1 l -0.1,0.3 c 0,0 0,0.1 -0.1,0.1 l -0.1,0.3 c 0,0 0,0.1 -0.1,0.1 C 21,14.9 21,15 21,15 l 0,0.1 -0.1,0.3 0,0.1 c 0,0.1 0,0.2 -0.1,0.3 l 0,3.1 c 0,0.1 0,0.2 0.1,0.3 l 0,0.1 0.1,0.3 0,0.1 0.1,0.3 c 0,0 0,0.1 0.1,0.1 l 0.1,0.3 c 0,0 0,0.1 0.1,0.1 l 0.1,0.3 c 0,0 0,0.1 0.1,0.1 l 0.2,0.3 c 0,0 0,0.1 0.1,0.1 l 0.2,0.3 c 0,0 0,0.1 0.1,0.1 l 0.2,0.3 0.1,0.1 0.3,0.3 0.3,0.3 0.1,0 c 1,0.9 2,1.6 4,2.2 l 0,-0.2 C 23,37.3 26.5,50 26.7,63 26.1,63 26,63.4 25,63.5 l -0.5,0 c -0.1,0 -0.3,0 -0.5,0.1 -0.1,0 -0.3,0 -0.4,0.1 l -0.4,0.1 -0.1,0 -0.4,0.1 -0.1,0 -0.3,0.1 -0.1,0 -0.3,0.1 c 0,0 -0.1,0 -0.1,0.1 l -0.3,0.1 -0.2,0.1 c -0.1,0 -0.2,0.1 -0.2,0.1 l -0.2,0.1 -0.2,0.1 c -0.1,0 -0.2,0.1 -0.2,0.1 l -0.2,0.1 -0.4,0.3 c -0.1,0.1 -0.2,0.2 -0.3,0.2 l -0.4,0.4 -0.1,0.1 c -0.1,0.2 -0.3,0.4 -0.4,0.5 l -0.2,0.3 -0.3,0.6 -0.1,0.3 0,0.3 c 0,0.5 0.2,0.9 0.9,1.2 0.2,3.7 3.9,2 5.6,0.8 l 0.1,-0.1 c 0.2,-0.2 0.5,-0.3 0.6,-0.3 l 0.1,0 0.2,-0.1 c 0.1,0 0.1,0 0.2,-0.1 0.2,-0.1 0.4,-0.1 0.5,-0.2 0.1,0 0.1,-0.1 0.1,-0.2 l 0.1,-0.1 c 0.1,-0.2 0.2,-0.6 0.2,-1.2 l 0.1,-1.3 0,1.8 c -0.5,13.1 -4,30.7 3.3,42.5 1.3,2.1 2.9,3.9 4.7,5.4 l -0.5,0 c -0.2,0.2 -0.5,0.4 -0.8,0.6 l -0.9,0.6 -0.3,0.2 -0.6,0.4 -0.9,0.7 -1.1,1 c -0.2,0.2 -0.3,0.4 -0.4,0.5 l -0.4,0.6 -0.2,0.3 c -0.1,0.2 -0.2,0.4 -0.2,0.6 l -0.1,0.3 c -0.2,0.8 0,1.7 0.6,2.7 l 0.4,0.4 0.2,0 c 0.1,0 0.2,0 0.4,0.1 0.2,0.4 1.2,2.5 3.9,0.9 2.8,-1.5 4.7,-4.6 8.1,-5.1 l -0.5,-0.6 c 5.9,2.8 12.8,4 19,4.2 8.7,0.3 18.6,-0.9 26.5,-5.2 2.2,0.7 3.9,3.9 5.8,5.4 l 0.1,0.1 0.1,0.1 0.1,0.1 0.1,0.1 c 0,0 0.1,0 0.1,0.1 0,0 0.1,0 0.1,0.1 0,0 0.1,0 0.1,0.1 l 2.1,0 c 0,0 0.1,0 0.1,-0.1 l 0.1,0 c 0,0 0.1,0 0.1,-0.1 l 0.1,0 c 0,0 0.1,0 0.1,-0.1 0,0 0.1,0 0.1,-0.1 l 0.1,-0.1 c 0,0 0.1,0 0.1,-0.1 l 0.1,-0.1 0.1,0 0.2,-0.2 0.2,-0.1 0.1,0 0.1,-0.1 0.1,0 0.1,-0.1 0.1,-0.1 0.1,-0.1 0.1,-0.1 0.1,-0.1 0.1,-0.1 0.1,-0.1 0,-0.1 c 0,0 0,-0.1 0.1,-0.1 l 0,-0.1 c 0,0 0,-0.1 0.1,-0.1 l 0,-0.1 c 0,0 0,-0.1 0.1,-0.1 l 0,-1.4 c 0,0 -0.3,0 -0.3,-0.1 l -0.3,-0.1 0,-0.1 0.3,-0.1 c 0,0 0.2,0 0.2,-0.1 l 0.1,-0.1 0,-2.1 c 0,0 0,-0.1 -0.1,-0.1 l 0,-0.1 c 0,0 0,-0.1 -0.1,-0.1 l 0,-0.1 c 0,0 0,-0.1 -0.1,-0.1 0,0 0,-0.1 -0.1,-0.1 0,0 0,-0.1 -0.1,-0.1 0,0 0,-0.1 -0.1,-0.1 0,0 0,-0.1 -0.1,-0.1 0,0 0,-0.1 -0.1,-0.1 0,0 0,-0.1 -0.1,-0.1 0,0 0,-0.1 -0.1,-0.1 0,0 0,-0.1 -0.1,-0.1 0,0 0,-0.1 -0.1,-0.1 0,0 0,-0.1 -0.1,-0.1 0,0 0,-0.1 -0.1,-0.1 0,0 0,-0.1 -0.1,-0.1 0,0 0,-0.1 -0.1,-0.1 l -0.1,-0.1 -0.1,-0.1 -0.1,-0.1 -0.1,-0.1 -0.1,-0.1 -0.1,-0.1 -0.1,-0.1 -0.1,-0.1 -0.1,-0.1 -0.1,-0.1 -0.1,-0.1 -0.1,-0.1 0,-0.1 -0.1,-0.1 -0.1,-0.1 -0.1,-0.1 -0.1,-0.1 -0.1,-0.1 -0.1,-0.1 -0.1,-0.1 -0.1,-0.1 -0.1,-0.1 -0.1,-0.1 -0.1,-0.1 -0.1,-0.1 -0.1,-0.1 -0.1,-0.1 -0.1,-0.1 -0.1,-0.1 -0.1,-0.1 -0.1,-0.1 -0.1,-0.1 c 2,-1.9 3.8,-4.2 5.1,-6.9 5.9,-11.8 4.9,-26.2 4.1,-39.2 l 0.1,0 c 0.1,0 0.2,0.1 0.2,0.1 l 0.3,0 c 0,0 0.1,0 0.1,0.1 l 0.1,0 c 0,0 0.1,0 0.1,0.1 l 0.2,0.1 c 1.7,1.2 5.4,2.9 5.6,-0.8 1.6,0.6 -0.3,-1.8 -1.3,-2.5 l 0,0 z M 36,23 C 32.8,7 58.4,4 59.3,19.6 60.1,32.6 39.3,35.9 36,23 Z m 36.1,15 c -1.3,1.4 -2.7,1.2 -4.1,0.7 0,1.9 0.4,3.9 0.1,5.9 -0.5,0.9 -1.5,1 -2.3,1.4 -1.2,-0.2 -2.1,-0.9 -2.6,-2 L 63,43.9 c -3.9,5.2 -6.3,-1.1 -5.2,-5 -1.2,0.1 -2.2,-0.2 -3,-1.5 -1.4,-2.6 0.7,-5.8 3.4,-6.3 0.7,3 8.7,2.6 10.1,-0.2 3.1,1.5 6.5,4.3 3.8,7.1 z m -7,-17.5 C 64.2,6.7 85.4,3 88.5,16.5 92,31.5 67.7,35.4 65.1,20.5 Z M 41.7,17 c -1.9,0 -3.5,1.7 -3.5,3.8 0,2.1 1.6,3.8 3.5,3.8 1.9,0 3.5,-1.7 3.5,-3.8 0,-2.1 -1.5,-3.8 -3.5,-3.8 z m 1.6,5.7 c -0.5,0 -0.8,-0.4 -0.8,-1 0,-0.5 0.4,-1 0.8,-1 0.5,0 0.8,0.4 0.8,1 0,0.5 -0.3,1 -0.8,1 z m 27.8,-6.6 c -1.9,0 -3.4,1.7 -3.4,3.8 0,2.1 1.5,3.8 3.4,3.8 1.9,0 3.4,-1.7 3.4,-3.8 0,-2.1 -1.5,-3.8 -3.4,-3.8 z m 1.6,5.6 c -0.4,0 -0.8,-0.4 -0.8,-1 0,-0.5 0.4,-1 0.8,-1 0.4,0 0.8,0.4 0.8,1 0,0.6 -0.4,1 -0.8,1 z"
         id="path4964" />
    </g>
  </g>
  <g
     style="display:none"
     id="layer18">
    <g
       transform="matrix(0.11,0,0,0.11,-0.0455,-0.0455)"
       id="g4975">
      <path
         d="M 114,13.9 C 114,7.3 108.7,2 102.1,2 L 25.9,2 C 19.3,2 14,7.3 14,13.9 l 0,100.3 c 0,6.6 5.3,11.9 11.9,11.9 l 76.3,0 c 6.6,0 11.9,-5.3 11.9,-11.9 l 0,-100.3 -0.1,0 z m -4,0.1 0,99.3 c 0,4.7 -3.5,8.7 -8.2,8.7 l -75.3,0 C 21.8,122 18,118 18,113.3 L 18,14 c 0,-4.7 3.9,-8 8.5,-8 l 75.2,0 c 4.7,0 8.4,3.6 8.4,8.3 L 110,14 Z M 37,108.7 51.1,94.6 37,80.5 37,108.7 Z M 51,47.8 51,18.4 37.1,18.5 c 0,0 0.1,45.9 0.2,45.7 C 80.1,47.5 77,59.4 77,59.4 l 0,49.4 -0.1,0.2 13.1,0 0,-49.5 C 90,32.4 51,47.8 51,47.8 Z M 70,36 84.8,36 c 8,-10 10.7,-17 10.7,-17 l -15.3,0 c 0,0 -4.9,11 -10.2,17 z"
         id="path4977" />
    </g>
  </g>
</svg>
