<?xml version="1.0" encoding="utf-8"?>
<!-- Generator: Adobe Illustrator 19.1.0, SVG Export Plug-In . SVG Version: 6.00 Build 0)  -->
<svg version="1.1" id="dashboard" xmlns="http://www.w3.org/2000/svg" xmlns:xlink="http://www.w3.org/1999/xlink" x="0px" y="0px"
	 viewBox="0 0 14 14" style="enable-background:new 0 0 14 14;" xml:space="preserve">
<path d="M0.5650635,9.1652832c0,0.2003784,0,0.2003784-0.1000366,0.3010864
	c-0.8979492-2.0089722-0.5979614-5.322998,1.7950439-7.5333862c2.3959961-2.409729,5.9869995-2.510437,8.4799805-0.9032593
	C9.9420776,1.631897,9.144043,2.2351074,8.4460449,2.8372803c-0.2990112,0.2003784-0.4990234,0.3010864-0.8980103,0.100708
	c-3.09198-1.4058228-6.6829834,0.6021729-7.1820068,4.0178833C0.2660522,7.6588135,0.3660278,8.4624023,0.5650635,9.1652832z
	 M12.835022,3.2390747c-0.697998,1.0039673-1.4959717,1.9082642-2.1939697,2.913269c0,0,0.2844238,1.0319824,0.1989746,1.6061401
	c0.0646362,0.0216675,2.9910278,1.0039673,2.9910278,1.0039673C14.2310181,6.7545166,13.9320679,4.9469604,12.835022,3.2390747z
	 M3.0600586,10.8731079l-1.0969849,1.0050049c2.7929688,2.913269,7.480957,2.611145,9.875,0
	c-0.2990112-0.3010864-0.697998-0.7028809-0.9970093-1.0039673C8.7450562,12.9818115,5.1540527,12.9818115,3.0600586,10.8731079z
	 M6.972168,5.4506226l4.1882935-3.3627319c0,0,0.431695-0.4486749,0.7980347-0.100708
	c0.1455383,0.1226213,0.3057861,0.397522-0.0669556,0.7702637C11.5336914,3.1152954,8.737793,6.8104858,8.513916,7.1066284
	c0.0066528,0.0643311,0.0194702,0.1268921,0.0194702,0.1929932c0,1.0389404-0.8422852,1.8812256-1.8812256,1.8812256
	c-1.0390015,0-1.8812256-0.8422852-1.8812256-1.8812256c0-1.0390015,0.8422241-1.8812256,1.8812256-1.8812256
	C6.7617798,5.418396,6.8676758,5.4326172,6.972168,5.4506226z M6.6521606,6.4793091
	c-0.453064,0-0.8203125,0.3672485-0.8203125,0.8203125c0,0.4530029,0.3672485,0.8202515,0.8203125,0.8202515
	c0.4530029,0,0.8202515-0.3672485,0.8202515-0.8202515C7.4724121,6.8465576,7.1051636,6.4793091,6.6521606,6.4793091z"/>
</svg>
