<?xml version="1.0" encoding="utf-8"?>

<!--
 * Copyright (c) 2015, WSO2 Inc. (http://www.wso2.org) All Rights Reserved.
 *
 * WSO2 Inc. licenses this file to you under the Apache License,
 * Version 2.0 (the "License"); you may not use this file except
 * in compliance with the License.
 * You may obtain a copy of the License at
 *
 * http://www.apache.org/licenses/LICENSE-2.0
 *
 * Unless required by applicable law or agreed to in writing,
 * software distributed under the License is distributed on an
 * "AS IS" BASIS, WITHOUT WARRANTIES OR CONDITIONS OF ANY
 * KIND, either express or implied. See the License for the
 * specific language governing permissions and limitations
 * under the License.
-->

<svg version="1.1" id="database" xmlns="http://www.w3.org/2000/svg" xmlns:xlink="http://www.w3.org/1999/xlink" x="0px" y="0px"
	 viewBox="0 0 14 14" enable-background="new 0 0 14 14" xml:space="preserve">
<path d="M7,0c1.3,0,2.6,0.2,3.9,0.6c0.6,0.2,1.3,0.5,1.7,1c0.3,0.3,0.5,0.5,0.5,0.9c0.1,0.4-0.1,0.8-0.3,1.1
	c-0.3,0.4-0.7,0.7-1.1,0.9C10.8,5,9.9,5.2,9,5.3c-1.3,0.2-2.5,0.2-3.8,0c-1-0.1-2-0.4-2.8-0.8C1.9,4.3,1.5,4,1.2,3.6
	c-0.4-0.6-0.4-1.2,0-1.8c0.4-0.5,0.9-0.8,1.5-1.1c0.9-0.4,1.8-0.6,2.8-0.7C6,0.1,6.5,0,7,0z M12.8,4.4c-0.4,0.5-1,0.8-1.6,1.1
	C10.4,5.8,9.5,6,8.5,6.2C7.2,6.3,5.8,6.3,4.5,6C3.6,5.8,2.7,5.6,2,5.1C1.5,4.8,1,4.4,0.9,3.7c0,0.7,0,1.3,0,2C0.9,5.9,1,6.1,1,6.2
	C1.2,6.6,1.6,6.9,2,7.2C2.6,7.6,3.3,7.8,4.1,8c1.1,0.3,2.2,0.4,3.4,0.3c1.2,0,2.3-0.2,3.4-0.6c0.7-0.2,1.3-0.5,1.8-1
	c0.3-0.3,0.5-0.7,0.5-1.1c0-0.6,0-1.2,0-1.8C13,4,12.9,4.2,12.8,4.4z M12.8,7.2c-0.3,0.4-0.7,0.7-1.1,0.9C10.6,8.7,9.4,8.9,8.2,9
	C7.3,9.1,6.4,9.1,5.6,9c-1-0.1-1.9-0.3-2.8-0.7C2.3,8.1,2,7.9,1.6,7.7C1.3,7.4,1,7,0.9,6.6c0,0.5,0,0.9,0,1.3c0,0.2,0,0.4,0,0.6
	c0.1,0.5,0.4,0.9,0.8,1.2c0.6,0.5,1.2,0.7,1.9,0.9c1.4,0.4,2.8,0.5,4.2,0.4c1.1-0.1,2.1-0.2,3.1-0.6c0.6-0.2,1.3-0.5,1.7-1
	c0.3-0.3,0.5-0.6,0.5-1.1c0-0.6,0-1.2,0-1.8C13,6.8,12.9,7.1,12.8,7.2z M0.9,11.3c0,0.1,0,0.2,0,0.3c0.1,0.4,0.4,0.8,0.8,1
	c0.6,0.5,1.3,0.7,2,0.9c1,0.3,2.1,0.4,3.2,0.4c1.4,0,2.7-0.1,4-0.6c0.7-0.2,1.3-0.5,1.8-1c0.3-0.3,0.5-0.6,0.5-1c0-0.6,0-1.3,0-1.9
	c-0.1,0.2-0.2,0.4-0.3,0.6c-0.4,0.5-1,0.8-1.6,1.1c-0.9,0.4-1.8,0.6-2.7,0.7c-1.3,0.1-2.7,0.1-4-0.2c-0.9-0.2-1.8-0.4-2.5-0.9
	C1.5,10.4,1,10,0.9,9.4C0.9,10.1,0.9,10.7,0.9,11.3z"/>
</svg>
