<?xml version="1.0" encoding="utf-8"?>

<!--
 * Copyright (c) 2015, WSO2 Inc. (http://www.wso2.org) All Rights Reserved.
 *
 * WSO2 Inc. licenses this file to you under the Apache License,
 * Version 2.0 (the "License"); you may not use this file except
 * in compliance with the License.
 * You may obtain a copy of the License at
 *
 * http://www.apache.org/licenses/LICENSE-2.0
 *
 * Unless required by applicable law or agreed to in writing,
 * software distributed under the License is distributed on an
 * "AS IS" BASIS, WITHOUT WARRANTIES OR CONDITIONS OF ANY
 * KIND, either express or implied. See the License for the
 * specific language governing permissions and limitations
 * under the License.
-->

<svg version="1.1" id="database" xmlns="http://www.w3.org/2000/svg" xmlns:xlink="http://www.w3.org/1999/xlink" x="0px" y="0px"
	 viewBox="0 0 14 14" style="enable-background:new 0 0 14 14;" xml:space="preserve">
<path d="M2.5476809,0.7887167c1.935185-0.8106384,3.9741616-0.7950036,4.4097519-0.7811534
	c0.0000019-0.0000721,0.0000114-0.0003949,0.0000114-0.0003949s2.3135386-0.1360905,4.494875,0.77766
	c0.0816545,0.0349947,1.7264051,0.6687876,0.4082718,1.322022c-0.2389221,0.1248093-1.6685276,0.9003029-4.4652686,0.9680407
	c0.0003605,0.0013309,0.0007081,0.0027053,0.0010686,0.0040343C4.0757828,3.1566916,2.3999255,2.2468293,2.1394095,2.1107388
	C0.8212758,1.4575044,2.4660268,0.8237115,2.5476809,0.7887167z M6.8786321,3.9739864
	C2.9076164,3.8924477,1.6650369,2.9000638,1.6650369,2.9000638s-0.0233299,2.1696713,0,2.4185226
	C3.494725,6.8374381,7.2172408,6.6749234,7.8837614,6.6324177c1.4153948-0.0746007,3.30478-0.3660564,4.4512014-1.3177195
	c0.0233297-0.2488513,0-2.4185228,0-2.4185228S11.0421638,3.928988,6.8786321,3.9739864z M6.8786321,7.5201159
	C2.9076164,7.4385777,1.6650369,6.4461932,1.6650369,6.4461932s-0.0233299,2.1696715,0,2.4185224
	c1.8296881,1.5188522,5.5522041,1.3563375,6.2187243,1.3138323c1.4153948-0.0746012,3.30478-0.3660564,4.4512014-1.3177204
	c0.0233297-0.2488508,0-2.4185224,0-2.4185224S11.0421638,7.4751177,6.8786321,7.5201159z M6.8786321,11.3150969
	c-3.9710157-0.0815382-5.2135954-1.0739231-5.2135954-1.0739231s-0.0233299,2.169672,0,2.4185228
	c1.8296881,1.5188522,5.5522041,1.3563375,6.2187243,1.3138313c1.4153948-0.0746002,3.30478-0.3660564,4.4512014-1.3177195
	c0.0233297-0.2488508,0-2.4185228,0-2.4185228S11.0421638,11.2700987,6.8786321,11.3150969z"/>
</svg>
