<?xml version="1.0" encoding="utf-8"?>
<!-- Generator: Adobe Illustrator 19.1.0, SVG Export Plug-In . SVG Version: 6.00 Build 0)  -->
<svg version="1.1" id="database" xmlns="http://www.w3.org/2000/svg" xmlns:xlink="http://www.w3.org/1999/xlink" x="0px" y="0px"
	 viewBox="0 0 14 14" style="enable-background:new 0 0 14 14;" xml:space="preserve">
<path d="M0.8464384,2.8645205c0-0.0866699,0-0.1733396,0-0.2600095C0.910192,2.3256159,1.0138541,2.0666301,1.1952026,1.8395735
	c0.3070269-0.3844119,0.7008198-0.6559304,1.1316836-0.8768666c1.0469944-0.5368726,2.1761632-0.7771783,3.3351741-0.8943107
	C6.7771664-0.0442993,7.890914-0.0186093,8.9997873,0.1519987c0.9308624,0.1432197,1.8351974,0.3770086,2.6769876,0.8121955
	c0.4300938,0.2223497,0.8241863,0.493273,1.1309252,0.8780085c0.1742067,0.2185036,0.2711239,0.4698597,0.3458614,0.7334181
	c0,0.1059299,0,0.2118599,0,0.3177896c-0.0755968,0.2631333-0.1727304,0.5144422-0.3467569,0.7327323
	C12.5001554,4.0107865,12.10567,4.2811556,11.67591,4.5037222C10.7815704,4.966887,9.818141,5.2055345,8.8285408,5.34168
	C7.5538964,5.5170407,6.2777591,5.5108333,5.0046296,5.3160691C4.073977,5.173697,3.1705515,4.9381809,2.3275342,4.50594
	C1.9749219,4.3251452,1.6475569,4.1066608,1.3665606,3.824707C1.0990727,3.5563083,0.9220424,3.2375419,0.8464384,2.8645205z
	 M1.612803,6.8919921c0.3398188,0.2730374,0.7196083,0.4796948,1.1196985,0.6497021
	c0.9203296,0.3910689,1.8867106,0.5916591,2.8767381,0.6956754c0.8500347,0.0893068,1.7016516,0.0977859,2.5518141,0.0225382
	c1.2192402-0.1079159,2.4081068-0.3462572,3.510088-0.909986c0.4361115-0.2230968,0.8327436-0.4988279,1.14184-0.8881054
	c0.1740904-0.2192497,0.2712212-0.4710803,0.34058-0.7371898c0-0.6837292,0-1.3674579,0-2.051187
	c-0.1516771,0.6409526-0.5901747,1.0541043-1.1197691,1.3861961c-0.7727566,0.4845719-1.6295443,0.750813-2.5166769,0.9256248
	C8.1801558,6.2487116,6.8339128,6.2898331,5.480185,6.1383219c-0.94134-0.1053557-1.8600702-0.3022156-2.7340059-0.6745505
	c-0.5930023-0.252646-1.1479485-0.5658507-1.5605006-1.0824232C1.0176216,4.1709175,0.9136952,3.9313605,0.8464384,3.6734395
	c0,0.6837292,0,1.3674579,0,2.051187C0.9502758,6.2132616,1.232249,6.586225,1.612803,6.8919921z M1.3581487,9.5052929
	c0.2832414,0.2868891,0.6147541,0.5084743,0.9719599,0.6913319c0.8480437,0.4341183,1.75702,0.6692648,2.6929841,0.811554
	c1.2642732,0.1922016,2.5315714,0.197957,3.7971158,0.0241938c0.9899492-0.1359243,1.9541779-0.3739347,2.8494167-0.8362665
	c0.4257698-0.2198811,0.817028-0.4869766,1.1237106-0.8650312c0.186142-0.2294607,0.295042-0.491334,0.3602257-0.7752323
	c0-0.674099,0-1.3481979,0-2.0222969c-0.2108507,0.7846718-0.8003044,1.220757-1.470253,1.570323
	c-0.9460592,0.4936361-1.9691067,0.7295322-3.0202684,0.8627691c-0.8094749,0.102602-1.6214008,0.1299658-2.4354148,0.0817146
	c-1.2073879-0.0715704-2.388705-0.2726984-3.5081673-0.7516479C2.1447005,8.0508022,1.6091645,7.7427239,1.2032167,7.2483172
	C1.029128,7.036293,0.9219534,6.7934551,0.8464384,6.5335455c0,0.674099,0,1.3481979,0,2.0222969
	C0.9208462,8.9241505,1.0955826,9.2393446,1.3581487,9.5052929z M1.3082424,12.2966213
	c0.2895043,0.3097811,0.6347266,0.5441122,1.0085472,0.7372875c0.8246462,0.4261436,1.7094173,0.6594858,2.62044,0.8056841
	c1.0650311,0.1709156,2.1365061,0.2011566,3.2091308,0.1101856c1.224206-0.1038265,2.4173584-0.3448639,3.5235577-0.9102097
	c0.4358501-0.2227507,0.8332701-0.4974279,1.1419458-0.8872423c0.1736946-0.2193508,0.2710524-0.4708757,0.3416977-0.7363777
	c0-0.6837292,0-1.3674583,0-2.0511875c-0.153779,0.6395063-0.5914707,1.0521908-1.1209249,1.3848925
	c-0.7724867,0.4854212-1.6297483,0.7500525-2.5160351,0.9250612c-1.3266459,0.2619638-2.6632905,0.3034143-4.0072742,0.1561661
	c-0.951036-0.1041965-1.8788483-0.3024921-2.761838-0.6774788c-0.5932014-0.2519188-1.1472284-0.5662041-1.5605483-1.0816288
	C1.0184634,9.8616743,0.9150358,9.6220484,0.8464384,9.3647614c0,0.6837292,0,1.3674583,0,2.0511875
	C0.925534,11.7487497,1.0733682,12.0452986,1.3082424,12.2966213z"/>
</svg>
