<?xml version="1.0" encoding="utf-8"?>
<!-- Generator: Adobe Illustrator 19.1.0, SVG Export Plug-In . SVG Version: 6.00 Build 0)  -->
<svg version="1.1" id="deploy" xmlns="http://www.w3.org/2000/svg" xmlns:xlink="http://www.w3.org/1999/xlink" x="0px" y="0px"
	 viewBox="0 0 14 14" style="enable-background:new 0 0 14 14;" xml:space="preserve">
<path d="M5.2624116,11.6000004C5.0638304,11.5,4.8652487,11.5,4.7659578,11.6000004s-0.2978725,0.1000004-0.3971634,0.1999998
	c-0.0992904,0.1000004-0.2978725,0.1000004-0.3971632,0c-0.2978723-0.1999998-0.5957446-0.3999996-0.8936172-0.6999998
	S2.5815604,10.5,2.2836881,10.2000008c-0.0992908-0.1000004-0.0992908-0.3000002,0-0.5
	C2.3829787,9.500001,2.4822695,9.3000011,2.5815604,9.1000004V9c0-0.1999998,0-0.1999998-0.2978723-0.3000002
	C1.6879433,8.6000004,1.0921986,8.5,0.5957447,8.3000002c-0.1985815,0-0.1985815-0.1000004-0.0992908-0.1999998
	c0.3971631-0.5,0.7943263-1,1.1914895-1.5C1.7872341,6.5,1.7872341,6.5,1.9858156,6.5c0.6950356,0,1.390071,0,2.1843972,0
	c0.0992908,0,0.1985812,0,0.1985812-0.0999999c1.0921988-1.2999997,2.0851064-2.5999999,3.2765961-3.8
	c0.7943263-0.9,1.7872348-1.5,2.978724-2C11.6170216,0.2,12.7092209,0,13.8014183,0c0,0,0.0992918,0,0.1985817,0c0,0.2,0,0.3,0,0.4
	c-0.0992908,1.2-0.2978725,2.3-0.7943268,3.3c-0.3971624,0.9999998-0.9929075,1.8-1.7872343,2.6000001
	C10.2269506,7.5,8.9361706,8.6000004,7.5460997,9.6999998c0,0-0.0992908,0.1000004-0.0992908,0.1999998
	c0,0.6999998,0,1.5,0,2.1999998c0,0.1000004,0,0.1999998-0.0992908,0.3000002
	c-0.4964538,0.3999996-0.9929075,0.8000002-1.4893618,1.1999998C5.7588658,13.6999998,5.659575,13.6999998,5.659575,13.499999
	C5.5602837,12.8999996,5.3617024,12.3000002,5.2624116,11.6000004L5.2624116,11.6000004z M9.7304974,5.4000001
	c0.5957451,0,1.0921984-0.5,1.0921984-1.0999999s-0.4964533-1.0999999-1.0921984-1.0999999s-1.0921993,0.5-1.0921993,1.0999999
	S9.1347523,5.4000001,9.7304974,5.4000001z M3.673759,12.3999996H3.5744684c-0.7943263,0.5-1.5886527,0.6999998-2.4822698,0.6999998
	c-0.0992908,0-0.0992908,0-0.0992908-0.1000004c0-0.1999998,0-0.3999996,0-0.6000004
	c0.0992908-0.6000004,0.1985816-1.1999998,0.5957448-1.8000002c0.0992907-0.1999998,0.0992907-0.1999998-0.0992908-0.3999996
	C0.1985816,11.1999998,0,12.5,0,14c1.4893618,0,2.8794329-0.1999998,3.8723407-1.5
	C3.7730498,12.5,3.673759,12.5,3.673759,12.3999996z"/>
</svg>
