<?xml version="1.0" encoding="utf-8"?>

<!--
 ~   Copyright (c) WSO2 Inc. (http://wso2.com) All Rights Reserved.
 ~
 ~   Licensed under the Apache License, Version 2.0 (the "License");
 ~   you may not use this file except in compliance with the License.
 ~   You may obtain a copy of the License at
 ~
 ~        http://www.apache.org/licenses/LICENSE-2.0
 ~
 ~   Unless required by applicable law or agreed to in writing, software
 ~   distributed under the License is distributed on an "AS IS" BASIS,
 ~   WITHOUT WARRANTIES OR CONDITIONS OF ANY KIND, either express or implied.
 ~   See the License for the specific language governing permissions and
 ~   limitations under the License.
-->

<svg version="1.1" id="design-view" xmlns="http://www.w3.org/2000/svg" xmlns:xlink="http://www.w3.org/1999/xlink" x="0px"
	 y="0px" viewBox="0 0 14 14" style="enable-background:new 0 0 14 14;" xml:space="preserve">
<path class="st0" d="M0,0.8317232l0.0015167,12.3321314l13.9981766,0.0044222L14,0.8317232H0z M11.4644089,1.2762215
	c0.2448053-0.0068738,0.453249,0.1912507,0.4562311,0.4336467c0.0028486,0.2315248-0.1916294,0.4311788-0.4276543,0.4390326
	c-0.2483091,0.0082653-0.4493704-0.1845976-0.4513998-0.4329841C11.0396452,1.4779376,11.2272167,1.2828801,11.4644089,1.2762215z
	 M10.2515364,1.2761884c0.233427,0.0015515,0.4351845,0.197854,0.4405375,0.4286252
	c0.005496,0.2368444-0.2045755,0.4455172-0.4469776,0.444007c-0.2328138-0.001452-0.4362688-0.1990465-0.4404516-0.4277582
	C9.8002748,1.4820094,10.0086517,1.2745734,10.2515364,1.2761884z M13.5382786,12.6624117c-4.0856323,0-8.9194374,0-13.015625,0
	c0-3.0499172,0-6.9581432,0-10.03125c4.0739403,0,8.9134817,0,13.015625,0
	C13.5382786,5.6732945,13.5382786,9.5817318,13.5382786,12.6624117z M12.7013941,2.1491079
	c-0.2379351-0.0031803-0.4286718-0.1944475-0.4308586-0.4320512c-0.0021887-0.2376146,0.1855774-0.4335804,0.4223423-0.440791
	c0.2479143-0.0075475,0.4524956,0.1868172,0.4547758,0.4320676C13.149931,1.9534733,12.9485188,2.1524122,12.7013941,2.1491079z
	 M10.5238714,9.4856758H7.1416783V6.098732h3.3821931V4.0892282H3.3066399V6.098732h3.3821929v3.3869438H3.3066399v2.0095043
	h7.2172318V9.4856758z M3.759486,4.5420742h6.3115387v1.1038117H3.759486V4.5420742z M10.0710249,11.0423336H3.759486V9.9385223
	h6.3115387V11.0423336z"/>
</svg>
