<?xml version="1.0" encoding="utf-8"?>
<!-- Generator: Adobe Illustrator 19.1.0, SVG Export Plug-In . SVG Version: 6.00 Build 0)  -->
<svg version="1.1" id="devices" xmlns="http://www.w3.org/2000/svg" xmlns:xlink="http://www.w3.org/1999/xlink" x="0px" y="0px"
	 viewBox="0 0 14 14" style="enable-background:new 0 0 14 14;" xml:space="preserve">
<path d="M13.3244371,8.6082764c-0.0003357-1.7983098-0.0006409-3.5962834-0.0003357-5.3945923
	c0-0.3944092-0.1566162-0.7003479-0.5137939-0.8824463c-0.2973328-0.1515198-0.6163025-0.0916748-0.9352722-0.0926208
	c0,0.2530823,0,0.4854736,0,0.741394c0.1550293,0,0.2919006-0.0003052,0.4288025,0
	c0.2406616,0.0009766,0.2731323,0.0334473,0.2731323,0.2775879c0,2.1535947,0,4.3074646,0,6.4610291
	c0,0.3934631-0.0006409,0.3947449-0.4020691,0.3947449c-2.402832,0.0003357-4.8056641,0-7.2084961,0
	c-1.0874331,0-2.1748965,0.0006409-3.2623293-0.0006409c-0.234314-0.0003052-0.2839661-0.0426636-0.2839661-0.2393799
	c-0.0006409-2.2226567-0.0003052-4.445313,0.0006409-6.6679382c0-0.1785889,0.0464783-0.2228394,0.2279358-0.2241211
	c0.2263184-0.0015869,0.4530029-0.0003052,0.6847534-0.0003052c0-0.2572327,0-0.4972534,0-0.7481079
	c-0.223175,0-0.4348755-0.0006409-0.6462402,0c-0.6430359,0.0022278-1.0145569,0.374054-1.0148621,1.0209045
	c-0.0006409,2.6416013-0.0003357,5.2831726,0.0003052,7.9247437c0,0.5631409,0.3269348,0.8843689,0.8919982,0.8840332
	c0.1368713,0,0.2737732-0.0003052,0.4109802,0v-0.0047607h4.1883545v0.6115112c0,0.1483154-0.1202393,0.2685547-0.2685547,0.2685547
	H4.0461779c-0.2101138,0-0.3820193,0.1719055-0.3820193,0.382019v0.2980957C3.6641586,13.8280945,3.8360641,14,4.0461779,14
	h5.8378906c0.210083,0,0.3819885-0.1719055,0.3819885-0.382019v-0.2980957c0-0.2101135-0.1719055-0.382019-0.3819885-0.382019
	h-1.769928c-0.1921387,0-0.3479004-0.0237732-0.3479004-0.2159119v-0.6641541h3.0378723
	c0.1633301,0,0.3266296,0.0003052,0.4899292,0.0006409c0.382019,0.000946,0.7637024,0.003479,1.1453857,0.0089111
	c0.5042725,0.0066833,0.895813-0.3495483,0.8884888-0.8970947C13.3164721,10.3164673,13.3244371,9.4623718,13.3244371,8.6082764z
	 M7.004735,10.7115479c0.2546692,0.0028381,0.4498291,0.2002258,0.4485474,0.453949
	c-0.0012817,0.2635803-0.1983337,0.4584045-0.4619141,0.4568176c-0.2518005-0.0012817-0.4479065-0.2002563-0.4482117-0.4545898
	C6.5425158,10.9057312,6.7417955,10.7089844,7.004735,10.7115479z M7.8986559,1.859161
	c0.0082703,1.4051515,0.003479,2.8103027,0.0041199,4.2154541c0.0003357,0.4513855,0.2349243,0.6888733,0.6847534,0.6904602
	c0.6309509,0.0019226,1.262207,0.000946,1.893158,0c0.4351807-0.0003052,0.6793518-0.244812,0.679657-0.6799622
	c0.0006409-0.7051392,0.0003357-1.4102478,0.0003357-2.1156919c0.0003052-0.7105408,0.0003052-1.4210815,0-2.1315918
	c0-0.4288025-0.2394104-0.6682129-0.6694946-0.6688538c-0.6309204-0.0006104-1.262207,0.0124207-1.8928223-0.0041199
	C8.1246691,1.1521298,7.8964281,1.4739681,7.8986559,1.859161z M9.5167589,6.5135798
	C9.3464403,6.5056453,9.2136889,6.3569636,9.2219896,6.1834712C9.2299242,6.0195308,9.3750963,5.8842463,9.536809,5.8893123
	c0.174469,0.0054321,0.3078308,0.1473999,0.3024292,0.3218689C9.8338366,6.3840327,9.6873827,6.5215449,9.5167589,6.5135798z
	 M10.469243,2.2271421c0.0872192,0,0.1658325-0.0101929,0.1652222,0.1244812
	c-0.0044556,1.0976257-0.0032043,2.1952512-0.0041504,3.2929075c0,0.0098572-0.0050964,0.02005-0.0124207,0.0474243
	c-0.7353516,0-1.4640503,0-2.2143555,0c0-0.0719299,0-0.1340332,0-0.196106c0-1.0234375,0.002533-2.0469053-0.0028687-3.0700681
	C8.3996935,2.2787168,8.4321642,2.2214048,8.5922899,2.2236326C9.2178392,2.2325742,9.8433886,2.2274778,10.469243,2.2271421z
	 M3.0267684,7.6669307c0.0003357,0.4249883,0.2731323,0.7232671,0.6777344,0.7242131
	C5.2376451,8.3952942,6.7710924,8.3946533,8.304204,8.3921204c0.3154907-0.0006409,0.5876465-0.2059631,0.6417847-0.5144353
	C8.9809923,7.6799922,8.952672,7.4708247,8.952672,7.2556453c-0.0665283,0-0.124176,0-0.1817932,0
	c-1.5862732,0-3.1725464,0.0003052-4.7585144,0c-0.2881167,0-0.395386-0.1079102-0.395386-0.3912354
	c0-1.899231,0-3.7984312,0.0003052-5.6976624c0-0.3571777,0.0840454-0.4421692,0.4389956-0.4421692
	c1.5703735-0.0006409,3.1404114-0.0003052,4.7107849-0.0003052c0.0624084,0,0.1244812,0,0.184021,0
	C9.0048571,0.324432,8.7005358,0.0013119,8.282567,0.0010067C6.7707567-0.0005802,5.2586412,0.0000302,3.7468612,0.000671
	C3.2995956,0.0010067,3.0277145,0.2760311,3.0264633,0.728088C3.0254867,1.2265927,3.0258224,1.725433,3.0261276,2.2239683
	C3.0261276,4.0385127,3.0258224,5.8527217,3.0267684,7.6669307z M6.0010118,7.5379939
	c0.1734924,0.0012817,0.3094482,0.1400757,0.3084717,0.315155C6.3088427,8.0292053,6.1726122,8.1657715,5.9981432,8.1660767
	c-0.170929,0-0.3100586-0.1416321-0.3097229-0.3151555C5.6887255,7.6784053,5.8300829,7.5370479,6.0010118,7.5379939z"/>
</svg>
