<?xml version="1.0" encoding="utf-8"?>

<!--
 ~   Copyright (c) WSO2 Inc. (http://wso2.com) All Rights Reserved.
 ~
 ~   Licensed under the Apache License, Version 2.0 (the "License");
 ~   you may not use this file except in compliance with the License.
 ~   You may obtain a copy of the License at
 ~
 ~        http://www.apache.org/licenses/LICENSE-2.0
 ~
 ~   Unless required by applicable law or agreed to in writing, software
 ~   distributed under the License is distributed on an "AS IS" BASIS,
 ~   WITHOUT WARRANTIES OR CONDITIONS OF ANY KIND, either express or implied.
 ~   See the License for the specific language governing permissions and
 ~   limitations under the License.
-->

<svg version="1.1" id="Layer_1" xmlns="http://www.w3.org/2000/svg" xmlns:xlink="http://www.w3.org/1999/xlink" x="0px" y="0px"
	 viewBox="0 0 14 14" style="enable-background:new 0 0 14 14;" xml:space="preserve">
<path d="M6.5674324,8.9269199c0,0.6685619-0.5505266,0.7865973-0.7864451,0.7472515
	C5.5449171,9.6348267,5.4270339,9.5561371,5.1517701,9.5561371c-0.747252,0-0.9438252,0.590023-0.9438252,1.1405506
	c0,0.9438248,1.140399,1.8876505,2.5562129,1.8876505c1.4156623,0,2.9100137-0.825942,2.9100137-2.5955582
	c0-0.9438248-0.4718361-2.0450306-2.2416039-2.9887042c-1.2584338-0.6685619-2.8706694-1.7304225-2.8706694-3.696763
	C4.5618982,1.6909255,5.8596773,0,8.2978544,0c2.3594875,0,3.2639685,1.6909255,3.2639685,2.3594873
	c0,0.5113337-0.3931475,0.9044805-0.9044809,0.9044805c-0.235918,0-0.6292162-0.1965733-0.7079067-0.5111818
	C9.8315516,2.3594873,9.2810249,1.4943521,8.2585096,1.4943521c-1.2584338,0-1.9663405,0.7864451-1.9663405,1.8089607
	c0,0.747252,0.3539534,1.2190886,1.9269958,2.1629143c1.9269953,1.1405501,3.2247744,2.2809491,3.2247744,4.2866349
	C11.4439392,12.1910391,9.7135172,14,6.7248125,14c-2.2416043,0-4.2866349-1.2977791-4.2866349-3.2639675
	c0-1.6517324,1.2190886-2.8314762,2.7135925-2.8314762C5.8596773,7.9045563,6.5674324,8.1404743,6.5674324,8.9269199z"/>
</svg>
