<?xml version="1.0" encoding="utf-8"?>
<!-- Generator: Adobe Illustrator 19.1.0, SVG Export Plug-In . SVG Version: 6.00 Build 0)  -->
<svg version="1.1" id="dial-up" xmlns="http://www.w3.org/2000/svg" xmlns:xlink="http://www.w3.org/1999/xlink" x="0px" y="0px"
	 viewBox="0 0 14 14" style="enable-background:new 0 0 14 14;" xml:space="preserve">
<path d="M1.5529319,13.117897c-0.0914587,0.0597248-0.1448023,0.0588741-0.217629-0.030798
	c-0.3553699-0.43713-0.6419969-0.9136505-0.8432058-1.4396868c-0.0215247-0.0561504-0.019653-0.1336565,0.0002552-0.1915092
	C0.9055751,10.2532434,1.499418,9.1436586,2.2416365,8.113452C3.2285385,6.74336,4.3850856,5.5420618,5.7879333,4.5900416
	c0.1923609-0.1305947,0.3890605-0.2554035,0.588738-0.3745127C6.4302702,4.1836247,6.5054789,4.1615047,6.5653739,4.170608
	c0.592907,0.0898423,1.1451468,0.298708,1.6676946,0.5897593C8.2471914,4.7681942,8.2586765,4.780786,8.276288,4.7951641
	C7.9694972,5.419805,7.5581465,5.9543486,6.9778309,6.34409C6.7676039,6.485404,6.5430837,6.6054487,6.321456,6.7289815
	C6.2902322,6.7464228,6.2237864,6.7455721,6.1994543,6.7239623C5.9363937,6.4905939,5.6659317,6.5564442,5.3988724,6.7033734
	C4.9698253,6.939549,4.633853,7.2874322,4.3112383,7.6466308c-0.4758401,0.529779-0.926667,1.0808282-1.2810161,1.7007041
	C2.8969905,9.580533,2.7910688,9.8340654,2.708288,10.0897236c-0.0830359,0.2565098-0.0491748,0.5041714,0.1972954,0.6801968
	c0.025183,0.017952,0.0413477,0.0731668,0.0355625,0.1065178C2.7766905,11.8076992,2.3661053,12.5868416,1.5529319,13.117897z
	 M3.3582821,11.1302252c-0.0900123,0.4964285-0.2542973,0.9417257-0.5146353,1.3506947
	c-0.2634859,0.4135628-0.6216633,0.7292013-1.029441,0.9945593c0.1624985,0.1801939,0.4788176,0.3997803,0.6699022,0.4746485
	c0.2097168,0.0822706,0.4083734,0.0655098,0.5888233-0.0708694c0.4401073-0.3330793,0.7545547-0.7598295,0.9350047-1.282548
	c0.0233111-0.0675516,0.0376897-0.1392717,0.0465374-0.2103119C4.1261091,11.8111019,3.8034942,11.4510536,3.3582821,11.1302252z
	 M7.953588,7.4785171c0.1258302-0.0466228,0.2508092-0.1077085,0.3599639-0.1852145
	c0.3638773-0.258296,0.6579065-0.5844841,0.8750248-0.974566c0.181386-0.325933,0.1533957-0.5735941-0.0990305-0.8473744
	C8.9556341,5.3262196,8.7994308,5.2018356,8.6351461,5.0514183C8.2203064,5.9936547,7.55653,6.6494341,6.6103802,7.0572119
	c0.1602864,0.1192789,0.2896047,0.2281785,0.4310889,0.3180208C7.3263946,7.556108,7.6350565,7.5966897,7.953588,7.4785171z
	 M13.4793892,5.180141c-0.0176964-0.1322961-0.0244179-0.2629757-0.0596399-0.3982491l-0.0900974-0.4030132
	c-0.030117-0.135529-0.0755491-0.2417912-0.1124725-0.3643031l-0.0586185-0.1780679L13.1439276,3.792012L13.136611,3.7697215
	c0,0-0.015399-0.0423687-0.0111456-0.0296919l-0.005105-0.0114856l-0.0410919-0.0913734l-0.1653061-0.3651538
	c-0.2463856-0.4729474-0.5337782-0.9304106-0.8990173-1.3193861c-0.1687937-0.2069092-0.3751078-0.3763841-0.5670433-0.5585356
	c-0.1013269-0.0848225-0.2091208-0.161903-0.3133411-0.2426418l-0.1575642-0.1193641L10.809989,0.9271882l-0.3351212-0.2055479
	l-0.351882-0.1714317c-0.1151953-0.0607455-0.2364311-0.1069428-0.3582621-0.1507578
	c-0.1216612-0.04373-0.2408552-0.0935005-0.3636227-0.131275C9.1520786,0.204963,8.9090109,0.1237988,8.6566706,0.092235
	C8.5315208,0.0730074,8.407733,0.0466333,8.2827539,0.0344672C8.1572638,0.0257892,8.0323696,0.0171964,7.9079862,0.0086035
	C7.7838578-0.0042432,7.659729-0.0001595,7.5361962,0.0046049c-0.1233625,0.0039987-0.24613,0.0081675-0.3684716,0.0122512
	c-0.121151,0.0162499-0.2417912,0.0323296-0.3617511,0.0484943C6.6862693,0.080239,6.5670753,0.096659,6.4469457,0.1296692
	C6.3274965,0.1586807,6.2088127,0.187437,6.0906401,0.2160231C5.9677877,0.2417166,5.8759036,0.2864675,5.7677698,0.3204986
	C5.6587,0.359209,5.5501409,0.3977492,5.442347,0.4361193C5.3378716,0.4841032,5.234077,0.5319169,5.1309624,0.5792201
	c-0.8261051,0.3814037-1.488095,0.9595072-1.9823968,1.5661967C2.650265,2.7544885,2.3326697,3.4117143,2.1443925,4.013895
	C1.9546691,4.6182022,1.8956251,5.1685705,1.8814172,5.6171002C1.8827784,5.8423862,1.8793753,6.0422339,1.9057494,6.21843
	c0.0188873,0.1752601,0.0309683,0.3251672,0.0587887,0.4377251C2.0099697,6.8863754,2.034302,7.0090575,2.034302,7.0090575
	c0.0102944,0.051302,0.0583632,0.08746,0.1112816,0.0814195c0.0558109-0.0062103,0.096138-0.0565767,0.0898421-0.1125579
	c0,0-0.0140378-0.1242986-0.0402417-0.3574967C2.1765521,6.5025048,2.1784236,6.3628922,2.17451,6.1990323
	C2.164556,6.0362787,2.1825073,5.8452787,2.1928017,5.6330099c0.0399866-0.4225812,0.1277869-0.9349198,0.3387797-1.484437
	C2.7404475,3.5999916,3.0748882,3.0193357,3.548516,2.4836009c0.4746487-0.5322465,1.0942705-1.019657,1.8423593-1.3396344
	c0.0934153-0.0394762,0.1875963-0.0793777,0.2822027-0.1193641C5.7716832,0.9933787,5.8707137,0.9620701,5.97051,0.9304212
	c0.1031995-0.0287563,0.2155023-0.0762297,0.3129163-0.0900123C6.3831372,0.8203306,6.4834437,0.800082,6.5842609,0.7797484
	c0.0985203-0.0248427,0.2046123-0.0355625,0.3117251-0.0450912c0.1064324-0.0111452,0.2133751-0.0223755,0.3208284-0.0336057
	c0.1079636-0.0011911,0.2164378-0.0024673,0.3252521-0.0037435C7.651051,0.695011,7.760376,0.692884,7.8697009,0.7071771
	c0.1093249,0.0096138,0.2191606,0.0191425,0.3294215,0.0288414C8.3088722,0.7487801,8.417347,0.7751542,8.5270119,0.7937863
	c0.2213726,0.0305429,0.433301,0.1088145,0.6509304,0.1668375c0.4219856,0.1562027,0.845418,0.335887,1.2238436,0.5980967
	l0.1456528,0.0920542l0.1364651,0.1056665c0.0903521,0.0713803,0.1843634,0.1385067,0.2725039,0.2130347
	c0.1650515,0.1613925,0.3458414,0.3081517,0.4904737,0.4904733c0.3169994,0.3398006,0.5622787,0.7407722,0.7753134,1.1532292
	l0.1418247,0.3192117l0.0357323,0.0797181l0.0044241,0.009954c0.0019569,0.0052748,0.0005112,0.000936,0.0003405,0.0001702
	l0.0046797,0.0139527l0.0148888,0.0444107l0.0598097,0.1776423c0.035902,0.1162162,0.0883102,0.2415357,0.1106005,0.3500948
	l0.0731668,0.3269539c0.0302877,0.1059217,0.036499,0.2251158,0.052578,0.3388648
	c0.0107203,0.1149402,0.0364141,0.2288594,0.0356483,0.3443947c0.0048494,0.2306461,0.0183764,0.4608665-0.0086784,0.6893001
	c-0.0594692,0.9172235-0.385232,1.7914824-0.8613272,2.5270648c-0.4902182,0.7289467-1.1442957,1.3061991-1.8505268,1.7016411
	c-0.1772165,0.0978394-0.3629417,0.1742392-0.5400734,0.2616987c-0.1702404,0.0580235-0.3901663,0.1526299-0.558876,0.1899786
	c-0.3517113,0.1129837-0.7312431,0.1660719-1.08287,0.2008686c-0.712441,0.0463676-1.3743463-0.0421982-1.9380713-0.2039309
	c-0.5644913-0.1636047-1.0287604-0.399951-1.385066-0.6307669c-0.0928202-0.0527477-0.1720276-0.1149397-0.2493629-0.1698999
	c-0.0756345-0.0570879-0.1530552-0.1030293-0.2155871-0.1573086c-0.1263406-0.1071138-0.2406852-0.1920214-0.3227-0.2721643
	C3.5768471,9.5955925,3.4883661,9.5105143,3.4883661,9.5105143l-0.0060406-0.005785
	C3.4448063,9.4689112,3.385422,9.4668694,3.3455205,9.5016661C3.303237,9.5385046,3.2987278,9.6026535,3.3355665,9.6449375
	c0,0,0.0838015,0.0963078,0.2409401,0.2767572c0.1631792,0.1744947,0.4105003,0.4286222,0.7745481,0.6942348
	c0.3604746,0.2685909,0.8369102,0.553091,1.4323692,0.7695284c0.5936728,0.2173738,1.3093472,0.3597088,2.0972524,0.3407364
	c0.3951006-0.0204182,0.7972641-0.05513,1.2234182-0.1684532c0.2271576-0.0490055,0.387784-0.1159611,0.6146021-0.1866608
	c0.2009535-0.0889912,0.4111805-0.1684542,0.6134958-0.271143c0.8085785-0.4122019,1.5721521-1.0441599,2.1424284-1.8645649
	c0.5589609-0.8227015,0.9564438-1.8149638,1.0275688-2.8680563c0.0313091-0.2618694,0.0199938-0.526206,0.0148888-0.7911382
	C13.5177593,5.4434566,13.4912996,5.3124371,13.4793892,5.180141z M4.5334616,9.557477
	c-0.251575-0.1873407-0.4378104-0.3522215-0.5556431-0.4737978C3.8614321,8.960146,3.7994103,8.8942957,3.7994103,8.8942957
	L3.79337,8.8879156C3.7575521,8.8500557,3.6979127,8.8452911,3.6563947,8.8784714
	C3.6125796,8.9135237,3.6053481,8.977417,3.6404002,9.0212317c0,0,0.0593841,0.0744438,0.1707511,0.2138863
	C3.925921,9.3716679,4.1038189,9.5666656,4.3626251,9.7809763c0.2607636,0.2108231,0.6050735,0.4379807,1.0383744,0.6241312
	c0.432025,0.1838531,0.956274,0.332058,1.5431404,0.3449049c0.2927527,0.0123367,0.5988626-0.0114002,0.9115233-0.0633831
	c0.154501-0.0283308,0.3260183-0.0691681,0.476265-0.1137486c0.0735931-0.0239925,0.1478653-0.0481539,0.2226486-0.0724869
	c0.0932455-0.0283308,0.1580744-0.0644035,0.2394094-0.0969028c0.6180897-0.2644224,1.2307348-0.6784954,1.6925373-1.262044
	c0.4673319-0.5744448,0.8171711-1.2861209,0.9425764-2.0600734c0.0424538-0.1914248,0.046793-0.38872,0.0649137-0.5847392
	c0.0045948-0.0982652-0.0013609-0.1970401-0.0017862-0.2958155c-0.0011063-0.0987754-0.0021267-0.1978059-0.0171862-0.2959008
	l-0.0347967-0.2953897c-0.0160789-0.0992007-0.0419426-0.2001033-0.0632973-0.3001547
	c-0.039732-0.2114182-0.107028-0.3699179-0.1624985-0.5506229L11.203474,4.7256556l-0.0078278-0.022716l-0.003828-0.0084224
	l-0.0076571-0.0170159l-0.0305433-0.067977l-0.0613413-0.135869c-0.0426235-0.0896721-0.0773354-0.1832576-0.1309347-0.2672296
	c-0.09869-0.1726227-0.1956787-0.3458409-0.3181057-0.502214c-0.2273273-0.3249969-0.5090199-0.6066046-0.8103657-0.8544359
	c-0.6094971-0.4916646-1.3371668-0.8061121-2.0701122-0.920967c-0.365324-0.0672965-0.7327747-0.0690831-1.0878043-0.0466226
	c-0.1773019,0.0279056-0.349925,0.037179-0.5243344,0.0812492c-0.172112,0.0425389-0.3533278,0.0787821-0.4955778,0.1364648
	c-0.0752087,0.026289-0.149992,0.052408-0.2241797,0.0785267C5.3328524,2.2140746,5.2736382,2.2470849,5.1940904,2.2813711
	C5.042737,2.3442435,4.9049959,2.4298317,4.7664042,2.5062315C4.4996858,2.6770678,4.2505779,2.8567522,4.0413718,3.0623851
	C3.825104,3.260191,3.6472914,3.4783301,3.488281,3.6907694C3.3391397,3.9108655,3.2100768,4.127048,3.1101954,4.3406787
	c-0.2012088,0.4264946-0.3115549,0.8241482-0.365324,1.1553559C2.6911023,5.8248601,2.6872737,6.0971942,2.6912725,6.2727947
	c0.008678,0.1738138,0.0133572,0.2665486,0.0133572,0.2665486c0.0027225,0.052238,0.0451763,0.0949469,0.0984349,0.0967336
	c0.0562365,0.0017014,0.1032844-0.0423689,0.104986-0.0985203c0,0,0.0029778-0.092905,0.0085928-0.2668037
	c0.0090184-0.1718574,0.038115-0.4105854,0.1046457-0.7199283C3.0902021,5.244885,3.216032,4.8820286,3.4245577,4.5018158
	c0.2079301-0.3798723,0.507489-0.7731016,0.9082055-1.1171563c0.3985891-0.3471172,0.8985062-0.6351054,1.4811187-0.8067074
	c0.1564579-0.056917,0.2956452-0.0735071,0.4418087-0.1060069c0.1439519-0.03284,0.3048339-0.0357327,0.4584842-0.0562365
	c0.312746-0.0066359,0.6344252-0.0046792,0.9531264,0.0626173c0.3213387,0.0505362,0.6343393,0.1638598,0.939599,0.2957304
	c0.1473541,0.0781865,0.3017702,0.1450577,0.4399366,0.2424717C9.1169415,3.0628104,9.1921501,3.1023717,9.2589359,3.154269
	L9.460145,3.309536c0.2598276,0.2172036,0.50315,0.4619722,0.6973829,0.745111
	c0.1060066,0.135529,0.1879368,0.2870526,0.2730141,0.4364491c0.0467081,0.0725713,0.0750389,0.1547565,0.1117067,0.2326026
	l0.0525789,0.1180029l0.0264587,0.058959l0.0065508,0.0148034l0.0018721,0.004169l0.0102091,0.0300322
	C10.694623,5.1227984,10.770853,5.3091187,10.79527,5.4640455c0.0168457,0.0812492,0.0387106,0.1598611,0.0528336,0.2430673
	l0.031394,0.2554884c0.0142927,0.0849075,0.0150585,0.1706657,0.0163345,0.2562542
	c0.0006809,0.0855031,0.0071468,0.1711764,0.0036583,0.2564244c-0.0160789,0.1699004-0.0165901,0.3411617-0.0535984,0.5074039
	c-0.0477285,0.336823-0.1586704,0.6582465-0.284585,0.9661431c-0.0747833,0.1488857-0.1388474,0.3028765-0.2311563,0.4398518
	c-0.044241,0.0694237-0.0824404,0.1426754-0.1308498,0.2085257l-0.146759,0.1955938
	c-0.396122,0.5166779-0.9191809,0.8980808-1.4610405,1.1507626c-0.0656805,0.028841-0.1402082,0.0706139-0.1975508,0.0885658
	c-0.0739326,0.0266294-0.1473551,0.0530882-0.2201815,0.0794621c-0.1449728,0.047389-0.2710576,0.0792074-0.4094791,0.1127281
	c-0.2768431,0.0581932-0.5504532,0.0921392-0.8144498,0.09231c-0.5285029,0.0089331-1.0121698-0.0952873-1.4198627-0.2394094
	C5.1217742,9.9304581,4.7888651,9.7395439,4.5334616,9.557477z"/>
</svg>
