<?xml version="1.0" encoding="utf-8"?>

<!--
 * Copyright (c) 2015, WSO2 Inc. (http://www.wso2.org) All Rights Reserved.
 *
 * WSO2 Inc. licenses this file to you under the Apache License,
 * Version 2.0 (the "License"); you may not use this file except
 * in compliance with the License.
 * You may obtain a copy of the License at
 *
 * http://www.apache.org/licenses/LICENSE-2.0
 *
 * Unless required by applicable law or agreed to in writing,
 * software distributed under the License is distributed on an
 * "AS IS" BASIS, WITHOUT WARRANTIES OR CONDITIONS OF ANY
 * KIND, either express or implied. See the License for the
 * specific language governing permissions and limitations
 * under the License.
-->

<svg version="1.1" id="dial-up" xmlns="http://www.w3.org/2000/svg" xmlns:xlink="http://www.w3.org/1999/xlink" x="0px" y="0px"
	 viewBox="0 0 14 14" style="enable-background:new 0 0 14 14;" xml:space="preserve">
<path d="M1.0762547,11.680397c-0.0914587,0.0597248-0.1448023,0.0588741-0.217629-0.030798
	c-0.3553699-0.43713-0.6419969-0.9136505-0.8432058-1.4396868c-0.0215247-0.0561504-0.019653-0.1336565,0.0002552-0.1915092
	C0.4288979,8.8157434,1.0227408,7.7061586,1.7649593,6.675952C2.7518613,5.30586,3.9084084,4.1045618,5.3112559,3.1525416
	c0.1923609-0.1305947,0.3890605-0.2554035,0.588738-0.3745127C5.9535928,2.7461247,6.0288014,2.7240047,6.0886965,2.733108
	c0.592907,0.0898423,1.1451468,0.298708,1.6676946,0.5897593C7.770514,3.3306942,7.7819991,3.343286,7.7996106,3.3576641
	C7.4928198,3.982305,7.0814691,4.5168486,6.5011535,4.90659c-0.210227,0.141314-0.4347472,0.2613587-0.6563749,0.3848915
	C5.8135548,5.3089228,5.7471089,5.3080721,5.7227769,5.2864623C5.4597163,5.0530939,5.1892543,5.1189442,4.922195,5.2658734
	C4.4931479,5.502049,4.1571755,5.8499322,3.8345611,6.2091308C3.358721,6.7389097,2.9078941,7.289959,2.553545,7.9098349
	C2.4203134,8.143033,2.3143916,8.3965654,2.2316108,8.6522236C2.1485748,8.9087334,2.182436,9.156395,2.4289062,9.3324203
	c0.025183,0.017952,0.0413477,0.0731668,0.0355625,0.1065178C2.3000133,10.3701992,1.8894281,11.1493416,1.0762547,11.680397z
	 M2.8816049,9.6927252c-0.0900123,0.4964285-0.2542973,0.9417257-0.5146353,1.3506947
	c-0.2634859,0.4135628-0.6216633,0.7292013-1.029441,0.9945593c0.1624985,0.1801939,0.4788176,0.3997803,0.6699022,0.4746485
	c0.2097168,0.0822706,0.4083734,0.0655098,0.5888233-0.0708694c0.4401073-0.3330793,0.7545547-0.7598295,0.9350047-1.282548
	c0.0233111-0.0675516,0.0376897-0.1392717,0.0465374-0.2103119C3.6494319,10.3736019,3.326817,10.0135536,2.8816049,9.6927252z
	 M7.4769106,6.0410171c0.1258302-0.0466228,0.2508092-0.1077085,0.3599639-0.1852145
	c0.3638778-0.258296,0.657907-0.5844841,0.8750253-0.974566c0.181386-0.325933,0.1533957-0.5735941-0.0990305-0.8473744
	C8.4789572,3.8887196,8.3227539,3.7643356,8.1584692,3.6139183C7.743629,4.5561547,7.0798526,5.2119341,6.1337028,5.6197119
	c0.1602864,0.1192789,0.2896047,0.2281785,0.4310889,0.3180208C6.8497171,6.118608,7.1583791,6.1591897,7.4769106,6.0410171z
	 M7.9828687,11.1306286c3.9134421-0.2417135,6.6350045-3.9791179,5.8957906-7.5968418
	c-0.198,0.0120628-0.3971024,0.0241933-0.5992403,0.0365086c0.2935915,1.7493544-0.059432,3.3319836-1.1448898,4.7203703
	c-1.0883312,1.3920622-2.5461464,2.1132822-4.3063021,2.2492113C7.8812928,10.7425957,7.9311147,10.9329185,7.9828687,11.1306286z
	 M11.2836685,3.6915042c0.2879267,1.3096211,0.080266,2.5051305-0.6927977,3.576791
	c-0.7719212,1.070076-1.8412085,1.6443501-3.1534257,1.7839718c0.0545058,0.2067623,0.1055241,0.4002962,0.155694,0.5906076
	c2.9339614-0.2766609,4.9817395-3.1327305,4.3011174-5.9891472C11.6953182,3.6660357,11.4950428,3.6784265,11.2836685,3.6915042z
	 M7.1150832,7.821847c2.1489768-0.0133247,3.5708632-2.1525497,2.890388-4.0538545
	c-0.2009325,0.0123789-0.404851,0.0249414-0.6232634,0.0383971c0.3025799,0.8486831,0.2343807,1.6456873-0.2840281,2.3715146
	C8.5808287,6.9022493,7.8490634,7.2242594,6.9563999,7.2148843C7.0120058,7.4275751,7.0628896,7.6222048,7.1150832,7.821847z
	 M13.8786592,3.5337868c-0.198,0.0120628-0.3971024,0.0241933-0.5992403,0.0365086
	c0.2935915,1.7493544-0.059432,3.3319836-1.1448898,4.7203703c-1.0883312,1.3920622-2.5461464,2.1132822-4.3063021,2.2492113
	c0.0530658,0.2027187,0.1028876,0.3930416,0.1546416,0.5907516C11.8963108,10.8889151,14.6178732,7.1515107,13.8786592,3.5337868z
	 M10.5908709,7.2682953c-0.7719212,1.070076-1.8412085,1.6443501-3.1534257,1.7839718
	c0.0545058,0.2067623,0.1055241,0.4002962,0.155694,0.5906076c2.9339614-0.2766609,4.9817395-3.1327305,4.3011174-5.9891472
	c-0.1989384,0.0123081-0.3992138,0.024699-0.6105881,0.0377767C11.5715952,5.0011253,11.3639345,6.1966348,10.5908709,7.2682953z
	 M10.0054712,3.7679925c-0.2009325,0.0123789-0.404851,0.0249414-0.6232634,0.0383971
	c0.3025799,0.8486831,0.2343807,1.6456873-0.2840281,2.3715146C8.5808287,6.9022493,7.8490634,7.2242594,6.9563999,7.2148843
	C7.0120058,7.4275751,7.0628896,7.6222048,7.1150832,7.821847C9.26406,7.8085222,10.6859465,5.6692972,10.0054712,3.7679925z"/>
</svg>
