<?xml version="1.0" encoding="utf-8"?>

<!--
 * Copyright (c) 2015, WSO2 Inc. (http://www.wso2.org) All Rights Reserved.
 *
 * WSO2 Inc. licenses this file to you under the Apache License,
 * Version 2.0 (the "License"); you may not use this file except
 * in compliance with the License.
 * You may obtain a copy of the License at
 *
 * http://www.apache.org/licenses/LICENSE-2.0
 *
 * Unless required by applicable law or agreed to in writing,
 * software distributed under the License is distributed on an
 * "AS IS" BASIS, WITHOUT WARRANTIES OR CONDITIONS OF ANY
 * KIND, either express or implied. See the License for the
 * specific language governing permissions and limitations
 * under the License.
-->

<svg version="1.1" id="dial-up" xmlns="http://www.w3.org/2000/svg" xmlns:xlink="http://www.w3.org/1999/xlink" x="0px" y="0px"
	 viewBox="0.508 0 13.492 14" enable-background="new 0.508 0 13.492 14" xml:space="preserve">
<path id="path1" d="M6.945,0c0.054,0,0.108,0,0.162,0.001c1.726,0.028,3.466,0.546,4.811,1.548c2.692,2.006,2.786,5.187,0.209,7.107
	c-2.455,1.829-6.45,1.849-9.149,0.109c2.349,1.468,5.855,1.382,8.065-0.265c2.334-1.739,2.334-4.559,0-6.3
	c-2.334-1.739-6.122-1.739-8.456,0c-1.961,1.464-2.269,3.686-0.934,5.39c0.282-0.37,0.573-0.7,0.866-0.991
	C1.968,5.459,2.273,4.161,3.462,3.276c1.665-1.24,4.425-1.197,6.163,0.101C11.366,4.673,11.428,6.73,9.76,7.97
	C8.095,9.21,5.335,9.167,3.594,7.869c1.509,1.124,3.958,1.124,5.467,0s1.509-2.947,0-4.071s-3.958-1.124-5.467,0
	c-0.995,0.741-1.33,1.789-1.01,2.739c2.372-2.297,4.927-2.15,4.927-2.15c1.759,0.35,1.568,1.527,1.568,1.527L6.865,7.296
	C6.301,7.305,5.438,6.69,5.438,6.69C4.622,6.885,4.023,7.329,3.577,7.854c-0.244,0.289-0.44,0.602-0.599,0.912
	c-0.511,1.004-0.614,1.977-0.614,1.977c0.487,0.595,1.612,0.82,1.612,0.82L3.817,13.71c-0.608,0.276-1.107,0.321-1.489,0.273
	c-0.62-0.079-0.939-0.4-0.939-0.4c-2.058-2.864,0.135-5.821,0.135-5.821C1.56,7.714,1.598,7.665,1.633,7.617
	c-1.706-1.969-1.477-4.565,0.749-6.221C3.629,0.466,5.274,0.003,6.945,0z"/>
</svg>
