<?xml version="1.0" encoding="utf-8"?>

<!--
 ~   Copyright (c) WSO2 Inc. (http://wso2.com) All Rights Reserved.
 ~
 ~   Licensed under the Apache License, Version 2.0 (the "License");
 ~   you may not use this file except in compliance with the License.
 ~   You may obtain a copy of the License at
 ~
 ~        http://www.apache.org/licenses/LICENSE-2.0
 ~
 ~   Unless required by applicable law or agreed to in writing, software
 ~   distributed under the License is distributed on an "AS IS" BASIS,
 ~   WITHOUT WARRANTIES OR CONDITIONS OF ANY KIND, either express or implied.
 ~   See the License for the specific language governing permissions and
 ~   limitations under the License.
-->

<svg version="1.1" id="docker" xmlns="http://www.w3.org/2000/svg" xmlns:xlink="http://www.w3.org/1999/xlink" x="0px" y="0px"
	 viewBox="0 0 14 14" style="enable-background:new 0 0 14 14;" xml:space="preserve">
<path d="M5.4,8.7C5.4,8.7,5.4,8.6,5.4,8.7L5.1,8.6l0.2-0.2c0,0-0.1,0-0.2,0c-0.2,0-0.3,0.2-0.3,0.3C4.8,8.9,4.9,9,5.1,9
	S5.4,8.9,5.4,8.7z"/>
<path d="M13.2,7.4c0,0-1.1,0.8-2,0.1c0.1-0.2,0.2-0.3,0.2-0.5c0.6,0,1.3-0.2,1.6-0.8l0.1-0.2L12.9,6c-0.4-0.2-0.9-0.2-1.3-0.1
	c-0.1-0.4-0.3-0.8-0.7-1.1l-0.1-0.1l-0.1,0.1c-0.2,0.3-0.3,0.7-0.3,1.1c0,0.3,0.1,0.5,0.3,0.7c-0.1,0.1-0.3,0.1-0.4,0.2
	c-0.2,0.1-0.5,0.1-0.8,0.1H9V5.7H7.9V4.6v0V3.5H6.7v1.1H5.6h0H4.4v1.1H3.2v1.1H2.3l0,0.2c0,0.2,0,0.4,0,0.7C1.8,7.8,1.2,7.9,0.7,7.4
	c0,0-0.3,0.5-0.7,0.5h2.3c0,0.2,0.1,0.5,0.2,0.7l0.1,0.2l0,0c0.7,1.2,1.9,1.6,3.2,1.6c2.2,0,4-0.8,5.1-2.6H14
	C14,8,13.2,7.9,13.2,7.4z M8.8,5.9L8.8,5.9l0.1,0.8H8.8V5.9z M8.6,5.9L8.6,5.9l0.1,0.8H8.6V5.9z M8.4,5.9L8.4,5.9l0.1,0.8H8.4V5.9z
	 M8.2,5.9L8.2,5.9l0.1,0.8H8.2V5.9z M8,5.9L8,5.9l0.1,0.8H8V5.9z M7.6,3.6L7.6,3.6l0.1,0.8H7.6V3.6z M7.6,4.8L7.6,4.8l0.1,0.8H7.6
	V4.8z M7.6,5.9L7.6,5.9l0.1,0.8H7.6V5.9z M7.4,3.6L7.4,3.6l0.1,0.8H7.4V3.6z M7.4,4.8L7.4,4.8l0.1,0.8H7.4V4.8z M7.4,5.9L7.4,5.9
	l0.1,0.8H7.4V5.9z M7.2,3.6L7.2,3.6l0.1,0.8H7.2V3.6z M7.2,4.8L7.2,4.8l0.1,0.8H7.2V4.8z M7.2,5.9L7.2,5.9l0.1,0.8H7.2V5.9z M7,3.6
	L7,3.6l0.1,0.8H7V3.6z M7,4.8L7,4.8l0.1,0.8H7V4.8z M7,5.9L7,5.9l0.1,0.8H7V5.9z M6.9,3.6L6.9,3.6l0.1,0.8H6.9V3.6z M6.9,4.8
	L6.9,4.8l0.1,0.8H6.9V4.8z M6.9,5.9L6.9,5.9l0.1,0.8H6.9V5.9z M6.5,4.8L6.5,4.8l0.1,0.8H6.5V4.8z M6.5,5.9L6.5,5.9l0.1,0.8H6.5V5.9z
	 M6.3,4.8L6.3,4.8l0.1,0.8H6.3V4.8z M6.3,5.9L6.3,5.9l0.1,0.8H6.3V5.9z M6.1,4.8L6.1,4.8l0.1,0.8H6.1V4.8z M6.1,5.9L6.1,5.9l0.1,0.8
	H6.1V5.9z M5.9,4.8L5.9,4.8L6,5.6H5.9V4.8z M5.9,5.9L5.9,5.9L6,6.7H5.9V5.9z M5.7,4.8L5.7,4.8l0.1,0.8H5.7V4.8z M5.7,5.9L5.7,5.9
	l0.1,0.8H5.7V5.9z M5.3,4.8L5.3,4.8l0.1,0.8H5.3V4.8z M5.3,5.9L5.3,5.9l0.1,0.8H5.3V5.9z M5.1,4.8L5.1,4.8l0.1,0.8H5.1V4.8z
	 M5.1,5.9L5.1,5.9l0.1,0.8H5.1V5.9z M4.9,4.8L4.9,4.8L5,5.6H4.9V4.8z M4.9,5.9L4.9,5.9L5,6.7H4.9V5.9z M4.7,4.8L4.7,4.8l0.1,0.8H4.7
	V4.8z M4.7,5.9L4.7,5.9l0.1,0.8H4.7V5.9z M4.5,4.8L4.5,4.8l0.1,0.8H4.5V4.8z M4.5,5.9L4.5,5.9l0.1,0.8H4.5V5.9z M4.2,5.9L4.2,5.9
	l0.1,0.8H4.2V5.9z M4,5.9L4,5.9L4,6.7H4V5.9z M3.8,5.9L3.8,5.9l0.1,0.8H3.8V5.9z M3.6,5.9L3.6,5.9l0.1,0.8H3.6V5.9z M3.4,5.9
	L3.4,5.9l0.1,0.8H3.4V5.9z M2.9,9.2L2.9,9.2C2.9,9.1,2.9,9.1,2.9,9.2C2.8,9.1,2.8,9.1,2.9,9.2c-0.1-0.1,0-0.1,0-0.1
	c0,0,0.9,0.1,1.4-0.1l0,0l0,0c0,0,0,0,0.1,0c0,0,0.1,0,0.1,0c0,0,0,0.1,0,0.1c0,0-0.1,0-0.1,0l0,0c0,0,0.4,0.7,1.7,1.3
	C6.1,10.4,4.1,10.7,2.9,9.2z M4.8,8.6c0-0.2,0.2-0.4,0.4-0.4c0.2,0,0.4,0.2,0.4,0.4c0,0.2-0.2,0.4-0.4,0.4S4.8,8.9,4.8,8.6z
	 M11.2,7.6C11.1,7.7,11,7.9,10.9,8H2.3c0-0.1,0-0.2,0-0.3c0,0,0,0,0,0C2.7,7.6,3,7.4,3,7.4c1,0.9,2.8,0,2.8,0c1.3,0.9,2.5,0,2.5,0
	c1.8,0.9,2.8,0,2.8,0C11.1,7.5,11.1,7.5,11.2,7.6L11.2,7.6z"/>
</svg>
