<?xml version="1.0" encoding="utf-8"?>
<!-- Generator: Adobe Illustrator 19.1.0, SVG Export Plug-In . SVG Version: 6.00 Build 0)  -->
<svg version="1.1" id="document" xmlns="http://www.w3.org/2000/svg" xmlns:xlink="http://www.w3.org/1999/xlink" x="0px" y="0px"
	 viewBox="0 0 14 14" style="enable-background:new 0 0 14 14;" xml:space="preserve">
<path d="M3.1276245,7.8440094h0.9929047v1.8864899H3.1276245V7.8440094z M1.5390015,7.1489563h1.3900909
	C2.9481201,7.167984,2.9611511,7.171875,2.9743042,7.1758118C3.0942383,7.4225159,3.342041,7.5962067,3.6348114,7.5962067
	c0.4085846,0,0.7398376-0.3312531,0.7398376-0.7398376S4.043396,6.1165924,3.6348114,6.1165924
	c-0.2978668,0-0.5510559,0.178299-0.6683807,0.4320374C2.9540558,6.548996,2.9422455,6.5400238,2.9290924,6.5531769H1.5390015
	c-0.1985931,0-0.2978668,0.0993347-0.2978668,0.2978668C1.2411346,7.0496368,1.4397278,7.1489563,1.5390015,7.1489563z
	 M3.1276245,3.9716339h0.9929047v1.8864899H3.1276245V3.9716339z M5.2127686,11.5177307c1.8864899,0,3.7730408,0,5.6596069,0
	h0.0992584c0.0992737,0,0.1985931-0.1985931,0.1985931-0.3971252c0-0.1985931,0-0.3972015-0.1985931-0.3972015c0,0,0,0-0.0992584,0
	c-0.8936462,0-1.7872925,0-2.7801971,0c-0.9929199,0-1.8864899,0-2.8794098,0c-0.2978516,0-0.3971863,0.0992737-0.3971863,0.3972015
	C4.8155823,11.3191376,4.914917,11.5177307,5.2127686,11.5177307z M1.5390015,3.2765961h1.4070587
	C3.0500488,3.5592957,3.315979,3.7633514,3.6348114,3.7633514c0.4085846,0,0.7398376-0.3312531,0.7398376-0.7398376
	S4.043396,2.2836761,3.6348114,2.2836761c-0.2827148,0-0.52034,0.1641693-0.6448669,0.3971863h-1.450943
	c-0.1985931,0-0.2978668,0.1985321-0.2978668,0.2978668C1.2411346,3.1773224,1.4397278,3.2765961,1.5390015,3.2765961z
	 M5.2127686,5.8581238c1.8864899,0,3.7730408,0,5.6596069,0h0.0992584c0.1985931,0,0.1985931-0.1985321,0.1985931-0.3971252
	s-0.0993195-0.3971863-0.1985931-0.3971863h-0.0992584c-0.8936462,0-1.8865662,0-2.7801971,0c-0.5957184,0-1.2907715,0-1.8864899,0
	c-0.2978668,0-0.5957947,0-0.9929199,0c-0.2978516,0-0.3971863,0.0993347-0.3971863,0.3971863
	C4.8155823,5.7588654,4.914917,5.8581238,5.2127686,5.8581238z M5.2127686,8.6383209c1.8864899,0,3.7730408,0,5.6596069,0h0.0992584
	c0.1985931,0,0.1985931-0.1985931,0.1985931-0.3971863s-0.0993195-0.3971252-0.1985931-0.3971252h-0.0992584
	c-0.8936462,0-1.8865662,0-2.7801971,0c-0.9929199,0-1.8864899,0-2.8794098,0c-0.2978516,0-0.3971863,0.0992737-0.3971863,0.3971252
	C4.8155823,8.5390015,4.914917,8.6383209,5.2127686,8.6383209z M5.2127686,3.0779877c1.8864899,0,3.7730408,0,5.6596069,0h0.0992584
	c0.1985931,0,0.1985931-0.1985321,0.1985931-0.3971252s-0.0993195-0.3971863-0.1985931-0.3971863h-0.0992584
	c-0.8936462,0-1.8865662,0-2.7801971,0c-0.9929199,0-1.8864899,0-2.8794098,0c-0.2978516,0-0.3971863,0.0993347-0.3971863,0.3971863
	C4.8155823,2.9787292,4.914917,3.0779877,5.2127686,3.0779877z M11.4680939,0H4.418457
	C3.7234039,0,3.1276245,0.5957184,3.1276245,1.2907715v0.6950531h0.9929047V1.2907715
	c0-0.0992737,0.0993347-0.2978668,0.2979279-0.2978668h7.0496368c0.0993195,0,0.2978516,0.0992737,0.2978516,0.2978668v11.418457
	c0,0.0992737-0.0992584,0.2978516-0.2978516,0.2978516H4.418457c-0.0993347,0-0.2979279-0.0993042-0.2979279-0.2978516v-0.9929047
	H3.1276245v0.9929047C3.1276245,13.4042664,3.7234039,14,4.418457,14h7.0496368
	c0.6950531,0,1.2907715-0.5957947,1.2907715-1.2907715V1.2907715C12.6595917,0.5957184,12.163147,0,11.4680939,0z
	 M3.6348114,11.4632416c0.4085846,0,0.7398376-0.3312531,0.7398376-0.7398376c0-0.4085693-0.3312531-0.7397614-0.7398376-0.7397614
	c-0.2910767,0-0.5371246,0.1719818-0.6578979,0.4164581c-0.0136414,0.0018768-0.0276947,0.0053253-0.047821,0.0254517H1.5390015
	c-0.1985931,0-0.2978668,0.1985931-0.2978668,0.2978516c0,0.1986084,0.1985931,0.2978668,0.2978668,0.2978668h1.3900909
	c0.0184784,0.0184784,0.0310364,0.0186615,0.0439301,0.0196991C3.0925446,11.2888336,3.3411865,11.4632416,3.6348114,11.4632416z"/>
</svg>
