<?xml version="1.0" encoding="utf-8"?>

<!--
 * Copyright (c) 2015, WSO2 Inc. (http://www.wso2.org) All Rights Reserved.
 *
 * WSO2 Inc. licenses this file to you under the Apache License,
 * Version 2.0 (the "License"); you may not use this file except
 * in compliance with the License.
 * You may obtain a copy of the License at
 *
 * http://www.apache.org/licenses/LICENSE-2.0
 *
 * Unless required by applicable law or agreed to in writing,
 * software distributed under the License is distributed on an
 * "AS IS" BASIS, WITHOUT WARRANTIES OR CONDITIONS OF ANY
 * KIND, either express or implied. See the License for the
 * specific language governing permissions and limitations
 * under the License.
-->

<svg version="1.1" id="document" xmlns="http://www.w3.org/2000/svg" xmlns:xlink="http://www.w3.org/1999/xlink" x="0px" y="0px"
	 viewBox="0 0 14 14" style="enable-background:new 0 0 14 14;" xml:space="preserve">
<path d="M12.57184,2.79504c-0.00021,3.40851-0.00037,6.81705-0.00131,10.22559c-0.00015,0.48373-0.23663,0.83639-0.63751,0.94598
	c-0.08832,0.02414-0.18375,0.03113-0.27591,0.03122c-2.8299,0.00192-5.65979,0.00266-8.48969,0.00183
	c-0.54791-0.00015-0.9372-0.3877-0.94031-0.93253c-0.00265-0.47015-0.00055-0.94031-0.00055-1.42908c0.14847,0,0.3933,0,0.53737,0
	c0.00284,0.05927,0.00778,0.11588,0.0079,0.17249c0.00067,0.40219-0.00079,0.68519,0.00076,1.08735
	c0.0014,0.36276,0.19263,0.55521,0.55393,0.55527c2.80539,0.00061,5.37243,0.00058,8.17782,0
	c0.3421-0.00006,0.5199-0.18704,0.52026-0.55002c0.00134-1.24085,0.00049-2.36253,0.00052-3.60334
	c0-2.71219,0.00006-5.30522,0-8.01741c0-0.08829,0.00024-0.17657-0.00143-0.26483C12.01792,0.7141,11.86378,0.5584,11.55848,0.5515
	c-0.00485-0.00012-0.00971-0.00012-0.01456-0.00021c-0.03793,0-0.07562,0-0.11313,0
	c-1.30826,0.00037-6.79262-0.00003-8.10085,0.00153C2.91988,0.5533,2.77477,0.70116,2.77336,1.11159
	c-0.00095,0.28418-0.00046,0.4492-0.0015,0.73338C2.77168,1.89749,2.76726,1.94998,2.76436,2.01153c-0.14056,0-0.38884,0-0.53829,0
	c0-0.17795-0.00003-0.34775,0-0.51755c0.00006-0.1911,0.00015-0.3822,0.00021-0.57327
	c0.00018-0.55017,0.35437-0.91119,0.90817-0.91412C3.91351,0.0025,4.69256,0.00506,5.47165,0.00503
	C5.90729,0.005,10.12927,0.00403,11.1239,0.00589c-0.00031-0.00128-0.00061-0.00244-0.00095-0.00372
	c0.02167,0.00174,0.0433,0.00299,0.06497,0.00384c0.04742,0.00012,0.08472,0.00024,0.10928,0.00037
	c0.00687,0.00003,0.01337,0.00061,0.02008,0.00085c0.27319-0.00403,0.54376-0.03955,0.80002,0.09433
	c0.30649,0.16015,0.45306,0.42139,0.45331,0.76602C12.57107,1.51007,12.5719,2.15256,12.57184,2.79504z M5.51712,11.62949
	c-0.23288,0.00012-0.33493,0.06601-0.33594,0.21332c-0.00098,0.14697,0.10239,0.21387,0.33429,0.21396
	c1.62759,0.00055,3.25519,0.00082,4.88278,0.00104c0.03427,0,0.06876,0.00012,0.10281-0.0033
	c0.12665-0.01269,0.2005-0.08691,0.20132-0.21042c0.00082-0.12402-0.07297-0.19839-0.19965-0.21109
	c-0.03891-0.00388-0.07837-0.00268-0.11758-0.00268c-0.80887-0.00012-1.61777-0.00009-2.42667-0.00009
	c0-0.00031,0-0.00061,0-0.00092C7.14471,11.6293,6.3309,11.629,5.51712,11.62949z M10.44238,10.30521
	c-0.01962-0.00058-0.03925-0.00027-0.05884-0.00027c-1.56397,0-3.12793-0.00012-4.6919,0.00018
	c-0.10782,0.00003-0.21625-0.00339-0.32327,0.00665c-0.12067,0.01135-0.18561,0.09262-0.18466,0.20868
	c0.00095,0.11554,0.06592,0.19278,0.18701,0.2074c0.0484,0.00586,0.09784,0.00449,0.14682,0.00449
	c0.80896,0.00024,1.61792,0.00015,2.42685,0.00015c0,0.00037,0,0.00073,0,0.0011c0.47067,0,0.94132,0.00012,1.41199-0.00003
	c0.36279-0.00015,0.72562,0.00046,1.08841-0.0015c0.16318-0.00089,0.26199-0.08459,0.2608-0.21381
	C10.70441,10.38913,10.60675,10.31,10.44238,10.30521z M10.4732,8.98212c-0.03912-0.00189-0.07843-0.00043-0.11765-0.00046
	c-1.108-0.00037-2.21597-0.00092-3.32398-0.00101C6.49722,8.98062,5.96283,8.97989,5.42843,8.98288
	C5.25235,8.98386,5.14361,9.10938,5.1897,9.25177c0.04434,0.13696,0.15372,0.15842,0.28162,0.15808
	c0.81873-0.00226,1.63745-0.00116,2.45618-0.00095c0.31866,0.00021,0.63733,0.0004,0.95602,0.00018
	c0.52948-0.00037,1.05896,0.0007,1.58841-0.00265c0.14151-0.00092,0.23288-0.09055,0.23318-0.21121
	C10.70538,9.07462,10.61273,8.98889,10.4732,8.98212z M5.47146,7.65698c-0.03909,0-0.07925-0.00137-0.11713,0.00653
	c-0.11078,0.0231-0.17191,0.09766-0.17148,0.20727C5.18329,7.98007,5.24359,8.0571,5.35541,8.07635
	C5.4176,8.08707,5.48242,8.08463,5.54605,8.08463c1.56882,0.00039,3.13763,0.00043,4.70645,0
	c0.09305-0.00003,0.18729,0.00384,0.27881-0.00922c0.11215-0.01596,0.17203-0.09641,0.17151-0.20569
	c-0.00055-0.10882-0.05948-0.18619-0.17239-0.20544c-0.05264-0.00897-0.10745-0.00668-0.16129-0.00671
	C9.56021,7.65723,8.75128,7.65732,7.94235,7.65732c0-0.00018,0-0.0004,0-0.00061C7.11871,7.65671,6.2951,7.65665,5.47146,7.65698z
	 M7.28705,3.65417c0-0.00009,0-0.00015-0.00003-0.00024c-0.06909,0-0.13177-0.00003-0.19449,0
	C6.94427,3.65402,6.79602,3.65417,6.64777,3.65427c-0.35822,0-0.7164-0.00003-1.07459,0.00009c-0.00888-0.00003-0.01776,0-0.02664,0
	c-0.02502,0-0.05005,0-0.07507,0C5.43237,3.65439,5.39221,3.65301,5.35434,3.66092C5.353,3.66119,5.35187,3.66168,5.35052,3.66199
	c-0.0791,0.01352-0.13242,0.05808-0.15475,0.12643c-0.00125,0.00357-0.00232,0.00723-0.00339,0.0109
	C5.19159,3.80218,5.19101,3.80521,5.19034,3.80814C5.18576,3.82687,5.18277,3.84662,5.18286,3.86816
	c0.00006,0.01959,0.00275,0.03772,0.00662,0.05508c0.00076,0.00357,0.00156,0.00711,0.00247,0.01059
	c0.00137,0.00497,0.00269,0.00995,0.00439,0.01468c0.00272,0.0079,0.00604,0.01535,0.00964,0.02258
	c0.00153,0.00302,0.00308,0.00601,0.00476,0.00894c0.00436,0.00763,0.00922,0.01489,0.01459,0.0217
	c0.00171,0.00214,0.00348,0.00418,0.00528,0.00626c0.00598,0.00687,0.01239,0.0134,0.01947,0.01938
	c0.00168,0.0014,0.00348,0.00269,0.00522,0.00406C5.2633,4.03772,5.27179,4.04355,5.28103,4.04867
	c0.00034,0.00018,0.00067,0.00034,0.00101,0.00052C5.31003,4.06454,5.3435,4.07474,5.38196,4.07922
	c0.03171,0.00372,0.064,0.00299,0.09607,0.00287c0.02173,0.00009,0.04346-0.00003,0.06506-0.00006c0.01004,0,0.02008,0,0.03012,0
	C7.13299,4.0824,8.69275,4.08246,10.2525,4.082c0.09305,0,0.18729,0.00388,0.27881-0.00919
	c0.11215-0.01599,0.17203-0.0964,0.17151-0.20572c-0.00055-0.10879-0.05948-0.18616-0.17239-0.20541
	c-0.05264-0.00897-0.10745-0.00668-0.16129-0.00671C9.56021,3.6546,8.75128,3.65472,7.94235,3.65472c0-0.00021,0-0.0004,0-0.00061
	C7.72391,3.65411,7.50549,3.65417,7.28705,3.65417z M7.18442,2.32812c-0.00159,0-0.00284-0.00021-0.00446-0.00018
	C7.16135,2.32803,7.14273,2.32803,7.12408,2.32812c-0.55087,0-1.10175-0.00003-1.65262,0.00018
	c-0.03909,0-0.07925-0.00137-0.11713,0.00653C5.26919,2.3526,5.21371,2.401,5.19263,2.47214
	c-0.00748,0.02164-0.01166,0.04514-0.0119,0.07034C5.18036,2.58185,5.1896,2.61749,5.20721,2.64789
	C5.2315,2.69415,5.27423,2.72671,5.33304,2.74209c0.02817,0.00851,0.05954,0.0134,0.09402,0.01367
	C5.4418,2.75589,5.45657,2.75589,5.47131,2.75598c0.01077,0.00009,0.02155,0.00021,0.03232,0.00015
	c0.36676,0.00229,0.73355,0.00088,1.10031,0.00098c0.22479,0.00006,0.44955,0.00003,0.69885,0.00003
	c0-0.0004-0.00003-0.00079-0.00003-0.00119c0.98325,0.00006,1.96649,0.00027,2.94974,0
	c0.09305-0.00003,0.18729,0.00384,0.27881-0.00919c0.11215-0.01599,0.17203-0.09641,0.17151-0.20572
	c-0.00055-0.10883-0.05948-0.18616-0.17239-0.20544c-0.05264-0.00897-0.10745-0.00668-0.16129-0.00668
	C9.56021,2.32855,8.75128,2.32867,7.94235,2.32867c0-0.00021,0-0.00043,0-0.00061C7.6897,2.32806,7.43707,2.32812,7.18442,2.32812z
	 M5.19351,5.27463C5.21524,5.345,5.27029,5.39328,5.35541,5.40796C5.4176,5.41867,5.48242,5.4162,5.54605,5.41623
	c1.56882,0.00037,3.13763,0.00043,4.70645,0c0.09305-0.00003,0.18729,0.00384,0.27881-0.00922
	c0.11215-0.01599,0.17203-0.09641,0.17151-0.20572c-0.00055-0.10879-0.05948-0.18616-0.17239-0.20541
	c-0.05264-0.00897-0.10745-0.00668-0.16129-0.00671C9.56021,4.98883,8.75128,4.98892,7.94235,4.98892c0-0.00018,0-0.0004,0-0.00061
	c-0.21539,0-0.43079,0.00006-0.64618,0.00006c0-0.00171,0-0.00336,0-0.0051c-0.65466,0-1.29114-0.0036-1.92743,0.00604
	C5.35113,4.98959,5.33157,4.99652,5.31198,5.0076C5.24191,5.03421,5.19873,5.08649,5.18664,5.15826
	C5.17474,5.19928,5.17779,5.23926,5.19351,5.27463z M6.88559,6.30344c-0.48544,0.00012-0.97086-0.00168-1.45627,0.0014
	C5.4061,6.30496,5.38412,6.30743,5.36343,6.31168c-0.00302,0.00049-0.0061,0.00073-0.00909,0.00137
	C5.29236,6.32596,5.24658,6.3555,5.21777,6.39777C5.18414,6.44196,5.17129,6.49814,5.1857,6.55817
	c0.01291,0.08905,0.07132,0.15076,0.16971,0.16772C5.4176,6.7366,5.48242,6.73413,5.54605,6.73416
	c1.56882,0.00037,3.13763,0.00043,4.70645-0.00003c0.09305,0,0.18729,0.00388,0.27881-0.00919
	c0.11215-0.01599,0.17203-0.0964,0.17151-0.20572c-0.00055-0.10879-0.05948-0.18616-0.17239-0.20541
	c-0.05264-0.00897-0.10745-0.00668-0.16129-0.00671C9.56021,6.30673,8.75128,6.30685,7.94235,6.30685c0-0.00021,0-0.0004,0-0.00061
	c-0.21554,0-0.43109,0.00006-0.64667,0.00006c0-0.00098,0-0.00189,0-0.00287C7.14847,6.30344,7.01703,6.30341,6.88559,6.30344z
	 M2.25094,10.28607c0.10992,0.00903,0.39412,0.00369,0.50765,0.00369c0-0.48554,0-0.95056,0-1.418c-0.14017,0-0.3847,0-0.53194,0
	c0,0.45853-0.00137,0.8978,0.00333,1.33704C2.23028,10.23605,2.22296,10.28375,2.25094,10.28607z M2.22851,4.75989
	c0,0,0.51732,0.01233,0.53506,0.00241c0-0.45666,0-0.91824,0-1.38898c-0.14706,0-0.39507,0-0.53744,0
	c0,0.3638,0.00031,1.06607,0.00031,1.06607L2.22851,4.75989z M2.23517,6.14655c0,0,0,0.90369,0,1.37891
	c0.11029,0,0.53716,0.00137,0.53716,0.00137l0.00232-0.12686L2.77227,6.4758l0.00281-0.32871L2.23517,6.14655z M1.62124,2.90982
	h1.23843c0.07754,0.19632,0.26855,0.33539,0.49243,0.33539c0.29257,0,0.52972-0.23718,0.52972-0.52972
	c0-0.29257-0.23715-0.52975-0.52972-0.52975c-0.20908,0-0.38934,0.12146-0.4755,0.29736H1.62124
	c-0.10666,0-0.19309,0.08646-0.19309,0.19308v0.04056C1.42816,2.82339,1.51459,2.90982,1.62124,2.90982z M1.62124,5.65527h1.23843
	c0.07754,0.19632,0.26855,0.33539,0.49243,0.33539c0.29257,0,0.52972-0.23718,0.52972-0.52973
	c0-0.29257-0.23715-0.52975-0.52972-0.52975c-0.20908,0-0.38934,0.12146-0.4755,0.29736H1.62124
	c-0.10666,0-0.19309,0.08646-0.19309,0.19308v0.04056C1.42816,5.56885,1.51459,5.65527,1.62124,5.65527z M1.62124,8.34149h1.23843
	c0.07754,0.19629,0.26855,0.33539,0.49243,0.33539c0.29257,0,0.52972-0.23718,0.52972-0.52975
	c0-0.29257-0.23715-0.52973-0.52972-0.52973c-0.20908,0-0.38934,0.12143-0.4755,0.29736H1.62124
	c-0.10666,0-0.19309,0.08642-0.19309,0.19308v0.04056C1.42816,8.25504,1.51459,8.34149,1.62124,8.34149z M3.35211,11.50131
	c0.29257,0,0.52972-0.23715,0.52972-0.52973c0-0.29257-0.23715-0.52972-0.52972-0.52972c-0.20908,0-0.38934,0.12143-0.4755,0.29736
	H1.62124c-0.10666,0-0.19309,0.08642-0.19309,0.19308v0.04056c0,0.10663,0.08643,0.19308,0.19309,0.19308h1.23843
	C2.93722,11.36224,3.12823,11.50131,3.35211,11.50131z"/>
</svg>
