<?xml version="1.0" encoding="utf-8"?>

<!--
 ~   Copyright 2017, WSO2 Inc. (http://www.wso2.com)
 ~
 ~   Licensed under the Apache License, Version 2.0 (the "License");
 ~   you may not use this file except in compliance with the License.
 ~   You may obtain a copy of the License at
 ~
 ~        http://www.apache.org/licenses/LICENSE-2.0
 ~
 ~   Unless required by applicable law or agreed to in writing, software
 ~   distributed under the License is distributed on an "AS IS" BASIS,
 ~   WITHOUT WARRANTIES OR CONDITIONS OF ANY KIND, either express or implied.
 ~   See the License for the specific language governing permissions and
 ~   limitations under the License.
-->

<svg version="1.1" id="dollar" xmlns="http://www.w3.org/2000/svg" xmlns:xlink="http://www.w3.org/1999/xlink" x="0px" y="0px"
	 viewBox="0 0 14 14" style="enable-background:new 0 0 14 14;" xml:space="preserve">
<path d="M6.4202828,14v-1.7217951c-0.9886436-0.0180511-2.012001-0.3249197-2.6090753-0.7512026l0.4096205-1.1420784
	c0.6137366,0.408927,1.4996281,0.7338467,2.454947,0.7338467c1.2108107,0,2.0300517-0.6998272,2.0300517-1.6718082
	c0-0.9379616-0.6651125-1.5176787-1.9272995-2.0293574C5.038681,6.7358294,3.9639475,5.9513016,3.9639475,4.4676418
	c0-1.415621,1.0066946-2.4896603,2.5757501-2.7458467V0h1.0566821v1.6537565
	c1.0233579,0.0340194,1.7231841,0.3068683,2.2175059,0.5970742L9.3876019,3.376246
	C9.0293579,3.1714356,8.3295317,2.7965286,7.2381353,2.7965286c-1.3121743,0-1.8064961,0.7845278-1.8064961,1.4663031
	c0,0.8865857,0.6303992,1.3302255,2.1133647,1.9439621c1.7565088,0.7164893,2.6437883,1.603075,2.6437883,3.1207542
	c0,1.3468876-0.9386559,2.6090746-2.6937761,2.8992805V14H6.4202828z"/>
</svg>
