<?xml version="1.0" encoding="utf-8"?>

<!--
 * Copyright (c) 2015, WSO2 Inc. (http://www.wso2.org) All Rights Reserved.
 *
 * WSO2 Inc. licenses this file to you under the Apache License,
 * Version 2.0 (the "License"); you may not use this file except
 * in compliance with the License.
 * You may obtain a copy of the License at
 *
 * http://www.apache.org/licenses/LICENSE-2.0
 *
 * Unless required by applicable law or agreed to in writing,
 * software distributed under the License is distributed on an
 * "AS IS" BASIS, WITHOUT WARRANTIES OR CONDITIONS OF ANY
 * KIND, either express or implied. See the License for the
 * specific language governing permissions and limitations
 * under the License.
-->

<svg version="1.1" id="dots" xmlns="http://www.w3.org/2000/svg" xmlns:xlink="http://www.w3.org/1999/xlink" x="0px" y="0px"
	 viewBox="0 0 14 14" enable-background="new 0 0 14 14" xml:space="preserve">
<path d="M3.7,6.9c0,1.1-0.8,1.8-1.9,1.8S0,8,0,6.9s0.8-1.8,1.8-1.8S3.7,5.9,3.7,6.9z M7.1,5.1C6,5.1,5.2,5.9,5.2,6.9S6,8.7,7.1,8.7
	S8.8,8,8.8,6.9S8,5.1,7.1,5.1z M12.2,5.1c-1.1,0-1.8,0.7-1.8,1.8s0.7,1.8,1.8,1.8S14,8,14,6.9S13.2,5.1,12.2,5.1z"/>
</svg>
