<?xml version="1.0" encoding="utf-8"?>
<!-- Generator: Adobe Illustrator 19.1.0, SVG Export Plug-In . SVG Version: 6.00 Build 0)  -->
<svg version="1.1" id="download" xmlns="http://www.w3.org/2000/svg" xmlns:xlink="http://www.w3.org/1999/xlink" x="0px" y="0px"
	 viewBox="0 0 14 14" style="enable-background:new 0 0 14 14;" xml:space="preserve">
<path d="M11.4398041,7.939209l-4.4572754,4.4758911l-4.4216919-4.444519
	C2.2988739,7.7089233,2.3032684,7.2891235,2.5705414,7.0326538c0.2681274-0.2556763,0.6963501-0.25177,0.9578857,0.0094604
	L6.3227386,9.855835V0.6848145C6.3238983,0.314209,6.6233368,0.008606,6.9940033,0.0001221
	c0.369751-0.007019,0.6696777,0.2866821,0.670105,0.6563721l0.0119629,9.1660767l2.7952271-2.8118286
	c0.2628784-0.2612305,0.6906738-0.265564,0.9588013-0.0094604C11.6965179,7.2577515,11.7009125,7.6775513,11.4398041,7.939209z
	 M9.4632263,12.6454468l-7.1279297,0.0131836c-0.3696899,0.0003662-0.6633911,0.300354-0.6563721,0.6700439
	C1.6874084,13.6994019,1.9930115,13.9988403,2.3636169,14l3.395813-0.0042114V14l5.9052734-0.0131836
	c0.3696899-0.0003662,0.6633911-0.300354,0.6563721-0.6700439c-0.0084839-0.3707275-0.3140869-0.670166-0.6846924-0.6713257
	l-2.1731567,0.0042114V12.6454468z"/>
</svg>
