<?xml version="1.0" encoding="utf-8"?>
<!-- Generator: Adobe Illustrator 19.1.0, SVG Export Plug-In . SVG Version: 6.00 Build 0)  -->
<svg version="1.1" id="down" xmlns="http://www.w3.org/2000/svg" xmlns:xlink="http://www.w3.org/1999/xlink" x="0px" y="0px"
	 viewBox="0 0 14 14" style="enable-background:new 0 0 14 14;" xml:space="preserve">
<path d="M0.0797119,3.9964294c0.0309448,0.0612793,0.0638428,0.1223755,0.1154175,0.1738892l6.8064575,6.8006592
	l6.8068848-6.8006592c0.1312256-0.1314697,0.1948853-0.3028564,0.1924438-0.4734497
	c0-0.0009155,0.0005493-0.001709,0.0005493-0.0026245c0-0.3673706-0.2977905-0.6652222-0.6651611-0.6652222
	c-0.1843262,0-0.3508911,0.0751953-0.4713745,0.1962891c-0.0075684,0.006897-0.0176392,0.0092163-0.0249634,0.0165405
	L7.0015869,9.0760803L1.1627197,3.2418518C1.1110229,3.1902161,1.0491943,3.1566467,0.9869995,3.1251526
	C0.8898926,3.0697327,0.7835693,3.0295105,0.6637573,3.0295105c-0.3673706,0-0.6652222,0.2977905-0.6652222,0.6651611
	c0,0.0529785,0.0184326,0.0999146,0.0301514,0.149292c0.0079346,0.036377,0.0076294,0.0737915,0.0219727,0.1087036
	C0.0575562,3.9690857,0.0715942,3.9806824,0.0797119,3.9964294z"/>
</svg>
