<?xml version="1.0" encoding="utf-8"?>

<!--
 * Copyright (c) 2015, WSO2 Inc. (http://www.wso2.org) All Rights Reserved.
 *
 * WSO2 Inc. licenses this file to you under the Apache License,
 * Version 2.0 (the "License"); you may not use this file except
 * in compliance with the License.
 * You may obtain a copy of the License at
 *
 * http://www.apache.org/licenses/LICENSE-2.0
 *
 * Unless required by applicable law or agreed to in writing,
 * software distributed under the License is distributed on an
 * "AS IS" BASIS, WITHOUT WARRANTIES OR CONDITIONS OF ANY
 * KIND, either express or implied. See the License for the
 * specific language governing permissions and limitations
 * under the License.
-->

<svg version="1.1" id="down-arrow-2" xmlns="http://www.w3.org/2000/svg" xmlns:xlink="http://www.w3.org/1999/xlink" x="0px"
	 y="0px" viewBox="-413 291.28 14 14" style="enable-background:new -413 291.28 14 14;" xml:space="preserve">
<path d="M-406.00168,291.28c0.51089,0.05414,0.5036,0.33951,0.50305,0.68561c-0.00616,3.80453-0.00381,7.60907-0.00363,11.4136
	c0,0.05078,0,0.10156,0,0.18378c0.06021-0.05524,0.10132-0.09018,0.13934-0.1282c1.17111-1.1705,2.34042-2.34277,3.51572-3.509
	c0.08704-0.08636,0.2099-0.15884,0.32816-0.18665c0.21292-0.05005,0.41742,0.0712,0.51465,0.26382
	c0.09384,0.18591,0.06366,0.40222-0.08392,0.56271c-0.08075,0.08783-0.16776,0.16986-0.25214,0.25427
	c-1.41302,1.41306-2.82599,2.82611-4.23914,4.23898c-0.29434,0.29431-0.54782,0.29535-0.84387-0.00046
	c-1.47961-1.47852-2.9588-2.95743-4.43716-4.43716c-0.27097-0.27121-0.24622-0.64288,0.05017-0.82214
	c0.20706-0.12524,0.44327-0.09061,0.63663,0.10178c0.54819,0.5455,1.09415,1.09323,1.64096,1.64014
	c0.64221,0.6423,1.28433,1.2847,1.92667,1.92691c0.02527,0.02527,0.05215,0.04892,0.09802,0.0918
	c0.00375-0.06885,0.00873-0.11682,0.00873-0.16483c0.00018-3.79901-0.00003-7.59802-0.00018-11.397
	c0-0.01672-0.00146-0.04413-0.00266-0.06079C-406.52545,291.60727-406.46997,291.30203-406.00168,291.28z"/>
</svg>
