<?xml version="1.0" encoding="utf-8"?>
<!-- Generator: Adobe Illustrator 19.1.0, SVG Export Plug-In . SVG Version: 6.00 Build 0)  -->
<svg version="1.1" id="down-arrow" xmlns="http://www.w3.org/2000/svg" xmlns:xlink="http://www.w3.org/1999/xlink" x="0px" y="0px"
	 viewBox="0 0 14 14" style="enable-background:new 0 0 14 14;" xml:space="preserve">
<path d="M11.5973091,9.0175753c-0.1425924-0.282238-0.4424019-0.4287291-0.7314434-0.3622923
	c-0.144536,0.0341625-0.2929726,0.1171894-0.4052906,0.2285137c-0.8320093,0.8252058-1.6601639,1.6542988-2.488286,2.4824095
	l-0.2866106,0.2871084V9.9423637c-0.0004859-2.9477315,0.0007734-6.435051,0.0053129-9.1030302
	C7.6914773,0.5522367,7.7053833,0.001945,7.0269232,0.001945L7.0078597,0L6.9888401,0.0009722
	C6.7637396,0.0112113,6.5899,0.0839655,6.4722247,0.2162866C6.3027921,0.4067161,6.3160133,0.6003821,6.3145332,0.8788963
	L6.3126225,11.6533022L3.521136,8.8623018C3.2711399,8.615222,2.9410667,8.5673857,2.6583438,8.7373037
	C2.4762092,8.8476562,2.3575621,9.0263453,2.3336494,9.2275429c-0.026376,0.2197208,0.0585945,0.4453192,0.2334061,0.6201305
	l3.8852551,3.8857412C6.6324458,13.9130859,6.8111787,14,6.9986591,14c0.0004859,0,0.0004859,0,0.0009718,0
	c0.1875138,0,0.3657274-0.0869141,0.5449352-0.2665854l2.4746008-2.4746342l1.2831926-1.2822208
	c0.0625162-0.0605383,0.1240263-0.1220818,0.1816492-0.1845646C11.683219,9.5761499,11.7271671,9.271492,11.5973091,9.0175753z"/>
</svg>
