<?xml version="1.0" encoding="utf-8"?>
<!-- Generator: Adobe Illustrator 19.1.0, SVG Export Plug-In . SVG Version: 6.00 Build 0)  -->
<svg version="1.1" id="dss" xmlns="http://www.w3.org/2000/svg" xmlns:xlink="http://www.w3.org/1999/xlink" x="0px" y="0px"
	 viewBox="0 0 14 14" style="enable-background:new 0 0 14 14;" xml:space="preserve">
<style type="text/css">
	.st0{fill:#060507;}
</style>
<path class="st0" d="M7.6104903,9.6336393C7.6004233,9.499754,7.6386762,9.3628502,7.731288,9.2531252l0.3251476-0.3865538
	c0.1671047-0.1983089,0.4751396-0.2415953,0.6915693-0.099658l0.1318703,0.0875788
	C8.9845667,8.7890606,9.0942917,8.7316809,9.207036,8.682354l0.0050335-0.1540165
	C9.2201233,8.263588,9.426486,8.045146,9.6922417,8.0209856l0.5456038-0.0442924
	c0.2506561,0,0.4680929,0.1771708,0.5174189,0.4217863l0.0301991,0.1509972
	c0.0040264,0.0010071,0.0080538,0.0030203,0.0130854,0.0040264c0.398634-0.3120623,0.6301632-0.6684155,0.6301632-1.0489292
	v-1.58044c0-0.1832108-0.0573788-0.359374-0.1580429-0.5294981c-0.5566769,0.9643707-2.5981636,1.6811051-5.0372763,1.6811051
	c-2.4370992,0-4.4795914-0.7157278-5.0372763-1.6811051C1.0984728,5.5667739,1.0421004,5.7429371,1.0421004,5.9261475V7.506588
	c0,1.2190533,2.325361,2.2106028,5.1922998,2.2106028C6.7125587,9.7161846,7.1715908,9.6849775,7.6104903,9.6336393z
	 M7.5631776,10.4439917c0.0151-0.0050335,0.0301995-0.0110731,0.0463057-0.0140934l0.1731434-0.0352325
	c0.0130863-0.0563717,0.0332198-0.109725,0.050333-0.1650896c-0.1681104,0.0231524-0.3412542,0.0412731-0.5164108,0.0563717
	C7.4162068,10.3070879,7.5027795,10.3644667,7.5631776,10.4439917z M5.7361088,12.9616232L5.6585965,12.95961
	c-0.2093835-0.0070467-0.3805137-0.1701231-0.3976269-0.3785009l-0.0271792-0.3160877
	c-0.0171132-0.209384,0.1258311-0.3976278,0.3301811-0.438899l0.0593925-0.0120802
	c0.0090594-0.0352325,0.020133-0.0714722,0.0322127-0.1056976l-0.0463061-0.050333
	c-0.1439514-0.1509972-0.1509976-0.3865528-0.0151-0.547617l0.20435-0.2446156
	c0.1308646-0.1560307,0.373467-0.1902571,0.543591-0.0775118l0.0392594,0.0261726
	c0.0412726-0.0231524,0.0825453-0.0452995,0.1248245-0.0654316l0.0010066-0.0463057
	c0.0060401-0.1902571,0.1449575-0.3442745,0.3281679-0.3845406c-0.1983099,0.010067-0.3966198,0.0221472-0.6019764,0.0221472
	c-2.4370992,0-4.4795914-0.7157288-5.0372763-1.6811056C1.0994793,8.8283186,1.0421004,9.0054893,1.0421004,9.1886997v1.5814466
	c0,1.1485872,2.0626252,2.0887985,4.6960216,2.1955032C5.7371154,12.9636364,5.7361088,12.9626303,5.7361088,12.9616232z
	 M11.2877817,2.2367759c-0.1016712,0.8939049-2.3203278,1.609633-5.0533819,1.609633
	c-2.731041,0-4.949697-0.715728-5.0513692-1.609633c-0.0885853,0.1630771-0.140931,0.3321943-0.140931,0.5063448v1.5794339
	c0,1.2210665,2.3253613,2.2106032,5.1922998,2.2106032c2.8689523,0,5.1953187-0.9895368,5.1953187-2.2106032V2.7431207
	C11.4297199,2.5689704,11.3773746,2.3988464,11.2877817,2.2367759z M6.2344003,3.3450973
	c2.796473,0,5.0614352-0.7479408,5.0614352-1.673052C11.2958355,0.7479408,9.0308733,0,6.2344003,0
	C3.4399402,0,1.1739715,0.7489475,1.1739715,1.673052C1.1739713,2.5961499,3.4399402,3.3450973,6.2344003,3.3450973z
	 M7.7745752,10.6936407l0.0291929-0.0281858c0.0352325-0.0332193,0.0765057-0.0573797,0.119792-0.0754986l-0.273809,0.0553656
	c0.0010052,0.0010061,0.0010052,0.0010061-0.000001,0.0020132 M12.9145279,10.4812384
	c-0.0130854-0.1540174-0.139924-0.2758226-0.2949486-0.2788429l-0.3060207-0.010066
	c-0.0644264-0.1781778-0.149991-0.3472948-0.2556896-0.5033255l0.1671047-0.2516623
	c0.089592-0.1298571,0.0654316-0.3030014-0.0543594-0.4036665l-0.3855467-0.3251476
	c-0.1177778-0.100666-0.2939415-0.0956326-0.4056797,0.0110722l-0.2134104,0.1993179
	c-0.179184-0.0865726-0.3704472-0.1479778-0.56775-0.1832104l-0.0593929-0.2939415
	c-0.0301991-0.1520042-0.1711302-0.2566957-0.3251476-0.2446165L9.7113695,8.2404356
	C9.5573521,8.254529,9.4355469,8.3803606,9.4315205,8.5353842l-0.010066,0.298975
	C9.2291842,8.9038181,9.0469809,8.9994497,8.87887,9.1192417L8.6261997,8.9511299
	C8.4973488,8.8655643,8.3252115,8.8897247,8.2245474,9.0085096L7.8993993,9.3960695
	C7.7997408,9.5138474,7.8047733,9.6890039,7.9104724,9.8017492l0.2224689,0.2375698
	c-0.0765057,0.1721373-0.1308641,0.3543406-0.1630769,0.5405703c0.1298575-0.0372458,0.2778354-0.0171127,0.383533,0.0724783
	l0.2426033,0.2043505c0.1620703,0.1369047,0.1942835,0.3714542,0.0734854,0.5476179l-0.0251665,0.0382528
	c0.0171137,0.0322123,0.0342274,0.0644255,0.0493259,0.0976448l0.050333,0.0020132
	c0.209383,0.0070467,0.3805141,0.1691179,0.3976269,0.3785009l0.0271797,0.3160887
	c0.0171137,0.2103891-0.1248236,0.398633-0.3301811,0.438899l-0.0523453,0.010066
	c-0.010067,0.0372458-0.0221472,0.0734854-0.0352325,0.109725l0.0432854,0.0452995
	c0.1207981,0.1288519,0.1389179,0.3120623,0.0634193,0.4640665c0.0473118-0.0110731,0.0926113-0.0332193,0.1308641-0.069459
	l0.2506552-0.2365627c0.1650906,0.0775118,0.3382349,0.1338844,0.5174179,0.1681099l0.0684528,0.3442745
	c0.0301991,0.1520042,0.1711302,0.2566957,0.3251476,0.2446165l0.5023174-0.0432863
	c0.1540174-0.0140934,0.2758226-0.139924,0.2808561-0.2949486l0.0110722-0.3372288
	c0.1832113-0.0644255,0.3573608-0.1520042,0.5174179-0.2617292l0.2768288,0.1832104
	c0.1288519,0.0855656,0.3019953,0.0614052,0.4026594-0.0563726l0.3241405-0.3855467
	c0.1016722-0.1187849,0.0956326-0.2929354-0.010066-0.4056797l-0.2244825-0.2375698
	c0.0815392-0.1731434,0.1409311-0.3573599,0.1761637-0.5445976l0.3060217-0.0624123
	c0.1509972-0.0302,0.2566957-0.1701241,0.2436085-0.3251486L12.9145279,10.4812384z M10.2781124,11.9368544
	c-0.5425835,0.0473118-1.0217495-0.3583679-1.067049-0.8999453c-0.0452995-0.5435905,0.359374-1.0217505,0.9009523-1.0680552
	c0.5425835-0.0452995,1.0217495,0.358367,1.0670481,0.9009504C11.2253704,11.4133959,10.8206968,11.892561,10.2781124,11.9368544z
	 M8.4540634,11.0248289l-0.2426033-0.2043495c-0.0744925-0.0634193-0.1842165-0.0593929-0.2556887,0.0070467l-0.1338849,0.1258307
	c-0.1127453-0.0553656-0.2335429-0.0926113-0.3573599-0.1167717l-0.0382528-0.1842165
	c-0.0181193-0.0956316-0.1077123-0.1620703-0.20435-0.1540174l-0.3160882,0.0271807
	c-0.0976453,0.0080528-0.1741505,0.0875778-0.1771708,0.1862307l-0.0060396,0.1882439
	c-0.1218047,0.0432854-0.2365632,0.1036844-0.3412542,0.179184L6.221314,10.9734926
	c-0.0815387-0.0543594-0.1902571-0.039259-0.2526693,0.0352325L5.763288,11.2533407
	c-0.0624118,0.0744925-0.0603986,0.1842165,0.0070467,0.2546825l0.139924,0.149991
	c-0.0483189,0.109725-0.0835519,0.2244825-0.1026778,0.3422613l-0.2003231,0.0412731
	c-0.0956316,0.0191259-0.1620708,0.1077118-0.1540174,0.2043495l0.0271797,0.3160887
	c0.0080528,0.0976448,0.0875783,0.1731434,0.1852236,0.1771698l0.2164297,0.0060396
	c0.0392594,0.1036844,0.0905986,0.2013292,0.1530108,0.2919283l-0.1207981,0.1822033
	c-0.0533524,0.0815392-0.0382528,0.1902571,0.0362391,0.2536755l0.2426028,0.2043505
	c0.074492,0.0634184,0.1852236,0.059392,0.2556891-0.0060396l0.1590509-0.148984
	c0.1036849,0.0483198,0.2134094,0.0845585,0.3251481,0.1056976l0.0432863,0.2174358
	c0.0191264,0.0956326,0.1077118,0.1610641,0.20435,0.1540174l0.3160882-0.0271797
	c0.0966382-0.0080538,0.1741505-0.0875788,0.1771698-0.1862307l0.0060396-0.2134094
	c0.1157646-0.0412731,0.2254896-0.0956326,0.3261552-0.1650906l0.1751566,0.1157646
	c0.0815392,0.0543585,0.1902571,0.039259,0.2536755-0.0362396l0.2043505-0.2426033
	c0.0634184-0.0744925,0.0603991-0.1842165-0.0060396-0.2556887l-0.1409311-0.149991
	c0.0523453-0.1087179,0.089591-0.2254896,0.1107311-0.3432665l0.1922693-0.040266
	c0.0956326-0.0181198,0.1620712-0.1067047,0.1540174-0.2043505l-0.0271797-0.3160877
	c-0.0080538-0.0976458-0.0875788-0.1731443-0.1862307-0.1761646l-0.1922703-0.0060387
	c-0.040266-0.1127453-0.0936184-0.2184439-0.1620703-0.3170948l0.1046915-0.1580439
	C8.5436544,11.1969662,8.529562,11.0872421,8.4540634,11.0248289z M7.2601767,12.8549185
	c-0.3412542,0.0291929-0.6442561-0.2264967-0.6724424-0.5677509c-0.0291929-0.3422613,0.2264962-0.6432486,0.5677505-0.6724424
	c0.3422613-0.0291929,0.6442561,0.2254896,0.6724424,0.5677509C7.8571191,12.5247374,7.6024375,12.8267326,7.2601767,12.8549185z"/>
</svg>
