<?xml version="1.0" encoding="utf-8"?>
<!-- Generator: Adobe Illustrator 19.1.0, SVG Export Plug-In . SVG Version: 6.00 Build 0)  -->
<svg version="1.1" id="ebook" xmlns="http://www.w3.org/2000/svg" xmlns:xlink="http://www.w3.org/1999/xlink" x="0px" y="0px"
	 viewBox="0 0 14 14" style="enable-background:new 0 0 14 14;" xml:space="preserve">
<path d="M0.865097,2.3348236c0.3942871,0,0.818634-0.0062714,1.1835785,0.0030975
	c0.1460571,0.0037537,0.1894073-0.0457001,0.1847382-0.1872864C2.2243347,1.8748016,2.233429,1.5984344,2.2296906,1.3223724
	C2.2283478,1.2238312,2.2478027,1.1650391,2.3646393,1.1656952c1.5542603,0.0086517,2.9972382,0.3647919,4.2341614,1.358429
	c0.1432343,0.1150665,0.2560425,0.2639465,0.3861389,0.3910065c0.1334991-0.1271057,0.2715607-0.267334,0.4103851-0.3877716
	c0.6959686-0.603775,1.5276489-0.9294739,2.4052582-1.1530609c0.5797729-0.1477051,1.1704254-0.2158661,1.7703552-0.2121429
	c0.1627045,0.0010071,0.2094269,0.0527802,0.2028809,0.2099457c-0.0112152,0.2692261,0.0011139,0.5393372-0.0041962,0.8089294
	c-0.0023041,0.116806,0.0408325,0.1572113,0.1572571,0.1555939c0.3718872-0.0052032,0.7438965-0.0019379,1.149353-0.0019379
	c0,0.2841949-0.0024414,0.5573578,0.0006561,0.8304749c0.003418,0.3009033-0.0382538,0.2786865,0.2773743,0.2832031
	c0.3952942,0.0056458,0.643219,0.2748108,0.6440125,0.7060089c0.0023041,1.2329102,0.0012054,2.4658356,0.0012817,3.6987457
	c0.0000763,1.033844,0.001358,2.067688-0.0008545,3.1015167c-0.0007935,0.3735504-0.1691437,0.616394-0.4827271,0.6992798
	c-0.0789795,0.020874-2.9058075,0.0255585-4.2350311,0.0209808c-0.1389008-0.0004883-0.2389832,0.0362244-0.3391418,0.1351318
	c-0.6103668,0.6027222-0.4196014,0.5297241-1.3062286,0.5313721c-0.5650787,0.0010681-1.1302948-0.006897-1.6951904,0.0033569
	c-0.2425537,0.0043945-0.4520416-0.0543213-0.5941925-0.2498474c-0.2603149-0.3580627-0.6017761-0.4377136-1.0318146-0.4277802
	c-1.2001801,0.0277405-2.4013977,0.0109863-3.6022186,0.0093689c-0.4542694-0.0006256-0.7118225-0.2628632-0.7119141-0.7209473
	C-0.0002289,8.688797,0,6.4220276,0.0007172,4.1552734C0.0008698,3.7089996,0.259491,3.441391,0.7023621,3.4507599
	c0.1799622,0,0.1667328-0.0722504,0.1667328-0.2254028C0.8690948,2.9378052,0.865097,2.649704,0.865097,2.3348236z
	 M7.3196564,10.7471771c0.3395691-0.2728882,0.643158-0.550705,0.9795837-0.7804871
	c0.8095551-0.5529175,1.6955109-0.9305267,2.6780853-1.0399017c0.1883545-0.0209656,0.2419281-0.074646,0.2413025-0.2660828
	c-0.0073242-2.2406006-0.0047302-4.4812317-0.0052948-6.7218475c-0.0000305-0.0624084,0.0085449-0.1571503,0.0053101-0.2192535
	c-0.0300446-0.0083771-0.1960144,0.0104523-0.2532043,0.016449c-1.0001526,0.1047516-1.955719,0.360672-2.8043671,0.914917
	C7.8871002,2.8299103,7.6558075,3.0808563,7.428772,3.3213196c-0.0773926,0.0819702-0.1145325,0.2326355-0.1148834,0.352066
	c-0.0066223,2.2919312-0.0050812,4.5838776-0.0046692,6.8758087C7.3092346,10.6111603,7.3155975,10.6731262,7.3196564,10.7471771z
	 M6.6819153,10.7705383c0.0046234-0.0970306,0.0101471-0.1589355,0.0101624-0.2208557
	c0.000885-2.2080231-0.0083618-4.4161377,0.0105133-6.6240082C6.7060242,3.5244446,6.5691376,3.2341461,6.2861176,2.984848
	c-0.0817413-0.0720215-0.1647797-0.1434479-0.253067-0.2070465C5.3601227,2.2931366,4.5991058,2.0167389,3.7945557,1.8537292
	C3.4719543,1.7883606,3.1426239,1.7562408,2.7883148,1.7049255c0,0.1160889,0,0.1847534,0,0.2534332
	C2.7880859,4.1407623,2.7878876,6.3231659,2.7876434,8.5055542C2.7875977,8.8731689,2.7880096,8.8702393,3.1411285,8.9297028
	c1.0436401,0.1757507,1.9861908,0.5895386,2.8286133,1.226532C6.2084045,10.3367004,6.4244995,10.5470123,6.6819153,10.7705383z
	 M12.4366608,10.3813477c0-2.4733734,0-4.935318,0-7.4198608c-0.1381073,0-0.264801-0.000351-0.3914948,0.0000763
	c-0.2731171,0.0009613-0.2743073,0.0011292-0.2743378,0.2681885c-0.0001373,1.971756,0.0004425,6.1024323,0.0004425,6.2093506
	c-1.1310883-0.0166931-2.1488037,0.2447205-3.0328064,0.9422455C9.9672089,10.3813477,11.1959534,10.3813477,12.4366608,10.3813477z
	 M5.2613678,10.3778687c-0.887207-0.697464-1.9076538-0.9553375-3.0301971-0.9395294
	c0-0.0940857,0.0005646-5.5943146-0.0013123-6.2942963C2.22966,3.0672455,2.2594299,2.9634399,2.1239777,2.9628448
	c-0.1839142-0.000824-0.3678284-0.0002136-0.5583191-0.0002136c0,2.4869232,0,4.9485626,0,7.4152374
	C2.8067169,10.3778687,4.0340424,10.3778687,5.2613678,10.3778687z M6.2417145,4.4620361
	c-0.0437622,0-0.0875702-0.0164642-0.1212921-0.0494843C4.9669495,3.2833862,3.2649536,3.2620544,3.2478943,3.2619781
	c-0.0957031-0.000473-0.1730347-0.0783997-0.1726685-0.174118c0.0003815-0.09552,0.0778656-0.1727295,0.1733551-0.1727295
	c0.0001831,0,0.0003357,0,0.0005188,0c0.0752716,0.0002289,1.857666,0.0197449,3.1139221,1.2495575
	c0.0684509,0.0670013,0.0696259,0.1768036,0.0026245,0.2452393C6.331665,4.4446259,6.2866974,4.4620361,6.2417145,4.4620361z
	 M6.2417145,5.8847809c-0.0437622,0-0.0875702-0.0164642-0.1212921-0.0494843
	C4.9669495,4.706131,3.2649536,4.6848145,3.2478943,4.6847382c-0.0957031-0.000473-0.1730347-0.0783844-0.1726685-0.1741028
	c0.0003815-0.0955353,0.0778656-0.1727295,0.1733551-0.1727295c0.0001526,0,0.0003357,0,0.0005188,0
	c0.0752716,0.0002136,1.857666,0.0197144,3.1139221,1.249527c0.0684509,0.0670166,0.0696259,0.1768036,0.0026245,0.2452545
	C6.331665,5.8673859,6.2866974,5.8847809,6.2417145,5.8847809z M6.2417145,7.3075562
	c-0.0437622,0-0.0875702-0.016449-0.1212921-0.0494843C4.9669495,6.1289062,3.2649536,6.1075592,3.2478943,6.1074982
	c-0.0957031-0.000473-0.1730347-0.0783997-0.1726685-0.174118c0.0003815-0.09552,0.0778656-0.1727295,0.1733551-0.1727295
	c0.0001831,0,0.0003357,0,0.0005188,0c0.0752716,0.0002289,1.857666,0.0197296,3.1139221,1.2495575
	c0.0684509,0.0669861,0.0696259,0.1768036,0.0026245,0.245224C6.331665,7.2901306,6.2866974,7.3075562,6.2417145,7.3075562z
	 M6.2417145,8.7303009c-0.0437622,0-0.0875702-0.016449-0.1212921-0.0494843
	C4.9669495,7.551651,3.2649536,7.5303192,3.2478943,7.5302429C3.1521912,7.5297546,3.0748596,7.4518433,3.0752258,7.3561401
	c0.0003815-0.0955505,0.0778656-0.1727448,0.1733551-0.1727448c0.0001526,0,0.0003357,0,0.0005188,0
	c0.0752716,0.0002289,1.857666,0.0197296,3.1139221,1.2495575c0.0684509,0.0669861,0.0696259,0.1768036,0.0026245,0.245224
	C6.331665,8.7128754,6.2866974,8.7303009,6.2417145,8.7303009z M7.6842346,4.4099274
	C7.6172485,4.3414917,7.6184082,4.2316895,7.6868744,4.1646881c1.2562561-1.2298126,3.0386353-1.2493286,3.1139069-1.2495575
	c0.0001984,0,0.0003357,0,0.0005341,0c0.0954742,0,0.1729584,0.0772095,0.1733398,0.1727295
	c0.0003815,0.0957184-0.0769653,0.173645-0.1726685,0.174118c-0.0170441,0.0000763-1.7190399,0.0214081-2.8725128,1.1505737
	C7.895752,4.4455719,7.851944,4.4620361,7.8081665,4.4620361C7.7631989,4.4620361,7.7182159,4.4446259,7.6842346,4.4099274z
	 M7.6842346,5.8326874C7.6172485,5.7642365,7.6184082,5.6544495,7.6868744,5.5874329
	c1.2562561-1.2298126,3.0386353-1.2493134,3.1139069-1.249527c0.0001984,0,0.0003815,0,0.0005341,0
	c0.0954742,0,0.1729584,0.0771942,0.1733398,0.1727295c0.0003815,0.0957184-0.0769653,0.1736298-0.1726685,0.1741028
	C10.7849426,4.6848145,9.0829468,4.706131,7.9294739,5.8352966C7.895752,5.8683167,7.851944,5.8847809,7.8081665,5.8847809
	C7.7631989,5.8847809,7.7182159,5.8673859,7.6842346,5.8326874z M7.6842346,7.2554321
	c-0.0669861-0.0684204-0.0658264-0.1782379,0.0026398-0.245224c1.2562561-1.2298279,3.0386353-1.2493286,3.1139069-1.2495575
	c0.0001984,0,0.0003357,0,0.0005341,0c0.0954742,0,0.1729584,0.0772095,0.1733398,0.1727295
	c0.0003815,0.0957184-0.0769653,0.173645-0.1726685,0.174118c-0.0170441,0.000061-1.7190399,0.0214081-2.8725128,1.1505737
	C7.895752,7.2911072,7.851944,7.3075562,7.8081665,7.3075562C7.7631989,7.3075562,7.7182159,7.2901306,7.6842346,7.2554321z
	 M7.6842346,8.6781769C7.6172485,8.6097565,7.6184082,8.499939,7.6868744,8.4329529
	c1.2562561-1.2298279,3.0386353-1.2493286,3.1139069-1.2495575c0.0001984,0,0.0003815,0,0.0005341,0
	c0.0954742,0,0.1729584,0.0771942,0.1733398,0.1727448c0.0003815,0.0957031-0.0769653,0.1736145-0.1726685,0.1741028
	C10.7849426,7.5303192,9.0829468,7.551651,7.9294739,8.6808167C7.895752,8.7138519,7.851944,8.7303009,7.8081665,8.7303009
	C7.7631989,8.7303009,7.7182159,8.7128754,7.6842346,8.6781769z"/>
</svg>
