<?xml version="1.0" encoding="utf-8"?>

<!--
 * Copyright (c) 2015, WSO2 Inc. (http://www.wso2.org) All Rights Reserved.
 *
 * WSO2 Inc. licenses this file to you under the Apache License,
 * Version 2.0 (the "License"); you may not use this file except
 * in compliance with the License.
 * You may obtain a copy of the License at
 *
 * http://www.apache.org/licenses/LICENSE-2.0
 *
 * Unless required by applicable law or agreed to in writing,
 * software distributed under the License is distributed on an
 * "AS IS" BASIS, WITHOUT WARRANTIES OR CONDITIONS OF ANY
 * KIND, either express or implied. See the License for the
 * specific language governing permissions and limitations
 * under the License.
-->

<svg version="1.1" id="edit" xmlns="http://www.w3.org/2000/svg" xmlns:xlink="http://www.w3.org/1999/xlink" x="0px" y="0px"
	 viewBox="0 0 14 14" enable-background="new 0 0 14 14" xml:space="preserve">
<g>
	<path d="M4.4,12.8c-1.1-1.1-2.2-2.2-3.2-3.2c2.5-2.5,5-5,7.5-7.5c1.1,1.1,2.2,2.2,3.2,3.2C9.4,7.9,6.9,10.3,4.4,12.8z"/>
	<path d="M12.4,4.9c-1.1-1.1-2.2-2.2-3.3-3.3c0,0,0-0.1,0.1-0.1c0.4-0.4,0.8-0.8,1.3-1.3c0.3-0.3,0.7-0.3,1,0
		C12.2,1,13,1.8,13.8,2.5c0.3,0.3,0.3,0.7,0,1C13.3,3.9,12.9,4.4,12.4,4.9C12.5,4.8,12.4,4.8,12.4,4.9z"/>
	<path d="M0.2,14c1.2-0.2,2.5-0.4,3.7-0.6c-1.1-1.1-2.2-2.2-3.3-3.3c-0.2,1.2-0.4,2.4-0.6,3.7C0,13.8-0.1,14,0.2,14z"/>
</g>
</svg>
