<?xml version="1.0" encoding="utf-8"?>
<!-- Generator: Adobe Illustrator 19.1.0, SVG Export Plug-In . SVG Version: 6.00 Build 0)  -->
<svg version="1.1" id="edit" xmlns="http://www.w3.org/2000/svg" xmlns:xlink="http://www.w3.org/1999/xlink" x="0px" y="0px"
	 viewBox="0 0 14 14" style="enable-background:new 0 0 14 14;" xml:space="preserve">
<path d="M4.4044056,12.8034487c-1.100646-1.0980396-2.2012923-2.1960783-3.2018797-3.1942959
	c2.5014684-2.495544,4.9807644-5.0068727,7.482233-7.5024166c1.100646,1.0980392,2.223464,2.2118635,3.2240515,3.2100811
	C9.407342,7.9121828,6.9058743,10.3079052,4.4044056,12.8034487z M12.3509569,4.8605561
	C11.2503099,3.7625167,10.229187,2.747021,9.128541,1.6489818c0,0,0.0255747-0.0255239,0.1000586-0.0998218
	c0.4002352-0.399287,0.7904139-0.8119186,1.2793894-1.3232518c0.2930288-0.3064279,0.7004108-0.2994653,1.0005875,0
	c0.8452559,0.8354546,1.5443745,1.5225207,2.3013506,2.2958999c0.3001766,0.2994652,0.2226257,0.6213951-0.0775509,0.9208603
	c-0.3881054,0.3986287-0.7751932,0.7904849-1.1906252,1.2231283c-0.0438375,0.0456543-0.0882988,0.0914178-0.1335382,0.1372137
	C12.3892679,4.8221884,12.3701859,4.841372,12.3509569,4.8605561z M0.2019384,14.0013094
	c1.2007051-0.1996431,2.4554005-0.4452457,3.6561055-0.6448898c-1.100646-1.0980396-2.101922-2.0969439-3.2025681-3.1949825
	c-0.2001175,1.1978607-0.4535373,2.3425465-0.6536548,3.6402283C0.0018209,13.8016663-0.0330044,14.0013094,0.2019384,14.0013094z"
	/>
</svg>
