<?xml version="1.0" encoding="utf-8"?>
<!-- Generator: Adobe Illustrator 19.1.0, SVG Export Plug-In . SVG Version: 6.00 Build 0)  -->
<svg version="1.1" id="endpoint" xmlns="http://www.w3.org/2000/svg" xmlns:xlink="http://www.w3.org/1999/xlink" x="0px" y="0px"
	 viewBox="0 0 14 14" style="enable-background:new 0 0 14 14;" xml:space="preserve">
<g>
	<path d="M4.4719849,9.2130127H1.5770264c-0.1280518,0-0.243042,0.0709839-0.2910156,0.1889648
		C1.2369995,9.5200195,1.2639771,9.6530151,1.3530273,9.742981l0.6869507,0.6849976l-1.8179932,1.8170166
		C0.0800171,12.3880005,0,12.5800171,0,12.7810059s0.0800171,0.3939819,0.2219849,0.5360107l0.4500122,0.4500122
		c0.2969971,0.2959595,0.7769775,0.2959595,1.072998,0l1.8179932-1.8180542l0.6860352,0.6860352
		c0.0910034,0.0899658,0.2269897,0.1170044,0.3439941,0.0679932c0.117981-0.0479736,0.1950073-0.1630249,0.1950073-0.289978
		V9.5180054C4.7880249,9.3439941,4.6459961,9.2130127,4.4719849,9.2130127z"/>
	<path d="M2.039978,3.5739746L1.3540039,4.2600098C1.2639771,4.3499756,1.2369995,4.4899902,1.2860107,4.6079712
		c0.0490112,0.118042,0.1640015,0.2000122,0.2910156,0.2000122h2.8949585c0.1740112,0,0.31604-0.1499634,0.31604-0.3250122
		V1.5880127c0-0.1279907-0.0780029-0.2420044-0.1960449-0.2910156C4.4749756,1.2470093,4.3389893,1.2750244,4.2479858,1.3640137
		L3.5620117,2.0510254L1.7440186,0.2329712c-0.2960205-0.2959595-0.776001-0.2959595-1.072998,0L0.2219849,0.6829834
		C0.0800171,0.8250122,0,1.0180054,0,1.2189941s0.0800171,0.3939819,0.2219849,0.5369873L2.039978,3.5739746z"/>
	<path d="M9.5280151,4.8070068h2.8939819c0.1279907,0,0.242981-0.0820312,0.2910156-0.2000122
		c0.0479736-0.117981,0.0219727-0.2550049-0.0679932-0.3460083l-0.6860352-0.6870117l1.8179932-1.8189697
		C13.9190063,1.6129761,14,1.4199829,14,1.2180176c0-0.2020264-0.0800171-0.394043-0.2230225-0.5360107l-0.4499512-0.4500122
		c-0.2960205-0.2960205-0.776001-0.2960205-1.0720215,0l-1.8179932,1.8179932L9.7509766,1.3640137
		C9.6610107,1.2739868,9.5239868,1.2470093,9.4069824,1.2960205C9.2890015,1.3449707,9.2109985,1.460022,9.2109985,1.5869751
		v2.8950195C9.2109985,4.6560059,9.3540039,4.8070068,9.5280151,4.8070068z"/>
	<path d="M7,4.5805664C5.6660156,4.5805664,4.5805664,5.6660156,4.5805664,7S5.6660156,9.4189453,7,9.4189453
		S9.4189453,8.3339844,9.4189453,7S8.3339844,4.5805664,7,4.5805664z M7,8.2197266
		C6.3276367,8.2197266,5.7807617,7.6723633,5.7807617,7S6.3276367,5.7807617,7,5.7807617S8.2197266,6.3276367,8.2197266,7
		S7.6723633,8.2197266,7,8.2197266z"/>
	<path d="M11.9589844,10.427002l0.6860352-0.6859741c0.0899658-0.0900269,0.1159668-0.2210083,0.0679932-0.3380127
		c-0.0480347-0.118042-0.1630249-0.1890259-0.2910156-0.1890259H9.5280151c-0.1740112,0-0.31604,0.1309814-0.31604,0.3049927
		v2.8950195c0,0.1270142,0.0780029,0.2420044,0.1960449,0.2910156c0.117981,0.0479736,0.2539673,0.0219727,0.3439941-0.0690308
		l0.6870117-0.6859741l1.8179932,1.8179932c0.2959595,0.2969971,0.776001,0.2969971,1.0719604,0l0.4500122-0.4500122
		C13.9199829,13.1749878,14,12.9819946,14,12.7810059s-0.0800171-0.3939819-0.2230225-0.5360107L11.9589844,10.427002z"/>
</g>
</svg>
