<?xml version="1.0" encoding="utf-8"?>

<!--
 * Copyright (c) 2015, WSO2 Inc. (http://www.wso2.org) All Rights Reserved.
 *
 * WSO2 Inc. licenses this file to you under the Apache License,
 * Version 2.0 (the "License"); you may not use this file except
 * in compliance with the License.
 * You may obtain a copy of the License at
 *
 * http://www.apache.org/licenses/LICENSE-2.0
 *
 * Unless required by applicable law or agreed to in writing,
 * software distributed under the License is distributed on an
 * "AS IS" BASIS, WITHOUT WARRANTIES OR CONDITIONS OF ANY
 * KIND, either express or implied. See the License for the
 * specific language governing permissions and limitations
 * under the License.
-->

<svg version="1.1" xmlns="http://www.w3.org/2000/svg" xmlns:xlink="http://www.w3.org/1999/xlink" x="0px" y="0px"
	 viewBox="-413 291.28 14 14" style="enable-background:new -413 291.28 14 14;" xml:space="preserve">
<g id="enterprise-wipe">
</g>
<g id="Layer_2">
	<g>
		<path d="M-401.54999,296.29001c0.35999,0,0.69,0,1.02997,0c0-0.35999,0-0.67999,0-1.04004c-0.37,0-0.69,0-1.02997,0
			C-401.54999,295.62003-401.54999,295.94998-401.54999,296.29001z"/>
		<path d="M-400.53003,297.68997c-0.37,0-0.68994,0-1,0c0,0.37006,0,0.70001,0,1.02002c0.36005,0,0.67004,0,1,0
			C-400.53003,298.35001-400.53003,298.04001-400.53003,297.68997z"/>
		<path d="M-400.53003,300.12003c-0.37,0-0.66998,0-1.00995,0c0,0.34998,0,0.69,0,1.02997c0.34998,0,0.67999,0,1.00995,0
			C-400.53003,300.79001-400.53003,300.47-400.53003,300.12003z"/>
		<path d="M-401.53998,303.56003c0.16998,0,0.33997,0,0.5,0c0.16998,0,0.33997,0,0.50995,0c0-0.36005,0-0.68005,0-1.02002
			c-0.34998,0-0.66998,0-1.00995,0C-401.53998,302.89999-401.53998,303.23001-401.53998,303.56003z"/>
		<path d="M-401.53998,292.81003c0,0.34998,0,0.68994,0,1.03998c0.33997,0,0.64996,0,1,0c0-0.37,0-0.70001,0-1.03998
			C-400.89001,292.81003-401.21002,292.81003-401.53998,292.81003z"/>
		<path d="M-402.78003,292.81003c-0.35999,0-0.68994,0-1.03998,0c0,0.34998,0,0.66998,0,1.02997c0.38,0,0.70001,0,1.03998,0
			C-402.78003,293.47-402.78003,293.14999-402.78003,292.81003z"/>
		<path d="M-403.82001,296.29001c0.35999,0,0.69,0,1.03003,0c0-0.35999,0-0.69,0-1.04004c-0.36005,0-0.67999,0-1.03003,0
			C-403.82001,295.61002-403.82001,295.93002-403.82001,296.29001z"/>
		<path d="M-403.82001,300.24002c0.22003,0.04999,0.35999,0.14996,0.42999,0.29999c0.10004,0.21997-0.01996,0.45996-0.01996,0.46997
			c-0.02002,0.05005-0.04004,0.09003-0.07001,0.14001c0.22998,0,0.45996,0,0.69,0c0-0.35999,0-0.69,0-1.03998
			c-0.35004,0-0.67004,0-1.03003,0C-403.82001,300.14999-403.82001,300.19998-403.82001,300.24002z"/>
		<path d="M-402.79999,298.70999c0-0.35999,0-0.69,0-1.02997c-0.35004,0-0.66998,0-1.01001,0c0,0.38,0,0.69995,0,1.02997
			C-403.46002,298.70999-403.13,298.70999-402.79999,298.70999z"/>
		<path d="M-405.03998,292.81003c-0.36005,0-0.69,0-1.03003,0c0,0.35999,0,0.68994,0,1.03998c0.35004,0,0.66998,0,1.03003,0
			C-405.03998,293.47-405.03998,293.14999-405.03998,292.81003z"/>
		<path d="M-405.03998,303.42001c-0.05005,0.04999-0.10004,0.10999-0.15002,0.15997c0.04999,0,0.09998,0,0.15002,0
			C-405.03998,303.53-405.03998,303.47-405.03998,303.42001z"/>
		<path d="M-406.06,298.72c0.34998,0,0.66998,0,1.02002,0c0-0.35999,0-0.69,0-1.03003c-0.36005,0-0.70001,0-1.02002,0
			C-406.06,298.05002-406.06,298.37997-406.06,298.72z"/>
		<path d="M-406.07001,296.30002c0.35999,0,0.67999,0,1.02002,0c0-0.36005,0-0.71002,0-1.06c-0.35999,0-0.67999,0-1.02002,0
			C-406.07001,295.60001-406.07001,295.93997-406.07001,296.30002z"/>
		<path d="M-399.59003,291.28c-2.45996,0.02002-4.91998,0.01001-7.37994,0.01001c-0.57001,0-0.62006,0.04999-0.62006,0.60999
			c0,2.10999,0,4.21002,0,6.32001l0.20001,0.15002l-0.04999,0.04999l-0.15002,0.15997V298.59c0,0.16998,0,0.34998,0,0.52002
			l0.53003-0.59003l0.03998,0.04004c0.03003,0.01996,0.06,0.04999,0.09003,0.06995c0-2.03998,0-4.06995-0.02002-6.10999
			c0-0.48999,0.15002-0.58997,0.60999-0.58997c2.04004,0.02997,4.08002,0.01996,6.12006,0.01996h0.52997v9.98999
			c-0.01001,0.75,0,0.55005,0,2.12006V304.59l-0.01001,0.03003h-3.07001V302.53h-1.04999v2.09003h-2.58002
			c-0.48999,0.35999-0.83997,0.56-0.84998,0.56c-0.03003,0.02997-0.07001,0.04999-0.09998,0.06
			C-407.25,305.26999-407.12,305.28-406.94,305.28c0.14001,0,0.28998,0,0.42999,0h2.69h1.04999h1.81h1.29004
			c0.01001,0,0.02997,0,0.04999,0c0.44,0.02997,0.59998-0.14001,0.59998-0.59003l0.01001-11.59998
			c0.02002-0.40002-0.02002-0.81,0.01001-1.21002C-398.96997,291.43997-399.14001,291.28-399.59003,291.28z"/>
		<path d="M-406.59998,304.62003c0,0,0,0,0.00995,0c0.35004-0.25,0.78003-0.60004,1.23004-1.04004
			c0.10999-0.09998,0.20996-0.20996,0.32001-0.32001v-0.01001c0.53998-0.56995,1.07001-1.27997,1.44-2.09998
			c0.02997-0.06,0.06-0.12,0.08997-0.19c0,0,0.10004-0.20001,0.02002-0.38c-0.04999-0.09998-0.16003-0.17999-0.33002-0.22998
			c-0.01001,0-0.02002-0.01001-0.02997-0.01001h-0.01001c-0.09003-0.03998-2.10999-0.83002-3.07001-1.57001
			c-0.03998-0.02997-0.08002-0.07001-0.12-0.09998l-0.54004,0.59998l-2.23999,2.48999c0.19,0.27002,1.40002,1.97003,1.91003,2.97003
			c0,0.01001,0.10999,0.35999,0.32001,0.42999c0.02997,0.01001,0.06995,0.02002,0.09998,0.01001c0.06,0,0.13-0.03003,0.19-0.08002
			C-407.29999,305.07999-407.02002,304.93002-406.59998,304.62003z M-407.53003,304.68002
			c-0.00995-0.03003-0.02997-0.08002-0.06-0.13c-0.33997-0.67999-1.67999-2.72003-1.69995-2.73999l-0.02002-0.04004l0.02997-0.02997
			l1.69-1.84003l0.60004-0.65997l0.03998,0.02997c0.01001,0,0.01001,0.01001,0.02002,0.01001
			c0.22998,0.15002,0.94,0.51001,1.60999,0.84003h0.01001c0.09003,0.03998,0.17999,0.08997,0.27002,0.12994
			c0.50995,0.24005,0.94995,0.45001,1.04999,0.49005l0.02997-0.02002l0.03003,0.06c0.01001,0.03003,0.02997,0.06-0.28003,0.64001
			l-0.00995,0.02997H-404.25c-0.01001,0-0.02002,0.01001-0.03998,0.01001c-0.17999,0-0.48004-0.14001-0.75-0.29999
			c-0.01001,0-0.01001,0-0.02002,0c-0.22998-0.14001-0.42999-0.27002-0.5-0.32001c-0.06,0.01001-0.07001,0.03003-0.07001,0.03003
			c0,0.00995,0.02002,0.02997,0.03998,0.04999l0.01001,0.01996c0.01001,0.03003,0.08002,0.11005,0.17004,0.22003h0.00995
			c0.21002,0.22998,0.56,0.58002,0.80005,0.82001l0.03998,0.02997l-0.03003,0.04004l-0.44995,0.60999l-0.07001,0.08997
			l-0.04004-0.00995c-0.13-0.04004-0.26996-0.11005-0.41998-0.19c0,0,0,0-0.01001,0c-0.41998-0.23999-0.83997-0.58002-0.90997-0.63
			c-0.07001-0.02002-0.10004-0.01001-0.10999-0.01001c-0.01001,0.02002,0,0.07001,0.02997,0.10999l0.51001,0.58002l0.23999,0.27002
			c0.14001,0.16998,0.22003,0.37,0.22003,0.37994l0.01996,0.03003l-0.02997,0.03003l-0.29999,0.26996l-0.36005,0.33002
			l-0.03998-0.02002c-0.08002-0.03998-0.35999-0.26996-0.62-0.47998c-0.22003-0.17999-0.41998-0.34998-0.47003-0.39001
			c-0.13995-0.03998-0.16998-0.01001-0.16998-0.01001c-0.01001,0.02002,0.02002,0.09003,0.06,0.14001
			c0.16998,0.15002,0.41998,0.57001,0.57001,0.84003c0.09003,0.13995,0.14001,0.25,0.15002,0.25995l0.01996,0.05005
			l-0.14996,0.08997l-0.58002,0.35004L-407.53003,304.68002z"/>
		<path d="M-407.56,298.38998l-0.03003-0.01996l-0.54999-0.42004c-0.02997-0.02997-0.52997-0.34998-0.85999,0.01001
			l-0.59003,0.65002l-2.69995-2.45001c-0.03003-0.01001-0.07001-0.03003-0.09003-0.03003s-0.04999,0.01001-0.08002,0.02002
			l-0.02997,0.01001L-412.88,296.59c-0.02002,0.03003-0.02002,0.09998,0.02002,0.14001l2.70996,2.46997l-0.47998,0.54999
			c-0.02002,0.01001-0.37,0.43005-0.03998,0.95001l0.44,0.59003l2.63995-2.87L-407.56,298.38998z"/>
	</g>
</g>
</svg>
