<?xml version="1.0" encoding="utf-8"?>
<!-- Generator: Adobe Illustrator 19.1.0, SVG Export Plug-In . SVG Version: 6.00 Build 0)  -->
<svg version="1.1" id="enterprise-app" xmlns="http://www.w3.org/2000/svg" xmlns:xlink="http://www.w3.org/1999/xlink" x="0px"
	 y="0px" viewBox="0 0 14 14" style="enable-background:new 0 0 14 14;" xml:space="preserve">
<path d="M5.2250366,8.8499756h1.1599731v1.1599731H5.2250366V8.8499756z M6.3850098,6.4233398H5.2250366V7.583313h1.1599731
	V6.4233398z M6.3850098,3.9966431H5.2250366v1.1599731h1.1599731V3.9966431z M7.5900269,13.1599731L7.2299805,13H6.5900269
	c-0.0500488,0-0.1100464,0-0.1700439,0c0-0.2399902,0-0.3900146,0-0.539978l-0.0042725-1.2000122
	c-0.3200073,0-0.9057007,0-1.18573,0c0,0.6799927,0,1.0499878,0,1.7399902c-0.1749878,0.0057983-2.3630981-0.0053101-3.2338867,0
	c0,0-0.00177-0.0235596,0.0039062-0.2589722c0.0166016-0.6900635,0.0100098-1.3210449,0.0100098-2.0010376
	C2.0100098,7.539978,2.039978,4.2000122,2.0200195,1c0-0.0002441-0.000061-0.0002441-0.000061-0.0004883
	C2.0214844,0.9995117,2.0219727,1,2.0235596,1c2.3101807,0,4.9864502,0,7.2964478,0C9.5,1,9.4299927,1,9.6500244,1
	c0,1.3599854-0.0100098,3.5999756-0.0100098,5.289978l0.5299683-0.2199707
	C10.25,6.039978,10.3200073,6.0200195,10.4000244,6.0200195c0.0799561,0,0.1599731,0.0199585,0.2299805,0.0499878h0.0100098
	c0.0100098,0,0.0100098,0,0.0100098,0V0.5599976C10.6500244,0.2000122,10.3599854,0,10.0100098,0
	C7.2299805,0.0200195,4.5,0.0100098,1.6599731,0.0100098c-0.4400024,0-0.6999512,0.1900024-0.6999512,0.6099854
	c0,2.1099854,0,4.2600098,0,6.3699951c0,2.1300049,0,4.25,0,6.3800049C0.960022,13.9400024,1.0300293,14,1.7000122,14
	c1.6300049,0,3.2600098,0,4.8900146,0h1c0.6299438,0,1.2599487,0,1.8899536,0l-0.2799683-0.1300049L7.5900269,13.1599731z
	 M7.7999878,7.039978l1.1500244-0.4699707c0-0.0499878,0-0.1000366,0-0.1500244c-0.4000244,0-0.7600098,0-1.1500244,0
	C7.7999878,6.6400146,7.7999878,6.8400269,7.7999878,7.039978z M8.960022,4H7.8000488v1.1599731H8.960022V4z M8.960022,1.5700073
	H7.8000488v1.1599731H8.960022V1.5700073z M6.3850098,1.5700073H5.2250366v1.1599731h1.1599731V1.5700073z M3.8499756,3.9974976
	H2.6900024v1.1599731h1.1599731V3.9974976z M3.8499756,1.5700073H2.6900024v1.1599731h1.1599731V1.5700073z M3.8499756,6.4249878
	H2.6900024v1.1599731h1.1599731V6.4249878z M3.8499756,8.8525391H2.6900024v1.1599731h1.1599731V8.8525391z M2.6900024,12.4400024
	h1.1599731v-1.1599731H2.6900024V12.4400024z M13.8709717,7.7379303l-3.402359-1.3900757
	c-0.0636749-0.0263519-0.1404114-0.0260925-0.2009583-0.0002594l-3.2366333,1.266098
	C6.9268799,7.6567535,6.8582458,7.7627258,6.8603363,7.8773041c0.0020905,0.1156158,0.0712433,0.2163696,0.1777344,0.2573395
	l3.5344238,1.2822723c0.0587311,0.0190582,0.1221466,0.0177612,0.1785278-0.0046844l2.6517334-1.0155487v3.5707092
	l-2.8193054,1.2057953l-0.0002594-3.5046692c0-0.1169128-0.0717621-0.2221069-0.179306-0.2620392l-3.3457184-1.190918
	C6.975174,8.1847534,6.8796539,8.1980591,6.809433,8.2492218C6.7371368,8.3006439,6.6938171,8.3859863,6.6938171,8.4773407
	L6.6935577,12.225769c0,0.1117249,0.0644684,0.2124634,0.1652069,0.2568359l3.345993,1.4135437
	c0.0326233,0.0146179,0.0699463,0.0224609,0.1075287,0.0224609c0.0349731,0,0.0702057-0.0068054,0.1017914-0.0203552
	l3.4610748-1.4360046c0.1017914-0.0443726,0.1675568-0.1456604,0.1675568-0.2578735V7.9971008
	C14.0427094,7.8835602,13.9738159,7.7794342,13.8709717,7.7379303z M12.8175964,7.9864044l-2.1639252,0.8179626L8.0434265,7.8616486
	l2.2745972-0.9046173L12.8175964,7.9864044z M9.9432373,13.1042786L7.333786,11.9903564l0.0002594-3.0121765l2.6089325,0.9865723
	L9.9432373,13.1042786z"/>
</svg>
