<?xml version="1.0" encoding="utf-8"?>
<!-- Generator: Adobe Illustrator 19.1.0, SVG Export Plug-In . SVG Version: 6.00 Build 0)  -->
<svg version="1.1" id="enterprise-wipe" xmlns="http://www.w3.org/2000/svg" xmlns:xlink="http://www.w3.org/1999/xlink" x="0px"
	 y="0px" viewBox="0 0 14 14" style="enable-background:new 0 0 14 14;" xml:space="preserve">
<g>
	<rect x="11.1099854" y="1.5700073" width="1.1600342" height="1.1599731"/>
	<rect x="11.1099854" y="4" width="1.1600342" height="1.1599731"/>
	<rect x="11.1099854" y="6.4199829" width="1.1600342" height="1.1600342"/>
	<rect x="11.1099854" y="8.8499756" width="1.1600342" height="1.1600342"/>
	<rect x="11.1099854" y="11.2800293" width="1.1600342" height="1.1599731"/>
	<rect x="8.5800171" y="1.5700073" width="1.1499634" height="1.1599731"/>
	<rect x="8.5800171" y="4" width="1.1499634" height="1.1599731"/>
	<rect x="8.5800171" y="6.4199829" width="1.1499634" height="1.1600342"/>
	<path d="M13.2999878,0.0100098C10.460022,0.0100098,7.7299805,0.0200195,4.9500122,0
		C4.5999756,0,4.3099976,0.2000122,4.3099976,0.5599976v5.5100098c0.3300171,0.0100098,0.6099854,0.1599731,0.75,0.2600098
		l0.2600098,0.2000122c0-1.6800537-0.0100098-4.1800537-0.0100098-5.5300293C5.5300293,1,5.460022,1,5.6400146,1
		c2.3099976,0,4.9899902,0,7.2999878,0c0,0.7999878-0.0100098,1.6099854-0.0100098,2.4199829
		c0,2.4400024,0.0200195,4.9200439,0.0200195,7.3200073c0,0.6799927-0.0100098,1.3099976,0.0100098,2
		c0.0099487,0.2399902,0,0.2600098,0,0.2600098c-0.8699951-0.0100098-3.0500488,0.0100098-3.2300415,0
		c0-0.6900024,0-1.0599976,0-1.7399902c-0.1499634,0-0.3800049,0-0.6199951,0C8.9400024,11.5100098,8.75,11.7600098,8.539978,12
		v0.460022c0,0.1499634,0,0.2999878,0,0.539978c-0.0599976,0-0.1199951,0-0.1699829,0H7.7299805l-0.3099976,0.1400146
		c-0.3299561,0.289978-0.6199951,0.5100098-0.8299561,0.6599731l-0.1100464,0.0800171
		C6.4199829,13.9199829,6.3599854,13.960022,6.3099976,14c0.3499756,0,0.710022,0,1.0599976,0h1C10,14,11.6300049,14,13.2600098,14
		C13.9299927,14,14,13.9400024,14,13.3699951c0-2.1300049,0-4.25,0-6.3800049c0-2.1099854,0-4.2600098,0-6.3699951
		C14,0.2000122,13.7399902,0.0100098,13.2999878,0.0100098z"/>
	<path d="M6.0100098,6.4199829c0,0.0100098,0,0.0300293,0,0.0400391v0.1099854v0.3800049l0.1300049,0.0999756
		c0.0299683,0.0200195,0.0599976,0.0499878,0.1300049,0.1000366C6.460022,7.2999878,6.710022,7.4500122,7.0100098,7.6199951
		h0.1599731V6.460022H7.1599731c0-0.0100098,0-0.0300293,0-0.0400391C6.7700195,6.4199829,6.4099731,6.4199829,6.0100098,6.4199829z
		"/>
	<rect x="6" y="4" width="1.1599731" height="1.1599731"/>
	<rect x="6" y="1.5700073" width="1.1599731" height="1.1599731"/>
	<path d="M7.8499756,12.039978v-0.0099487C8.3900146,11.460022,8.9199829,10.75,9.289978,9.9299927
		c0.0300293-0.0599976,0.0599976-0.1199951,0.0900269-0.1900024c0,0,0.0999756-0.2000122,0.0200195-0.3800049
		C9.3499756,9.2600098,9.2399902,9.1799927,9.0700073,9.1300049c-0.0100098,0-0.0200195-0.0100098-0.0300293-0.0100098H9.0300293
		c-0.0900269-0.039978-1.9800415-0.7799683-2.9700317-1.5c-0.0100098,0-0.0100098,0-0.0100098,0
		c-0.0199585-0.0100098-0.0299683-0.0200195-0.039978-0.0299683C5.9899902,7.5700073,5.9799805,7.5599976,5.960022,7.5499878
		C5.9199829,7.5200195,5.8800049,7.4799805,5.8400269,7.4500122L5.2999878,8.0499878L3.0599976,10.539978
		C3.25,10.8099976,4.460022,12.5100098,4.9699707,13.5100098c0,0.0100098,0.1100464,0.3599854,0.3200073,0.4299927
		c0.0300293,0,0.0500488,0.0100098,0.0800171,0.0100098c0.0100098,0,0.0200195,0,0.0200195,0
		c0.0599976,0,0.1300049-0.0300293,0.1900024-0.0800171c0.0100098-0.0100098,0.289978-0.1599731,0.7099609-0.4699707
		c0,0,0,0,0.0100098,0c0.3500366-0.25,0.7800293-0.6000366,1.2300415-1.0400391
		C7.6400146,12.2600098,7.7399902,12.1500244,7.8499756,12.039978z M7.3099976,11.3300171
		C6.8900146,11.0900269,6.4699707,10.75,6.4000244,10.7000122c-0.0300293-0.0100098-0.0599976-0.0100098-0.0700073-0.0100098
		c-0.0200195,0-0.0300293,0-0.0400391,0c-0.0099487,0.0200195,0,0.0700073,0.0300293,0.1099854l0.5100098,0.5800171
		l0.2399902,0.2700195c0.1400146,0.1699829,0.2199707,0.3699951,0.2199707,0.3800049l0.0200195,0.0299683l-0.0299683,0.0300293
		l-0.3000488,0.2699585l-0.3599854,0.3300171l-0.039978-0.0200195C6.5,12.6300049,6.2199707,12.4000244,5.960022,12.1900024
		c-0.2200317-0.1799927-0.4200439-0.3499756-0.4700317-0.3900146c-0.0499878-0.0199585-0.0899658-0.0199585-0.1199951-0.0199585
		c-0.0299683,0-0.0499878,0.0099487-0.0499878,0.0099487c-0.0100098,0.0200195,0.0200195,0.0900269,0.0599976,0.1400146
		C5.5499878,12.0800171,5.7999878,12.5,5.9500122,12.7700195c0.0899658,0.1399536,0.1400146,0.25,0.1499634,0.2600098
		l0.0200195,0.0499878l-0.1500244,0.0899658l-0.5799561,0.3500366L5.3599854,13.460022
		c-0.0100098-0.0300293-0.0299683-0.0800171-0.0599976-0.1300049c-0.3399658-0.6799927-1.6799927-2.7200317-1.7000122-2.7399902
		l-0.0199585-0.0400391l0.0299683-0.0299683l1.6900024-1.8400269l0.6000366-0.6599731l0.039978,0.0299683
		c0.0100098,0,0.0100098,0.0100098,0.0200195,0.0100098C6.1900024,8.210022,6.9000244,8.5700073,7.5700073,8.9000244h0.0100098
		c0.0899658,0.039978,0.1799927,0.0899658,0.2699585,0.1300049c0.5100098,0.2399902,0.9500122,0.4499512,1.0500488,0.4899902
		L8.9299927,9.5L8.960022,9.5599976c0.0099487,0.0300293,0.0299683,0.0599976-0.2800293,0.6400146l-0.0100098,0.0299683H8.6400146
		c-0.0100098,0-0.0200195,0.0100098-0.0400391,0.0100098c-0.1799927,0-0.4799805-0.1400146-0.75-0.2999878
		c-0.0099487,0-0.0099487,0-0.0199585,0c-0.2300415-0.1400146-0.4299927-0.2700195-0.5-0.3200073
		C7.2700195,9.6300049,7.2600098,9.6500244,7.2600098,9.6500244c0,0.0099487,0.0200195,0.0299683,0.039978,0.0499878
		l0.0100098,0.0199585C7.3200073,9.75,7.3900146,9.8300171,7.4799805,9.9400024h0.0100098
		c0.210022,0.2299805,0.5599976,0.5800171,0.7999878,0.8200073l0.0400391,0.0299683l-0.0300293,0.0400391l-0.4500122,0.6099854
		l-0.0699463,0.0900269l-0.0400391-0.0100098c-0.1300049-0.0400391-0.2700195-0.1100464-0.4199829-0.1900024
		C7.3200073,11.3300171,7.3200073,11.3300171,7.3099976,11.3300171z"/>
	<path d="M5.3300171,7.1699829L5.2999878,7.1500244L4.75,6.7299805C4.7399902,6.710022,4.5200195,6.5700073,4.2800293,6.5700073
		c-0.1300049,0-0.2700195,0.039978-0.3900146,0.1699829L3.2999878,7.3900146L0.5999756,4.9400024
		C0.5700073,4.9299927,0.5300293,4.9099731,0.5100098,4.9099731S0.460022,4.9199829,0.4299927,4.9299927L0.4000244,4.9400024
		L0.0100098,5.3699951c-0.0200195,0.0300293-0.0200195,0.0999756,0.0200195,0.1400146l2.7099609,2.4699707L2.2600098,8.5300293
		C2.2399902,8.539978,1.8900146,8.960022,2.2199707,9.4799805l0.4400024,0.5900269l2.6400146-2.8699951L5.3300171,7.1699829z"/>
</g>
</svg>
