<?xml version="1.0" encoding="utf-8"?>
<!-- Generator: Adobe Illustrator 19.2.0, SVG Export Plug-In . SVG Version: 6.00 Build 0)  -->
<svg version="1.1" id="expand" xmlns="http://www.w3.org/2000/svg" xmlns:xlink="http://www.w3.org/1999/xlink" x="0px" y="0px"
	 viewBox="0 0 14 14" style="enable-background:new 0 0 14 14;" xml:space="preserve">
<path d="M14,0v14c-1.6974487,0.0123291-5.2752075,0.0061646-6.9726562,0.0030518l-0.0037842-1.3239746
	c0,0,4.2797852-0.0031128,5.6578369,0.0092163L12.666687,1.3618164c-3.7467041,0-7.5157471,0-11.3427124,0
	c0,0.361084,0.0025635,5.4366455,0.0025635,5.4366455L0,6.7999878V0H14z M10.3857422,6.9824219l1.1992188,0.0039062
	L11.6025391,2.375L6.9238281,2.2871094L6.9013672,3.4873047l2.644104,0.0494995L5.925293,7.0263672l0.8330078,0.8632812
	l3.6362915-3.505127L10.3857422,6.9824219z M0,8.3883057h5.6116943V14H0V8.3883057z M1,13h3.6116943V9.3883057H1V13z"/>
</svg>
