<?xml version="1.0" encoding="utf-8"?>
<!-- Generator: Adobe Illustrator 19.1.0, SVG Export Plug-In . SVG Version: 6.00 Build 0)  -->
<svg version="1.1" id="expand" xmlns="http://www.w3.org/2000/svg" xmlns:xlink="http://www.w3.org/1999/xlink" x="0px" y="0px"
	 viewBox="0 0 14 14" style="enable-background:new 0 0 14 14;" xml:space="preserve">
<path d="M6.3,8.5c0,0.1-0.1,0.1-0.1,0.2c-1.3,1.3-2.7,2.7-4,4c-0.1,0-0.2,0-0.2,0.1c0,0,0,0,0,0.1c0.1,0,0.1,0,0.2,0
	c0.5,0,1,0,1.5,0c0.4,0,0.6,0.2,0.6,0.6C4.3,13.7,4,14,3.7,14c-1,0-2,0-3,0C0.2,14,0,13.8,0,13.4c0-1,0-2,0-2.9
	C0,10,0.2,9.8,0.6,9.8c0.3,0,0.6,0.3,0.6,0.6c0,0.5,0,1,0,1.6c0.1-0.1,0.1-0.1,0.2-0.2c1.3-1.3,2.7-2.7,4-4C5.5,7.6,5.7,7.5,6,7.6
	C6.4,7.7,6.5,8.2,6.3,8.5z M3.2,2.4C2.8,2,2.4,1.6,2,1.2l0,0c0.1,0,0.1,0,0.2,0c0.5,0,1,0,1.5,0C4,1.2,4.3,1,4.3,0.6
	C4.3,0.3,4,0,3.7,0c-1,0-2.1,0-3.1,0C0.3,0,0,0.2,0,0.6c0,1,0,2,0,3C0,4,0.3,4.2,0.6,4.2s0.6-0.3,0.6-0.6c0-0.5,0-0.9,0-1.4
	c0-0.1,0-0.1,0-0.2c0,0,0.1,0.1,0.1,0.1c0.5,0.5,1,1,1.5,1.5c0.9,0.9,1.7,1.7,2.6,2.6C5.6,6.4,5.7,6.5,6,6.4c0.2,0,0.4-0.2,0.4-0.4
	c0.1-0.2,0-0.4-0.2-0.6C5.2,4.4,4.2,3.4,3.2,2.4z M14,10.4c0-0.3-0.2-0.6-0.5-0.6s-0.6,0.2-0.6,0.5c0,0.1,0,0.1,0,0.2
	c0,0.5,0,1,0,1.5c0,0,0,0-0.1,0c0-0.1-0.1-0.1-0.1-0.2c-0.9-0.9-1.9-1.9-2.8-2.8C9.4,8.6,9,8.2,8.6,7.8C8.4,7.6,8.2,7.5,8,7.6
	S7.6,7.8,7.6,8.1c0,0.2,0.1,0.4,0.2,0.6c1.3,1.3,2.7,2.7,4,4c0.1,0.1,0.1,0.1,0.2,0.2c-0.1,0-0.2,0-0.2,0c-0.5,0-1,0-1.5,0
	c-0.4,0-0.6,0.3-0.6,0.6s0.3,0.6,0.6,0.6c1,0,2,0,3,0c0.4,0,0.6-0.2,0.6-0.7c0-0.4,0-0.8,0-1.2C14,11.5,14,11,14,10.4z M8,6.4
	c0.3,0.1,0.4,0,0.6-0.2c1.3-1.3,2.7-2.7,4-4c0,0,0.1-0.1,0.2-0.2c0,0.1,0,0.2,0,0.2c0,0.5,0,0.9,0,1.4c0,0.3,0.1,0.5,0.4,0.6
	C13.6,4.3,14,4,14,3.6c0-1,0-2,0-2.9C14,0.2,13.8,0,13.3,0c-1,0-2,0-3,0C10,0,9.7,0.2,9.7,0.6c0,0.3,0.3,0.6,0.6,0.6
	c0.5,0,1,0,1.5,0c0.1,0,0.1,0,0.2,0c-0.1,0.1-0.1,0.1-0.2,0.2c-1.3,1.3-2.7,2.7-4,4L7.7,5.5C7.5,5.8,7.6,6.3,8,6.4z"/>
</svg>
