<?xml version="1.0" encoding="utf-8"?>
<!-- Generator: Adobe Illustrator 19.1.0, SVG Export Plug-In . SVG Version: 6.00 Build 0)  -->
<svg version="1.1" id="export" xmlns="http://www.w3.org/2000/svg" xmlns:xlink="http://www.w3.org/1999/xlink" x="0px" y="0px"
	 viewBox="0 0 14 14" style="enable-background:new 0 0 14 14;" xml:space="preserve">
<path d="M14,5.9566002v6.5639896c0,0.8158121-0.6638231,1.4796352-1.4796505,1.4796352H1.4801008
	C0.6638231,14.0002251,0,13.3364019,0,12.5205898V1.4803257C0,0.6640481,0.6638231-0.000225,1.4801008-0.000225H8.057126
	c0.304925,0,0.5522757,0.2473508,0.5522757,0.5527255S8.362051,1.1052415,8.057126,1.1052415H1.4801008
	c-0.2064283,0-0.3746343,0.168206-0.3746343,0.3750842v11.0402641c0,0.2068624,0.168206,0.3750839,0.3746343,0.3750839h11.0402489
	c0.2068777,0,0.3750839-0.1682215,0.3750839-0.3750839V5.9566002c0-0.3053751,0.247366-0.5527258,0.5522909-0.5527258
	S14,5.6512251,14,5.9566002z M11.8757534,2.5800505c-9.5675659,0.864975-9.7728138,8.7177992-9.7736683,8.7999849
	c-0.0031502,0.3058252,0.2415159,0.5558758,0.5468907,0.5585766c0.0018001,0,0.0040503,0,0.0058503,0
	c0.3026745,0,0.5491252-0.2428665,0.5527256-0.5459909c0-0.0188856,0.0341876-1.8727207,1.2462356-3.7625275
	c1.4622235-2.2791219,3.9418144-3.5938878,7.3664246-3.9318204L10.1726971,5.396224
	c-0.2122784,0.2194791-0.2068777,0.5689268,0.0117016,0.7816558c0.1079321,0.104331,0.2464504,0.1560545,0.3849697,0.1560545
	c0.143919,0,0.2887383-0.0562239,0.3966703-0.1677556L14,3.0382211l-3.130208-2.8918266
	c-0.2239637-0.2059782-0.5738611-0.1938427-0.7807398,0.0310217c-0.207778,0.2244298-0.1933928,0.5738773,0.0305719,0.7812057
	L11.8757534,2.5800505z"/>
</svg>
