<?xml version="1.0" encoding="utf-8"?>
<!-- Generator: Adobe Illustrator 19.1.0, SVG Export Plug-In . SVG Version: 6.00 Build 0)  -->
<svg version="1.1" id="factory-reset" xmlns="http://www.w3.org/2000/svg" xmlns:xlink="http://www.w3.org/1999/xlink" x="0px"
	 y="0px" viewBox="0 0 14 14" style="enable-background:new 0 0 14 14;" xml:space="preserve">
<path d="M5.2523785,3.8368495V5.25946c0,0.183743,0.1499,0.3335857,0.333643,0.3335857h0.0580001
	c0.1836853,0,0.3335853-0.1498427,0.3335853-0.3335857V3.4234707C6.2531929,3.308682,6.5468817,3.2300997,6.853889,3.1926246
	v2.626482c0,0.1836853,0.1499,0.3335857,0.3335857,0.3335857H7.245532c0.1836853,0,0.3335857-0.1499004,0.3335857-0.3335857
	V3.1805172c0.3057961,0.0277891,0.5994854,0.0966856,0.8762817,0.2018464V5.25946
	c0,0.183743,0.1499004,0.3335857,0.3335857,0.3335857H8.847043c0.1836853,0,0.3335848-0.1498427,0.3335848-0.3335857V3.7631102
	c0.8497038,0.5886464,1.4141359,1.5604033,1.4467678,2.6639571h0.2284822c0.1063719,0,0.1921606,0.0869999,0.1921606,0.1921606
	v0.3541679c0,0.1063714-0.0869989,0.1921606-0.1921606,0.1921606H3.6412394c-0.1063714,0-0.1922183-0.0869999-0.1922183-0.1921606
	V6.6204386c0-0.1063714,0.0870576-0.1921606,0.1922183-0.1921606h0.2658999
	C3.93735,5.3682528,4.4595213,4.4315495,5.2523785,3.8368495z M9.9275923,8.4480104
	c0.1027393-0.2514286,0.2199497-0.3227472,0.2199497-0.3227472s0.039897-0.0157394,0.3541679-0.0157394
	c0.3142719,0,0.2755861-0.3226886,0.2755861-0.3226886V7.3770885c0,0-0.8666534,0-1.6691961,0
	C9.0537319,9.243288,7.3446393,9.3146067,7.2419,9.3061314C5.2741714,9.1332846,5.3925924,7.3770885,5.3925924,7.3770885H3.7149787
	c0,0,0.0084176,0.3541679,0.024157,0.4798536c0.015682,0.1256857,0.1100037,0.2840605,0.3940067,0.2598467
	c0.284061-0.0241575,0.3855896,0.2042675,0.3855896,0.2042675S4.5501533,8.392374,4.6685748,8.6438026
	C4.7870536,8.895174,4.7242107,9.0136528,4.7242107,9.0136528s-0.0398965,0.094264-0.2127428,0.2513714
	C4.3386211,9.4221888,4.4800463,9.6035099,4.4800463,9.6035099s0.472589,0.4882717,0.60675,0.591011
	c0.1341605,0.1027384,0.2913251,0.0628424,0.2913251,0.0628424s0.134161-0.094264,0.1970034-0.1812639
	C5.7322321,9.859724,5.952239,9.9890423,5.952239,9.9890423s0.1728468,0.0556355,0.3940072,0.1498995
	c0.2200074,0.094265,0.2284245,0.2127438,0.2284245,0.2127438s0.0398965,0.0471029,0.0314794,0.2912674
	c-0.0084753,0.2441645,0.2126851,0.2997427,0.2126851,0.2997427s0.5669112,0.0157394,0.8340216-0.0084753
	c0.2671108-0.0241566,0.2755861-0.1571074,0.2671108-0.3940067c-0.0084753-0.2356892,0.1499004-0.3541679,0.1499004-0.3541679
	s0.0314207,0.0157394,0.3311634-0.134161c0.2997437-0.1498423,0.4411678-0.0628424,0.4411678-0.0628424s0,0,0.1970043,0.1813211
	c0.1970034,0.1813221,0.3783245,0.039897,0.3783245,0.039897s0.4254284-0.4254866,0.5982752-0.5910683
	c0.1728458-0.1655827,0.0471601-0.3541679-0.0785246-0.448432C9.7172709,8.9265957,9.7958536,8.7538071,9.7958536,8.7538071
	S9.8248529,8.6993809,9.9275923,8.4480104z M13.4752007,4.5171771c-0.3377132-0.7972727-0.8193398-1.5115561-1.4314451-2.1231825
	c-0.6130657-0.6135449-1.3278284-1.0951706-2.1231823-1.4314451c-0.8241367-0.3487469-1.6991224-0.525279-2.6009712-0.525279
	c-1.416574,0-2.7698274,0.4379723-3.9134483,1.2664261C2.8549705,2.1023328,2.3695071,2.5806007,1.963675,3.1250679
	C1.7660358,3.3898661,1.5885442,3.6690555,1.4326395,3.957839L0.80998,2.1258385
	c-0.0153506-0.0470111-0.0479707-0.084908-0.0925834-0.1069746c-0.0450924-0.0225462-0.094982-0.0249448-0.1410338-0.0095942
	l-0.449965,0.1520672C0.0793864,2.1766875,0.0414896,2.2093074,0.0194231,2.2539203
	c-0.0220665,0.0441329-0.0254245,0.0945022-0.0095941,0.140554c0.2609605,0.7862396,0.520482,1.5652835,0.7824019,2.3520029
	l0.242252,0.7267561C1.0661435,5.5682149,1.1702398,5.6195436,1.2681,5.5888424l3.0538142-1.0275321
	c0.0465312-0.0153508,0.084908-0.0479708,0.1069746-0.0921035c0.0215864-0.0436535,0.0254245-0.0935431,0.0100737-0.1400747
	L4.2878547,3.8671744c-0.0153503-0.0470111-0.0479708-0.084908-0.0921035-0.1074543
	C4.1520977,3.7381334,4.1012487,3.7333362,4.0542374,3.7491665L2.3800607,4.3113832
	C2.4961495,4.107028,2.6251907,3.9098685,2.7647855,3.7227826c0.3463483-0.4633968,0.7593758-0.8701882,1.2275698-1.2093408
	C4.9642415,1.8097117,6.1150584,1.4374592,7.319602,1.4374592c0.7675314,0,1.5120363,0.1501482,2.2114487,0.4461273
	c0.6763868,0.2859052,1.2836962,0.6955751,1.8056164,1.217496c0.5209618,0.5209618,0.9306316,1.1282704,1.2174969,1.8056166
	c0.2964582,0.7003722,0.4461269,1.4443974,0.4461269,2.210969s-0.1496687,1.5110769-0.4461269,2.2104893
	c-0.2868652,0.6773462-0.6965351,1.2846546-1.2184563,1.8065758c-0.5209608,0.5209618-1.1273108,0.9306316-1.804657,1.2165365
	C8.8306789,12.6477289,8.0871334,12.798357,7.319602,12.798357c-1.1949496,0-2.3390503-0.3674555-3.3080583-1.0630302
	c-0.4667549-0.3338766-0.878823-0.7358704-1.2256513-1.1944704c-0.340112-0.4499655-0.6101871-0.9450226-0.8025495-1.4717407
	C1.9507229,8.9808493,1.8538221,8.9386358,1.7626778,8.9645395L1.1496124,9.1832857
	c-0.0436532,0.0143919-0.080111,0.0470114-0.1002587,0.0882664C1.0287263,9.3137665,1.0263278,9.363656,1.0421581,9.4068298
	c0.2264216,0.6216993,0.544947,1.2059822,0.9464617,1.7365379c0.4087102,0.5401506,0.8932142,1.0131416,1.4400799,1.404582
	c1.1388242,0.817421,2.4844019,1.2501163,3.8909023,1.2501163c0.9008894,0,1.7758751-0.1765318,2.6009712-0.5247993
	c0.7953539-0.3377142,1.5101166-0.8193398,2.1231823-1.4314451c0.611146-0.6121063,1.0937319-1.326869,1.4314451-2.1231833
	C13.8234682,8.8935432,14,8.0185575,14,7.1176682S13.8234682,5.3422732,13.4752007,4.5171771z"/>
</svg>
