<?xml version="1.0" encoding="utf-8"?>
<!-- Generator: Adobe Illustrator 19.2.0, SVG Export Plug-In . SVG Version: 6.00 Build 0)  -->
<svg version="1.1" id="factory-reset" xmlns="http://www.w3.org/2000/svg" xmlns:xlink="http://www.w3.org/1999/xlink" x="0px"
	 y="0px" viewBox="0 0 14 14" style="enable-background:new 0 0 14 14;" xml:space="preserve">
<path d="M12.400713,11.4302187c-2.4438438,3.0156097-6.8845115,3.4807587-9.9001904,1.0369186l0.9377329-1.157135
	c2.3775368,1.9267445,5.8785768,1.5600204,7.8053222-0.8175163s1.5600243-5.8785095-0.8175125-7.805254
	C8.2853184,0.9523331,5.2360716,1.083094,3.2429385,2.8622184L4.4653649,3.852881L0.0317994,5.5529113l0.7445273-4.6895933
	l1.2973343,1.0513992c2.5212429-2.4122219,6.5098-2.6378231,9.2901382-0.3846211
	C14.3794775,3.9739358,14.8445568,8.414608,12.400713,11.4302187z M3.8783939,6.7183127h-0.450943v0.7370501h7.5607843V6.7171025
	H10.59657c-0.0326223-1.1032124-0.596879-2.0746684-1.4463205-2.6631327v1.4958868
	c0,0.1836858-0.1498528,0.3334823-0.3334808,0.3334823H8.758729c-0.183629,0-0.3334827-0.1497965-0.3334827-0.3334823V3.6733413
	C8.1485357,3.568213,7.8549371,3.4993377,7.5492358,3.4715574v2.6377723c0,0.1836286-0.1498542,0.3334827-0.3334827,0.3334827
	H7.1577139c-0.183629,0-0.3334827-0.1498542-0.3334827-0.3334827V3.4836609
	C6.5173192,3.5211244,6.223721,3.5996823,5.9482203,3.7144356v1.8354211c0,0.1836858-0.1498532,0.3334823-0.3334818,0.3334823
	h-0.057982c-0.1836863,0-0.33354-0.1497965-0.33354-0.3334823V4.1276865
	C4.4306049,4.7222023,3.9085953,5.6586156,3.8783939,6.7183127z M10.7605219,7.6890655v0.3145709l-0.000247,0.331665
	l-0.7419634,0.0929461c-0.0636377,0.2372952-0.1595726,0.4635267-0.2822571,0.676075l0.475853,0.6005421l-0.9399967,0.9489641
	l-0.614871-0.48137c-0.2164316,0.1220369-0.446022,0.214921-0.6866765,0.2774811L7.876123,11.2221661l-1.3356938,0.0028038
	L6.4460354,10.432374c-0.2227492-0.0640697-0.4370236-0.1545811-0.6382008-0.2702389L5.186399,10.6527195L4.2399616,9.7102261
	c0,0,0.1780329-0.2293434,0.1803441-0.2322712l0.3140616-0.3958521C4.6237941,8.8877058,4.5369501,8.6807051,4.474329,8.4655981
	L3.6942446,8.3680296l-0.00302-0.3774829V7.6894741L5.8362846,7.690568c0,0.7674408,0.622148,1.3895884,1.3895884,1.3895884
	S8.6154613,8.4580088,8.6154613,7.690568L10.7605219,7.6890655z"/>
</svg>
