<?xml version="1.0" encoding="utf-8"?>

<!--
 * Copyright (c) 2015, WSO2 Inc. (http://www.wso2.org) All Rights Reserved.
 *
 * WSO2 Inc. licenses this file to you under the Apache License,
 * Version 2.0 (the "License"); you may not use this file except
 * in compliance with the License.
 * You may obtain a copy of the License at
 *
 * http://www.apache.org/licenses/LICENSE-2.0
 *
 * Unless required by applicable law or agreed to in writing,
 * software distributed under the License is distributed on an
 * "AS IS" BASIS, WITHOUT WARRANTIES OR CONDITIONS OF ANY
 * KIND, either express or implied. See the License for the
 * specific language governing permissions and limitations
 * under the License.
-->

<svg version="1.1" id="faq" xmlns="http://www.w3.org/2000/svg" xmlns:xlink="http://www.w3.org/1999/xlink" x="0px" y="0px"
	 viewBox="0 0 14 14" style="enable-background:new 0 0 14 14;" xml:space="preserve">
<path d="M12.17999,4.20001c0.12,0.26996,0.17999,0.58997,0.17999,0.94995c0,0.59003-0.14996,1.04004-0.44,1.35004
	C11.69,6.32996,11.40997,6.19,11.07001,6.09998L10.96002,6.06l-0.23004,0.70001l0.13,0.02997
	c0.10999,0.03003,0.22003,0.07001,0.33002,0.12C11.09003,6.92999,10.97998,6.94,10.87,6.94c-0.44,0-0.78998-0.14001-1.07001-0.45001
	C9.52002,6.19,9.38,5.73999,9.38,5.15997C9.38,4.56,9.52002,4.10999,9.79999,3.81C10.09003,3.51996,10.44,3.37,10.87,3.37
	c0.28998,0,0.54999,0.07001,0.78003,0.21997C11.88,3.72998,12.06,3.94,12.17999,4.20001z M6.06,3.76001
	C6.01001,3.91998,5.96002,4.07996,5.90002,4.23999L5.45001,5.45996H6.69L6.26001,4.31C6.17999,4.10999,6.10999,3.91998,6.06,3.76001
	z M14,1.31v6.08002v1.32996C14,9.41998,13.39001,10,12.63,10H9.45001l-6.17999,4l1.42999-3.97003H1.37
	C0.60999,10.02997,0,9.41998,0,8.75V7.64996v-6.31C0,0.57996,0.60999,0,1.37,0H12.63C13.39001,0,14,0.57996,14,1.31z M1.53003,5.5
	H3.75V4.69H1.53003V3.47998h2.56995v-0.81H0.65002v4.97998h0.88V5.5z M8.52002,7.64996l-0.37-0.90997L6.47998,2.66998H5.63
	L4.44,5.76996l-0.72003,1.88h0.93005l0.51996-1.42999h1.81l0.55005,1.42999H8.52002z M13.39001,7.39001l-0.13-0.05005
	c-0.19-0.07996-0.41003-0.19-0.65002-0.33997c0.20001-0.22003,0.35004-0.47003,0.46002-0.75c0.12-0.32001,0.19-0.69,0.19-1.10004
	c0-0.47998-0.10004-0.92999-0.29004-1.31C12.77002,3.44,12.48999,3.13,12.12,2.90997C11.75,2.69,11.33002,2.57996,10.87,2.57996
	C10.41998,2.57996,10,2.69,9.63,2.89996c-0.37,0.21002-0.65002,0.52002-0.84998,0.92999
	C8.58002,4.22998,8.47998,4.66998,8.47998,5.15997s0.10004,0.92999,0.30005,1.32001C8.96997,6.87,9.26001,7.17999,9.63,7.39996
	C10,7.62,10.40997,7.72998,10.85999,7.72998c0.41003,0,0.79999-0.08997,1.15002-0.27002
	c0.32001,0.25,0.65997,0.43005,0.97998,0.55005l0.12,0.03998L13.39001,7.39001z"/>
</svg>
