<?xml version="1.0" encoding="utf-8"?>
<!--
 * Copyright (c) 2015, WSO2 Inc. (http://www.wso2.org) All Rights Reserved.
 *
 * WSO2 Inc. licenses this file to you under the Apache License,
 * Version 2.0 (the "License"); you may not use this file except
 * in compliance with the License.
 * You may obtain a copy of the License at
 *
 * http://www.apache.org/licenses/LICENSE-2.0
 *
 * Unless required by applicable law or agreed to in writing,
 * software distributed under the License is distributed on an
 * "AS IS" BASIS, WITHOUT WARRANTIES OR CONDITIONS OF ANY
 * KIND, either express or implied. See the License for the
 * specific language governing permissions and limitations
 * under the License.
-->

<svg version="1.1" id="focus" xmlns="http://www.w3.org/2000/svg" xmlns:xlink="http://www.w3.org/1999/xlink" x="0px" y="0px"
	 viewBox="0 0 14 14" style="enable-background:new 0 0 14 14;" xml:space="preserve">
<path d="M13.61126,6.70343C13.35654,6.71152,13.10136,6.7055,12.83,6.7055c-0.09943-1.48672-0.65583-2.77256-1.70916-3.82592
	C10.07026,1.82897,8.7898,1.27087,7.29419,1.17032c0-0.26478-0.00559-0.5232,0.00194-0.78124
	C7.30129,0.21222,7.24608,0.07877,7.08203,0C7.02734,0,6.97266,0,6.91797,0C6.75395,0.07858,6.698,0.21155,6.70334,0.38869
	C6.71102,0.64343,6.7053,0.89857,6.7053,1.16907C5.21814,1.26905,3.93242,1.82529,2.87901,2.87909
	C1.82853,3.92996,1.27132,5.21057,1.16989,6.7053c-0.26479,0-0.52325,0.00565-0.78131-0.00195
	C0.21154,6.69813,0.07836,6.75364,0,6.91797c0,0.05469,0,0.10938,0,0.16406c0.07861,0.1643,0.21224,0.21927,0.38902,0.21408
	c0.25473-0.00749,0.50984-0.00191,0.77996-0.00191c0.10033,1.48761,0.65633,2.77371,1.71059,3.82669
	c1.05106,1.0498,2.33144,1.60806,3.82593,1.70788c0,0.26584,0.00593,0.5244-0.00205,0.78252
	C6.69797,13.78872,6.75424,13.92124,6.91797,14c0.05469,0,0.10938,0,0.16406,0c0.16301-0.07941,0.21927-0.212,0.21374-0.38917
	c-0.00795-0.25461-0.00203-0.50965-0.00203-0.78058c1.48795-0.10003,2.77369-0.65661,3.82656-1.70987
	c1.05001-1.05041,1.60768-2.33103,1.70912-3.82664c0.26491,0,0.52333-0.00595,0.78131,0.00205
	C13.788,7.30129,13.92047,7.2449,14,7.08203c0-0.05469,0-0.10938,0-0.16406C13.92098,6.7547,13.78881,6.6978,13.61126,6.70343z
	 M6.69508,1.76588c0,0.38068,0,0.761,0,1.15764C5.69955,3.01376,4.82965,3.40002,4.11718,4.1121
	C3.407,4.82189,3.01714,5.68577,2.92391,6.70567c-0.36528,0-0.71977,0.00019-1.07427-0.00039
	C1.82337,6.70523,1.7971,6.69959,1.77174,6.69665C1.85531,4.22642,3.92741,1.90792,6.69508,1.76588z M6.69808,12.22595
	c-2.39481-0.06676-4.77883-2.08449-4.93295-4.92465c0.39033,0,0.77067,0,1.13402,0c0.35088,2.19081,1.60726,3.45158,3.79894,3.79668
	C6.69808,11.46503,6.69808,11.84539,6.69808,12.22595z M7.29371,10.4763c0-0.15806-0.00005-0.31544,0.00002-0.47282
	C7.29378,9.88956,7.29605,9.7756,7.29367,9.66173C7.28959,9.46649,7.16988,9.33264,7.00217,9.3319
	c-0.16959-0.00076-0.29312,0.13055-0.2957,0.32506c-0.00356,0.26811-0.00089,0.5363-0.00089,0.80448
	c-1.50835-0.01623-3.10542-1.44511-3.17459-3.16721c0.22689,0,0.45346,0.00009,0.68004-0.00007
	c0.05468-0.00004,0.1096,0.00229,0.16399-0.00193c0.16839-0.01306,0.28882-0.13277,0.292-0.28696
	c0.00328-0.1593-0.11962-0.29148-0.29448-0.29701c-0.23673-0.0075-0.47385-0.00258-0.7108-0.00296
	C3.61764,6.70524,3.57355,6.7053,3.52884,6.7053c0.07369-1.63332,1.52744-3.09963,3.17695-3.17695
	c0,0.19489-0.00001,0.38943,0,0.58397c0,0.07747-0.00215,0.155,0.00051,0.23238C6.71294,4.53864,6.83581,4.67014,7.00478,4.667
	c0.16398-0.00305,0.28389-0.13183,0.28787-0.3188c0.00407-0.1913,0.00103-0.38276,0.00108-0.57414
	c0.00002-0.0809,0-0.1618,0-0.24261c1.53999,0.05334,3.08315,1.43415,3.17995,3.17433c-0.20864,0-0.41675-0.00003-0.62486,0.00002
	C9.77592,6.70582,9.70277,6.70227,9.63015,6.70688c-0.1752,0.01112-0.2987,0.13521-0.29824,0.29489
	c0.00045,0.15766,0.12646,0.28472,0.30225,0.29055c0.19118,0.00634,0.38273,0.0018,0.57411,0.00195
	c0.0856,0.00007,0.17119,0.00001,0.25688,0.00001C10.4342,8.73177,9.13216,10.35532,7.29371,10.4763z M7.30231,12.22781
	c0-0.38052,0-0.76079,0-1.12861c2.18781-0.3464,3.44644-1.60504,3.7972-3.79726c0.36253,0,0.74289,0,1.1234,0
	C12.16845,9.78228,10.00647,12.12788,7.30231,12.22781z M11.07533,6.69703c-0.09095-1.00302-0.47977-1.8716-1.19298-2.58387
	C9.1721,3.40387,8.30768,3.01595,7.30222,2.92442c0-0.38619,0-0.76658,0-1.1471c2.4437,0.04762,4.81891,2.17916,4.92629,4.91972
	C11.84793,6.69703,11.46761,6.69703,11.07533,6.69703z M7.94989,7.01179C7.94482,7.53497,7.51233,7.95523,6.98452,7.94986
	c-0.51548-0.00524-0.9372-0.43582-0.93445-0.9541C6.05286,6.47079,6.48159,6.04761,7.00815,6.0501
	C7.5308,6.05256,7.955,6.48576,7.94989,7.01179z"/>
</svg>
