<?xml version="1.0" encoding="utf-8"?>
<!-- Generator: Adobe Illustrator 19.1.0, SVG Export Plug-In . SVG Version: 6.00 Build 0)  -->
<svg version="1.1" id="forum" xmlns="http://www.w3.org/2000/svg" xmlns:xlink="http://www.w3.org/1999/xlink" x="0px" y="0px"
	 viewBox="0 0 14 14" style="enable-background:new 0 0 14 14;" xml:space="preserve">
<g>
	<path d="M9.2000122,8.7999878c0.7999878,0,1.3999634-0.5999756,1.3999634-1.4000244c0-1.5999756,0-3.0999756,0-4.6999512
		c0-0.8000488-0.5999756-1.4000244-1.3999634-1.4000244c-2.6000366,0-5.2000122,0-7.7999878,0C0.5999756,1.2999878,0,2,0,2.7999878
		c0,1.5,0,3.0999756,0,4.5999756C0,8,0.3395996,8.7999878,1.0999756,8.7999878c0.2000122,0,0.3000488,0,0.5,0
		c0,0.5999756,0,1.2000122,0,1.7999878c0,0.1000366,0.0002441,0.3204956,0.0443726,0.4487305
		C1.7928467,11.3622437,2.2000122,11.2999878,2.5,11c0.7000122-0.7000122,1.2999878-1.2999878,2-2
		C4.7000122,8.7999878,4.7999878,8.7999878,5,8.7999878C6.4000244,8.7999878,7.7999878,8.7999878,9.2000122,8.7999878z"/>
	<path d="M12.9000244,4.2000122c-0.5-0.1000366-0.9606934-0.0591431-1.5-0.074585c0,0.2999878,0,0.4745483,0,0.6745605
		c0,0.0999756,0,0.0999756,0,0.2000122C11.5,5,11.5,5,11.5999756,5c0.3000488,0,0.5,0,0.8000488,0
		c0.3999634,0,0.6999512,0.2999878,0.6999512,0.7000122c0,1.1999512,0,2.2999878,0,3.5
		c0,0.3999634-0.2999878,0.6999512-0.6999512,0.6999512c-0.2000122,0-0.3000488,0-0.5,0c0,0.6000366,0,1.2897949,0,1.8897705
		l-0.2000122-0.1897583c-0.5-0.5-1-1-1.5-1.5C10.0999756,10,10,9.8999634,9.9000244,9.8999634c-1.1000366,0-2.3000488,0-3.4000244,0
		c-0.2000122,0-0.5,0.0216055-0.5392156-0.1980028C5.9294119,9.4823532,5.7000122,9.5,5.5,9.5c-0.0999756,0-0.2947388,0-0.3947754,0
		C4.8965454,9.5085449,4.9425049,9.6116333,5,9.7999878c0.2000122,0.5999756,0.7999878,1,1.5,1c1,0,2,0,3,0
		c0.0999756,0,0.2000122,0,0.2999878,0.0999756c0.5,0.5,1,1,1.5,1.5c0.2999878,0.3000488,0.6000366,0.3000488,1,0.2000122
		c0.2999878-0.0999756,0.5-0.3999634,0.5-0.7999878c0-0.2999878,0-0.5999756,0-0.7999878
		c0-0.1000366,0-0.2000122,0.1000366-0.2000122C13.5999756,10.5,14,10,14,9.2000122c0-1.2000122,0-2.4000244,0-3.5
		C14,5,13.5999756,4.3999634,12.9000244,4.2000122z"/>
</g>
</svg>
