<?xml version="1.0" encoding="utf-8"?>
<!-- Generator: Adobe Illustrator 19.1.0, SVG Export Plug-In . SVG Version: 6.00 Build 0)  -->
<svg version="1.1" id="gadget" xmlns="http://www.w3.org/2000/svg" xmlns:xlink="http://www.w3.org/1999/xlink" x="0px" y="0px"
	 viewBox="0 0 14 14" style="enable-background:new 0 0 14 14;" xml:space="preserve">
<path d="M13.4334984,5.572l-0.8889999-0.1040001c-0.1219997-0.4640002-0.3050003-0.9070001-0.5380001-1.323l0.5469999-0.6919999
	c0.2030001-0.256,0.1809998-0.6210001-0.0469999-0.852l-1.0670004-1.067c-0.2299995-0.23-0.5959997-0.251-0.8520002-0.048
	l-0.671999,0.533C9.4794989,1.763,9.0134983,1.568,8.5244989,1.436L8.4234991,0.567C8.385499,0.243,8.1114988,0,7.7874985,0h-1.513
	c-0.3250003,0-0.598,0.243-0.6370001,0.567L5.5364981,1.436C5.0344982,1.5700001,4.5564985,1.774,4.1094985,2.039l-0.697-0.552
	c-0.256-0.204-0.6210001-0.1799999-0.852,0.048L1.4924984,2.605c-0.2309999,0.23-0.2509999,0.595-0.049,0.8510001
	l0.5830002,0.7369998c-0.2330002,0.421-0.4100001,0.869-0.5270001,1.336l-0.933,0.1070004
	c-0.324,0.0369997-0.567,0.3109999-0.567,0.6359997v1.513c0,0.3240004,0.244,0.5979996,0.567,0.6359997l0.9839999,0.1140003
	c0.124,0.4259996,0.296,0.8360004,0.5150002,1.2209997L1.4434984,10.54c-0.202,0.2559996-0.1799999,0.6199999,0.049,0.8509998
	l1.069,1.0699997c0.2309999,0.2299995,0.596,0.2510004,0.852,0.0489998l0.7779999-0.6149998
	c0.4000001,0.2299995,0.8260002,0.4099998,1.2690001,0.5369997l0.1170001,1.0010004C5.6154981,13.757,5.8894982,14,6.2134981,14
	h1.513c0.3240008,0,0.5990005-0.2440004,0.6360002-0.5690002l0.1120005-0.9659996
	C8.951499,12.3410006,9.4064989,12.1570005,9.8354988,11.915l0.7530003,0.5970001
	c0.2559996,0.2019997,0.6219997,0.1789999,0.8520002-0.0480003l1.0690002-1.0699997
	c0.2309999-0.2299995,0.2510004-0.5950003,0.0480003-0.8509998l-0.5860014-0.743
	c0.243-0.4210005,0.4329996-0.8690004,0.559-1.3389997l0.9020004-0.1040001
	c0.3260002-0.0380001,0.5679998-0.3120003,0.5679998-0.6360002V6.2090001
	C14.0014992,5.8839998,13.7594986,5.6100001,13.4334984,5.572z M7.0004983,11.6239996
	c-2.5539999,0-4.6239996-2.0710001-4.6239996-4.6240001S4.4464984,2.375,7.0004983,2.375s4.624001,2.0710001,4.624001,4.6240001
	C11.6244984,9.5539999,9.5544987,11.6239996,7.0004983,11.6239996z M4.1054983,9.0830002
	c-0.2239997,0.224-0.2239997,0.5869999,0,0.8109999c0.112,0.1120005,0.2589998,0.1680002,0.4060001,0.1680002
	c0.1469998,0,0.2940001-0.0559998,0.4060001-0.1680002l1.8829999-1.8839998L5.9894981,7.1999998L4.1054983,9.0830002z
	 M8.8134985,5.592l0.8199997-0.4239998l0.4300003-0.8299999L9.6634989,3.9380002L8.833499,4.368L8.4084988,5.1880002
	L7.4094982,6.1859999l0.4050002,0.4050002L8.8134985,5.592z M8.9924984,7.7690001l-0.0769997-0.007
	c-0.1400003,0-0.2729998,0.0289998-0.3959999,0.0749998L6.1644983,5.4809999c0.046-0.1240001,0.0739999-0.256,0.0739999-0.3959999
	l-0.007-0.0770001C6.1904984,4.4109998,5.6994982,3.9379997,5.0914984,3.9379997c-0.177,0-0.342,0.043-0.4920001,0.1149998
	l0.7620001,0.7620001c0.04,0.04,0.0679998,0.0869999,0.086,0.138c0.0500002,0.1350002,0.0229998,0.2940001-0.086,0.4029999
	C5.2874985,5.4299998,5.1894984,5.467,5.0914984,5.467c-0.0450001,0-0.0900002-0.0100002-0.1329999-0.026
	c-0.0500002-0.0190001-0.0970001-0.046-0.138-0.086L4.0594983,4.5929999C3.9884984,4.743,3.9444985,4.908,3.9444985,5.085
	c0,0.6069999,0.4729996,1.099,1.0699997,1.1399999l0.0770001,0.0079999c0.1399999,0,0.2730002-0.0289998,0.3959999-0.0739999
	l2.3540001,2.355c-0.0440001,0.1219997-0.073,0.2550001-0.073,0.3950005l0.0079999,0.0769997
	c0.04,0.5970001,0.5320001,1.0699997,1.1390004,1.0699997c0.177,0,0.3430004-0.0430002,0.4919996-0.1149998L8.6454992,9.1789999
	c-0.04-0.04-0.0679998-0.0880003-0.0869999-0.1370001C8.5084991,8.9069996,8.5354996,8.7480001,8.6454992,8.6389999
	c0.0740004-0.0749998,0.1719999-0.1120005,0.2700005-0.1120005c0.0450001,0,0.0900002,0.0100002,0.1330004,0.026
	C9.0985003,8.5719995,9.1464996,8.598999,9.1855001,8.6389999L9.9475002,9.401
	C10.0194998,9.2510004,10.0625,9.0860004,10.0625,8.9090004C10.0634985,8.302,9.5894985,7.8099999,8.9924984,7.7690001z"/>
</svg>
