<?xml version="1.0" encoding="utf-8"?>
<!-- Generator: Adobe Illustrator 19.2.0, SVG Export Plug-In . SVG Version: 6.00 Build 0)  -->
<svg version="1.1" id="gadget" xmlns="http://www.w3.org/2000/svg" xmlns:xlink="http://www.w3.org/1999/xlink" x="0px" y="0px"
	 viewBox="0 0 14 14" style="enable-background:new 0 0 14 14;" xml:space="preserve">
<path d="M4.3183618,8.9294825c-0.2074909,0.2074909-0.2074909,0.5437384,0,0.7512293
	c0.1037455,0.1037464,0.2399116,0.1556187,0.3760781,0.1556187c0.1361656,0,0.2723322-0.0518723,0.3760777-0.1556187
	l1.7442226-1.7451487L6.0635104,7.1852598L4.3183618,8.9294825z M8.6793814,5.6957698L9.4389467,5.303019l0.3983097-0.7688289
	L9.4667368,4.1636701L8.6979084,4.5619788L8.3042307,5.3215451L7.3788562,6.2459917l0.3751516,0.3751516L8.6793814,5.6957698z
	 M8.8451891,7.7123246l-0.0713243-0.006484c-0.1296825,0-0.2528801,0.0268626-0.3668146,0.0694723l-2.181437-2.1823626
	c0.0426097-0.114861,0.0685463-0.2371325,0.0685463-0.3668146l-0.006484-0.0713253
	C6.2496972,4.6018095,5.7948837,4.1636696,5.2316937,4.1636696c-0.1639552,0-0.3167949,0.0398312-0.45574,0.1065245
	l0.7058406,0.7058406c0.0370522,0.0370517,0.0629883,0.0805879,0.0796618,0.1278291
	c0.0463152,0.125051,0.0213046,0.2723327-0.0796618,0.3732986C5.4132485,5.5457091,5.3224711,5.5799823,5.2316937,5.5799823
	c-0.0416837,0-0.0833673-0.009263-0.123198-0.0240836C5.0621805,5.5382986,5.0186443,5.513289,4.9806662,5.4762368
	L4.2757521,4.7703962C4.2099848,4.9093413,4.1692276,5.062181,4.1692276,5.2261357
	c0,0.562264,0.4381394,1.0180035,0.9911408,1.0559816l0.0713253,0.0074105c0.1296816,0,0.2528796-0.0268626,0.3668146-0.0685463
	l2.1805096,2.1814365C7.7382607,8.5154266,7.7113981,8.6386242,7.7113981,8.7683067l0.0074105,0.0713243
	c0.0370517,0.5530014,0.4927917,0.9911413,1.0550561,0.9911413c0.1639547,0,0.3177204-0.0398312,0.455739-0.1065245
	L8.5237637,9.0184069C8.4867115,8.9813557,8.4607754,8.9368925,8.4431763,8.8915043
	C8.3968611,8.7664537,8.4218712,8.6191721,8.5237637,8.5182056C8.59231,8.4487333,8.6830873,8.4144592,8.7738657,8.4144592
	c0.0416832,0,0.0833664,0.009263,0.1231976,0.0240841c0.0463152,0.0176001,0.0907774,0.0426092,0.1269035,0.0796623
	l0.7058401,0.7058401c0.0666933-0.1389446,0.1065245-0.2917843,0.1065245-0.455739
	C9.8372564,8.2060423,9.3981905,7.7503028,8.8451891,7.7123246z M14.0004883,6.2089844
	c0.000061-0.0203247-0.0088501-0.0380249-0.0106201-0.0579224l-0.0024414-0.5195312l-1.4437256-0.1658936
	c-0.121521-0.461792-0.303833-0.9026489-0.5353394-1.3167114l0.9111328-1.1466675l-1.8659668-1.8752441l-0.444458,0.3475952
	c-0.0067749,0.0049438-0.0149536,0.0061646-0.0215454,0.0114136l-0.4942627,0.3920288L9.9140015,2.0181885
	C9.4787598,1.7628784,9.0137329,1.5683594,8.5258789,1.4364624L8.3621826,0.0065918L7.8154907,0.005249
	C7.8057251,0.0048218,7.7973022,0,7.7874756,0H6.2744751C6.2719116,0,6.2696533,0.0012817,6.2670898,0.0013428L5.7167969,0
	L5.6538696,0.5145874C5.6500244,0.5328369,5.6397705,0.5481567,5.6375122,0.5670166L5.536499,1.4359741
	c-0.5003662,0.133606-0.9765625,0.3369141-1.4223633,0.600708l-0.2575078-0.197937L3.4124751,1.4869995
	C3.3991694,1.4764404,3.3830562,1.4733887,3.3692012,1.4640503L2.933105,1.1288452L1.6568601,2.4403076L1.4924924,2.6049805
	C1.48822,2.6092529,1.4866941,2.6149902,1.4825437,2.6193848L1.0881345,3.0247192l0.6611937,0.8178711l0.2771605,0.3504028
	C1.795532,4.6104126,1.6203611,5.0545044,1.5032957,5.5172729l-1.5032959,0.1790161l0.0011597,0.5667114
	c-0.000061,0.0031128-0.0016479,0.0057983-0.0016479,0.0089722v1.5130005c0,0.0091553,0.0045166,0.0169678,0.0048828,0.026062
	l0.0010985,0.5307007l0.4921875,0.0578613C0.521423,8.4052124,0.5418088,8.4180908,0.566528,8.4210205l0.9839479,0.1139526
	c0.1240234,0.4260254,0.2960205,0.8359985,0.5150144,1.2210083l-0.622009,0.7839966
	c-0.0045776,0.0057983-0.0055542,0.0129395-0.0098877,0.0188599L1.0863035,11l1.8744504,1.8666382l0.449707-0.3550415
	c0.0009155-0.0007324,0.0021362-0.0008545,0.0030518-0.0015869l0.7780156-0.6149902
	c0.3984375,0.2290649,0.8228149,0.4083252,1.2639771,0.5352173L5.6424561,14l0.5646973-0.0011597
	C6.2093506,13.9988403,6.2112427,14,6.213501,14h1.5130005c0.0083008,0,0.0153809-0.0041504,0.0236206-0.0044556
	l0.5377197-0.0010986l0.0610962-0.5192871c0.0029297-0.0155029,0.0117188-0.0283203,0.0135498-0.0441895l0.1119995-0.9659424
	c0.4766235-0.1239014,0.9313354-0.3078613,1.3599854-0.5495605l0.133606,0.1046143l0.6204224,0.4919434
	c0.0073853,0.0058594,0.0166016,0.0072021,0.0241699,0.0126953l0.4395752,0.3441162l1.8616943-1.8794556l-0.6767578-0.852478
	l-0.265686-0.3369141c0.242981-0.4209595,0.4329834-0.8690186,0.559021-1.3389893l0.9019775-0.1040039
	c0.0211182-0.0024414,0.038269-0.0136719,0.0585938-0.0180664L14,8.2769165l-0.0025635-0.5394897
	c0.0001831-0.0057373,0.0030518-0.0106812,0.0030518-0.0164185V6.2089844z M7,11.092041
	c-2.2599487,0-4.092041-1.8320923-4.092041-4.092041S4.7400513,2.907959,7,2.907959S11.092041,4.7400513,11.092041,7
	S9.2599487,11.092041,7,11.092041z"/>
</svg>
