<?xml version="1.0" encoding="utf-8"?>

<!--
 * Copyright (c) 2015, WSO2 Inc. (http://www.wso2.org) All Rights Reserved.
 *
 * WSO2 Inc. licenses this file to you under the Apache License,
 * Version 2.0 (the "License"); you may not use this file except
 * in compliance with the License.
 * You may obtain a copy of the License at
 *
 * http://www.apache.org/licenses/LICENSE-2.0
 *
 * Unless required by applicable law or agreed to in writing,
 * software distributed under the License is distributed on an
 * "AS IS" BASIS, WITHOUT WARRANTIES OR CONDITIONS OF ANY
 * KIND, either express or implied. See the License for the
 * specific language governing permissions and limitations
 * under the License.
-->

<svg version="1.1" id="globe" xmlns="http://www.w3.org/2000/svg" xmlns:xlink="http://www.w3.org/1999/xlink" x="0px" y="0px"
	 viewBox="0 0 14 14" style="enable-background:new 0 0 14 14;" xml:space="preserve">
<path d="M11.9477787,2.050004C10.6346159,0.7379568,8.8900509,0.0111474,7.0328965,0H6.9637823
	C3.1034434,0.0200653-0.0211684,3.1758897,0.0000116,7.0339994c0.0033442,0.6833344,0.1092444,1.342145,0.2965204,1.9652843
	c0.1638665-0.1961946,0.3556015-0.3656349,0.5685166-0.5060921c-0.0902938-0.3723221-0.1516044-0.756907-0.1727844-1.1526389
	h2.4301302c0.0100324,0.3054385,0.0401304,0.6064177,0.0813756,0.9051671
	C3.4880278,8.3560791,3.7488768,8.513257,3.9762833,8.7127953C3.8815305,8.2624416,3.8213348,7.8053985,3.8057287,7.3416672
	h2.8515007v1.7713194c-0.707859,0.0256395-1.4123735,0.1371136-2.1012821,0.327733
	c0.10813,0.1984243,0.1895056,0.4135685,0.2430129,0.6387453c0.6097617-0.1605225,1.2329006-0.2586193,1.8593841-0.2853727
	v3.4556885c-0.3310771-0.283143-0.6420898-0.5941553-0.924118-0.9285774
	c-0.1159329-0.1371126-0.2240629-0.2797995-0.3299627-0.4224854v1.073493
	c0.0535073,0.059082,0.1036706,0.1203918,0.1582932,0.1783581c-0.0535073-0.0122614-0.1047854-0.030098-0.1582932-0.0434742v0.70117
	C5.9181581,13.9286566,6.4510031,14,7.0005689,14c0.0122623,0,0.0256391,0,0.0345573,0
	c1.8705325-0.0111475,3.6240153-0.7479887,4.9394069-2.0756426c1.3142767-1.3298826,2.0343981-3.0911694,2.0254803-4.9583564
	C13.9877501,5.1077313,13.2598257,3.3631659,11.9477787,2.050004z M3.1491477,6.2893543
	C3.1380002,6.4119759,3.1324265,6.5368266,3.1257381,6.657218H0.6922643
	c0.0646548-1.2362452,0.4893702-2.3788519,1.1704755-3.328609C2.4045026,3.6942434,2.9763634,3.9952226,3.568289,4.2326617
	C3.348686,4.8892431,3.2093437,5.5792661,3.1491477,6.2893543z M2.2896843,2.7946491
	c0.870611-0.9709371,2.0343976-1.6754518,3.3553624-1.9652838C4.8558121,1.6330918,4.2360172,2.5694721,3.8079579,3.592802
	C3.2806869,3.378772,2.7745955,3.1145792,2.2896843,2.7946491z M6.6572294,6.657218H3.8090725
	C3.8135316,6.5535474,3.8202202,6.4498768,3.829138,6.3439765c0.0535073-0.6465483,0.1828172-1.2774901,0.3812406-1.8816781
	c0.7970381,0.2519307,1.6208296,0.3957319,2.4468503,0.4236007C6.6572294,4.8858986,6.6572294,6.657218,6.6572294,6.657218z
	 M6.6572294,4.2047935c-0.7446446-0.030098-1.4859457-0.1560636-2.2060671-0.3823552
	c0.4871402-1.1470659,1.234015-2.1737401,2.2060671-3.0064497V4.2047935z M6.6572294,0.7145473L6.6393938,0.6922526
	c0.0044594,0,0.011148,0,0.0178356,0V0.7145473z M12.1328259,3.3319533
	c0.6799898,0.9497573,1.1080503,2.0912497,1.1727047,3.3252647h-2.4312449
	c-0.0345564-0.8315945-0.1828165-1.6464686-0.4425507-2.4267855C11.0203161,3.9963374,11.5921764,3.695358,12.1328259,3.3319533z
	 M11.7036505,2.7979934c-0.4826813,0.3199298-0.9887724,0.5830083-1.5127001,0.793694
	C9.8442669,2.7745841,9.3749628,2.0042996,8.7852659,1.3053588C8.6481524,1.1414922,8.5054655,0.9843141,8.352747,0.8293654
	C9.6681385,1.1214269,10.8330402,1.8237121,11.7036505,2.7979934z M7.3405643,0.6933673
	c0.0066886,0,0.0122623,0,0.0178356,0.0011147L7.3405643,0.7145473V0.6933673z M7.3405643,0.8159885
	c0.3310771,0.2853731,0.6432047,0.5986146,0.9230037,0.9308065c0.5350733,0.634286,0.9664774,1.3332273,1.2830639,2.0756431
	c-0.7201214,0.2262919-1.461422,0.3511426-2.2060676,0.3812406V0.8159885z M7.3405643,4.8858986
	c0.8260217-0.0278687,1.6498132-0.1716695,2.4479671-0.4236007c0.2329798,0.7056289,0.3689785,1.4424715,0.4013052,2.1949196
	H7.3405643V4.8858986L7.3405643,4.8858986z M7.3405643,7.3416672h2.8503861
	c-0.0044584,0.1259656-0.0111475,0.2541609-0.022295,0.3790112c-0.052392,0.626483-0.1750135,1.2384739-0.3622904,1.8214827
	C9.0048685,9.2857714,8.1755037,9.1408548,7.3405643,9.1129866V7.3416672L7.3405643,7.3416672z M7.3405643,13.2497807V9.7940912
	C8.0941277,9.825305,8.8465767,9.9546146,9.5722713,10.183136C9.0862446,11.3547258,8.3293371,12.4025803,7.3405643,13.2497807z
	 M11.4885063,11.44279c-0.8505459,0.8583488-1.9028578,1.4424715-3.0521536,1.7088947
	c0.7658253-0.8003826,1.3633261-1.7256155,1.7791224-2.735569c0.5161238,0.2095709,1.0177565,0.4737644,1.4937496,0.7892351
	C11.6389952,11.2844973,11.5643082,11.3658733,11.4885063,11.44279z M12.1406288,10.6691618
	C11.60221,10.310216,11.035923,10.011466,10.4506855,9.772912c0.2062273-0.6387453,0.3399954-1.3064737,0.3990765-1.9953818
	c0.0144911-0.1449161,0.0200644-0.290947,0.0267534-0.4380922h2.43013
	C13.2419901,8.5500441,12.8384542,9.6971102,12.1406288,10.6691618z M6.6252456,13.4329472
	c0.0064635-0.063344,0.0204115-0.1253262,0.0288482-0.1883297c-0.9859424-0.8463955-1.7413025-1.8921432-2.2263474-3.0614491
	C5.0885339,9.9751081,5.772182,9.860055,6.4579391,9.8156261C6.4312005,9.5915079,6.4208584,9.3646688,6.4011955,9.1397343
	C5.6540675,9.1864767,4.9119744,9.3123474,4.1936269,9.542181C4.006794,8.9605217,3.8845294,8.3498783,3.8320038,7.7250156
	C3.6216974,7.7270565,3.3907077,7.7397799,3.148968,7.7566533c0.0006802,0.0069399,0.0006123,0.013948,0.0012927,0.0208879
	C3.2093179,8.4664278,3.343081,9.1341553,3.549305,9.7728987c-0.585197,0.2385416-1.1514792,0.5372972-1.6899338,0.8962669
	C1.2543072,9.8263083,0.8860843,8.848259,0.7525932,7.8148937C0.494184,7.7867942,0.2497226,7.7398477,0.0307756,7.6622162
	c0.1500923,1.605566,0.8451029,3.0988693,1.9946771,4.2621193c1.2895286,1.3015032,3.0007582,2.0306692,4.8296938,2.0696545
	C6.7030129,13.8440342,6.6036773,13.644206,6.6252456,13.4329472z M2.5115178,11.4427605
	c-0.0757947-0.0768833-0.1505008-0.1582565-0.2207162-0.2373848c0.4759955-0.3154936,0.9776416-0.5796862,1.4937115-0.7892437
	c0.4158497,1.0099592,1.0132933,1.9351435,1.7791319,2.7355452C4.4143429,12.8852396,3.3620636,12.3011312,2.5115178,11.4427605z"/>
</svg>
