<?xml version="1.0" encoding="utf-8"?>
<!-- Generator: Adobe Illustrator 19.1.0, SVG Export Plug-In . SVG Version: 6.00 Build 0)  -->
<svg version="1.1" id="globe" xmlns="http://www.w3.org/2000/svg" xmlns:xlink="http://www.w3.org/1999/xlink" x="0px" y="0px"
	 viewBox="0 0 14 14" style="enable-background:new 0 0 14 14;" xml:space="preserve">
<path d="M7.98526,13.9228821c0.1499634-0.0211182,0.3002319-0.0403442,0.4476929-0.0709229
	c0.0549316-0.0114746,0.1075439-0.0286255,0.1619873-0.0413818c0.1729736-0.0402222,0.345459-0.0822144,0.5142212-0.1353149
	c0.0205688-0.0065308,0.0400391-0.0153809,0.0605469-0.0220337c1.0476685-0.3405151,2.0074463-0.9241943,2.8047485-1.7289429
	c0.6331787-0.640686,1.1246338-1.3832397,1.4669189-2.1878052c0.0073242-0.0171509,0.0164185-0.0332642,0.0236206-0.0505371
	c0.071228-0.1712646,0.1315308-0.3466187,0.1888428-0.5232544c0.013855-0.0427246,0.0316162-0.0836792,0.0446777-0.126709
	c0.0474243-0.1564941,0.0836792-0.3164062,0.1200562-0.4763794c0.0151367-0.0663452,0.0352173-0.1306763,0.0484619-0.1977539
	c0.0285034-0.1448975,0.0455933-0.2925415,0.0649414-0.4396973c0.0112305-0.0847168,0.0280762-0.1676636,0.0361938-0.2532959
	c0.0219116-0.2321777,0.0328369-0.4666138,0.0317383-0.7028198c-0.0020142-0.3092041-0.0310669-0.6135254-0.0721436-0.914978
	c-0.0085449-0.0608521-0.0176392-0.1210938-0.027771-0.1814575c-0.2345581-1.4402466-0.9025879-2.7688599-1.9522705-3.819519
	c-1.1269531-1.1259766-2.5725098-1.8171997-4.1334839-1.9986572C7.8128357,0.051239,7.8113098,0.0509338,7.809906,0.0507507
	C7.5534363,0.0210876,7.2947083,0.0016785,7.0328674,0.0000916H6.9994202H6.9648743H6.9637756
	C6.9477234,0.0001526,6.9322205,0.002594,6.9161682,0.0027771C6.6960754,0.0055847,6.4774475,0.0166931,6.2612,0.0393372
	c-0.083374,0.0087891-0.1640015,0.026062-0.24646,0.0377808C5.8647766,0.0982361,5.7145081,0.1174622,5.5670471,0.1480408
	C5.5121155,0.1595154,5.4595032,0.1766663,5.4050598,0.1894226C5.2320862,0.2296448,5.0596008,0.271637,4.8908386,0.3247375
	C4.8702698,0.3312683,4.8507996,0.3401184,4.8302917,0.3467712C3.7826233,0.6872864,2.8228455,1.2709656,2.0255432,2.0757141
	c-0.6331177,0.640686-1.1245117,1.3831177-1.4667969,2.187561C0.5513611,4.2804871,0.5422668,4.2967224,0.5350037,4.3140564
	c-0.0709839,0.1706543-0.1310425,0.34552-0.1881714,0.5214233c-0.0141602,0.043396-0.0320435,0.0849609-0.0453491,0.1287231
	c-0.0473633,0.15625-0.0836182,0.315918-0.1199341,0.475647c-0.0151978,0.0665894-0.0352783,0.1311035-0.048584,0.1983643
	C0.1044617,5.7830505,0.0873718,5.9307556,0.0680237,6.0779114C0.0567932,6.1626282,0.0399475,6.245575,0.0318298,6.3312073
	C0.0099182,6.563385-0.0010071,6.797821,0.0000916,7.0340271c0.0020142,0.3092041,0.0310669,0.6134033,0.0721436,0.914856
	C0.08078,8.0097351,0.0898743,8.0700378,0.1000061,8.1304016c0.2345581,1.4402466,0.9025879,2.7689209,1.9522705,3.819519
	c1.1270142,1.1260376,2.5726318,1.8171997,4.1334839,1.9986572c0.0014038,0.0001831,0.0028076,0.0004883,0.0042725,0.0006714
	c0.2564697,0.0296631,0.5151978,0.0490723,0.7770386,0.0506592h0.0335083c0.0122681,0,0.0256348,0,0.0345459,0h0.0010986
	c0.0160522-0.000061,0.0315552-0.0025024,0.0476074-0.0026855c0.2200928-0.0028076,0.4387207-0.013916,0.6549683-0.0365601
	C7.8221741,13.9518738,7.9028015,13.9346008,7.98526,13.9228821z M8.2635193,1.7468567
	C8.7986145,2.381134,9.230011,3.0801086,9.5466003,3.8224792c-0.2611084,0.0820923-0.5274658,0.1359863-0.793335,0.1916504
	C8.6214294,4.0419617,8.490509,4.0749817,8.3577576,4.0967102C8.0207214,4.1506653,7.6817932,4.1897888,7.3416443,4.2036438
	V0.8171692C7.6723328,1.1022034,7.9840393,1.4150696,8.2635193,1.7468567z M8.9695129,4.6619568
	C9.127594,4.6268616,9.287384,4.6026917,9.4440002,4.5593567C9.4419861,4.5556335,9.4414978,4.551178,9.4394836,4.5474548
	c0.1157837-0.0317383,0.2341919-0.0488892,0.348999-0.085083c0.2329712,0.7056274,0.3689575,1.4424438,0.4013062,2.1948853
	H7.3427429V4.8870544c0.3805542-0.0137939,0.7595215-0.0566406,1.1362305-0.1189575
	C8.6439514,4.7413025,8.8058167,4.6978455,8.9695129,4.6619568z M12.9564514,9.1041565
	c-0.0349731,0.0991211-0.0852661,0.1919556-0.1251831,0.2891235c-0.1862183,0.4511108-0.4111328,0.8826904-0.6921997,1.2750244
	c-0.2717285-0.1811523-0.5508423-0.3464966-0.8356934-0.4970093c-0.001709-0.0008545-0.00354-0.0015869-0.005249-0.0024414
	c-0.2772827-0.1463013-0.5599365-0.2787476-0.8474731-0.3959351c0.2061768-0.6387329,0.3399658-1.3064575,0.3990479-1.9953613
	c0.0143433-0.1438599,0.0199585-0.2886963,0.0265503-0.4347534h2.4298706
	c-0.0265503,0.4926147-0.1230469,0.9702148-0.2589111,1.4342651C13.0152283,8.8855286,12.9940491,8.9982605,12.9564514,9.1041565z
	 M11.1752625,11.7176208c-0.0823364,0.072998-0.1623535,0.149353-0.2478027,0.2175293
	c-0.1783447,0.1421509-0.3677979,0.2700806-0.5609741,0.3927002c-0.0705566,0.0446777-0.1376953,0.0955811-0.2097778,0.1373901
	c-0.2443848,0.1417847-0.5001831,0.2654419-0.763916,0.3740234c-0.0300903,0.0123291-0.0580444,0.029541-0.0883179,0.0414429
	c-0.2771606,0.1091309-0.5662842,0.1936035-0.861145,0.2628784c0.7617798-0.7982788,1.3570557-1.7198486,1.7713623-2.7258911
	c0.4449463,0.1820068,0.8718262,0.4071045,1.286499,0.6641846c0.0686035,0.0427246,0.1403198,0.0786133,0.2079468,0.1234131
	c-0.0028076,0.0031738-0.0060425,0.0064087-0.0089111,0.0095825C11.5379944,11.3951111,11.356842,11.5568542,11.1752625,11.7176208z
	 M7.3427429,9.1132507c0-0.001709,0-1.7704468,0-1.7704468h2.8480835c-0.0001831,0.0040283-0.0005493,0.0081177-0.0007324,0.012146
	c-0.0043945,0.0996094-0.0107422,0.1992798-0.0192871,0.3010864c-0.0535278,0.6465454-0.1828003,1.2774658-0.3812256,1.8816528
	C9.7360535,9.5207825,9.6804504,9.5138855,9.6266785,9.4979553C8.8811951,9.2757874,8.115509,9.1392517,7.3427429,9.1132507z
	 M8.459137,9.9138489c0.3670044,0.0635376,0.7310181,0.151001,1.0896606,0.2636719
	c-0.4871216,1.1470947-1.2340088,2.1737061-2.2060547,3.0064087V9.7951965
	c0.2252808,0.0090942,0.4487915,0.0443726,0.6729126,0.071167C8.1634827,9.8841248,8.3122864,9.8884583,8.459137,9.9138489z
	 M12.1327209,3.3320007c0.6799927,0.9497681,1.1080322,2.0912476,1.1727295,3.3252563h-2.4282837
	c-0.0006714-0.0186157-0.0078735-0.0391235-0.0093384-0.0579834c-0.0390015-0.8113403-0.1824951-1.6068726-0.4361572-2.3687744
	C11.0202332,3.9963684,11.5921326,3.6954041,12.1327209,3.3320007z M10.1908875,3.5917664
	C9.8442078,2.7746887,9.3749084,2.004364,8.7852478,1.3054504C8.6481018,1.141571,8.5054626,0.9844055,8.3526917,0.8294983
	c1.3154297,0.2920532,2.4802856,0.9943237,3.3508911,1.9685669C11.2209167,3.1180115,10.7148132,3.381073,10.1908875,3.5917664z
	 M5.7364197,12.2531433c-0.5350342-0.6342773-0.9664307-1.3331909-1.28302-2.0756226
	c0.2612915-0.0820923,0.52771-0.1359863,0.7937012-0.1917114c0.1315308-0.02771,0.262207-0.0606689,0.3946533-0.0823975
	c0.3372192-0.0540161,0.6762695-0.0932007,1.0166016-0.1069946v3.3864136
	C6.3276062,12.8978577,6.0159607,12.5849915,5.7364197,12.2531433z M5.0290222,9.3384094
	c-0.1575928,0.0349731-0.3168945,0.059082-0.4730225,0.1022949c0.0020142,0.0037231,0.0025024,0.0081787,0.0045166,0.0119019
	c-0.1157837,0.0317383-0.2342529,0.0488281-0.348999,0.085083C3.9785461,8.8320618,3.8424988,8.0952454,3.8102112,7.342804
	h2.8470459v1.7702026C6.276886,9.1268005,5.8980408,9.1695251,5.5215149,9.231842
	C5.3558655,9.2587585,5.1933899,9.3023987,5.0290222,9.3384094z M1.0436707,4.8954163
	C1.0774841,4.799469,1.1263123,4.7098083,1.1647644,4.6157532c0.1867676-0.4544067,0.4133301-0.8889771,0.696167-1.2839355
	c0.5379639,0.3585205,1.1037598,0.6570435,1.6884155,0.8953247C3.3431091,4.8658752,3.2093811,5.5335999,3.1502991,6.2225037
	C3.1358948,6.3663025,3.1303406,6.5112,3.1236877,6.6572571H0.6938782c0.0264282-0.4904785,0.1223755-0.9659424,0.2571411-1.4281006
	C0.98349,5.1184998,1.0053406,5.0035095,1.0436707,4.8954163z M2.8248596,2.2822571
	C2.907074,2.2094421,2.986969,2.1332092,3.0722961,2.065094C3.250824,1.922821,3.4403992,1.7946472,3.6338196,1.6719666
	c0.0704346-0.0446167,0.1373901-0.095459,0.2094116-0.137207C4.087677,1.3929138,4.3435974,1.2693787,4.6073914,1.1607361
	C4.6374207,1.148407,4.6653137,1.131134,4.6955261,1.1193542c0.2771606-0.1091309,0.5662842-0.1936035,0.861145-0.2628784
	C4.7948303,1.6546936,4.1996155,2.5763245,3.7853088,3.5823669c-0.447937-0.1832886-0.8778076-0.4098511-1.2949829-0.6692505
	C2.42453,2.8720398,2.3556824,2.837738,2.290802,2.7947083C2.2934875,2.7917175,2.2965393,2.7886658,2.2992249,2.785614
	C2.4617004,2.6051331,2.6430359,2.4432068,2.8248596,2.2822571z M6.6572571,4.8868103c0,0.001709,0,1.7704468,0,1.7704468H3.8091736
	c0.0001831-0.0040283,0.0005493-0.0080566,0.0007324-0.012085c0.0043945-0.0996704,0.0107422-0.1993408,0.0192871-0.3011475
	c0.0534668-0.6465454,0.1828003-1.2774658,0.3812256-1.8816528c0.0536499,0.0169678,0.109375,0.0238647,0.163269,0.039856
	C5.1190491,4.7242126,5.884613,4.8608093,6.6572571,4.8868103z M5.540863,4.0862732
	c-0.3670044-0.0635376-0.730957-0.151062-1.0896606-0.2637939C4.938324,2.6754456,5.6852112,1.6487732,6.6572571,0.8160706
	v3.3887939C6.4309387,4.1957092,6.2064514,4.1603699,5.9812927,4.1333923
	C5.8345032,4.1157532,5.6867371,4.1114807,5.540863,4.0862732z M1.867218,10.6679993
	c-0.4917603-0.6868896-0.8459473-1.4763794-1.0320435-2.326355C0.8208313,8.2762756,0.8085632,8.2102356,0.7961121,8.1441956
	C0.7475281,7.8816223,0.7088318,7.615509,0.6945496,7.342804h2.4281006C3.132782,7.6475525,3.1626892,7.9477234,3.2038269,8.245697
	c0.0081787,0.0031738,0.0153198,0.0083008,0.0234375,0.0115356c0.074585,0.5137939,0.1776733,1.0214233,0.3410645,1.5123291
	C2.9797058,10.0036316,2.4078674,10.3045959,1.867218,10.6679993z M3.8091125,10.4082947
	c0.3466797,0.8170776,0.815979,1.5873413,1.4056396,2.2863159c0.137085,0.1638184,0.2797852,0.3209839,0.4324951,0.4759521
	c-1.3153687-0.2920532-2.4802246-0.9943237-3.3508301-1.9685669C2.7790833,10.8820496,3.2851868,10.618988,3.8091125,10.4082947z"/>
</svg>
