<?xml version="1.0" encoding="utf-8"?>

<!--
 * Copyright (c) 2015, WSO2 Inc. (http://www.wso2.org) All Rights Reserved.
 *
 * WSO2 Inc. licenses this file to you under the Apache License,
 * Version 2.0 (the "License"); you may not use this file except
 * in compliance with the License.
 * You may obtain a copy of the License at
 *
 * http://www.apache.org/licenses/LICENSE-2.0
 *
 * Unless required by applicable law or agreed to in writing,
 * software distributed under the License is distributed on an
 * "AS IS" BASIS, WITHOUT WARRANTIES OR CONDITIONS OF ANY
 * KIND, either express or implied. See the License for the
 * specific language governing permissions and limitations
 * under the License.
-->

<svg version="1.1" id="grouping" xmlns="http://www.w3.org/2000/svg" xmlns:xlink="http://www.w3.org/1999/xlink" x="0px" y="0px"
	 viewBox="0 0 14 14" style="enable-background:new 0 0 14 14;" xml:space="preserve">
<path d="M9.45,8.94c-0.36,0-0.66-0.3-0.66-0.66c0-0.37,0.3-0.67,0.66-0.67c0.37,0,0.66,0.3,0.66,0.67
	C10.11,8.64,9.82,8.94,9.45,8.94z M8.29,11.65c0.38,0,0.67-0.28,0.68-0.66c0-0.36-0.29-0.66-0.66-0.67c-0.36,0-0.66,0.29-0.66,0.65
	C7.64,11.34,7.93,11.64,8.29,11.65z M8.32,4.91C7.95,4.9,7.65,5.19,7.65,5.56S7.94,6.23,8.3,6.23c0.37,0,0.67-0.29,0.67-0.66
	C8.97,5.21,8.68,4.91,8.32,4.91z M9.53,7.13c0.54,0.06,0.95,0.42,1.05,0.94c0.11,0.57-0.24,1.13-0.8,1.3
	C9.22,9.54,8.62,9.26,8.4,8.71C8.37,8.66,8.35,8.64,8.29,8.64c-0.28,0-0.55,0-0.86,0C7.46,8.66,7.48,8.68,7.5,8.69
	c0.28,0.19,0.54,0.41,0.74,0.7C8.33,9.52,8.39,9.66,8.46,9.8C8.48,9.84,8.5,9.86,8.54,9.87c0.54,0.11,0.91,0.57,0.91,1.12
	c0,0.54-0.37,1-0.9,1.11C8,12.22,7.44,11.92,7.24,11.4c-0.2-0.53,0.01-1.12,0.5-1.4c0.02-0.02,0.05-0.03,0.08-0.05
	c-0.1-0.27-0.28-0.49-0.49-0.67C7,8.97,6.63,8.74,6.18,8.67C6.01,8.64,5.83,8.64,5.65,8.64c-0.02,0-0.05,0.04-0.06,0.06
	C5.44,9.13,5.16,9.44,4.73,9.58C4.2,9.76,3.71,9.66,3.31,9.26C2.9,8.86,2.79,8.37,2.97,7.83C3.15,7.3,3.53,6.99,4.08,6.91
	c0.67-0.1,1.3,0.3,1.51,0.93c0.02,0.06,0.04,0.07,0.1,0.08c0.84,0.03,1.46-0.37,1.96-1c0.07-0.09,0.12-0.2,0.18-0.31
	C7.8,6.59,7.78,6.58,7.76,6.57c-0.48-0.26-0.7-0.81-0.55-1.33c0.15-0.51,0.65-0.85,1.18-0.81C8.94,4.46,9.4,4.91,9.45,5.45
	C9.5,6.03,9.14,6.54,8.58,6.68c-0.07,0.01-0.1,0.04-0.13,0.11C8.29,7.18,8.02,7.47,7.69,7.72C7.61,7.79,7.52,7.84,7.42,7.91
	c0.08,0,0.14,0,0.2,0c0.23,0,0.45,0,0.68,0.01c0.05,0,0.07-0.02,0.09-0.07C8.58,7.39,9.06,7.09,9.53,7.13z M1.83,2.35
	c0.18,0,0.36,0,0.54,0c0.45,0,0.99,0,1.54,0c0.03,0,0.04,0,0.04,0.01c0,0,0,0,0.01,0.01c0.08,0.12,0.17,0.25,0.26,0.37
	c0.08,0.1,0.16,0.21,0.25,0.31c0.19,0.2,0.43,0.3,0.73,0.3c1.36,0,2.72,0,3.75,0c0.51,0,1.02,0,1.53,0c0.51,0,1.02,0,1.53,0
	c0.1,0,0.15,0.01,0.18,0.01c0.01,0.03,0.01,0.07,0.01,0.15V3.9H2.55c-0.68,0-1.08,0.32-1.2,0.97C1.24,5.42,1.13,5.99,1.01,6.53
	c0,0.04-0.01,0.08-0.02,0.12c0-1.38,0-2.77,0-4.15V2.48c0-0.04,0-0.08,0-0.11c0-0.01,0-0.01,0-0.01c0.01,0,0.02,0,0.03,0
	c0.03-0.01,0.06-0.01,0.09-0.01h0.18C1.47,2.35,1.65,2.35,1.83,2.35z M0.04,2.13c0,0.01,0,0.01,0,0.01C0.01,2.18,0,2.22,0,2.27v9.49
	c0,0.05,0.01,0.09,0.04,0.13s0.06,0.09,0.09,0.13c0.08,0.11,0.15,0.23,0.26,0.33c0.16,0.17,0.39,0.25,0.67,0.25
	c1.79,0,3.58,0,5.37,0c1.71,0,3.43,0,5.15,0c0.25,0,0.5-0.09,0.69-0.25c0.19-0.16,0.33-0.38,0.37-0.62
	c0.12-0.62,0.25-1.26,0.39-1.97c0.31-1.55,0.63-3.15,0.91-4.56c0.01-0.03,0.02-0.06,0.03-0.1c0.01-0.02,0.02-0.04,0.02-0.06
	C14,5.02,14,5,14,4.97V4.76c0-0.05-0.01-0.09-0.03-0.12c-0.03-0.04-0.05-0.08-0.07-0.11c-0.05-0.1-0.11-0.2-0.19-0.29
	c-0.13-0.16-0.31-0.26-0.53-0.31c0-0.01,0-0.02,0-0.02c0-0.16,0-0.3,0.01-0.44c0.02-0.25-0.08-0.49-0.26-0.69
	c-0.22-0.24-0.54-0.38-0.85-0.38h-0.01c-1.2,0.01-2.42,0.01-3.55,0.01c-0.27,0-0.55,0-0.82,0c-0.28,0-0.55,0-0.82,0
	c-0.67,0-1.17,0-1.65,0c-0.05,0-0.05-0.01-0.07-0.03C5.02,2.18,4.9,2.01,4.78,1.85C4.55,1.55,4.25,1.4,3.86,1.4
	c-0.01,0-0.02,0-0.03,0c-0.34,0.01-0.7,0.01-1.15,0.01c-0.26,0-0.52,0-0.77,0s-0.51,0-0.77,0C0.6,1.41,0.22,1.66,0.04,2.13z"/>
</svg>
