<?xml version="1.0" encoding="utf-8"?>

<!--
 * Copyright (c) 2015, WSO2 Inc. (http://www.wso2.org) All Rights Reserved.
 *
 * WSO2 Inc. licenses this file to you under the Apache License,
 * Version 2.0 (the "License"); you may not use this file except
 * in compliance with the License.
 * You may obtain a copy of the License at
 *
 * http://www.apache.org/licenses/LICENSE-2.0
 *
 * Unless required by applicable law or agreed to in writing,
 * software distributed under the License is distributed on an
 * "AS IS" BASIS, WITHOUT WARRANTIES OR CONDITIONS OF ANY
 * KIND, either express or implied. See the License for the
 * specific language governing permissions and limitations
 * under the License.
-->

<svg version="1.1" id="grouping" xmlns="http://www.w3.org/2000/svg" xmlns:xlink="http://www.w3.org/1999/xlink" x="0px" y="0px"
	 viewBox="0 0 14 14" style="enable-background:new 0 0 14 14;" xml:space="preserve">
<path d="M9.4499998,8.9399996C9.0900002,8.9399996,8.79,8.6399994,8.79,8.2799997
	c0-0.3699999,0.3000002-0.6700001,0.6599998-0.6700001c0.3699999,0,0.6599998,0.3000002,0.6599998,0.6700001
	C10.1099997,8.6400003,9.8199997,8.9399996,9.4499998,8.9399996z M8.29,11.6499996
	c0.3800001,0,0.6700001-0.2799997,0.6800003-0.6599998c0-0.3599997-0.29-0.6599998-0.6599998-0.6700001
	c-0.3600001,0-0.6599998,0.29-0.6599998,0.6499996C7.6399999,11.3400002,7.9299998,11.6400003,8.29,11.6499996z
	 M8.3199997,4.9099998C7.9499998,4.9000001,7.6500001,5.1900001,7.6500001,5.5599999S7.9400001,6.23,8.3000002,6.23
	c0.3699999,0,0.6700001-0.29,0.6700001-0.6599998C8.9700003,5.21,8.6800003,4.9099998,8.3199997,4.9099998z M9.5299997,7.1300001
	c0.54,0.0599999,0.9499998,0.4200001,1.0500002,0.9399996c0.1099997,0.5699997-0.2399998,1.1300001-0.8000002,1.3000002
	C9.2200003,9.54,8.6199999,9.2600002,8.3999996,8.71C8.3699999,8.6599998,8.3500004,8.6400003,8.29,8.6400003
	c-0.2799997,0-0.5500002,0-0.8600001,0C7.46,8.6599998,7.48,8.6800003,7.5,8.6899996
	c0.2800002,0.1899996,0.54,0.4099998,0.7399998,0.6999998C8.3299999,9.5200005,8.3900003,9.6599998,8.46,9.8000002
	C8.4799995,9.8400002,8.5,9.8599997,8.54,9.8699999c0.54,0.1099997,0.9099998,0.5699997,0.9099998,1.1199999
	c0,0.54-0.3699999,1-0.8999996,1.1099997C8,12.2200003,7.4400001,11.9200001,7.2399998,11.3999996
	C7.04,10.8699999,7.25,10.2799997,7.7399998,10c0.02-0.0200005,0.0500002-0.0299997,0.0799999-0.0500002
	C7.7199998,9.6799994,7.5399995,9.46,7.3299999,9.2799997C7,8.9700003,6.6300001,8.7399998,6.1799998,8.6700001
	C6.0100002,8.6400003,5.8299999,8.6400003,5.6500001,8.6400003c-0.02,0-0.0500002,0.04-0.0599999,0.0600004
	C5.4400001,9.1300001,5.1599998,9.4399996,4.73,9.5799999C4.1999998,9.7600002,3.71,9.6599998,3.3099999,9.2600002
	C2.9000001,8.8599997,2.79,8.3699999,2.97,7.8299999C3.1500001,7.3000002,3.53,6.9899998,4.0799999,6.9099998
	C4.75,6.8099999,5.3800001,7.21,5.5900002,7.8399997c0.02,0.0599999,0.04,0.0700002,0.0999999,0.0799999
	c0.8400002,0.0300002,1.46-0.3699999,1.96-1C7.7200003,6.8299994,7.77,6.7199998,7.8299999,6.6099997
	C7.8000002,6.5900002,7.7800002,6.5799999,7.7600002,6.5700002C7.2800002,6.3100004,7.0600004,5.7600002,7.21,5.2400002
	c0.1500001-0.5099998,0.6500001-0.8499999,1.1800003-0.8099999C8.9399996,4.46,9.3999996,4.9099998,9.4499998,5.4499998
	C9.5,6.0300002,9.1400003,6.54,8.5799999,6.6799998C8.5100002,6.6900001,8.4799995,6.7199998,8.4499998,6.79
	C8.29,7.1799998,8.0200005,7.4699998,7.6900001,7.7199998C7.6100001,7.79,7.52,7.8400002,7.4200001,7.9099998
	c0.0799999,0,0.1399999,0,0.1999998,0c0.23,0,0.4499998,0,0.6800003,0.0100002c0.0500002,0,0.0699997-0.02,0.0900002-0.0700002
	C8.5799999,7.3899999,9.0600004,7.0900002,9.5299997,7.1300001z M3.9100001,2.3499999c0.03,0,0.04,0,0.04,0.01c0,0,0,0,0.01,0.01
	c0.0799999,0.1199999,0.1700001,0.25,0.2600002,0.3699999c0.0799999,0.0999999,0.1599998,0.21,0.25,0.3099999
	c0.1900001,0.2,0.4299998,0.3,0.73,0.3c1.3600001,0,2.7199998,0,3.7500005,0c0.5100002,0,1.0200005,0,1.5299997,0
	c0.5100002,0,1.0199995,0,1.5299997,0c0.1000004,0,0.1499996,0.01,0.1800003,0.01
	c0.0100002,0.03,0.0100002,0.0699999,0.0100002,0.1500001v0.3900003H2.55c-0.6800001,0-1.08,0.3200002-1.2,0.9699998
	C1.24,5.4200001,1.13,5.9899998,1.01,6.5300002c0,0.04-0.01,0.0799999-0.02,0.1199999c0-1.3800001,0-4.29,0-4.29
	C1,2.3600001,3.3600001,2.3499999,3.9100001,2.3499999z M0.04,2.1400001C0.01,2.1800001,0,2.22,0,2.27v9.4899998
	c0,0.0500002,0.1981394,0.8400002,1.0599999,0.8400002c1.79,0,8.7999992,0,10.5200005,0c0.25,0,0.5-0.0900002,0.6899996-0.25
	s0.3299999-0.3800001,0.3699999-0.6199999c0.1199999-0.6199999,0.25-1.2600002,0.3900003-1.9700012
	c0.090457-0.4522839,0.1822329-0.9043045,0.2742062-1.3562822c0.1027927-0.5051513,0.2060089-1.0102167,0.3093195-1.5152621
	c0.0857868-0.4193826,0.1844578-0.8378973,0.2700958-1.2573109c0.0350542-0.17168,0.0837803-0.3411689,0.1053782-0.5150857
	c0.0211115-0.1699924,0.0087442-0.3593769-0.0555792-0.5197439c-0.0621147-0.1548605-0.1697454-0.2885294-0.2791252-0.4123259
	c-0.0603256-0.0682759-0.1352739-0.1206088-0.215354-0.1639791c-0.0238934-0.0129409-0.2589397-0.1030293-0.2589397-0.1100092
	c0-0.1600001,0-0.3,0.0100002-0.4400001c0.0200005-0.25-0.0799999-0.49-0.2600002-0.6900001
	c-0.2200003-0.24-0.54-0.3800001-0.8600006-0.3800001c-1.1999998,0.01-6.3600006,0.01-6.8400006,0.01
	c-0.0500002,0-0.0500002-0.01-0.0700002-0.03C5.02,2.1800001,4.9000001,2.01,4.7800002,1.85C4.5500002,1.55,4.25,1.4,3.8599999,1.4
	c-0.01,0-0.02,0-0.03,0C3.49,1.41,1.3999999,1.41,1.1399999,1.41C0.6,1.41,0.22,1.66,0.04,2.1400001z"/>
</svg>
