<?xml version="1.0" encoding="utf-8"?>
<!-- Generator: Adobe Illustrator 19.1.0, SVG Export Plug-In . SVG Version: 6.00 Build 0)  -->
<svg version="1.1" id="hand" xmlns="http://www.w3.org/2000/svg" xmlns:xlink="http://www.w3.org/1999/xlink" x="0px" y="0px"
	 viewBox="0 0 14 14" style="enable-background:new 0 0 14 14;" xml:space="preserve">
<path d="M6.7713771,3.8726742c0.83566-0.51337,1.6889005-0.1373401,1.99684,0.5880001
	c0.4230404-0.3204498,0.8867197-0.4172301,1.3790503-0.1993799c0.4955301,0.2192602,0.7386503,0.6252499,0.7792397,1.1413202
	c0.19063-0.0634599,0.3779602-0.1523199,0.57481-0.1866899c0.7690802-0.1342902,1.4862604,0.4586,1.4925299,1.2385898
	c0.0088997,1.1073999,0.01929,2.2153196-0.0037403,3.3223295c-0.04247,2.0416803-1.6466799,3.86798-3.6675396,4.1622
	c-2.0021806,0.2915001-3.5638704-0.4728899-4.7513103-2.0706902c-0.1221099-0.16432-0.2383399-0.3353205-0.3369198-0.5144396
	c-0.6698596-1.2172403-1.4578397-2.3594503-2.2134297-3.5227399c-0.31919-0.4914198-0.59612-1.0124202-0.8625801-1.5351
	C1.0107574,6.0065541,0.9414574,5.6805944,1.0462074,5.3530445c0.16932-0.52949,0.70175-0.7885699,1.29724-0.63767
	c0.41575,0.10535,0.77578,0.3231802,1.1132898,0.57827c0.23896,0.1805997,0.4668801,0.3758297,0.7207301,0.5815496
	c0-0.0785599,0-0.13555,0-0.1925402C4.1775169,4.2240143,4.174747,2.7653642,4.1788073,1.3067445
	c0.0019999-0.7191201,0.55794-1.29057,1.25665-1.30639c0.7287202-0.0165,1.3257799,0.54796,1.3334298,1.2773499
	c0.0083799,0.7994598,0.0022802,1.59908,0.00249,2.3986297C6.7713971,3.7351742,6.7713771,3.7940242,6.7713771,3.8726742z
	 M6.2525973,6.7355242c0-0.0696301,0-0.12813,0-0.1866398c0-0.7725401,0.00002-1.5450702-0.00001-2.3176098
	c-0.00003-0.97242,0.0023899-1.94486-0.0012002-2.9172697c-0.00177-0.4800205-0.3876901-0.8349404-0.8499699-0.7930804
	c-0.4133501,0.03744-0.7045403,0.37561-0.7047601,0.8251901c-0.0009198,1.86919-0.0004001,3.7383797-0.0004001,5.6075697
	c0,0.05513,0,0.11026,0,0.2084999C4.6181173,7.0781541,4.575057,7.0299144,4.5299673,6.9836645
	c-0.52461-0.5380802-1.05073-1.07761-1.69731-1.4709601c-0.2258101-0.1373701-0.4832199-0.24403-0.74036-0.3035102
	c-0.35676-0.08251-0.63,0.2118902-0.55476,0.56917c0.03521,0.1671801,0.08764,0.3369899,0.16687,0.48736
	c0.18339,0.3480601,0.3767501,0.6919799,0.58578,1.0252199c0.8030701,1.2802801,1.6127899,2.5563898,2.4229898,3.83218
	c0.1272101,0.2003002,0.2625299,0.3963699,0.4063802,0.5850401c1.0506401,1.3780098,2.4263597,1.9910603,4.1528502,1.7104301
	c1.7209501-0.2797403,3.1619902-1.9358397,3.1988602-3.6721201c0.02316-1.0907898,0.00912-2.1824598,0.0047703-3.2737103
	c-0.0017204-0.4321299-0.3530102-0.7681198-0.7799301-0.7665601c-0.4251995,0.0015502-0.7652903,0.3412099-0.7741003,0.7740202
	c-0.0017204,0.0844302-0.0002499,0.1689301-0.0002499,0.2509499c-0.1848497,0-0.3487396,0-0.5189104,0
	c0-0.4172001,0.00072-0.8220301-0.0001898-1.2268701c-0.0010796-0.4848599-0.3281803-0.8354902-0.7779598-0.83567
	C9.1754875,4.6684642,8.8479376,5.0198045,8.8466272,5.5040145c-0.0006399,0.2358899-0.0001097,0.4717798-0.0001097,0.70962
	c-0.1821899,0-0.3459101,0-0.5069199,0C8.3342972,6.1923943,8.3295679,6.1822443,8.3295479,6.1720843
	c-0.0008802-0.3997502-0.0004807-0.79951-0.0020704-1.1992602C8.3255978,4.5004339,7.9965768,4.1516542,7.5530772,4.1498542
	c-0.4440403-0.00179-0.7790599,0.3471403-0.7814403,0.81567C6.7702971,5.2302241,6.7713871,5.4949541,6.7713771,5.7596641
	c0,0.32268,0,0.64535,0,0.9758601C6.596117,6.7355242,6.4361272,6.7355242,6.2525973,6.7355242z"/>
</svg>
