<?xml version="1.0" encoding="utf-8"?>
<!-- Generator: Adobe Illustrator 19.1.0, SVG Export Plug-In . SVG Version: 6.00 Build 0)  -->
<svg version="1.1" id="home" xmlns="http://www.w3.org/2000/svg" xmlns:xlink="http://www.w3.org/1999/xlink" x="0px" y="0px"
	 viewBox="0 0 14 14" style="enable-background:new 0 0 14 14;" xml:space="preserve">
<path d="M12,7.3000002c0.1999998,0.1236815,0.1999998,0.3000002,0.1999998,0.4000001c0,0.7999997,0,1.5999999,0,2.4000001
	s0,1.6000004,0,2.3999996c0,0.1999998-0.1000004,0.3000002-0.3000002,0.3000002c-1.1000004,0-2.1999998,0-3.3000002,0
	c-0.1999998,0-0.3000002-0.1000004-0.3000002-0.3000002c0-1.1000004,0-2.1999998,0-3.3000002C8.3000002,9,8.1999998,9,8,9
	C7.3000002,9,6.6999998,9,6,9C5.8000002,9,5.6999998,9,5.6999998,9.3000002c0,1.1000004,0,2.1999998,0,3.3000002
	c0,0.1999998-0.0999999,0.3000002-0.3000002,0.3000002c-1.0999999,0-2.2,0-3.3,0c-0.2,0-0.3-0.1000004-0.3-0.3000002
	c0-1.6000004,0-3.1999998,0-4.9000001c0-0.1999998,0.0252161-0.3312507,0.2-0.5c1.6000001-1.2000003,3.2-2.5,4.8000002-3.7
	c0.1999998-0.0999999,0.3000002-0.0999999,0.5,0C8.8000002,4.8000002,10.3999996,6.0999999,12,7.3000002z M0.1941322,6.9893112
	c0.2097127,0.2487292,0.4974579,0.3950405,0.9550819,0.0554147C3.0443995,5.6382146,4.8000002,4.3000002,6.6999998,2.8
	c0.3000002-0.2,0.4000001-0.2,0.6999998,0c0.6000004,0.6000001,1.3000002,1.1000001,2,1.7
	c1.1999998,0.9000001,2.3000002,1.8000002,3.5,2.6999998C13.2999992,7.5,13.7999992,7.3999996,14,6.8999996
	c0-0.0999999,0-0.1999998,0-0.3000002c-0.1000004-0.1999998-0.1999998-0.4000001-0.3999996-0.5
	C13.2000008,5.7999992,7.6999998,1.4,7.5,1.3C7.0999999,1,6.9000001,1,6.5,1.3
	c-2,1.6000001-4.1229582,3.2724283-6.2229581,4.7724285C-0.2935716,6.4674683,0.1941322,6.9893112,0.1941322,6.9893112z"/>
</svg>
