<?xml version="1.0" encoding="utf-8"?>

<!--
 * Copyright (c) 2015, WSO2 Inc. (http://www.wso2.org) All Rights Reserved.
 *
 * WSO2 Inc. licenses this file to you under the Apache License,
 * Version 2.0 (the "License"); you may not use this file except
 * in compliance with the License.
 * You may obtain a copy of the License at
 *
 * http://www.apache.org/licenses/LICENSE-2.0
 *
 * Unless required by applicable law or agreed to in writing,
 * software distributed under the License is distributed on an
 * "AS IS" BASIS, WITHOUT WARRANTIES OR CONDITIONS OF ANY
 * KIND, either express or implied. See the License for the
 * specific language governing permissions and limitations
 * under the License.
-->

<svg version="1.1" id="home" xmlns="http://www.w3.org/2000/svg" xmlns:xlink="http://www.w3.org/1999/xlink" x="0px" y="0px"
	 viewBox="0 0 14 14" enable-background="new 0 0 14 14" xml:space="preserve">
<path d="M12,7.3c0.1,0.1,0.2,0.3,0.2,0.4c0,0.8,0,1.6,0,2.4c0,0.8,0,1.6,0,2.4c0,0.2-0.1,0.3-0.3,0.3c-1.1,0-2.2,0-3.3,0
	c-0.2,0-0.3-0.1-0.3-0.3c0-1.1,0-2.2,0-3.3C8.3,9,8.2,9,8,9C7.3,9,6.7,9,6,9C5.8,9,5.7,9,5.7,9.3c0,1.1,0,2.2,0,3.3
	c0,0.2-0.1,0.3-0.3,0.3c-1.1,0-2.2,0-3.3,0c-0.2,0-0.3-0.1-0.3-0.3c0-1.6,0-3.2,0-4.9c0-0.2,0.1-0.3,0.2-0.5
	c1.6-1.2,3.2-2.5,4.8-3.7c0.2-0.1,0.3-0.1,0.5,0C8.8,4.8,10.4,6.1,12,7.3z M9.5,2.9C9.5,2.9,9.5,2.8,9.5,2.9c-0.4-0.3-0.7-0.5-1-0.8
	L8,1.7C7.8,1.6,7.7,1.4,7.5,1.3C7.1,1,6.9,1,6.5,1.3C4.5,2.9,2.5,4.5,0.4,6C0.2,6.2,0.1,6.3,0,6.5c0,0.1,0,0.2,0,0.3c0,0,0,0,0,0
	c0.1,0.4,0.7,0.7,1.1,0.3C3,5.7,4.8,4.3,6.7,2.8c0.3-0.2,0.4-0.2,0.7,0C8,3.4,8.7,3.9,9.4,4.5c1.2,0.9,2.3,1.8,3.5,2.7
	c0.4,0.3,0.9,0.2,1.1-0.3c0,0,0,0,0,0c0-0.1,0-0.2,0-0.3c-0.1-0.2-0.2-0.4-0.4-0.5c-0.4-0.3-0.9-0.7-1.3-1L12,4.8
	c-0.2-0.1-0.3-0.3-0.5-0.4c0,0,0,0,0,0L9.5,2.9L9.5,2.9z"/>
</svg>
