<?xml version="1.0" encoding="utf-8"?>
<!-- Generator: Adobe Illustrator 19.1.0, SVG Export Plug-In . SVG Version: 6.00 Build 0)  -->
<svg version="1.1" id="hour-glass" xmlns="http://www.w3.org/2000/svg" xmlns:xlink="http://www.w3.org/1999/xlink" x="0px" y="0px"
	 viewBox="0 0 14 14" style="enable-background:new 0 0 14 14;" xml:space="preserve">
<style type="text/css">
	.st0{fill:#0C0D0D;}
</style>
<path class="st0" d="M1.4966689,0.420753c0.0055542-0.2149048,0.1747742-0.3917847,0.4032898-0.4165649
	c0.0652466-0.0073242,0.1318663-0.0028076,0.1978148-0.0028076c1.7095032-0.0003357,2.9657898-0.0003357,4.675293,0
	c1.7294006,0,3.4587708-0.0006714,5.1881714,0.0014038c0.0906982,0,0.1869812,0.0073242,0.2710571,0.0376892
	c0.1803894,0.0652466,0.2669067,0.2117615,0.2710876,0.398407c0.0038452,0.1775818-0.1287231,0.3468018-0.3066711,0.3931885
	c-0.0875549,0.0230408-0.1820984,0.0272217-0.2734985,0.0272217C8.4972181,0.8606945,5.5251417,0.8610302,2.0991774,0.8606945
	c-0.0788574,0-0.159088,0.0006714-0.2362059-0.0132751C1.64178,0.8072887,1.4914199,0.6276317,1.4966689,0.420753z
	 M12.1363783,13.1509171c-0.0767517-0.0142822-0.1573486-0.0115051-0.2362061-0.0115051
	c-3.3858643-0.0003357-6.3181763-0.0003357-9.70401-0.0003357c-0.0924683,0-0.1856079-0.0059509-0.2770079,0.0031433
	c-0.1842041,0.0181274-0.3262024,0.1036072-0.3928528,0.284668c-0.111969,0.3042297,0.1078186,0.5707703,0.4748229,0.571106
	c1.7423096,0.0010681,3.0310669,0.0003662,4.7736816,0.0007019c1.7157898,0.0003662,3.4319153,0.0003662,5.1480408,0
	c0.0593262,0,0.1193237,0.0041809,0.177948-0.0024414c0.2288513-0.025116,0.3955994-0.2002563,0.4022522-0.4172363
	C12.5089674,13.3738785,12.3572035,13.1917496,12.1363783,13.1509171z M9.324892,4.0427661
	c-0.0058002,0.0080314-4.6451712-0.0295939-4.6386876,0C4.690475,4.0622597,4.7068143,4.1048212,4.7171822,4.1218452
	c0.012002,0.0197067,0.0242791,0.0392456,0.0368142,0.0586176c0.0250435,0.0387044,0.0511189,0.0767393,0.0780849,0.1141291
	c0.0540338,0.0749202,0.1116428,0.1472263,0.1717772,0.2173324C5.12537,4.6535854,5.2570314,4.7861838,5.3920679,4.914886
	C5.528234,5.0446649,5.6680145,5.1705675,5.805964,5.2984319c0.1366644,0.1266727,0.2717328,0.2553186,0.3989601,0.3915548
	c0.1247544,0.1335888,0.2420387,0.2746992,0.343399,0.42699C6.6323843,6.2432756,6.705184,6.377192,6.7620459,6.5179377
	c0.2467589,0.6107821,0.1740513,1.2955837,0.1702971,1.954318C6.9296236,8.9494343,6.9611654,9.4482183,6.76017,9.8810091
	c-0.151206,0.3255825-0.4194331,0.5794535-0.6814232,0.8248682c-0.4976521,0.4661684-0.9953041,0.9323359-1.4929562,1.3985043
	C6.2014251,12.10466,7.81706,12.1049395,9.4326944,12.1052179c-0.5146723-0.4739618-1.0293446-0.9479227-1.5440164-1.4218845
	c-0.2951145-0.2717714-0.6014013-0.5603361-0.7289534-0.9407072C7.0562515,9.4340601,7.0825372,9.0996675,7.0859137,8.7742319
	c0.008873-0.8551455-0.1368985-1.7686911,0.2707634-2.5204654c0.2401028-0.4427767,0.6438408-0.7681928,1.0078096-1.1163697
	C8.7156944,4.8014274,9.0374613,4.4346914,9.324892,4.0427661z M3.2413082,1.2085032h7.2650957h0.1995544l0.0097961,0.1992188
	c0.0307007,0.6300659-0.0432739,1.234314-0.2264404,1.8476562c-0.2644348,0.8847351-0.8093872,1.6676331-1.7157593,2.4641113
	C8.535243,5.9288096,8.2571974,6.1796641,8.0011244,6.4545665c-0.1308289,0.140625-0.2082825,0.2920227-0.2326965,0.4437866
	C7.7324781,7.1219859,7.8116713,7.3463206,8.0063429,7.537147c0.3122559,0.3059692,0.5770569,0.5592351,0.8558044,0.8010259
	c0.9862976,0.8558044,1.5584412,1.8002014,1.7485657,2.8876648c0.0523376,0.2996826,0.0788574,0.5941162,0.106781,0.9060364
	c0.0042429,0.0476513,0.0362415,0.6517029,0.0119181,0.6517029c0,0-0.1801004,0-0.1801004,0h-7.09198H3.2564039
	l-0.0083923-0.2009583c-0.0303345-0.7371826,0.072937-1.4436646,0.307373-2.0995483
	C3.8348341,9.699501,4.3277845,9.0174332,5.1106825,8.3336258c0.2696838-0.2354736,0.5484314-0.4790044,0.802063-0.7340398
	c0.1200256-0.120697,0.2044373-0.2518921,0.2494507-0.3865356c0.0202332-0.0610657,0.0327759-0.1231689,0.0366211-0.184906
	c0.0132751-0.2103882-0.0715027-0.4102783-0.2515259-0.593811C5.7149305,6.1974559,5.4644423,5.9664989,5.2223158,5.742866
	C5.0747328,5.6068187,4.922267,5.4662242,4.7740126,5.3245616c-0.5327454-0.5097046-0.9318542-1.0979004-1.1854858-1.74823
	c-0.2435303-0.6241455-0.3782685-1.3311346-0.3643219-2.084003L3.2413082,1.2085032z M3.7748365,1.7122874
	c0.019165,0.8414917,0.1984863,1.6142578,0.625885,2.3210754c0.3607178,0.5969238,0.8735657,1.0522156,1.3843384,1.5120544
	C6.0341444,5.7697215,6.2811537,6.00489,6.4828138,6.2703624c0.3712158,0.4880981,0.3478394,1.0933838-0.064209,1.5357666
	c-0.335968,0.3607488-0.7068176,0.6904302-1.0741882,1.0204778c-0.7748413,0.6963501-1.3110657,1.5284119-1.4830627,2.5691223
	c-0.0484924,0.2937622-0.0683899,0.5924072-0.1011963,0.8885803c2.1787415,0,4.3117981,0,6.4549561,0
	c0.0083618,0,0.0163879,0,0.0247498,0c-0.0163879-0.7514648-0.1552429-1.4544678-0.493988-2.112793
	C9.4095411,9.5177078,8.8938856,9.0209122,8.3514051,8.5433121C8.0799818,8.3039932,7.804347,8.0615005,7.5758314,7.7834544
	C7.1634779,7.281074,7.1742811,6.7242503,7.5720167,6.2072215c0.111969-0.145813,0.2410583-0.2804871,0.3753662-0.4067993
	C8.211482,5.5516734,8.4871168,5.3151317,8.7529554,5.0681529C9.312892,4.5490184,9.7507582,3.9468455,9.9946241,3.2145457
	c0.1611633-0.4838867,0.2351379-0.9803467,0.2445374-1.5022583H3.7748365z"/>
</svg>
