<?xml version="1.0" encoding="utf-8"?>
<!-- Generator: Adobe Illustrator 19.2.0, SVG Export Plug-In . SVG Version: 6.00 Build 0)  -->
<svg version="1.1" id="html" xmlns="http://www.w3.org/2000/svg" xmlns:xlink="http://www.w3.org/1999/xlink" x="0px" y="0px"
	 viewBox="0 0 14 14" style="enable-background:new 0 0 14 14;" xml:space="preserve">
<path d="M8.6219673,0H1.9349976v14h10.1300049V3.2576382L8.6219673,0z M10.8649902,12.7999878H3.1350098V1.2000122h5.1199951
	v2.6099854h2.6099854V12.7999878z M5.9194241,7.4524827L4.1385865,6.6779246v-0.009572l1.7808375-0.7777648V5.371511
	L3.5662076,6.4637442V6.884088l2.3532164,1.0866456V7.4524827z M7.8180895,4.6184292H7.324522L6.2768936,8.1665955h0.4943447
	L7.8180895,4.6184292z M8.0975256,5.8905878l1.820631,0.7777648v0.009572l-1.820631,0.7785425v0.5142665l2.3532162-1.0723119
	V6.4478555L8.0975256,5.371511V5.8905878z M10.3445597,9.0422678H3.5492582l0.0026672,2.506855h6.792634V9.0422678z
	 M5.5827017,10.9847126H5.5818758H5.2722178v-0.5723791H4.7611094v0.5723791H4.452229V9.6130428h0.3097062v0.5294266H5.272995
	V9.6130428h0.3097067V10.9847126z M6.8030643,9.8726063H6.4289289v1.1113281H6.1192708V9.8726063H5.7482934V9.6122665h1.0547709
	V9.8726063z M8.1429071,10.9847126l-0.0223017-0.5253935c-0.0063658-0.164814-0.0119534-0.3622313-0.0119534-0.563633H8.1046677
	c-0.0445557,0.1751146-0.1018906,0.3701515-0.1544156,0.5317583l-0.1671953,0.5357914H7.5394802l-0.1464963-0.5294266
	c-0.0446048-0.1631613-0.0899382-0.3566437-0.1241937-0.5373459h-0.003984
	c-0.0055876,0.1855125-0.0143342,0.3972635-0.0223026,0.5683947l-0.026238,0.5198545H6.9288616l0.0875573-1.3716698h0.4132013
	l0.1345429,0.4601383c0.0445561,0.156846,0.0851765,0.3280249,0.1162248,0.4888067h0.0079203
	c0.0366364-0.1592274,0.083622-0.3375483,0.130559-0.4927912l0.1448922-0.4561539h0.4076138l0.0732231,1.3716698H8.1429071z
	 M9.538434,10.9847126H8.6834116V9.6130428h0.3097067v1.11133H9.538434V10.9847126z"/>
</svg>
