<?xml version="1.0" encoding="utf-8"?>
<!-- Generator: Adobe Illustrator 19.1.1, SVG Export Plug-In . SVG Version: 6.00 Build 0)  -->
<svg version="1.1" id="html" xmlns="http://www.w3.org/2000/svg" xmlns:xlink="http://www.w3.org/1999/xlink" x="0px" y="0px"
	 width="10.6439991px" height="14px" viewBox="0 0 10.6439991 14" style="enable-background:new 0 0 10.6439991 14;"
	 xml:space="preserve">
<style type="text/css">
	.st0{fill:#010101;}
</style>
<path class="st0" d="M7.5339994,0.005H6.9989996L6.9959993,0.003v0.002H0.721C0.323,0.005,0,0.328,0,0.726V13.276
	c0,0.3979998,0.323,0.7209997,0.721,0.7209997h9.2019997c0.3979998,0,0.7209997-0.323,0.7209997-0.7209997V2.987L7.5339994,0.005z
	 M9.9229994,13.5790005H0.721c-0.1670001,0-0.303-0.1359997-0.303-0.3030005V0.726c0-0.167,0.1359999-0.303,0.303-0.303h6.2749996
	v2.3869998c0,0.3800001,0.309,0.6890001,0.6890001,0.6890001h2.5419998v9.7770004
	C10.2259998,13.4429998,10.0909996,13.5790005,9.9229994,13.5790005z M1.0699999,7.0710001L4.026,8.4359999v-0.651l-2.2370002-0.973
	V6.8000002L4.026,5.823V5.171L1.0699999,6.5430002V7.0710001z M4.4749994,8.6820002h0.6210003l1.3150005-4.4569998H5.7910004
	L4.4749994,8.6820002z M6.7619991,5.171v0.652l2.2870007,0.9770002v0.0120001L6.7619991,7.79v0.6459999l2.9560003-1.3470001v-0.566
	L6.7619991,5.171z M9.2319994,9.7819996H1.4119995c-0.197,0-0.3579998,0.1599998-0.3579998,0.3579998V12.573
	c0,0.198,0.1599998,0.3579998,0.3579998,0.3579998h7.8199997c0.198,0,0.3579998-0.1599998,0.3579998-0.3579998v-2.4329996
	C9.5899992,9.9429998,9.4299994,9.7819996,9.2319994,9.7819996z M3.6019995,12.2220001H3.2129996v-0.7189999H2.5709999v0.7189999
	h-0.388v-1.7229996h0.3889999v0.665H3.214v-0.665h0.3889999v1.7229996H3.6019995z M5.1359997,10.8249998H4.6659994v1.3959999
	H4.2769995v-1.3959999H3.8109996v-0.3269997h1.325V10.8249998z M6.8189993,12.2220001l-0.0279999-0.6599998
	c-0.0080004-0.2069998-0.0150003-0.4549999-0.0150003-0.7080002H6.770999
	c-0.0559998,0.2200003-0.1280003,0.4650002-0.1940002,0.6680002l-0.21,0.6730003H6.0609999l-0.184-0.665
	c-0.0559998-0.2049999-0.1129999-0.448-0.1560001-0.6750002H5.7159996c-0.007,0.2329998-0.0179996,0.4989996-0.0279999,0.7139997
	l-0.033,0.6529999H5.2939997l0.1099997-1.7229996h0.5190001l0.1689997,0.5780001
	c0.0559998,0.1969995,0.1070004,0.4119997,0.1459999,0.6140003h0.0100002
	c0.0459995-0.1999998,0.1049995-0.4239998,0.1639996-0.6190004l0.1820002-0.573H7.105999l0.092,1.7229996H6.8189993z
	 M8.5719995,12.2220001H7.4979992v-1.7229996h0.3889999v1.3959999h0.6850004V12.2220001z"/>
</svg>
