<?xml version="1.0" encoding="utf-8"?>
<!-- Generator: Adobe Illustrator 19.1.0, SVG Export Plug-In . SVG Version: 6.00 Build 0)  -->
<svg version="1.1" id="html" xmlns="http://www.w3.org/2000/svg" xmlns:xlink="http://www.w3.org/1999/xlink" x="0px" y="0px"
	 viewBox="0 0 14 14" style="enable-background:new 0 0 14 14;" xml:space="preserve">
<path d="M9.2120056,0.0050049H8.6770325L8.6740417,0.0029907v0.0020142H2.3990173
	c-0.3980103,0-0.7210083,0.322998-0.7210083,0.7210083V13.276001c0,0.3980103,0.322998,0.7210083,0.7210083,0.7210083h9.2020264
	c0.3979492,0,0.7209473-0.322998,0.7209473-0.7210083V2.9869995L9.2120056,0.0050049z M11.5219908,12.8940306
	c-0.0009766,0.1669922-0.1359863,0.3029785-0.3039551,0.3029785h-8.437048c-0.1669922,0-0.3029785-0.1359863-0.3029785-0.3029785
	V1.1079834c0-0.1669921,0.1359863-0.3029785,0.3029785-0.3029785h5.893054v2.0049927
	c0,0.3800049,0.30896,0.6889648,0.6889648,0.6889648h2.1589842V12.8940306z M5.8061295,7.5594625L3.8424108,6.7053623V6.6948071
	l1.9637187-0.8576365V5.2647877L3.211252,6.4691868v0.4635105l2.5948775,1.1982374V7.5594625z M7.8997765,4.4343691H7.3555226
	L6.2003088,8.3469105H6.74542L7.8997765,4.4343691z M8.2079086,5.8371706l2.0075989,0.8576365v0.0105553L8.2079086,7.5638561
	v0.5670786l2.5948772-1.1824317V6.4516664L8.2079086,5.2647877V5.8371706z M10.3761377,9.3125086H3.5114543
	c-0.172899,0-0.31424,0.1404305-0.31424,0.3142939v2.1357603c0,0.17381,0.1404302,0.3142395,0.31424,0.3142395h6.8646832
	c0.1738091,0,0.3142929-0.1404295,0.3142929-0.3142395V9.6268024C10.6904306,9.4538498,10.5499468,9.3125086,10.3761377,9.3125086z
	 M5.4348278,11.4544306H5.433917H5.0924592v-0.6311588H4.528863v0.6311588H4.1882625V9.9418993h0.3415112v0.5837955h0.5635424
	V9.9418993h0.3415117V11.4544306z M6.7805142,10.2281179H6.3679571v1.2254553H6.0264993v-1.2254553H5.6174245v-0.287075h1.1630898
	V10.2281179z M8.2579508,11.4544306L8.2333584,10.875083c-0.007019-0.1817398-0.0131807-0.3994303-0.0131807-0.6215153H8.2157841
	c-0.0491314,0.1930981-0.1123543,0.408164-0.1702728,0.5863676L7.861146,11.4307489H7.5925555L7.431015,10.8469534
	c-0.0491853-0.1799173-0.0991745-0.3932686-0.1369476-0.5925283H7.2896743
	c-0.0061617,0.2045641-0.0158062,0.4380608-0.0245929,0.6267653l-0.0289326,0.5732403H6.91923l0.096549-1.5125313h0.4556346
	l0.1483598,0.5073919c0.0491319,0.1729527,0.0939236,0.3617105,0.1281605,0.5390034h0.0087333
	c0.0403986-0.1755781,0.0922093-0.3722124,0.1439667-0.5433969l0.1597719-0.5029984h0.4494734l0.0807428,1.5125313H8.2579508z
	 M9.7967892,11.4544306H8.8539619V9.9418993h0.3415117v1.2254562h0.6013155V11.4544306z"/>
</svg>
