<?xml version="1.0" encoding="utf-8"?>
<!-- Generator: Adobe Illustrator 19.2.0, SVG Export Plug-In . SVG Version: 6.00 Build 0)  -->
<svg version="1.1" id="html" xmlns="http://www.w3.org/2000/svg" xmlns:xlink="http://www.w3.org/1999/xlink" x="0px" y="0px"
	 viewBox="0 0 14 14" style="enable-background:new 0 0 14 14;" xml:space="preserve">
<g>
	<path d="M12.0700073,5.2000122V2.9699707L8.9899902,0H1.9299927v5.2000122H1.8499756H0.9500122V9.5h0.8999634h0.0800171V14
		h10.1400146V9.5h0.9799805V5.2000122H12.0700073z M11.3800049,8.5499878h-0.0599976H9.7600098V6.2800293h0.4699707v1.8899536
		h1.0900269h0.0599976V8.5499878z M2.6799927,0.75h6.0800171v2.5599976h2.5599976v1.8900146H2.6799927V0.75z M8.4099731,8.5499878
		H7.960022L7.5100098,6.75v1.7999878H7.0800171v-2.289978h0.6900024l0.4199829,1.5599976l0.4099731-1.5599976H9.289978v2.289978
		H8.8599854V6.75L8.4099731,8.5499878z M4.960022,6.6500244V6.2600098H6.789978v0.3900146H6.1099854v1.8999634H5.6400146V6.6500244
		H4.960022z M3.2800293,7.5499878v1h-0.460022v-2.289978h0.460022v0.8999634h0.9099731V6.2600098h0.460022v2.289978h-0.460022v-1
		H3.2800293z M11.3200073,13.25H2.6799927V9.5h8.6400146V13.25z"/>
	<polygon points="10.7399902,11.4099731 9.2399902,10.710022 9.2399902,11.1099854 10.2399902,11.5599976 9.2399902,12.0599976 
		9.2399902,12.5100098 10.7399902,11.710022 	"/>
	<polygon points="9.1400146,10.210022 8.7399902,10.210022 8.1400146,12.6099854 8.539978,12.6099854 	"/>
	<polygon points="7.9400024,12.0599976 6.9400024,11.5599976 7.9400024,11.1099854 7.9400024,10.710022 6.4400024,11.4099731 
		6.4400024,11.710022 7.9400024,12.5100098 	"/>
</g>
</svg>
