<?xml version="1.0" encoding="utf-8"?>

<!--
 ~   Copyright 2017, WSO2 Inc. (http://www.wso2.com)
 ~
 ~   Licensed under the Apache License, Version 2.0 (the "License");
 ~   you may not use this file except in compliance with the License.
 ~   You may obtain a copy of the License at
 ~
 ~        http://www.apache.org/licenses/LICENSE-2.0
 ~
 ~   Unless required by applicable law or agreed to in writing, software
 ~   distributed under the License is distributed on an "AS IS" BASIS,
 ~   WITHOUT WARRANTIES OR CONDITIONS OF ANY KIND, either express or implied.
 ~   See the License for the specific language governing permissions and
 ~   limitations under the License.
-->

<svg version="1.1" id="if-else" xmlns="http://www.w3.org/2000/svg" xmlns:xlink="http://www.w3.org/1999/xlink" x="0px" y="0px"
	 viewBox="0 0 14 14" style="enable-background:new 0 0 14 14;" xml:space="preserve">
<path d="M7.3,3.8L5.9,5.4L4.4,3.7h1V0h0.9l0,0l0,0v1.8c0,0,0,1.6,0,2H7.3z M12.4,10.2v-1c-0.1,0-1.9,0-2,0c-1.1,0.7-2.8,1.9-4,2.6
	c0,0.2,0,0.7,0,0.8h1.1L5.9,14l-1.5-1.3h1.2c0-0.1,0-0.6,0-0.8C4.2,11.1,2,9.7,0.5,8.8c0.9-0.6,5.3-3.4,5.3-3.4s3.5,2.3,4.5,2.9h2
	V7.4l1.3,1.4L12.4,10.2z M9.3,8.8C8.2,8.1,5.9,6.7,5.9,6.6c0,0-2.5,1.6-3.4,2.1c0.1,0.1,0.2,0.1,0.2,0.2c0.9,0.6,2.2,1.4,3.2,2
	c1-0.6,2.3-1.4,3.2-2C9.2,8.8,9.2,8.8,9.3,8.8z"/>
</svg>
