<?xml version="1.0" encoding="utf-8"?>
<!-- Generator: Adobe Illustrator 19.1.0, SVG Export Plug-In . SVG Version: 6.00 Build 0)  -->
<svg version="1.1" id="import" xmlns="http://www.w3.org/2000/svg" xmlns:xlink="http://www.w3.org/1999/xlink" x="0px" y="0px"
	 viewBox="0 0 14 14" style="enable-background:new 0 0 14 14;" xml:space="preserve">
<path d="M13.9796352,5.9568253v6.5639896c0,0.8158121-0.6638241,1.4796352-1.4796505,1.4796352H1.4597355
	c-0.8162776,0-1.4801008-0.6638231-1.4801008-1.4796352V1.4805506C-0.0203652,0.6642731,0.6434579,0,1.4597355,0h6.5770249
	c0.3049259,0,0.5522766,0.2473508,0.5522766,0.5527255s-0.2473507,0.552741-0.5522766,0.552741H1.4597355
	c-0.2064283,0-0.3746343,0.168206-0.3746343,0.3750842v11.0402641c0,0.2068624,0.168206,0.3750839,0.3746343,0.3750839h11.0402489
	c0.2068768,0,0.3750839-0.1682215,0.3750839-0.3750839V5.9568253c0-0.3053751,0.247366-0.5527258,0.55229-0.5527258
	C13.7322845,5.4040995,13.9796352,5.6514502,13.9796352,5.9568253z M3.0200102,8.0380945
	c-0.2073286-0.2239642-0.556776-0.2383494-0.7812059-0.0305719c-0.2248642,0.2068787-0.2369998,0.556776-0.0310216,0.7807398
	l2.8918266,3.130208l3.1279573-3.0339613C8.3390989,8.776577,8.3953228,8.6317577,8.3953228,8.4878387
	c0-0.1385193-0.0517235-0.2770376-0.1560545-0.3849697C8.0265388,7.8842902,7.6770916,7.8788896,7.4576125,8.0911674
	L5.7596617,9.7386818c0.3379326-3.4246097,1.6526985-5.9042006,3.9318199-7.3664236
	c1.8898067-1.2120481,3.7436419-1.2462356,3.7625275-1.2462356C13.7571335,1.122422,14,0.8759713,14,0.5732968
	c0-0.0018001,0-0.0040503,0-0.0058503c-0.0027008-0.3053748-0.2527514-0.550041-0.5585766-0.5468907
	c-0.0821857,0.0008545-7.9350095,0.2061024-8.799984,9.7736683L3.0200102,8.0380945z"/>
</svg>
