<?xml version="1.0" encoding="utf-8"?>

<!--
 * Copyright (c) 2015, WSO2 Inc. (http://www.wso2.org) All Rights Reserved.
 *
 * WSO2 Inc. licenses this file to you under the Apache License,
 * Version 2.0 (the "License"); you may not use this file except
 * in compliance with the License.
 * You may obtain a copy of the License at
 *
 * http://www.apache.org/licenses/LICENSE-2.0
 *
 * Unless required by applicable law or agreed to in writing,
 * software distributed under the License is distributed on an
 * "AS IS" BASIS, WITHOUT WARRANTIES OR CONDITIONS OF ANY
 * KIND, either express or implied. See the License for the
 * specific language governing permissions and limitations
 * under the License.
-->

<svg version="1.1" id="import" xmlns="http://www.w3.org/2000/svg" xmlns:xlink="http://www.w3.org/1999/xlink" x="0px" y="0px"
	 viewBox="0 0 14 14" enable-background="new 0 0 14 14" xml:space="preserve">
<path id="XMLID_1_" d="M14,7.7l0,4.1c-0.2,1.1-0.9,1.8-1.9,2.1c-0.1,0-0.1,0-0.2,0.1l-0.1,0l-9.6,0l-0.1,0c-1.1-0.2-1.7-0.8-2.1-1.9
	C0.1,12,0,12,0,11.9l0-0.1l0-9.6l0-0.1c0.2-0.9,0.7-1.6,1.6-2C1.8,0.1,1.9,0.1,2,0l0.2,0h4.5v1L2.5,1c0,0,0,0,0,0
	C2,1,1.6,1.2,1.3,1.6C1.1,1.9,1,2.2,1,2.5L1,9c0,0.8,0,1.6,0,2.4c0,0.6,0.2,1,0.6,1.3c0.2,0.2,0.5,0.3,0.9,0.3h7c0.6,0,1.3,0,1.9,0
	c0.4,0,0.8-0.1,1.1-0.4c0.3-0.3,0.4-0.6,0.4-1.1c0-0.8,0-1.5,0-2.3l0-1.4H14z M5.5,8.7c0,0.2,0,0.4-0.1,0.6L4,7.8L3.2,8.5l2.7,2.7
	l2.7-2.7L7.8,7.8L6.5,9.2c0.1-1.3,0.4-2.4,0.8-3.4c1-2.1,2.6-3.5,5-4.1c0.2-0.1,0.5-0.1,0.7-0.1c0.2,0,0.3,0,0.5-0.1l0.4,0l0-1
	l-0.5,0c-0.2,0-0.3,0-0.5,0C11.8,0.6,10.7,1,9.8,1.5C8.3,2.4,7.1,3.6,6.4,5.3C5.9,6.3,5.6,7.4,5.5,8.7z"/>
</svg>
