<?xml version="1.0" encoding="utf-8"?>
<!-- Generator: Adobe Illustrator 19.2.0, SVG Export Plug-In . SVG Version: 6.00 Build 0)  -->
<svg version="1.1" id="import" xmlns="http://www.w3.org/2000/svg" xmlns:xlink="http://www.w3.org/1999/xlink" x="0px" y="0px"
	 viewBox="0 0 14 14" style="enable-background:new 0 0 14 14;" xml:space="preserve">
<path d="M13.9874268-0.0036864L14,1.1017823c0,0-1.8726807,0.0341797-3.7625122,1.2462158
	C7.958374,3.8102174,6.6436157,6.2898316,6.3056641,9.7143917L7.815979,8.4478512l0.7699585,0.793335l-2.9403076,2.6530151
	l-2.8918457-3.130188L3.56604,8.0138302L5.187439,9.7699337C6.0524292,0.2023682,13.9874268-0.0036864,13.9874268-0.0036864z
	 M12.6760254,12.6418705c-3.8269653,0-7.5960083,0-11.3427124,0L1.3186035,1.315393
	c1.3780518,0.0123291,5.6578369,0.0092163,5.6578369,0.0092163L6.9726562,0.0006347
	C5.2752075-0.0024781,1.6974487-0.0086426,0,0.0036865v14h14V7.2036986l-1.3265381,0.0015259
	C12.6734619,7.2052245,12.6760254,12.2807865,12.6760254,12.6418705z"/>
</svg>
