<?xml version="1.0" encoding="utf-8"?>
<!-- Generator: Adobe Illustrator 19.1.0, SVG Export Plug-In . SVG Version: 6.00 Build 0)  -->
<svg version="1.1" id="incoming-call" xmlns="http://www.w3.org/2000/svg" xmlns:xlink="http://www.w3.org/1999/xlink" x="0px"
	 y="0px" viewBox="0 0 14 14" style="enable-background:new 0 0 14 14;" xml:space="preserve">
<path d="M7.7888627,7.5292163c0.1453876,0,0.32797,0.0945415,0.4707513,0.2373233l1.4280291,1.4280291
	c0.233428,0.233427,0.233428,0.5831661,0,0.7867079l-0.5831661,0.5540886L6.8606625,8.2915506L7.4147506,7.708385
	C7.5459795,7.5963039,7.6426668,7.5292163,7.7888627,7.5292163z M10.0083036,6.3670902
	c0.5242033,0,0.9329033,0.4078927,0.9329033,0.9329038s-0.4078932,0.9329028-0.9329033,0.9329028
	c-0.5242033,0-0.9329033-0.4078927-0.9329033-0.9329028C9.0753994,6.7749825,9.4832926,6.3670902,10.0083036,6.3670902z
	 M0.8868483,2.900095l2.2438149,2.2438149C2.343955,5.9306183,2.6936929,6.7754817,3.4513237,7.504035l0.7867086,0.7867079
	c0.7285533,0.7285538,1.5734167,1.1073685,2.3601251,0.3206606l2.2438149,2.2438145l-0.0872326,0.0872326
	c-1.3989515,1.3989525-3.5264568,0.7867088-5.2161837-0.9329033L1.7026342,8.1744337
	C0.0120999,6.4838991-0.6353343,4.4119043,0.7628096,3.0129523L0.8868483,2.900095z M12.4556608,3.365644
	C13.3005247,3.365644,14,4.0651197,14,4.9099832s-0.6986675,1.5443392-1.5443392,1.5443392
	c-0.8456707,0-1.5443382-0.6994758-1.5443382-1.5443392S11.6107969,3.365644,12.4556608,3.365644z M2.1333807,1.9080387
	c0.1453876,0,0.2915828,0.0581551,0.4078929,0.1744651l1.4051757,1.3999491c0.233428,0.233428,0.233428,0.5831656,0,0.7867084
	L3.3931687,4.8232493l-2.2209616-2.215735L1.7553729,2.053426C1.8417977,1.9661938,1.987993,1.9080387,2.1333807,1.9080387z"/>
</svg>
