<?xml version="1.0" encoding="utf-8"?>

<!--
 * Copyright (c) 2015, WSO2 Inc. (http://www.wso2.org) All Rights Reserved.
 *
 * WSO2 Inc. licenses this file to you under the Apache License,
 * Version 2.0 (the "License"); you may not use this file except
 * in compliance with the License.
 * You may obtain a copy of the License at
 *
 * http://www.apache.org/licenses/LICENSE-2.0
 *
 * Unless required by applicable law or agreed to in writing,
 * software distributed under the License is distributed on an
 * "AS IS" BASIS, WITHOUT WARRANTIES OR CONDITIONS OF ANY
 * KIND, either express or implied. See the License for the
 * specific language governing permissions and limitations
 * under the License.
-->

<svg version="1.1" id="jaggery" xmlns="http://www.w3.org/2000/svg" xmlns:xlink="http://www.w3.org/1999/xlink" x="0px" y="0px"
	 viewBox="0 0 14 14" style="enable-background:new 0 0 14 14;" xml:space="preserve">
<path d="M1.0867251,9.4471512H0V8.1504393h1.0867251V9.4471512z M3.9601302,9.5916281
	c0,0.5797062-0.1552465,1.0203199-0.4657393,1.3245306c-0.3113904,0.3024158-0.7394397,0.4549704-1.2850459,0.4549704
	c-0.0951221,0-0.2001154-0.0053835-0.3167745-0.0143576c-0.1166592-0.0089741-0.2333184-0.0224342-0.3481828-0.0403824v-0.7645664
	H1.594641c0.066406,0.0152559,0.139991,0.0296135,0.2198577,0.0430746c0.0807641,0.0134611,0.1570412,0.019743,0.2297289,0.019743
	c0.2279341,0,0.4145887-0.0287161,0.5617588-0.083457c0.1471701-0.0565348,0.2575476-0.1453753,0.3302352-0.2665215
	c0.066406-0.1094799,0.1121724-0.2476759,0.1346068-0.414588C3.0941603,9.6840582,3.104929,9.4812508,3.104929,9.2407541V5.0760212
	H2.1869109V4.3652978h1.7741168L3.9601302,9.5916281L3.9601302,9.5916281z M3.9646173,3.5154805H2.9909618V2.6288707h0.9736555
	V3.5154805z M8.0360222,8.9051342c-0.0699954,0.0511513-0.1633224,0.1238384-0.280879,0.2162685
	C7.638484,9.2138329,7.5254145,9.2874174,7.4168315,9.3421574c-0.1516571,0.0780716-0.2979298,0.1399908-0.438818,0.182168
	c-0.1408887,0.0421762-0.3383117,0.063714-0.5940642,0.063714c-0.2090888,0-0.4074097-0.039485-0.5949621-0.118454
	C5.6005378,9.3906155,5.43542,9.2802382,5.292737,9.1366577C5.1563358,8.9975643,5.0477529,8.8252678,4.9651937,8.6206656
	C4.883533,8.4169607,4.8431506,8.1997948,4.8431506,7.9727583c0-0.3517728,0.073585-0.6514969,0.2225499-0.8982759
	C5.213768,6.8268065,5.4488807,6.6302805,5.77104,6.4849052c0.2844687-0.1292224,0.6209855-0.2207551,1.0095506-0.2701111
	C7.1691551,6.1645408,7.5873337,6.1268511,8.0360222,6.102622V5.9392991c0-0.2010126-0.0314083-0.3616433-0.0915327-0.4836869
	C7.8834682,5.3326716,7.7991142,5.2375493,7.6905317,5.1711431C7.5810513,5.1011477,7.4473424,5.0553818,7.2894039,5.0320497
	C7.1323624,5.0096154,6.9699373,4.9970522,6.8030248,4.9970522c-0.1965256,0-0.428947,0.0305109-0.6963654,0.0888405
	C5.840138,5.1460166,5.5736165,5.2312675,5.3070951,5.3434401H5.2568421V4.4747777
	c0.1570411-0.0448689,0.3831806-0.0960193,0.6775208-0.1498618C6.228703,4.2701755,6.5194535,4.2432542,6.8075118,4.2432542
	c0.3490801,0,0.6425228,0.0269213,0.8821225,0.0816617c0.2387028,0.05474,0.4549713,0.1534514,0.645215,0.2952371
	C8.520606,4.7592468,8.6579056,4.9396195,8.7494383,5.1612725c0.0906353,0.2207546,0.1372986,0.4917631,0.1372986,0.808538
	v3.4755459H8.0360222V8.9051342L8.0360222,8.9051342z M8.0360222,8.1962061V6.7864242
	C7.8323174,6.8043718,7.57477,6.8294983,7.264277,6.8609071C6.953784,6.8932123,6.702518,6.9371843,6.5122738,6.9955139
	c-0.2279339,0.069098-0.4154859,0.1758862-0.5653481,0.320364c-0.148067,0.1444774-0.2225494,0.344593-0.2225494,0.6030378
	c0,0.2898531,0.0825586,0.5097113,0.2458816,0.6595726c0.1633229,0.1480675,0.40382,0.2234468,0.7188001,0.2234468
	c0.2692137,0,0.5133004-0.0583286,0.7322607-0.1758862C7.6393809,8.5084934,7.8439837,8.3658104,8.0360222,8.1962061z
	 M10.2704945,10.2601757c0.0565348,0.02423,0.1408882,0.0574322,0.2539587,0.0978146
	c0.1112747,0.0412788,0.2404966,0.07897,0.3813858,0.1157618c0.157938,0.039484,0.305109,0.0717897,0.4379206,0.0960197
	s0.2781878,0.0367928,0.4352283,0.0367928c0.2638283,0,0.4881735-0.034997,0.6721354-0.1049929
	c0.1839628-0.0690975,0.3266459-0.1660156,0.4298449-0.2898531c0.0969162-0.1247358,0.1651173-0.2683163,0.2037048-0.4325371
	c0.0403824-0.1633224,0.0601244-0.3499775,0.0601244-0.5590668V8.7741175
	c-0.2315235,0.2001152-0.4576626,0.3481827-0.6775208,0.443305c-0.221652,0.0960197-0.4998398,0.142684-0.8327665,0.142684
	c-0.5788088,0-1.0409584-0.2144737-1.3819628-0.645215C9.909749,8.2841501,9.7383499,7.6658559,9.7383499,6.8591132
	c0-0.4217677,0.0583296-0.7959747,0.177681-1.1217227c0.1166592-0.3257484,0.276392-0.6021409,0.478303-0.8300753
	c0.1893473-0.2180629,0.4154863-0.3858724,0.6757259-0.5043263c0.2620344-0.1193514,0.5321455-0.177681,0.8103323-0.177681
	c0.2638292,0,0.4926605,0.0305109,0.6838026,0.0924301c0.1938334,0.0628166,0.3876677,0.1516571,0.5806036,0.2665215
	l0.0502529-0.2189603H14v4.5030441c0,0.8614836-0.1893473,1.4932384-0.5653486,1.8970585s-0.9503231,0.6048326-1.724761,0.6048326
	c-0.2485743,0-0.502532-0.019743-0.7600794-0.059227c-0.2602396-0.039485-0.502532-0.0924301-0.7259789-0.1588364v-0.8919945
	C10.2238321,10.2601767,10.2704945,10.2601767,10.2704945,10.2601757z M13.1438999,8.0678797V5.2806234
	c-0.2117815-0.1031981-0.4092045-0.1767836-0.5886803-0.2207546C12.3739491,5.0167947,12.1944733,4.99436,12.0167923,4.99436
	c-0.4334335,0-0.7762318,0.1588364-1.024806,0.4774055s-0.3733101,0.7753348-0.3733101,1.3693991
	c0,0.5635533,0.0951223,0.9933977,0.2844696,1.2868404c0.1893473,0.2943401,0.4962502,0.4415092,0.921607,0.4415092
	c0.221652,0,0.4495869-0.0439711,0.6838026-0.1319141C12.7445669,8.3496571,12.9572449,8.226716,13.1438999,8.0678797z"/>
</svg>
