<?xml version="1.0" encoding="utf-8"?>
<!-- Generator: Adobe Illustrator 19.2.0, SVG Export Plug-In . SVG Version: 6.00 Build 0)  -->
<svg version="1.1" id="jaxrs" xmlns="http://www.w3.org/2000/svg" xmlns:xlink="http://www.w3.org/1999/xlink" x="0px" y="0px"
	 viewBox="0 0 14 14" style="enable-background:new 0 0 14 14;" xml:space="preserve">
<path d="M0,6.7c0.9,0,1-0.5,1-0.9c0-0.3,0-0.7-0.1-1c0-0.3-0.1-0.7-0.1-1c0-1.1,0.7-1.6,1.7-1.6h0.3v0.7H2.6c-0.7,0-0.9,0.4-0.9,1
	c0,0.3,0,0.6,0.1,0.9c0,0.3,0.1,0.6,0.1,0.9c0,0.8-0.3,1.2-0.9,1.3v0c0.5,0.1,0.9,0.5,0.9,1.3c0,0.3,0,0.6-0.1,0.9
	c0,0.3-0.1,0.6-0.1,0.9c0,0.7,0.3,1,0.9,1h0.2v0.7H2.5c-1,0-1.7-0.4-1.7-1.6c0-0.3,0-0.7,0.1-1c0-0.3,0.1-0.6,0.1-1
	c0-0.4-0.1-0.9-1-0.9C0,7.3,0,6.7,0,6.7z M14,7.3c-0.9,0-1,0.5-1,0.9c0,0.3,0,0.6,0.1,1c0,0.3,0.1,0.7,0.1,1c0,1.2-0.8,1.6-1.7,1.6
	h-0.3v-0.7h0.2c0.7,0,1-0.4,1-1c0-0.3,0-0.6-0.1-0.9c0-0.3-0.1-0.6-0.1-0.9c0-0.8,0.3-1.2,0.9-1.3v0c-0.5-0.1-0.9-0.5-0.9-1.3
	c0-0.3,0-0.6,0.1-0.9c0-0.3,0.1-0.6,0.1-0.9c0-0.6-0.3-1-0.9-1h-0.2V2.2h0.2c1,0,1.8,0.5,1.8,1.6c0,0.3,0,0.7-0.1,1
	c0,0.3-0.1,0.7-0.1,1c0,0.4,0.1,0.9,1,0.9V7.3z M3.8,5.1h0.7v2.2c0,0.3,0,0.5-0.1,0.7C4.4,8.2,4.2,8.3,4.1,8.5
	C3.9,8.6,3.6,8.7,3.4,8.7C3,8.7,2.7,8.6,2.6,8.4C2.4,8.2,2.3,7.9,2.3,7.5l0.7-0.1c0,0.2,0,0.3,0.1,0.4C3.1,8,3.2,8,3.4,8
	c0.2,0,0.3,0,0.3-0.1c0.1-0.1,0.1-0.3,0.1-0.6V5.1z M8.4,8.6H7.7L7.4,7.8H6L5.7,8.6H4.9l1.4-3.5H7L8.4,8.6z M7.1,7.2L6.6,5.9
	L6.2,7.2H7.1z M8.5,8.6l1.2-1.8L8.6,5.1h0.8l0.7,1.1l0.7-1.1h0.8l-1.1,1.7l1.2,1.8h-0.9l-0.8-1.2L9.3,8.6H8.5z"/>
</svg>
