<?xml version="1.0" encoding="utf-8"?>

<!--
 * Copyright (c) 2015, WSO2 Inc. (http://www.wso2.org) All Rights Reserved.
 *
 * WSO2 Inc. licenses this file to you under the Apache License,
 * Version 2.0 (the "License"); you may not use this file except
 * in compliance with the License.
 * You may obtain a copy of the License at
 *
 * http://www.apache.org/licenses/LICENSE-2.0
 *
 * Unless required by applicable law or agreed to in writing,
 * software distributed under the License is distributed on an
 * "AS IS" BASIS, WITHOUT WARRANTIES OR CONDITIONS OF ANY
 * KIND, either express or implied. See the License for the
 * specific language governing permissions and limitations
 * under the License.
-->

<svg version="1.1" id="jaxrs" xmlns="http://www.w3.org/2000/svg" xmlns:xlink="http://www.w3.org/1999/xlink" x="0px" y="0px"
	 viewBox="0 0 14 14" style="enable-background:new 0 0 14 14;" xml:space="preserve">
<path d="M0.0092773,6.6818848c0.8515625,0,0.9716797-0.4677734,0.9716797-0.8876953
	c0-0.3354492-0.0478516-0.6713867-0.0966797-1.0073242c-0.0478516-0.3359375-0.0957031-0.659668-0.0957031-0.9956055
	c0-1.1030273,0.7197266-1.5708008,1.7392578-1.5708008h0.2519531v0.659668H2.5639648
	c-0.7080078,0-0.9472656,0.3837891-0.9472656,1.03125c0,0.2758789,0.0351562,0.5634766,0.0839844,0.8515625
	C1.7485352,5.0627441,1.784668,5.3508301,1.784668,5.6745605c0.0117188,0.7675781-0.3242188,1.1513672-0.8642578,1.2949219
	v0.0244141C1.4604492,7.1257324,1.7963867,7.5334473,1.784668,8.3010254c0,0.3242188-0.0361328,0.6240234-0.0839844,0.9121094
	C1.6518555,9.5129395,1.6166992,9.7883301,1.6166992,10.076416c0,0.671875,0.2753906,1.0429688,0.9472656,1.0429688h0.2158203
	v0.6601562H2.527832c-0.9951172,0-1.7392578-0.4316406-1.7392578-1.6435547c0-0.3232422,0.0478516-0.6591797,0.0957031-0.9833984
	C0.9331055,8.8293457,0.980957,8.505127,0.980957,8.1809082c0-0.371582-0.1201172-0.887207-0.9716797-0.887207V6.6818848z
	 M14,7.2937012c-0.8515625,0-0.9716797,0.515625-0.9716797,0.887207c0,0.3242188,0.0478516,0.6484375,0.0957031,0.9716797
	c0.0488281,0.3242188,0.0966797,0.6601562,0.0966797,0.9833984c0,1.2119141-0.7558594,1.6435547-1.7392578,1.6435547h-0.2519531
	v-0.6601562h0.2041016c0.671875-0.0117188,0.9589844-0.3710938,0.9589844-1.0429688
	c0-0.2880859-0.0478516-0.5634766-0.0839844-0.8632812c-0.0478516-0.2880859-0.0957031-0.5878906-0.0957031-0.9121094
	c0-0.7675781,0.3359375-1.175293,0.8632812-1.3071289V6.9694824c-0.5273438-0.1435547-0.8632812-0.5273438-0.8632812-1.2949219
	c0-0.3237305,0.0478516-0.6118164,0.0957031-0.9116211c0.0361328-0.2880859,0.0839844-0.5756836,0.0839844-0.8515625
	c0-0.6474609-0.2519531-1.0195312-0.9472656-1.03125h-0.2158203V2.220459h0.2402344
	c1.0195312,0,1.7509766,0.4677734,1.7509766,1.5708008c0,0.3359375-0.0478516,0.659668-0.0966797,0.9956055
	c-0.0478516,0.3359375-0.0957031,0.671875-0.0957031,1.0073242c0,0.4199219,0.1201172,0.8876953,0.9716797,0.8876953V7.2937012z
	 M3.2709961,4.6586914h0.5947266v3.0830078c0,1.2236328-0.6015625,1.5996094-1.3945312,1.5996094
	c-0.21875,0-0.4853516-0.0478516-0.6357422-0.109375L1.9243164,8.746582
	c0.1230469,0.0478516,0.3007812,0.0888672,0.4990234,0.0888672c0.5332031,0,0.8476562-0.2392578,0.8476562-1.1416016V4.6586914z
	 M5.6044922,7.8168945L5.1259766,9.2661133H4.5107422l1.5654297-4.6074219h0.7177734l1.5727539,4.6074219H7.7304688
	L7.2382812,7.8168945H5.6044922z M7.1152344,7.3520508L6.6640625,6.0258789
	C6.5615234,5.7250977,6.4931641,5.4516602,6.4248047,5.1850586H6.4111328
	C6.3427734,5.4584961,6.2675781,5.7387695,6.1787109,6.019043L5.7275391,7.3520508H7.1152344z M11.4741211,9.2661133
	l-0.5878906-1.0185547c-0.2392578-0.3896484-0.3896484-0.6425781-0.5332031-0.9091797h-0.0136719
	c-0.1298828,0.2666016-0.2597656,0.5126953-0.4990234,0.9160156L9.2866211,9.2661133H8.6030273l1.4082031-2.3310547
	L8.6577148,4.6586914h0.6904297L9.956543,5.7387695c0.1708984,0.3007812,0.3007812,0.5332031,0.4238281,0.7792969h0.0205078
	c0.1298828-0.2734375,0.2460938-0.4853516,0.4169922-0.7792969l0.6289062-1.0800781h0.6835938l-1.4013672,2.2421875
	l1.4355469,2.3652344H11.4741211z"/>
</svg>
