<?xml version="1.0" encoding="utf-8"?>

<!--
 * Copyright (c) 2015, WSO2 Inc. (http://www.wso2.org) All Rights Reserved.
 *
 * WSO2 Inc. licenses this file to you under the Apache License,
 * Version 2.0 (the "License"); you may not use this file except
 * in compliance with the License.
 * You may obtain a copy of the License at
 *
 * http://www.apache.org/licenses/LICENSE-2.0
 *
 * Unless required by applicable law or agreed to in writing,
 * software distributed under the License is distributed on an
 * "AS IS" BASIS, WITHOUT WARRANTIES OR CONDITIONS OF ANY
 * KIND, either express or implied. See the License for the
 * specific language governing permissions and limitations
 * under the License.
-->

<svg version="1.1" id="key" xmlns="http://www.w3.org/2000/svg" xmlns:xlink="http://www.w3.org/1999/xlink" x="0px" y="0px"
	 viewBox="0 0 14 14" enable-background="new 0 0 14 14" xml:space="preserve">
<path d="M14,6.2v1.4h-0.8v2H12v-2h-0.5V9h-1.2V7.6H6.5c-0.3,1.5-1.6,2.6-3.2,2.6c-0.5,0-1-0.1-1.4-0.3C0.7,9.4,0,8.2,0,6.9
	c0,0,0,0,0,0c0,0,0,0,0,0c0,0,0,0,0-0.1c0-0.1,0-0.1,0-0.1c0.1-1.7,1.5-3.1,3.3-3.1c1.6,0,2.9,1.1,3.2,2.6H14z M3.2,5.1
	C2.2,5.1,1.4,6,1.4,7s0.8,1.9,1.9,1.9S5.1,8,5.1,7S4.3,5.1,3.2,5.1z"/>
</svg>
