<?xml version="1.0" encoding="utf-8"?>
<!-- Generator: Adobe Illustrator 19.1.0, SVG Export Plug-In . SVG Version: 6.00 Build 0)  -->
<svg version="1.1" id="left-arrow" xmlns="http://www.w3.org/2000/svg" xmlns:xlink="http://www.w3.org/1999/xlink" x="0px" y="0px"
	 viewBox="0 0 14 14" style="enable-background:new 0 0 14 14;" xml:space="preserve">
<path d="M4.9824247,11.5973091c0.282238-0.1425924,0.4287291-0.4424019,0.3622923-0.7314434
	c-0.0341625-0.144536-0.1171894-0.2929726-0.2285137-0.4052906c-0.8252058-0.8320093-1.6542988-1.6601639-2.4824095-2.488286
	L2.3466854,7.6856785h1.7109509c2.9477315-0.0004859,6.435051,0.0007734,9.1030302,0.0053129
	c0.287097,0.0004859,0.837388,0.0143919,0.837388-0.6640682L14,7.0078597l-0.0009718-0.0190196
	C13.9887886,6.7637396,13.9160347,6.5899,13.7837133,6.4722247c-0.1904297-0.1694326-0.3840952-0.1562114-0.6626101-0.1576915
	L2.3466978,6.3126225L5.1376982,3.521136C5.384778,3.2711399,5.4326143,2.9410667,5.2626963,2.6583438
	C5.1523438,2.4762092,4.9736547,2.3575621,4.7724571,2.3336494c-0.2197208-0.026376-0.4453192,0.0585945-0.6201305,0.2334061
	L0.2665853,6.4523106C0.086914,6.6324458-0.0000001,6.8111787-0.0000001,6.9986591c0,0.0004859,0,0.0004859,0,0.0009718
	c0,0.1875138,0.0869141,0.3657274,0.2665854,0.5449352l2.4746342,2.4746008l1.2822208,1.2831926
	c0.0605383,0.0625162,0.1220818,0.1240263,0.1845646,0.1816492C4.4238501,11.683219,4.728508,11.7271671,4.9824247,11.5973091z"/>
</svg>
