<?xml version="1.0" encoding="utf-8"?>
<!-- Generator: Adobe Illustrator 19.1.0, SVG Export Plug-In . SVG Version: 6.00 Build 0)  -->
<svg version="1.1" id="lifecycle" xmlns="http://www.w3.org/2000/svg" xmlns:xlink="http://www.w3.org/1999/xlink" x="0px" y="0px"
	 viewBox="0 0 14 14" style="enable-background:new 0 0 14 14;" xml:space="preserve">
<path d="M13.3000002,10.1000004L13.3000002,10.1000004L13.3000002,10.1000004L13.3000002,10.1000004z M7.3000002,0L7.3000002,0
	l0.8999996,1.8L7.3000002,3.4000001C9.1999998,3.5,10.6000004,5.1000004,10.6000004,7c0,0.5-0.1000004,1-0.3000002,1.3999996l0,0
	l1,1.6999998h2C13.6999998,9.1999998,14,8.1000004,14,7C14,3.2,11,0.2,7.3000002,0z M7.3000002,3.4000001L7.3000002,3.4000001
	L7.3000002,3.4000001L7.3000002,3.4000001z M3.7,8.5L3.7,8.5c-0.2-0.5-0.3-1-0.3-1.5c0-1.8000002,1.2999997-3.3,3-3.5999999l0,0
	l1-1.8L6.5,0l0,0C2.9000001,0.2,0,3.3,0,7c0,1.1000004,0.3,2.1999998,0.7,3.1000004l0,0L1.8,8.5H3.7z M0.7,10.1000004
	L0.7,10.1000004L0.7,10.1000004L0.7,10.1000004z M1.1,10.8000002L1.1,10.8000002L1.1,10.8000002L1.1,10.8000002z
	 M10.8999996,10.6999998l-1-1.5999994l0,0C9.3000002,10,8.1999998,10.6000004,7,10.6000004S4.8000002,10,4.0999999,9.2000008l0,0h-2
	l-1,1.6000004C2.4000001,12.6999998,4.5,14,7,14s4.6000004-1.3000002,5.8999996-3.1999998l0,0L10.8999996,10.6999998z"/>
</svg>
