<?xml version="1.0" encoding="utf-8"?>
<!-- Generator: Adobe Illustrator 19.2.0, SVG Export Plug-In . SVG Version: 6.00 Build 0)  -->
<svg version="1.1" id="lifecycle" xmlns="http://www.w3.org/2000/svg" xmlns:xlink="http://www.w3.org/1999/xlink" x="0px" y="0px"
	 viewBox="0 0 14 14" style="enable-background:new 0 0 14 14;" xml:space="preserve">
<path id="XMLID_1_" d="M7.3,0C11,0.2,14,3.2,14,7c0,1.1-0.3,2.2-0.7,3.1h-2l-1-1.7C10.5,8,10.6,7.5,10.6,7c0-1.9-1.4-3.5-3.3-3.6
	l0.9-1.6L8,1.3L7.3,0z M11.3,10.7l-0.4,0l-1-1.6C9.3,10,8.2,10.6,7,10.6S4.8,10,4.1,9.2h-2l-1,1.6C2.4,12.7,4.5,14,7,14
	s4.6-1.3,5.9-3.2L11.3,10.7z M6.5,0C4.7,0.1,3.1,0.9,1.9,2.2C0.7,3.5,0,5.2,0,7c0,1.1,0.3,2.2,0.7,3.1l0.9-1.3l0.2-0.3h1.9
	C3.5,8,3.4,7.5,3.4,7c0-1.8,1.3-3.3,3-3.6l1-1.8L6.5,0z"/>
</svg>
