<?xml version="1.0" encoding="utf-8"?>
<!-- Generator: Adobe Illustrator 19.2.0, SVG Export Plug-In . SVG Version: 6.00 Build 0)  -->
<svg version="1.1" id="lifecycle" xmlns="http://www.w3.org/2000/svg" xmlns:xlink="http://www.w3.org/1999/xlink" x="0px" y="0px"
	 viewBox="0 0 14 14" style="enable-background:new 0 0 14 14;" xml:space="preserve">
<path d="M12.2708778,8.8625059c0.0548058-0.3164349,0.0850172-0.6411591,0.0850172-0.9730082
	c0-2.3816538-1.4718094-4.4248819-3.5531273-5.2711515C8.7557716,1.2724532,7.652874,0.1951086,6.2955403,0.1951086
	c-1.3871346,0-2.5116806,1.1244776-2.5116806,2.5116119c0,0.0923476,0.0057545,0.1833253,0.0154827,0.2730699
	C2.1137221,3.9682813,0.9786943,5.7983146,0.9786943,7.8894978c0,0.4495449,0.0540522,0.8864155,0.1531137,1.306159
	C0.4503665,9.6448584,0,10.4159756,0,11.293211c0,1.3871346,1.1245462,2.5116806,2.5116804,2.5116806
	c0.6986368,0,1.330205-0.285675,1.7855041-0.7461128c0.7220659,0.3324661,1.5244226,0.5192852,2.3701444,0.5192852
	c1.0397344,0,2.0143862-0.281702,2.8539429-0.7708435c0.4600945,0.5797081,1.169487,0.9526615,1.9670477,0.9526615
	C12.8755226,13.759882,14,12.6353359,14,11.2482014C14,10.1345482,13.2745085,9.1916151,12.2708778,8.8625059z
	 M11.1932592,8.7553606c-1.24786,0.1462631-2.2166204,1.2056589-2.2166204,2.4928408
	c0,0.2020969,0.0265121,0.3976164,0.0715904,0.5858746c-0.6953487,0.4212503-1.5103106,0.6641083-2.3809004,0.6641083
	c-0.6351991,0-1.2407341-0.1291361-1.7918749-0.362608c0.0940604-0.2636852,0.1479068-0.5464144,0.1479068-0.8423653
	c0-1.3872032-1.1244774-2.5116806-2.5116804-2.5116806c-0.1226964,0-0.2424469,0.0117836-0.3604848,0.0287733
	c-0.0605605-0.297596-0.0925534-0.6055355-0.0925534-0.9208059c0-1.6173186,0.8380489-3.0416522,2.1020072-3.8644242
	C4.6032748,4.7403574,5.3926148,5.218401,6.2955403,5.218401c1.0315819,0,1.9169002-0.6223879,2.303555-1.5116804
	c1.5787497,0.7320683,2.6768522,2.3311641,2.6768522,4.1827774C11.2759476,8.1855173,11.2468319,8.4746866,11.1932592,8.7553606z"/>
</svg>
