<?xml version="1.0" encoding="utf-8"?>
<!-- Generator: Adobe Illustrator 19.1.0, SVG Export Plug-In . SVG Version: 6.00 Build 0)  -->
<svg version="1.1" id="list" xmlns="http://www.w3.org/2000/svg" xmlns:xlink="http://www.w3.org/1999/xlink" x="0px" y="0px"
	 viewBox="0 0 14 14" style="enable-background:new 0 0 14 14;" xml:space="preserve">
<style type="text/css">
	.st0{fill:#010101;}
</style>
<path class="st0" d="M3.2973576,10.8029413h10.4052849C13.866868,10.8029413,14,10.9360733,14,11.1002989v1.3052845
	c0,0.1642265-0.133132,0.2973576-0.2973576,0.2973576H3.2973576C3.1331315,12.7029409,3,12.5698099,3,12.4055834v-1.3052845
	C3,10.9360733,3.1331315,10.8029413,3.2973576,10.8029413z M0.0117648,11.1002989v1.3052845
	c0,0.1642265,0.1331315,0.2973576,0.2973576,0.2973576h1.3732306c0.1642261,0,0.2973576-0.133131,0.2973576-0.2973576v-1.3052845
	c0-0.1642265-0.1331315-0.2973576-0.2973576-0.2973576H0.3091223C0.1448963,10.8029413,0.0117648,10.9360723,0.0117648,11.1002989z
	 M3,6.3944163v1.305285c0,0.1642261,0.1331315,0.2973576,0.2973576,0.2973576h10.4052849
	C13.866868,7.9970589,14,7.8639274,14,7.6997013v-1.305285c0-0.1642261-0.133132-0.2973576-0.2973576-0.2973576H3.2973576
	C3.1331315,6.0970588,3,6.2301903,3,6.3944163z M0.0117648,6.3944163v1.3052845
	c0,0.1642261,0.1331315,0.2973576,0.2973576,0.2973576h1.3732306c0.1642261,0,0.2973576-0.1331315,0.2973576-0.2973576V6.3944163
	c0-0.1642261-0.1331315-0.2973576-0.2973576-0.2973576H0.3091223C0.1448963,6.0970588,0.0117648,6.2301903,0.0117648,6.3944163z
	 M3,1.5944163v1.3052849c0,0.1642261,0.1331315,0.2973576,0.2973576,0.2973576h10.4052849
	C13.866868,3.1970587,14,3.0639272,14,2.8997011V1.5944163c0-0.1642261-0.133132-0.2973576-0.2973576-0.2973576H3.2973576
	C3.1331315,1.2970587,3,1.4301902,3,1.5944163z M0.0117648,1.594416v1.3052849c0,0.1642261,0.1331315,0.2973576,0.2973576,0.2973576
	h1.3732306c0.1642261,0,0.2973576-0.1331315,0.2973576-0.2973576V1.594416c0-0.1642261-0.1331315-0.2973576-0.2973576-0.2973576
	H0.3091223C0.1448963,1.2970585,0.0117648,1.43019,0.0117648,1.594416z"/>
</svg>
