<?xml version="1.0" encoding="utf-8"?>

<!--
 * Copyright (c) 2015, WSO2 Inc. (http://www.wso2.org) All Rights Reserved.
 *
 * WSO2 Inc. licenses this file to you under the Apache License,
 * Version 2.0 (the "License"); you may not use this file except
 * in compliance with the License.
 * You may obtain a copy of the License at
 *
 * http://www.apache.org/licenses/LICENSE-2.0
 *
 * Unless required by applicable law or agreed to in writing,
 * software distributed under the License is distributed on an
 * "AS IS" BASIS, WITHOUT WARRANTIES OR CONDITIONS OF ANY
 * KIND, either express or implied. See the License for the
 * specific language governing permissions and limitations
 * under the License.
-->

<svg version="1.1" id="map-location" xmlns="http://www.w3.org/2000/svg" xmlns:xlink="http://www.w3.org/1999/xlink" x="0px"
	 y="0px" viewBox="-0.313 0 14.41 14" enable-background="new -0.313 0 14.41 14" xml:space="preserve">
<path id="path1" d="M0.318,10.258c1.775,0,3.52,1.113,4.182,1.594l-0.18,2.166l-4.633-1.925l0.481-1.865
	C0.198,10.258,0.258,10.258,0.318,10.258z M9.584,9.837c2.647,2.016,4.121,2.196,4.242,2.226l0.271,1.745l-4.422-1.444v-0.15
	L9.584,9.837z M8.772,9.717l0.12,2.527v0.15l-3.821,1.624l0.18-2.166L8.772,9.717z M7.027,8.243v1.624L5.372,10.92l0.18-2.106
	L7.027,8.243z M13.164,7.912l0.511,3.219c-0.602-0.03-1.685-0.662-2.647-1.294C11.66,7.972,13.134,7.912,13.164,7.912z M3.477,5.174
	l1.564,0.572v0.09l-0.18,1.955C2.635,6.678,3.387,5.295,3.477,5.174z M1.672,4.512l1.023,0.361C1.762,6.889,3.898,8.273,4.801,8.724
	L4.59,10.98C1.1,8.784,0.409,9.416,0.409,9.416l-0.09,0.271L1.672,4.512z M8.561,4.482l0.18,4.302L7.839,9.356l-0.03-1.805
	C7.749,7.16,7.267,7.22,7.267,7.22L5.613,7.852l0.18-1.955l0.03-0.18L8.561,4.482z M9.343,4.452l0.752,0.241l0.451,1.655
	l0.241,0.902l0.572-0.752l0.812-1.113l0.662,0.211l0.211,1.444c-2.076,0.271-2.768,2.256-2.768,2.256l0.09,0.06
	c-0.331-0.241-0.602-0.421-0.812-0.602L9.343,4.452z M11.78,0.993c-0.451,0-0.872,0.331-0.963,0.812
	c-0.09,0.541,0.241,1.053,0.782,1.143s1.053-0.241,1.143-0.782s-0.241-1.053-0.782-1.143C11.9,0.993,11.84,0.993,11.78,0.993z
	 M11.81,0c0.12,0,0.211,0,0.331,0.03c1.023,0.18,1.715,1.203,1.534,2.226c-0.06,0.361-0.241,0.692-0.481,0.933l-1.083,1.504
	l-1.113,1.534l-0.481-1.835l-0.481-1.805c-0.12-0.331-0.15-0.692-0.09-1.053C10.095,0.632,10.908,0,11.81,0z"/>
</svg>
