<?xml version="1.0" encoding="utf-8"?>

<!--
 * Copyright (c) 2015, WSO2 Inc. (http://www.wso2.org) All Rights Reserved.
 *
 * WSO2 Inc. licenses this file to you under the Apache License,
 * Version 2.0 (the "License"); you may not use this file except
 * in compliance with the License.
 * You may obtain a copy of the License at
 *
 * http://www.apache.org/licenses/LICENSE-2.0
 *
 * Unless required by applicable law or agreed to in writing,
 * software distributed under the License is distributed on an
 * "AS IS" BASIS, WITHOUT WARRANTIES OR CONDITIONS OF ANY
 * KIND, either express or implied. See the License for the
 * specific language governing permissions and limitations
 * under the License.
-->

<svg version="1.1" id="mouse-pointer" xmlns="http://www.w3.org/2000/svg" xmlns:xlink="http://www.w3.org/1999/xlink" x="0px"
	 y="0px" viewBox="0 0 14 14" style="enable-background:new 0 0 14 14;" xml:space="preserve">
<path d="M11.17236,6.57178c-0.10571-0.15863-0.23511-0.28894-0.33813-0.38599c-0.19049-0.17822-0.38464-0.35364-0.57874-0.52911
	L8.86646,4.39526c-1.43738-1.3075-2.87561-2.6145-4.31659-3.91919c-0.17773-0.1604-0.37823-0.29303-0.58014-0.3833
	c-0.2616-0.11707-0.53772-0.1239-0.77655-0.01727C2.95483,0.18121,2.77441,0.38855,2.68555,0.65924
	C2.61487,0.87207,2.57886,1.1095,2.57751,1.36609c-0.005,1.56128-0.00458,3.12256-0.00409,4.6839L2.57294,7.91565l0.00183,2.10223
	c0.00323,0.82941,0.51227,1.43372,1.23682,1.47015c0.33905,0.02191,0.67725-0.08838,0.89551-0.1795
	c0.4129-0.17139,0.8194-0.35913,1.23047-0.54962l0.07288-0.03375l1.03998,2.2832C7.33429,13.6272,7.91901,14,8.55017,14
	c0.12579,0,0.25427-0.01459,0.38281-0.04559c0.48578-0.11664,0.88867-0.43567,1.10651-0.87317
	c0.216-0.43567,0.2251-0.94604,0.02643-1.39996c-0.21149-0.48486-0.43207-0.96613-0.6535-1.44733L9.0141,9.35803l1.37262-0.62708
	c0.12762-0.05927,0.29437-0.14038,0.45209-0.2561C11.47406,8.00726,11.60986,7.22388,11.17236,6.57178z M10.28558,7.7229
	c-0.08752,0.0647-0.19965,0.11896-0.28894,0.15997L7.78046,8.89502l0.7843,1.72809c0.21783,0.47577,0.43658,0.95245,0.64624,1.43188
	c0.08929,0.20416,0.08655,0.42108-0.00824,0.61157c-0.09479,0.19232-0.26886,0.32721-0.48853,0.38007
	c-0.3327,0.08295-0.66077-0.09027-0.81573-0.42749L6.68079,9.94775L6.6626,9.90851L6.4671,9.49017L5.54608,9.91125
	c-0.40015,0.18597-0.79523,0.36823-1.19855,0.53595c-0.18457,0.07654-0.36273,0.11029-0.4881,0.10938
	c-0.32397-0.01642-0.35089-0.41925-0.35132-0.5423l-0.0014-3.96429C3.50629,4.48956,3.5058,2.9292,3.5108,1.36975
	c0.00092-0.15497,0.02191-0.29944,0.07794-0.42474C3.70087,0.99512,3.82025,1.0744,3.92419,1.16827
	c1.44006,1.30383,2.87738,2.61084,4.31519,3.91736l1.38995,1.26331c0.19049,0.17175,0.38007,0.34357,0.56598,0.51721
	c0.0647,0.06152,0.14673,0.14221,0.2005,0.22375C10.55627,7.32825,10.51617,7.55292,10.28558,7.7229z"/>
</svg>
