<?xml version="1.0" encoding="utf-8"?>
<!-- Generator: Adobe Illustrator 19.1.0, SVG Export Plug-In . SVG Version: 6.00 Build 0)  -->
<svg version="1.1" id="move" xmlns="http://www.w3.org/2000/svg" xmlns:xlink="http://www.w3.org/1999/xlink" x="0px" y="0px"
	 viewBox="0 0 14 14" style="enable-background:new 0 0 14 14;" xml:space="preserve">
<path d="M6.031189,0.9984741H5.0222778v-1H6.031189h1.0089111v1H6.031189z M3.4036865,0.9984741h0.9060059v-1H3.4036865H3.3007812
	H2.3947754v1h0.9060059H3.4036865z M3.7919922,4.0874023c-0.039856,0.1835938,0.0380249,0.3294067,0.1634521,0.460022
	c1.072876,1.1177368,3.8534546,3.9118652,4.9251099,5.0307617C8.93396,9.6339111,8.9857178,9.6912231,9.064209,9.7757568
	C8.9750366,9.7738647,8.9266968,9.7728271,8.878418,9.7717896C8.4723511,9.7631226,8.0663452,9.7523804,7.6602173,9.746521
	c-0.2949829-0.0042725-0.5140381,0.1981812-0.5170898,0.4703979c-0.0029297,0.2653198,0.2058716,0.4733887,0.4931641,0.4802246
	c0.8370972,0.0198975,1.6742554,0.0377197,2.5114746,0.0529175c0.3380127,0.0061646,0.5280151-0.1842041,0.5362549-0.5272217
	c0.0080566-0.3358154,0.0150757-0.6716919,0.0222168-1.0075684c0.0101929-0.4812622,0.0230103-0.9624634,0.0291138-1.4437256
	c0.0033569-0.2646484-0.1781006-0.4683838-0.4287109-0.4966431C10.0704346,7.248291,9.8419189,7.4200439,9.7935181,7.6653442
	C9.7820435,7.7236938,9.7843018,7.7850342,9.782959,7.8450928C9.7736816,8.2543335,9.7651978,8.6636353,9.7564697,9.072876
	C9.7388306,9.0821533,9.7212524,9.0914917,9.7036133,9.1008301c-0.0321045-0.045166-0.0592041-0.0951538-0.0971069-0.1347656
	c-0.748291-0.78302-1.4977417-1.5648193-2.2470703-2.3468018C7.0125732,6.2572632,4.9573364,4.2194214,4.6087646,3.8590088
	C4.477356,3.7230835,4.3193359,3.666626,4.1304321,3.7213135C3.9434814,3.7753906,3.8321533,3.9022827,3.7919922,4.0874023z
	 M1,1.2512817c0-0.1394043,0.1134033-0.2528076,0.2528076-0.2528076h0.0936279v-1H0.9279175
	C0.4161987-0.0015259,0,0.4146729,0,0.9263916v0.4185181h1V1.2512817z M8.3834229,1.2512817v0.0916138h1V0.9263916
	c0-0.5117188-0.4161987-0.9279175-0.9276123-0.9279175H8.0369263v1h0.0939941
	C8.2699585,0.9984741,8.3834229,1.1118774,8.3834229,1.2512817z M8.3797607,3.3536987v1.0089111h1V3.3536987V2.3447876h-1V3.3536987
	z M2.3448486,8.3833618v1h1.0089111h1.0089111v-1H3.3537598H2.3448486z M13.0724487,4.618103H6.9797363l0.7158203,1
	l5.0803833-0.0001831c0.1394043,0,0.2525024,0.1134033,0.2525024,0.2528076l-0.0687866,6.8765869
	c0,0.1390381-0.1130371,0.2525024-0.2524414,0.2525024l-6.8377686,0.0146484c-0.1394043,0-0.2525024-0.1134033-0.2525024-0.2525024
	V7.828125l-1-0.7192993v5.9650879c0,0.5114136,0.4161987,0.9276123,0.9275513,0.9276123h7.5279541
	C13.5841675,14.0015259,14,13.5853271,14,13.0739136V5.5460205C14,5.0343018,13.5841675,4.618103,13.0724487,4.618103z M1,3.3521729
	V2.3432617H0v1.0089111V4.361084h1V3.3521729z M1,8.1305542V8.0369263H0v0.4185791
	c0,0.5117188,0.4161987,0.9278564,0.9279175,0.9278564h0.4185791v-1h-0.093689C1.1134033,8.3833618,1,8.2699585,1,8.1305542z
	 M1,6.0826416V5.9797363V5.0737305H0v0.9060059v0.1029053v0.9060059h1V6.0826416z"/>
</svg>
