<?xml version="1.0" encoding="utf-8"?>
<!-- Generator: Adobe Illustrator 19.1.0, SVG Export Plug-In . SVG Version: 6.00 Build 0)  -->
<svg version="1.1" id="mute" xmlns="http://www.w3.org/2000/svg" xmlns:xlink="http://www.w3.org/1999/xlink" x="0px" y="0px"
	 viewBox="0 0 14 14" style="enable-background:new 0 0 14 14;" xml:space="preserve">
<path d="M0.000795,9.5422087c-0.0013999-1.7414689-0.0013999-3.4843378,0-5.2258062
	c0-0.4143689,0.239382-0.6453514,0.6663498-0.6467514c1.6140783-0.0014,3.2267568-0.0028,4.8408351,0.0028
	c0.2477813,0.0014,0.4521656-0.0643954,0.6509509-0.214184c1.4390912-1.0933175,2.8865824-2.1782355,4.331274-3.2659535
	c0.043396-0.0321976,0.0881929-0.0629953,0.1637878-0.1147913c0,0.8343371,0.0028,1.6294771-0.0042,2.4246173
	c0,0.0587955-0.051796,0.1329899-0.1007919,0.1749868C9.189702,3.8530371,7.8276052,5.0261493,6.4655075,6.2006602
	c-1.4936872,1.2879033-2.9859748,2.5758061-4.4838619,3.858109c-0.0713947,0.0615959-0.186186,0.0979929-0.2813787,0.1007929
	c-0.3583729,0.011199-0.716746,0.006999-1.075119,0.004199C0.2499762,10.1609621,0.0021949,9.9159803,0.000795,9.5422087z
	 M5.3525915,10.1623621c0.1945853-0.0028,0.3583732,0.053196,0.5137615,0.1693869
	c1.5426831,1.163312,3.0867672,2.3252239,4.6294518,3.4871368c0.041997,0.032197,0.0881929,0.061595,0.1497889,0.1035919
	c0-3.1847601,0-6.3443217,0-9.5416803c-2.239831,1.9318547-4.4572639,3.8413115-6.6732974,5.7521667
	C4.4454598,10.1637611,4.8990259,10.1693611,5.3525915,10.1623621z M13.962656,0.9857507l-0.290184-0.3405614
	c-0.0563831-0.0661717-0.1557341-0.0741069-0.2219057-0.0177236L0.1117762,11.9931107
	c-0.0661717,0.0563841-0.0741069,0.1557341-0.0177236,0.2219057l0.2901837,0.3405619
	c0.0563833,0.0661716,0.1557338,0.0741062,0.2219055,0.0177231L13.944932,1.2076563
	C14.0111036,1.1512729,14.0190392,1.0519224,13.962656,0.9857507z"/>
</svg>
