<?xml version="1.0" encoding="utf-8"?>
<!-- Generator: Adobe Illustrator 19.2.0, SVG Export Plug-In . SVG Version: 6.00 Build 0)  -->
<svg version="1.1" id="mute" xmlns="http://www.w3.org/2000/svg" xmlns:xlink="http://www.w3.org/1999/xlink" x="0px" y="0px"
	 viewBox="0 0 14 14" style="enable-background:new 0 0 14 14;" xml:space="preserve">
<path d="M13.9899902,6.8800049C14,6.9099731,14,6.9299927,14,6.960022c0,0.0899658,0,0.1799927,0,0.2699585
	c0,0.0900269-0.0100098,0.1799927-0.0100098,0.2800293c-0.039978,0.6900024-0.1499634,1.3800049-0.3599854,2.039978
	c-0.2999878,1-0.7800293,1.9000244-1.4100342,2.7200317l-0.8499756-0.5500488
	c0.1099854-0.1599731,0.2399902-0.3199463,0.3499756-0.4799805c0.5200195-0.7799683,0.8800049-1.6199951,1.0900269-2.5299683
	c0.1500244-0.6799927,0.210022-1.3699951,0.1599731-2.0700073C12.9000244,5.5200195,12.5999756,4.4699707,12.0599976,3.5
	l0.7800293-0.6599731c0.4199829,0.7099609,0.7299805,1.4799805,0.9299927,2.289978
	c0.0999756,0.4299927,0.1699829,0.8599854,0.1999512,1.2999878C13.9799805,6.5800171,13.9899902,6.7299805,13.9899902,6.8800049z
	 M12.1400146,6.9299927c0-0.0499878,0-0.1099854-0.0100098-0.1599731c-0.0200195-0.4800415-0.0900269-0.9400024-0.2200317-1.4100342
	c-0.1199951-0.4500122-0.289978-0.8800049-0.5099487-1.289978l-0.7900391,0.6699829
	C10.9000244,5.3699951,11.0800171,6.039978,11.1199951,6.75c0.0300293,0.4699707,0,0.9400024-0.0899658,1.4000244
	c-0.1100464,0.5599976-0.3000488,1.0899658-0.5700073,1.5899658c-0.1199951,0.2299805-0.2600098,0.4400024-0.4100342,0.6500244
	l0.8300171,0.5799561c0.8399658-1.1599731,1.25-2.4499512,1.2600098-3.8799438
	C12.1400146,7.039978,12.1400146,6.9899902,12.1400146,6.9299927z M14,1.2000122l-0.5-0.6000366l-13.5,11.5l0.5,0.6000366
	L14,1.2000122z M10.1500244,6.7299805c-0.0400391-0.4599609-0.1400146-0.8999634-0.3099976-1.3299561L9.0100098,6.0999756
	c0.1300049,0.4200439,0.1699829,0.8699951,0.1199951,1.3400269c-0.0300293,0.3499756-0.1099854,0.6799927-0.2399902,1
	C8.8099976,8.6400146,8.7000122,8.8300171,8.5900269,9.0200195L9.5,9.4699707
	c0.4299927-0.7299805,0.6599731-1.5199585,0.6599731-2.4299927C10.1599731,6.9699707,10.1599731,6.8499756,10.1500244,6.7299805z
	 M7.7999878,13V7.1300049l-3.4699707,2.960022L7.7999878,13z M7.7000122,4.8900146V1L3.5,4.5999756
	c-0.9000244,0-2.7000122,0-3.5999756,0V9.5c0.7999878-0.0900269,1.6799927-0.0999756,2.5-0.0999756L7.7000122,4.8900146z"/>
</svg>
