<?xml version="1.0" encoding="utf-8"?>
<!-- Generator: Adobe Illustrator 19.1.0, SVG Export Plug-In . SVG Version: 6.00 Build 0)  -->
<svg version="1.1" id="padlock" xmlns="http://www.w3.org/2000/svg" xmlns:xlink="http://www.w3.org/1999/xlink" x="0px" y="0px"
	 viewBox="0 0 14 14" style="enable-background:new 0 0 14 14;" xml:space="preserve">
<path d="M10.6999998,5.8000002h-1.5v-2c0-1.2-1-2.2-2.1999998-2.2s-2.1999998,1-2.1999998,2.2v2H3.3v-2C3.3,1.7,4.9000001,0,7,0
	s3.6999998,1.7,3.6999998,3.7V5.8000002z M12.3000002,13.1999998V7.3000002C12.3000002,6.9000001,11.9000006,6.5,11.5,6.5h-9
	C2,6.5,1.7,6.8000002,1.7,7.3000002v5.9000006C1.7,13.6000004,2,14,2.5,14h9C12,14,12.3000002,13.6000004,12.3000002,13.1999998z
	 M7.5,9.8000002v2.0999994h-1V9.8000002C6.3000002,9.6000004,6.0999999,9.3000002,6.0999999,9
	C6.0999999,8.5,6.5,8.1000004,7,8.1000004S7.9000001,8.5,7.9000001,9C7.9000001,9.3000002,7.6999998,9.6000004,7.5,9.8000002z"/>
</svg>
