<?xml version="1.0" encoding="utf-8"?>
<!-- Generator: Adobe Illustrator 19.1.0, SVG Export Plug-In . SVG Version: 6.00 Build 0)  -->
<svg version="1.1" id="paste" xmlns="http://www.w3.org/2000/svg" xmlns:xlink="http://www.w3.org/1999/xlink" x="0px" y="0px"
	 viewBox="0 0 14 14" style="enable-background:new 0 0 14 14;" xml:space="preserve">
<path d="M11.8586884,2.6463623h-0.9866638V2.6341858c0-0.2192993-0.1794128-0.3986816-0.3987122-0.3986816H9.2741547
	C9.2731476,1.964386,9.2662506,1.6991577,9.1755829,1.5177002C8.9732208,0.7082825,8.4673004,0.2023621,7.6578827,0.1011658
	C7.5566559,0,7.4555206,0,7.3543549,0C7.1519928,0,6.9496002,0,6.7472382,0C6.6460724,0,6.4437103,0,6.3425446,0.1011658
	C5.4319,0.3035278,4.8248444,0.9106445,4.8248444,1.9224548c0,0.1011658,0,0.202301,0,0.3035278c0,0-0.1012268,0-0.2023621,0
	c-0.2023926,0-0.4047546,0-0.6071472,0c-0.0446472,0-0.0926819,0.0050049-0.1402283,0.0095215H3.5272369
	c-0.2192383,0-0.3987122,0.1793823-0.3987122,0.3986816v0.0121765H2.1417999c-0.6392822,0-1.1595154,0.5197144-1.1595154,1.1590271
	v9.0355835C0.9822845,13.4802551,1.5025177,14,2.1417999,14h9.7168884c0.6392822,0,1.1590271-0.5197449,1.1590271-1.1590271
	V3.8053894C13.0177155,3.1660767,12.4979706,2.6463623,11.8586884,2.6463623z M6.9662323,1.0689392
	c0.4299316,0,0.7784729,0.3485413,0.7784729,0.7784729c0,0.4299622-0.3485413,0.7785034-0.7784729,0.7785034
	c-0.4299622,0-0.7785034-0.3485413-0.7785034-0.7785034C6.1877289,1.4174805,6.5362701,1.0689392,6.9662323,1.0689392z
	 M12.0059052,12.8409729c0,0.0800476-0.0671997,0.1472168-0.1472168,0.1472168H2.1417999
	c-0.0800171,0-0.1477051-0.0671692-0.1477051-0.1472168V3.8053894c0-0.0800476,0.067688-0.1472473,0.1477051-0.1472473h0.9867249
	v0.7155762c0,0.2192383,0.1794739,0.3986816,0.3987122,0.3986816h6.9460754c0.2192993,0,0.3987122-0.1794434,0.3987122-0.3986816
	V3.6581421h0.9866638c0.0800171,0,0.1472168,0.0671997,0.1472168,0.1472473V12.8409729z"/>
</svg>
