<?xml version="1.0" encoding="utf-8"?>

<!--
 * Copyright (c) 2015, WSO2 Inc. (http://www.wso2.org) All Rights Reserved.
 *
 * WSO2 Inc. licenses this file to you under the Apache License,
 * Version 2.0 (the "License"); you may not use this file except
 * in compliance with the License.
 * You may obtain a copy of the License at
 *
 * http://www.apache.org/licenses/LICENSE-2.0
 *
 * Unless required by applicable law or agreed to in writing,
 * software distributed under the License is distributed on an
 * "AS IS" BASIS, WITHOUT WARRANTIES OR CONDITIONS OF ANY
 * KIND, either express or implied. See the License for the
 * specific language governing permissions and limitations
 * under the License.
-->

<svg version="1.1" id="paste" xmlns="http://www.w3.org/2000/svg" xmlns:xlink="http://www.w3.org/1999/xlink" x="0px" y="0px"
	 viewBox="-413 291.28 14 14" style="enable-background:new -413 291.28 14 14;" xml:space="preserve">
<path d="M-401.07135,293.92636h-0.98666v-0.01218c0-0.2193-0.17941-0.39868-0.39871-0.39868h-1.19916
	c-0.00101-0.27112-0.0079-0.53635-0.09857-0.7178c-0.20236-0.80942-0.70828-1.31534-1.5177-1.41653
	c-0.10123-0.10117-0.20236-0.10117-0.30353-0.10117c-0.20236,0-0.40475,0-0.60712,0c-0.10117,0-0.30353,0-0.40469,0.10117
	c-0.91064,0.20236-1.5177,0.80948-1.5177,1.82129c0,0.10117,0,0.2023,0,0.30353c0,0-0.10123,0-0.20236,0
	c-0.20239,0-0.40475,0-0.60715,0c-0.04465,0-0.09268,0.005-0.14023,0.00952h-0.34787c-0.21924,0-0.39871,0.17938-0.39871,0.39868
	v0.01218h-0.98672c-0.63928,0-1.15952,0.51971-1.15952,1.15903v9.03558c0,0.63928,0.52023,1.15903,1.15952,1.15903h9.71689
	c0.63928,0,1.15903-0.51974,1.15903-1.15903v-9.03558C-399.91232,294.44608-400.43207,293.92636-401.07135,293.92636z
	 M-405.96381,292.34894c0.42993,0,0.77847,0.34854,0.77847,0.77847c0,0.42996-0.34854,0.7785-0.77847,0.7785
	c-0.42996,0-0.7785-0.34854-0.7785-0.7785C-406.74231,292.69748-406.39377,292.34894-405.96381,292.34894z M-400.92413,304.12097
	c0,0.08005-0.0672,0.14722-0.14722,0.14722h-9.71689c-0.08002,0-0.14771-0.06717-0.14771-0.14722v-9.03558
	c0-0.08005,0.06769-0.14725,0.14771-0.14725h0.98672v0.71558c0,0.21924,0.17947,0.39868,0.39871,0.39868h6.94608
	c0.2193,0,0.39871-0.17944,0.39871-0.39868v-0.71558h0.98666c0.08002,0,0.14722,0.0672,0.14722,0.14725V304.12097z"/>
</svg>
