<?xml version="1.0" encoding="utf-8"?>
<!-- Generator: Adobe Illustrator 16.0.0, SVG Export Plug-In . SVG Version: 6.00 Build 0)  -->
<!DOCTYPE svg PUBLIC "-//W3C//DTD SVG 1.1//EN" "http://www.w3.org/Graphics/SVG/1.1/DTD/svg11.dtd">
<svg version="1.1" id="Layer_1" xmlns="http://www.w3.org/2000/svg" xmlns:xlink="http://www.w3.org/1999/xlink" x="0px" y="0px"
	 width="128px" height="128px" viewBox="0 0 128 128" enable-background="new 0 0 128 128" xml:space="preserve">
<path fill="none" stroke="#000000" stroke-width="8" stroke-miterlimit="10" d="M124.188,63.999
	c0,33.242-26.947,60.187-60.188,60.187c-33.241,0-60.188-26.945-60.188-60.187C3.812,30.762,30.759,3.814,64,3.814
	C97.241,3.814,124.188,30.762,124.188,63.999z M37.699,59.983c-2.467,0-4.462,1.824-4.462,4.079c0,2.252,1.995,4.081,4.462,4.081
	c2.462,0,4.458-1.828,4.458-4.081C42.158,61.807,40.161,59.983,37.699,59.983z M65.406,59.983c-2.462,0-4.461,1.824-4.461,4.079
	c0,2.252,1.999,4.081,4.461,4.081c2.462,0,4.455-1.828,4.455-4.081C69.861,61.807,67.868,59.983,65.406,59.983z M89.88,59.983
	c-2.455,0-4.461,1.824-4.461,4.079c0,2.252,2.006,4.081,4.461,4.081c2.469,0,4.46-1.828,4.46-4.081
	C94.34,61.807,92.349,59.983,89.88,59.983z"/>
</svg>
