<?xml version="1.0" encoding="utf-8"?>
<!-- Generator: Adobe Illustrator 19.1.0, SVG Export Plug-In . SVG Version: 6.00 Build 0)  -->
<svg version="1.1" id="pointer" xmlns="http://www.w3.org/2000/svg" xmlns:xlink="http://www.w3.org/1999/xlink" x="0px" y="0px"
	 viewBox="0 0 14 14" style="enable-background:new 0 0 14 14;" xml:space="preserve">
<path d="M6.18576,10.3276596c-0.6210198,0.2827702-1.2205601,0.5717297-1.8341398,0.82691
	c-0.23072,0.0959501-0.49687,0.1681499-0.74191,0.1554699c-0.52142-0.0269699-0.84847-0.46733-0.85075-1.07827
	C2.7551301,9.2087002,2.7574301,8.1856203,2.7574699,7.16255C2.75754,5.0966001,2.75542,3.0306501,2.7618499,0.9647198
	c0.0006299-0.20118,0.0274-0.41116,0.0899799-0.60128c0.1057999-0.32145,0.3893199-0.44556,0.69735-0.30793
	C3.72631,0.13466,3.89553,0.25042,4.0398998,0.38109C5.9923897,2.14821,7.9398799,3.9208598,9.8886099,5.6921301
	c0.2930403,0.2663598,0.58881,0.52981,0.8776703,0.8006201c0.1051998,0.09863,0.2079,0.2054501,0.2877903,0.3245902
	c0.3216105,0.47965,0.2272396,1.0181203-0.2381496,1.3600898c-0.1209698,0.0888901-0.2581396,0.1591101-0.3950396,0.2223797
	C9.7873802,8.6926203,9.15135,8.9799604,8.49718,9.2779303c0.1174603,0.2600298,0.2297697,0.5097103,0.3429403,0.7589903
	c0.3296204,0.7260704,0.6672802,1.4486103,0.9872599,2.1788998c0.32516,0.7420902-0.08992,1.5606403-0.8728199,1.7494497
	c-0.5859404,0.1413202-1.1804299-0.1574602-1.4457302-0.7354803c-0.4095998-0.8923798-0.81389-1.7871895-1.22054-2.6809196
	C6.25846,10.4833202,6.2277398,10.41817,6.18576,10.3276596z"/>
</svg>
