<?xml version="1.0" encoding="utf-8"?>

<!--
 * Copyright (c) 2015, WSO2 Inc. (http://www.wso2.org) All Rights Reserved.
 *
 * WSO2 Inc. licenses this file to you under the Apache License,
 * Version 2.0 (the "License"); you may not use this file except
 * in compliance with the License.
 * You may obtain a copy of the License at
 *
 * http://www.apache.org/licenses/LICENSE-2.0
 *
 * Unless required by applicable law or agreed to in writing,
 * software distributed under the License is distributed on an
 * "AS IS" BASIS, WITHOUT WARRANTIES OR CONDITIONS OF ANY
 * KIND, either express or implied. See the License for the
 * specific language governing permissions and limitations
 * under the License.
-->

<svg version="1.1" id="policy" xmlns="http://www.w3.org/2000/svg" xmlns:xlink="http://www.w3.org/1999/xlink" x="0px" y="0px"
	 viewBox="0 0 14 14" style="enable-background:new 0 0 14 14;" xml:space="preserve">
<path d="M8.0422144,9.1009398c0,0.1729736-0.1409907,0.3129883-0.3129878,0.3129883
	c-0.1740112,0-0.3140259-0.1400146-0.3140259-0.3129883c0.0010376-0.1730347,0.1400146-0.3130493,0.3140259-0.3130493
	C7.9022002,8.7878904,8.0422144,8.9279051,8.0422144,9.1009398z M4.0362334,9.413928h2.7550049V8.7878904H4.0362334V9.413928z
	 M6.1652007,5.6589231H4.0362334v0.6259766h2.1289673V5.6589231z M8.0422144,4.4079466h-4.005981v0.625h4.005981V4.4079466z
	 M8.0422144,7.5369139h-4.005981v0.625h4.005981V7.5369139z M8.3369961,12.4156876h2.3309937v-1.5640259L10.3069668,11.23069
	v0.8059692H8.698019v-1.6859741h1.2559814l0.3610229-0.3779907H8.3369961V12.4156876z M9.0940151,10.8596573l-0.2550049,0.2670288
	l0.6129761,0.6430054l1.5339966-1.6080322L10.730978,9.8937149l-1.2779541,1.3399658L9.0940151,10.8596573z M8.9808264,0H2.2938566
	v14h10.1300049V3.2576382L8.9808264,0z M11.2238493,12.7999878H3.4938688V1.2000122h5.1199951v2.6099854h2.6099854V12.7999878z"/>
</svg>
