<?xml version="1.0" encoding="utf-8"?>
<!-- Generator: Adobe Illustrator 19.1.0, SVG Export Plug-In . SVG Version: 6.00 Build 0)  -->
<svg version="1.1" id="policy" xmlns="http://www.w3.org/2000/svg" xmlns:xlink="http://www.w3.org/1999/xlink" x="0px" y="0px"
	 viewBox="0 0 14 14" style="enable-background:new 0 0 14 14;" xml:space="preserve">
<path d="M8.2805786,9.2984009c0,0.1729736-0.1409912,0.3129883-0.3129883,0.3129883
	c-0.1740112,0-0.3140259-0.1400146-0.3140259-0.3129883c0.0010376-0.1730347,0.1400146-0.3130493,0.3140259-0.3130493
	C8.140564,8.9853516,8.2805786,9.1253662,8.2805786,9.2984009z M3.2745972,9.6113892h3.7550049V8.9853516H3.2745972V9.6113892z
	 M6.4035645,5.8563843H3.2745972v0.6259766h3.1289673V5.8563843z M12.0703735,2.9688721V13.307251
	C12.0703735,13.703125,11.7790527,14,11.390686,14H2.609314c-0.3883667,0-0.6796875-0.296936-0.6796875-0.692749V0.692749
	C1.9296265,0.296875,2.2209473,0,2.609314,0h5.9655762h0.4854736L12.0703735,2.9688721z M11.1550293,3.3386841H9.2545776
	c-0.3884277,0-0.6796875-0.296875-0.6796875-0.692749V0.9152832H3.1362305c-0.1941528,0-0.2912598,0.098938-0.2912598,0.296875
	v11.5756226c0,0.197937,0.0971069,0.296875,0.2912598,0.296875h7.727478c0.0971069,0,0.2913208-0.098938,0.2913208-0.296875
	V3.3386841z M8.2805786,4.6054077H3.2745972v0.625h5.0059814V4.6054077z M8.2805786,7.734375H3.2745972v0.625h5.0059814V7.734375z
	 M8.2805786,12.6413574h2.3309937v-1.5640259l-0.3610229,0.3790283v0.8059692H8.6416016V10.576355H9.897583l0.3610229-0.3779907
	H8.2805786V12.6413574z M9.0375977,11.0853271L8.7825928,11.352356l0.6129761,0.6430054l1.5339966-1.6080322l-0.2550049-0.2679443
	l-1.2779541,1.3399658L9.0375977,11.0853271z"/>
</svg>
