<?xml version="1.0" encoding="utf-8"?>
<!-- Generator: Adobe Illustrator 19.1.0, SVG Export Plug-In . SVG Version: 6.00 Build 0)  -->
<svg version="1.1" id="Layer_1" xmlns="http://www.w3.org/2000/svg" xmlns:xlink="http://www.w3.org/1999/xlink" x="0px" y="0px"
	 viewBox="0 0 14 14" style="enable-background:new 0 0 14 14;" xml:space="preserve">
<path d="M11.6509628,1.839C10.4729624,0.662,8.9079628,0.01,7.2419624,0H7.1799622
	C3.7169626,0.018,0.9139625,2.849,0.9329625,6.3099999c0.003,0.6129999,0.098,1.204,0.266,1.763
	c0.147-0.1760001,0.319-0.3280001,0.51-0.454c-0.081-0.3340001-0.136-0.6789999-0.155-1.0339999h2.1800003
	c0.0089998,0.2740002,0.0359998,0.5440001,0.0729997,0.8119998c0.2549996,0.099,0.4889998,0.2399998,0.6929998,0.4190001
	c-0.085-0.4039998-0.1389999-0.8140001-0.1529999-1.23h2.5580001v1.5890002
	C6.2699623,8.198,5.6379623,8.2980003,5.0199623,8.4689999c0.0970001,0.1780005,0.1700001,0.3710003,0.2179999,0.573
	c0.5469999-0.1440001,1.1059999-0.2319994,1.6680002-0.2559996v3.0999994c-0.2969999-0.2539997-0.5760002-0.533-0.829-0.8330002
	c-0.1040001-0.1230001-0.2010002-0.2510004-0.296-0.3789997v0.9630003c0.0479999,0.0530005,0.0929999,0.1079998,0.1420002,0.1599998
	c-0.0479999-0.0109997-0.0939999-0.0270004-0.1420002-0.0389996v0.6289997C6.2419624,12.4949999,6.7199626,12.559,7.2129626,12.559
	c0.0110002,0,0.0229998,0,0.0310001,0c1.6780009-0.0100002,3.2510009-0.6709995,4.4310012-1.8619995
	c1.1789999-1.1929998,1.8249998-2.7729998,1.8170004-4.448C13.4809628,4.5819998,12.8279629,3.017,11.6509628,1.839z
	 M3.7579625,5.6420002c-0.01,0.1100001-0.0150001,0.2220001-0.0209999,0.3299999H1.5539626
	c0.058-1.1090002,0.439-2.1340001,1.0500001-2.9860001c0.4860001,0.3280001,0.9990001,0.598,1.5299995,0.8109999
	C3.9369626,4.3860002,3.8119626,5.0050001,3.7579625,5.6420002z M2.9869626,2.507c0.7810001-0.8710001,1.825-1.503,3.0099995-1.763
	C5.2889624,1.465,4.7329621,2.3050001,4.3489623,3.223C3.8759625,3.0309999,3.4219625,2.7939999,2.9869626,2.507z
	 M6.9049625,5.9720001H4.3499622C4.3539624,5.8790002,4.3599625,5.7860003,4.3679624,5.691
	c0.0479999-0.5799999,0.164-1.1459999,0.342-1.6879997c0.7150002,0.2259998,1.454,0.355,2.1949997,0.3800001
	C6.9049625,4.3829999,6.9049625,5.9720001,6.9049625,5.9720001z M6.9049625,3.7720001
	C6.2369628,3.7450001,5.5719628,3.632,4.9259624,3.4290001c0.4369998-1.029,1.1069999-1.9500002,1.9790001-2.697V3.7720001z
	 M6.9049625,0.641l-0.0159998-0.02c0.0040002,0,0.0100002,0,0.0159998,0V0.641z M11.8169632,2.9890001
	c0.6099997,0.852,0.9940004,1.8760002,1.052,2.983h-2.1809998c-0.0310001-0.7459998-0.1639996-1.4770002-0.3970003-2.177
	C10.8189631,3.585,11.3319626,3.3150001,11.8169632,2.9890001z M11.431963,2.51
	c-0.4329996,0.2869999-0.8870001,0.523-1.3570004,0.7120001C9.7639627,2.4890001,9.3429632,1.798,8.8139629,1.171
	C8.6909628,1.024,8.5629625,0.883,8.4259624,0.744C9.6059628,1.006,10.6509628,1.636,11.431963,2.51z M7.5179625,0.622
	c0.006,0,0.0110002,0,0.0159998,0.001L7.5179625,0.641V0.622z M7.5179625,0.732
	c0.2969999,0.256,0.5770006,0.5370001,0.8280001,0.8349999c0.4799995,0.569,0.8669996,1.1960001,1.151,1.862
	C8.8509626,3.632,8.1859627,3.744,7.5179625,3.7709999V0.732z M7.5179625,4.3829999
	C8.2589626,4.3579998,8.997963,4.2290001,9.7139635,4.0029998c0.2089996,0.6329999,0.3310003,1.2940001,0.3599997,1.9689999
	H7.5179625V4.3829999L7.5179625,4.3829999z M7.5179625,6.586h2.5570002
	c-0.0039997,0.1129999-0.0100002,0.2280002-0.0200005,0.3400002c-0.046999,0.5619998-0.1569996,1.1109996-0.3249998,1.6340003
	C9.0109625,8.3299999,8.266963,8.1999998,7.5179625,8.1750002V6.586L7.5179625,6.586z M7.5179625,11.8859997V8.7859993
	c0.6760006,0.0280008,1.3510008,0.144001,2.0020008,0.3490009C9.0839624,10.1859999,8.4049625,11.1260004,7.5179625,11.8859997z
	 M11.2389631,10.2650003c-0.7630005,0.7699995-1.7069998,1.2939997-2.7379999,1.533
	C9.1879635,11.0799999,9.7239637,10.25,10.0969629,9.3439999C10.5599632,9.5319996,11.009963,9.7690001,11.4369631,10.052
	C11.3739624,10.1230001,11.306963,10.1960001,11.2389631,10.2650003z M11.8239632,9.5710001
	c-0.4829998-0.3219995-0.9910002-0.5900002-1.5159998-0.8039999c0.1850004-0.573,0.3050003-1.1719999,0.3579998-1.79
	c0.0129995-0.1300001,0.0179996-0.2610002,0.0240002-0.3930001h2.1800003
	C12.8119631,7.6700001,12.4499626,8.6990004,11.8239632,9.5710001z M5.0909624,10.1739998H4.9649625v-0.585
	c0-1.0819998-0.8590002-1.987-1.9319999-2.006c-0.029,0-0.0880001,0-0.1170001,0
	C1.8419626,7.6030002,0.9839625,8.507,0.9839625,9.5889997v0.585h-0.126c-0.193,0-0.35,0.1990004-0.35,0.4440002v2.9349995
	c0,0.2470007,0.158,0.4470005,0.35,0.4470005H5.089962c0.1929998,0,0.3499999-0.2010002,0.3499999-0.4460001v-2.9350004
	C5.4399624,10.3730001,5.2829623,10.1739998,5.0909624,10.1739998z M3.3709626,12.0839996v0.8870001
	c0,0.1020002-0.085,0.1870003-0.187,0.1870003H2.7639625c-0.102,0-0.187-0.0860004-0.187-0.1870003v-0.8870001
	c-0.098-0.0970001-0.1559999-0.2309999-0.1559999-0.3800001c0-0.2810001,0.2179999-0.5229998,0.494-0.5340004
	c0.029-0.0010004,0.0880001-0.0010004,0.1170001,0c0.276,0.0109997,0.494,0.2530003,0.494,0.5340004
	C3.5269625,11.8520002,3.4689627,11.9870005,3.3709626,12.0839996z M4.1409621,10.1739998H3.0329626H2.9159625H1.8079625v-0.585
	c0-0.6449995,0.524-1.177,1.1669999-1.177s1.1670001,0.533,1.1670001,1.177
	C4.1409621,9.5889997,4.1409621,10.1739998,4.1409621,10.1739998z"/>
</svg>
