<?xml version="1.0" encoding="utf-8"?>

<!--
 * Copyright (c) 2015, WSO2 Inc. (http://www.wso2.org) All Rights Reserved.
 *
 * WSO2 Inc. licenses this file to you under the Apache License,
 * Version 2.0 (the "License"); you may not use this file except
 * in compliance with the License.
 * You may obtain a copy of the License at
 *
 * http://www.apache.org/licenses/LICENSE-2.0
 *
 * Unless required by applicable law or agreed to in writing,
 * software distributed under the License is distributed on an
 * "AS IS" BASIS, WITHOUT WARRANTIES OR CONDITIONS OF ANY
 * KIND, either express or implied. See the License for the
 * specific language governing permissions and limitations
 * under the License.
-->

<svg version="1.1" id="public-app" xmlns="http://www.w3.org/2000/svg" xmlns:xlink="http://www.w3.org/1999/xlink" x="0px" y="0px"
	 viewBox="0 0 14 13" style="enable-background:new 0 0 14 13;" xml:space="preserve">
<path d="M8.3985,2.30603c0.01007-0.54376,0.43304-0.95667,0.96674-0.95667c0.51361,0,0.94659,0.43304,0.94659,0.94659
	c0,0.53375-0.42291,0.95667-0.95667,0.95667C8.83154,3.25263,8.3985,2.82972,8.3985,2.30603z M8.26758,4.35028
	c0,0,0,0,0.01007,0.01007C8.38843,4.39057,8.3985,4.4812,8.3985,4.58191c0,0.68475,0,1.37958,0,2.06439l0.1712-0.08057
	c0.57397-0.28198,1.14801-0.57404,1.72198-0.85596h0.01007c0-0.37262,0-0.74518,0-1.1178c0-0.1712,0.06042-0.23163,0.19135-0.23163
	s0.18127,0.06042,0.18127,0.23163c0,0.33234,0,0.67468,0,1.01709c0.13092,0,0.26178,0.03021,0.38263,0.09064
	c0.09064,0.05035,0.22156,0.11078,0.38269,0.19135c0-0.53375,0-1.06744,0-1.6012c0-0.53369-0.36255-0.89624-0.89624-0.89624
	c-0.76532,0-1.5307,0-2.29602,0c0.01007,0.06042,0.01007,0.13092,0.01007,0.19135C8.25751,3.83673,8.25751,4.09851,8.26758,4.35028z
	 M10.34204,5.80042c0.11078-0.05035,0.22156-0.08057,0.33234-0.09064c0.11078,0,0.23157,0.02014,0.34235,0.08057
	c0.10071,0.05035,0.25177,0.12085,0.42297,0.21143c0.66461,0.32227,1.7522,0.86603,2.46716,1.22858
	c0.01007,0,0.01007,0,0.02014,0.01007l0.01007,0.01007c0.05035,0.03021,0.06042,0.08057,0.06042,0.11078
	c0,0.35248,0,0.69482,0,1.0473c0,0.81567,0,1.65149,0,2.4873c0,0.37262-0.16113,0.6344-0.50348,0.8056
	c-0.36255,0.18127-0.7251,0.37262-1.08759,0.55389l-1.47028,0.72504c-0.04028,0.02014-0.09064,0.03021-0.12079,0.01007
	l-2.83978-1.44006c-0.33234-0.16107-0.50354-0.43298-0.49347-0.79553c0-0.7049,0-1.40979,0-2.11469V7.73389
	c0-0.06042,0.01007-0.10071,0.04028-0.11078c0.01007-0.01007,0.02014-0.01007,0.04028-0.01007s0.05035,0.01007,0.0705,0.02014
	l2.91028,1.45007c0.26184,0.13092,0.42291,0.32227,0.47327,0.5639c0.02014,0.06042,0.02014,0.14099,0.02014,0.23163v2.78943
	l2.32623-1.20844c0.24164-0.12079,0.36249-0.31213,0.36249-0.58405c0-0.8056,0-1.63135,0-2.33624V7.60297L11.31885,8.7912
	c-0.25177,0.12085-0.51355,0.12085-0.76532,0L7.66339,7.34113C7.62311,7.32099,7.58282,7.2807,7.57275,7.24042
	s0.02014-0.0705,0.09064-0.10071L10.34204,5.80042z M10.92609,6.0622c-0.0705-0.04028-0.16107-0.06042-0.25171-0.06042
	c-0.0705-0.01007-0.14099,0.01007-0.22156,0.05035L8.0863,7.24042l2.59814,1.30914c0.09064,0.04028,0.17114,0.06042,0.25171,0.06042
	s0.1712-0.02014,0.25177-0.06042l2.38666-1.18829L10.92609,6.0622z M7.75403,7.99567V8.7912c0,0.58411,0,1.25879-0.01007,1.9234
	c0,0.28198,0.12085,0.4834,0.38263,0.60425l2.63843,1.32922V9.88886c0-0.25177-0.11078-0.44305-0.33234-0.55383
	c-0.04028-0.02014-0.09064-0.04028-0.13092-0.06042L7.75403,7.99567z M5.60907,2.24561h0.01007
	c0.30212,0,0.58411-0.13086,0.78546-0.33228c0.21149-0.20142,0.33234-0.4834,0.33234-0.79553C6.73694,0.51355,6.2334,0,5.62921,0
	c0,0,0,0-0.01007,0C4.99481,0,4.49127,0.49341,4.49127,1.12787c0,0.29199,0.11078,0.57397,0.32227,0.78546
	S5.30701,2.24561,5.60907,2.24561z M7.99573,6.60602c0.10065-0.06042,0.151-0.1712,0.151-0.35248V6.20319
	c0-0.60419,0-1.22852,0-1.85291c0-0.25177,0-0.51355,0-0.76532c0-0.06042-0.01007-0.13092-0.02014-0.19135
	C8.04608,2.88007,7.65332,2.53766,7.08942,2.53766c-0.86603,0-1.81262,0-2.9707,0c-0.60425,0-1.03723,0.43304-1.0473,1.02716
	v0.01007c0,0.30212,0,0.60419,0,0.90631c0,0.60419,0,1.20844,0,1.79248c0,0.14099,0.04028,0.2417,0.11078,0.30212
	s0.1712,0.09064,0.29205,0.09064c0.18121,0,0.29199-0.05035,0.36249-0.15106c0.04028-0.06042,0.05035-0.14099,0.06042-0.2417
	c0-0.06042,0-0.12085,0-0.18127c0-0.03021,0-0.05035,0-0.08057c0-0.19128,0-0.3927,0-0.58405c0-0.49341,0-1.00702,0-1.52057
	c0-0.11078,0.04028-0.20142,0.12085-0.26184c0.04028-0.03021,0.10071-0.05035,0.16113-0.05035
	c0.04028,0,0.0705,0.01007,0.11078,0.02014C4.4812,3.6756,4.4812,3.83673,4.4812,3.94751c0,0.67468,0,1.34937,0,2.02405v0.98688
	c0,0.28198,0,0.56396,0,0.84589c0,0.20142,0,0.40283,0,0.60425c0,0.50348,0,1.03723,0,1.55078
	c0,0.18127,0.06042,0.40283,0.33234,0.45319c0.13092,0.03021,0.26184,0,0.35248-0.08057
	c0.09064-0.0705,0.14099-0.19135,0.14099-0.33234c0-0.6344,0-1.289,0-1.9234c0-0.31219,0-0.6344,0-0.94659
	c0-0.02014,0-0.03021,0-0.05035C5.29694,7.01886,5.29694,6.94837,5.32709,6.89801C5.38751,6.82758,5.48822,6.70673,5.599,6.70673
	c0.08057,0,0.1712,0.06042,0.27191,0.18121c0.04028,0.05035,0.04028,0.12085,0.03021,0.1712c0,0.02014,0,0.04028,0,0.05035
	c0,0.32227,0,0.64447,0,0.96674c0,0.6344,0,1.289,0,1.9234c0,0.15106,0.06042,0.28198,0.1712,0.35248
	s0.26178,0.09064,0.40277,0.03021c0.21149-0.08057,0.25177-0.2417,0.25177-0.4834c0-1.90326,0-3.82666,0-5.68964V3.95758
	c0-0.12085,0.03021-0.21149,0.08057-0.27191c0.05035-0.05035,0.12085-0.0705,0.21149-0.0705c0.01007,0,0.01007,0,0.01007,0
	c0.25171,0,0.28192,0.1712,0.28192,0.34241c0,0.01007,0,0.01007,0,0.01007c0,0.28192,0,0.55383,0,0.83582
	c0,0.47327,0,0.97681,0,1.46014c0,0.28198,0.13092,0.40283,0.43304,0.40283C7.84467,6.66645,7.92523,6.6463,7.99573,6.60602z
	 M1.9234,3.44397C2.41687,3.4339,2.7995,3.05127,2.7995,2.5578c0-0.48334-0.3927-0.8761-0.8761-0.8761
	c-0.48334,0-0.8761,0.40283-0.8761,0.88617C1.0473,3.05127,1.44006,3.44397,1.9234,3.44397z M0.01007,4.27979
	C-0.01001,5.00483,0,5.72992,0,6.44489C0,6.57581,0.10071,6.69666,0.22156,6.7168c0.28198,0.05035,0.4834-0.05035,0.47333-0.37262
	c-0.01007-0.5639-0.01007-1.1178,0-1.6817c0-0.06042,0.03015-0.15106,0.08051-0.18127c0.12085-0.09064,0.27191,0,0.27191,0.1712
	c0,0.75525,0,1.50043,0,2.25568c0,0.74524,0,1.49042,0,2.2356c0,0.19135,0.08057,0.31219,0.25177,0.36255
	c0.2417,0.06042,0.44305-0.10071,0.44305-0.37262c0.01007-0.57397,0-1.13794,0-1.71191c0-0.1712,0-0.33234,0-0.50354
	C1.7522,6.80744,1.81262,6.74701,1.9234,6.74701c0.10071,0,0.16113,0.06042,0.1712,0.17114c0,0.05035,0,0.11078,0,0.16113
	c0,0.68475,0,1.3595,0,2.04425c0,0.19135,0.0705,0.30212,0.21149,0.36255C2.55786,9.58679,2.7995,9.41559,2.7995,9.13361
	c0-0.82574,0-1.65149,0-2.47723c0-0.66467,0-1.32928,0-1.9939c0-0.10071,0.02014-0.1712,0.12085-0.19135
	c0.01007-0.01007,0.02014-0.01007,0.03021-0.01007c0-0.29205,0-0.59412,0.01007-0.88617c-0.74518-0.01007-1.48029-0.01007-2.21545,0
	C0.36255,3.57489,0.02014,3.90723,0.01007,4.27979z"/>
</svg>
