<?xml version="1.0" encoding="utf-8"?>
<!-- Generator: Adobe Illustrator 19.1.0, SVG Export Plug-In . SVG Version: 6.00 Build 0)  -->
<svg version="1.1" id="public-app" xmlns="http://www.w3.org/2000/svg" xmlns:xlink="http://www.w3.org/1999/xlink" x="0px" y="0px"
	 viewBox="0 0 14 14" style="enable-background:new 0 0 14 14;" xml:space="preserve">
<path d="M8.4000244,2.8099976c0.0099487-0.5499878,0.4299927-0.960022,0.9699707-0.960022
	c0.5100098,0,0.9400024,0.4300537,0.9400024,0.9500122C10.3099976,3.3300171,9.8900146,3.75,9.3599854,3.75
	C8.8300171,3.75,8.4000244,3.3300171,8.4000244,2.8099976z M8.289978,4.8699951
	C8.4000244,4.8900146,8.4199829,4.960022,8.4199829,5.0700073c0,0.6199951,0,1.25,0,1.8599854l1.8900146-0.7399902
	c0-0.3699951,0-0.75,0-1.1300049c0-0.1799927,0.1599731-0.2799683,0.289978-0.1799927
	c0.0599976,0.0299683,0.0900269,0.1300049,0.0900269,0.1900024c0.0100098,0.3499756,0.0100098,0.7000122,0.0100098,1.0499878
	c0.0800171,0.0100098,0.1599731,0.0300293,0.2299805,0.0499878l0.5100098,0.210022c0-0.5700073,0-1.1500244-0.0100098-1.7200317
	c-0.0100098-0.3999634-0.3800049-0.7599487-0.7999878-0.7599487c-0.789978-0.0100098-1.5800171-0.0100098-2.3800049,0
	C8.2600098,4.2199707,8.2600098,4.539978,8.2600098,4.8599854C8.2700195,4.8599854,8.2800293,4.8599854,8.289978,4.8699951z
	 M14,8.1000366v3.8299561c0,0.1100464-0.0599976,0.2000122-0.1500244,0.2400513l-3.1599731,1.3099365
	C10.6599731,13.4899902,10.6300049,13.5,10.5999756,13.5c-0.0299683,0-0.0699463-0.0100098-0.0999756-0.0200195l-3.0499878-1.289978
	c-0.0900269-0.039978-0.1500244-0.1399536-0.1500244-0.2399902V8.5400391c0-0.0900269,0.0400391-0.1700439,0.1099854-0.210022
	C7.4500122,8.3000488,7.5,8.2800293,7.5499878,8.2800293c0.0300293,0,0.0599976,0.0100098,0.0800171,0.0200195l0.789978,0.2799683
	l0.7600098,0.2700195l0.3800049,0.1300049l0.75,0.2699585l0.3699951,0.1300049
	c0.1000366,0.0400391,0.1699829,0.1400146,0.1699829,0.2399902v3.2000122l2.5700073-1.0999756V8.460022L11,9.3900146
	c-0.0300293,0.0100098-0.0599976,0.0100098-0.0900269,0.0100098c-0.0199585,0-0.0499878,0-0.0699463-0.0100098l-0.5300293-0.1900024
	l-0.75-0.2700195L9.1799927,8.7900391L8.4199829,8.5100098l-0.8099976-0.289978
	C7.5200195,8.1900024,7.4500122,8.0900269,7.4500122,7.9900513c0-0.1100464,0.0599976-0.2000122,0.1599731-0.2400513
	l0.8099976-0.3200073l1.8900146-0.7399902l0.25-0.0999756c0.0300293-0.0100098,0.0599976-0.0100098,0.0900269-0.0100098
	c0.0099487,0,0.0299683,0,0.039978,0v0.0100098c0.0200195-0.0100098,0.0299683-0.0100098,0.0499878,0l0.7000122,0.289978
	l2.4000244,0.9800415C13.9400024,7.9000244,14,7.9900513,14,8.1000366z M12.8800049,8.0900269l-2.2800293-0.9400024
	l-0.289978,0.1099854l-0.75,0.2999878L9.1799927,7.710022L8.5300293,7.9700317l0.6499634,0.2299805l0.3800049,0.1400146
	l0.75,0.2700195l0.5999756,0.2199707L12.8800049,8.0900269z M10.2600098,10.0599976V9.8900146L9.5599976,9.6300049
	L9.1799927,9.4800415L8.4199829,9.1900024l-0.539978-0.1999512v2.75L10.2600098,12.75v-2.6799927V10.0599976z M5.6099854,2.75
	h0.0100098c0.2999878,0,0.5800171-0.1400146,0.7800293-0.3400269c0.2199707-0.1999512,0.3399658-0.4799805,0.3399658-0.789978
	C6.7399902,1.0100098,6.2299805,0.5,5.6300049,0.5c0,0,0,0-0.0100098,0c-0.6300049,0-1.1300049,0.4899902-1.1300049,1.1300049
	c0,0.289978,0.1099854,0.5700073,0.3200073,0.7799683C5.0300293,2.6199951,5.3099976,2.75,5.6099854,2.75z M7.3099976,4.4699707
	c0,0.2800293,0,0.5500488,0,0.8300171c0,0.4800415,0,0.9800415,0,1.460022c0,0.289978,0.1300049,0.4099731,0.4299927,0.4099731
	c0.0200195,0,0.0499878,0,0.0700073,0l0.0200195-0.0100098c0.0700073,0,0.1199951-0.0199585,0.1699829-0.0499878
	c0.0100098-0.0100098,0.0200195-0.0100098,0.0300293-0.0299683C8.1099854,7.0200195,8.1500244,6.9099731,8.1500244,6.75V6.7000122
	c0-0.6000366,0-1.2300415,0-1.8500366c0-0.25,0-0.5099487,0-0.7699585c0-0.0599976-0.0100098-0.1300049-0.0200195-0.1900024
	C8.0499878,3.3800049,7.6500244,3.039978,7.0900269,3.039978c-0.8700562,0-1.8099976,0-2.9700317,0
	c-0.6099854,0-1.039978,0.4299927-1.0499878,1.0200195v0.0100098c0,0.3099976,0,0.6099854,0,0.9099731
	c0,0.6100464,0,1.210022,0,1.7900391c0,0.1399536,0.039978,0.25,0.1099854,0.3099976s0.1699829,0.0899658,0.289978,0.0899658
	c0.1900024,0,0.3000488-0.0499878,0.3700562-0.1499634c0.039978-0.0700073,0.0499878-0.1500244,0.0599976-0.25
	c0-0.0599976,0-0.1199951,0-0.1799927c0-0.0300293,0-0.0500488,0-0.0800171c0-0.1900024,0-0.3900146,0-0.5800171
	c0-0.5,0-1.0100098,0-1.5200195c0-0.1099854,0.039978-0.1999512,0.1199951-0.2599487
	c0.039978-0.0300293,0.0999756-0.0500488,0.1599731-0.0500488c0.039978,0,0.0700073,0.0100098,0.1099854,0.0200195
	c0.1900024,0.0599976,0.1900024,0.2200317,0.1900024,0.3300171c0,0.6699829,0,1.3499756,0,2.0199585V7.460022
	c0,0.2799683,0,0.5599976,0,0.8399658c0,0.210022,0,0.4100342,0,0.6099854c0,0.5,0,1.0400391,0,1.5500488
	c0,0.1799927,0.0599976,0.3999634,0.3300171,0.4499512c0.1300049,0.0300293,0.2700195,0,0.3599854-0.0799561
	C5.2600098,10.7600098,5.3099976,10.6400146,5.3099976,10.5c0-0.6300049,0-1.289978,0-1.9199829
	c0-0.3200073,0-0.6400146,0-0.9500122c0-0.0200195,0-0.0300293,0-0.0499878
	C5.2999878,7.5200195,5.2999878,7.4500122,5.3300171,7.4000244C5.3900146,7.3300171,5.4899902,7.210022,5.5999756,7.210022
	c0.0800171,0,0.1700439,0.0599976,0.2700195,0.1799927c0.039978,0.0499878,0.039978,0.1199951,0.0300293,0.1699829
	c0,0.0200195,0,0.039978,0,0.0499878c0,0.3200073,0,0.6400146,0,0.9700317c0,0.6300049,0,1.289978,0,1.9199829
	c0,0.1500244,0.0599976,0.2800293,0.1699829,0.3499756c0.1099854,0.0700073,0.2600098,0.0900269,0.4099731,0.0300293
	c0.210022-0.0800171,0.25-0.2399902,0.25-0.4799805c0-1.9000244,0-3.8300171,0-5.6900024v-0.25
	c0-0.1199951,0.0300293-0.210022,0.0800171-0.2700195c0.0499878-0.0499878,0.1199951-0.0700073,0.210022-0.0700073
	c0.0100098,0,0.0100098,0,0.0100098,0c0.25,0,0.2799683,0.1699829,0.2799683,0.3400269
	C7.3099976,4.4699707,7.3099976,4.4699707,7.3099976,4.4699707z M1.9199829,3.9400024
	c0.5-0.0100098,0.8800049-0.3900146,0.8800049-0.8800049S2.4099731,2.1799927,1.9199829,2.1799927
	c-0.4799805,0-0.8699951,0.4000244-0.8699951,0.8900146C1.0499878,3.5499878,1.4400024,3.9400024,1.9199829,3.9400024z
	 M0.0100098,4.7800293C-0.0100098,5.5,0,6.2299805,0,6.9400024c0,0.1400146,0.0999756,0.2600098,0.2199707,0.2799683
	C0.5,7.2700195,0.7000122,7.1699829,0.6900024,6.8400269c-0.0100098-0.5599976-0.0100098-1.1100464,0-1.6800537
	c0-0.0599976,0.039978-0.1499634,0.0900269-0.1799927c0.1199951-0.0899658,0.2699585,0,0.2699585,0.1700439
	c0,0.7599487,0,1.5,0,2.2599487c0,0.7400513,0,1.4900513,0,2.2300415c0,0.2000122,0.0800171,0.3200073,0.25,0.3699951
	c0.2399902,0.0599976,0.4400024-0.1000366,0.4400024-0.3800049c0.0100098-0.5700073,0-1.1300049,0-1.710022
	c0-0.1699829,0-0.3299561,0-0.5C1.75,7.3099976,1.8099976,7.25,1.9199829,7.25c0.1000366,0,0.1600342,0.0599976,0.1700439,0.1699829
	c0,0.0499878,0,0.1100464,0,0.1600342c0,0.6799927,0,1.3599854,0,2.039978c0,0.1900024,0.0799561,0.3099976,0.2199707,0.3699951
	c0.25,0.1000366,0.4899902-0.0700073,0.4899902-0.3599854c0-0.8200073,0-1.6500244,0-2.4700317c0-0.6699829,0-1.3299561,0-2
	c0-0.0999756,0.0200195-0.1699829,0.1199951-0.1900024C2.9299927,4.960022,2.9400024,4.960022,2.9500122,4.960022
	c0-0.2900391,0-0.5900269,0.0100098-0.8900146c-0.7400513-0.0100098-1.4800415-0.0100098-2.210022,0
	C0.3599854,4.0700073,0.0200195,4.4099731,0.0100098,4.7800293z"/>
</svg>
