<?xml version="1.0" encoding="utf-8"?>

<!--
 * Copyright (c) 2015, WSO2 Inc. (http://www.wso2.org) All Rights Reserved.
 *
 * WSO2 Inc. licenses this file to you under the Apache License,
 * Version 2.0 (the "License"); you may not use this file except
 * in compliance with the License.
 * You may obtain a copy of the License at
 *
 * http://www.apache.org/licenses/LICENSE-2.0
 *
 * Unless required by applicable law or agreed to in writing,
 * software distributed under the License is distributed on an
 * "AS IS" BASIS, WITHOUT WARRANTIES OR CONDITIONS OF ANY
 * KIND, either express or implied. See the License for the
 * specific language governing permissions and limitations
 * under the License.
-->

<svg version="1.1" id="public" xmlns="http://www.w3.org/2000/svg" xmlns:xlink="http://www.w3.org/1999/xlink" x="0px" y="0px"
	 viewBox="0 0 14 14" style="enable-background:new 0 0 14 14;" xml:space="preserve">
<path d="M13.4,4.3c-0.4-0.8-0.9-1.6-1.5-2.2c-0.6-0.6-1.4-1.1-2.2-1.5C8.9,0.2,7.9,0,7,0C6.1,0,5.1,0.2,4.3,0.6
	C3.4,0.9,2.7,1.4,2.1,2.1C1.4,2.7,0.9,3.4,0.6,4.3C0.2,5.1,0,6.1,0,7c0,0.9,0.2,1.9,0.6,2.7c0.4,0.8,0.9,1.6,1.5,2.2
	c0.6,0.6,1.4,1.1,2.2,1.5C5.1,13.8,6.1,14,7,14c0.9,0,1.9-0.2,2.7-0.6c0.8-0.4,1.6-0.9,2.2-1.5c0.6-0.6,1.1-1.4,1.5-2.2
	C13.8,8.9,14,7.9,14,7C14,6.1,13.8,5.1,13.4,4.3z M4.2,12.4c-0.3-0.1-0.4-0.5-0.3-0.7c0.1-0.2,0.1-0.4,0.1-0.7
	c0-0.2,0.2-0.3,0.3-0.4c0.3-0.2,0.3-0.2,0.3-0.5c0-0.2,0-0.5,0.1-0.7c0-0.1,0.1-0.1,0.1-0.2c0.1-0.2,0-0.4-0.2-0.5
	C4.5,8.5,4.2,8.4,4,8.3c-0.1,0-0.2-0.1-0.3-0.1C3.6,8.1,3.6,8,3.5,7.9C3.4,7.8,3.4,7.7,3.2,7.6C3,7.4,2.7,7.2,2.4,7
	C2.2,6.8,2,6.7,1.7,6.8c-0.1,0.1-0.2,0-0.3-0.1C1.3,6.4,1.1,6.1,1.2,5.8c0-0.1,0.1-0.2,0.2-0.3c0.1-0.1,0.2-0.2,0.3-0.2
	C1.9,5.2,2,4.9,2.2,4.7c0.2-0.4,0.5-0.7,1-0.8c0.1,0,0.2-0.1,0.2-0.2c0-0.1,0-0.2,0.1-0.3c0-0.1,0.1-0.1,0.1,0c0,0,0,0,0,0
	c0.1,0.1,0.2,0.2,0.3,0.1C4,3.4,4.2,3.3,4.1,3.2C4.1,3,4.1,2.8,4,2.7C3.9,2.5,4,2.4,4.2,2.3c0,0,0,0,0,0C4.3,2.2,4.4,2.2,4.4,2
	c0-0.1-0.1-0.1-0.2-0.2c0,0-0.1,0-0.1-0.1c0.2-0.1,0.7-0.2,1-0.2c0,0.1-0.1,0.2-0.1,0.3c0,0.1,0,0.1,0,0.2c0,0.1,0,0.2,0.1,0.3
	c0.1,0.1,0.2,0,0.3,0c0.1-0.1,0.2-0.1,0.3-0.2C5.8,2,6.1,1.9,6.5,1.9c0.4,0,0.8-0.2,1-0.5C7.6,1.2,7.7,1.1,7.8,1
	C8.4,1.1,9,1.3,9.6,1.5C9.5,1.6,9.4,1.7,9.3,1.8C9.2,1.8,9,1.9,8.9,1.9C8.6,2.1,8.5,2.3,8.6,2.6c0,0.1,0,0.1-0.1,0.2
	C8.4,2.9,8.2,3,8,3C7.5,3,7.1,3.5,7.3,4c0,0.2,0.1,0.2,0.4,0.4C7.4,4.6,7.2,4.8,6.9,5.1C6.7,5.3,6.6,5.6,6.6,5.9
	c0,0.2,0,0.4-0.1,0.5c0,0.2,0,0.3,0.1,0.5c0.2,0.4,0.5,0.8,1,0.9c0.1,0.1,0.3,0,0.5,0c0.2,0,0.4-0.1,0.5-0.2c0.2-0.1,0.2,0,0.3,0.1
	c0,0,0,0,0,0c0.3,0.4,0.3,0.9,0.6,1.3c0.1,0.1,0,0.3,0,0.5c-0.1,0.2-0.1,0.5,0,0.7c0.1,0.3,0.2,0.7,0.3,1c0.1,0.2,0.2,0.3,0.4,0.2
	c0.1,0,0.2-0.1,0.3-0.2c0.3-0.3,0.6-0.6,0.8-0.9c0.2-0.3,0.4-0.6,0.5-0.9c0.1-0.2,0.1-0.4,0.1-0.6c0-0.2,0-0.4,0.1-0.6
	c0.1-0.2,0.3-0.4,0.4-0.6c0.2-0.2,0.2-0.5,0.1-0.7c0-0.1-0.1-0.1-0.1-0.2c0,0,0-0.1,0.1-0.1c0.3-0.1,0.4-0.3,0.4-0.6
	c0,0,0-0.1,0.1-0.1c0,0.1,0,0.3,0.1,0.4c0.4,3.1-1.8,6-4.9,6.6C6.8,13.2,5.5,13,4.2,12.4z M2,9.6c0.2,0.2,0.2,0.4,0.3,0.6
	c0,0.2,0.1,0.5,0.1,0.7C1.4,9.7,0.9,8.4,1,6.9c0.1,0.2,0.3,0.4,0.3,0.7C1.3,8.4,1.5,9,2,9.6z M11.3,4.7c0,0.1-0.1,0.2-0.2,0.2
	c-0.1,0-0.2,0-0.2,0c-0.2,0-0.4-0.1-0.6-0.1c-0.2,0-0.4-0.1-0.5-0.3c0,0,0-0.1-0.1-0.1c0.2,0.1,0.3,0,0.4-0.2
	c0.1,0.1,0.2,0.2,0.3,0.2c0.2,0,0.4,0,0.5,0c0.1,0,0.1,0,0.2,0.1C11.2,4.6,11.3,4.6,11.3,4.7z M9.7,4.3C9.6,4.3,9.6,4.3,9.7,4.3
	C9.2,3.9,8.8,4.1,8.3,4.2C8.5,4,8.6,3.9,8.7,3.8c0,0,0.2,0,0.2,0C9.2,3.9,9.4,4,9.6,4.1C9.6,4.1,9.6,4.2,9.7,4.3z"/>
</svg>
