<?xml version="1.0" encoding="utf-8"?>
<!-- Generator: Adobe Illustrator 19.1.0, SVG Export Plug-In . SVG Version: 6.00 Build 0)  -->
<svg version="1.1" id="redo" xmlns="http://www.w3.org/2000/svg" xmlns:xlink="http://www.w3.org/1999/xlink" x="0px" y="0px"
	 viewBox="0 0 14 14" style="enable-background:new 0 0 14 14;" xml:space="preserve">
<path d="M13.959383,5.2083588c-0.0268974-0.0844831-0.0676947-0.1647544-0.1341858-0.2312455l-3.8044491-3.7718952
	c-0.2295609-0.2295005-0.609374-0.2222797-0.8478403,0.0161264C8.9345016,1.4598107,8.9272814,1.8396238,9.1568422,2.0691242
	l2.7694101,2.7368565c0,0-7.801332-0.0037308-7.8735399,0H3.9976542c-0.0146823,0-0.0311322,0.0002499-0.0455391,0.0009146
	C1.3717989,4.925962-0.0362952,6.3824577,0.0007113,8.8153791c0.0009628,1.246788,0.3793317,2.2104616,1.1264418,2.9209862
	c1.3835015,1.317071,3.5275919,1.2304211,3.6190555,1.2217569c0.3340812-0.0163679,0.5911412-0.3003845,0.5747738-0.6344662
	c-0.0154042-0.3340816-0.30231-0.5786257-0.633503-0.5767002c-0.0154042-0.0019255-1.726248,0.0645056-2.7294552-0.8934507
	c-0.5006407-0.4784975-0.743259-1.1263819-0.743259-1.9813223C1.196292,7.6805735,1.5496434,6.1670074,3.9413321,6.0299993
	c0.014261,0.0010834,0.0418203-0.0012999,0.0563221-0.0012999h7.8926744L9.0945625,8.8223591
	C8.8648214,9.0521011,8.8720427,9.4322147,9.1106892,9.6708612c0.2385864,0.2385864,0.6187601,0.2458076,0.8484411,0.0161266
	l3.7715349-3.7694283C13.9026394,5.7361979,14,5.6298118,14,5.4173403C14,5.3432069,13.9826698,5.274128,13.959383,5.2083588z"/>
</svg>
