<?xml version="1.0" encoding="utf-8"?>

<!--
 * Copyright (c) 2015, WSO2 Inc. (http://www.wso2.org) All Rights Reserved.
 *
 * WSO2 Inc. licenses this file to you under the Apache License,
 * Version 2.0 (the "License"); you may not use this file except
 * in compliance with the License.
 * You may obtain a copy of the License at
 *
 * http://www.apache.org/licenses/LICENSE-2.0
 *
 * Unless required by applicable law or agreed to in writing,
 * software distributed under the License is distributed on an
 * "AS IS" BASIS, WITHOUT WARRANTIES OR CONDITIONS OF ANY
 * KIND, either express or implied. See the License for the
 * specific language governing permissions and limitations
 * under the License.
-->

<svg version="1.1" id="redo" xmlns="http://www.w3.org/2000/svg" xmlns:xlink="http://www.w3.org/1999/xlink" x="0px" y="0px"
	 viewBox="0 0 14 14" enable-background="new 0 0 14 14" xml:space="preserve">
<path id="XMLID_2_" d="M12.3,5.7c-0.1,0-0.1,0-0.2,0c-2.6,0-5.2,0-7.8,0c-0.3,0-0.6,0-0.8,0C1.9,6,0.7,7.6,1,9.2
	c0.3,1.5,1.5,2.5,3,2.5c2.3,0-2.5,0-0.2,0c0.7,0,1.4,0,2.1,0c0.3,0,0.5,0.2,0.5,0.5c0,0.3-0.2,0.4-0.5,0.4c-2.6,0,1.8,0-0.8,0
	c-0.6,0-1.2,0-1.8-0.1c-2-0.3-3.5-2.3-3.3-4.3c0.2-2,1.9-3.5,4-3.5c2.7,0,5.5,0,8.2,0c0.1,0,0.1,0,0.2,0c0,0,0,0,0,0
	c0,0-0.1-0.1-0.1-0.1C11.4,3.8,10.6,3,9.8,2.1C9.7,2.1,9.6,1.9,9.6,1.8c0-0.2,0.1-0.4,0.3-0.5c0.2-0.1,0.4-0.1,0.6,0.1
	c1.1,1.1,2.3,2.3,3.4,3.4c0.3,0.3,0.3,0.5,0,0.8C13,6.4,12.2,7.2,11.4,8c-0.4,0.4-0.7,0.7-1.1,1.1c-0.1,0.1-0.3,0.2-0.5,0.1
	C9.7,9.1,9.6,9,9.6,8.8c0-0.2,0.1-0.3,0.2-0.4c0.8-0.8,1.6-1.6,2.5-2.5C12.3,5.9,12.3,5.8,12.3,5.7C12.4,5.8,12.3,5.7,12.3,5.7z"/>
</svg>
