<?xml version="1.0" encoding="utf-8"?>
<!-- Generator: Adobe Illustrator 19.2.0, SVG Export Plug-In . SVG Version: 6.00 Build 0)  -->
<svg version="1.1" id="refresh" xmlns="http://www.w3.org/2000/svg" xmlns:xlink="http://www.w3.org/1999/xlink" x="0px" y="0px"
	 viewBox="0 0 14 14" style="enable-background:new 0 0 14 14;" xml:space="preserve">
<style type="text/css">
	.st0{display:none;}
</style>
<path class="st0" d="M12.5662956,7.1065788c-0.3958902-0.0101004-0.6801834,0.2842927-0.7005081,0.6904078
	c-0.0202618,0.3147173-0.0405865,0.6294346-0.0913353,0.9339905c-0.4974508,2.5786505-3.0254145,4.3045464-5.6243892,3.8375206
	C3.6119993,12.1015329,1.865841,9.7462025,2.1805584,7.1979766c0.2436442-1.9898643,1.6852472-3.6243627,3.6142004-4.1218138
	C6.0993142,3.00509,6.4140315,2.9543409,6.7287493,2.9340167v1.1472096c0,0.1827335,0.1523085,0.335042,0.3350415,0.335042
	c0.0812354,0,0.1624088-0.0406489,0.223382-0.1015596l1.1674724-0.8527548l1.2995186-0.9543145
	c0.0304241-0.0203245,0.065815-0.0508301,0.09624-0.0813165C9.9011526,2.3654118,9.9470587,2.2944198,9.9470587,2.203084
	c0-0.0913975-0.0286531-0.1574993-0.079402-0.2184103c-0.0304241-0.0304246-0.0830688-0.0658826-0.113493-0.0862069
	L8.4546452,0.9442143L7.2871728,0.0913976C7.2261996,0.0304865,7.1450262,0,7.0637908,0
	C6.8810577,0,6.7287493,0.1421465,6.7287493,0.3248796v1.2487695C6.5561781,1.5837494,6.3836069,1.6040738,6.2109742,1.6243981
	c-2.355269,0.3553041-4.0304155,1.6344982-4.9542437,3.8273582c-1.2893562,3.0558386,0.1522467,6.609128,3.1674986,7.9797201
	c0.6598597,0.3045549,1.3502054,0.4872885,2.0812001,0.5481987c0.0304246,0,0.0710731,0.0101624,0.11166,0.0203247
	c0.2639685,0,0.5177746,0,0.7817435,0c0.2842307-0.0406485,0.5685239-0.0710735,0.8425927-0.1218224
	c2.8832674-0.5888481,4.9543056-3.1167498,4.9746294-6.0507665C13.2262173,7.4212961,12.9419241,7.1167412,12.5662956,7.1065788z"/>
<path d="M11.9534845,7.7170458c0,2.7316437-2.2218409,4.9534845-4.9534845,4.9534845s-4.953485-2.2218409-4.953485-4.9534845
	c0-2.4595942,1.8043804-4.5007534,4.1583242-4.8831058v1.404501L9.875432,2.1192205L6.2048392,0v1.4905679
	c-3.089761,0.3927928-5.4877934,3.0320404-5.4877934,6.2264776C0.7170457,11.1818018,3.5352437,14,7,14
	s6.2829542-2.8181982,6.2829542-6.2829542H11.9534845z"/>
</svg>
