<?xml version="1.0" encoding="utf-8"?>

<!--
 ~   Copyright (c) WSO2 Inc. (http://wso2.com) All Rights Reserved.
 ~
 ~   Licensed under the Apache License, Version 2.0 (the "License");
 ~   you may not use this file except in compliance with the License.
 ~   You may obtain a copy of the License at
 ~
 ~        http://www.apache.org/licenses/LICENSE-2.0
 ~
 ~   Unless required by applicable law or agreed to in writing, software
 ~   distributed under the License is distributed on an "AS IS" BASIS,
 ~   WITHOUT WARRANTIES OR CONDITIONS OF ANY KIND, either express or implied.
 ~   See the License for the specific language governing permissions and
 ~   limitations under the License.
-->

<svg version="1.1" id="refresh" xmlns="http://www.w3.org/2000/svg" xmlns:xlink="http://www.w3.org/1999/xlink" x="0px" y="0px"
	 viewBox="0 0 14 14" style="enable-background:new 0 0 14 14;" xml:space="preserve">
<path d="M0,7c0-1.9048433,0.7545856-3.6766739,2.0907068-4.9861326l-0.022176-0.0273532L1.0967593,0.7874612l4.3344016-0.6881441
	L3.8599057,4.1970749L2.9442644,3.0672674l-0.1803412-0.222579C1.6760515,3.9485233,1.0603027,5.4190807,1.0603027,7
	c0,3.2751341,2.6642177,5.9396973,5.939352,5.9396973c3.2754793,0,5.9400425-2.6645632,5.9400425-5.9396973
	c0-3.1702085-2.4781818-5.7760959-5.6407967-5.9324493C7.1998425,1.0627187,7.1000938,1.0603027,6.9996548,1.0603027V0
	C7.1173511,0,7.2336669,0.0031064,7.350328,0.0086288C11.0793352,0.1929392,14,3.2637444,14,7c0,3.8598194-3.1401806,7-7.0003452,7
	C3.1401803,14,0,10.8598194,0,7z"/>
</svg>
