<?xml version="1.0" encoding="utf-8"?>

<!--
 * Copyright (c) 2015, WSO2 Inc. (http://www.wso2.org) All Rights Reserved.
 *
 * WSO2 Inc. licenses this file to you under the Apache License,
 * Version 2.0 (the "License"); you may not use this file except
 * in compliance with the License.
 * You may obtain a copy of the License at
 *
 * http://www.apache.org/licenses/LICENSE-2.0
 *
 * Unless required by applicable law or agreed to in writing,
 * software distributed under the License is distributed on an
 * "AS IS" BASIS, WITHOUT WARRANTIES OR CONDITIONS OF ANY
 * KIND, either express or implied. See the License for the
 * specific language governing permissions and limitations
 * under the License.
-->

<svg version="1.1" id="Register" xmlns="http://www.w3.org/2000/svg" xmlns:xlink="http://www.w3.org/1999/xlink" x="0px" y="0px"
	 viewBox="0 0 14 14" enable-background="new 0 0 14 14" xml:space="preserve">
<path fill="#010101" d="M11.9,4.5c-0.8-0.8-1.8-1.8-2.7-2.7C7.1,3.9,5,6,2.9,8.1C3.7,9,4.7,9.9,5.6,10.8C7.7,8.7,9.8,6.7,11.9,4.5z
	 M12.3,4.2c0.4-0.4,0.8-0.8,1.2-1.2c0.3-0.3,0.3-0.6,0-0.8c-0.7-0.6-1.3-1.3-1.9-1.9C11.3,0,11,0,10.7,0.2C10.3,0.6,10,1,9.6,1.3
	c-0.1,0-0.1,0.1-0.1,0.1C10.5,2.3,11.4,3.2,12.3,4.2C12.3,4.1,12.4,4.1,12.3,4.2z M1.9,11.7c0,0-0.1,0.2,0.2,0.2
	c1-0.2,2.1-0.3,3.1-0.5c-0.9-0.9-1.9-1.9-2.8-2.8C2.2,9.6,2,10.6,1.9,11.7z M13.7,4c-0.2,0-0.3,0.1-0.3,0.3v9H0.6V0.6h8.3
	c0.2,0,0.3-0.1,0.3-0.3S9.1,0,8.9,0H0.3C0.1,0,0,0.1,0,0.3v13.4C0,13.9,0.1,14,0.3,14l0,0h13.4l0,0l0,0c0.2,0,0.3-0.1,0.3-0.3V4.3
	C14,4.2,13.9,4,13.7,4z"/>
</svg>
