<?xml version="1.0" encoding="utf-8"?>
<!-- Generator: Adobe Illustrator 19.1.0, SVG Export Plug-In . SVG Version: 6.00 Build 0)  -->
<svg version="1.1" id="Register" xmlns="http://www.w3.org/2000/svg" xmlns:xlink="http://www.w3.org/1999/xlink" x="0px" y="0px"
	 viewBox="0 0 14 14" style="enable-background:new 0 0 14 14;" xml:space="preserve">
<path d="M9.3495483,1.8430786C10.3125,2.803772,11.2949219,3.7783203,12.1703491,4.6516724
	c-2.1885986,2.270752-4.3771973,4.3668823-6.5657959,6.550293C4.6415405,10.241272,3.6785278,9.2805176,2.8031006,8.4071655
	C4.9916992,6.2237549,7.1609497,4.0264893,9.3495483,1.8430786z M13.8336792,2.2062378
	c-0.6622925-0.6766357-1.2739868-1.277771-2.0134888-2.008728c-0.2626343-0.2620239-0.6190796-0.2681274-0.8754272,0
	c-0.4278564,0.4473877-0.7692261,0.8084106-1.1193848,1.1577148C9.7601929,1.4202271,9.737793,1.4425659,9.737793,1.4425659
	c0.9630127,0.9606934,1.8564453,1.8491821,2.819397,2.8099365c0.0168457-0.0167847,0.0335083-0.0335693,0.0501099-0.050354
	c0.0395508-0.0401001,0.0784912-0.0801392,0.1168213-0.1200562c0.3634644-0.37854,0.7021484-0.7213745,1.041748-1.0701904
	C14.0285034,2.749939,14.0963135,2.4682617,13.8336792,2.2062378z M1.7525635,12.0753174
	c0,0-0.0304565,0.1746826,0.1751099,0.1746826c1.0505371-0.1746826,2.1483154-0.3895874,3.1988525-0.564209
	c-0.9630127-0.9607544-1.8390503-1.8347168-2.802063-2.7954102C2.1494141,9.9384155,1.9276733,10.9399414,1.7525635,12.0753174z
	 M13.986145,4.3190308C13.951416,4.0767212,13.7518311,3.8875122,13.5,3.8875122c-0.276123,0-0.5,0.2238159-0.5,0.5
	c0,0.006897,0.0036621,0.0126953,0.0039673,0.0195312C13.0036621,4.4119873,13,4.4188232,13,4.4235229V13H0.9941406V0.9882202
	L8.8510742,0.999939C8.8511963,0.999939,8.8513184,1,8.8514404,1s0.0002441-0.000061,0.0003662-0.000061L8.9000244,1
	c0.024353,0,0.0477905-0.0161743,0.0719604-0.024353C9.1882324,0.9205322,9.3514404,0.7333984,9.3514404,0.5
	s-0.163208-0.4205322-0.3794556-0.475647C8.9478149,0.0161743,8.9243774,0,8.9000244,0H0.2999878
	C0.0999756,0,0,0.0999756,0,0.2999878v13.4000244C0,13.9000244,0.0999756,14,0.2999878,14h13.4000244
	C13.9000244,14,14,13.9000244,14,13.7000122V4.3568726C14,4.3475952,13.989624,4.3310547,13.986145,4.3190308z"/>
</svg>
