<?xml version="1.0" encoding="utf-8"?>

<!--
 * Copyright (c) 2015, WSO2 Inc. (http://www.wso2.org) All Rights Reserved.
 *
 * WSO2 Inc. licenses this file to you under the Apache License,
 * Version 2.0 (the "License"); you may not use this file except
 * in compliance with the License.
 * You may obtain a copy of the License at
 *
 * http://www.apache.org/licenses/LICENSE-2.0
 *
 * Unless required by applicable law or agreed to in writing,
 * software distributed under the License is distributed on an
 * "AS IS" BASIS, WITHOUT WARRANTIES OR CONDITIONS OF ANY
 * KIND, either express or implied. See the License for the
 * specific language governing permissions and limitations
 * under the License.
-->

<svg version="1.1" id="resource" xmlns="http://www.w3.org/2000/svg" xmlns:xlink="http://www.w3.org/1999/xlink" x="0px" y="0px"
	 viewBox="0 0 14 14" style="enable-background:new 0 0 14 14;" xml:space="preserve">
<path d="M13.6499243,2.784507h-3.5767584V1.8830142c0-0.5426046-0.4417734-0.9843787-0.9843788-0.9843787H4.911159
	c-0.5426044,0-0.9843786,0.4417741-0.9843786,0.9843787V2.784507H0.3500227C0.1574942,2.784507,0,2.9420545,0,3.134583v9.179203
	c0,0.1925287,0.1574942,0.3500767,0.3500227,0.3500767h1.1444899v0.3056421c0,0.072525,0.0592806,0.1318588,0.1318059,0.1318588
	h0.8670993c0.0725253,0,0.1318059-0.0593338,0.1318059-0.1318588v-0.3056421h8.7859764v0.3056421
	c0,0.072525,0.0593338,0.1318588,0.1318054,0.1318588h0.8670998c0.072525,0,0.1318588-0.0593338,0.1318588-0.1318588v-0.3056421
	h1.1079607C13.842452,12.6638632,14,12.5063152,14,12.3137865V3.134583C14,2.9420545,13.842452,2.784507,13.6499243,2.784507z
	 M5.0205345,1.9923897h3.9588776V2.784507H5.0205345V1.9923897z"/>
</svg>
