<?xml version="1.0" encoding="utf-8"?>
<!-- Generator: Adobe Illustrator 19.1.0, SVG Export Plug-In . SVG Version: 6.00 Build 0)  -->
<svg version="1.1" id="rest-api" xmlns="http://www.w3.org/2000/svg" xmlns:xlink="http://www.w3.org/1999/xlink" x="0px" y="0px"
	 viewBox="0 0 14 14" style="enable-background:new 0 0 14 14;" xml:space="preserve">
<path d="M2.1656528,7.0000005c0,0.2717981,0.2205746,0.4923725,0.4923725,0.4923725h0.7955322V6.5076275H2.6580253
	C2.3862274,6.5076275,2.1656528,6.7282019,2.1656528,7.0000005z M2.1656528,5.3984823
	c0,0.2717977,0.2205746,0.492373,0.4923725,0.492373h0.7955322V4.9061098H2.6580253
	C2.3862274,4.9061098,2.1656528,5.1266842,2.1656528,5.3984823z M11.8343477,5.3984823
	c0-0.2717981-0.2205753-0.4913273-0.4923725-0.4913273H10.546443v0.9847455h0.7955322
	C11.6127272,5.8908553,11.8343477,5.6692352,11.8343477,5.3984823z M4.9055867,11.3414516
	c0,0.2717991,0.2205749,0.4923725,0.492373,0.4923725c0.2717986,0,0.492373-0.2205744,0.492373-0.4923725v-0.7955313H4.9066319
	L4.9055867,11.3414516L4.9055867,11.3414516z M2.1656528,8.6015177c0,0.2728434,0.2205746,0.4934187,0.4923725,0.4934187h0.7955322
	v-0.984745H2.6580253C2.3862274,8.1101913,2.1656528,8.3286743,2.1656528,8.6015177z M6.5071044,11.3414516
	c0,0.2717991,0.2205749,0.4923725,0.492373,0.4923725s0.492373-0.2205744,0.492373-0.4923725v-0.7955313h-0.984746V11.3414516z
	 M9.0933685,2.6585484c0-0.2717981-0.2205753-0.4923728-0.4934187-0.4923728c-0.2717981,0-0.4913273,0.2205746-0.4913273,0.4923728
	v0.795532h0.984746V2.6585484L9.0933685,2.6585484z M7.4928956,2.6585484c0-0.2717981-0.2205749-0.4923728-0.492373-0.4923728
	S6.5071044,2.3867502,6.5071044,2.6585484v0.795532h0.9857907C7.4928956,3.4540806,7.4928956,2.6585484,7.4928956,2.6585484z
	 M5.8903322,2.6585484c0-0.2717981-0.2205744-0.4923728-0.492373-0.4923728c-0.2717977,0-0.4913273,0.2205746-0.4913273,0.4923728
	v0.795532h0.9847455v-0.795532H5.8903322z M11.3419752,8.1101913H10.546443v0.984746h0.7955322
	c0.2717981,0,0.4923725-0.2205753,0.4923725-0.4934187C11.8343477,8.3286743,11.6127272,8.1101913,11.3419752,8.1101913z
	 M9.5596066,3.9265909H4.4393487c-0.2832975,0-0.5132806,0.2299829-0.5132806,0.5132804v5.1192126
	c0,0.2832966,0.2299826,0.5132799,0.5132806,0.5132799h5.1192126c0.2832966,0,0.5132799-0.2299833,0.5132799-0.5132799V4.4398713
	C10.0728865,4.1565742,9.8429041,3.9265909,9.5596066,3.9265909z M6.0837269,7.96802L5.9206481,7.4275594h-0.606319
	L5.1679764,7.96802H4.6735129l0.6439528-2.1064353H5.939465l0.656497,2.1064358
	C6.595962,7.9680204,6.0837269,7.9680204,6.0837269,7.96802z M8.2006159,7.0020909
	C8.0375366,7.1526251,7.7939644,7.223711,7.5127578,7.223711c-0.0627227,0-0.119173-0.0031357-0.1630788-0.0125446V7.96802
	H6.8782134V5.8887639c0.1463532-0.0250888,0.3533378-0.0439057,0.6439524-0.0439057
	c0.2937512,0,0.5059628,0.0564504,0.6470895,0.171442c0.1338081,0.1034923,0.2216196,0.27807,0.2216196,0.4840097
	C8.3908749,6.7114763,8.3250151,6.886054,8.2006159,7.0020909z M9.1728172,7.96802H8.6982155V5.8615842h0.4746017V7.96802z
	 M11.3419752,6.5076275H10.546443v0.984745h0.7955322c0.2717981,0,0.4923725-0.2205744,0.4923725-0.492373
	C11.8343477,6.7282014,11.6127272,6.5076275,11.3419752,6.5076275z M7.547255,6.2086496
	c-0.0961747,0-0.1620336,0.0062723-0.1965308,0.0156808v0.6219993c0.0407696,0.009408,0.0909476,0.0125442,0.1599426,0.0125442
	c0.2529812,0,0.4097881-0.1275358,0.4097881-0.3407931C7.9194093,6.3236413,7.7876921,6.2086496,7.547255,6.2086496z
	 M8.110713,11.3414516L8.110713,11.3414516c-0.0010452,0.2717991,0.2195292,0.4923725,0.4913273,0.4923725
	c0.2717991,0,0.4923725-0.2205744,0.4923725-0.4923725v-0.7955313H8.110713V11.3414516L8.110713,11.3414516z M5.6153979,6.2180581
	H5.6059895C5.577764,6.343503,5.5432668,6.5024004,5.5119052,6.6247096l-0.128581,0.4463763h0.4662385L5.717845,6.6236644
	C5.6833477,6.4992642,5.6457138,6.3393216,5.6153979,6.2180581z M0,6.7278829c0.7313134,0,0.8333572-0.4011717,0.8333572-0.7623267
	c0-0.2881236-0.0410176-0.5762467-0.0820352-0.8643699C0.7103044,4.8130627,0.6692868,4.5349431,0.6692868,4.24682
	c0-0.9474061,0.6172646-1.348578,1.4926398-1.348578h0.2160926v0.5662425H2.1929398
	c-0.6072603,0-0.8133487,0.3291411-0.8133487,0.8853796c0,0.2371016,0.0310134,0.4842081,0.0720309,0.7313137
	C1.4926397,5.3372869,1.5236529,5.584393,1.5236529,5.8625121c0.0100043,0.6592822-0.2781192,0.9884233-0.7413176,1.1114764
	v0.0200086c0.4631984,0.1140485,0.7513219,0.4641991,0.7413176,1.1234813c0,0.2781191-0.0310133,0.5352297-0.0720309,0.7823353
	C1.4106045,9.1569233,1.3795911,9.3930244,1.3795911,9.640131c0,0.5762472,0.2371017,0.8953848,0.8133487,0.8953848h0.1850793
	v0.5662422H2.1619265c-0.8543662,0-1.4926397-0.3711596-1.4926397-1.4106045c0-0.2781191,0.0410176-0.5662422,0.0820352-0.8443613
	S0.8333572,8.290554,0.8333572,8.0134344c0-0.3191366-0.1030442-0.7623262-0.8333572-0.7623262C0,7.2521076,0,6.7278829,0,6.7278829
	z M13.999999,7.2516079c-0.7313137,0-0.8333569,0.4431901-0.8333569,0.7623262c0,0.2781191,0.0410175,0.5552387,0.0820341,0.8333578
	c0.0410185,0.2781191,0.0820351,0.5662422,0.0820351,0.8443613c0,1.0394459-0.6482773,1.4106045-1.4926386,1.4106045h-0.2160931
	v-0.5662432h0.1750755c0.5762472-0.010004,0.8233528-0.3191366,0.8233528-0.8953829
	c0-0.2471056-0.0410175-0.4842072-0.0720301-0.7413177c-0.0410185-0.2471056-0.0820351-0.5042162-0.0820351-0.7823343
	c0-0.6592827,0.2881231-1.0094328,0.7413177-1.1224813V6.9744897c-0.4531946-0.1230526-0.7413177-0.4531941-0.7413177-1.1114764
	c0-0.2781186,0.0410175-0.5252252,0.0820351-0.7823353c0.0310135-0.2471061,0.0720301-0.4942117,0.0720301-0.7313132
	c0-0.5562382-0.2160921-0.875375-0.8133478-0.8853793h-0.1850805V2.8977423h0.206089
	c0.8743744,0,1.5026436,0.4011719,1.5026436,1.348578c0,0.2881236-0.0410175,0.5662422-0.0820351,0.8543658
	s-0.0820341,0.5762472-0.0820341,0.8643703c0,0.3601546,0.1030436,0.7623267,0.8333569,0.7623267
	C14,6.7273831,14,7.2516079,13.999999,7.2516079z"/>
</svg>
