<?xml version="1.0" encoding="utf-8"?>
<!-- Generator: Adobe Illustrator 19.2.0, SVG Export Plug-In . SVG Version: 6.00 Build 0)  -->
<svg version="1.1" id="rest-api" xmlns="http://www.w3.org/2000/svg" xmlns:xlink="http://www.w3.org/1999/xlink" x="0px" y="0px"
	 viewBox="0 0 14 14" style="enable-background:new 0 0 14 14;" xml:space="preserve">
<path d="M11.4,6.1L10.5,6c-0.1-0.3-0.2-0.6-0.3-0.8l0.6-0.7L9.6,3.3L8.9,3.8C8.6,3.7,8.3,3.5,8,3.5L7.9,2.6l-1.7,0L6.1,3.5
	C5.8,3.5,5.4,3.7,5.2,3.8L4.4,3.3L3.2,4.5l0.6,0.7C3.7,5.5,3.6,5.8,3.5,6.1l-1,0.1l0,1.7l1,0.1c0.1,0.3,0.2,0.5,0.3,0.8L3.2,9.5
	l1.2,1.2l0.8-0.6c0.3,0.1,0.5,0.3,0.8,0.3l0.1,1l1.7,0l0.1-1c0.3-0.1,0.6-0.2,0.9-0.3l0.8,0.6l1.2-1.2l-0.6-0.8
	c0.2-0.3,0.3-0.6,0.4-0.9l0.9-0.1L11.4,6.1z M7,9.6C5.6,9.6,4.4,8.4,4.4,7S5.6,4.4,7,4.4S9.6,5.6,9.6,7S8.4,9.6,7,9.6z M5.5,6.1
	L4.8,7.9h0.4l0.2-0.4h0.7l0.2,0.4h0.4L5.9,6.1H5.5z M5.5,7.2l0.3-0.7L6,7.2H5.5z M8,6.1c-0.1,0-0.2,0-0.4,0H6.9v1.9h0.4V7.2h0.2
	c0.2,0,0.3,0,0.4,0c0.1,0,0.1,0,0.2-0.1c0.1,0,0.1-0.1,0.2-0.2c0-0.1,0.1-0.2,0.1-0.3c0-0.1,0-0.3-0.1-0.4C8.1,6.2,8.1,6.1,8,6.1z
	 M7.9,6.8c0,0-0.1,0.1-0.1,0.1c0,0-0.1,0-0.3,0H7.3V6.4h0.2c0.1,0,0.2,0,0.3,0c0.1,0,0.1,0,0.2,0.1c0,0,0.1,0.1,0.1,0.2
	C7.9,6.7,7.9,6.7,7.9,6.8z M9,6.1v1.9H8.6V6.1H9z M0,6.7c0.7,0,0.8-0.4,0.8-0.8c0-0.3,0-0.6-0.1-0.9c0-0.3-0.1-0.6-0.1-0.9
	c0-0.9,0.6-1.3,1.5-1.3h0.2v0.6H2.2c-0.6,0-0.8,0.3-0.8,0.9c0,0.2,0,0.5,0.1,0.7c0,0.3,0.1,0.5,0.1,0.8c0,0.7-0.3,1-0.7,1.1v0
	c0.5,0.1,0.8,0.5,0.7,1.1c0,0.3,0,0.5-0.1,0.8c0,0.3-0.1,0.5-0.1,0.7c0,0.6,0.2,0.9,0.8,0.9h0.2v0.6H2.2c-0.9,0-1.5-0.4-1.5-1.4
	c0-0.3,0-0.6,0.1-0.8S0.8,8.3,0.8,8c0-0.3-0.1-0.8-0.8-0.8C0,7.3,0,6.7,0,6.7z M14,7.3c-0.7,0-0.8,0.4-0.8,0.8c0,0.3,0,0.6,0.1,0.8
	c0,0.3,0.1,0.6,0.1,0.8c0,1-0.6,1.4-1.5,1.4h-0.2v-0.6h0.2c0.6,0,0.8-0.3,0.8-0.9c0-0.2,0-0.5-0.1-0.7c0-0.2-0.1-0.5-0.1-0.8
	c0-0.7,0.3-1,0.7-1.1v0c-0.5-0.1-0.7-0.5-0.7-1.1c0-0.3,0-0.5,0.1-0.8c0-0.2,0.1-0.5,0.1-0.7c0-0.6-0.2-0.9-0.8-0.9h-0.2V2.9h0.2
	c0.9,0,1.5,0.4,1.5,1.3c0,0.3,0,0.6-0.1,0.9S13.2,5.7,13.2,6c0,0.4,0.1,0.8,0.8,0.8C14,6.7,14,7.3,14,7.3z"/>
</svg>
