<?xml version="1.0" encoding="utf-8"?>
<!-- Generator: Adobe Illustrator 19.2.0, SVG Export Plug-In . SVG Version: 6.00 Build 0)  -->
<svg version="1.1" id="rest-service" xmlns="http://www.w3.org/2000/svg" xmlns:xlink="http://www.w3.org/1999/xlink" x="0px"
	 y="0px" viewBox="0 0 14 14" style="enable-background:new 0 0 14 14;" xml:space="preserve">
<path d="M2.6,11.1h0.2v0.7H2.5c-1,0-1.7-0.4-1.7-1.6c0-0.3,0-0.7,0.1-1c0-0.3,0.1-0.6,0.1-1c0-0.4-0.1-0.9-1-0.9V6.7
	c0.9,0,1-0.5,1-0.9c0-0.3,0-0.7-0.1-1c0-0.3-0.1-0.7-0.1-1c0-1.1,0.7-1.6,1.7-1.6h0.3v0.7H2.6c-0.7,0-0.9,0.4-0.9,1
	c0,0.3,0,0.6,0.1,0.9c0,0.3,0.1,0.6,0.1,0.9c0,0.8-0.3,1.2-0.9,1.3v0c0.5,0.1,0.9,0.5,0.9,1.3c0,0.3,0,0.6-0.1,0.9
	c0,0.3-0.1,0.6-0.1,0.9C1.6,10.8,1.9,11.1,2.6,11.1z M13,8.2c0,0.3,0,0.6,0.1,1c0,0.3,0.1,0.7,0.1,1c0,1.2-0.8,1.6-1.7,1.6h-0.3
	v-0.7h0.2c0.7,0,1-0.4,1-1c0-0.3,0-0.6-0.1-0.9c0-0.3-0.1-0.6-0.1-0.9c0-0.8,0.3-1.2,0.9-1.3v0c-0.5-0.1-0.9-0.5-0.9-1.3
	c0-0.3,0-0.6,0.1-0.9c0-0.3,0.1-0.6,0.1-0.9c0-0.6-0.3-1-0.9-1h-0.2V2.2h0.2c1,0,1.8,0.5,1.8,1.6c0,0.3,0,0.7-0.1,1
	c0,0.3-0.1,0.7-0.1,1c0,0.4,0.1,0.9,1,0.9v0.6C13.1,7.3,13,7.8,13,8.2z M7.8,4.7L7.2,4.7c0-0.2-0.1-0.3-0.2-0.5l0.3-0.4L6.7,3.1
	L6.3,3.4C6.1,3.3,6,3.2,5.8,3.2L5.7,2.7l-1,0L4.7,3.2c-0.2,0-0.4,0.1-0.5,0.2L3.7,3.1L3.1,3.8l0.3,0.4C3.3,4.3,3.2,4.5,3.2,4.7
	L2.7,4.7l0,1l0.6,0.1c0,0.2,0.1,0.3,0.2,0.4L3.1,6.7l0.7,0.7L4.2,7c0.1,0.1,0.3,0.1,0.5,0.2l0.1,0.6l1,0l0.1-0.6
	c0.2,0,0.3-0.1,0.5-0.2l0.4,0.3l0.7-0.7L7,6.2c0.1-0.2,0.2-0.3,0.2-0.5l0.5-0.1L7.8,4.7z M5.2,6.2c-0.6,0-1-0.5-1-1s0.5-1,1-1
	s1,0.5,1,1S5.8,6.2,5.2,6.2z M11.3,7.2l-0.4,0c0-0.1-0.1-0.2-0.1-0.4L11,6.5L10.5,6l-0.3,0.2C10.1,6.2,10,6.1,9.8,6.1l0-0.4l-0.7,0
	l0,0.4c-0.1,0-0.3,0.1-0.4,0.2L8.3,6L7.8,6.5L8,6.8C8,6.9,7.9,7.1,7.9,7.2l-0.4,0l0,0.7L7.9,8c0,0.1,0.1,0.2,0.1,0.3L7.8,8.7
	l0.5,0.5L8.6,9C8.7,9,8.9,9.1,9,9.1L9,9.5l0.7,0l0.1-0.4C10,9.1,10.1,9,10.2,9l0.3,0.3L11,8.7l-0.3-0.3c0.1-0.1,0.1-0.2,0.2-0.4
	L11.3,8L11.3,7.2z M9.4,8.4C9,8.4,8.7,8,8.7,7.6S9,6.8,9.4,6.8c0.4,0,0.8,0.3,0.8,0.8S9.8,8.4,9.4,8.4z M7.6,9.5l-0.3,0
	c0-0.1-0.1-0.2-0.1-0.3L7.4,9L7,8.6L6.8,8.8C6.7,8.7,6.6,8.7,6.5,8.6l0-0.3l-0.6,0l0,0.3c-0.1,0-0.2,0.1-0.3,0.1L5.2,8.6L4.8,9
	L5,9.2C5,9.3,5,9.4,4.9,9.5l-0.3,0l0,0.6l0.3,0c0,0.1,0.1,0.2,0.1,0.3l-0.2,0.3l0.4,0.4l0.3-0.2c0.1,0,0.2,0.1,0.3,0.1l0,0.3l0.6,0
	l0-0.3c0.1,0,0.2-0.1,0.3-0.1L7,11.1l0.4-0.4l-0.2-0.3c0.1-0.1,0.1-0.2,0.1-0.3l0.3,0L7.6,9.5z M6.1,10.4c-0.3,0-0.6-0.3-0.6-0.6
	s0.3-0.6,0.6-0.6s0.6,0.3,0.6,0.6S6.4,10.4,6.1,10.4z"/>
</svg>
