<?xml version="1.0" encoding="utf-8"?>

<!--
 * Copyright (c) 2015, WSO2 Inc. (http://www.wso2.org) All Rights Reserved.
 *
 * WSO2 Inc. licenses this file to you under the Apache License,
 * Version 2.0 (the "License"); you may not use this file except
 * in compliance with the License.
 * You may obtain a copy of the License at
 *
 * http://www.apache.org/licenses/LICENSE-2.0
 *
 * Unless required by applicable law or agreed to in writing,
 * software distributed under the License is distributed on an
 * "AS IS" BASIS, WITHOUT WARRANTIES OR CONDITIONS OF ANY
 * KIND, either express or implied. See the License for the
 * specific language governing permissions and limitations
 * under the License.
-->

<svg version="1.1" id="rest-service" xmlns="http://www.w3.org/2000/svg" xmlns:xlink="http://www.w3.org/1999/xlink" x="0px"
	 y="0px" viewBox="0 0 14 14" style="enable-background:new 0 0 14 14;" xml:space="preserve">
<path d="M4.4921875,7.6101685c0.0006714,0.1420898,0.1074219,0.2606812,0.2476807,0.2764893l0.6549683,0.0738525
	c0.1402588,0.0158081,0.2711792-0.076355,0.3030396-0.215271l0.0957031-0.4126587
	c0.2125244-0.0303955,0.418457-0.0878296,0.6159668-0.1716919l0.296814,0.2952271
	c0.1009521,0.0999146,0.2605591,0.1078491,0.3712158,0.020813L7.5925293,7.065918
	c0.1112671-0.0883179,0.1376953-0.2453613,0.0623169-0.3660889L7.437439,6.3496094
	c0.1257324-0.1704102,0.2298584-0.3550415,0.307373-0.5523682l0.3955688-0.0009766
	c0.1429443-0.0005493,0.2611084-0.1073608,0.2769165-0.2475586l0.0737915-0.654541
	c0.0162964-0.140686-0.0750732-0.2710571-0.2143555-0.3034668L7.8969727,4.5023193
	c-0.0301514-0.2068481-0.0877686-0.4075317-0.168335-0.598999l0.2706299-0.2728882
	C8.0996094,3.529541,8.1079102,3.3704834,8.0205078,3.2593384L7.6106567,2.7453613
	C7.5223389,2.6345825,7.3649292,2.607605,7.2442017,2.6829834l-0.3168945,0.197937
	C6.7510376,2.7488403,6.5588379,2.6416626,6.3535767,2.5606079L6.3522949,2.1795044
	C6.3516235,2.0374146,6.244873,1.9188232,6.1046753,1.9030151L5.449707,1.8291626
	c-0.140686-0.0158691-0.270752,0.0759888-0.3034668,0.2143555L5.0601196,2.4147949
	c-0.223877,0.0334473-0.4407349,0.0984497-0.6472168,0.1913452L4.1381226,2.3331909
	c-0.1008301-0.1008301-0.2600098-0.1082764-0.3711548-0.020813L3.2524414,2.7233887
	C3.1411743,2.8117065,3.1147461,2.96875,3.1896973,3.0894165l0.2163696,0.3474731
	C3.284668,3.6077881,3.1861572,3.7930908,3.1127319,3.989502L2.7036133,3.9902954
	C2.5615234,3.9904785,2.4429932,4.097229,2.427124,4.237915L2.3532715,4.8928833
	c-0.0158081,0.1402588,0.076416,0.270813,0.2144165,0.3030396l0.4204102,0.0973511
	c0.0328369,0.1904907,0.0872803,0.3763428,0.1633301,0.5537109l-0.3075562,0.309021
	C2.7439575,6.256958,2.7357178,6.4156494,2.8235474,6.5267944l0.4105225,0.5153809
	c0.0887451,0.1108398,0.2457275,0.1377563,0.366394,0.0628052L3.9672852,6.876709
	c0.1619263,0.1191406,0.3375854,0.2178345,0.5231323,0.2944336L4.4921875,7.6101685z M4.1707153,4.8438721l0.0200806-0.1780396
	c0.0714722-0.633728,0.6484375-1.093811,1.2821655-1.0223389L5.651001,3.6635742
	C6.28479,3.7350464,6.744812,4.3120728,6.6733398,4.9458008L6.6532593,5.1238403
	c-0.0714722,0.633728-0.6484375,1.09375-1.2821655,1.0223389L5.1929932,6.1260986
	C4.5592651,6.0546265,4.0992432,5.4776001,4.1707153,4.8438721z M8.253479,9.5078125L7.9724121,9.4749756
	c-0.0385742-0.1467285-0.0964355-0.2868042-0.170105-0.418335l0.1729736-0.218811
	C8.0394287,8.756897,8.0324707,8.6414795,7.9603882,8.5684814L7.6230469,8.2310791
	C7.550293,8.1583862,7.4345703,8.1517334,7.3536377,8.2159424L7.1411743,8.3844604
	C7.0032959,8.3035278,6.855957,8.2418213,6.701355,8.2001343L6.6694336,7.925354
	C6.6574097,7.822937,6.5708008,7.7460938,6.4683228,7.7460938H5.9899292c-0.1027222,0-0.1890259,0.0768433-0.201416,0.1792603
	L5.7565918,8.2001343C5.5979004,8.2424927,5.4467773,8.3070068,5.3054199,8.3907471L5.085022,8.2162476
	C5.0040894,8.1517334,4.8886719,8.1593018,4.8156738,8.2313843L4.4779663,8.5697021
	c-0.072998,0.0727539-0.0793457,0.1881714-0.0155029,0.269104l0.1843872,0.2330322
	c-0.0736694,0.1331177-0.1296387,0.2747192-0.166626,0.4224243L4.1851807,9.5280762
	C4.0827637,9.5397339,4.0059204,9.6264038,4.0059204,9.729187v0.4783325c0,0.102478,0.0771484,0.1890869,0.1792603,0.2011108
	l0.3111572,0.0360718c0.0391846,0.1346436,0.0935669,0.2642822,0.1628418,0.3860474l-0.1967163,0.2478638
	c-0.0638428,0.0809326-0.0568848,0.1960449,0.0155029,0.269043l0.3380127,0.3383179
	c0.0730591,0.0727539,0.1884155,0.0794067,0.2694092,0.0155029l0.2459717-0.194458
	c0.1264648,0.0727539,0.2611694,0.1296387,0.4012451,0.1697998l0.0369873,0.3165283
	c0.0120239,0.102417,0.0986328,0.1792603,0.2011108,0.1792603h0.4783936c0.102417,0,0.1893921-0.0771484,0.2010498-0.1799316
	l0.0354004-0.3054199c0.1508179-0.0391846,0.2946777-0.0973511,0.4303589-0.1738892l0.2380981,0.1887817
	c0.0809326,0.0638428,0.1966553,0.0565796,0.2693481-0.0151978l0.3380127-0.3383179
	c0.072998-0.0726929,0.0793457-0.1881104,0.0151367-0.269043l-0.1852417-0.2349243
	c0.0768433-0.1331177,0.1369019-0.2747803,0.1767578-0.4234009l0.2851562-0.0328369
	c0.1030884-0.0120239,0.1795654-0.0986938,0.1795654-0.2011108V9.7092285
	C8.4331055,9.6065063,8.3565674,9.5198364,8.253479,9.5078125z M7.1259766,9.9901733
	c0,0.4816895-0.394104,0.8757935-0.8757935,0.8757935H6.1885376c-0.4816895,0-0.8757935-0.394104-0.8757935-0.8757935V9.9285278
	c0-0.4816895,0.394104-0.8757935,0.8757935-0.8757935h0.0616455c0.4816895,0,0.8757935,0.394104,0.8757935,0.8757935V9.9901733z
	 M11.2536011,8.6294556l-0.1604004-0.2033691c0.0665283-0.1152344,0.1185303-0.237793,0.1529541-0.3664551L11.493042,8.031189
	c0.0892334-0.010437,0.1554565-0.0853882,0.1554565-0.1740723V7.4432983
	c0.0003052-0.0889282-0.065918-0.1639404-0.1551514-0.1743164L11.250061,7.2405396
	c-0.0333862-0.1270142-0.0834961-0.24823-0.1472778-0.3621216l0.1497192-0.1893921
	c0.055542-0.0700684,0.0495605-0.1699219-0.0128784-0.2331543l-0.2919922-0.2920532
	c-0.0629883-0.0629272-0.163147-0.0686646-0.2332153-0.0131226l-0.1838989,0.145874
	c-0.1193237-0.0700684-0.2468872-0.1234131-0.3806763-0.1595459l-0.0276489-0.237854
	c-0.010437-0.0886841-0.0853882-0.1552124-0.1740723-0.1552124H9.5339966c-0.0889282,0-0.1636353,0.0665283-0.1743164,0.1552124
	l-0.0276489,0.237854C9.1946411,6.173645,9.0638428,6.2294922,8.9414673,6.302063l-0.1907349-0.151123
	C8.6806641,6.0951538,8.5807495,6.1016846,8.5175171,6.1641235L8.2252197,6.4569702
	C8.1620483,6.5198975,8.1565552,6.619812,8.211853,6.6898804l0.1595459,0.2016602
	c-0.0637817,0.1152344-0.1122437,0.237854-0.1442261,0.3656616L7.9718018,7.286499
	C7.8831177,7.2966309,7.8165894,7.371582,7.8165894,7.4605713v0.4140625c0,0.0886841,0.0668335,0.1636963,0.1552124,0.1740723
	l0.2692871,0.031189c0.0339966,0.1165771,0.0810547,0.2288208,0.1409912,0.3341675L8.211853,8.6286621
	C8.1565552,8.6987305,8.1625366,8.7983398,8.2252197,8.8615723l0.2926025,0.2928467
	c0.0632324,0.0629272,0.1630859,0.0686646,0.2331543,0.0133667l0.2129517-0.1682739
	c0.109436,0.0629272,0.2260742,0.1121826,0.34729,0.1469727l0.0320435,0.2739258
	c0.010376,0.0886841,0.0853882,0.1552124,0.1740723,0.1552124h0.4140625c0.0886841,0,0.1639404-0.0668335,0.1740723-0.1557617
	l0.0306396-0.2644043c0.1305542-0.0339355,0.2550659-0.0842896,0.3724976-0.1505127l0.2061157,0.1633911
	c0.0700073,0.0552979,0.1702271,0.0490112,0.2331543-0.0131226l0.2925415-0.2928467
	C11.3036499,8.7994385,11.3091431,8.6995239,11.2536011,8.6294556z M10.517334,7.6864624
	c0,0.4169922-0.3411255,0.7581177-0.7580566,0.7581177H9.7059326c-0.4169922,0-0.7581177-0.3411255-0.7581177-0.7581177V7.6331177
	c0-0.4169312,0.3411255-0.7581177,0.7581177-0.7581177h0.0533447c0.4169312,0,0.7580566,0.3411865,0.7580566,0.7581177V7.6864624z
	 M2.5570068,11.1238403h0.2160034v0.65979H2.520874c-0.9960327,0-1.7408447-0.4320068-1.7408447-1.644043
	c0-0.3245239,0.0478516-0.6607666,0.0957642-0.984314c0.0488892-0.3245239,0.0967407-0.6490479,0.0967407-0.9725342
	C0.9725342,7.8103027,0.852356,7.2941895,0,7.2941895V6.6818237c0.852356,0,0.9725342-0.4682007,0.9725342-0.8884888
	c0-0.3357544-0.0478516-0.6719971-0.0967407-1.0082397c-0.0479126-0.3362427-0.0957642-0.6602783-0.0957642-0.996521
	c0-1.1040039,0.7203369-1.5722046,1.7408447-1.5722046h0.2521362v0.6602783H2.5570068
	c-0.7086792,0-0.9481201,0.3840942-0.9481201,1.0321655c0,0.276123,0.0351562,0.5640259,0.0840454,0.852356
	C1.7408447,5.0612183,1.7769775,5.3495483,1.7769775,5.673584c0.0117188,0.7683105-0.3245239,1.1524048-0.8650513,1.2961426
	v0.0244141c0.5405273,0.131958,0.87677,0.5400391,0.8650513,1.3087769c0,0.3235474-0.0361328,0.6236572-0.0840454,0.9119873
	C1.644043,9.5149536,1.6088867,9.7915649,1.6088867,10.0789795C1.6088867,10.7514648,1.8845215,11.1238403,2.5570068,11.1238403z
	 M13.0274658,8.1817017c0,0.3245239,0.0478516,0.6490479,0.0957642,0.9725952
	c0.0488892,0.3245239,0.0967407,0.6607666,0.0967407,0.984314c0,1.2130127-0.7565308,1.6450195-1.7408447,1.6450195h-0.2521362
	v-0.6607666h0.2042847c0.6724854-0.0117188,0.9598389-0.3713989,0.9598389-1.0438843
	c0-0.2883911-0.0479126-0.5640259-0.0840454-0.8640747c-0.0479126-0.2883911-0.0958252-0.5884399-0.0958252-0.9129639
	c0-0.7677612,0.3362427-1.1758423,0.8640747-1.3078003V6.9697266c-0.527832-0.1436768-0.8640747-0.527832-0.8640747-1.2961426
	c0-0.3239746,0.0479126-0.6123657,0.0958252-0.9124146c0.0361328-0.2883301,0.0840454-0.5762329,0.0840454-0.852356
	c0-0.6480103-0.2521973-1.0204468-0.9481201-1.0321655h-0.2160034V2.2163696h0.2404175
	c1.0204468,0,1.7525635,0.4682007,1.7525635,1.5722046c0,0.3362427-0.0478516,0.6602783-0.0967407,0.996521
	c-0.0479126,0.3362427-0.0958252,0.6724854-0.0958252,1.0082397c0,0.4202881,0.1202393,0.8884888,0.9725952,0.8884888v0.6123657
	C13.147644,7.2941895,13.0274658,7.8103027,13.0274658,8.1817017z"/>
</svg>
