<?xml version="1.0" encoding="utf-8"?>
<!-- Generator: Adobe Illustrator 19.1.1, SVG Export Plug-In . SVG Version: 6.00 Build 0)  -->
<svg version="1.1" id="Layer_1" xmlns="http://www.w3.org/2000/svg" xmlns:xlink="http://www.w3.org/1999/xlink" x="0px" y="0px"
	 viewBox="0 0 14 14" style="enable-background:new 0 0 14 14;" xml:space="preserve">
<style type="text/css">
	.st0{fill:#010101;}
</style>
<path class="st0" d="M14,7c0-0.1,0-0.1,0-0.2s-0.1-0.2-0.1-0.2L8.7,1.4c-0.2-0.2-0.6-0.2-0.9,0C7.6,1.6,7.6,2,7.8,2.3l4.1,4.1H0.6
	C0.3,6.4,0,6.7,0,7s0.3,0.6,0.6,0.6h11.3l-4.1,4.1c-0.2,0.2-0.2,0.6,0,0.9c0.2,0.2,0.6,0.2,0.9,0l5.1-5.1C13.9,7.3,14,7.2,14,7z"/>
</svg>
