<?xml version="1.0" encoding="utf-8"?>
<!-- Generator: Adobe Illustrator 19.1.0, SVG Export Plug-In . SVG Version: 6.00 Build 0)  -->
<svg version="1.1" id="Layer_1" xmlns="http://www.w3.org/2000/svg" xmlns:xlink="http://www.w3.org/1999/xlink" x="0px" y="0px"
	 viewBox="0 0 14 14" style="enable-background:new 0 0 14 14;" xml:space="preserve">
<path d="M3.9893799,13.9217529c0.0612793-0.0309448,0.1223755-0.0638428,0.1738892-0.1154175l6.8006592-6.8064575
	L4.163269,0.1929932C4.0317993,0.0617676,3.8604126-0.0018921,3.6898193,0.0005493C3.6889038,0.0005493,3.6881104,0,3.6871948,0
	C3.3198242,0,3.0219727,0.2977905,3.0219727,0.6651611c0,0.1843262,0.0751953,0.3508911,0.1962891,0.4713745
	C3.2251587,1.144104,3.227478,1.1541748,3.2348022,1.161499l5.8342285,5.8383789l-5.8342285,5.8388672
	c-0.0516357,0.0516968-0.0852051,0.1135254-0.1166992,0.1757202c-0.0554199,0.0971069-0.0956421,0.2034302-0.0956421,0.3232422
	c0,0.3673706,0.2977905,0.6652222,0.6651611,0.6652222c0.0529785,0,0.0999146-0.0184326,0.149292-0.0301514
	c0.036377-0.0079346,0.0737915-0.0076294,0.1087036-0.0219727C3.9620361,13.9439087,3.9736328,13.9298706,3.9893799,13.9217529z"/>
</svg>
