<?xml version="1.0" encoding="utf-8"?>
<!-- Generator: Adobe Illustrator 19.1.0, SVG Export Plug-In . SVG Version: 6.00 Build 0)  -->
<svg version="1.1" id="right-arrow" xmlns="http://www.w3.org/2000/svg" xmlns:xlink="http://www.w3.org/1999/xlink" x="0px"
	 y="0px" viewBox="0 0 14 14" style="enable-background:new 0 0 14 14;" xml:space="preserve">
<style type="text/css">
	.st0{display:none;}
</style>
<path class="st0" d="M13.7800293,6.5150146L9.0599976,1.7750244c-0.0100098,0-0.0200195-0.0100098-0.0299683-0.0200195
	C8.9099731,1.6350098,8.7399902,1.5549927,8.5499878,1.5549927c-0.3699951,0-0.6699829,0.2999878-0.6699829,0.6699829
	c0,0.210022,0.0899658,0.3900146,0.2299805,0.5c0.0200195,0.0300293,0.0400391,0.0500488,0.0700073,0.0700073l3.5499878,3.5599976
	L0.6799927,6.3449707C0.5,6.3449707,0.3300171,6.414978,0.210022,6.5449829c-0.0100098,0-0.0100098,0-0.0100098,0
	c-0.0599976,0.0599976-0.1099854,0.1300049-0.1400146,0.210022C0.0499878,6.7949829,0.0300293,6.835022,0.0200195,6.875
	C-0.0100098,7.0050049,0,7.1450195,0.0499878,7.2650146l0.0100098,0.0100098
	c0.0300293,0.0799561,0.0800171,0.1499634,0.1400146,0.2099609H0.210022C0.3300171,7.6149902,0.5,7.6849976,0.6799927,7.6849976
	c0.0100098,0,0.0100098,0,0.0200195,0L11.710022,7.6950073l-3.5900269,3.5899658
	c-0.0100098,0.0100098-0.0100098,0.0100098-0.0100098,0.0100098C8.0700073,11.3449707,8.039978,11.3950195,8,11.4550171
	c-0.0003052,0.0006714-0.0005493,0.0012817-0.0008545,0.0019531c-0.0212402,0.0396118-0.0379028,0.0780029-0.0507812,0.121521
	c-0.0220337,0.0614624-0.0383911,0.1251221-0.0383911,0.1965332c0,0.1399536,0.0400391,0.2699585,0.1100464,0.3800049
	c0.0499878,0.0699463,0.1099854,0.1299438,0.1799927,0.1799927c0.1099854,0.0700073,0.2399902,0.1099854,0.3800049,0.1099854
	c0.0199585,0,0.0499878,0,0.0700073-0.0100098c0.0699463,0,0.1199951-0.0200195,0.1799927-0.039978
	c0.0100098,0,0.0199585-0.0100098,0.0299683-0.0100098c0.0400391-0.0200195,0.0800171-0.0400391,0.1099854-0.0700073
	C9,12.2949829,9.0200195,12.2750244,9.039978,12.2550049h0.0100098v-0.0100098l4.6600342-4.6699829
	c0.0700073-0.0599976,0.1099854-0.1000366,0.1699829-0.1600342c0.0899658-0.1099854,0.1300049-0.25,0.1300049-0.3999634
	C14.0100098,6.8150024,13.9199829,6.6350098,13.7800293,6.5150146z"/>
<path d="M14.0050049,7c0-0.0751953-0.0175781-0.1452637-0.0411987-0.2119751
	c-0.0272827-0.0856934-0.0686646-0.1671143-0.1361084-0.2345581L8.6655273,1.3912354
	C8.4326782,1.1584473,8.0474243,1.1657715,7.805542,1.4075928C7.5637207,1.6494751,7.5563965,2.034729,7.7892456,2.2675171
	l4.1123047,4.1123657H0.59198c-0.3295288,0-0.5969849,0.277832-0.5969849,0.6201172S0.2624512,7.6201172,0.59198,7.6201172
	h11.2731323l-4.0785522,4.0785522c-0.2330322,0.2330322-0.225708,0.6185913,0.0163574,0.8606567
	c0.2420044,0.2420044,0.6276245,0.2493286,0.8605957,0.0163574l5.0682983-5.0682983
	C13.90625,7.3234377,14.0050049,7.2155151,14.0050049,7z"/>
</svg>
