<?xml version="1.0" encoding="utf-8"?>

<!--
 * Copyright (c) 2015, WSO2 Inc. (http://www.wso2.org) All Rights Reserved.
 *
 * WSO2 Inc. licenses this file to you under the Apache License,
 * Version 2.0 (the "License"); you may not use this file except
 * in compliance with the License.
 * You may obtain a copy of the License at
 *
 * http://www.apache.org/licenses/LICENSE-2.0
 *
 * Unless required by applicable law or agreed to in writing,
 * software distributed under the License is distributed on an
 * "AS IS" BASIS, WITHOUT WARRANTIES OR CONDITIONS OF ANY
 * KIND, either express or implied. See the License for the
 * specific language governing permissions and limitations
 * under the License.
-->

<svg version="1.1" id="ringing" xmlns="http://www.w3.org/2000/svg" xmlns:xlink="http://www.w3.org/1999/xlink" x="0px" y="0px"
	 viewBox="0 0 14 14" style="enable-background:new 0 0 14 14;" xml:space="preserve">
<path d="M2.9559326,3.1275024V3.43927c0,0.0640564-0.0452271,0.1173706-0.1031494,0.1204529
	c-1.3059387,0.069397-2.3516846,1.450592-2.3516846,3.1384583s1.0457458,3.0690613,2.3516846,3.1384888
	c0.0579224,0.0030518,0.1031494,0.056366,0.1031494,0.1204224v0.3117981c0,0.0691528-0.0524292,0.1241455-0.1149902,0.1211548
	C1.2641296,10.31427,0,8.6872559,0,6.6981812c0-1.9891052,1.2641296-3.6160889,2.8409424-3.6918335
	C2.9035034,3.0033264,2.9559326,3.0583496,2.9559326,3.1275024z M1.374054,6.6981812
	c0,1.0822144,0.6705017,1.967804,1.507843,2.0122986c0.0371399,0.0019836,0.0661316,0.0361633,0.0661316,0.07724v0.1998901
	c0,0.044342-0.0336304,0.0796204-0.0737305,0.0776978c-1.0110168-0.048584-1.8215332-1.0917664-1.8215332-2.3671265
	s0.8105164-2.3185425,1.8215332-2.3670959c0.0401001-0.0019226,0.0737305,0.0333252,0.0737305,0.0776672v0.1999207
	c0,0.0410767-0.0289917,0.0752563-0.0661316,0.0772095C2.0445557,4.7303772,1.374054,5.6159668,1.374054,6.6981812z M14,6.7113037
	c0,1.9820251-1.259613,3.603241-2.8308411,3.6787415c-0.0623169,0.0029907-0.114563-0.0518188-0.114563-0.1207275V9.9586182
	c0-0.0638123,0.0450439-0.1169128,0.1027527-0.1199951c1.3013306-0.0691528,2.3433533-1.4454346,2.3433533-3.1273193
	c0-1.6818542-1.0420227-3.058136-2.3433533-3.1272888c-0.0577087-0.0030823-0.1027527-0.0562134-0.1027527-0.1200256V3.1533203
	c0-0.0689087,0.0522461-0.1237183,0.114563-0.1207275C12.740387,3.1080627,14,4.7292786,14,6.7113037z M12.6308594,6.7113037
	c0-1.0783386-0.6681213-1.9607849-1.5025024-2.005127c-0.0369873-0.0019531-0.0658875-0.0360413-0.0658875-0.0769348V4.4300232
	c0-0.0441589,0.0335083-0.0793152,0.0734863-0.0773926c1.0074158,0.0484009,1.815033,1.0878601,1.815033,2.3586731
	s-0.8076477,2.3103027-1.815033,2.3587036c-0.039978,0.0019226-0.0734863-0.0332336-0.0734863-0.0773926V8.793396
	c0-0.0408936,0.0288696-0.0749817,0.0658875-0.0769348C11.962738,8.6721191,12.6308594,7.7896729,12.6308594,6.7113037z
	 M7.79,12.9099998V12.71c0-0.1999998-0.0900002-0.3999996-0.29-0.3999996H6.5999999
	c-0.1999998,0-0.2999997,0.1999998-0.2999997,0.3999996v0.1999998c0,0.1999998,0.0999999,0.3900003,0.2999997,0.3900003H7.5
	C7.6999998,13.3000002,7.79,13.1099997,7.79,12.9099998z M8.3400002,1.04c0.1399994,0,0.25-0.11,0.25-0.2399999
	c0-0.14-0.1100006-0.25-0.25-0.25h-2.5c-0.1400003,0-0.25,0.11-0.25,0.25c0,0.13,0.1099997,0.2399999,0.25,0.2399999H8.3400002z
	 M9.8800001,14H4.1199999c-0.3999999-0.1000004-0.79-0.5-0.79-0.9899998V0.89c0-0.49,0.3900001-0.89,0.79-0.89h5.7600002
	c0.3999996,0,0.79,0.4,0.79,0.89v12.2199993C10.6700001,13.6000004,10.2799997,14,9.8800001,14z M9.9799995,1.6900001H3.9200001
	v9.9300003h6.0599995V1.6900001z"/>
</svg>
