<?xml version="1.0" encoding="utf-8"?>

<!--
 * Copyright (c) 2015, WSO2 Inc. (http://www.wso2.org) All Rights Reserved.
 *
 * WSO2 Inc. licenses this file to you under the Apache License,
 * Version 2.0 (the "License"); you may not use this file except
 * in compliance with the License.
 * You may obtain a copy of the License at
 *
 * http://www.apache.org/licenses/LICENSE-2.0
 *
 * Unless required by applicable law or agreed to in writing,
 * software distributed under the License is distributed on an
 * "AS IS" BASIS, WITHOUT WARRANTIES OR CONDITIONS OF ANY
 * KIND, either express or implied. See the License for the
 * specific language governing permissions and limitations
 * under the License.
-->

<svg version="1.1" id="ringing" xmlns="http://www.w3.org/2000/svg" xmlns:xlink="http://www.w3.org/1999/xlink" x="0px" y="0px"
	 viewBox="0 0 14 14" style="enable-background:new 0 0 14 14;" xml:space="preserve">
<path d="M8.9,13.3c0,0.1,0,0.2-0.1,0.2C8.2,13.8,7.6,13.9,7,14c-0.1,0-0.1,0-0.2-0.1c-1.2-0.8-2.2-1.7-3.1-2.8
	C2.6,9.8,1.6,8.2,1,6.5C0.9,6.2,0.8,6,0.7,5.8c0-0.1,0-0.2,0-0.2C1,4.9,1.4,4.4,1.8,3.9c0,0,0,0,0,0c0.6,0.5,1,1.1,1.3,1.8
	C3.3,6,3.3,6.2,3.4,6.5c0,0,0,0.1,0,0.1C3,6.8,3,7.1,3.1,7.5c0.1,0.5,0.4,1,0.7,1.4c0.4,0.6,0.9,1.3,1.5,1.8
	c0.2,0.2,0.5,0.4,0.7,0.5c0.2,0.2,0.5,0.2,0.8,0c0,0,0.1,0,0.1,0C7.8,11.6,8.5,12.3,8.9,13.3z M7.3,10.8c0.5,0.2,0.9,0.5,1.3,0.9
	c0.4,0.4,0.6,0.9,0.8,1.4c0.2-0.1,0.6-0.4,0.7-0.6c0.1-0.2,0.2-0.4,0.1-0.6c-0.2-0.6-0.6-1-1.1-1.3c-0.1,0-0.1-0.1-0.2-0.1
	C8.2,10.2,7.7,10.4,7.3,10.8z M4.6,5c0-0.1,0-0.3-0.1-0.4C4.3,4.1,4.1,3.7,3.7,3.4C3.4,3.1,3.2,3,2.8,3.2C2.6,3.3,2.4,3.5,2.2,3.6
	c0.9,0.7,1.4,1.6,1.6,2.7C4,6.1,4.1,6,4.3,5.9C4.5,5.7,4.7,5.3,4.6,5z M12.9,9.2c1.5-4-1.1-8.4-5-9.2C7.7,0.2,7.7,0.4,7.6,0.6
	c1.9,0.5,3.3,1.5,4.2,3.2c0.9,1.7,1,3.5,0.4,5.3C12.4,9.2,12.6,9.2,12.9,9.2z M6.8,2.7c1.4,0.3,2.5,1,3.3,2.3
	c0.7,1.2,0.8,2.6,0.4,3.9c0.2,0,0.4,0.1,0.7,0.1c1-3.1-1-6.4-4.1-6.9C7,2.2,6.9,2.5,6.8,2.7z M9.2,8.6C10.1,6.5,8.6,4.1,6.4,4
	C6.3,4.2,6.2,4.4,6.1,4.6c1,0.1,1.8,0.5,2.3,1.3c0.5,0.8,0.5,1.7,0.1,2.6C8.7,8.6,8.9,8.6,9.2,8.6z M7.8,0C7.7,0.2,7.7,0.4,7.6,0.6
	c1.9,0.5,3.3,1.5,4.2,3.2c0.9,1.7,1,3.5,0.4,5.3c0.2,0,0.4,0.1,0.7,0.1C14.3,5.2,11.8,0.8,7.8,0z M10.1,4.9c0.7,1.2,0.8,2.6,0.4,3.9
	c0.2,0,0.4,0.1,0.7,0.1c1-3.1-1-6.4-4.1-6.9C7,2.2,6.9,2.5,6.8,2.7C8.3,3,9.4,3.7,10.1,4.9z M6.4,4C6.3,4.2,6.2,4.4,6.1,4.6
	c1,0.1,1.8,0.5,2.3,1.3c0.5,0.8,0.5,1.7,0.1,2.6c0.2,0,0.5,0.1,0.7,0.1C10.1,6.5,8.6,4.1,6.4,4z"/>
</svg>
