<?xml version="1.0" encoding="utf-8"?>
<!-- Generator: Adobe Illustrator 19.2.0, SVG Export Plug-In . SVG Version: 6.00 Build 0)  -->
<svg version="1.1" id="save" xmlns="http://www.w3.org/2000/svg" xmlns:xlink="http://www.w3.org/1999/xlink" x="0px" y="0px"
	 viewBox="0 0 14 14" style="enable-background:new 0 0 14 14;" xml:space="preserve">
<path d="M14,2.6C14,2.6,14,2.7,14,2.6c-0.8-0.8-1.7-1.7-2.6-2.6c0,0-0.6,0-0.8,0c0,1.6,0,3.1,0,4.7c-2.5,0-4.9,0-7.4,0
	c0-1.6,0-3.1,0-4.7C2.4,0,0,0,0,0l0,14h14C14,14,14.1,6.3,14,2.6z M12.2,12.7c-3.5,0-7,0-10.5,0c0-2,0-4.1,0-6.1c3.5,0,7,0,10.5,0
	C12.2,8.6,12.2,10.6,12.2,12.7z M9.8,3.9c-0.6,0-1.2,0-1.7,0c0-1,0-2,0-3c0.6,0,1.1,0,1.7,0C9.8,1.9,9.8,2.9,9.8,3.9z M11.4,8.3H2.5
	V7.5h8.9V8.3z M11.4,10H2.5V9.2h8.9V10z M11.4,11.8H2.5V11h8.9V11.8z"/>
</svg>
