<?xml version="1.0" encoding="utf-8"?>
<!-- Generator: Adobe Illustrator 19.1.0, SVG Export Plug-In . SVG Version: 6.00 Build 0)  -->
<svg version="1.1" id="save" xmlns="http://www.w3.org/2000/svg" xmlns:xlink="http://www.w3.org/1999/xlink" x="0px" y="0px"
	 viewBox="0 0 14 14" style="enable-background:new 0 0 14 14;" xml:space="preserve">
<path d="M14,13.3000002c0-3.6000004,0.1000004-7.0359378,0-10.7359371c0,0,0,0.0999999,0,0
	C13.1999998,1.7640625,12.2999992,0.9,11.3999996,0c0,0-0.6000004,0-0.8000002,0c0,1.6,0,3.1000001,0,4.7000003
	c-2.5,0-4.9000001,0-7.4000001,0c0-1.5999999,0-3.1000001,0-4.7000003C2.4117646,0,1.6,0,0.7,0C0.0627451,0,0,0.7,0,0.7
	c0,4.1999998,0,8.3999996,0,12.6000004C0,14,0.7,14,0.7,14c4.1999998,0,8.3999996,0,12.6000004,0
	C13.9970589,14,14,13.3000002,14,13.3000002z M12.1999998,12.6999998c-3.5,0-7,0-10.5,0c0-2,0-4.0999994,0-6.0999999
	c3.5,0,7,0,10.5,0C12.1999998,8.6000004,12.1999998,10.6000004,12.1999998,12.6999998z M9.8000002,3.9000001
	c-0.6000004,0-1.1999998,0-1.6999998,0c0-1,0-2,0-3c0.6000004,0,1.1000004,0,1.6999998,0
	C9.8000002,1.9,9.8000002,2.9000001,9.8000002,3.9000001z M2.5470588,8.1000004V7.6999998
	c0-0.0999999,0.0999999-0.1999998,0.2-0.1999998h8.5c0.1000004,0,0.1999998,0.0999994,0.1999998,0.1999998v0.3999996
	c0,0.1000004-0.1000004,0.1999998-0.1999998,0.1999998H2.847059C2.647059,8.3000002,2.5470588,8.1999998,2.5470588,8.1000004z
	 M11.4529409,9.399786v0.3999996c0,0.1000004-0.1000004,0.1999998-0.1999998,0.1999998L2.7588236,9.9998922
	c-0.0999999,0-0.2-0.1000004-0.2-0.1999998V9.3998928c0-0.1000004,0.0999999-0.1999998,0.2-0.1999998l8.3941183-0.0001068
	C11.3529415,9.1997862,11.4529409,9.2997866,11.4529409,9.399786z M2.5470588,11.6000004v-0.3999996
	c0-0.1000004,0.0999999-0.1999998,0.2-0.1999998h8.5c0.1000004,0,0.1999998,0.1000004,0.1999998,0.1999998v0.3999996
	c0,0.1000004-0.1000004,0.1999998-0.1999998,0.1999998H2.847059C2.647059,11.8000002,2.5470588,11.6999998,2.5470588,11.6000004z"/>
</svg>
