<?xml version="1.0" encoding="utf-8"?>
<!-- Generator: Adobe Illustrator 19.1.0, SVG Export Plug-In . SVG Version: 6.00 Build 0)  -->
<svg version="1.1" id="schema" xmlns="http://www.w3.org/2000/svg" xmlns:xlink="http://www.w3.org/1999/xlink" x="0px" y="0px"
	 viewBox="0 0 14 14" style="enable-background:new 0 0 14 14;" xml:space="preserve">
<path d="M13.2960815,10.3839111h-1.257019V8.7335205H7.3251953V8.0439453h1.2572021
	c0.3881226,0,0.7039185-0.3157959,0.7039185-0.7039185V5.5249634c0-0.3881226-0.3157959-0.7039185-0.7039185-0.7039185H5.4176025
	c-0.3881226,0-0.7039185,0.3157959-0.7039185,0.7039185v1.8150635c0,0.3881226,0.3157959,0.7039185,0.7039185,0.7039185h1.2572021
	v0.6895752H1.9609375v1.6503906h-1.257019C0.3157959,10.3839111,0,10.699707,0,11.0878296v1.8150024
	c0,0.3881836,0.3157959,0.7039795,0.7039185,0.7039795h3.1647949c0.3881836,0,0.7039795-0.3157959,0.7039795-0.7039795v-1.8150024
	c0-0.3881226-0.3157959-0.7039185-0.7039795-0.7039185H2.6113281v-1h4.0634766v1H5.4176025
	c-0.3881226,0-0.7039185,0.3157959-0.7039185,0.7039185v1.8150024c0,0.3881836,0.3157959,0.7039795,0.7039185,0.7039795h3.1647949
	c0.3881226,0,0.7039185-0.3157959,0.7039185-0.7039795v-1.8150024c0-0.3881226-0.3157959-0.7039185-0.7039185-0.7039185H7.3251953
	v-1h4.0634766v1h-1.2573853c-0.3881836,0-0.7039795,0.3157959-0.7039795,0.7039185v1.8150024
	c0,0.3881836,0.3157959,0.7039795,0.7039795,0.7039795h3.1647949C13.6842041,13.6068115,14,13.2910156,14,12.902832v-1.8150024
	C14,10.699707,13.6842041,10.3839111,13.2960815,10.3839111z M5.2136841,7.3400269V5.5249634
	c0-0.1121826,0.0917358-0.2039185,0.2039185-0.2039185h3.1647949c0.1121826,0,0.2039185,0.0917358,0.2039185,0.2039185v1.8150635
	c0,0.1121216-0.0917358,0.2039185-0.2039185,0.2039185H5.4176025C5.3054199,7.5439453,5.2136841,7.4521484,5.2136841,7.3400269z
	 M4.0726929,11.0878296v1.8150024c0,0.1121826-0.0917969,0.2039795-0.2039795,0.2039795H0.7039185
	C0.5917969,13.1068115,0.5,13.0150146,0.5,12.902832v-1.8150024c0-0.1121826,0.0917969-0.2039185,0.2039185-0.2039185h3.1647949
	C3.980896,10.8839111,4.0726929,10.975647,4.0726929,11.0878296z M8.7863159,11.0878296v1.8150024
	c0,0.1121826-0.0917358,0.2039795-0.2039185,0.2039795H5.4176025c-0.1121826,0-0.2039185-0.0917969-0.2039185-0.2039795v-1.8150024
	c0-0.1121826,0.0917358-0.2039185,0.2039185-0.2039185h3.1647949C8.6945801,10.8839111,8.7863159,10.975647,8.7863159,11.0878296z
	 M13.5,12.902832c0,0.1121826-0.0917969,0.2039795-0.2039185,0.2039795h-3.1647949
	c-0.1121826,0-0.2039795-0.0917969-0.2039795-0.2039795v-1.8150024c0-0.1121826,0.0917969-0.2039185,0.2039795-0.2039185h3.1647949
	c0.1121216,0,0.2039185,0.0917358,0.2039185,0.2039185V12.902832z M11.2246094,2.2559204l1.4072266-0.0014038
	c-0.0019531,0,0.253458,0.0128849,0.3613281,0.1206055c0.116394,0.1162329,0.1816406,0.3056641,0.1816406,0.5771484v2.3798828
	c0.0009766,0.003418,0.0029297,0.3393555-0.2001953,0.5493164c-0.1240234,0.128418-0.3037109,0.1904297-0.5507812,0.1904297
	h-1.5203857l-0.5089111-0.0102539c0.2119141-0.2163086,0.4140625-0.4165039,0.6171875-0.6113281
	c0.0380859-0.0380859,0.1103516-0.1083984,0.1103516-0.2387695c0-0.128418-0.0712891-0.199707-0.109375-0.237793
	l-0.0400391-0.0288086c-0.1279297-0.0629883-0.2617188-0.0141602-0.3378906,0.0620117
	c-0.1298828,0.1298828-0.2275391,0.2275391-0.3642578,0.3535156C10.046875,5.5943604,9.7763672,5.8682861,9.453125,6.1446533
	c-0.1386719,0.15625-0.1386719,0.3076172,0.0058594,0.4692383l1.1201172,1.1196289
	c0.0761719,0.0625,0.1464844,0.0859375,0.2099609,0.0859375c0.0957031,0,0.1738281-0.0517578,0.2226562-0.0957031
	c0.1474609-0.1362305,0.125-0.2993164,0.0361328-0.4018555C10.8789062,7.1320801,10.684021,6.9325562,10.4667969,6.72229h1.9570312
	c0.4257812,0,0.7685547-0.1308594,1.0185547-0.3891602c0.3916016-0.40625,0.3847656-0.9614258,0.3828125-1.012207V2.9522705
	c0-0.4667969-0.1299448-0.8301899-0.4013672-1.0639648c-0.3179455-0.2738453-0.4683914-0.2600943-0.8222656-0.2827148h-1.3769531
	V0.3931885H2.7753906v3.0751953h8.4492188V2.2559204z M10.5742188,2.8179932H3.4257812V1.0435791h7.1484375V2.8179932z"/>
</svg>
