<?xml version="1.0" encoding="utf-8"?>

<!--
 * Copyright (c) 2015, WSO2 Inc. (http://www.wso2.org) All Rights Reserved.
 *
 * WSO2 Inc. licenses this file to you under the Apache License,
 * Version 2.0 (the "License"); you may not use this file except
 * in compliance with the License.
 * You may obtain a copy of the License at
 *
 * http://www.apache.org/licenses/LICENSE-2.0
 *
 * Unless required by applicable law or agreed to in writing,
 * software distributed under the License is distributed on an
 * "AS IS" BASIS, WITHOUT WARRANTIES OR CONDITIONS OF ANY
 * KIND, either express or implied. See the License for the
 * specific language governing permissions and limitations
 * under the License.
-->

<svg version="1.1" id="schema" xmlns="http://www.w3.org/2000/svg" xmlns:xlink="http://www.w3.org/1999/xlink" x="0px" y="0px"
	 viewBox="-413 291.28 14 14" style="enable-background:new -413 291.28 14 14;" xml:space="preserve">
<path d="M-400.07184,294.31589c-0.19778-0.03302-0.39557-0.03302-0.5824-0.03302c-0.84607,0-1.51639,0-2.36243,0
	c-0.0033,0-0.00662,0.00012-0.00992,0.00043v-2.01624h-6.36841v2.6463h6.36841v-0.33377c0.0033,0,0.00662,0,0.00992,0
	c0.21973,0,2.26358,0,2.71405,0c0.022,0,0.04401,0,0.06592,0c0.45056,0.03299,0.81314,0.35162,0.91205,0.81311
	c0.09888,0.51648-0.29669,1.04388-0.81311,1.13181c-0.06592,0-0.16486,0-0.2637,0c-0.8461,0-1.68121,0-2.52734,0
	c-0.03293,0-0.03293,0-0.06592,0c0-0.03299,0-0.05499,0-0.05499c0.28571-0.29663,0.54941-0.56033,0.81317-0.81311
	c0.03293-0.03293,0.06592-0.06592,0.06592-0.13187c0-0.06592-0.03299-0.09885-0.06592-0.13187
	c-0.06598-0.03293-0.13193,0-0.16486,0.03302c-0.13184,0.13184-0.23077,0.23071-0.36261,0.35162
	c-0.25272,0.2637-0.51642,0.52744-0.81311,0.78012c-0.08795,0.09894-0.08795,0.16486,0,0.2637
	c0.36261,0.36264,0.74716,0.74719,1.1098,1.10983c0.06592,0.05493,0.13184,0.05493,0.19778,0.022
	c0.06592-0.022,0.09891-0.08795,0.09891-0.15387c0-0.03293-0.03299-0.09885-0.06592-0.09885
	c-0.26376-0.29669-0.52747-0.54941-0.81317-0.81317l-0.03293-0.03293c0.03293,0,0.03293,0,0.06592,0c0.87903,0,1.78009,0,2.65912,0
	c0.68127,0,1.23068-0.48349,1.2966-1.13184C-398.94009,295.06305-399.42358,294.41473-400.07184,294.31589z M-403.45267,294.48727
	h-5.51627v-1.79413h5.51627V294.48727z M-399.94559,301.64664h-1.15579v-1.72556h-4.86487v-1.27417h1.60757
	c0.31595,0,0.57297-0.25702,0.57297-0.57297v-1.50037c0-0.31592-0.25702-0.57297-0.57297-0.57297h-3.70425
	c-0.31595,0-0.57297,0.25705-0.57297,0.57297v1.50037c0,0.31595,0.25702,0.57297,0.57297,0.57297h1.67059v1.27417h-4.79959v1.72556
	h-1.23511c-0.31595,0-0.57297,0.25705-0.57297,0.57297v1.5004c0,0.31592,0.25702,0.57294,0.57297,0.57294h3.15982
	c0.31592,0,0.57297-0.25702,0.57297-0.57294v-1.5004c0-0.31592-0.25705-0.57297-0.57297-0.57297h-1.49863v-1.29947h4.3735v1.29947
	h-1.3739c-0.31592,0-0.57294,0.25705-0.57294,0.57297v1.5004c0,0.31592,0.25702,0.57294,0.57294,0.57294h3.15982
	c0.31595,0,0.57297-0.25702,0.57297-0.57294v-1.5004c0-0.31592-0.25702-0.57297-0.57297-0.57297h-1.35983v-1.29947h4.43878v1.29947
	h-1.57794c-0.31595,0-0.57297,0.25705-0.57297,0.57297v1.5004c0,0.31592,0.25702,0.57294,0.57297,0.57294h3.15982
	c0.31592,0,0.57297-0.25702,0.57297-0.57294v-1.5004C-399.37262,301.90369-399.62967,301.64664-399.94559,301.64664z
	 M-408.20981,298.07394v-1.50037c0-0.08099,0.06589-0.14688,0.14688-0.14688h3.70425c0.08099,0,0.14688,0.06589,0.14688,0.14688
	v1.50037c0,0.08099-0.06589,0.14688-0.14688,0.14688h-3.70425C-408.14392,298.22083-408.20981,298.15494-408.20981,298.07394z
	 M-409.12033,302.2196v1.5004c0,0.08096-0.06589,0.14685-0.14688,0.14685h-3.15982c-0.08099,0-0.14688-0.06589-0.14688-0.14685
	v-1.5004c0-0.08099,0.06589-0.14688,0.14688-0.14688h3.15982C-409.18622,302.07272-409.12033,302.13861-409.12033,302.2196z
	 M-404.45953,302.2196v1.5004c0,0.08096-0.06589,0.14685-0.14688,0.14685h-3.15982c-0.08096,0-0.14685-0.06589-0.14685-0.14685
	v-1.5004c0-0.08099,0.06589-0.14688,0.14685-0.14688h3.15982C-404.52542,302.07272-404.45953,302.13861-404.45953,302.2196z
	 M-399.79871,303.72c0,0.08096-0.06589,0.14685-0.14688,0.14685h-3.15982c-0.08099,0-0.14688-0.06589-0.14688-0.14685v-1.5004
	c0-0.08099,0.06589-0.14688,0.14688-0.14688h3.15982c0.08099,0,0.14688,0.06589,0.14688,0.14688V303.72z"/>
</svg>
