<?xml version="1.0" encoding="utf-8"?>

<!--
 * Copyright (c) 2015, WSO2 Inc. (http://www.wso2.org) All Rights Reserved.
 *
 * WSO2 Inc. licenses this file to you under the Apache License,
 * Version 2.0 (the "License"); you may not use this file except
 * in compliance with the License.
 * You may obtain a copy of the License at
 *
 * http://www.apache.org/licenses/LICENSE-2.0
 *
 * Unless required by applicable law or agreed to in writing,
 * software distributed under the License is distributed on an
 * "AS IS" BASIS, WITHOUT WARRANTIES OR CONDITIONS OF ANY
 * KIND, either express or implied. See the License for the
 * specific language governing permissions and limitations
 * under the License.
-->

<svg version="1.1" id="schema" xmlns="http://www.w3.org/2000/svg" xmlns:xlink="http://www.w3.org/1999/xlink" x="0px" y="0px"
	 viewBox="0 0 14 14" style="enable-background:new 0 0 14 14;" xml:space="preserve">
<path d="M7.3,9.4h4.1v1h-1.3c-0.4,0-0.7,0.3-0.7,0.7v1.8c0,0.4,0.3,0.7,0.7,0.7h3.2c0.4,0,0.7-0.3,0.7-0.7v-1.8
	c0-0.4-0.3-0.7-0.7-0.7H12V8.7H7.3V8h1.3C9,8,9.3,7.7,9.3,7.3V5.5c0-0.4-0.3-0.7-0.7-0.7H5.4C5,4.8,4.7,5.1,4.7,5.5v1.8
	C4.7,7.7,5,8,5.4,8h1.3v0.7H2v1.7H0.7c-0.4,0-0.7,0.3-0.7,0.7v1.8c0,0.4,0.3,0.7,0.7,0.7h3.2c0.4,0,0.7-0.3,0.7-0.7v-1.8
	c0-0.4-0.3-0.7-0.7-0.7H2.6v-1h4.1 M5.2,7.3V5.5c0-0.1,0.1-0.2,0.2-0.2h3.2c0.1,0,0.2,0.1,0.2,0.2v1.8c0,0.1-0.1,0.2-0.2,0.2H5.4
	C5.3,7.5,5.2,7.5,5.2,7.3z M4.1,11.1v1.8c0,0.1-0.1,0.2-0.2,0.2H0.7c-0.1,0-0.2-0.1-0.2-0.2v-1.8c0-0.1,0.1-0.2,0.2-0.2h3.2
	C4,10.9,4.1,11,4.1,11.1z M13.5,12.9c0,0.1-0.1,0.2-0.2,0.2h-3.2c-0.1,0-0.2-0.1-0.2-0.2v-1.8c0-0.1,0.1-0.2,0.2-0.2h3.2
	c0.1,0,0.2,0.1,0.2,0.2V12.9z M11.2,2.3l1.4,0c0,0,0.3,0,0.4,0.1c0.1,0.1,0.2,0.3,0.2,0.6v2.4c0,0,0,0.3-0.2,0.5
	c-0.1,0.1-0.3,0.2-0.6,0.2h-1.5l-0.5,0c0.2-0.2,0.4-0.4,0.6-0.6c0,0,0.1-0.1,0.1-0.2C11.1,5.1,11.1,5,11,5l0,0
	c-0.1-0.1-0.3,0-0.3,0.1c-0.1,0.1-0.2,0.2-0.4,0.4C10,5.6,9.8,5.9,9.5,6.1c-0.1,0.2-0.1,0.3,0,0.5l1.1,1.1c0.1,0.1,0.1,0.1,0.2,0.1
	c0.1,0,0.2-0.1,0.2-0.1c0.1-0.1,0.1-0.3,0-0.4c-0.2-0.2-0.4-0.4-0.6-0.6h2c0.4,0,0.8-0.1,1-0.4c0.4-0.4,0.4-1,0.4-1V3
	c0-0.5-0.1-0.8-0.4-1.1c-0.3-0.3-0.5-0.3-0.8-0.3h-1.4V0.4H2.8v3.1h8.4V2.3z M10.6,2.8H3.4V1h7.1V2.8z"/>
</svg>
