<?xml version="1.0" encoding="utf-8"?>

<!--
 * Copyright (c) 2015, WSO2 Inc. (http://www.wso2.org) All Rights Reserved.
 *
 * WSO2 Inc. licenses this file to you under the Apache License,
 * Version 2.0 (the "License"); you may not use this file except
 * in compliance with the License.
 * You may obtain a copy of the License at
 *
 * http://www.apache.org/licenses/LICENSE-2.0
 *
 * Unless required by applicable law or agreed to in writing,
 * software distributed under the License is distributed on an
 * "AS IS" BASIS, WITHOUT WARRANTIES OR CONDITIONS OF ANY
 * KIND, either express or implied. See the License for the
 * specific language governing permissions and limitations
 * under the License.
-->

<svg version="1.1" id="security" xmlns="http://www.w3.org/2000/svg" xmlns:xlink="http://www.w3.org/1999/xlink" x="0px" y="0px"
	 viewBox="0 0 14 14" style="enable-background:new 0 0 14 14;" xml:space="preserve">
<path d="M6.8,6.9C6.7,6.8,6.7,6.7,6.7,6.6c0-0.2,0.2-0.3,0.3-0.3s0.3,0.2,0.3,0.3c0,0.1-0.1,0.2-0.2,0.3v0.8H6.8V6.9z M0.9,2.3
	c0,2.1,0.5,4.5,1.5,6.6c0.8,1.7,2.3,4,4.5,5.1c0,0,0.1,0,0.1,0s0.1,0,0.1,0c2.2-1.2,3.8-3.5,4.5-5.2c0.9-2.1,1.5-4.5,1.5-6.6
	c0-0.1-0.1-0.2-0.1-0.2L7.1,0C7,0,7,0,6.9,0L1,2.1C0.9,2.1,0.9,2.2,0.9,2.3z M6.2,5.3H5.6V4.6c0-0.8,0.6-1.4,1.4-1.4
	s1.4,0.6,1.4,1.4v0.8H7.8V4.6c0-0.5-0.4-0.8-0.8-0.8c-0.4,0-0.8,0.4-0.8,0.8V5.3z M9,8.5H5l0-2.9h4V8.5z"/>
</svg>
