<?xml version="1.0" encoding="utf-8"?>

<!--
 * Copyright (c) 2015, WSO2 Inc. (http://www.wso2.org) All Rights Reserved.
 *
 * WSO2 Inc. licenses this file to you under the Apache License,
 * Version 2.0 (the "License"); you may not use this file except
 * in compliance with the License.
 * You may obtain a copy of the License at
 *
 * http://www.apache.org/licenses/LICENSE-2.0
 *
 * Unless required by applicable law or agreed to in writing,
 * software distributed under the License is distributed on an
 * "AS IS" BASIS, WITHOUT WARRANTIES OR CONDITIONS OF ANY
 * KIND, either express or implied. See the License for the
 * specific language governing permissions and limitations
 * under the License.
-->

<svg version="1.1" id="security" xmlns="http://www.w3.org/2000/svg" xmlns:xlink="http://www.w3.org/1999/xlink" x="0px" y="0px"
	 viewBox="0 0 14 14" style="enable-background:new 0 0 14 14;" xml:space="preserve">
<path d="M7.4299002,7.4175224c0,0.1309977-0.0879984,0.2629952-0.1749973,0.3509936v0.9199834H6.8169112V7.7685156
	C6.7289124,7.6805177,6.6419139,7.5495205,6.6419139,7.4175224c0-0.218996,0.1749973-0.3939929,0.3939929-0.3939929
	C7.2549028,7.0235295,7.4299002,7.1985264,7.4299002,7.4175224z M13.1221819,2.2296169
	c0,2.0749633-0.5489902,4.4749203-1.5069733,6.5828829c-0.7769871,1.7099695-2.2784319,4.0105219-4.5213914,5.1655006
	C7.064817,13.993,7.0338178,14,7.0028181,14c-0.0309992,0-0.0619984-0.007-0.0909982-0.0220003
	c-2.24296-1.1559792-3.7500424-3.4287071-4.5270281-5.1386766C1.4268087,6.7313609,0.8778185,4.3324037,0.8778185,2.2564411
	c0-0.0839987,0.052999-0.1589971,0.1329976-0.1869967l5.9260035-2.0581946c0.0429993-0.0149997,0.0889988-0.0149997,0.1319976,0
	l5.9203663,2.0313704C13.0691824,2.0706196,13.1221819,2.1456184,13.1221819,2.2296169z M5.4149361,6.0155478h0.6569881V5.1395631
	c0-0.5259905,0.4379926-0.9639826,0.9639831-0.9639826s0.9639826,0.4379921,0.9639826,0.9639826v0.8759847h0.6569877V5.0955639
	c0-0.8759842-0.7009873-1.6209712-1.6209712-1.6209712s-1.6209702,0.744987-1.6209702,1.6649704V6.0155478z M9.3578653,6.6725359
	c0-0.1749973-0.1749973-0.3509936-0.3509932-0.3509936H5.063942c-0.218996,0-0.3499937,0.1309977-0.3499937,0.3509936v2.5849543
	c0,0.1749973,0.1309977,0.3509932,0.3499937,0.3509932h3.9429302c0.218996,0,0.3509932-0.1749964,0.3509932-0.3509932V6.6725359z"/>
</svg>
