<?xml version="1.0" encoding="utf-8"?>

<!--
 * Copyright (c) 2015, WSO2 Inc. (http://www.wso2.org) All Rights Reserved.
 *
 * WSO2 Inc. licenses this file to you under the Apache License,
 * Version 2.0 (the "License"); you may not use this file except
 * in compliance with the License.
 * You may obtain a copy of the License at
 *
 * http://www.apache.org/licenses/LICENSE-2.0
 *
 * Unless required by applicable law or agreed to in writing,
 * software distributed under the License is distributed on an
 * "AS IS" BASIS, WITHOUT WARRANTIES OR CONDITIONS OF ANY
 * KIND, either express or implied. See the License for the
 * specific language governing permissions and limitations
 * under the License.
-->

<svg version="1.1" id="security-policy" xmlns="http://www.w3.org/2000/svg" xmlns:xlink="http://www.w3.org/1999/xlink" x="0px"
	 y="0px" viewBox="0 0 14 14" style="enable-background:new 0 0 14 14;" xml:space="preserve">
<path d="M8.7924194,4.9431152H5.0563965V4.4130859h3.7360229V4.9431152z M5.0563965,6.0031128h2.1459961V5.4730835H5.0563965
	V6.0031128z M8.2614136,8.3900757c0,0.1470337,0.117981,0.2650146,0.2659912,0.2650146
	c0.1459961,0,0.2650146-0.117981,0.2650146-0.2650146c0-0.1469727-0.1190186-0.2659912-0.2650146-0.2650146
	C8.3793945,8.125061,8.2614136,8.2440796,8.2614136,8.3900757z M5.0563965,7.5941162h3.7360229V7.0640869H5.0563965V7.5941162z
	 M9.1234131,11.3150635h1.9749756V9.9890747l-0.3059692,0.3209839v0.684021H9.4293823V9.5661011h1.0640259l0.3059692-0.3209839
	H9.1234131V11.3150635z M9.7653809,9.9960938l-0.2160034,0.2269897l0.519043,0.5449829l1.2990112-1.3619995l-0.2160034-0.2269897
	l-1.0830078,1.1350098L9.7653809,9.9960938z M5.0563965,8.6550903h2.6760254V8.125061H5.0563965V8.6550903z M9.4002686,0H2.7202759
	v8.6082058c0.2700195-0.1599731,0.5800171-0.25,0.9099731-0.25c0.1000366,0,0.2000122,0.0100098,0.2900391,0.0300293V1.2000122
	h5.1199951v2.6099854h2.6099854v8.9899902H6.0702515V13.5V14h6.7800293V3.2600098L9.4002686,0z M3.9202881,11.25h1.6499634
	v2.0499878V14H2.7202759H1.6902466l-0.0099487-2.75h1.039978H3.9202881z M3.9602661,12.1699829
	c0-0.0499878-0.0100098-0.0999756-0.039978-0.1399536c-0.0400391-0.1100464-0.1600342-0.1900024-0.2900391-0.1900024
	c-0.1799927,0-0.3299561,0.1499634-0.3299561,0.3299561c0,0.1100464,0.0699463,0.2200317,0.1499634,0.2900391v0.7699585h0.3599854
	V12.460022c0.0400391-0.0400391,0.0900269-0.0900269,0.1100464-0.1500244
	C3.9502563,12.2700195,3.9602661,12.2199707,3.9602661,12.1699829z M2.8202515,11v-0.7299805
	c0-0.4400024,0.3699951-0.8099976,0.8099976-0.8099976c0.1000366,0,0.2000122,0.0199585,0.2900391,0.0499878
	c0,0,0.4937744,0.1290531,0.5100098,0.7600098V11h0.5499878v-0.7700195c0-0.6399536-0.4400024-1.1900024-1.0599976-1.3299561
	C3.8302612,8.8800049,3.7302856,8.8699951,3.630249,8.8699951C3.2702637,8.8699951,2.9602661,9,2.7202759,9.2299805
	c-0.2800293,0.25-0.4500122,0.6300049-0.4500122,1.0400391V11h0.4500122H2.8202515z"/>
</svg>
