<?xml version="1.0" encoding="utf-8"?>
<!-- Generator: Adobe Illustrator 19.1.0, SVG Export Plug-In . SVG Version: 6.00 Build 0)  -->
<svg version="1.1" id="security-poolicy" xmlns="http://www.w3.org/2000/svg" xmlns:xlink="http://www.w3.org/1999/xlink" x="0px"
	 y="0px" viewBox="0 0 14 14" style="enable-background:new 0 0 14 14;" xml:space="preserve">
<path d="M9.1233826,8.6400146h1.6759644l-0.3059692,0.3209839H9.4293518v1.4279785h1.3630371v-0.684021l0.3059692-0.3209839
	v1.3259888H9.1233826V8.6400146z M9.7653503,9.3909912L9.5493469,9.617981l0.519043,0.5449829l1.2990112-1.3619995
	l-0.2160034-0.2269897l-1.0830078,1.1350098L9.7653503,9.3909912z M8.7923889,3.8079834H4.5513611v0.5300293h4.2410278V3.8079834z
	 M4.5513611,5.3980103h2.651001V4.867981h-2.651001V5.3980103z M4.5513611,6.9890137h4.2410278V6.4589844H4.5513611V6.9890137z
	 M4.5513611,8.0499878h3.1810303V7.5199585H4.5513611V8.0499878z M8.2613831,7.7849731
	c0,0.1470337,0.117981,0.2650146,0.2659912,0.2650146c0.1459961,0,0.2650146-0.117981,0.2650146-0.2650146
	c0-0.1469727-0.1190186-0.2659912-0.2650146-0.2650146C8.379364,7.5199585,8.2613831,7.6389771,8.2613831,7.7849731z
	 M5.7149963,11.0899658v0.5v0.7000122v1.3300171C5.7149963,13.8299561,5.5749817,14,5.4150085,14H1.7749939
	c-0.1599731,0-0.2999878-0.1700439-0.2999878-0.3800049v-2.5300293c0-0.2099609,0.1400146-0.3800049,0.2999878-0.3800049h0.1099854
	v-0.5c0-0.7999878,0.5499878-1.4899902,1.2900391-1.6799927C3.2950134,8.5,3.4150085,8.4799805,3.5450134,8.4799805
	c0.0299683,0,0.0799561,0,0.0999756,0c0.0800171,0,0.1500244,0.0100098,0.2299805,0.0300293
	c0.8099976,0.1199951,1.4300537,0.8499756,1.4300537,1.6999512v0.5h0.1099854
	C5.5849915,10.7099609,5.7149963,10.8800049,5.7149963,11.0899658z M2.5950012,10.7099609h0.5800171h0.3699951H3.644989h0.2299805
	h0.7200317v-0.5C4.5950012,9.75,4.2950134,9.3599854,3.8749695,9.25C3.7850037,9.2099609,3.6949768,9.2000122,3.5950012,9.2000122
	c-0.1500244,0-0.289978,0.0299683-0.4199829,0.0999756c-0.3400269,0.1500244-0.5800171,0.5-0.5800171,0.9099731V10.7099609z
	 M3.9750061,12.289978c0.0700073-0.0700073,0.0999756-0.1699829,0.0999756-0.2600098
	c0-0.25-0.1900024-0.4500122-0.4299927-0.4599609c-0.0100098,0-0.0299683,0-0.0499878,0s-0.039978,0-0.0499878,0
	c-0.1600342,0.0099487-0.2900391,0.0999756-0.3600464,0.2299805c-0.039978,0.0700073-0.0599976,0.1500244-0.0599976,0.2299805
	c0,0.1199951,0.0500488,0.2399902,0.1300049,0.3200073v0.7600098c0,0.0900269,0.0700073,0.1599731,0.1600342,0.1599731h0.3599854
	c0.0900269,0,0.1599731-0.0699463,0.1599731-0.1599731v-0.7600098C3.9549866,12.3299561,3.9750061,12.3099976,3.9750061,12.289978z
	 M9.7950134,0H9.3249817H9.3149719H3.8050232C3.4549866,0,3.1750183,0.289978,3.1750183,0.6400146v7.3899536
	C3.2950134,8,3.4150085,7.9799805,3.5450134,7.9799805H3.644989h0.0100098c0.0700073,0,0.1500244,0.0100098,0.2199707,0.0200195
	V0.9699707c0-0.1400146,0.1200562-0.2600098,0.2700195-0.2600098h5.1699829v1.7600098
	c0,0.3300171,0.2800293,0.6000366,0.6100464,0.6000366h1.8999634v8.2599487
	c-0.0100098,0.1400146-0.1199951,0.2600098-0.2699585,0.2600098H6.2149963v0.7000122h5.6699829
	c0.3500366,0,0.6400146-0.2799683,0.6400146-0.6300049v-9.039978L9.7950134,0z"/>
</svg>
