<?xml version="1.0" encoding="utf-8"?>
<!-- Generator: Adobe Illustrator 19.1.0, SVG Export Plug-In . SVG Version: 6.00 Build 0)  -->
<svg version="1.1" id="send" xmlns="http://www.w3.org/2000/svg" xmlns:xlink="http://www.w3.org/1999/xlink" x="0px" y="0px"
	 viewBox="0 0 14 14" style="enable-background:new 0 0 14 14;" xml:space="preserve">
<path d="M11.0031548,3.4931722C8.9118423,5.204246,6.8205299,7.0103793,4.7292175,8.8165131
	C4.5666399,8.9315987,4.4884887,8.9628592,4.2539191,8.9115725C2.9230843,8.4362745,1.5396657,8.0559568,0.1137709,7.5806589
	c-0.3398995-0.1704121,0.1901193-0.3802385,0.1901193-0.3802385C4.7716928,4.9189897,9.292078,2.6376367,13.759881,0.356206
	c0.0806589-0.041187,0.1800709-0.0430814,0.2282181,0.0478508c0.0260696,0.049236,0.0029726,0.1003916-0.0093546,0.1502019
	c-0.0519762,0.2100207-1.9299335,8.072135-2.5002918,10.4486265c-0.0508537,0.2302971,0.0019703,0.304513-0.2851791,0.1901188
	C9.57726,10.7177057,7.8661861,10.1473475,6.2501717,9.6720495C6.0254641,9.5932798,6.0020185,9.3510103,6.1551123,9.1967506
	C7.7711267,7.295558,9.4645166,5.4088359,10.9854717,3.507643 M5.8891864,10.9078245
	c0.003756-0.1428051,0.0314398-0.2466555,0.2220831-0.2023888c0.4752984,0.0950594,0.9155064,0.2639208,1.3939314,0.3925085
	c0.1275387,0.0447989,0.1644559,0.1068878,0.0950594,0.2851791c-0.4752979,0.7604771-0.9116921,1.4327784-1.3308349,2.1863718
	c-0.0555,0.0816402-0.0923748,0.1170368-0.1901193,0.0950603c-0.0991306-0.0176077-0.1220679-0.1032267-0.1220679-0.1982851
	C5.9624672,12.9041786,5.8791895,11.2879324,5.8891864,10.9078245z"/>
</svg>
