<?xml version="1.0" encoding="utf-8"?>

<!--
 * Copyright (c) 2015, WSO2 Inc. (http://www.wso2.org) All Rights Reserved.
 *
 * WSO2 Inc. licenses this file to you under the Apache License,
 * Version 2.0 (the "License"); you may not use this file except
 * in compliance with the License.
 * You may obtain a copy of the License at
 *
 * http://www.apache.org/licenses/LICENSE-2.0
 *
 * Unless required by applicable law or agreed to in writing,
 * software distributed under the License is distributed on an
 * "AS IS" BASIS, WITHOUT WARRANTIES OR CONDITIONS OF ANY
 * KIND, either express or implied. See the License for the
 * specific language governing permissions and limitations
 * under the License.
-->

<svg version="1.1" id="send" xmlns="http://www.w3.org/2000/svg" xmlns:xlink="http://www.w3.org/1999/xlink" x="0px" y="0px"
	 viewBox="-0.4 0.1 14.7 14" enable-background="new -0.4 0.1 14.7 14" xml:space="preserve">
<path d="M11.3,3.3l-0.1,0.1C9,5.2,6.8,7.1,4.6,9C4.4,9.1,4.3,9.1,4.1,9.1C2.7,8.6,1.3,8.2-0.2,7.7h-0.1c-0.1-0.1-0.1-0.2,0-0.3
	S-0.1,7.3,0,7.3c4.7-2.4,9.4-4.8,14.1-7.2l0,0c0.1,0,0.2,0,0.2,0c0,0.1,0,0.2,0,0.3c-0.3,1.1-0.5,2.2-0.8,3.3
	c-0.6,2.5-1.2,5.1-1.8,7.6c-0.1,0.2-0.1,0.3-0.3,0.2C9.7,11,7.9,10.4,6.2,9.9C6,9.7,6,9.6,6.1,9.4c1.7-2,3.4-4,5-6
	C11.2,3.4,11.3,3.3,11.3,3.3L11.3,3.3z M6,12.5c0-0.4,0-0.9,0-1.3C6,11,6.1,11,6.3,11c0.5,0.1,0.9,0.3,1.4,0.4
	c0.2,0.1,0.2,0.1,0.1,0.3c-0.5,0.8-1,1.5-1.4,2.3c0,0.1-0.1,0.1-0.2,0.1c0-0.1-0.1-0.1-0.1-0.2C6,13.4,6,12.9,6,12.5z"/>
</svg>
