<?xml version="1.0" encoding="utf-8"?>
<!-- Generator: Adobe Illustrator 19.1.0, SVG Export Plug-In . SVG Version: 6.00 Build 0)  -->
<svg version="1.1" id="sequence" xmlns="http://www.w3.org/2000/svg" xmlns:xlink="http://www.w3.org/1999/xlink" x="0px" y="0px"
	 viewBox="0 0 14 14" style="enable-background:new 0 0 14 14;" xml:space="preserve">
<path d="M0.977,10.5950003c0,0.0819998-0.067,0.1490002-0.149,0.1490002H0.149C0.067,10.7440004,0,10.677,0,10.5950003V3.079
	c0-0.082,0.067-0.1489999,0.149-0.1489999h0.679C0.91,2.9300001,0.977,2.997,0.977,3.079V10.5950003z M2.424,10.2700005
	c0,0.0819998-0.0669999,0.1490002-0.1489999,0.1490002H1.596c-0.082,0-0.149-0.0670004-0.149-0.1490002V2.753
	c0-0.082,0.067-0.1489999,0.149-0.1489999h0.6790001C2.3570001,2.6040001,2.424,2.671,2.424,2.753V10.2700005z M3.8705001,9.9440002
	c0,0.0819998-0.0669999,0.1490002-0.1489999,0.1490002H3.0425c-0.082,0-0.1489999-0.0670004-0.1489999-0.1490002V2.428
	C2.8935001,2.346,2.9605,2.279,3.0425,2.279h0.6800001C3.8045001,2.279,3.8715,2.346,3.8715,2.428L3.8705001,9.9440002
	L3.8705001,9.9440002z M5.3179994,9.6190004c0,0.0819998-0.0669999,0.1490002-0.1490002,0.1490002H4.4899998
	c-0.0819998,0-0.1489997-0.0670004-0.1489997-0.1490002V2.102c0-0.082,0.0669999-0.149,0.1489997-0.149h0.6789999
	c0.0819998,0,0.1490002,0.067,0.1490002,0.149C5.3179998,2.102,5.3179998,9.6190004,5.3179994,9.6190004z M6.7655001,9.9440002
	c0,0.0819998-0.0669999,0.1490002-0.1490002,0.1490002H5.9365001c-0.0819998,0-0.1490002-0.0670004-0.1490002-0.1490002V2.428
	c0-0.082,0.0669999-0.1489999,0.1490002-0.1489999h0.6799998C6.6984997,2.279,6.7655001,2.346,6.7655001,2.428V9.9440002z
	 M8.2119999,10.2700005c0,0.0819998-0.0669994,0.1490002-0.1490002,0.1490002H7.3839998
	c-0.0819998,0-0.1490002-0.0670004-0.1490002-0.1490002V2.753c0-0.082,0.0669999-0.1489999,0.1490002-0.1489999h0.6789999
	c0.0819998,0,0.1490002,0.0669999,0.1490002,0.1489999V10.2700005z M9.6590004,10.5950003
	c0,0.0819998-0.0670004,0.1490002-0.1490002,0.1490002H8.8309994c-0.0819998,0-0.1490002-0.0670004-0.1490002-0.1490002V3.079
	c0-0.082,0.0670004-0.1489999,0.1490002-0.1489999h0.6790009C9.592,2.9300001,9.6590004,2.997,9.6590004,3.079V10.5950003z
	 M11.1059999,10.9209995c0,0.0819998-0.0670004,0.1490002-0.1490002,0.1490002h-0.6789999
	c-0.0819998,0-0.1490002-0.0670004-0.1490002-0.1490002V3.404c0-0.082,0.0670004-0.1489999,0.1490002-0.1489999h0.6789999
	c0.0819998,0,0.1490002,0.0669999,0.1490002,0.1489999V10.9209995z M12.5530005,11.2469997
	c0,0.0819998-0.0670004,0.1490002-0.1490002,0.1490002h-0.6789999c-0.0819998,0-0.1490002-0.0670004-0.1490002-0.1490002V3.73
	c0-0.082,0.0670004-0.1489999,0.1490002-0.1489999h0.6789999c0.0819998,0,0.1490002,0.0669999,0.1490002,0.1489999V11.2469997z
	 M14,11.5719995c0,0.0819998-0.0670004,0.1490002-0.1490002,0.1490002h-0.6789999
	c-0.0819998,0-0.1490002-0.0670004-0.1490002-0.1490002V4.0560002c0-0.082,0.0670004-0.1489999,0.1490002-0.1489999h0.6789999
	C13.9329996,3.9070003,14,3.9740002,14,4.0560002V11.5719995z"/>
</svg>
