<?xml version="1.0" encoding="utf-8"?>
<!-- Generator: Adobe Illustrator 19.1.0, SVG Export Plug-In . SVG Version: 6.00 Build 0)  -->
<svg version="1.1" id="servers" xmlns="http://www.w3.org/2000/svg" xmlns:xlink="http://www.w3.org/1999/xlink" x="0px" y="0px"
	 viewBox="0 0 14 14" style="enable-background:new 0 0 14 14;" xml:space="preserve">
<style type="text/css">
	.st0{fill:#0E0E0E;}
</style>
<path class="st0" d="M13.2799997,6.04c0-0.1599998-0.1300001-0.29-0.29-0.29H10.71c-0.1599998,0-0.29,0.1300001-0.29,0.29
	s0.1300001,0.29,0.29,0.29h2.2799997C13.1499996,6.3299999,13.2799997,6.1999998,13.2799997,6.04z M13.2799997,4.8000002
	c0-0.1600003-0.1300001-0.29-0.29-0.29H10.71c-0.1599998,0-0.29,0.1299996-0.29,0.29c0,0.1599998,0.1300001,0.29,0.29,0.29
	h2.2799997C13.1499996,5.0900002,13.2799997,4.96,13.2799997,4.8000002z M12.9899998,2.6199999
	c0.1599998,0,0.29-0.1299999,0.29-0.29c0-0.1599998-0.1300001-0.29-0.29-0.29H10.71c-0.1599998,0-0.29,0.1300001-0.29,0.29
	c0,0.1600001,0.1300001,0.29,0.29,0.29H12.9899998z M13.2799997,3.5699999c0-0.1599998-0.1300001-0.3-0.29-0.3H10.71
	c-0.1599998,0-0.29,0.1400001-0.29,0.3c0,0.1600001,0.1300001,0.29,0.29,0.29h2.2799997
	C13.1499996,3.8599999,13.2799997,3.73,13.2799997,3.5699999z M10.6999998,0.9H13C13.3999996,0.9,13.8000002,1.3,13.8000002,1.7
	v10.5C13.8000002,12.6999998,13.3999996,13,13,13h-2.3000002c-0.5,0-0.8000002-0.3999996-0.8000002-0.8000002V1.7
	C9.8999996,1.2,10.3000002,0.9,10.6999998,0.9z M5,13.1999998V0.8C5,0.4,5.4000001,0,5.8000002,0h2.3000002C8.6000004,0,9,0.4,9,0.8
	v12.3000002C9,13.6000004,8.6000004,14,8.1000004,14H5.8000002C5.4000001,14,5,13.6000004,5,13.1999998z M5.7800002,6.6500001
	h2.4400001c0.1599998,0,0.29-0.1300001,0.29-0.29v-0.04c0-0.1600003-0.1300001-0.29-0.29-0.29H5.7800002
	c-0.1600003,0-0.2900004,0.1299996-0.2900004,0.29v0.04C5.4899998,6.52,5.6199999,6.6500001,5.7800002,6.6500001z
	 M5.7800002,4.8499999c-0.1600003,0-0.2900004,0.1300001-0.2900004,0.29v0.04c0,0.1600003,0.1300001,0.29,0.2900004,0.29h2.4400001
	c0.1599998,0,0.29-0.1299996,0.29-0.29v-0.04c0-0.1599998-0.1300001-0.29-0.29-0.29H5.7800002z M8.2200003,1.3099999H5.7800002
	c-0.1600003,0-0.2900004,0.1300001-0.2900004,0.2900001v0.03c0,0.16,0.1300001,0.3,0.2900004,0.3h2.4400001
	c0.1599998,0,0.29-0.14,0.29-0.3V1.6C8.5100002,1.4400001,8.3800001,1.3099999,8.2200003,1.3099999z M5.7800002,2.49
	c-0.1600003,0-0.2900004,0.1299999-0.2900004,0.29v0.03c0,0.1600001,0.1300001,0.3,0.2900004,0.3h2.4400001
	c0.1599998,0,0.29-0.1399999,0.29-0.3V2.78c0-0.1600001-0.1300001-0.29-0.29-0.29H5.7800002z M5.7800002,3.6700001
	c-0.1600003,0-0.2900004,0.1299999-0.2900004,0.29v0.03c0,0.1600001,0.1300001,0.3,0.2900004,0.3h2.4400001
	c0.1599998,0,0.29-0.1399999,0.29-0.3V3.96c0-0.1600001-0.1300001-0.29-0.29-0.29H5.7800002z M1.0599999,6.3200002h2.28
	c0.1600001,0,0.2900002-0.1300001,0.2900002-0.29c0-0.1600003-0.1300001-0.2900004-0.2900002-0.2900004h-2.28
	c-0.16,0-0.29,0.1300001-0.29,0.2900004C0.77,6.1900001,0.9,6.3200002,1.0599999,6.3200002z M1,0.9h2.3
	C3.8,0.9,4.1999998,1.3,4.1999998,1.7v10.5C4.1999998,12.6999998,3.8,13,3.4000001,13H1c-0.5,0-0.8-0.3999996-0.8-0.8000002V1.7
	C0.2,1.2,0.6,0.9,1,0.9z M3.3399999,5.0900002C3.5,5.0900002,3.6300001,4.9499998,3.6300001,4.79S3.5,4.5,3.3399999,4.5h-2.28
	c-0.16,0-0.29,0.1300001-0.29,0.29s0.13,0.3000002,0.29,0.3000002H3.3399999z M3.3399999,3.8499999
	c0.1600001,0,0.2900002-0.1299999,0.2900002-0.29c0-0.1599998-0.1300001-0.29-0.2900002-0.29h-2.28
	c-0.16,0-0.29,0.1300001-0.29,0.29c0,0.1600001,0.13,0.29,0.29,0.29H3.3399999z M3.6300001,2.3199999
	c0-0.1599998-0.1300001-0.29-0.2900002-0.29h-2.28c-0.16,0-0.29,0.1300001-0.29,0.29c0,0.1600001,0.13,0.29,0.29,0.29h2.28
	C3.5,2.6099999,3.6300001,2.48,3.6300001,2.3199999z"/>
</svg>
