<?xml version="1.0" encoding="utf-8"?>
<!-- Generator: Adobe Illustrator 19.1.0, SVG Export Plug-In . SVG Version: 6.00 Build 0)  -->
<svg version="1.1" id="service" xmlns="http://www.w3.org/2000/svg" xmlns:xlink="http://www.w3.org/1999/xlink" x="0px" y="0px"
	 viewBox="0 0 14 14" style="enable-background:new 0 0 14 14;" xml:space="preserve">
<path d="M0.918578,5.1292753c0.0739993,0.2515979,0.175625,0.4953022,0.3058639,0.7232199L0.855432,6.3172107
	C0.7350598,6.4681697,0.748873,6.6842475,0.8850317,6.821393l0.6334341,0.6334343
	c0.1361587,0.137145,0.3532233,0.1489849,0.5041819,0.0295992l0.4607689-0.3650632
	C2.7212009,7.2555223,2.9737854,7.3620811,3.2362363,7.437067l0.0690658,0.5929813
	C3.3279953,8.2224464,3.4898071,8.366498,3.6822052,8.366498h0.8968716c0.1923985,0,0.3542104-0.1440516,0.3769031-0.3364496
	l0.0661058-0.5722609c0.2821841-0.0730128,0.5525284-0.1825318,0.807086-0.3255968l0.4459696,0.3532224
	c0.1519451,0.1193852,0.3680234,0.1055722,0.5041819-0.0286126l0.6334343-0.6344209
	c0.1371455-0.1361589,0.1489854-0.3532233,0.0286131-0.5041823L7.0950532,5.8781486
	c0.144052-0.2496243,0.2565312-0.5150352,0.3315172-0.7932725l0.5347686-0.061173
	C8.1547241,5.0010099,8.2977886,4.8382111,8.2977886,4.6468V3.7499285c0-0.1923981-0.1440516-0.3542099-0.3364496-0.3769031
	l-0.5268755-0.061173C7.3624372,3.0365751,7.2539053,2.7741241,7.1157732,2.5274599l0.3246102-0.4094627
	c0.1203723-0.1519454,0.1065588-0.3680234-0.0286131-0.504182L6.7793226,0.980381
	C6.6431642,0.8442223,6.4270864,0.8323824,6.2751412,0.9527546L5.8765316,1.268485
	C5.6180277,1.1165397,5.3417635,1.0011008,5.0516863,0.9231549L4.9924865,0.4071331
	c-0.0226932-0.1923982-0.184505-0.3364502-0.3778896-0.3364502h-0.895885c-0.1923983,0-0.3542101,0.144052-0.3769031,0.3364502
	L3.2816224,0.9221683C2.9846387,1.0020875,2.7004812,1.1224597,2.4360573,1.2803248L2.0236344,0.951768
	c-0.1519454-0.1203722-0.36901-0.106559-0.5051687,0.028613L0.8850317,1.6148018
	C0.7478863,1.7509605,0.7360464,1.9670385,0.855432,2.1189837L1.200762,2.556073
	c-0.138132,0.2496243-0.2427177,0.5150352-0.3117837,0.7912993L0.3364502,3.4105182C0.144052,3.4332113,0,3.5950232,0,3.7874212
	v0.896872c0,0.1923981,0.144052,0.3542099,0.3364502,0.3769031L0.918578,5.1292753z M4.1676407,2.7030849
	c0.8169527,0,1.4819593,0.6659937,1.4819593,1.4829459S4.9845934,5.6679902,4.1676407,5.6679902
	S2.6846948,5.001996,2.6846948,4.1850443C2.6856813,3.3680921,3.3506885,2.7030849,4.1676407,2.7030849z M13.0317707,5.3492999
	l-0.4726086-0.3995962c-0.1460247-0.1233325-0.3601294-0.1174126-0.4982624,0.013813l-0.2614641,0.2446909
	c-0.2200241-0.1065588-0.4548492-0.1815448-0.6965809-0.2259445l-0.0730124-0.3601298
	c-0.0374937-0.1864781-0.2101583-0.314744-0.3995962-0.2999434L10.012598,4.3744826
	c-0.190424,0.0167732-0.3394089,0.1716781-0.3453283,0.362103L9.6554298,5.103622
	C9.4186316,5.1894612,9.1946602,5.3058867,8.9894352,5.452899L8.6776524,5.2457008
	C8.5178137,5.1401286,8.3066683,5.1707149,8.1843233,5.31674L7.78374,5.7923088
	c-0.1223454,0.1460257-0.1164255,0.3601303,0.0138135,0.499249l0.2742906,0.2910638
	C7.9771252,6.7957397,7.9090457,7.019711,7.8705664,7.2505889L7.4798503,7.3295212
	c-0.1864786,0.0374932-0.3157306,0.2101583-0.300931,0.3995967l0.0532794,0.6166606
	c0.0167732,0.1894388,0.1716781,0.3384237,0.3621035,0.3443432l0.4222889,0.0128269
	C8.0935507,8.9042253,8.193203,9.0946512,8.3145618,9.2732363L8.0787506,9.6294193
	c-0.1055717,0.1598396-0.0749855,0.3709841,0.0710402,0.4943161l0.4726086,0.3995962
	c0.1450386,0.123332,0.3611164,0.1164255,0.4982624-0.0128269l0.3098106-0.2900763
	c0.2022648,0.0947189,0.4163694,0.1647711,0.6354074,0.2071981l0.0848522,0.4232759
	c0.0374937,0.1864777,0.2101583,0.314744,0.3995962,0.2999439l0.6176481-0.0522938
	c0.1884518-0.0167732,0.3384237-0.1716785,0.3443432-0.3621025l0.012826-0.4143963
	c0.2249575-0.0789328,0.4390621-0.1874647,0.6363935-0.3216505l0.3403969,0.2249575
	c0.1588526,0.1045856,0.3709841,0.0749865,0.4943161-0.0700531l0.3986101-0.4735947
	c0.1243191-0.1450396,0.1174126-0.3601303-0.012826-0.4982624l-0.274291-0.2920504
	c0.1006393-0.2131176,0.1746387-0.438076,0.2160778-0.66994l0.3749304-0.0769596
	c0.1864777-0.0374928,0.3157301-0.2101574,0.2999439-0.3995962l-0.0522938-0.6176476
	C13.9296303,6.937819,13.774725,6.7898202,13.584301,6.7839003l-0.3769035-0.0118399
	c-0.0779476-0.219038-0.1835203-0.4262362-0.3137589-0.6186347l0.2062111-0.3098106
	C13.2073956,5.68575,13.1787834,5.4726319,13.0317707,5.3492999z M10.7052336,8.9180403
	c-0.6669807,0.0572252-1.2560148-0.4400501-1.3112688-1.1060438C9.3377256,7.1450162,9.835,6.5559821,10.5009947,6.4997425
	c0.6669798-0.0572262,1.2560139,0.4400492,1.3112679,1.107029C11.8694887,8.2737522,11.3722134,8.8627872,10.7052336,8.9180403z
	 M3.078371,10.5795708c-0.1894381,0.0197334-0.3344769,0.1785851-0.3364503,0.369997l-0.0049334,0.3798628
	c-0.00296,0.191412,0.1381321,0.3532238,0.3275702,0.3769035l0.2792242,0.0355196
	c0.0463727,0.1697054,0.112479,0.3325033,0.198318,0.4854355l-0.1795716,0.2219982
	c-0.1203721,0.1489849-0.1114922,0.3621025,0.0217066,0.4992476l0.2663975,0.2723179
	c0.1341853,0.136158,0.3473036,0.1519451,0.4982622,0.0345325l0.2239714-0.1726646
	c0.157865,0.0927458,0.3246102,0.1667442,0.4982624,0.218051l0.0295997,0.2881031
	c0.019733,0.1894388,0.1785851,0.3344774,0.3699965,0.3364506l0.3798628,0.0039463
	c0.1904249,0.0029602,0.3522367-0.138133,0.3769031-0.32757l0.034533-0.2733049
	c0.1894379-0.0463724,0.36901-0.1164255,0.540688-0.2101583l0.2101579,0.1697054
	c0.1489854,0.1203718,0.3621035,0.1105061,0.4982619-0.0226936l0.2723179-0.2654104
	c0.137145-0.1331987,0.1509581-0.3463163,0.0345325-0.4982624l-0.1588516-0.2101564
	c0.0996523-0.1657581,0.1756248-0.3403969,0.2279177-0.5258884l0.2486382-0.0256529
	c0.1894383-0.0197334,0.335464-0.1785851,0.3364501-0.3699961l0.0049334-0.3798637
	c0.0029602-0.1904249-0.138133-0.3532228-0.3275704-0.3769035L7.7057943,10.58253
	c-0.0463729-0.1835184-0.1154389-0.3611164-0.205225-0.5258884L7.6525145,9.870163
	c0.1193852-0.1489849,0.1114922-0.3621025-0.0226932-0.4992476L7.3644109,9.0985975
	C7.2312121,8.9624395,7.0171075,8.9476395,6.8661489,9.065052L6.6846042,9.2041702
	c-0.171679-0.1035986-0.355197-0.1835175-0.5466084-0.2377844L6.1133294,8.7305756
	c-0.019733-0.1884518-0.1785846-0.3344765-0.36901-0.3354635L5.3644562,8.3901787
	c-0.1904249-0.0029602-0.3532233,0.1381321-0.3769031,0.32757L4.9569669,8.9515867
	C4.7586484,9.0028925,4.568224,9.0808382,4.3906255,9.1834507L4.2031608,9.0305195
	C4.0541754,8.9101458,3.8410571,8.9190273,3.7048986,9.0532122L3.4306078,9.3205957
	C3.2944491,9.4537954,3.279649,9.666913,3.3960748,9.8188581L3.5569,10.0260563
	c-0.092746,0.1647711-0.1667452,0.3403969-0.2150912,0.5258884L3.078371,10.5795708z M5.5321879,10.1503744
	c0.5446348,0.0059195,0.9827104,0.4548492,0.9758039,0.999485c-0.0059199,0.5456209-0.4548488,0.9827108-1.0004702,0.9767904
	c-0.5456219-0.0059195-0.9817243-0.4548502-0.9758043-1.0004711S4.9865665,10.144455,5.5321879,10.1503744z"/>
</svg>
