<?xml version="1.0" encoding="utf-8"?>

<!--
 ~   Copyright (c) WSO2 Inc. (http://wso2.com) All Rights Reserved.
 ~
 ~   Licensed under the Apache License, Version 2.0 (the "License");
 ~   you may not use this file except in compliance with the License.
 ~   You may obtain a copy of the License at
 ~
 ~        http://www.apache.org/licenses/LICENSE-2.0
 ~
 ~   Unless required by applicable law or agreed to in writing, software
 ~   distributed under the License is distributed on an "AS IS" BASIS,
 ~   WITHOUT WARRANTIES OR CONDITIONS OF ANY KIND, either express or implied.
 ~   See the License for the specific language governing permissions and
 ~   limitations under the License.
-->

<svg version="1.1" id="service" xmlns="http://www.w3.org/2000/svg" xmlns:xlink="http://www.w3.org/1999/xlink" x="0px" y="0px"
	 viewBox="0 0 14 14" style="enable-background:new 0 0 14 14;" xml:space="preserve">
<path d="M8.2581978,3.6624625C8.258234,3.6504738,8.2529774,3.640033,8.2519331,3.6282961l-0.00144-0.3064532L7.39889,3.2239881
	C7.327209,2.9515932,7.2196693,2.6915472,7.0831118,2.4473062l0.5374455-0.6763791L6.5198889,0.6647862L6.2577186,0.8698205
	C6.2537222,0.8727367,6.248898,0.8734567,6.2450099,0.8765529L5.9534616,1.107797L5.8477221,1.1904588
	C5.5909882,1.0398602,5.3166852,0.9251203,5.0289173,0.8473189l-0.096559-0.8434306l-0.322474-0.0007921
	C4.6041236,0.0028442,4.5991554,0,4.593359,0H3.7008929C3.6993806,0,3.6980486,0.000756,3.6965365,0.0007921L3.371938,0
	L3.3348193,0.3035371C3.3325512,0.3143018,3.3265028,0.3233384,3.3251708,0.3344632L3.2655866,0.8470309
	c-0.2951486,0.0788095-0.57604,0.1987338-0.8390024,0.3543366L2.2746897,1.0846114L2.0126994,0.877129
	C2.0048509,0.8709005,1.9953462,0.8691004,1.9871736,0.863592L1.7299358,0.6658663L0.9771234,1.4394521L0.8801687,1.5365868
	C0.8776485,1.539107,0.8767484,1.5424912,0.8743003,1.5450834L0.6416521,1.784176l0.390015,0.4824337L1.1951545,2.4733
	C1.0589211,2.719521,0.9555939,2.9814754,0.8865411,3.2544463l-0.8867416,0.1055954l0.0006841,0.3342831
	c-0.000036,0.0018363-0.000972,0.0034204-0.000972,0.0052924V4.592083c0,0.0054007,0.0026642,0.0100088,0.0028802,0.0153732
	l0.000648,0.3130417l0.2903242,0.0341306c0.0140049,0.0033121,0.0260298,0.0109086,0.0406108,0.0126367L0.9143711,5.034482
	c0.0731571,0.2512975,0.1746121,0.4931264,0.3037891,0.7202301L0.8512587,6.217164
	C0.8485585,6.2205844,0.8479825,6.2247968,0.8454263,6.2282891L0.6405721,6.4885149l1.1056727,1.1010647l0.2652665-0.2094264
	c0.00054-0.000432,0.00126-0.000504,0.0018001-0.000936l0.4589241-0.3627615
	c0.2350245,0.1351175,0.4853497,0.2408566,0.7455759,0.3157058L3.3280869,8.25811l0.3330953-0.0006838
	c0.001296,0,0.0024121,0.0006838,0.0037441,0.0006838h0.8924663c0.0048962,0,0.0090723-0.0024481,0.0139327-0.0026283
	l0.3171821-0.0006475l0.0360384-0.3063097c0.0017281-0.0091448,0.0069127-0.016705,0.0079927-0.0260658l0.0660644-0.5697756
	C5.2797465,7.2795982,5.547965,7.1710863,5.8008108,7.0285168l0.0788093,0.061708l0.3659658,0.2901802
	c0.0043559,0.0034561,0.0097923,0.0042481,0.014257,0.0074887l0.2592897,0.2029819L7.617281,6.4822507L7.2180853,5.9794035
	L7.0613666,5.7806697c0.1433258-0.2483091,0.2554016-0.5126033,0.3297467-0.7898226l0.5320449-0.0613484
	c0.0124569-0.00144,0.0225739-0.0080647,0.0345626-0.0106568l0.300189-0.0365787L8.2563972,4.5640373
	C8.256506,4.5606532,8.2581978,4.5577369,8.2581978,4.5543528V3.6624625z M4.1288548,5.7524376
	c-0.8965604,0-1.6233826-0.7268224-1.6233826-1.6233826s0.7268221-1.6233826,1.6233826-1.6233826
	S5.7522373,3.2324948,5.7522373,4.129055S5.0254149,5.7524376,4.1288548,5.7524376z M14,7.372972
	c0.0000286-0.009696-0.0042219-0.0181394-0.0050659-0.0276313l-0.0011654-0.2478361l-0.6887112-0.0791378
	c-0.05797-0.2202921-0.1449404-0.4305973-0.2553778-0.6281209l0.4346447-0.5470037l-0.8901367-0.8945627L12.382165,5.1144958
	c-0.003232,0.002358-0.0071335,0.0029407-0.0102777,0.0054445L12.1361046,5.306953l-0.0855141,0.0668502
	c-0.2076263-0.1217923-0.4294615-0.2145853-0.6621866-0.2775049l-0.0780897-0.6821027l-0.2607927-0.0006404
	c-0.0046587-0.0002041-0.0086765-0.0025043-0.0133638-0.0025043h-0.7217588c-0.0012226,0-0.0023003,0.0006118-0.0035229,0.0006409
	l-0.2625103-0.0006409l-0.0300188,0.2454777c-0.0018349,0.0087061-0.0067263,0.0160141-0.007803,0.0250111L9.9623566,5.096065
	c-0.2386942,0.063735-0.4658575,0.1607208-0.6785212,0.2865605L9.1609945,5.2882023L8.9491167,5.1204062
	C8.9427691,5.1153688,8.9350824,5.1139131,8.9284735,5.1094584L8.720439,4.949553L8.1116219,5.57517L8.0332117,5.6537251
	c-0.002038,0.0020385-0.0027657,0.004775-0.0047455,0.0068717L7.8403177,5.8539567L8.1557322,6.244112l0.1322165,0.1671557
	C8.1777735,6.6103926,8.0942097,6.8222413,8.0383654,7.0429993L7.3212361,7.1283965l0.0005536,0.2703428
	C7.3217607,7.4002247,7.3210034,7.4015055,7.3210034,7.4030194v0.7217584c0,0.0043678,0.0021548,0.0080948,0.0023293,0.0124331
	l0.000524,0.2531643l0.2347922,0.0276022C7.5699749,8.4206562,7.5797,8.4267998,7.5914917,8.4281969l0.4693804,0.0543594
	c0.059164,0.2032309,0.1412134,0.3988037,0.2456818,0.5824671L8.0098314,9.4390202
	c-0.0021839,0.0027657-0.0026493,0.0061722-0.0047169,0.008997L7.8394442,9.6584682l0.8941841,0.8904572l0.2145271-0.1693687
	c0.0004368-0.000349,0.0010195-0.0004072,0.0014563-0.0007572l0.3711424-0.2933731
	c0.1900702,0.109272,0.3925142,0.1947861,0.6029654,0.2553186l0.0891819,0.7488365l0.2693825-0.0005531
	c0.0010481,0,0.0019503,0.0005531,0.0030279,0.0005531h0.7217588c0.0039597,0,0.0073376-0.0019798,0.0112677-0.0021257
	l0.2565126-0.0005236l0.0291452-0.2477198c0.0013981-0.0073957,0.0055904-0.0135098,0.006464-0.02108l0.0534277-0.4607916
	c0.2273674-0.0591049,0.4442825-0.1468611,0.6487646-0.2621613l0.063735,0.0499058l0.2959652,0.2346754
	c0.0035229,0.0027952,0.0079193,0.0034351,0.0115299,0.0060558l0.2096939,0.1641569l0.8880987-0.8965721l-0.3228388-0.4066639
	L13.032094,9.0860167c0.1159115-0.2008133,0.2065496-0.4145546,0.266674-0.6387491l0.4302778-0.049613
	c0.0100737-0.0011654,0.0182552-0.0065222,0.0279512-0.0086184l0.2427702-0.029582l-0.0012236-0.2573576
	C13.9986315,8.0993595,14,8.0970011,14,8.094265V7.372972z M10.6605015,9.0631847
	c-0.725069,0-1.3128681-0.5877991-1.3128681-1.3128686S9.9354324,6.437448,10.6605015,6.437448
	c0.72507,0,1.3128681,0.5877986,1.3128681,1.3128681S11.3855715,9.0631847,10.6605015,9.0631847z M8.0196772,10.9113131
	c0.0000238-0.0080576-0.0035086-0.0150747-0.0042105-0.0229635l-0.000968-0.2059641l-0.5723534-0.0657673
	c-0.0481763-0.183073-0.1204524-0.3578482-0.2122312-0.5219994l0.3612113-0.4545879l-0.739748-0.7434254L6.6751757,9.0344067
	c-0.0026855,0.0019598-0.005928,0.0024443-0.0085416,0.0045252L6.4706879,9.1943483L6.3996215,9.2499046
	C6.2270732,9.1486883,6.042717,9.0715733,5.8493109,9.0192833L5.7844148,8.4524231L5.5676832,8.45189
	C5.5638118,8.4517212,5.5604725,8.4498091,5.5565767,8.4498091H4.9567595c-0.0010161,0-0.0019116,0.0005083-0.0029278,0.0005331
	L4.7356725,8.4498091L4.7107253,8.6538134C4.7092009,8.6610489,4.7051358,8.6671219,4.7042408,8.6745987l-0.0400462,0.344491
	C4.4658284,9.0720568,4.2770443,9.1526575,4.1003098,9.2572365L3.9982231,9.1787653L3.8221421,9.039319
	c-0.005275-0.0041866-0.011663-0.0053959-0.0171556-0.0090981L3.6320996,8.8973312L3.1261423,9.4172506L3.0609798,9.4825335
	C3.0592861,9.4842272,3.0586812,9.4865017,3.0570359,9.4882441L2.9006755,9.6489353l0.262125,0.3242388l0.1098781,0.1389151
	c-0.0915611,0.1654825-0.1610062,0.3415394-0.2074158,0.5249996l-0.5959699,0.0709696l0.0004597,0.2246685
	c-0.0000241,0.0012341-0.0006533,0.0022993-0.0006533,0.0035572v0.5998173c0,0.0036297,0.0017905,0.0067263,0.0019357,0.0103321
	l0.0004356,0.210392l0.1951239,0.0229387c0.0094125,0.0022259,0.0174944,0.0073318,0.0272942,0.0084934l0.3900783,0.0451756
	c0.0491681,0.1688938,0.1173551,0.3314247,0.2041736,0.4840593l-0.2465906,0.3108091
	c-0.0018148,0.0022984-0.002202,0.0051298-0.0039201,0.0074768l-0.1376803,0.1748953l0.7431111,0.7400141l0.178283-0.1407537
	c0.0003629-0.0002899,0.0008469-0.0003386,0.0012097-0.0006294l0.3084381-0.2438078
	c0.1579576,0.0908108,0.3261986,0.1618776,0.5010939,0.212183L4.7062006,14l0.2238698-0.0004597
	C4.9309416,13.9995403,4.9316916,14,4.9325867,14h0.5998173c0.0032911,0,0.0060978-0.0016451,0.0093641-0.0017662
	l0.2131748-0.0004358l0.0242214-0.2058668c0.0011611-0.0061464,0.0046458-0.0112276,0.0053716-0.017519l0.0444012-0.3829403
	c0.1889539-0.0491199,0.3692207-0.1220493,0.5391555-0.2178688l0.0529671,0.0414734l0.2459617,0.1950274
	c0.0029278,0.0023222,0.0065818,0.0028553,0.009582,0.0050325l0.1742663,0.1364222l0.7380543-0.7450953l-0.2682958-0.3379583
	l-0.105329-0.1335669c0.0963278-0.1668863,0.1716528-0.3445158,0.2216196-0.5308323l0.3575821-0.0412312
	c0.0083718-0.000968,0.0151711-0.0054197,0.0232286-0.0071621l0.2017541-0.0245838L8.0184669,11.517252
	c0.0000725-0.0022745,0.0012102-0.0042343,0.0012102-0.0065088V10.9113131z M5.2443881,12.3159637
	c-0.6025686,0-1.0910587-0.4884901-1.0910587-1.0910587c0-0.6025696,0.4884901-1.0910587,1.0910587-1.0910587
	s1.0910587,0.4884892,1.0910587,1.0910587C6.3354468,11.8274736,5.8469572,12.3159637,5.2443881,12.3159637z"/>
</svg>
