<?xml version="1.0" encoding="utf-8"?>
<!-- Generator: Adobe Illustrator 19.1.0, SVG Export Plug-In . SVG Version: 6.00 Build 0)  -->
<svg version="1.1" id="service-provider" xmlns="http://www.w3.org/2000/svg" xmlns:xlink="http://www.w3.org/1999/xlink" x="0px"
	 y="0px" viewBox="0 0 14 14" style="enable-background:new 0 0 14 14;" xml:space="preserve">
<path d="M5.2061353,14.0177059l0.2245665-1.2010298C4.416142,12.6282005,3.4456935,12.1429758,2.660713,11.357996
	c-0.7859828-0.785984-1.2702047-1.7564316-1.4586802-2.76999L0,8.8115711
	c0.2335894,1.2481489,0.8300944,2.4431639,1.7965329,3.4096022S3.9569838,13.7851191,5.2061353,14.0177059z M5.4728084,10.8837986
	c-0.5463786-0.1012554-1.0686965-0.362916-1.4917638-0.7849808C3.5589795,9.676754,3.2973194,9.1534328,3.1950614,8.608057
	L1.9940311,8.8326235c0.1453668,0.7799683,0.5193101,1.5268526,1.1228329,2.1303759
	c0.6035228,0.6035223,1.3504069,0.9774666,2.1313775,1.1228323L5.4728084,10.8837986z M8.7938652-0.0177061L8.5692978,1.1833241
	c1.0145607,0.1884753,1.9850082,0.6736997,2.769989,1.4586802c0.7859831,0.7859836,1.2702045,1.7564313,1.4586802,2.7699893
	L14,5.1884294c-0.2335892-1.2481494-0.8300943-2.4431648-1.7965326-3.4096029S10.0430164,0.214881,8.7938652-0.0177061z
	 M8.5271912,3.1162014c0.5463791,0.1012552,1.068697,0.362916,1.4917641,0.7849805
	c0.4220657,0.4220645,0.6837254,0.9453852,0.7859831,1.4907606L12.005969,5.167376
	c-0.1453667-0.7799678-0.51931-1.5268521-1.1228333-2.1303749c-0.6035223-0.603523-1.3504066-0.9774668-2.1313772-1.122833
	L8.5271912,3.1162014z M4.0651407,5.7728019c0.0447998,0.1550765,0.1068306,0.3044095,0.1872406,0.4445529L4.0272331,6.5022359
	C3.9537153,6.5929847,3.9606078,6.7250872,4.0433154,6.810092L4.431581,7.1995063
	c0.0850048,0.0838566,0.2171068,0.0918975,0.3101535,0.017231l0.2825837-0.2228508
	c0.1458869,0.0827074,0.3009634,0.1470356,0.4606352,0.1929841l0.0436511,0.3641429
	c0.0126362,0.1171689,0.1137228,0.2056198,0.229743,0.2056198H6.309731c0.1171694,0,0.218256-0.0895996,0.229743-0.2056198
	l0.0390568-0.3515067c0.1723075-0.0459485,0.338871-0.1125741,0.4950957-0.1987276l0.2722459,0.2171073
	c0.0941949,0.0735173,0.2262969,0.0654764,0.3113022-0.0160823l0.3894143-0.3894148
	c0.0827074-0.0861535,0.0907488-0.218256,0.0183792-0.3113022l-0.212512-0.2699475
	c0.0884509-0.1527791,0.1585226-0.315897,0.2021742-0.4859066l0.327383-0.0390568
	c0.1194668-0.0126362,0.206769-0.1137228,0.206769-0.229743V4.9250498c0-0.1171689-0.0884514-0.218256-0.2056198-0.2320404
	l-0.32164-0.034462C8.0167227,4.4896865,7.9489479,4.3288665,7.8650918,4.1772361l0.1987281-0.2515686
	c0.0735178-0.0930457,0.0654764-0.2251484-0.0160818-0.3101532L7.659472,3.2283967
	c-0.0827074-0.0850048-0.2159586-0.091897-0.3113017-0.0183792L7.1034932,3.4041502
	c-0.1573739-0.0907483-0.3273835-0.1642661-0.505435-0.2113636l-0.0344615-0.315897
	C6.550961,2.7585721,6.4498744,2.6701212,6.332705,2.6701212H5.7836194c-0.1171684,0-0.218256,0.0884509-0.2320404,0.2056201
	L5.5148196,3.1904891C5.3321743,3.2398841,5.1587181,3.3134019,4.9956002,3.4110427l-0.252717-0.1987278
	C4.649837,3.138797,4.5165858,3.1468382,4.4327297,3.2283967L4.0433154,3.6166627
	c-0.0827076,0.085005-0.0907485,0.2182558-0.0160823,0.3101535l0.2125125,0.2665017
	c-0.0850053,0.1539278-0.1504822,0.315897-0.1929841,0.4847579l-0.3388712,0.040205
	c-0.1171689,0.0137849-0.2056201,0.114872-0.2056201,0.2320409v0.5490861c0,0.1171694,0.0895998,0.218256,0.2056201,0.2320409
	L4.0651407,5.7728019z M6.0570135,4.2852154c0.5019889,0,0.9097829,0.407794,0.9097829,0.9097824
	s-0.407794,0.9097824-0.9097829,0.9097824s-0.9086337-0.407794-0.9086337-0.9097824
	C5.1495285,4.6918607,5.5584712,4.2852154,6.0570135,4.2852154z M11.4950333,5.9083505l-0.2906256-0.2458253
	c-0.0895996-0.074667-0.2217016-0.0700717-0.3067074,0.0103378l-0.1596699,0.1493335
	c-0.1366978-0.0654764-0.2779903-0.1125736-0.4273233-0.1389947l-0.0447998-0.2194042
	c-0.022974-0.1160202-0.1286564-0.1941333-0.2458248-0.1837945L9.6421547,5.3098698
	c-0.1160202,0.0114875-0.206769,0.1056819-0.212513,0.2217016L9.4227505,5.7567201
	c-0.1447382,0.0528407-0.2837324,0.126359-0.4089432,0.2159581l-0.189538-0.1275077
	C8.7266283,5.7796941,8.5979729,5.799222,8.5221577,5.8876734L8.2763319,6.1794472
	C8.1993685,6.270196,8.2028141,6.4011493,8.2832241,6.4861541l0.1677132,0.1769023
	c-0.057436,0.1321025-0.097641,0.269948-0.1229134,0.4112401L8.0890913,7.1236916
	C7.9730716,7.146666,7.8949585,7.2523479,7.9052973,7.3683677l0.0321641,0.3767791
	c0.0114875,0.1160197,0.1045327,0.2067685,0.2217021,0.212512l0.2596092,0.0103383
	c0.0470982,0.1206155,0.109128,0.2400813,0.1814966,0.3492103L8.4555321,8.5343142
	c-0.0654774,0.097641-0.045949,0.2285948,0.0436506,0.3032608l0.2906256,0.2458248
	c0.0895996,0.074666,0.2205524,0.0712214,0.3055582-0.0080404l0.1906872-0.178051
	c0.1252098,0.057436,0.2561626,0.0999384,0.3917112,0.1252108l0.051693,0.2607584
	c0.022974,0.1160202,0.1286564,0.1941328,0.2446766,0.183794l0.3767786-0.0321636
	c0.1160202-0.011487,0.206769-0.1045322,0.212513-0.2217016l0.0080404-0.2538662
	c0.1389952-0.0470972,0.2687998-0.1160202,0.3894148-0.1975784l0.2090664,0.1389942
	c0.097641,0.0654774,0.2285948,0.045949,0.3032608-0.0425014l0.2458248-0.2906256
	c0.0769644-0.0895996,0.0712204-0.2217026-0.0103378-0.3067074l-0.1677141-0.1792011
	c0.0620308-0.1309538,0.1079798-0.2688003,0.1332512-0.4112406l0.229743-0.0470972
	c0.1137228-0.022974,0.1918354-0.1286559,0.1826468-0.2446761L12.0579033,6.99963
	c-0.011487-0.1160202-0.1056814-0.2067685-0.2228508-0.2102151l-0.229743-0.0080409
	c-0.0470982-0.1355486-0.1137228-0.2607584-0.1941328-0.3779273l0.1275072-0.189538
	C11.6030121,6.1162677,11.5846329,5.9841657,11.4950333,5.9083505z M10.0683289,8.096653
	c-0.4112406,0.0356102-0.7707882-0.2710967-0.804101-0.677742c-0.034461-0.4089427,0.2687998-0.7707882,0.677742-0.8052502
	c0.4089432-0.0344615,0.7707891,0.2710972,0.804101,0.6800399C10.7828293,7.7003465,10.4772711,8.062192,10.0683289,8.096653z
	 M5.390759,9.1155643c-0.1160207,0.011487-0.2056208,0.109128-0.2056208,0.2274456L5.1816921,9.5761995
	c-0.0011482,0.114872,0.0850053,0.2159576,0.2010255,0.2308912l0.1711588,0.0206766
	c0.0298667,0.1045332,0.068923,0.2033234,0.1217642,0.298667L5.5653634,10.261982
	c-0.0735178,0.0930471-0.068923,0.224,0.0137849,0.3078556l0.1631179,0.1677122
	c0.0827074,0.0827074,0.2136607,0.0930471,0.3067069,0.0206766l0.1389947-0.1056814
	c0.0964923,0.057436,0.1987276,0.1022348,0.3067074,0.1332512l0.0183792,0.1757536
	c0.0080409,0.1137228,0.1079788,0.2021732,0.2228503,0.2033224l0.2331896,0.0011492
	c0.1160197,0.0011492,0.2171073-0.0850058,0.2320404-0.201026l0.0195284-0.1677122
	c0.1160202-0.0298662,0.2262969-0.0712204,0.3331275-0.1286564l0.1275072,0.1068306
	c0.0907483,0.0735188,0.2217016,0.0666256,0.3067069-0.0126352l0.1642666-0.1642656
	c0.0850048-0.0815592,0.0930452-0.2136612,0.022974-0.3067074l-0.0999384-0.1275072
	c0.0608816-0.1010876,0.1079788-0.2090664,0.1401434-0.3227892l0.1527786-0.0149336
	c0.1171694-0.0126362,0.206769-0.1102772,0.206769-0.2262974l0.0034466-0.2331896
	c0.0011482-0.1171684-0.086154-0.2171068-0.201026-0.2297421L8.2292347,9.1155643
	C8.1993685,9.0029907,8.1568661,8.8938618,8.1017275,8.7927752L8.1947727,8.676755
	c0.074667-0.0907488,0.068923-0.2217016-0.0126362-0.3067074L8.0190201,8.2057819
	C7.9374614,8.1230736,7.8053589,8.1127357,7.7123127,8.1851044L7.6008873,8.2701092
	c-0.1033845-0.0620308-0.218256-0.1125736-0.3342762-0.1458864L7.2505293,7.9806333
	c-0.0114875-0.1171694-0.109128-0.2067685-0.2262969-0.2067685L6.7910428,7.7704182
	C6.6750226,7.7692695,6.5739355,7.855423,6.5612998,7.9714437L6.5429201,8.1150331
	c-0.1217637,0.0321636-0.2400813,0.08041-0.3492093,0.1412916L6.079988,8.1621304
	c-0.0907483-0.0735178-0.2228513-0.068923-0.3078561,0.0149336L5.6067171,8.3413296
	C5.5217123,8.4217396,5.5125227,8.5538425,5.58604,8.648037l0.097641,0.1275082
	c-0.057436,0.1010866-0.1010871,0.2090664-0.132102,0.32164L5.390759,9.1155643z M6.895576,8.8536577
	c0.3342762,0.0045938,0.603076,0.2779884,0.5984807,0.6122646c-0.0057435,0.333128-0.2791376,0.6019278-0.6134138,0.5984812
	c-0.3342762-0.0022974-0.603076-0.2779884-0.5984807-0.6122656C6.2856078,9.1178617,6.5612998,8.8479137,6.895576,8.8536577z"/>
</svg>
