<?xml version="1.0" encoding="utf-8"?>
<!-- Generator: Adobe Illustrator 19.1.0, SVG Export Plug-In . SVG Version: 6.00 Build 0)  -->
<svg version="1.1" id="settings" xmlns="http://www.w3.org/2000/svg" xmlns:xlink="http://www.w3.org/1999/xlink" x="0px" y="0px"
	 viewBox="0 0 14 14" style="enable-background:new 0 0 14 14;" xml:space="preserve">
<g id="UVSeHD.tif">
	<g>
		<path d="M6.9445095,14c-0.2183256-0.0300388-0.463511-0.0495281-0.702054-0.1002169
			c-0.2955723-0.062808-0.4453311-0.2684565-0.4742122-0.5648355c-0.0228095-0.2340708-0.0473709-0.4680243-0.0656319-0.7024593
			c-0.0093002-0.1193886-0.0608826-0.1751814-0.1797328-0.220314c-0.4383888-0.1664715-0.8736057-0.3432531-1.3001213-0.5378113
			c-0.1342969-0.0612621-0.2206082-0.0500355-0.3226533,0.0371885c-0.1636193,0.1398506-0.3309469,0.275424-0.4982405,0.4109154
			c-0.2633481,0.2132874-0.5026388,0.2420673-0.7888818,0.0627766c-0.4126282-0.2584543-0.7531315-0.5986414-1.0175574-1.0065336
			c-0.1864787-0.287653-0.1606363-0.5138397,0.0574363-0.7858667c0.144024-0.1796579,0.2895795-0.3583269,0.4409972-0.5317316
			c0.0766103-0.0877352,0.0906751-0.1650028,0.0291836-0.2689247c-0.2458804-0.4155388-0.4293715-0.8590212-0.55048-1.3256245
			C1.5392605,8.3382626,1.4678367,8.2942085,1.3546375,8.2826357c-0.2190961-0.0224018-0.4382087-0.045186-0.6577052-0.0630054
			c-0.3345831-0.0271616-0.5299881-0.1731138-0.609578-0.5013247c-0.1160386-0.4785199-0.1138285-0.9642501-0.0090725-1.4437332
			c0.072335-0.3310881,0.2479109-0.4738789,0.5824007-0.5143323C0.8941952,5.7319989,1.1287757,5.7101865,1.363503,5.6953549
			c0.1179359-0.007452,0.177218-0.0535769,0.2084928-0.1703768c0.1234164-0.4609127,0.3007128-0.9015584,0.5463858-1.3112574
			C2.1883092,4.097105,2.1717408,4.0103416,2.0931478,3.9156027c-0.143828-0.1733751-0.2875712-0.3468926-0.4276655-0.5232723
			c-0.2125994-0.2676635-0.2371037-0.500001-0.0550247-0.7883916c0.2598423-0.4115584,0.6005393-0.7510092,1.0096973-1.0141221
			c0.2720673-0.1749556,0.508568-0.15171,0.7632689,0.0487175c0.1809659,0.1424044,0.3618104,0.2858285,0.5325439,0.4400333
			C4.0230184,2.1752541,4.110981,2.169008,4.2387724,2.1121562C4.6580911,1.9256109,5.082922,1.7504947,5.5114989,1.586265
			C5.6321931,1.5400152,5.6941051,1.4844048,5.703505,1.3562835c0.0172033-0.2344935,0.042026-0.4684656,0.06599-0.7024181
			c0.0313244-0.3058219,0.1758256-0.4985629,0.4734349-0.567633c0.499114-0.1158359,1.0041933-0.1154989,1.5036159,0.004211
			c0.30618,0.0733904,0.4545155,0.2900175,0.4838848,0.5958259C8.2509947,0.9003873,8.276844,1.1141242,8.2915745,1.3286316
			c0.0097189,0.141542,0.0664291,0.2142218,0.2091198,0.2670026c0.4163361,0.1540014,0.8273954,0.3241266,1.232172,0.5064442
			c0.1476126,0.0664871,0.250701,0.0762014,0.3749857-0.0408092c0.16364-0.1540625,0.3453617-0.2890993,0.5207758-0.4304992
			c0.2336369-0.1883321,0.486867-0.2115612,0.7382793-0.0510846c0.4277325,0.2730231,0.7817755,0.6252358,1.0468407,1.0589821
			c0.1557302,0.2548356,0.1261978,0.5065434-0.062335,0.7380626c-0.1422415,0.1746716-0.2838221,0.3499556-0.4297132,0.5215573
			c-0.0946779,0.1113632-0.10429,0.2090299-0.0372066,0.3516605c0.1824274,0.3878689,0.3470631,0.784842,0.5012121,1.1849518
			c0.0900831,0.2338181,0.0873137,0.2433949,0.3316708,0.2626839c0.2343216,0.0184965,0.468173,0.0461683,0.7011232,0.0779209
			c0.2618904,0.0356979,0.4335642,0.192739,0.4917545,0.4434142c0.1192913,0.5138884,0.1231585,1.0327387-0.0094719,1.5453911
			c-0.0738964,0.2856369-0.2819862,0.4252148-0.570282,0.4525852c-0.2242785,0.0212927-0.4486322,0.0417976-0.6728468,0.0637398
			c-0.1311789,0.0128365-0.2028008,0.0729637-0.2532988,0.2095737c-0.1555414,0.4207859-0.3274269,0.8362684-0.5120535,1.2452068
			c-0.0657463,0.1456242-0.0639267,0.243,0.0454893,0.3612251c0.1561565,0.1687269,0.2968798,0.352046,0.4396753,0.5326986
			c0.177577,0.2246542,0.201498,0.4701061,0.0498981,0.7123566c-0.2720881,0.4347868-0.6281347,0.7918568-1.0668077,1.0591116
			c-0.2541552,0.1548386-0.5066404,0.1281443-0.7387199-0.0613794c-0.1783857-0.1456766-0.357748-0.2902021-0.5340929-0.4383078
			c-0.0988379-0.0830107-0.185461-0.0903282-0.3120251-0.0329609c-0.4179239,0.1894283-0.8415518,0.3680935-1.2713079,0.5286732
			c-0.1479912,0.0552979-0.2066298,0.1288872-0.2151423,0.277339c-0.0117331,0.2045956-0.0360193,0.4085884-0.0587788,0.6124096
			c-0.0423079,0.3788729-0.2086964,0.5677319-0.5868616,0.6359186C7.4228015,13.9623175,7.196732,13.9731092,6.9445095,14z
			 M6.9996696,10.0706863c1.698894,0.0011845,3.0752501-1.3721638,3.0818019-3.0750694
			c0.0065374-1.6991119-1.3650761-3.0764468-3.0697708-3.0825758c-1.707818-0.00614-3.0934253,1.3732157-3.0919347,3.0779843
			C3.9212494,8.6881037,5.3027563,10.0695019,6.9996696,10.0706863z"/>
	</g>
</g>
</svg>
