<?xml version="1.0" encoding="utf-8"?>

<!--
 * Copyright (c) 2015, WSO2 Inc. (http://www.wso2.org) All Rights Reserved.
 *
 * WSO2 Inc. licenses this file to you under the Apache License,
 * Version 2.0 (the "License"); you may not use this file except
 * in compliance with the License.
 * You may obtain a copy of the License at
 *
 * http://www.apache.org/licenses/LICENSE-2.0
 *
 * Unless required by applicable law or agreed to in writing,
 * software distributed under the License is distributed on an
 * "AS IS" BASIS, WITHOUT WARRANTIES OR CONDITIONS OF ANY
 * KIND, either express or implied. See the License for the
 * specific language governing permissions and limitations
 * under the License.
-->

<svg version="1.1" id="signal" xmlns="http://www.w3.org/2000/svg" xmlns:xlink="http://www.w3.org/1999/xlink" x="0px" y="0px"
	 viewBox="0 0 14 14" style="enable-background:new 0 0 14 14;" xml:space="preserve">
<path d="M4.7831,5.38076c-0.07198,0-0.14317-0.03197-0.19073-0.09293C4.1627,4.73784,3.93574,4.0776,3.93574,3.37814
	c0-0.74923,0.27059-1.47279,0.76183-2.03727c0.08757-0.10064,0.2405-0.11151,0.3413-0.02378s0.11151,0.2405,0.02378,0.3413
	c-0.4147,0.47644-0.64308,1.08723-0.64308,1.71975c0,0.59047,0.19152,1.14787,0.55393,1.61171
	C5.05589,5.09521,5.03715,5.2472,4.93193,5.32942C4.88768,5.36407,4.83523,5.38076,4.7831,5.38076z M4.12143,5.96352
	c0.10521-0.08222,0.12395-0.2342,0.04158-0.33957C3.66263,4.98339,3.39803,4.21384,3.39803,3.39861
	c0-0.87318,0.31532-1.71644,0.88799-2.37448c0.08773-0.1008,0.07702-0.25358-0.02378-0.3413
	C4.16128,0.5951,4.00866,0.60597,3.92094,0.70661C3.27172,1.45269,2.91419,2.40872,2.91419,3.39861
	c0,0.92422,0.30004,1.79677,0.86767,2.52332C3.82959,5.98289,3.90062,6.01486,3.9726,6.01486
	C4.02473,6.01486,4.07718,5.99817,4.12143,5.96352z M3.33078,6.58738c0.10537-0.08222,0.12411-0.23436,0.0419-0.33957
	C2.73653,5.43305,2.40026,4.45482,2.40026,3.41893c0-1.11022,0.40084-2.18202,1.12865-3.01835
	c0.08773-0.1008,0.07702-0.25358-0.02378-0.3413c-0.1008-0.08757-0.25342-0.07686-0.3413,0.02378
	C2.35947,1.00728,1.91642,2.192,1.91642,3.41893c0,1.14487,0.3717,2.22612,1.07479,3.12655
	C3.03893,6.60659,3.11012,6.63857,3.1821,6.63857C3.23423,6.63857,3.28668,6.62187,3.33078,6.58738z M9.48954,5.28689
	c0.42887-0.54984,0.65552-1.20961,0.65552-1.90828c0-0.74923-0.27059-1.47263-0.76199-2.03712
	c-0.08757-0.10033-0.2405-0.11135-0.3413-0.02347c-0.10064,0.08773-0.11135,0.2405-0.02347,0.3413
	c0.41454,0.47628,0.64292,1.08676,0.64292,1.71928c0,0.58968-0.19121,1.14676-0.55314,1.6106
	C9.02586,5.09458,9.0446,5.24657,9.14997,5.32879c0.04426,0.03449,0.09671,0.05119,0.14868,0.05119
	C9.37062,5.37998,9.44182,5.348,9.48954,5.28689z M10.2531,5.92083c0.56669-0.72639,0.8661-1.59832,0.8661-2.52143
	c0-0.98974-0.35737-1.94577-1.00643-2.69185c-0.08773-0.10064-0.24019-0.11167-0.3413-0.02378
	c-0.1008,0.08773-0.11151,0.2405-0.02378,0.3413c0.57236,0.65804,0.88768,1.5013,0.88768,2.37433
	c0,0.81428-0.26413,1.58336-0.76372,2.22376C9.78942,5.72853,9.80816,5.88051,9.91353,5.96273
	c0.04426,0.03449,0.09671,0.05119,0.14868,0.05119C10.13419,6.01392,10.20538,5.98194,10.2531,5.92083z M11.01037,6.54422
	c0.70214-0.90012,1.07321-1.98057,1.07321-3.1245c0-1.22677-0.44289-2.41134-1.24725-3.3354
	c-0.08757-0.1008-0.2405-0.11167-0.3413-0.02378c-0.1008,0.08773-0.11151,0.2405-0.02378,0.3413
	c0.72781,0.83617,1.12849,1.90797,1.12849,3.01787c0,1.0351-0.33579,2.01255-0.97084,2.82683
	c-0.08222,0.10537-0.06347,0.25736,0.04189,0.33957c0.04426,0.03449,0.09671,0.05119,0.14868,0.05119
	C10.89145,6.63731,10.96264,6.60533,11.01037,6.54422z M8.04163,3.31919c0-0.56413-0.4573-1.02145-1.02143-1.02145
	S5.99874,2.75507,5.99874,3.31919c0,0.49512,0.35239,0.90752,0.81999,1.00111v1.16058h0.40291V4.32033
	C7.68922,4.22673,8.04163,3.81432,8.04163,3.31919z M9.51064,14h1.19149L7.75545,5.36486H6.41024L3.47647,14h1.15306
	l1.97286-6.08552c0.16664-0.52527,0.3076-1.05053,0.43565-1.56304h0.02567c0.12805,0.49959,0.25625,1.0121,0.4484,1.5758L9.51064,14
	z"/>
</svg>
