<?xml version="1.0" encoding="utf-8"?>

<!--
 * Copyright (c) 2015, WSO2 Inc. (http://www.wso2.org) All Rights Reserved.
 *
 * WSO2 Inc. licenses this file to you under the Apache License,
 * Version 2.0 (the "License"); you may not use this file except
 * in compliance with the License.
 * You may obtain a copy of the License at
 *
 * http://www.apache.org/licenses/LICENSE-2.0
 *
 * Unless required by applicable law or agreed to in writing,
 * software distributed under the License is distributed on an
 * "AS IS" BASIS, WITHOUT WARRANTIES OR CONDITIONS OF ANY
 * KIND, either express or implied. See the License for the
 * specific language governing permissions and limitations
 * under the License.
-->

<svg version="1.1" id="sign-up" xmlns="http://www.w3.org/2000/svg" xmlns:xlink="http://www.w3.org/1999/xlink" x="0px" y="0px"
	 viewBox="0 0 14 14" style="enable-background:new 0 0 14 14;" xml:space="preserve">
<path d="M14,7c0,0.1333008-0.0066528,0.2666016-0.0066528,0.3999634c-0.0133667,0.2000122-0.0333252,0.3933716-0.0599976,0.5866699
	c-0.0133667,0.0733032-0.0266724,0.1466675-0.0333862,0.2133179c-0.0133057,0.0800171-0.0333252,0.1533203-0.0466309,0.2266846
	c-0.0266724,0.1333008-0.0599976,0.2666626-0.0933228,0.3933105c-0.0266724,0.1000366-0.0533447,0.1933594-0.0866699,0.2866821
	c-0.0667114,0.2266846-0.1466675,0.4400024-0.2399902,0.6533813c-0.0466919,0.1132812-0.0933228,0.2199707-0.1533813,0.3199463
	c-0.6799316,1.4000244-1.8132935,2.5333252-3.2133179,3.206665c-0.1066284,0.0599976-0.2133179,0.1066895-0.3266602,0.1466675
	l0.0066528,0.0066528c-0.0066528,0.0067139-0.0199585,0.0067139-0.0266113,0.0067139
	c-0.3133545,0.1333008-0.6400146,0.2466431-0.9733887,0.333313c-0.1932983,0.0466919-0.3933105,0.0933228-0.5999756,0.1266479
	c-0.0400391,0.0067139-0.0800171,0.0133667-0.1199951,0.0200195c-0.2199707,0.0333252-0.4400024,0.0533447-0.666687,0.0666504
	C7.2399902,14,7.1199951,14,7,14c-3.8666382,0-7-3.1333618-7-7c0-3.8666992,3.1333618-7,7-7
	c0.1333618,0,0.2666626,0.0066528,0.3933716,0.0066528C7.5933228,0.0199585,7.793335,0.039978,7.9866333,0.0666504
	c0.0733643,0.0133057,0.1400146,0.0266724,0.2133789,0.0333252c0.0799561,0.0133057,0.1533203,0.0333252,0.2266846,0.0466309
	c0.1333008,0.0267334,0.2600098,0.0533447,0.3865967,0.0933838c0.1000366,0.0266113,0.2000732,0.0533447,0.293335,0.0866699
	C9.206665,0.3532715,9.3067017,0.3865967,9.4066772,0.4266357C9.460022,0.4466553,9.5133667,0.4666748,9.5599976,0.4866333
	c0.0533447,0.0200195,0.1066895,0.039978,0.1600342,0.0666504c0.0199585,0.0066528,0.0333252,0.0066528,0.039978,0.0133667
	c0.1133423,0.0466309,0.2199707,0.0933228,0.3200073,0.1533203L9.0606728,1.7326009L8.9466553,1.6799316
	C8.8999634,1.6599731,8.8533325,1.6466064,8.8067017,1.6333008c-0.1066895-0.039978-0.2133789-0.0733643-0.3267212-0.0999756
	C8.4466553,1.5199585,8.4066772,1.5066528,8.3666382,1.5C8.2466431,1.4666748,8.1199951,1.4466553,8,1.4266357
	C7.9533081,1.4133301,7.9066772,1.4066162,7.8599854,1.3999634C7.7333374,1.3800049,7.6066284,1.3666382,7.4799805,1.3532715
	C7.3200073,1.3399658,7.1599731,1.333313,7,1.333313C3.8733521,1.333313,1.333374,3.873291,1.333374,7
	c0,3.1266479,2.539978,5.666626,5.666626,5.666626c0.1599731,0,0.3200073-0.0066528,0.4799805-0.0200195
	c0.1266479-0.0133057,0.2533569-0.0266113,0.3800049-0.0466309c0.0333862-0.0066528,0.0733643-0.0066528,0.1066895-0.0200195
	c0.1533203-0.0200195,0.2999878-0.0533447,0.4400024-0.0933228c0.0066528,0,0.0066528,0,0.0066528,0
	c0.1333618-0.0333252,0.2666626-0.0733032,0.3933716-0.1199951c0.0199585,0,0.0333252-0.0066528,0.0532837-0.0133667
	c1.6066895-0.5599365,2.8800049-1.8132935,3.460022-3.4066162l0.0266724-0.0666504
	c0.0066528-0.0267334,0.0199585-0.0466919,0.0199585-0.0733643c0.0400391-0.1066895,0.0733643-0.2133179,0.1000366-0.3266602
	C12.4799805,8.4399414,12.4933472,8.4066162,12.5,8.3666382C12.5266724,8.2466431,12.5533447,8.1266479,12.5800171,8
	c0.0066528-0.0466919,0.0133057-0.0933838,0.0200195-0.1400146c0.0199585-0.126709,0.0333252-0.2533569,0.0466309-0.3800049
	C12.6599731,7.3199463,12.666687,7.1599731,12.666687,7c0-0.1600342-0.0067139-0.3200684-0.0200195-0.4800415
	c-0.0133057-0.1266479-0.0266724-0.2533569-0.0466309-0.3800049c-0.0067139-0.039978-0.0067139-0.0733032-0.0200195-0.1066284
	c-0.0200195-0.1467285-0.0533447-0.3000488-0.0933838-0.4400024V5.5866699
	c-0.0333252-0.1333618-0.0733032-0.2667236-0.1199951-0.3933716c0-0.0199585-0.0066528-0.039978-0.0133057-0.0533447
	l-0.0333252-0.0866699l-0.0333252-0.1133423l1-1.0066528c0.0599976,0.1066895,0.1066895,0.2133179,0.1466675,0.3267212
	l0.0066528-0.0067139c0.0066528,0.0067139,0.0066528,0.0200195,0.0066528,0.0266724
	c0.1333618,0.3067017,0.2466431,0.6266479,0.3266602,0.960022c0,0,0.0066528,0.0066528,0.0066528,0.0133057
	c0.0200195,0.0866699,0.0400391,0.1733398,0.0600586,0.2600098c0.0066528,0.0133057,0.0066528,0.0266724,0.0066528,0.0333252
	c0.0266724,0.1066895,0.0466919,0.2133789,0.0599976,0.3200073c0.0066528,0.0333252,0.0133057,0.0733032,0.0200195,0.1066284
	c0.0333252,0.2200317,0.0532837,0.4400635,0.0666504,0.666687C14,6.7600098,14,6.8800049,14,7z M12.8273315,3.4530029
	c0,0,0.1300049-0.1306152,0.1298218-0.1306152c0.2579346-0.2611084,0.8499756-0.8425903,0.8919067-0.880127
	c0.1934204-0.2177124,0.2040405-0.4472656-0.0079346-0.6591797c-0.5648804-0.4943848-1.1299438-1.0592651-1.6243286-1.6243286
	c-0.211731-0.211731-0.4545288-0.1812744-0.6664429,0.0306396c-0.0060425,0.0060425-0.993103,0.9935303-0.993103,0.9935303
	C11.3342285,1.9597778,12.0505371,2.6760254,12.8273315,3.4530029z M4.942688,6.7973022l0.0001831,0.0001831
	c0.7062988,0.7062988,1.4829102,1.4829102,2.2597046,2.2597046c0.7113037-0.7112427,3.8009033-3.7623291,4.6347656-4.6141968
	c0,0,0.5696411-0.5862427,0.6621094-0.6824341c-0.7062988-0.7062988-1.4830933-1.4830933-2.2598877-2.2599487
	C10.239563,1.5006104,6.6146851,5.1252441,4.942688,6.7973022z M4.0953369,9.7634888c0,0-0.0706787,0.1412354,0.1412354,0.1412354
	c0.84729-0.1412354,1.765564-0.2824097,2.612854-0.423645C6.0726318,8.7040405,5.2958374,7.9272461,4.519043,7.1504517
	C4.3778076,7.9979858,4.2365723,8.845459,4.0953369,9.7634888z"/>
</svg>
