<?xml version="1.0" encoding="utf-8"?>
<!-- Generator: Adobe Illustrator 19.1.0, SVG Export Plug-In . SVG Version: 6.00 Build 0)  -->
<svg version="1.1" id="signal" xmlns="http://www.w3.org/2000/svg" xmlns:xlink="http://www.w3.org/1999/xlink" x="0px" y="0px"
	 viewBox="0 0 14 14" style="enable-background:new 0 0 14 14;" xml:space="preserve">
<path d="M4.2849307,5.9894762c0.0539246,0.0689955,0.1345344,0.1052213,0.216043,0.1052213
	c0.0590401,0,0.118495-0.0188732,0.1686168-0.0581412c0.1191864-0.093123,0.1404104-0.2652655,0.04708-0.3846593
	C4.3061547,5.1265502,4.0892138,4.495153,4.0892138,3.8263543c0-0.7164316,0.258698-1.408252,0.7283916-1.947909
	C4.9170198,1.7642366,4.9048519,1.5911951,4.7907124,1.49185C4.6765037,1.392505,4.503324,1.4048108,4.4041171,1.5188122
	C3.8477299,2.15816,3.5411913,2.9777391,3.5411913,3.8263543C3.5411913,4.6186256,3.7982993,5.3665133,4.2849307,5.9894762z
	 M7.1834903,6.0784144l0.0285635-1.1831532c0.5296326-0.106051,0.9002471-0.5731177,0.9002471-1.1339986
	c0-0.6389329-0.4893861-1.1569512-1.1283879-1.1569512S5.8268924,3.1223297,5.8268924,3.7612627
	c0,0.5608118,0.3991776,1.0279477,0.9288106,1.1339986L6.7271395,6.0784144H6.2644281L3.0209608,14h1.3060727
	c0,0,2.5034609-6.2235947,2.6485028-6.8041096H7.004642C7.149684,7.7617488,9.8557873,14,9.8557873,14h1.3496265
	L7.7881331,6.0784144H7.1834903z M12.7356615,3.8036315 M3.3669055,6.7077055
	C3.4209681,6.776701,3.5014396,6.8129268,3.5829482,6.8129268c0.0590401,0,0.118495-0.0188732,0.1686168-0.0581412
	c0.1191173-0.093123,0.1403413-0.2652659,0.04708-0.3845906C3.2318876,5.6446376,2.9321241,4.7729321,2.9321241,3.8495831
	c0-0.9890947,0.3572135-1.9442449,1.005825-2.6895745c0.0994143-0.1141396,0.0872469-0.2872502-0.0268929-0.3865952
	C3.7966402,0.6740685,3.623806,0.6863741,3.524461,0.8003756C2.7890866,1.645465,2.3841019,2.7283049,2.3841019,3.8495831
	C2.3841019,4.8964047,2.7239628,5.8847389,3.3669055,6.7077055z M1.8019968,3.8726046
	c0-1.2575405,0.4540006-2.4715962,1.2784189-3.418865c0.099345-0.1142087,0.0872467-0.2872502-0.026962-0.3865953
	C2.9393141-0.0320624,2.7664108-0.019895,2.6668584,0.0941064c-0.9110429,1.0468214-1.4128839,2.388705-1.4128839,3.7784982
	c0,1.2967393,0.4210237,2.5214417,1.217374,3.5413702c0.0540626,0.0692024,0.1346724,0.1054287,0.2162499,0.1054287
	c0.0590401,0,0.1184258-0.0189428,0.1684096-0.0580034c0.1193247-0.093123,0.1405487-0.2654037,0.0474257-0.3845901
	C2.1828539,6.153945,1.8019968,5.0459404,1.8019968,3.8726046z M10.4588089,3.8263543
	c0-0.8486152-0.3065386-1.6681943-0.8629265-2.3075421C9.4966755,1.4048108,9.3234959,1.392505,9.2092876,1.49185
	C9.0951481,1.5911951,9.0829802,1.7642366,9.182395,1.8784453c0.4696932,0.539657,0.7283916,1.2314774,0.7283916,1.947909
	c0,0.6687987-0.2169418,1.3001959-0.6274567,1.8255427C9.1899996,5.7712908,9.2112236,5.9434333,9.33041,6.0365562
	c0.0501213,0.039268,0.1095762,0.0581412,0.1686163,0.0581412c0.0815086,0,0.1621189-0.0362258,0.2160425-0.1052213
	C10.2017002,5.3665133,10.4588089,4.6186256,10.4588089,3.8263543z M11.6158981,3.8495831
	c0-1.1212783-0.4049845-2.2041183-1.1403589-3.0492077c-0.0993452-0.1140015-0.2721796-0.1263071-0.3865957-0.0269622
	c-0.1141396,0.099345-0.1263065,0.2724557-0.0268927,0.3865952c0.648612,0.7453296,1.005825,1.7004797,1.005825,2.6895745
	c0,0.9233489-0.2997637,1.7950544-0.8665209,2.5206118c-0.0932617,0.1193247-0.0720377,0.2914677,0.04708,0.3845906
	c0.0501223,0.039268,0.1095772,0.0581412,0.1686172,0.0581412c0.0815086,0,0.1619797-0.0362258,0.2160425-0.1052213
	C11.2760372,5.8847389,11.6158981,4.8964047,11.6158981,3.8495831z M11.0965662,7.0768099
	C11.0034437,7.1959963,11.0246677,7.3682771,11.1439924,7.4614c0.049983,0.0390606,0.1093693,0.0580034,0.1684093,0.0580034
	c0.0815773,0,0.1621876-0.0362263,0.2162495-0.1054287c0.7963505-1.0199285,1.2173738-2.2446308,1.2173738-3.5413702
	c0-1.3897932-0.5018406-2.7316768-1.4128838-3.7784982c-0.0995522-0.1140014-0.2724552-0.1261688-0.3865948-0.0269621
	c-0.1142092,0.0993451-0.1263075,0.2723866-0.0269623,0.3865953c0.8244181,0.9472689,1.2784185,2.1613245,1.2784185,3.418865
	C12.1980028,5.0459404,11.8171463,6.153945,11.0965662,7.0768099z"/>
</svg>
