<?xml version="1.0" encoding="utf-8"?>

<!--
 * Copyright (c) 2015, WSO2 Inc. (http://www.wso2.org) All Rights Reserved.
 *
 * WSO2 Inc. licenses this file to you under the Apache License,
 * Version 2.0 (the "License"); you may not use this file except
 * in compliance with the License.
 * You may obtain a copy of the License at
 *
 * http://www.apache.org/licenses/LICENSE-2.0
 *
 * Unless required by applicable law or agreed to in writing,
 * software distributed under the License is distributed on an
 * "AS IS" BASIS, WITHOUT WARRANTIES OR CONDITIONS OF ANY
 * KIND, either express or implied. See the License for the
 * specific language governing permissions and limitations
 * under the License.
-->

<svg version="1.1" id="soap" xmlns="http://www.w3.org/2000/svg" xmlns:xlink="http://www.w3.org/1999/xlink" x="0px" y="0px"
	 viewBox="0 0 14 14" style="enable-background:new 0 0 14 14;" xml:space="preserve">
<path d="M10.1,11.3l-1-0.5v-0.4l1.5,0.7v0.4l0,0l-1.4,0.7v-0.5l0,0L10.1,11.3z M10.7,7.2c0.1,0,0.1-0.1,0.1-0.1
	c0-0.1,0.1-0.1,0.1-0.2c0-0.1,0-0.1-0.1-0.2c-0.1-0.1-0.1-0.1-0.2-0.1c-0.1,0-0.2,0-0.3,0h-0.2v0.6h0.2C10.5,7.3,10.6,7.3,10.7,7.2z
	 M8,7.6h0.6L8.3,6.8L8,7.6z M8.6,9.9L8,12.3h0.4L9,9.9H8.6z M7.8,12.2v-0.5l-1-0.5l1-0.4l0,0v-0.4l-1.5,0.7l0,0v0.3L7.8,12.2z
	 M5.4,7.4c0,0.2,0.1,0.4,0.2,0.6C5.7,8.1,5.8,8.1,6,8.1c0.2,0,0.3-0.1,0.4-0.2c0.1-0.1,0.2-0.3,0.2-0.6s0-0.4-0.2-0.6
	C6.3,6.7,6.2,6.6,6,6.6S5.7,6.7,5.6,6.8C5.5,6.9,5.4,7.1,5.4,7.4z M9.6,8.5V6.3h0.7c0.3,0,0.4,0,0.5,0c0.1,0,0.2,0.1,0.3,0.2
	c0.1,0.1,0.1,0.2,0.1,0.4c0,0.1,0,0.2-0.1,0.3c0,0.1-0.1,0.2-0.2,0.2c-0.1,0-0.2,0.1-0.2,0.1c-0.1,0-0.3,0-0.5,0h-0.3v0.8H9.6z
	 M8.5,6.3l0.9,2.2H8.9L8.7,8H7.8L7.7,8.5H7.2l0.9-2.2H8.5z M5.3,6.5c0.1-0.1,0.2-0.2,0.3-0.2C5.7,6.3,5.8,6.2,6,6.2
	c0.3,0,0.6,0.1,0.8,0.3C7,6.8,7.1,7,7.1,7.4C7.1,7.7,7,8,6.8,8.2S6.3,8.5,6,8.5c-0.3,0-0.6-0.1-0.8-0.3C5.1,8,5,7.7,5,7.4
	C5,7.2,5,7,5.1,6.8C5.1,6.7,5.2,6.6,5.3,6.5z M10.9,12.8H3.1V9.5h7.7V12.8z M3.1,1.2h5.1v2.6h2.6v1.4H3.1V1.2z M3.8,8.1
	c0.1,0,0.3,0,0.3-0.1C4.2,8,4.2,7.9,4.2,7.8c0,0,0-0.1,0-0.1c0,0-0.1-0.1-0.2-0.1C4,7.6,3.9,7.6,3.7,7.5C3.4,7.4,3.3,7.4,3.2,7.3
	C3,7.2,3,7,3,6.8c0-0.1,0-0.2,0.1-0.3c0.1-0.1,0.2-0.2,0.3-0.2c0.1-0.1,0.3-0.1,0.4-0.1c0.3,0,0.5,0.1,0.6,0.2
	c0.1,0.1,0.2,0.3,0.2,0.5l-0.4,0c0-0.1-0.1-0.2-0.1-0.2C4,6.6,3.9,6.6,3.8,6.6c-0.1,0-0.2,0-0.3,0.1c0,0-0.1,0.1-0.1,0.1
	c0,0.1,0,0.1,0.1,0.1C3.5,7,3.7,7.1,3.9,7.1c0.2,0.1,0.4,0.1,0.5,0.2c0.1,0.1,0.2,0.1,0.2,0.2c0,0.1,0.1,0.2,0.1,0.3
	c0,0.1,0,0.2-0.1,0.4C4.5,8.3,4.4,8.4,4.3,8.4C4.2,8.5,4,8.5,3.8,8.5c-0.3,0-0.5-0.1-0.6-0.2C3,8.2,2.9,8,2.9,7.8l0.4,0
	C3.3,7.9,3.4,8,3.5,8C3.6,8.1,3.7,8.1,3.8,8.1z M12.1,9.5h1V5.2h-1v-2L8.6,0H1.9v5.2H1v4.3h0.9V14h10.1V9.5z"/>
</svg>
