<?xml version="1.0" encoding="utf-8"?>

<!--
 * Copyright (c) 2015, WSO2 Inc. (http://www.wso2.org) All Rights Reserved.
 *
 * WSO2 Inc. licenses this file to you under the Apache License,
 * Version 2.0 (the "License"); you may not use this file except
 * in compliance with the License.
 * You may obtain a copy of the License at
 *
 * http://www.apache.org/licenses/LICENSE-2.0
 *
 * Unless required by applicable law or agreed to in writing,
 * software distributed under the License is distributed on an
 * "AS IS" BASIS, WITHOUT WARRANTIES OR CONDITIONS OF ANY
 * KIND, either express or implied. See the License for the
 * specific language governing permissions and limitations
 * under the License.
-->

<svg version="1.1" id="soap" xmlns="http://www.w3.org/2000/svg" xmlns:xlink="http://www.w3.org/1999/xlink" x="0px" y="0px"
	 viewBox="0 0 14 14" style="enable-background:new 0 0 14 14;" xml:space="preserve">
<path d="M0,5.2098022l4.7845201,2.2099981V6.3655071l-3.6205943-1.574132V4.7721896l3.6205943-1.5814414v-1.055208L0,4.3555875
	V5.2098022z M5.5126595,7.8172154h1.0049601L8.646306,0.6043469H7.6422596L5.5126595,7.8172154z M9.2145653,2.1355402v1.055208
	l3.7019053,1.58144v0.0191855L9.2145653,6.3737283v1.046072l4.7854328-2.1789351V4.3245244L9.2145653,2.1355402z
	 M8.325633,9.8837767H8.3128424c-0.0374575,0.1671896-0.0840502,0.3818836-0.1260767,0.5445061l-0.1717567,0.600234h0.6249027
	l-0.1763258-0.600234C8.4179068,10.2610931,8.366745,10.0473118,8.325633,9.8837767z M10.9175148,9.870986
	c-0.1297312,0-0.2183504,0.0082235-0.2640295,0.0200987v0.8341169c0.0548153,0.0127897,0.1215076,0.0173578,0.2137814,0.0173578
	c0.339859,0,0.5490732-0.1717567,0.5490732-0.4577131C11.4163399,10.0262985,11.240016,9.870986,10.9175148,9.870986z
	 M5.5903168,9.8664188c-0.4403553,0-0.6870279,0.4275656-0.6870279,0.9556246c0,0.532629,0.2558088,0.9483166,0.683372,0.9483166
	h0.003654c0.4321322,0,0.6797175-0.4065514,0.6797175-0.9611063C6.2709475,10.3031187,6.0315852,9.8664188,5.5903168,9.8664188z
	 M13.4134693,8.2310753H0.586531C0.2622037,8.2310753,0,8.4932785,0,8.817606v3.9915161
	c0,0.3243275,0.2622037,0.5865307,0.586531,0.5865307h12.8269386C13.7368832,13.3956528,14,13.1334496,14,12.8091221V8.817606
	C14,8.4932785,13.7377968,8.2310753,13.4134693,8.2310753z M2.7892206,12.2783213
	c-0.3225012,0-0.6413465-0.0877066-0.8012275-0.1763258L2.1177244,11.57759
	c0.1681023,0.0886192,0.4357862,0.1763258,0.7080393,0.1763258c0.2941794,0,0.4485767-0.1215086,0.4485767-0.3106241
	c0-0.1717567-0.1342986-0.2759066-0.4732444-0.3946743c-0.4695899-0.1671886-0.7802141-0.4275646-0.7802141-0.8423395
	c0-0.4823799,0.4065516-0.8478203,1.0689116-0.8478203c0.3234143,0,0.5536423,0.0630388,0.7217445,0.1425219l-0.1425216,0.5116158
	C3.5593836,9.9577799,3.3547382,9.8782969,3.0815721,9.8782969c-0.2768202,0-0.4111204,0.1297312-0.4111204,0.2722521
	c0,0.1799803,0.1553121,0.2594633,0.5244055,0.4028978c0.4988251,0.1845465,0.7290528,0.4449224,0.7290528,0.8469067
	C3.9257379,11.8754234,3.5657787,12.2783213,2.7892206,12.2783213z M5.565649,12.2783213H5.5610819
	c-0.8341165,0-1.3292871-0.6331253-1.3292871-1.43892c0-0.8469067,0.5454187-1.4809446,1.3758812-1.4809446
	c0.8679199,0,1.3420773,0.6504822,1.3420773,1.4297838C6.9497519,11.7201118,6.3915424,12.2783213,5.565649,12.2783213z
	 M8.9541893,12.2317276l-0.2183504-0.7253971H7.9227357l-0.1973372,0.7253981H7.0630388l0.8633509-2.8266764h0.8350296
	l0.8807106,2.8266764C9.6421299,12.2317286,8.9541893,12.2317286,8.9541893,12.2317276z M11.7936563,10.936244
	c-0.2183504,0.2009907-0.5454187,0.2978334-0.9227362,0.2978334c-0.0840502,0-0.1598787-0.0036545-0.2174368-0.0164442v1.0150089
	h-0.6331253V9.4434233c0.1964235-0.0338039,0.4741573-0.0584698,0.8642645-0.0584698
	c0.3937607,0,0.6788044,0.0758286,0.8679199,0.2311411c0.1808929,0.1388674,0.2978334,0.373662,0.2978334,0.6504822
	C12.0494652,10.5461369,11.9608459,10.7809315,11.7936563,10.936244z"/>
</svg>
