<?xml version="1.0" encoding="utf-8"?>
<!-- Generator: Adobe Illustrator 19.1.0, SVG Export Plug-In . SVG Version: 6.00 Build 0)  -->
<svg version="1.1" id="star" xmlns="http://www.w3.org/2000/svg" xmlns:xlink="http://www.w3.org/1999/xlink" x="0px" y="0px"
	 viewBox="0 0 14 14" style="enable-background:new 0 0 14 14;" xml:space="preserve">
<path d="M4.7420001,4.7865334c0.2845201,0,0.3346982-0.1173768,0.3793597-0.2991581
	C5.50072,3.1910224,5.8800802,1.8946695,6.3542795,0.5983166C6.44912,0.1994389,6.6387997,0,7.0181599,0
	C7.30268,0,7.4923601,0.1994389,7.6820402,0.5983167c0.3793592,1.2963527,0.8535595,2.5927055,1.2329197,3.8890586
	C9.0098009,4.6868138,9.10464,4.7865334,9.2943201,4.7865334c1.3277597,0,2.6555204,0,3.9832792,0
	c0.5690403,0,0.8535595,0.4985976,0.6638803,0.9971948c-0.094841,0.099719-0.1896801,0.1994386-0.2845201,0.2991586
	c-1.0432405,0.7977557-2.0864801,1.595511-3.2245598,2.3932657c-0.1896801,0.09972-0.1896801,0.199439-0.09484,0.3988781
	c0.3793592,1.2963524,0.8535595,2.6924248,1.2329197,3.9887772c0.1896801,0.5983171-0.1896801,1.0969143-0.6638794,0.9971952
	c-0.1896801,0-0.2845201-0.09972-0.4742002-0.199439c-1.0432405-0.7977562-2.0864801-1.5955114-3.1297202-2.3932676
	c-0.1896796-0.1994381-0.3793602-0.1994381-0.5690398,0c-1.0432401,0.8974762-2.0864797,1.6952314-3.1297197,2.4929876
	c-0.3793602,0.2991581-0.6638801,0.2991581-0.85356,0.09972c-0.2845199-0.199439-0.37936-0.4985971-0.1896801-0.9971952
	c0.2845199-1.2963524,0.7936888-2.6685781,1.173049-3.9649315c0.0948398-0.1994381,0-0.2991581-0.09484-0.3988771
	C2.5008087,7.7022443,1.4225999,6.8806419,0.28452,6.0828862c-0.37936-0.2991581-0.37936-0.8974752,0-1.0969138
	c0.0551992-0.0221591,0.1802894-0.0807219,0.4762643-0.1095018C1.4246643,4.776751,4.0781202,4.7865334,4.7420001,4.7865334z"/>
</svg>
