<?xml version="1.0" encoding="utf-8"?>

<!--
 * Copyright (c) 2015, WSO2 Inc. (http://www.wso2.org) All Rights Reserved.
 *
 * WSO2 Inc. licenses this file to you under the Apache License,
 * Version 2.0 (the "License"); you may not use this file except
 * in compliance with the License.
 * You may obtain a copy of the License at
 *
 * http://www.apache.org/licenses/LICENSE-2.0
 *
 * Unless required by applicable law or agreed to in writing,
 * software distributed under the License is distributed on an
 * "AS IS" BASIS, WITHOUT WARRANTIES OR CONDITIONS OF ANY
 * KIND, either express or implied. See the License for the
 * specific language governing permissions and limitations
 * under the License.
-->

<svg version="1.1" id="statistics" xmlns="http://www.w3.org/2000/svg" xmlns:xlink="http://www.w3.org/1999/xlink" x="0px" y="0px"
	 viewBox="0 0 14 14" style="enable-background:new 0 0 14 14;" xml:space="preserve">
<path d="M10.8000002,3.7c-0.1000004,0-0.1999998,0-0.3000002-0.0999999c-0.3000002-0.0999999-0.3999996-0.3-0.3999996-0.5
	c0-0.3,0.1999998-0.5,0.5-0.5c0.6000004,0,1.1999998,0,1.6999998,0c0.3000002,0,0.5,0.2,0.5,0.6000001
	c0,0.5,0,1.0999999,0,1.5999999c0,0.3000002-0.1999998,0.5999999-0.5,0.5999999s-0.5-0.1999998-0.5-0.5999999
	c0-0.0999999,0-0.1999998,0-0.4000001C11.6999998,4.5,11.6000004,4.5999999,11.5,4.5999999
	c-0.6999998,0.6999998-1.5,1.2999997-2.1999998,2C9,6.9000001,8.6999998,6.9000001,8.3000002,6.8000002
	c-0.6999998-0.3000002-1.5-0.6999998-2.1999998-1c-0.1999998-0.0999999-0.3000002-0.0999999-0.5,0
	C4.6999998,6.4000001,3.8,7,2.9000001,7.5999999C2.7,7.6999998,2.5,7.8000002,2.4000001,7.6999998
	C2.2,7.6999998,2,7.5,1.9,7.3000002c0-0.2000003,0.1-0.4000001,0.3000001-0.5C2.8,6.4000001,3.4000001,6,3.9000001,5.5999999
	c0.5-0.2999997,1-0.5999999,1.4000001-0.9000001C5.6000004,4.5,5.9000001,4.5,6.2000003,4.5999999
	c0.6999998,0.3000002,1.4000001,0.6999998,2.2000003,1c0.1000004,0,0.3000002,0,0.3999996,0
	C9.5,5,10.1000004,4.3999996,10.6999998,3.8C10.6999998,3.8,10.6999998,3.8,10.8000002,3.7z M13.5,12.1999998
	c-0.3999996,0-0.6999998,0-1.1000004,0c-0.5,0-0.5,0-0.5-0.5c0-1.5,0-3.0999994,0-4.5999999l0,0V6.6999998
	c0-0.3000002-0.3000002-0.5-0.5-0.5l0,0c-0.3000002,0-0.5,0.1999998-0.5,0.5v5.4000006
	c-0.1000004,0.1000004-0.1000004,0.1000004-0.3000002,0.1000004c-0.3999996,0-0.6999998,0-1.1000004,0
	c-0.3000002,0-0.3999996,0-0.3999996-0.1000004V8.3000002c0-0.3000002-0.1999998-0.5-0.5-0.5H8.5
	c-0.3000002,0-0.5,0.3000002-0.5,0.5v3.8000002c-0.0999999,0.1000004-0.3000002,0.1000004-0.6999998,0.1000004
	c-0.1999998,0-0.4000001,0-0.5,0c-0.5,0-0.5999999,0-0.5999999-0.1000004V7.5999999c0,0,0,0,0-0.0999999
	s0-0.1999998-0.1999998-0.3000002c-0.1000004,0-0.2000003-0.0999999-0.3000007-0.0999999H5.5c-0.1999998,0-0.5,0.2000003-0.5,0.5
	v4.5000005c-0.0999999,0.1000004-0.0999999,0.1000004-0.3000002,0.1000004c-0.4000001,0-0.8,0-1.2,0c-0.2,0-0.3,0-0.3-0.1999998
	V9.1999998V9.0999994c0,0,0,0,0-0.1000004l0,0C3.2,8.8000002,3,8.6999998,2.8,8.6999998h-0.2c-0.3,0-0.5,0.1999998-0.5,0.5
	v2.9000006c-0.1,0.1999998-0.2,0.1999998-0.7,0.1000004c-0.5,0-0.5,0-0.5-0.5c0-3,0-6,0-9c0-0.5,0-0.9,0-1.4C1,1,0.8,0.8,0.5,0.8
	C0.3,0.8,0,1,0,1.3c0,0.1,0,0.2,0,0.3C0,5.1999998,0,8.7999992,0,12.5c0,0.6000004,0.1,0.8000002,0.7,0.8000002
	c4.1999998,0,8.3000002,0,12.5,0c0.1000004,0,0.1999998,0,0.3000002,0c0.3000002,0,0.5-0.1999998,0.5-0.5
	C14,12.3999996,13.8000002,12.1999998,13.5,12.1999998z"/>
</svg>
