<?xml version="1.0" encoding="utf-8"?>
<!-- Generator: Adobe Illustrator 19.2.0, SVG Export Plug-In . SVG Version: 6.00 Build 0)  -->
<svg version="1.1" id="statistics" xmlns="http://www.w3.org/2000/svg" xmlns:xlink="http://www.w3.org/1999/xlink" x="0px" y="0px"
	 viewBox="0 0 14 14" style="enable-background:new 0 0 14 14;" xml:space="preserve">
<path d="M14,13v1h-1.3h-1.5H9.6H8.1H6.5H5H3.9H2.4H1H0v-1V0h1v13h1.4V8.9h1.5V13H5V5.9h1.5V13h1.6V7.2h1.5V13h1.6V5.9h1.5V13H14z
	 M5.7,3.6l2.7,2.2l3.7-3L12,4.3l1.1,0l0.1-3.2L10.1,1l-0.1,1.1l1.5,0.1L8.4,4.6L5.7,2.5L1.8,5.9l0.6,0.7L5.7,3.6z"/>
</svg>
