<?xml version="1.0" encoding="utf-8"?>
<!-- Generator: Adobe Illustrator 19.2.0, SVG Export Plug-In . SVG Version: 6.00 Build 0)  -->
<svg version="1.1" id="store" xmlns="http://www.w3.org/2000/svg" xmlns:xlink="http://www.w3.org/1999/xlink" x="0px" y="0px"
	 viewBox="0 0 14 14" style="enable-background:new 0 0 14 14;" xml:space="preserve">
<path d="M0.2,0l2.7,0.8l0.5,2.1L14,4l-0.9,4.2H4.7l0.3,1.2h7.6v1.1H4L1.9,1.8L0,1.2L0.2,0z M5.5,11.2c-0.8,0-1.4,0.6-1.4,1.4
	c0,0.8,0.6,1.4,1.4,1.4s1.4-0.6,1.4-1.4C6.9,11.8,6.3,11.2,5.5,11.2z M11.1,11.2c-0.8,0-1.4,0.6-1.4,1.4c0,0.8,0.6,1.4,1.4,1.4
	s1.4-0.6,1.4-1.4C12.4,11.8,11.8,11.2,11.1,11.2z"/>
</svg>
