<?xml version="1.0" encoding="utf-8"?>

<!--
 * Copyright (c) 2015, WSO2 Inc. (http://www.wso2.org) All Rights Reserved.
 *
 * WSO2 Inc. licenses this file to you under the Apache License,
 * Version 2.0 (the "License"); you may not use this file except
 * in compliance with the License.
 * You may obtain a copy of the License at
 *
 * http://www.apache.org/licenses/LICENSE-2.0
 *
 * Unless required by applicable law or agreed to in writing,
 * software distributed under the License is distributed on an
 * "AS IS" BASIS, WITHOUT WARRANTIES OR CONDITIONS OF ANY
 * KIND, either express or implied. See the License for the
 * specific language governing permissions and limitations
 * under the License.
-->

<svg version="1.1" id="subscribe" xmlns="http://www.w3.org/2000/svg" xmlns:xlink="http://www.w3.org/1999/xlink" x="0px" y="0px"
	 viewBox="0 0 14 14" enable-background="new 0 0 14 14" xml:space="preserve">
<path d="M0,5.7C0,4,0,2.3,0,0.6C0.1,0.3,0.3,0.1,0.6,0C2.3,0,4,0,5.7,0c0,0,0,0,0.1,0c0.4,0.1,0.8,0.3,1.1,0.6
		c2.2,2.2,4.5,4.5,6.7,6.7c0.2,0.2,0.3,0.3,0.4,0.5c0,0.1,0,0.2,0,0.3c-0.1,0.2-0.2,0.4-0.4,0.6c-1.6,1.6-3.2,3.2-4.9,4.9
		c-0.2,0.2-0.3,0.3-0.6,0.4c-0.1,0-0.2,0-0.3,0c-0.2-0.1-0.4-0.2-0.5-0.4c-2.2-2.2-4.5-4.5-6.7-6.7C0.4,6.6,0.2,6.4,0.1,6
		C0.1,5.9,0,5.8,0,5.7z M2.2,3.1c0.5,0,0.9-0.4,0.9-0.9c0-0.5-0.4-0.9-0.9-0.9c-0.5,0-0.9,0.4-0.9,0.9C1.3,2.7,1.7,3.1,2.2,3.1z"/>

</svg>
