<?xml version="1.0" encoding="utf-8"?>

<!--
 * Copyright (c) 2015, WSO2 Inc. (http://www.wso2.org) All Rights Reserved.
 *
 * WSO2 Inc. licenses this file to you under the Apache License,
 * Version 2.0 (the "License"); you may not use this file except
 * in compliance with the License.
 * You may obtain a copy of the License at
 *
 * http://www.apache.org/licenses/LICENSE-2.0
 *
 * Unless required by applicable law or agreed to in writing,
 * software distributed under the License is distributed on an
 * "AS IS" BASIS, WITHOUT WARRANTIES OR CONDITIONS OF ANY
 * KIND, either express or implied. See the License for the
 * specific language governing permissions and limitations
 * under the License.
-->

<svg version="1.1" id="subscribe" xmlns="http://www.w3.org/2000/svg" xmlns:xlink="http://www.w3.org/1999/xlink" x="0px" y="0px"
	 viewBox="0 0 14 14" style="enable-background:new 0 0 14 14;" xml:space="preserve">
<path d="M0,5.6999998C0,4,0,2.3,0,0.6C0.1,0.3,0.3,0.1,0.6,0C2.3,0,4,0,5.6999998,0c0,0,0,0,0.0999999,0
	c0.4000001,0.1,0.8000002,0.3,1.0999999,0.6c2.1999998,2.2000003,4.5,4.5,6.6999998,6.6999998
	c0.1999998,0.1999998,0.3000002,0.3000002,0.3999996,0.5c0,0.0999999,0,0.1999998,0,0.2999997
	c-0.1000004,0.1999998-0.1999998,0.3999996-0.3999996,0.6000004c-1.6000004,1.6000004-3.1999998,3.1999998-4.9000006,4.9000006
	C8.499999,13.8000002,8.3999987,13.9000006,8.0999985,14c-0.0999999,0-0.1999998,0-0.3000002,0
	c-0.1999998-0.1000004-0.4000001-0.1999998-0.5-0.3999996c-2.1999998-2.1999998-4.5-4.5-6.6999998-6.6999998
	C0.4,6.5999999,0.2,6.4000001,0.1,6C0.1,5.9000001,0,5.8000002,0,5.6999998z M2.2,3.0999999
	c0.5,0,0.8999999-0.4000001,0.8999999-0.9000001s-0.4000001-0.9-0.9000001-0.9s-0.9,0.4-0.9,0.9
	C1.3,2.7,1.7,3.0999999,2.2,3.0999999z"/>
</svg>
