<?xml version="1.0" encoding="utf-8"?>
<!-- Generator: Adobe Illustrator 19.1.1, SVG Export Plug-In . SVG Version: 6.00 Build 0)  -->
<svg version="1.1" id="swagger" xmlns="http://www.w3.org/2000/svg" xmlns:xlink="http://www.w3.org/1999/xlink" x="0px" y="0px"
	 width="14px" height="14px" viewBox="0 0 14 14" style="enable-background:new 0 0 14 14;" xml:space="preserve">
<style type="text/css">
	.st0{fill:#010101;}
</style>
<path class="st0" d="M6.3169861,0.0352783c1.5768738-0.1609802,3.2047424,0.2399902,4.5266113,1.1159058
	c1.0259399,0.670929,1.8638306,1.6188354,2.4138184,2.7127686c0.5249634,1.0479126,0.7809143,2.2298279,0.7379456,3.4007568
	c-0.0550232,1.3798523-0.5219421,2.7437134-1.3399353,3.8576355c-0.8569031,1.1769104-2.0877991,2.0798645-3.4747314,2.526825
	c-1.2948303,0.4299622-2.7157288,0.4649353-4.0296326,0.1009827c-1.3608704-0.3679504-2.6017761-1.1639404-3.5067139-2.2438049
	C0.79245,10.497406,0.2354736,9.2434998,0.0634766,7.9336548c-0.230957-1.6749268,0.1739807-3.4307251,1.1219482-4.8316345
	C2.3233337,1.3821411,4.2601318,0.2202759,6.3169861,0.0352783z M4.0471497,3.6539612
	c-0.34198,0.2200317-0.4249573,0.6539612-0.4429626,1.0309753C3.5162048,5.2208557,3.6852112,5.8017883,3.4321899,6.3057251
	C3.307251,6.5397339,3.0272522,6.5727234,2.7912903,6.5917358c-0.0069885,0.2719727-0.0069885,0.5449524,0,0.816925
	c0.2489624-0.0049438,0.539917,0.0690002,0.6569214,0.3139954c0.2259827,0.4889526,0.0749817,1.0389099,0.1529846,1.5548706
	c0.0249939,0.3659668,0.0759888,0.7889404,0.3899536,1.0289307c0.3330078,0.2519226,0.7729492,0.223938,1.1679077,0.2209473
	c0-0.2399597,0-0.47995,0-0.7199402c-0.2269592-0.0020142-0.5229492,0.0279846-0.670929-0.1829834
	c-0.151001-0.4339294-0.0769958-0.9028931-0.098999-1.3529053C4.3511658,7.9915771,4.3141174,7.7016907,4.1701355,7.4526672
	c-0.1019287-0.1909485-0.2669373-0.3399963-0.4489441-0.453949c0.1560059-0.098999,0.3059998-0.21698,0.4039307-0.3770142
	c0.1780396-0.2609253,0.2250366-0.5799255,0.2630005-0.8859253C4.4121399,5.2848206,4.3371277,4.816864,4.4851379,4.3819275
	C4.6261292,4.1549377,4.9300842,4.203949,5.1581116,4.1999512c0-0.2399902,0-0.4799805,0-0.7199707
	C4.7850952,3.4829712,4.3751526,3.4330139,4.0471497,3.6539612z M8.8447571,3.4799805
	C8.8387756,3.7199707,8.8387756,3.9599609,8.843811,4.1999512C9.040741,4.2069397,9.2627258,4.1639404,9.4327087,4.289917
	c0.1149597,0.072998,0.1279907,0.2209778,0.1409607,0.3429871c0.0920105,0.5849609-0.0489502,1.2019043,0.184021,1.7628784
	c0.0950012,0.2589722,0.2939758,0.4629211,0.5239868,0.6089172c-0.2750244,0.1459961-0.473999,0.4119873-0.5649719,0.7069092
	c-0.178009,0.539978-0.0530396,1.1139221-0.1460266,1.6669006C9.5557556,9.5004883,9.541687,9.6455078,9.4267273,9.7164917
	C9.2497559,9.8184814,9.0387268,9.8074646,8.8417664,9.8064575c-0.0019531,0.2399902-0.0039978,0.4799805,0.0020447,0.7199402
	c0.3929749,0.0029907,0.8288879,0.0289917,1.1628418-0.2169495c0.3339539-0.2639771,0.381012-0.730957,0.3859863-1.1259155
	c0.0410156-0.4749756-0.0400085-0.9769592,0.1419983-1.428894c0.0999451-0.26297,0.4059448-0.3499756,0.6619263-0.3459778
	c0-0.2729797,0-0.5459595,0-0.8188782c-0.1769409-0.026001-0.3779602-0.0190125-0.5199585-0.14505
	c-0.1459961-0.1299744-0.1909485-0.3320007-0.2319641-0.5149231c-0.0589905-0.4959412-0.0269775-0.9969482-0.0739441-1.4938965
	c-0.0450134-0.3059692-0.15802-0.63797-0.4439697-0.7989197C9.6027222,3.4350281,9.2087402,3.4840088,8.8447571,3.4799805z
	 M5.1160889,6.5517578C4.821106,6.6557312,4.7171326,7.0686646,4.920105,7.3046875
	c0.1239929,0.1759644,0.3619385,0.1949768,0.5559387,0.1479797c0.2679749-0.0929565,0.3999634-0.4519653,0.243988-0.6929321
	C5.6100159,6.5507507,5.3330383,6.4557495,5.1160889,6.5517578z M6.7979126,6.5587463
	C6.6749573,6.6067505,6.5809631,6.7156982,6.5419617,6.8406982C6.4219971,7.1246948,6.6689758,7.4976807,6.9819336,7.4716797
	c0.2689819,0.0369568,0.5279236-0.2219849,0.4889526-0.4909668C7.4949036,6.6487122,7.0869141,6.4077759,6.7979126,6.5587463z
	 M8.5168457,6.5497131C8.3488464,6.6197205,8.2058411,6.7907104,8.2198181,6.9807129
	C8.1888428,7.245697,8.4327698,7.5056458,8.7018127,7.4726868c0.3389282,0.0359497,0.6049194-0.3860168,0.4349365-0.677948
	C9.041748,6.5627441,8.7457581,6.4517822,8.5168457,6.5497131z"/>
</svg>
