<?xml version="1.0" encoding="utf-8"?>
<!-- Generator: Adobe Illustrator 19.2.0, SVG Export Plug-In . SVG Version: 6.00 Build 0)  -->
<svg version="1.1" id="table" xmlns="http://www.w3.org/2000/svg" xmlns:xlink="http://www.w3.org/1999/xlink" x="0px" y="0px"
	 viewBox="0 0 14 14" style="enable-background:new 0 0 14 14;" xml:space="preserve">
<g id="BlVOIo.tif">
	<g>
		<path d="M14,1c0,3.5589013,0,7.7743282,0,11.3305769c-4.7414417,0-9.2518024,0-14,0C0,8.7836733,0,4.5639524,0,1
			C4.7327766,1,9.2474928,1,14,1z M3.8467419,5.2064347c1.1925218,0,3.6298339,0,4.8061819,0c0-0.5943389,0-1.8465753,0-2.4243612
			c-1.1893897,0-3.6267352,0-4.8061819,0C3.8467419,3.3708184,3.8467419,4.614285,3.8467419,5.2064347z M8.6623392,6.4163766
			c-1.1930075,0-3.6303225,0-4.8054686,0c0,0.5947561,0,1.1775789,0,1.754149c1.1897924,0,3.6271441,0,4.8054686,0
			C8.6623392,7.5813775,8.6623392,7.0073333,8.6623392,6.4163766z M3.8518682,11.1405296c1.1902666,0,3.6275887,0,4.7996297,0
			c0-0.5958118,0-1.1786652,0-1.7586517c-1.1863923,0-3.6193504,0-4.7996297,0
			C3.8518682,9.9698076,3.8518682,10.5482292,3.8518682,11.1405296z M1.1862772,2.7748144c0,0.6001949,0,1.8522866,0,2.4339049
			c0.9877748,0,0.4775764,0,1.4594419,0c0-0.5918074,0-1.8438604,0-2.4339049
			C1.6612757,2.7748144,2.1714821,2.7748144,1.1862772,2.7748144z M9.8612871,5.204329c0.9935341,0,1.9715939,0,2.9445877,0
			c0-0.5963569,0-1.8484812,0-2.4266851c-0.988904,0-1.9625931,0-2.9445877,0
			C9.8612871,3.3661342,9.8612871,4.6138277,9.8612871,5.204329z M2.6451061,8.1820526c0-0.5986147,0-1.1812482,0-1.7644763
			c-0.9895051,0-0.4836733,0-1.4582255,0c0,0.5958238,0,1.1785097,0,1.7644763
			C2.1708503,8.1820526,1.656273,8.1820526,2.6451061,8.1820526z M9.8616171,8.1724119c0.9925356,0,1.9705915,0,2.9445887,0
			c0-0.5960155,0-1.1787081,0-1.7579217c-0.9885731,0-1.9622555,0-2.9445887,0
			C9.8616171,7.0026417,9.8616171,7.5809145,9.8616171,8.1724119z M1.1853724,9.3806477c0,0.5974493,0,1.1801033,0,1.7579298
			c0.9913116,0,0.4855117,0,1.4612496,0c0-0.5931358,0-1.1714268,0-1.7579298
			C1.6630985,9.3806477,2.1732984,9.3806477,1.1853724,9.3806477z M12.8123894,9.3855705c-0.9927006,0-1.9707584,0-2.9445887,0
			c0,0.5960712,0,1.1787663,0,1.7578115c0.9886265,0,1.9623127,0,2.9445887,0
			C12.8123894,10.5551815,12.8123894,9.9769049,12.8123894,9.3855705z"/>
	</g>
</g>
</svg>
