<?xml version="1.0" encoding="utf-8"?>

<!--
 * Copyright (c) 2015, WSO2 Inc. (http://www.wso2.org) All Rights Reserved.
 *
 * WSO2 Inc. licenses this file to you under the Apache License,
 * Version 2.0 (the "License"); you may not use this file except
 * in compliance with the License.
 * You may obtain a copy of the License at
 *
 * http://www.apache.org/licenses/LICENSE-2.0
 *
 * Unless required by applicable law or agreed to in writing,
 * software distributed under the License is distributed on an
 * "AS IS" BASIS, WITHOUT WARRANTIES OR CONDITIONS OF ANY
 * KIND, either express or implied. See the License for the
 * specific language governing permissions and limitations
 * under the License.
-->

<svg version="1.1" id="tag" xmlns="http://www.w3.org/2000/svg" xmlns:xlink="http://www.w3.org/1999/xlink" x="0px" y="0px"
	 viewBox="0 0 14 14" style="enable-background:new 0 0 14 14;" xml:space="preserve">
<path d="M9.2,2.6l-3.9-1L4.6,2.3C4.4,2.2,4.1,2.1,3.8,2.1c-1-0.3-2.9,0.3-3.5,2C0.1,4.5,0,4.9,0,5.3c0,0.1,0,0.1,0,0.2v0.7
	c0,0-0.2,2.4,1.5,2.4c1.7-0.2,1.1-2.4,1.1-2.4c-0.1-0.5-0.2-1-0.2-1.5s0-0.9,0.3-1.3C2.9,3.2,3.3,3,3.6,2.9C3.7,2.9,3.8,2.9,4,3
	L3.1,4l0.9,3.5l5.3,5l4.7-5L9.2,2.6z M1.7,5.4c0,0.3,0.1,0.6,0.2,1C1.9,6.7,2,7,1.9,7.3C1.8,7.5,1.7,7.7,1.4,7.7
	c-0.3,0-0.6-0.4-0.6-0.6C0.6,6.5,0.6,5.8,0.7,5.2c0.1-0.3,0.4-1.3,1.3-2C1.9,3.2,1.6,4.6,1.7,5.4z M6,5.5c-0.1,0-0.1,0-0.1,0
	c-0.1,0-0.2-0.1-0.2-0.1c0,0,0,0-0.1,0c0,0-0.1-0.1-0.1-0.1C5.4,5.2,5.3,5.1,5.3,5c0,0,0,0,0-0.1c0-0.1-0.1-0.2-0.1-0.3c0,0,0,0,0,0
	c0.2,0.2,0.3,0.2,0.5,0.1C5.9,4.7,6,4.6,6,4.4S5.9,4,5.9,3.9C6,3.8,6.1,3.8,6.2,3.8c0.3,0,0.6,0.2,0.7,0.4c0,0,0.1,0.1,0.1,0.1
	C7,4.4,7,4.5,7,4.6C7,5,6.8,5.3,6.5,5.5c0,0,0,0-0.1,0c-0.1,0-0.2,0-0.2,0.1C6.1,5.5,6.1,5.5,6,5.5z"/>
</svg>
