<?xml version="1.0" encoding="utf-8"?>

<!--
 * Copyright (c) 2015, WSO2 Inc. (http://www.wso2.org) All Rights Reserved.
 *
 * WSO2 Inc. licenses this file to you under the Apache License,
 * Version 2.0 (the "License"); you may not use this file except
 * in compliance with the License.
 * You may obtain a copy of the License at
 *
 * http://www.apache.org/licenses/LICENSE-2.0
 *
 * Unless required by applicable law or agreed to in writing,
 * software distributed under the License is distributed on an
 * "AS IS" BASIS, WITHOUT WARRANTIES OR CONDITIONS OF ANY
 * KIND, either express or implied. See the License for the
 * specific language governing permissions and limitations
 * under the License.
-->

<svg version="1.1" id="throttling-policy" xmlns="http://www.w3.org/2000/svg" xmlns:xlink="http://www.w3.org/1999/xlink" x="0px"
	 y="0px" viewBox="0 0 14 14" style="enable-background:new 0 0 14 14;" xml:space="preserve">
<path d="M4.7761126,3.6731312h3.916687V4.381444h-3.916687V3.6731312z M4.742116,4.798131h3.0263672v0.708313H4.742116V4.798131z
	 M4.7344866,6.673131h3.916626v0.708313h-3.916626V6.673131z M4.7552996,8.4768419v-0.708313h3.0263672v0.708313H4.7552996z
	 M8.7761126,8.173131c0,0.184082-0.149231,0.333313-0.333313,0.333313s-0.333313-0.149231-0.333313-0.333313
	s0.149231-0.333313,0.333313-0.333313S8.7761126,7.989049,8.7761126,8.173131z M9.3958025,9.2168932h1.6760254l-0.3060303,0.3209839
	H9.7007952v1.4290161h1.3640137v-0.684021l0.3059692-0.3209839v1.3259888H9.3958025V9.2168932z M10.3408098,10.2878771
	l1.0830078-1.1359863l0.2160034,0.2269897L10.3408098,10.74088l-0.5200195-0.5449829l0.2160034-0.2269897L10.3408098,10.2878771z
	 M3.3481452,7.8099999c0.3099999,0,0.6100001,0.04,0.8999999,0.1199999V1.2H9.368145v2.6099999h2.6100006v8.9899998H6.4481454
	C6.2281451,13.2799997,5.8981452,13.6899996,5.4881454,14h7.6900001V3.26L9.7381449,0H3.0481453v7.8200002
	C3.1481452,7.8099999,3.2581453,7.8099999,3.3481452,7.8099999z M3.5418255,8.5599976c-0.0799561,0-0.1699829,0-0.25,0.0100098
	C3.0718548,8.5900269,2.8518841,8.6400146,2.6418622,8.710022c-1.0599977,0.3699951-1.8200074,1.3899536-1.8200074,2.5700073
	c0,1.5,1.2199708,2.7199707,2.7199707,2.7199707c1.1900022,0,2.2100217-0.7700195,2.5700071-1.8400269
	c0.0800171-0.2099609,0.1199951-0.4299927,0.1400146-0.6499634c0.0100098-0.0800171,0.0100098-0.1500244,0.0100098-0.2299805
	C6.261857,9.7800293,5.0418253,8.5599976,3.5418255,8.5599976z M1.9318401,10.3599854L2.3518841,10.5
	c0.0799561,0.0200195,0.1299438,0.1099854,0.0999756,0.1900024C2.4318402,10.75,2.3703778,10.7963257,2.3103802,10.7963257
	c-0.0200195,0-0.0285034-0.0063477-0.0485229-0.0063477l-0.419983-0.1300049
	c-0.0800171-0.0299683-0.1199951-0.1199951-0.1000366-0.1999512C1.7718669,10.3800049,1.851884,10.3400269,1.9318401,10.3599854z
	 M2.4618695,11.4299927H1.7418376c-0.0899658,0-0.1499634-0.0700073-0.1499634-0.1499634
	c0-0.0900269,0.0599976-0.1600342,0.1499634-0.1600342h0.7200319c0.0799561,0,0.1499634,0.0700073,0.1499634,0.1600342
	C2.6118329,11.3599854,2.5418255,11.4299927,2.4618695,11.4299927z M2.7918255,10.3699951
	c-0.0299683,0.0300293-0.0699463,0.0499878-0.1099854,0.0499878c-0.0100098,0-0.0248413,0.0048828-0.0402222-0.0033569
	c-0.0340576-0.0162354-0.0437622-0.0280762-0.0697632-0.0466309L2.2018597,10c-0.0599976-0.0599976-0.0599976-0.1599731,0-0.210022
	c0.0599976-0.0599976,0.1599731-0.0599976,0.2199707,0l0.2200317,0.2200317l0.1499634,0.1499634
	C2.8518841,10.2199707,2.8518841,10.3099976,2.7918255,10.3699951z M3.1318524,10.0300293
	c-0.0200195,0.0099487-0.039978,0.0199585-0.0700073,0.0199585c-0.0499878,0-0.0999756-0.039978-0.1300049-0.0899658
	L2.731828,9.5599976c-0.039978-0.0700073-0.0099487-0.1599731,0.0700073-0.2000122
	c0.0700073-0.039978,0.1600342-0.0100098,0.2000122,0.0700073l0.2000122,0.4000244
	C3.2418377,9.9000244,3.2118695,9.9899902,3.1318524,10.0300293z M5.3418741,10.5
	c0.0299683,0.0800171-0.0200195,0.1699829-0.1000366,0.1900024l-0.4099731,0.1400146
	c-0.0194092,0.0059204-0.0297241,0.0059204-0.0396729,0.0059204c-0.0599976,0-0.125-0.0187378-0.1603394-0.105957
	c-0.0200195-0.0799561,0.0200195-0.1699829,0.0999756-0.1900024l0.4200439-0.1399536
	C5.2318277,10.3800049,5.3218546,10.4199829,5.3418741,10.5z M3.7018597,11.5100098v0.3599854
	c0,0.0800171-0.0700073,0.1500244-0.1500244,0.1500244c-0.0899658,0-0.1499634-0.0700073-0.1499634-0.1500244v-0.4500122v-0.0100098
	V9.3099976c0-0.0800171,0.0599976-0.1500244,0.1499634-0.1500244c0.0800171,0,0.1500244,0.0700073,0.1500244,0.1500244V11.5100098z
	 M4.0218668,10.0800171c-0.0200195,0-0.0400388,0-0.0700071-0.0100098c-0.0700073-0.039978-0.0999756-0.1300049-0.0599976-0.210022
	L4.0818644,9.460022c0.039978-0.0700073,0.1300049-0.1000366,0.2099609-0.0599976
	c0.0700073,0.0299683,0.1100464,0.1300049,0.0700073,0.1999512L4.1618814,10
	C4.1318521,10.0499878,4.0818644,10.0800171,4.0218668,10.0800171z M4.3018351,10.4099731
	c-0.0599976-0.0599976-0.0599976-0.1599731,0-0.2199707l0.3699951-0.3699951c0.0599976-0.0599976,0.1500244-0.0599976,0.210022,0
	s0.0599976,0.1599731,0,0.2199707L4.511857,10.4099731c-0.0300293,0.0300293-0.0700073,0.0400391-0.0999756,0.0400391
	C4.3718424,10.4500122,4.3318644,10.4400024,4.3018351,10.4099731z M5.3518839,11.4699707H4.6318521
	c-0.0900269,0-0.1500244-0.0699463-0.1500244-0.1499634c0-0.0900269,0.0599976-0.1600342,0.1500244-0.1600342h0.7200317
	c0.0799561,0,0.1499634,0.0700073,0.1499634,0.1600342C5.5018473,11.4000244,5.4318399,11.4699707,5.3518839,11.4699707z"/>
</svg>
