<?xml version="1.0" encoding="utf-8"?>

<!--
 * Copyright (c) 2015, WSO2 Inc. (http://www.wso2.org) All Rights Reserved.
 *
 * WSO2 Inc. licenses this file to you under the Apache License,
 * Version 2.0 (the "License"); you may not use this file except
 * in compliance with the License.
 * You may obtain a copy of the License at
 *
 * http://www.apache.org/licenses/LICENSE-2.0
 *
 * Unless required by applicable law or agreed to in writing,
 * software distributed under the License is distributed on an
 * "AS IS" BASIS, WITHOUT WARRANTIES OR CONDITIONS OF ANY
 * KIND, either express or implied. See the License for the
 * specific language governing permissions and limitations
 * under the License.
-->

<svg version="1.1" id="ticked-box" xmlns="http://www.w3.org/2000/svg" xmlns:xlink="http://www.w3.org/1999/xlink" x="0px" y="0px"
	 viewBox="0 0 14 14" enable-background="new 0 0 14 14" xml:space="preserve">
<path d="M5,11.9c-1.2-1.2-2.4-2.4-3.6-3.6c0.5-0.5,1-1,1.5-1.5c0.7,0.7,1.4,1.4,2,2.1c2.5-2.5,5-5,7.5-7.5c0.5,0.5,1,1,1.5,1.5
	C11,5.9,8,8.9,5,11.9z M12.6,11.4v-5h-1.1v5c0,0.5-0.4,1-1,1H2.1c-0.5,0-1-0.4-1-1V2.6c0-0.5,0.4-1,1-1h8.5V0.5H2.1
	C0.9,0.5,0,1.5,0,2.6v8.8c0,1.1,0.9,2.1,2.1,2.1h8.5C11.7,13.5,12.6,12.5,12.6,11.4z"/>
</svg>
