<?xml version="1.0" encoding="utf-8"?>

<!--
 * Copyright (c) 2015, WSO2 Inc. (http://www.wso2.org) All Rights Reserved.
 *
 * WSO2 Inc. licenses this file to you under the Apache License,
 * Version 2.0 (the "License"); you may not use this file except
 * in compliance with the License.
 * You may obtain a copy of the License at
 *
 * http://www.apache.org/licenses/LICENSE-2.0
 *
 * Unless required by applicable law or agreed to in writing,
 * software distributed under the License is distributed on an
 * "AS IS" BASIS, WITHOUT WARRANTIES OR CONDITIONS OF ANY
 * KIND, either express or implied. See the License for the
 * specific language governing permissions and limitations
 * under the License.
-->

<svg version="1.1" id="undo" xmlns="http://www.w3.org/2000/svg" xmlns:xlink="http://www.w3.org/1999/xlink" x="0px" y="0px"
	 viewBox="0 0 14 14" enable-background="new 0 0 14 14" xml:space="preserve">
<path d="M1.6,5.8c0.1,0,0.1,0.1,0.2,0.1c0.8,0.8,1.6,1.6,2.5,2.5c0.1,0.1,0.2,0.3,0.2,0.4c0,0.2-0.1,0.3-0.3,0.4
	c-0.2,0.1-0.4,0-0.5-0.1C3.3,8.7,2.9,8.4,2.6,8C1.8,7.2,1,6.4,0.2,5.6c-0.3-0.3-0.3-0.5,0-0.8c1.1-1.1,2.3-2.3,3.4-3.4
	C3.8,1.3,4,1.2,4.2,1.3c0.2,0.1,0.3,0.3,0.3,0.5c0,0.1-0.1,0.3-0.2,0.3C3.4,3,2.6,3.8,1.8,4.6c0,0-0.1,0.1-0.1,0.1c0,0,0,0,0,0
	c0.1,0,0.1,0,0.2,0c2.7,0,5.5,0,8.2,0c2,0,3.7,1.5,4,3.5c0.2,2.1-1.2,4-3.3,4.3c-0.6,0.1-1.2,0.1-1.8,0.1c-2.6,0,1.8,0-0.8,0
	c-0.3,0-0.5-0.2-0.5-0.4c0-0.3,0.2-0.5,0.5-0.5c0.7,0,1.4,0,2.1,0c2.3,0-2.5,0-0.2,0c1.6,0,2.8-1,3-2.5c0.3-1.6-0.9-3.2-2.5-3.5
	c-0.3,0-0.6,0-0.8,0c-2.6,0-5.2,0-7.8,0C1.8,5.7,1.7,5.7,1.6,5.8C1.7,5.7,1.6,5.8,1.6,5.8z"/>
</svg>
