<?xml version="1.0" encoding="utf-8"?>
<!-- Generator: Adobe Illustrator 19.1.0, SVG Export Plug-In . SVG Version: 6.00 Build 0)  -->
<svg version="1.1" id="undo" xmlns="http://www.w3.org/2000/svg" xmlns:xlink="http://www.w3.org/1999/xlink" x="0px" y="0px"
	 viewBox="0 0 14 14" style="enable-background:new 0 0 14 14;" xml:space="preserve">
<path d="M0,5.4173403c0,0.2124715,0.0973606,0.3188577,0.2693348,0.5002193l3.7715349,3.7694283
	c0.229681,0.229681,0.6098547,0.2224598,0.8484411-0.0161266c0.2386465-0.2386465,0.2458677-0.6187601,0.0161266-0.8485022
	L2.1096716,6.0286994h7.8926744c0.0145016,0,0.0420609,0.0023832,0.0563221,0.0012999
	c2.3916883,0.1370082,2.7450399,1.6505742,2.7265663,2.8421836c0,0.8549404-0.2426186,1.5028248-0.7432585,1.9813223
	c-1.0032072,0.9579563-2.7140512,0.8915253-2.7294559,0.8934507c-0.331193-0.0019255-0.6180983,0.2426186-0.633503,0.5767002
	c-0.016367,0.3340816,0.2406931,0.6180983,0.5747738,0.6344662c0.091464,0.0086641,2.2355547,0.095314,3.6190557-1.2217569
	c0.7471104-0.7105246,1.1254797-1.6741982,1.126442-2.9209862c0.0370064-2.4329214-1.3710871-3.8894172-3.9514036-4.0084839
	c-0.0144072-0.0006647-0.0308571-0.0009146-0.0455389-0.0009146H9.9472876c-0.0722084-0.0037308-7.8735399,0-7.8735399,0
	l2.7694101-2.7368565c0.2295609-0.2295004,0.2223406-0.6093135-0.0160656-0.8477798
	C4.5886259,0.9829384,4.2088127,0.9757175,3.9792519,1.2052181L0.1748028,4.9771132
	C0.1083116,5.0436044,0.0675144,5.1238756,0.040617,5.2083588C0.0173301,5.274128,0,5.3432069,0,5.4173403z"/>
</svg>
