<?xml version="1.0" encoding="utf-8"?>
<!-- Generator: Adobe Illustrator 19.2.0, SVG Export Plug-In . SVG Version: 6.00 Build 0)  -->
<svg version="1.1" id="Layer_1" xmlns="http://www.w3.org/2000/svg" xmlns:xlink="http://www.w3.org/1999/xlink" x="0px" y="0px"
	 viewBox="0 0 14 14" style="enable-background:new 0 0 14 14;" xml:space="preserve">
<path d="M14,1.8379517V0h-1.8262329v0.6533203H5.8389893V0H4.0127563v1.8379517h0.6420288v2.7640381H1.8262329V3.9487305H0
	v1.8378906h0.6420288v6.3754272H0V14h1.8262329v-0.6461792h6.3347778V14h1.8262329v-1.8379517H9.3381348v-2.756958h2.8356323
	v0.6461792H14V8.2133179h-0.6491699V1.8379517H14z M4.5477905,1.2994995V0.5384521h0.7561646v0.1148682v0.6461792H4.6547852
	H4.5477905z M1.2911987,13.3538208v0.1077271H0.5350342v-0.7610474h0.1069946h0.6491699V13.3538208z M1.2911987,4.6019897v0.6461792
	H0.6420288H0.5350342V4.4871826h0.7561646V4.6019897z M9.4522095,12.7005005v0.7610474H8.6960449v-0.1077271v-0.6533203h0.6420898
	H9.4522095z M8.4820557,12.1620483H8.1610107v0.3302612H1.8262329v-0.3302612h-0.328186V5.7866211h0.328186V5.463562h2.8285522
	v2.7497559H4.0127563v1.8379517h1.8262329V9.4050903h2.6430664V12.1620483z M8.4820557,5.7866211v2.756958H5.8389893V8.2133179
	h-0.328186V5.463562h2.6502075v0.3230591H8.4820557z M5.3039551,8.75177v0.6533203v0.1077271H4.5477905V8.75177h0.1069946H5.3039551
	z M12.494812,8.2133179h-0.3210449v0.3302612H9.3381348v-2.756958h0.6491089V3.9487305H8.1610107v0.6532593H5.5108032V1.8379517
	h0.328186V1.5148315h6.3347778v0.3231201h0.3210449V8.2133179z M8.6960449,5.2481689V4.6019897V4.4871826h0.7561646v0.7609863
	H9.3381348H8.6960449z M13.4649658,8.75177v0.7610474h-0.7561646V9.4050903V8.75177h0.6420288H13.4649658z M12.7088013,1.2994995
	V0.6533203V0.5384521h0.7561646v0.7610474h-0.1141357H12.7088013z"/>
</svg>
