<?xml version="1.0" encoding="utf-8"?>
<!-- Generator: Adobe Illustrator 19.1.0, SVG Export Plug-In . SVG Version: 6.00 Build 0)  -->
<svg version="1.1" id="unmute" xmlns="http://www.w3.org/2000/svg" xmlns:xlink="http://www.w3.org/1999/xlink" x="0px" y="0px"
	 viewBox="0 0 14 14" style="enable-background:new 0 0 14 14;" xml:space="preserve">
<path d="M7.0257325,10.1977797c0.1967602-0.0028296,0.36239,0.0537901,0.5195198,0.1712799
	c1.5599599,1.1763401,3.1213298,2.3512602,4.6812901,3.5261898c0.04247,0.0325508,0.08918,0.0622807,0.1514702,0.1047506
	c0-3.2204199,0.0084896-13.1563196,0.0084896-14c-0.0764399,0.05238-0.1217403,0.08352-0.1656199,0.11608
	c-1.4608698,1.0999-2.9245691,2.19696-4.3797798,3.30252C7.6400924,3.57007,7.4334226,3.6366,7.1828628,3.63518
	c-1.6321502-0.0056601-3.2628899-0.00424-4.89505-0.00282c-0.4317501,0.00141-0.67381,0.2349801-0.67381,0.6539898
	c-0.00142,1.7609701-0.00142,3.5233598,0,5.2843299c0.00142,0.3779602,0.2519699,0.62568,0.63134,0.6285105
	C2.5918076,10.2018957,6.5670924,10.2048597,7.0257325,10.1977797z"/>
</svg>
