<?xml version="1.0" encoding="utf-8"?>
<!-- Generator: Adobe Illustrator 19.1.0, SVG Export Plug-In . SVG Version: 6.00 Build 0)  -->
<svg version="1.1" id="upload" xmlns="http://www.w3.org/2000/svg" xmlns:xlink="http://www.w3.org/1999/xlink" x="0px" y="0px"
	 viewBox="0 0 14 14" style="enable-background:new 0 0 14 14;" xml:space="preserve">
<path d="M7.03125,2.015625c-0.0751953,0-0.1452637,0.0175781-0.2119751,0.0411987
	C6.7335815,2.0841064,6.6521606,2.1254883,6.5847168,2.1929321L2.5286574,6.2498784
	c-0.2327881,0.2328491-0.2254639,0.618103,0.0163574,0.8599854C2.7868972,7.351685,3.1721511,7.3590093,3.4049392,7.1261601
	l3.0061936-3.0070806l-0.03125,9.2839355C6.3798828,13.7325439,6.6577148,14,7,14s0.6201172-0.2674561,0.6201172-0.5969849
	l0.03125-9.2474976l2.9418669,2.9494386c0.2330322,0.2330322,0.6185913,0.225708,0.8606567-0.0163574
	c0.2420044-0.2420044,0.2493286-0.6276245,0.0163574-0.8605957l-3.931613-3.9391847
	C7.3546877,2.1143799,7.2467651,2.015625,7.03125,2.015625z M9.6777544,1.2404175v0.000061L2.5022175,1.2402344
	c-0.3295288,0-0.5969847-0.277832-0.5969847-0.6201172S2.1726887,0,2.5022175,0l2.2366335,0.000061V0l7.1755977,0.0002441
	c0.3295288,0,0.5969849,0.277832,0.5969849,0.6201172s-0.2674561,0.6201172-0.5969849,0.6201172L9.6777544,1.2404175z"/>
</svg>
