<?xml version="1.0" encoding="utf-8"?>
<!-- Generator: Adobe Illustrator 19.1.0, SVG Export Plug-In . SVG Version: 6.00 Build 0)  -->
<svg version="1.1" id="uri" xmlns="http://www.w3.org/2000/svg" xmlns:xlink="http://www.w3.org/1999/xlink" x="0px" y="0px"
	 viewBox="0 0 14 14" style="enable-background:new 0 0 14 14;" xml:space="preserve">
<path id="_x3C_Compound_Path_x3E__1_" d="M10.6045618,7.6729984l2.5979996-2.5979996
	c1.0629997-1.0629997,1.0629997-2.7929993-0.0009995-3.855999L12.779561,0.796999
	c-1.0629997-1.0629997-2.7919998-1.0629997-3.855999,0L6.3265624,3.3949986
	C5.7395625,3.980999,5.4775634,4.770998,5.5385623,5.5389996C4.7705626,5.4779987,3.9805617,5.7409992,3.3945632,6.3269997
	L0.7975631,8.9249992c-1.0629997,1.0629997-1.0629997,2.7929993,0,3.8560009L1.219564,13.203001
	c1.0629997,1.0629997,2.7929993,1.0629997,3.855999,0l2.5970001-2.5979996c0.586-0.5869999,0.8489985-1.3759995,0.7879996-2.144001
	C9.2285624,8.5219975,10.0175619,8.2589989,10.6045618,7.6729984z M6.7545619,9.6869984l-2.5979996,2.5979996
	c-0.5569992,0.5569992-1.4629993,0.5569992-2.0189991,0l-0.4220009-0.4220009c-0.5569992-0.5569992-0.5569992-1.4629993,0-2.0200005
	L4.3135619,7.244997C4.785562,6.7729969,5.5065627,6.7009964,6.0545611,7.0269966L4.9785609,8.1039963
	c-0.2539997,0.2530003-0.2539997,0.6650009,0,0.9179993c0.2530003,0.2530003,0.6650009,0.2530003,0.9179993,0l1.0769997-1.0769997
	C7.2975631,8.4939976,7.2255626,9.2159977,6.7545619,9.6869984z M7.9455619,6.9719982l1.0759997-1.0769997
	c0.2530003-0.2530003,0.2530003-0.6639996,0-0.9179993s-0.6639996-0.2539997-0.9179993,0L7.0275626,6.0539989
	C6.700563,5.5059986,6.7735629,4.7839985,7.2445617,4.3129997l2.5979991-2.5979996
	c0.5569992-0.5569992,1.4629993-0.5569992,2.0200005,0l0.4220009,0.4220009c0.5559998,0.5569992,0.5559998,1.4629993,0,2.0200005
	L9.6865625,6.7550011C9.2145624,7.2259979,8.4935617,7.2979984,7.9455619,6.9719982z"/>
</svg>
