<?xml version="1.0" encoding="utf-8"?>

<!--
 * Copyright (c) 2015, WSO2 Inc. (http://www.wso2.org) All Rights Reserved.
 *
 * WSO2 Inc. licenses this file to you under the Apache License,
 * Version 2.0 (the "License"); you may not use this file except
 * in compliance with the License.
 * You may obtain a copy of the License at
 *
 * http://www.apache.org/licenses/LICENSE-2.0
 *
 * Unless required by applicable law or agreed to in writing,
 * software distributed under the License is distributed on an
 * "AS IS" BASIS, WITHOUT WARRANTIES OR CONDITIONS OF ANY
 * KIND, either express or implied. See the License for the
 * specific language governing permissions and limitations
 * under the License.
-->

<svg version="1.1" id="usb-drive" xmlns="http://www.w3.org/2000/svg" xmlns:xlink="http://www.w3.org/1999/xlink" x="0px" y="0px"
	 viewBox="0 0 14 14" style="enable-background:new 0 0 14 14;" xml:space="preserve">
<path d="M10.7,5.2v3.8H14V5.2H10.7z M13.5,8.3h-0.7V7.8h0.7V8.3z M13.5,6.4h-0.7V5.9h0.7V6.4z M0,4.3v5.4h10.1V4.3H0z M8,7.5V7.2
	H4.7c0.1,0,0.1,0.1,0.2,0.1C5,7.5,5.1,7.7,5.2,7.8C5.3,8,5.6,8.1,5.7,8.2h0.7V7.8h1v1h-1V8.5c0,0-0.6,0-0.7,0C5.4,8.5,5.2,8.2,5,8
	C4.9,7.8,4.7,7.5,4.5,7.4C4.4,7.3,4.2,7.2,4,7.2H2.6C2.5,7.5,2.2,7.8,1.9,7.8C1.4,7.8,1.1,7.4,1.1,7c0-0.4,0.3-0.7,0.7-0.7
	c0.4,0,0.7,0.3,0.7,0.6H3c0.1,0,0.2-0.1,0.2-0.1c0.2-0.1,0.3-0.2,0.5-0.3c0.3-0.3,0.5-0.7,0.9-0.8l0,0h0.8c0.1-0.2,0.2-0.4,0.5-0.4
	c0.3,0,0.5,0.2,0.5,0.5C6.2,6,6,6.3,5.8,6.3c-0.2,0-0.4-0.1-0.5-0.3H4.6c0,0-0.1,0-0.1,0C4.4,6,4.3,6.1,4.2,6.2
	C4.1,6.3,4,6.4,3.9,6.6C3.8,6.7,3.6,6.8,3.5,6.9H8V6.6l0.5,0.2L9,7L8.5,7.2L8,7.5z"/>
</svg>
