<?xml version="1.0" encoding="utf-8"?>

<!--
 * Copyright (c) 2015, WSO2 Inc. (http://www.wso2.org) All Rights Reserved.
 *
 * WSO2 Inc. licenses this file to you under the Apache License,
 * Version 2.0 (the "License"); you may not use this file except
 * in compliance with the License.
 * You may obtain a copy of the License at
 *
 * http://www.apache.org/licenses/LICENSE-2.0
 *
 * Unless required by applicable law or agreed to in writing,
 * software distributed under the License is distributed on an
 * "AS IS" BASIS, WITHOUT WARRANTIES OR CONDITIONS OF ANY
 * KIND, either express or implied. See the License for the
 * specific language governing permissions and limitations
 * under the License.
-->

<svg version="1.1" id="usb-drive" xmlns="http://www.w3.org/2000/svg" xmlns:xlink="http://www.w3.org/1999/xlink" x="0px" y="0px"
	 viewBox="0 0 14 14" style="enable-background:new 0 0 14 14;" xml:space="preserve">
<path d="M12.7511034,7.7558908v0.5058908h0.7378511V7.7558908H12.7511034z M12.7511034,5.884758v0.5058913h0.7378511
	V5.884758H12.7511034z M5.7555227,5.2787199c-0.2275405,0-0.418263,0.1561117-0.4712811,0.366715H4.5228276L4.5080996,5.649116
	C4.1097193,5.7448444,3.8917522,6.1513247,3.6185563,6.4193664C3.4808536,6.5541234,3.318851,6.6564798,3.1620018,6.7662001
	C3.1170821,6.8008108,3.0287178,6.84131,2.9572892,6.8707657H2.5810008
	C2.5125175,6.5327692,2.2135482,6.2779822,1.8549329,6.2779822c-0.4086894,0-0.7407956,0.3313704-0.7407956,0.7407956
	c0,0.4086895,0.3313702,0.7407956,0.7407956,0.7407956c0.3586153,0,0.6583203-0.254787,0.7260679-0.5935197h1.4293075
	c0.1428576,0,0.346097,0.1296029,0.4594998,0.2069221C4.6973486,7.5268784,4.8534603,7.75,5.0198817,7.9635501
	C5.1951399,8.1888809,5.4131069,8.4547138,5.720912,8.4635506C5.7739315,8.465024,6.3792324,8.4495602,6.3792324,8.4576607
	v0.3497791H7.382915V7.8037572H6.3792324V8.192564H5.6671581C5.5810013,8.1314449,5.344625,7.9525051,5.2290144,7.801548
	C5.1480122,7.6962461,5.0022097,7.4952145,4.8306341,7.3067017C4.782033,7.2544198,4.7312231,7.2087641,4.6774673,7.1667895
	H8.006628v0.2960243l0.4955816-0.2216501l0.4955816-0.2216501L8.5022097,6.797864L8.006628,6.5754781v0.2967596H3.5368197
	C3.6458039,6.7779813,3.753315,6.6660519,3.854198,6.5555954c0.1332841-0.1458025,0.254787-0.2893958,0.3394699-0.381443
	c0.107511-0.1163483,0.2061863-0.184094,0.2754054-0.2216496c0.0346107-0.0191455,0.0618558-0.0301919,0.088366-0.0405011h0.7326956
	c0.0625916,0.1980848,0.246686,0.3424153,0.4653902,0.3424153c0.2695136,0,0.4874821-0.217967,0.4874821-0.4874821
	C6.2437406,5.4966869,6.0250373,5.2787199,5.7555227,5.2787199z M10.6944036,5.1586905H14v3.7680416h-3.3055964V5.1586905z
	 M1.3122234,4.2772465h7.4860086c0.7253323,0,1.3122234,0.5883651,1.3122234,1.3122234v2.8210602
	c0,0.7253313-0.5876293,1.3122234-1.3122234,1.3122234H1.3122234C0.5868924,9.7227535,0,9.1351242,0,8.4105301V5.5894699
	C0.0000007,4.8648758,0.5876291,4.2772465,1.3122234,4.2772465z"/>
</svg>
