<?xml version="1.0" encoding="utf-8"?>
<!-- Generator: Adobe Illustrator 19.1.0, SVG Export Plug-In . SVG Version: 6.00 Build 0)  -->
<svg version="1.1" id="user" xmlns="http://www.w3.org/2000/svg" xmlns:xlink="http://www.w3.org/1999/xlink" x="0px" y="0px"
	 viewBox="0 0 14 14" style="enable-background:new 0 0 14 14;" xml:space="preserve">
<style type="text/css">
	.st0{fill:#010101;}
</style>
<path class="st0" d="M6.7513928,14c-2.8167846,0-5.2923069,0-5.4602165,0c-0.3437499,0-0.5995098-0.3583326-0.5995098-0.3583326
	c-1.5312494-1.7468748,2.1000001-3.1000004,2.1000001-3.1000004c0.5999999-0.1999998,0.885072-0.3416672,1.4850719-0.6416674
	c0.9000001-0.3999996,1.1999998-1.5,0.8000002-2.3000002C4.7767391,7,4.5767388,6.4000001,4.376739,5.8000002
	c-0.0999999-0.2000003-0.1999998-0.4000001-0.3000002-0.5c-0.3999999-0.5-0.3999999-1.0999999,0-1.7c0-0.2,0-0.4000001,0-0.6000001
	c0-1.9,1.3757634-3.0999999,2.8757634-3c1.5-0.1,2.9707584,1.1,2.9707584,3c0,0.2,0,0.4000001,0,0.6000001
	c0.4000006,0.6000001,0.4000006,1.2,0,1.7c-0.1000004,0.0999999-0.1999998,0.2999997-0.3000002,0.5
	C9.4232607,6.4000001,9.2232609,7,8.9232607,7.5999994C8.5232611,8.3999996,8.8232613,9.5,9.7232609,9.8999996
	c0.6000004,0.3000002,0.9267397,0.4416676,1.5267391,0.6416674c0,0,3.6312494,1.3531256,2.1000004,3.1000004
	c0,0-0.2611523,0.3583326-0.6049023,0.3583326c-0.1679096,0-3.2938776,0-6.110662,0H6.7513928z"/>
</svg>
