<?xml version="1.0" encoding="utf-8"?>

<!--
 * Copyright (c) 2015, WSO2 Inc. (http://www.wso2.org) All Rights Reserved.
 *
 * WSO2 Inc. licenses this file to you under the Apache License,
 * Version 2.0 (the "License"); you may not use this file except
 * in compliance with the License.
 * You may obtain a copy of the License at
 *
 * http://www.apache.org/licenses/LICENSE-2.0
 *
 * Unless required by applicable law or agreed to in writing,
 * software distributed under the License is distributed on an
 * "AS IS" BASIS, WITHOUT WARRANTIES OR CONDITIONS OF ANY
 * KIND, either express or implied. See the License for the
 * specific language governing permissions and limitations
 * under the License.
-->

<svg version="1.1" id="Capa_1" xmlns="http://www.w3.org/2000/svg" xmlns:xlink="http://www.w3.org/1999/xlink" x="0px" y="0px"
	 viewBox="917.779 -0.075 14.563 14" enable-background="new 917.779 -0.075 14.563 14" xml:space="preserve">
<g>
	<path d="M925.06,2.158c-3.218,0-5.992,1.897-7.267,4.635c-0.039,0.083-0.039,0.18,0,0.265c1.274,2.738,4.048,4.635,7.267,4.635
		s5.992-1.897,7.267-4.635c0.039-0.083,0.039-0.18,0-0.265C931.053,4.055,928.279,2.158,925.06,2.158z M925.06,10.215
		c-1.817,0-3.289-1.473-3.289-3.289c0-1.817,1.473-3.289,3.289-3.289c1.817,0,3.289,1.473,3.289,3.289S926.876,10.215,925.06,10.215
		z"/>
	<circle cx="925.06" cy="6.924" r="2.105"/>
</g>
</svg>
