<?xml version="1.0" encoding="utf-8"?>

<!--
 * Copyright (c) 2015, WSO2 Inc. (http://www.wso2.org) All Rights Reserved.
 *
 * WSO2 Inc. licenses this file to you under the Apache License,
 * Version 2.0 (the "License"); you may not use this file except
 * in compliance with the License.
 * You may obtain a copy of the License at
 *
 * http://www.apache.org/licenses/LICENSE-2.0
 *
 * Unless required by applicable law or agreed to in writing,
 * software distributed under the License is distributed on an
 * "AS IS" BASIS, WITHOUT WARRANTIES OR CONDITIONS OF ANY
 * KIND, either express or implied. See the License for the
 * specific language governing permissions and limitations
 * under the License.
-->

<svg version="1.1" id="vpn" xmlns="http://www.w3.org/2000/svg" xmlns:xlink="http://www.w3.org/1999/xlink" x="0px" y="0px"
	 viewBox="0 0 14 14" style="enable-background:new 0 0 14 14;" xml:space="preserve">
<path d="M9.2,3.4H8.3V2.2c0-0.7-0.6-1.3-1.3-1.3S5.7,1.5,5.7,2.2v1.2H4.9V2.2C4.9,1,5.8,0,7,0s2.2,1,2.2,2.2V3.4z M10.1,3.8H3.9
	l0,4.4h6.2L10.1,3.8z M7.3,5.7v1.2H6.7V5.7C6.6,5.6,6.5,5.4,6.5,5.2c0-0.3,0.2-0.5,0.5-0.5s0.5,0.2,0.5,0.5C7.5,5.4,7.4,5.6,7.3,5.7
	z M2.4,14L0.7,9.5h1l1.2,3.4L4,9.5h1L3.3,14H2.4z M5.4,14V9.5h1.5c0.6,0,0.9,0,1.1,0.1C8.2,9.6,8.5,9.7,8.6,10
	c0.2,0.2,0.3,0.5,0.3,0.9c0,0.3-0.1,0.5-0.2,0.7c-0.1,0.2-0.2,0.3-0.4,0.4c-0.2,0.1-0.3,0.2-0.5,0.2c-0.2,0-0.5,0.1-1,0.1H6.3V14
	H5.4z M6.3,10.2v1.3h0.5c0.4,0,0.6,0,0.7-0.1c0.1,0,0.2-0.1,0.3-0.2C7.9,11.1,8,11,8,10.9c0-0.2,0-0.3-0.1-0.4
	c-0.1-0.1-0.2-0.2-0.4-0.2c-0.1,0-0.3,0-0.7,0H6.3z M9.7,14V9.5h0.9l1.9,3v-3h0.9V14h-0.9l-1.8-3v3H9.7z"/>
</svg>
