<?xml version="1.0" encoding="utf-8"?>
<!-- Generator: Adobe Illustrator 19.1.0, SVG Export Plug-In . SVG Version: 6.00 Build 0)  -->
<svg version="1.1" id="vpn" xmlns="http://www.w3.org/2000/svg" xmlns:xlink="http://www.w3.org/1999/xlink" x="0px" y="0px"
	 viewBox="0 0 14 14" style="enable-background:new 0 0 14 14;" xml:space="preserve">
<path d="M9.4639997,3.484h-0.901V2.283c0-0.721-0.6009998-1.322-1.322-1.322S5.9200001,1.562,5.9200001,2.283v1.2020001h-0.901
	V2.283C5.0190001,1.021,5.98,0,7.2410002,0s2.2230005,1.021,2.2230005,2.223C9.4640007,2.223,9.4640007,3.484,9.4639997,3.484z
	 M10.4250002,7.9299998V4.3860002c0-0.2399998-0.2399998-0.4809999-0.4809999-0.4809999H4.5380001
	c-0.3000002,0-0.4809999,0.1799998-0.4809999,0.4809999v3.5439997c0,0.2400002,0.1799998,0.4810004,0.4809999,0.4810004h5.4069996
	C10.2449999,8.4110003,10.4250002,8.1700001,10.4250002,7.9299998z M7.5419998,5.888v1.2620001H6.941V5.888
	C6.8210001,5.7680001,6.7010002,5.5879998,6.7010002,5.4070001c0-0.3000002,0.2399998-0.5409999,0.5409999-0.5409999
	S7.783,5.1059999,7.783,5.4070001C7.7820001,5.5869999,7.6620002,5.7670002,7.5419998,5.888z M3.4927986,11.4689617
	c-0.1727638,0.5060186-0.3502481,1.0375271-0.4861934,1.5426025c-0.128865-0.5145159-0.2940762-1.044136-0.4545672-1.5473232
	L1.8024503,9.0936947L1.7868732,9.0427151H0.9622324l1.6020784,4.9072495L2.5808318,14h0.7887664l1.7384956-4.8600464
	l0.0344586-0.0972385H4.3231039L3.4927986,11.4689617z M6.7502947,9.0068407c-0.4281335,0-0.833137,0.0320978-1.204155,0.093462
	L5.4852476,9.1106873V14h0.7665811v-1.9117317c0.1383052,0.0236015,0.290772,0.0273781,0.4267173,0.0273781
	c0.6481004,0,1.1890497-0.1963654,1.5227766-0.5513344c0.2596178-0.26717,0.3917875-0.6306353,0.3917875-1.0781221
	c0-0.435214-0.1586037-0.8128395-0.4451275-1.0601845C7.8402181,9.1484499,7.3700733,9.0068407,6.7502947,9.0068407z
	 M6.6927071,11.4699059c-0.1822047,0-0.3275909-0.0113287-0.4408784-0.0349302V9.6809025
	c0.1194239-0.0226574,0.304461-0.0358744,0.5126271-0.0358744c0.3965073,0,1.0620732,0.1123438,1.0620732,0.8694839
	C7.826529,11.1215458,7.4135003,11.4699059,6.6927071,11.4699059z M12.3070612,9.0427151v2.0863829
	c0,0.5853205,0.0084963,1.1026688,0.0453148,1.6407852c-0.2020292-0.4040594-0.4389896-0.8185043-0.7174892-1.2584381
	l-1.5426016-2.4347439l-0.0217142-0.0339861H9.2803888V14h0.7307062v-2.1288662c0-0.675951-0.0103846-1.1885786-0.0339861-1.6889324
	c0.1954212,0.3870668,0.4446545,0.8213367,0.7703571,1.3424606l1.5284414,2.4413519L12.2966766,14h0.7410908V9.0427151H12.3070612z"
	/>
</svg>
