<?xml version="1.0" encoding="utf-8"?>
<!-- Generator: Adobe Illustrator 19.1.0, SVG Export Plug-In . SVG Version: 6.00 Build 0)  -->
<svg version="1.1" id="wadl" xmlns="http://www.w3.org/2000/svg" xmlns:xlink="http://www.w3.org/1999/xlink" x="0px" y="0px"
	 viewBox="0 0 14 14" style="enable-background:new 0 0 14 14;" xml:space="preserve">
<path d="M12.6049805,5.210022h-0.2799683h-0.0400391V4.2700195V3.5400391V3.5200195l-0.75-0.7700195l-1.9599609-2
	L8.8850098,0.0500488L8.835022,0H8.1350098h-5.25C2.2449951,0,1.7249756,0.5200195,1.7249756,1.1600342V5.210022H1.6749878
	H1.4049683c-0.289978,0-0.5199585,0.2299805-0.5199585,0.5100098V9.210022c0,0.2800293,0.2299805,0.5100098,0.5199585,0.5100098
	h0.2700195h0.039978v3.1199951C1.7149658,13.4800415,2.2349854,14,2.875,14h8.2399902
	c0.6400146,0,1.1599731-0.5199585,1.1599731-1.1599731V9.7200317h0.0500488h0.2799683
	c0.2900391,0,0.5100098-0.2299805,0.5100098-0.5100098V5.7200317C13.1149902,5.4400024,12.8950195,5.210022,12.6049805,5.210022z
	 M11.8549805,8.7000122h-0.3300171h-1.2099609V6.2400513H10.875v2h0.6599731h0.3200073V8.7000122z M2.4749756,1.1600342
	C2.4749756,0.9400024,2.6549683,0.75,2.8850098,0.75h5.25v2.3500366c0,0.6400146,0.5199585,1.1699829,1.1599731,1.1699829h2.2399902
	V5.210022H2.4749756V1.1600342z M9.9450073,7.4100342c0,0.4699707-0.1700439,0.7999878-0.4000244,1
	C9.2849731,8.6300049,8.8850098,8.7300415,8.3950195,8.7300415c-0.2900391,0-0.4900513-0.0200195-0.6300049-0.0400391V6.2700195
	c0.2099609-0.039978,0.4699707-0.0499878,0.75-0.0499878c0.4699707,0,0.7799683,0.0700073,1.0199585,0.25
	C9.7849731,6.6600342,9.9450073,6.9700317,9.9450073,7.4100342z M2.4749756,6.2300415h0.2399902L2.9049683,7.25
	c0.0500488,0.3000488,0.1100464,0.6100464,0.1500244,0.8700562c0.039978-0.2700195,0.0999756-0.5700073,0.1599731-0.8800049
	l0.210022-1.0100098h0.5999756l0.1900024,1.039978c0.0599976,0.2900391,0.1000366,0.5599976,0.1400146,0.8300171
	c0.0400391-0.2700195,0.0900269-0.5599976,0.1500244-0.8599854l0.2000122-1.0100098h0.5599976L4.6350098,8.7000122H4.0249634
	L3.8150024,7.6400146c-0.0400391-0.25-0.0800171-0.4799805-0.1099854-0.7600098H3.6950073
	C3.6549683,7.1600342,3.6149902,7.3900146,3.5549927,7.6400146L3.3150024,8.7000122H2.7050171l-0.2400513-1L2.125,6.2300415
	H2.4749756z M5.9349976,6.2300415H6.664978l0.7700195,2.4699707H6.835022L6.6450195,8.0700073h-0.710022L5.7650146,8.7000122
	H5.1849976L5.9349976,6.2300415z M11.5249634,12.8400269c0,0.2200317-0.1799927,0.4099731-0.4099731,0.4099731H2.875
	c-0.2299805,0-0.4100342-0.1899414-0.4100342-0.4099731V9.7200317h9.0599976V12.8400269z M9.3549805,7.4300537
	c0,0.5899658-0.3300171,0.8699951-0.8399658,0.8599854c-0.0700073,0-0.1500244,0-0.1900024-0.0100098V6.6700439
	c0.039978-0.0100098,0.1300049-0.0200195,0.25-0.0200195C9.0549927,6.6500244,9.3549805,6.9000244,9.3549805,7.4300537z
	 M6.5549927,7.6500244h-0.539978L6.164978,7.1300049c0.0400391-0.1399536,0.0800171-0.3299561,0.1099854-0.4799805h0.0100098
	c0.0400391,0.1400146,0.0800171,0.3300171,0.1199951,0.4799805L6.5549927,7.6500244z M6.9384561,11.6372738l1.4560552-0.7336273
	v0.4516258l-0.0292969,0.014842l-0.9482427,0.4516268l0.9775395,0.4654083v0.4516268l-1.4843755-0.7484703v-0.3392496
	L6.9384561,11.6372738z M9.2128706,10.4552002h0.3945312L8.961894,12.8331299H8.5663862L9.2128706,10.4552002z
	 M11.1415815,11.6425753v0.3572721l-0.0292969,0.014842l-1.4550781,0.7240868v-0.4526863L9.68748,12.2723074l0.96875-0.4505663
	l-0.9990234-0.4654083v-0.4526863L11.1415815,11.6425753z"/>
</svg>
