<?xml version="1.0" encoding="utf-8"?>

<!--
 * Copyright (c) 2015, WSO2 Inc. (http://www.wso2.org) All Rights Reserved.
 *
 * WSO2 Inc. licenses this file to you under the Apache License,
 * Version 2.0 (the "License"); you may not use this file except
 * in compliance with the License.
 * You may obtain a copy of the License at
 *
 * http://www.apache.org/licenses/LICENSE-2.0
 *
 * Unless required by applicable law or agreed to in writing,
 * software distributed under the License is distributed on an
 * "AS IS" BASIS, WITHOUT WARRANTIES OR CONDITIONS OF ANY
 * KIND, either express or implied. See the License for the
 * specific language governing permissions and limitations
 * under the License.
-->

<svg version="1.1" id="wadl" xmlns="http://www.w3.org/2000/svg" xmlns:xlink="http://www.w3.org/1999/xlink" x="0px" y="0px"
	 viewBox="0 0 14 14" style="enable-background:new 0 0 14 14;" xml:space="preserve">
<path d="M10.5,11.4499998l-1.4499998,0.7200003v-0.4499998L9.0799999,11.71l0.9700003-0.4499998l-1-0.4700003v-0.4499998
	l1.4799995,0.7399998v0.3599997L10.5,11.4499998z M9,8.0200005C9.0799999,8,9.1400003,7.9699998,9.1999998,7.9200001
	C9.25,7.8800001,9.29,7.8000002,9.3199997,7.6999998c0.0300007-0.1099997,0.0500002-0.25,0.0500002-0.4299998
	S9.3500004,6.9499998,9.3199997,6.8499999C9.29,6.75,9.2399998,6.6799998,9.1800003,6.6300001
	C9.1300001,6.5700002,9.0500002,6.5300002,8.9700003,6.52C8.8999996,6.5,8.7700005,6.4899998,8.5799999,6.4899998h-0.21V8.04
	h0.3500004C8.8500004,8.04,8.9499998,8.04,9,8.0200005z M8.6000004,9.8900003L7.96,12.2700005h0.3900003L9,9.8900003H8.6000004z
	 M7.79,11.7200003l-0.98-0.46l0.9500003-0.4499998L7.79,10.79v-0.4499998l-1.46,0.7299995l-0.0299997,0.0200005v0.3400002
	L7.79,12.1700001V11.7200003z M6.1399999,7.5100002H6.77L6.4499998,6.6399999L6.1399999,7.5100002z M10.7399998,6.1199999V8.04
	h1.1700001v0.3999996h-1.6399994V6.1199999H10.7399998z M6.71,6.0999999l0.9299998,2.3399997H7.1300001L6.9299998,7.9000001
	H5.9899998L5.8000002,8.4399996h-0.5L6.21,6.0999999H6.71z M5,6.0999999h0.4699998L4.9099998,8.4399996H4.4000001l-0.46-1.7499995
	L3.47,8.4399996H2.96L2.4000001,6.0999999h0.49L3.24,7.6999998l0.4300001-1.5999999H4.23L4.6399999,7.73L5,6.0999999z
	 M10.8699999,12.8000002H3.1300001V9.5299997h7.7399998V12.8000002z M7.8899999,8.4399996V6.0999999h0.8700004
	c0.1899996,0,0.3400002,0.0100002,0.4399996,0.04C9.3400002,6.1799998,9.46,6.25,9.5500002,6.3600001
	c0.0999994,0.0999999,0.1799994,0.23,0.2299995,0.3799996C9.8299999,6.8899999,9.8599997,7.0700002,9.8599997,7.29
	c0,0.1900001-0.0299997,0.3600001-0.0799999,0.5C9.7299995,7.96,9.6400003,8.0900002,9.5299997,8.1999998
	C9.4499998,8.2799997,9.3400002,8.3400002,9.1999998,8.3900003C9.1000004,8.4200001,8.96,8.4399996,8.7799997,8.4399996H7.8899999z
	 M1.9299999,5.2199998H0.98v4.3099999h0.9499999V14h10.1300001V9.5299997h0.96V5.2199998h-0.96V3.26L8.6199999,0H1.9299999
	V5.2199998z M10.8699999,5.2199998H3.1300001V1.2H8.25v2.6099999h2.6199999V5.2199998z"/>
</svg>
