<?xml version="1.0" encoding="utf-8"?>
<!-- Generator: Adobe Illustrator 19.1.0, SVG Export Plug-In . SVG Version: 6.00 Build 0)  -->
<svg version="1.1" id="war" xmlns="http://www.w3.org/2000/svg" xmlns:xlink="http://www.w3.org/1999/xlink" x="0px" y="0px"
	 viewBox="0 0 14 14" style="enable-background:new 0 0 14 14;" xml:space="preserve">
<g>
	<path d="M7.1259766,10.3554688L6.2592773,12.90625h0.5092773l0.2329102-0.7226562h0.8588867L8.1044922,12.90625h0.5302734
		l-0.8789062-2.5507812H7.1259766z M7.081543,11.8320312l0.2089844-0.6289062
		c0.0478516-0.1513672,0.0883789-0.3291016,0.128418-0.4765625h0.0078125
		c0.0400391,0.1474609,0.0844727,0.3212891,0.1367188,0.4765625l0.2124023,0.6289062H7.081543z"/>
	<path d="M11.494751,2.75l-1.9599609-2L8.8447876,0.0499878L8.7947388,0H8.0947876H5.3837891h-0.5H2.8447876
		C2.2047729,0,1.6847534,0.5200195,1.6847534,1.1599731L1.6747437,12.8400269C1.6747437,13.4799805,2.1947632,14,2.8347778,14
		h8.2399902c0.6400146,0,1.1599731-0.5200195,1.1599731-1.1599731l0.0100098-8.5700073V3.539978V3.5200195L11.494751,2.75z
		 M11.2247925,3.5200195H9.2547607c-0.2299805,0-0.4099731-0.1900024-0.4099731-0.4200439V1.0900269L11.2247925,3.5200195z
		 M5.0839233,7.8933105c0.4060669,0,0.7352295,0.3291626,0.7352295,0.7352295S5.4899902,9.3638306,5.0839233,9.3638306
		S4.3486328,9.0346069,4.3486328,8.62854S4.6778564,7.8933105,5.0839233,7.8933105z M11.4847412,12.8400269
		c0,0.2199707-0.1799927,0.4099731-0.4099731,0.4099731H2.8347778c-0.2300415,0-0.4100342-0.1900024-0.4100342-0.4099731
		L2.4347534,1.1599731C2.4347534,0.9400024,2.6147461,0.75,2.8447876,0.75h2.0390015v0.6853027h-0.463562v0.472229h0.463562
		v0.5289307h-0.463562v0.472229h0.463562v0.5289307h-0.463562v0.472229h0.463562v0.5289917h-0.463562v0.472229h0.463562v0.5289307
		h-0.463562v0.472229h0.463562v0.5289307h-0.463562v0.472229h0.463562v0.4883423
		C4.2830811,7.5010986,3.8166504,7.9996948,3.8166504,8.62854c0,0.6998901,0.5673828,1.2672729,1.2672729,1.2672729
		S6.3511353,9.3284302,6.3511353,8.62854c0-0.5934448-0.4165039-1.0689087-0.9673462-1.206665V6.4193115h0.4615479v-0.472229
		H5.3837891V5.4180908h0.4615479v-0.472229H5.3837891V4.4169312h0.4615479v-0.472229H5.3837891V3.4157715h0.4615479v-0.472229
		H5.3837891V2.4145508h0.4615479v-0.472168H5.3837891V1.4133911h0.4615479v-0.472229H5.3837891V0.75h2.7109985v2.3499756
		c0,0.6400146,0.5199585,1.1700439,1.1599731,1.1700439h2.2399902L11.4847412,12.8400269z"/>
	<path d="M5.847168,10.3554688l-0.2807617,1.1542969c-0.0722656,0.3105469-0.1362305,0.6015625-0.1845703,0.8818359H5.3740234
		c-0.0405273-0.2763672-0.0966797-0.5595703-0.1645508-0.8623047l-0.269043-1.1738281H4.4228516l-0.2929688,1.1542969
		c-0.0761719,0.3222656-0.152832,0.625-0.1967773,0.8935547H3.925293c-0.0444336-0.2539062-0.1083984-0.5791016-0.1767578-0.8896484
		l-0.2568359-1.1582031H2.9658203L3.6279297,12.90625h0.5336914l0.3134766-1.1992188
		c0.0800781-0.2919922,0.1323242-0.5380859,0.1801758-0.8105469h0.0083008
		c0.0322266,0.2763672,0.0800781,0.5185547,0.1484375,0.8105469L5.0927734,12.90625h0.5297852l0.7265625-2.5507812H5.847168z"/>
	<path d="M9.0136719,12.90625h0.4892578v-1.0478516h0.2490234c0.28125,0.0068359,0.4091797,0.1132812,0.4853516,0.4462891
		c0.0761719,0.3173828,0.140625,0.5253906,0.1806641,0.6015625h0.5097656
		c-0.0566406-0.0986328-0.1289062-0.3935547-0.2128906-0.7109375c-0.0683594-0.2460938-0.1845703-0.4238281-0.3769531-0.4921875
		v-0.0117188c0.2529297-0.0869141,0.4892578-0.3105469,0.4892578-0.6396484c0-0.2158203-0.0839844-0.3935547-0.2324219-0.5107422
		c-0.1806641-0.1435547-0.4453125-0.2041016-0.8349609-0.2041016c-0.2851562,0-0.5615234,0.0224609-0.7460938,0.0527344V12.90625z
		 M9.5029297,10.7109375c0.0478516-0.0107422,0.1484375-0.0224609,0.3046875-0.0224609
		c0.3212891,0,0.5302734,0.1289062,0.5302734,0.4091797c0,0.2529297-0.2089844,0.4199219-0.5419922,0.4199219H9.5029297V10.7109375z
		"/>
</g>
</svg>
