<?xml version="1.0" encoding="utf-8"?>
<!-- Generator: Adobe Illustrator 19.2.0, SVG Export Plug-In . SVG Version: 6.00 Build 0)  -->
<svg version="1.1" id="war" xmlns="http://www.w3.org/2000/svg" xmlns:xlink="http://www.w3.org/1999/xlink" x="0px" y="0px"
	 viewBox="0 0 14 14" style="enable-background:new 0 0 14 14;" xml:space="preserve">
<path d="M8.6219482,0H1.9349976v14h10.1300049V3.2576294L8.6219482,0z M10.8649902,12.7999878H3.1350098V1.2000122h2.1437378
	v0.7364502h-0.463562v0.472229h0.463562v0.5289307h-0.463562v0.472229h0.463562v0.5289917h-0.463562v0.472229h0.463562v0.5289307
	h-0.463562v0.472229h0.463562v0.5289307h-0.463562v0.472229h0.463562v0.4883423
	C4.6780396,7.0010986,4.2116089,7.4996948,4.2116089,8.12854c0,0.6998901,0.5673828,1.2672729,1.2672729,1.2672729
	S6.7460938,8.8284302,6.7460938,8.12854c0-0.5934448-0.4165039-1.0689087-0.9673462-1.206665V5.9193115h0.4615479v-0.472229
	H5.7787476V4.9180908h0.4615479v-0.472229H5.7787476V3.9169312h0.4615479v-0.472229H5.7787476V2.9157715h0.4615479v-0.472229
	H5.7787476V1.9145508h0.4615479v-0.472168H5.7787476V1.2000122h2.4762573v2.6099854h2.6099854V12.7999878z M5.4788818,7.3933105
	c0.4060669,0,0.7352295,0.3291626,0.7352295,0.7352295S5.8849487,8.8638306,5.4788818,8.8638306
	S4.7435913,8.5346069,4.7435913,8.12854S5.0728149,7.3933105,5.4788818,7.3933105z M6.3969116,10.1982422l-0.53125,2.1884766
	h-0.46875l-0.4365234-1.6357422l-0.4345703,1.6357422H4.0473022l-0.5224609-2.1884766h0.4521484l0.3300781,1.5029297
	l0.3994141-1.5029297h0.5253906l0.3837891,1.5283203l0.3359375-1.5283203H6.3969116z M7.0834351,10.1982422L6.230896,12.3867188
	h0.46875l0.1806641-0.4970703h0.875l0.1904297,0.4970703h0.4814453l-0.8769531-2.1884766H7.0834351z M7.0160522,11.5205078
	l0.2958984-0.8115234l0.3007812,0.8115234H7.0160522z M9.1049194,11.4736328h0.0888672
	c0.1015625,0,0.1757812,0.0078125,0.2226562,0.0244141s0.0908203,0.046875,0.1328125,0.0908203
	s0.1201172,0.1513672,0.2333984,0.3212891l0.3193359,0.4765625h0.5283203l-0.2675781-0.4267578
	c-0.1054688-0.1699219-0.1894531-0.2890625-0.2509766-0.3554688c-0.0625-0.0664062-0.1416016-0.1279297-0.2373047-0.1835938
	c0.1923828-0.0283203,0.3369141-0.0957031,0.4335938-0.2021484c0.0966797-0.1074219,0.1445312-0.2431641,0.1445312-0.4072266
	c0-0.1289062-0.0322266-0.2441406-0.0957031-0.3447266s-0.1484375-0.1699219-0.2539062-0.2099609
	c-0.1064453-0.0390625-0.2763672-0.0585938-0.5097656-0.0585938H8.6625366v2.1884766h0.4423828V11.4736328z M9.1049194,10.5683594
	H9.449646c0.1787109,0,0.2861328,0.0029297,0.3222656,0.0078125c0.0712891,0.0117188,0.1269531,0.0400391,0.1660156,0.0859375
	c0.0400391,0.0449219,0.0595703,0.1044922,0.0595703,0.1777344c0,0.0664062-0.0146484,0.1210938-0.0449219,0.1650391
	c-0.0302734,0.0429688-0.0712891,0.0742188-0.1240234,0.0917969c-0.0527344,0.0185547-0.1845703,0.0273438-0.3964844,0.0273438
	H9.1049194V10.5683594z"/>
</svg>
