<?xml version="1.0" encoding="utf-8"?>

<!--
 * Copyright (c) 2015, WSO2 Inc. (http://www.wso2.org) All Rights Reserved.
 *
 * WSO2 Inc. licenses this file to you under the Apache License,
 * Version 2.0 (the "License"); you may not use this file except
 * in compliance with the License.
 * You may obtain a copy of the License at
 *
 * http://www.apache.org/licenses/LICENSE-2.0
 *
 * Unless required by applicable law or agreed to in writing,
 * software distributed under the License is distributed on an
 * "AS IS" BASIS, WITHOUT WARRANTIES OR CONDITIONS OF ANY
 * KIND, either express or implied. See the License for the
 * specific language governing permissions and limitations
 * under the License.
-->

<svg version="1.1" id="war" xmlns="http://www.w3.org/2000/svg" xmlns:xlink="http://www.w3.org/1999/xlink" x="0px" y="0px"
	 viewBox="0 0 14 14" enable-background="new 0 0 14 14" xml:space="preserve">
<path d="M2.1,7c0-1.9,0-3.9,0-5.8C2.1,0.4,2.5,0,3.2,0C5,0,6.8,0,8.6,0c0.1,0,0.2,0,0.3,0.1c1,1.1,2,2.3,2.9,3.4
	c0,0.1,0.1,0.1,0.1,0.2c0,3.1,0,6.1,0,9.2c0,0.6-0.5,1-1,1c-2.6,0-5.2,0-7.8,0c-0.6,0-1-0.5-1-1.1C2.1,11,2.1,9,2.1,7z M4.7,0.5
	c-0.5,0-1,0-1.5,0c-0.4,0-0.6,0.2-0.6,0.6c0,3.9,0,7.8,0,11.7c0,0.4,0.2,0.6,0.6,0.6c2.5,0,5.1,0,7.6,0c0.4,0,0.6-0.2,0.6-0.6
	c0-2.8,0-5.7,0-8.5c0-0.1,0-0.1,0-0.2c-0.1,0-0.1,0-0.2,0c-0.6,0-1.2,0-1.8,0c-0.7,0-1.1-0.4-1.1-1.1c0-0.8,0-1.6,0-2.4
	c0-0.1,0-0.1,0-0.2c-0.9,0-1.7,0-2.6,0c0,0.2,0,0.3,0,0.5c0.2,0,0.3,0,0.5,0c0,0.2,0,0.3,0,0.5c-0.2,0-0.3,0-0.5,0
	c0,0.2,0,0.3,0,0.5c0.2,0,0.3,0,0.5,0c0,0.2,0,0.3,0,0.5c-0.2,0-0.3,0-0.5,0c0,0.2,0,0.3,0,0.5c0.2,0,0.3,0,0.5,0c0,0.2,0,0.3,0,0.5
	c-0.2,0-0.3,0-0.5,0c0,0.2,0,0.3,0,0.5c0.2,0,0.3,0,0.5,0c0,0.2,0,0.3,0,0.5c-0.2,0-0.3,0-0.5,0c0,0.2,0,0.3,0,0.5
	c0.2,0,0.3,0,0.5,0c0,0.2,0,0.3,0,0.5c-0.2,0-0.3,0-0.5,0c0,0.2,0,0.3,0,0.5c0.2,0,0.3,0,0.5,0c0,0.2,0,0.3,0,0.5
	c-0.2,0-0.3,0-0.5,0c0,0.4,0,0.7,0,1c0.7,0.2,1.1,0.8,1,1.4c-0.1,0.6-0.6,1.1-1.2,1.1c-0.6,0-1.2-0.4-1.3-1c-0.1-0.3,0-0.6,0.1-0.9
	c0.2-0.4,0.5-0.6,0.9-0.7c0-0.2,0-0.4,0-0.5c-0.2,0-0.3,0-0.5,0c0-0.2,0-0.3,0-0.5c0.2,0,0.3,0,0.5,0c0-0.2,0-0.3,0-0.5
	c-0.2,0-0.3,0-0.5,0c0-0.2,0-0.3,0-0.5c0.2,0,0.3,0,0.5,0c0-0.2,0-0.3,0-0.5c-0.2,0-0.3,0-0.5,0c0-0.2,0-0.3,0-0.5
	c0.2,0,0.3,0,0.5,0c0-0.2,0-0.3,0-0.5c-0.2,0-0.3,0-0.5,0c0-0.2,0-0.3,0-0.5c0.2,0,0.3,0,0.5,0c0-0.2,0-0.3,0-0.5
	c-0.2,0-0.3,0-0.5,0c0-0.2,0-0.3,0-0.5c0.2,0,0.3,0,0.5,0c0-0.2,0-0.3,0-0.5c-0.2,0-0.3,0-0.5,0c0-0.2,0-0.3,0-0.5
	c0.2,0,0.3,0,0.5,0c0-0.2,0-0.3,0-0.5C5,1,4.8,1,4.7,1C4.7,0.9,4.7,0.7,4.7,0.5z M11.3,3.6c-0.8-1-1.6-1.9-2.4-2.8
	c0,0.8,0,1.6,0,2.4c0,0.3,0.2,0.5,0.5,0.5c0.4,0,0.8,0,1.2,0C10.8,3.6,11,3.6,11.3,3.6z M6.2,9.1c0-0.4-0.3-0.8-0.8-0.8
	C5,8.3,4.7,8.6,4.7,9.1c0,0.4,0.3,0.8,0.8,0.8C5.9,9.9,6.2,9.5,6.2,9.1z M4.1,13.2l-0.6-2.5h0.3l0.3,1.2c0.1,0.3,0.1,0.6,0.2,0.9h0
	c0-0.2,0.1-0.5,0.2-0.9l0.3-1.2h0.3l0.3,1.3c0.1,0.3,0.1,0.6,0.2,0.8h0c0.1-0.3,0.1-0.5,0.2-0.9l0.3-1.2h0.3l-0.7,2.5H5.5l-0.3-1.3
	c-0.1-0.3-0.1-0.6-0.2-0.8h0c0,0.2-0.1,0.5-0.2,0.8l-0.4,1.3H4.1z M7,12.4l-0.3,0.8H6.4l0.8-2.5h0.4l0.8,2.5H8.2l-0.3-0.8H7z
	 M7.8,12.1l-0.2-0.7c-0.1-0.2-0.1-0.3-0.1-0.4h0c0,0.1-0.1,0.3-0.1,0.4l-0.2,0.7H7.8z M8.9,10.7c0.2,0,0.4-0.1,0.6-0.1
	c0.3,0,0.6,0.1,0.7,0.2c0.1,0.1,0.2,0.3,0.2,0.5c0,0.3-0.2,0.5-0.5,0.6v0c0.2,0.1,0.3,0.2,0.4,0.5c0.1,0.3,0.1,0.6,0.2,0.7h-0.3
	c0-0.1-0.1-0.3-0.2-0.6c-0.1-0.3-0.2-0.5-0.5-0.5H9.2v1.1H8.9V10.7z M9.2,11.8h0.3c0.3,0,0.6-0.2,0.6-0.5c0-0.3-0.2-0.5-0.6-0.5
	c-0.2,0-0.3,0-0.3,0V11.8z"/>
</svg>
