<?xml version="1.0" encoding="utf-8"?>
<!-- Generator: Adobe Illustrator 19.1.0, SVG Export Plug-In . SVG Version: 6.00 Build 0)  -->
<svg version="1.1" id="web-service" xmlns="http://www.w3.org/2000/svg" xmlns:xlink="http://www.w3.org/1999/xlink" x="0px"
	 y="0px" viewBox="0 0 14 14" style="enable-background:new 0 0 14 14;" xml:space="preserve">
<path d="M13.7000122,9.8599854l-0.3099976-0.0200195l-0.1900024-0.0199585
	C13.1799927,9.7099609,13.1400146,9.5999756,13.0999756,9.5V9.4899902C13.0599976,9.3699951,13,9.25,12.9500122,9.1199951V9.1099854
	l0.0100098-0.0200195L13.25,8.7099609c0.0999756-0.1399536,0.0999756-0.289978,0-0.4400024l-0.0599976-0.0599976l-0.4899902-0.5
	c-0.0499878-0.0499878-0.1400146-0.0899658-0.2300415-0.0899658c-0.0699463,0-0.1499634,0.0299683-0.2199707,0.0899658
	l-0.3499756,0.3000488C11.7000122,7.9199829,11.4500122,7.8200073,11.25,7.7699585l-0.0200195-0.1799927l-0.0299683-0.25V7.3200073
	c-0.0100098-0.0500488-0.0300293-0.0900269-0.0499878-0.1300049c-0.0700073-0.1199951-0.1700439-0.1799927-0.2900391-0.1799927
	h-0.0899658H10.289978h-0.1799927c-0.1199951,0-0.2299805,0.0599976-0.2699585,0.1799927
	c-0.0200195,0.039978-0.0300293,0.0799561-0.0300293,0.1300049v0.0199585l-0.0299683,0.25L9.7600098,7.7699585
	c-0.25,0.0500488-0.4500122,0.1500244-0.7000122,0.2400513L8.7600098,7.7099609
	C8.6900024,7.6699829,8.6099854,7.6400146,8.539978,7.6400146c-0.0799561,0-0.1499634,0.0299683-0.2299805,0.0699463
	L7.7600098,8.3200073c-0.1000366,0.0999756-0.1000366,0.289978,0,0.4499512l0.25,0.3000488
	C8,9.0999756,7.9799805,9.1300049,7.9699707,9.1599731C7.8800049,9.3399658,7.7999878,9.5499878,7.710022,9.7699585
	L7.5999756,9.7799683L7.4199829,9.7999878L7.3431373,9.809804L7.3000002,9.8156862
	c-0.039978,0-0.0700197,0.0142698-0.099988,0.0242796c-0.1300049,0.0400391-0.1900024,0.1500244-0.1900024,0.2700195v0.289978
	v0.4000244v0.0599976c0,0.1199951,0.0599976,0.2299805,0.1900024,0.2700195
	c0.0299683,0.0199585,0.0686154,0.0190144,0.1099854,0.0299683l0.0351005,0.0047331l0.2548776,0.0252962l0.1600342,0.0199585
	c0.0499878,0.2900391,0.1499634,0.5,0.25,0.75L7.710022,12.2999878c-0.1000366,0.1599731-0.1000366,0.3099976,0,0.460022
	L7.75,12.7999878v0.0100098l0.2700195,0.2600098v0.0099487l0.2399902,0.2300415
	c0.039978,0.0299683,0.0899658,0.0599976,0.1400146,0.0700073c0.0299683,0.0199585,0.0599976,0.0199585,0.0899658,0.0199585
	c0.0700073,0,0.1400146-0.0199585,0.2000122-0.0799561c0.0100098,0,0.0100098,0,0.0200195-0.0100098L9.1099854,13
	c0.0900269,0.0499878,0.1799927,0.0899658,0.2800293,0.1300049c0.1300049,0.0499878,0.2600098,0.0999756,0.3699951,0.1300049
	l0.0200195,0.1599731l0.0299683,0.2800293c0,0.0999756,0.0599976,0.1999512,0.1500244,0.2399902
	C10,13.9799805,10.0599976,14,10.1099854,14h0.75C11,14,11.1500244,13.9099731,11.1500244,13.7000122l0.0899658-0.4000244
	L11.25,13.2600098c0.0300293-0.0100098,0.0499878-0.0200195,0.0800171-0.0300293c0.0100098,0,0.0199585,0,0.0299683-0.0100098
	C11.5200195,13.1699829,11.6900024,13.0899658,11.8499756,13L12.25,13.3099976
	c0.0800171,0.0499878,0.1500244,0.0700073,0.2299805,0.0700073c0.0700073,0,0.1500244-0.0200195,0.2200317-0.0700073
	L13.25,12.7600098c0.0999756-0.1100464,0.1500244-0.3000488,0-0.460022l-0.2999878-0.3900146
	c0.0599976-0.1199951,0.1199951-0.2399902,0.1599731-0.3800049c0.0400391-0.0799561,0.0700073-0.1699829,0.0900269-0.2699585
	L13.3099976,11.25l0.3900146-0.0400391C13.8499756,11.2099609,14,11.0499878,14,10.9199829v-0.75
	C14,10.1099854,13.9899902,10.0499878,13.9500122,10C13.9099731,9.9199829,13.8300171,9.8599854,13.7000122,9.8599854z
	 M9.2199707,10.5700073C9.210022,10.5499878,9.210022,10.5299683,9.210022,10.5100098
	c0-0.1400146,0.0199585-0.2800293,0.0700073-0.4100342C9.3599854,9.8699951,9.5100098,9.6699829,9.710022,9.5199585
	c0,0,0-0.0099487,0.0099487,0C9.75,9.4899902,9.7800293,9.4699707,9.8200073,9.4500122
	c0.0899658-0.0599976,0.1900024-0.1000366,0.289978-0.1300049c0.1099854-0.0300293,0.2300415-0.0500488,0.3500366-0.0500488
	c0.0499878,0,0.0899658,0,0.1300049,0.0100098c0.5899658,0.0599976,1.0499878,0.5200195,1.0999756,1.1100464
	c0.0100098,0.039978,0.0100098,0.0799561,0.0100098,0.1199951c0,0.2199707-0.0499878,0.4199829-0.1500244,0.5999756
	c-0.0700073,0.1300049-0.1599731,0.2399902-0.2699585,0.3400269c-0.1300049,0.1099854-0.2700195,0.1999512-0.4400024,0.2399902
	c-0.1200562,0.0499878-0.25,0.0700073-0.3800049,0.0700073c-0.2600098,0-0.5100098-0.1000366-0.7200317-0.2600098
	c-0.0100098-0.0100098-0.0299683-0.0200195-0.039978-0.0400391c0,0-0.0100098,0.0100098-0.0100098,0
	c-0.0999756-0.0699463-0.1799927-0.1699829-0.2600098-0.2699585c-0.039978-0.0599976-0.0700073-0.1199951-0.0999756-0.1799927
	C9.2999878,10.9400024,9.2700195,10.8800049,9.25,10.7999878V10.789978
	C9.2299805,10.7199707,9.2199707,10.6499634,9.2199707,10.5700073z M7.960022,13.7099609l-0.0200195-0.0199585l-0.0300293-0.0200195
	l-0.2399902-0.2299805l-0.1499634-0.1600342l-0.1400146-0.1399536l-0.039978-0.0400391l-0.0200195-0.0200195L7.289978,13.039978
	c-0.1999512-0.3099976-0.2099609-0.6799927,0-1L7.3099976,12l0.0300293-0.0300293v-0.2999878l-0.0599976-0.0100098
	c-0.1000366,0-0.2000122-0.0299683-0.2900391-0.0700073c-0.1400146-0.0599976-0.25-0.1499634-0.3300171-0.2699585v1.8599854
	C6.3300171,12.8999634,6.0200195,12.5799561,5.7399902,12.25c-0.539978-0.6300049-0.9699707-1.3300171-1.289978-2.0700073
	C4.710022,10.0999756,4.9799805,10.039978,5.25,9.9899902c0.1300049-0.0300293,0.2600098-0.0599976,0.3900146-0.0900269
	c0.3099976-0.0499878,0.6300049-0.0799561,0.9400024-0.0899658C6.6400146,9.5899658,6.8200073,9.4299927,7.039978,9.3599854
	c0.0800171-0.0200195,0.1500244-0.039978,0.2300415-0.039978l0.0899658-0.0100098
	C7.3800049,9.25,7.4000244,9.2000122,7.4199829,9.1499634L7.3828125,9.0968628L7.3400269,9.0299683
	c-0.210022-0.3299561-0.2000122-0.7399902,0-0.9899902V7.3399658h0.6299438L8,7.3099976l0.0900269-0.0499878
	C8.210022,7.2000122,8.3599854,7.1400146,8.539978,7.1400146c0.1900024,0,0.3600464,0.0699463,0.4700317,0.1399536
	l0.0499878,0.0300293l0.0300293,0.0299683h0.2099609L9.3099976,7.289978c0-0.0999756,0.0200195-0.2000122,0.0599976-0.289978
	c0.0599976-0.1400146,0.1500244-0.2600098,0.2700195-0.3400269H7.3400269V4.8900146
	c0.3799438-0.0200195,0.7599487-0.0600586,1.1399536-0.1200562c0.1600342-0.0299683,0.3300171-0.0699463,0.4899902-0.1099854
	C9.1300049,4.6300049,9.289978,4.5999756,9.4400024,4.5599976V4.5499878C9.5599976,4.5199585,9.6699829,4.5,9.789978,4.4599609
	C10,5.1199951,10.1400146,5.7999878,10.1799927,6.5100098h0.1099854h0.4800415h0.0899658
	c-0.039978-0.7800293-0.1799927-1.5500488-0.4299927-2.2800293C11.0200195,4,11.5900269,3.7000122,12.1300049,3.3299561
	c0.6799927,0.9500122,1.1099854,2.0900269,1.1799927,3.3300171h-1.9899902
	c0.1099854,0.0700073,0.2000122,0.1799927,0.2799683,0.3099976c0.0300293,0.0499878,0.0700073,0.1400146,0.1000366,0.2999878
	l0.0100098,0.0700073h0.2099609l0.0100098-0.0100098c0.1600342-0.1299438,0.3500366-0.2099609,0.539978-0.2099609
	c0.210022,0,0.4200439,0.0800171,0.5700073,0.2199707h0.2700195c-0.0100098,0.0800171-0.0100098,0.1700439-0.0200195,0.25
	l0.3200073,0.3300171l0.0300293,0.0300293l0.0299683,0.039978c0.1100464,0.1699829,0.1600342,0.3499756,0.1600342,0.5299683
	c0.0100098-0.0499878,0.0199585-0.0999756,0.039978-0.1599731c0.0300293-0.1400146,0.039978-0.289978,0.0599976-0.4400024
	c0.0100098-0.0800171,0.0300293-0.1699829,0.039978-0.25C13.9899902,7.4400024,14,7.2000122,14,6.9699707
	c0-0.3099976-0.0300293-0.6199951-0.0700073-0.9199829c-0.0100098-0.0599976-0.0200195-0.1199951-0.0299683-0.1799927
	C13.6699829,4.4299927,13,3.0999756,11.9500122,2.0499878c-1.1300049-1.1300049-2.5700073-1.8200073-4.1400146-2
	C7.5499878,0.0199585,7.289978,0,7.0300293,0H7H6.960022C6.9500122,0,6.9299927,0,6.9199829,0
	C6.7000122,0.0100098,6.4799805,0.0199585,6.2600098,0.039978c-0.0800171,0.0100098-0.1600342,0.0300293-0.25,0.039978
	C5.8599854,0.0999756,5.710022,0.1199951,5.5700073,0.1499634C5.5100098,0.1599731,5.460022,0.1799927,5.4099731,0.1900024
	c-0.1799927,0.039978-0.3499756,0.0799561-0.5199585,0.1300049C4.8699951,0.3299561,4.8499756,0.3399658,4.8300171,0.3499756
	C3.7800293,0.6900024,2.8200073,1.2699585,2.0300293,2.0799561C1.3900146,2.7199707,0.9000244,3.4599609,0.5599976,4.2600098
	C0.5499878,4.2799683,0.539978,4.2999878,0.539978,4.3099976C0.460022,4.4799805,0.4000244,4.6599731,0.3499756,4.8399658
	c-0.0199585,0.0400391-0.039978,0.0800171-0.0499878,0.1199951C0.25,5.1199951,0.2199707,5.2799683,0.1799927,5.4400024
	C0.1699829,5.5100098,0.1500244,5.5700073,0.1300049,5.6400146c-0.0300293,0.1399536-0.039978,0.289978-0.0599976,0.4399414
	C0.0599976,6.1599731,0.039978,6.25,0.0300293,6.3299561C0.0100098,6.5599976,0,6.7999878,0,7.0299683
	c0,0.3099976,0.0300293,0.6199951,0.0700073,0.9200439c0.0100098,0.0599976,0.0200195,0.1199951,0.0299683,0.1799927
	C0.3300171,9.5700073,1,10.8999634,2.0499878,11.9500122c1.1300049,1.1299438,2.5700073,1.8199463,4.1400146,2
	C6.4500122,13.9799805,6.710022,14,6.9699707,14H7c0.0100098,0,0.0300293,0,0.039978,0c0.0100098,0,0.0300293,0,0.0400391,0
	c0.2199707-0.0100098,0.4400024-0.0200195,0.6599731-0.0400391c0.0800171-0.0099487,0.1600342-0.0299683,0.25-0.039978
	c0.1099854-0.0100098,0.210022-0.0299683,0.3099976-0.0499878c-0.0299683,0-0.0499878-0.0100098-0.0800171-0.0200195
	C8.1300049,13.8200073,8.039978,13.7699585,7.960022,13.7099609z M11.7000122,2.7999878
	c-0.4800415,0.3200073-0.9899902,0.5800171-1.5100098,0.789978C9.8400269,2.7699585,9.3699951,2,8.789978,1.3099976
	C8.6500244,1.1400146,8.5100098,0.9799805,8.3499756,0.8299561C9.6699829,1.1199951,10.8300171,1.8200073,11.7000122,2.7999878z
	 M7.3400269,0.8200073C7.6699829,1.0999756,7.9799805,1.4199829,8.2600098,1.75
	c0.539978,0.6300049,0.9699707,1.3299561,1.289978,2.0700073C9.289978,3.8999634,9.0200195,3.9599609,8.75,4.0100098
	C8.6199951,4.039978,8.4899902,4.0700073,8.3599854,4.0999756C8.0200195,4.1499634,7.6799927,4.1900024,7.3400269,4.2000122
	V0.8200073z M6.6599731,9.1099854C6.2800293,9.1300049,5.9000244,9.1699829,5.5200195,9.2299805
	C5.3599854,9.2600098,5.1900024,9.2999878,5.0300293,9.3399658C4.8699951,9.3699951,4.710022,9.3999634,4.5599976,9.4400024
	v0.0100098C4.4400024,9.4799805,4.3300171,9.5,4.210022,9.539978c-0.2300415-0.710022-0.3699951-1.4400024-0.4000244-2.2000122
	h2.8499756V9.1099854z M6.6599731,6.6599731H3.8099976c0-0.0100098,0-0.0100098,0-0.0100098
	c0-0.0999756,0.0100098-0.1999512,0.0200195-0.3099976C3.8800049,5.7000122,4.0100098,5.0700073,4.210022,4.4599609
	C4.2600098,4.4799805,4.3200073,4.4899902,4.3699951,4.5c0.75,0.2199707,1.5100098,0.3599854,2.289978,0.3900146V6.6599731z
	 M6.6599731,0.8200073v3.3800049c-0.2299805,0-0.4499512-0.0400391-0.6799927-0.0700073
	C5.8300171,4.1199951,5.6900024,4.1099854,5.539978,4.0899658C5.1699829,4.0199585,4.8099976,3.9400024,4.4500122,3.8200073
	C4.9400024,2.6799927,5.6900024,1.6499634,6.6599731,0.8200073z M2.8200073,2.2799683
	c0.0899658-0.0700073,0.1699829-0.1499634,0.25-0.2099609C3.25,1.9199829,3.4400024,1.789978,3.6300049,1.6699829
	c0.0700073-0.039978,0.1400146-0.0900269,0.210022-0.1400146c0.25-0.1399536,0.5-0.2600098,0.7699585-0.3699951
	c0.0300293-0.0100098,0.0599976-0.0299683,0.0900269-0.039978c0.2699585-0.1099854,0.5599976-0.1900024,0.8599854-0.2600098
	C4.789978,1.6499634,4.2000122,2.5799561,3.789978,3.5799561C3.3400269,3.3999634,2.9099731,3.1699829,2.4899902,2.9099731
	C2.4199829,2.8699951,2.3699951,2.8399658,2.2999878,2.789978C2.460022,2.6099854,2.6400146,2.4400024,2.8200073,2.2799683z
	 M0.9500122,5.2299805C0.9799805,5.1199951,1.0100098,5,1.039978,4.8999634
	c0.0400391-0.0999756,0.0900269-0.1900024,0.1199951-0.2799683c0.1900024-0.460022,0.4200439-0.8900146,0.7000122-1.2900391
	C2.4000244,3.6900024,2.960022,3.9899902,3.5499878,4.2299805C3.3400269,4.8699951,3.210022,5.5299683,3.1500244,6.2199707
	C3.1400146,6.3699951,3.1300049,6.5100098,3.1199951,6.6599731H0.6900024
	C0.7199707,6.1699829,0.8200073,5.6900024,0.9500122,5.2299805z M1.8699951,10.6699829
	C1.3800049,9.9799805,1.0200195,9.1900024,0.8400269,8.3399658C0.8200073,8.2799683,0.8099976,8.2099609,0.7999878,8.1400146
	C0.75,7.8800049,0.710022,7.6199951,0.6900024,7.3399658h2.4299927C3.1300049,7.6499634,3.1599731,7.9500122,3.2000122,8.25
	c0.0100098,0,0.0199585,0,0.0299683,0.0100098c0.0700073,0.5099487,0.1700439,1.0199585,0.3400269,1.5099487
	C2.9799805,10,2.4099731,10.2999878,1.8699951,10.6699829z M2.2999878,11.2000122
	c0.4800415-0.3200073,0.9899902-0.5800171,1.5100098-0.7900391C4.1599731,11.2299805,4.6300049,12,5.210022,12.6900024
	c0.1399536,0.1699829,0.2799683,0.3299561,0.4400024,0.4799805C4.3300171,12.8800049,3.1699829,12.1799927,2.2999878,11.2000122z"/>
</svg>
