<?xml version="1.0" encoding="utf-8"?>

<!--
 * Copyright (c) 2015, WSO2 Inc. (http://www.wso2.org) All Rights Reserved.
 *
 * WSO2 Inc. licenses this file to you under the Apache License,
 * Version 2.0 (the "License"); you may not use this file except
 * in compliance with the License.
 * You may obtain a copy of the License at
 *
 * http://www.apache.org/licenses/LICENSE-2.0
 *
 * Unless required by applicable law or agreed to in writing,
 * software distributed under the License is distributed on an
 * "AS IS" BASIS, WITHOUT WARRANTIES OR CONDITIONS OF ANY
 * KIND, either express or implied. See the License for the
 * specific language governing permissions and limitations
 * under the License.
-->

<svg version="1.1" id="web-service" xmlns="http://www.w3.org/2000/svg" xmlns:xlink="http://www.w3.org/1999/xlink" x="0px"
	 y="0px" viewBox="0 0 14 14" style="enable-background:new 0 0 14 14;" xml:space="preserve">
<path d="M13.28998,9.46997l-0.5-0.03998c-0.01996-0.10999-0.06-0.21997-0.09998-0.32001V9.09998
	c-0.03998-0.12-0.09998-0.25-0.15002-0.38l0.30005-0.39996c0.09998-0.14001,0.09998-0.28998,0-0.44l-0.55005-0.56
	C12.23999,7.27002,12.15002,7.22998,12.06,7.22998c-0.07001,0-0.15002,0.03003-0.21997,0.09003L11.48999,7.62
	c-0.20001-0.08997-0.45001-0.19-0.64996-0.23999l-0.02002-0.17999l-0.03003-0.27002c-0.00995-0.04999-0.02997-0.08997-0.04999-0.13
	C10.66998,6.67999,10.56,6.62,10.44,6.62h-0.09003H9.87H9.69c-0.12,0-0.22998,0.06-0.27002,0.17999
	C9.40002,6.84003,9.39001,6.88,9.39001,6.92999L9.35999,7.20001L9.34003,7.38C9.09003,7.42999,8.89001,7.53003,8.64001,7.62
	L8.34003,7.32001C8.27002,7.28003,8.19,7.25,8.12,7.25c-0.08002,0-0.15002,0.03003-0.22998,0.07001L7.34003,7.92999
	c-0.10004,0.10004-0.10004,0.28998,0,0.45001l0.25,0.29999C7.48999,8.88,7.39001,9.12,7.28998,9.38L7.17999,9.39001L6.89001,9.42999
	C6.84998,9.42999,6.81,9.44,6.78003,9.45001c-0.13,0.03998-0.19,0.14996-0.19,0.26996v0.29004v0.39996v0.06
	c0,0.12006,0.06,0.24005,0.19,0.28003c0.02997,0.02002,0.06995,0.03003,0.10999,0.03003L7.17999,10.81l0.16003,0.02002
	c0.04999,0.28998,0.14996,0.5,0.25,0.75l-0.30005,0.33997c-0.09998,0.16003-0.09998,0.31,0,0.46002l0.31,0.31v0.01001
	l0.24005,0.22998C7.88,12.96002,7.92999,12.98999,7.97998,13c0.03003,0.02002,0.06,0.02002,0.09003,0.02002
	c0.07001,0,0.14001-0.02002,0.20001-0.08002c0.01001,0,0.01001,0,0.01996-0.01001L8.69,12.62
	c0.09003,0.04999,0.17999,0.09003,0.27997,0.13c0.13,0.04999,0.26001,0.09998,0.37006,0.13l0.04999,0.44
	c0,0.09998,0.06,0.20001,0.14996,0.23999c0.04004,0.03998,0.10004,0.06,0.15002,0.06h0.75
	c0.15002,0,0.29999-0.08997,0.29999-0.29999l0.09003-0.40002L10.84003,12.88c0.02997-0.01001,0.04999-0.02002,0.07996-0.03003
	c0.01001,0,0.02002,0,0.03003-0.00995c0.15997-0.05005,0.33002-0.13,0.48999-0.22003l0.40002,0.31
	C11.91998,12.97998,11.98999,13,12.07001,13c0.07001,0,0.14996-0.02002,0.21997-0.07001L12.84003,12.38
	c0.09998-0.10999,0.14996-0.29999,0-0.46002l-0.30005-0.38995c0.06-0.12006,0.12-0.24005,0.16003-0.38
	c0.03998-0.08002,0.07001-0.17004,0.08997-0.27002L12.90002,10.87l0.38995-0.03998c0.15002,0,0.30005-0.16003,0.30005-0.29999v-0.75
	c0-0.06006-0.01001-0.12006-0.05005-0.17004C13.5,9.53003,13.41998,9.46997,13.28998,9.46997z M9.01001,10.81
	C8.96997,10.75,8.94,10.69,8.90997,10.63c-0.06995-0.14001-0.10999-0.28998-0.10999-0.45001
	c-0.01001-0.02002-0.01001-0.03998-0.01001-0.06c0-0.57001,0.38-1.03998,0.90002-1.19C9.79999,8.90002,9.91998,8.88,10.03998,8.88
	c0.05005,0,0.09003,0,0.13,0.01001c0.64001,0.06,1.12,0.57996,1.12,1.22998c0,0.38-0.15997,0.72003-0.41998,0.95001
	c-0.13,0.10999-0.27997,0.20001-0.45001,0.23999c-0.12,0.04999-0.25,0.07001-0.38,0.07001
	c-0.25995,0-0.50995-0.09998-0.71997-0.26001C9.20001,11.03998,9.09998,10.92999,9.01001,10.81z M8.88,0.29999
	C8.38,0.09998,7.97998,0.09998,7.47998,0H7.38c-0.29999,0-0.5,0-0.79999,0C6.38,0,6.17999,0,5.97998,0.09998
	C3.88,0.40002,2.28003,1.5,1.08002,3.20001c-0.60004,0.89996-1,2-1.09998,3.09998c0,0.10004,0,0.20001,0,0.29999
	c0,0.30005,0,0.5,0,0.80005c0,0.19995,0,0.39996,0.09998,0.59998C0.38,9.79999,1.17999,11.29999,2.67999,12.5
	c1,0.90002,2.29999,1.40002,3.70001,1.5c0.96002,0.07996,1.90002-0.02002,2.76001-0.29999
	c-0.07001-0.10004-0.12-0.22003-0.12-0.35004L9,13.15997C8.90997,13.13,8.83002,13.09998,8.73999,13.06l-0.20001,0.15002
	c-0.13,0.12-0.29999,0.17999-0.46997,0.17999c-0.17999,0-0.35999-0.07001-0.48999-0.20001l-0.23999-0.23999
	C7.28998,13,7.22998,13.04999,7.17999,13.09998c0-0.09998,0-0.20996,0-0.31l-0.14996-0.14996L7,12.60999l-0.02002-0.02997
	c-0.17999-0.27002-0.17999-0.59003,0-0.86005l0.01001-0.01996l0.02002-0.02002l0.14996-0.16998
	c-0.03998-0.10999-0.08997-0.22003-0.12-0.34003L6.87,11.15002c-0.02997,0-0.06,0-0.08997-0.01001c0,0.64996,0,1.31,0,1.95996
	c-0.80005-0.69995-1.40002-1.5-1.90002-2.39996C5.31,10.56,5.75,10.46002,6.21997,10.42999v-0.39996
	c-0.44995,0.03998-0.94995,0.12994-1.43994,0.26996c-0.5-1-0.70001-2-0.70001-3.09998c0.89996,0,1.79999,0,2.70001,0.09998
	c0,0.59003,0,1.16998,0,1.76001C6.81,9.04999,6.84003,9.04999,6.87,9.04999l0.16003-0.01996
	c0.03998-0.10004,0.07996-0.20001,0.12-0.30005L7.06,8.62L7.03998,8.59998L7.03003,8.58002
	c-0.20001-0.29999-0.18005-0.69,0.03998-0.91003l0.10999-0.12c0-0.12,0-0.22998,0-0.34998c0.10999,0,0.21002,0,0.32001,0l0.12-0.13
	l0.03003-0.03003L7.69,7.01001c0.13-0.09003,0.27997-0.13,0.42999-0.13s0.28998,0.03998,0.42999,0.13l0.03003,0.02002L8.60999,7.06
	l0.12,0.12C8.82001,7.15002,8.90997,7.10999,9,7.08002l0.02002-0.17999c0-0.04004,0-0.07001,0.01996-0.10004
	c-0.62,0-1.23999,0-1.85999,0c0-0.79999,0-1.5,0-2.29999c0.79999,0,1.5-0.20001,2.20001-0.40002
	C9.62,4.82001,9.79999,5.53998,9.84998,6.25h0.44c-0.02997-0.27002-0.04999-0.56-0.10999-0.84998
	c-0.09998-0.5-0.20001-1-0.29999-1.40002c0.5-0.40002,1.09998-0.70001,1.70001-1c0.70001,0.59998,1.5,2.59998,1.5,3.79999
	c-0.64001,0-1.29004,0-1.92999,0c0,0.01001,0.00995,0.02002,0.00995,0.03003v0.02997L11.16998,6.88L11.19,7.09003
	c0.08002,0.02997,0.15997,0.06,0.23999,0.08997l0.16003-0.13c0.12994-0.13,0.29999-0.19,0.46997-0.19
	c0.19,0,0.37,0.07001,0.5,0.20001l0.14001,0.14001c0.13,0,0.25,0,0.38,0c-0.01001,0.12-0.02002,0.22998-0.04004,0.33997
	l0.07001,0.07001l0.03003,0.03003l0.01996,0.02997c0.18005,0.27002,0.18005,0.59003-0.01996,0.88l-0.17004,0.23004
	c0.04004,0.08997,0.08002,0.18994,0.12006,0.29999l0.22998,0.01996c0.13,0,0.26001,0.04004,0.35999,0.11005
	c0.03998-0.10004,0.07001-0.20001,0.10004-0.31C14.78003,5.20001,12.58002,1.29999,8.88,0.29999z M5.88,1
	C5.58002,1.40002,5.28003,1.79999,4.97998,2.20001C4.78003,2.59998,4.47998,3.09998,4.28003,3.5c-0.5-0.20001-1-0.5-1.5-0.90002
	C3.67999,1.79999,4.67999,1.20001,5.88,1z M5.97998,13C4.88,12.79999,3.88,12.40002,3.08002,11.59998
	c0.20001-0.19995,1-0.59998,1.39996-0.69995C4.88,11.70001,5.38,12.40002,5.97998,13z M4.28003,10.40002
	C3.67999,10.70001,3.17999,11,2.67999,11.29999c-1.09998-1.09998-1.70001-2.5-1.79999-4.09998c0.90002,0,1.79999,0,2.70001,0
	C3.67999,8.29999,3.88,9.40002,4.28003,10.40002z M3.78003,5.40002C3.67999,5.79999,3.67999,6.29999,3.58002,6.79999
	c-0.90002,0-1.79999,0-2.70001,0C0.78003,5.70001,1.58002,3.70001,2.38,3c0.29999,0.09998,0.59998,0.29999,0.90002,0.5
	c0.19995,0.20001,0.5,0.29999,0.79999,0.40002C3.97998,4.40002,3.88,4.90002,3.78003,5.40002z M6.78003,6.79999
	c-0.90002,0-1.80005,0-2.70001,0c0-0.89996,0.09998-1.79999,0.5-2.70001C5.28003,4.29999,5.97998,4.5,6.78003,4.5
	C6.78003,5.29999,6.78003,6,6.78003,6.79999z M6.78003,4.09998c-0.70001,0-1.30005-0.19995-2-0.39996
	c0.39996-1.10004,1.09998-2,2-2.79999C6.78003,2,6.78003,3,6.78003,4.09998z M7.17999,4c0-1,0-2.09998,0-3.09998
	c0.5,0.19995,1.79999,2,2.10004,2.79999C8.88,3.90002,7.78003,4.09998,7.17999,4z M9.78003,3.5
	c-0.30005-0.40002-0.5-0.90002-0.80005-1.29999C8.67999,1.79999,8.38,1.40002,8.08002,1
	c1.20001,0.20001,2.20001,0.79999,3.20001,1.59998C10.78003,3,10.28003,3.29999,9.78003,3.5z"/>
</svg>
