<?xml version="1.0" encoding="utf-8"?>
<!-- Generator: Adobe Illustrator 19.2.0, SVG Export Plug-In . SVG Version: 6.00 Build 0)  -->
<svg version="1.1" id="web-app" xmlns="http://www.w3.org/2000/svg" xmlns:xlink="http://www.w3.org/1999/xlink" x="0px" y="0px"
	 viewBox="0 0 14 14" style="enable-background:new 0 0 14 14;" xml:space="preserve">
<path d="M14,8.8l-0.2-0.1l-0.6-0.3l-2.2-1l-0.1,0l-0.7,0.3l-2.3,1l1.6,0.6L11,9.9l0.1,0l1.7-0.7h0l0.6-0.2v0.6v2.5l-2.3,1.1v-0.7
	v-0.9V11v-0.3V10l-0.5-0.2L8.8,9.2L8.4,9l0,0L8.3,9L8.1,9L7.9,8.9l-0.1,0v0.2v0.7v2.8v0l0.1,0l0.1,0l0.2,0.1l0.4,0.2L8.7,13l0.9,0.4
	l0.8,0.3l0.4,0.2l0.8-0.4l1.7-0.8l0.6-0.2l0-1.6V8.8z M11.1,9.4l-0.5-0.2L10,9L9.3,8.7l0.8-0.3l0.7-0.3L11,8l1.7,0.8L11.1,9.4z
	 M10.5,13.2l-0.2-0.1l-0.8-0.4L9,12.5l-0.6-0.3v-0.1V9.8V9.6l1.2,0.5l0.6,0.2l0.1,0l0.1,0l0.1,0v0v1.6v0.8V13.2z M7.6,13L7.6,13H7.3
	v-0.2v0v-3c0,0,0.1,0,0.1,0V9.1c0,0-0.1,0-0.1,0V9V8.7V8V7.3h2.1l1.2-0.5L11,6.7l0.3,0.1l1.1,0.5h1c0,0.1,0,0.3,0,0.4l0.6,0.3
	C14,7.7,14,7.3,14,7c0-1.9-0.7-3.6-2-4.9C10.6,0.7,8.9,0,7,0H7C3.1,0,0,3.2,0,7c0,0.2,0,0.4,0,0.6c0,0.1,0,0.3,0,0.4
	c0,0.2,0.1,0.3,0.1,0.5c0,0,0,0,0,0c0,0.2,0.1,0.3,0.1,0.5c0,0,0,0,0,0c0.3,1.1,0.9,2.1,1.7,2.9c0.9,1,2.1,1.6,3.4,1.9
	c0.1,0,0.2,0,0.3,0.1c0.2,0,0.4,0.1,0.5,0.1c0.2,0,0.5,0,0.8,0c0,0,0,0,0,0c0.5,0,1-0.1,1.5-0.2c0.2,0,0.4-0.1,0.6-0.2L7.7,13H7.6z
	 M12.1,3.3c0.7,1,1.1,2.1,1.2,3.3h-2.4c0-0.8-0.2-1.6-0.4-2.4C11,4,11.6,3.7,12.1,3.3z M11.7,2.8c-0.5,0.3-1,0.6-1.5,0.8
	C9.8,2.8,9.4,2,8.8,1.3C8.7,1.1,8.5,1,8.3,0.8C9.7,1.1,10.8,1.8,11.7,2.8z M7.3,0.7C7.3,0.7,7.3,0.7,7.3,0.7L7.3,0.7L7.3,0.7z
	 M7.3,0.8C7.7,1.1,8,1.4,8.3,1.8c0.5,0.6,1,1.3,1.3,2.1C8.8,4,8.1,4.2,7.3,4.2V0.8z M7.3,4.9c0.8,0,1.6-0.2,2.4-0.4
	c0.2,0.7,0.4,1.4,0.4,2.2H7.3V4.9z M6.6,13.4L6.6,13.4C6.6,13.4,6.6,13.4,6.6,13.4L6.6,13.4z M5.8,9.2C5.5,9.2,5.3,9.3,5,9.3
	c-0.1,0-0.3,0.1-0.4,0.1c-0.1,0-0.2,0.1-0.4,0.1C4.1,9.3,4,9,4,8.7l0,0c0-0.2-0.1-0.4-0.1-0.6c0,0,0-0.1,0-0.1c0-0.2,0-0.4,0-0.6
	h2.8v1.2v0.6c-0.1,0-0.1,0-0.2,0C6.3,9.1,6,9.2,5.8,9.2z M6.7,6.7H3.8c0-0.1,0-0.2,0-0.3c0-0.6,0.2-1.3,0.4-1.9
	C5,4.7,5.8,4.9,6.7,4.9V6.7z M6.7,0.7L6.7,0.7L6.7,0.7C6.6,0.7,6.7,0.7,6.7,0.7z M6.7,0.8v3.4C5.9,4.2,5.2,4,4.5,3.8
	C4.9,2.7,5.7,1.7,6.7,0.8z M5.7,0.8C4.9,1.6,4.2,2.6,3.8,3.6c-0.5-0.2-1-0.5-1.5-0.8C3.2,1.8,4.3,1.1,5.7,0.8z M1.9,3.3
	C2.4,3.7,3,4,3.6,4.2C3.3,4.9,3.2,5.6,3.2,6.3c0,0.1,0,0.2,0,0.4H0.7C0.8,5.4,1.2,4.3,1.9,3.3z M1.9,10.7C1.3,9.9,1,9.1,0.8,8.2
	c0-0.1,0-0.3-0.1-0.4h0c0-0.2,0-0.3,0-0.5h2.4c0,0.1,0,0.3,0,0.4c0,0,0,0,0,0c0,0.2,0,0.3,0.1,0.5c0.1,0.5,0.2,1,0.3,1.5
	C3,10,2.4,10.3,1.9,10.7z M5.4,13.1c-1.1-0.3-2.1-0.8-2.9-1.7c-0.1-0.1-0.2-0.2-0.2-0.2c0.5-0.3,1-0.6,1.5-0.8
	c0.4,0.9,0.9,1.8,1.6,2.5c0,0.1,0.1,0.1,0.2,0.2C5.5,13.1,5.5,13.1,5.4,13.1z M5.9,12.5c-0.1-0.1-0.1-0.1-0.2-0.2
	c-0.1-0.1-0.2-0.3-0.3-0.4c-0.4-0.5-0.7-1.1-1-1.7c0.1,0,0.2-0.1,0.4-0.1C4.9,10,5,10,5.2,10c0.3,0,0.6-0.1,0.8-0.1
	c0.2,0,0.3,0,0.5,0v0c0.1,0,0.1,0,0.2,0v3.5l0,0c-0.1,0-0.1-0.1-0.2-0.2c0,0,0,0,0,0c0,0,0,0,0,0c0,0-0.1-0.1-0.1-0.1c0,0,0,0,0,0
	C6.2,12.8,6,12.7,5.9,12.5z"/>
</svg>
