<?xml version="1.0" encoding="utf-8"?>

<!--
 * Copyright (c) 2015, WSO2 Inc. (http://www.wso2.org) All Rights Reserved.
 *
 * WSO2 Inc. licenses this file to you under the Apache License,
 * Version 2.0 (the "License"); you may not use this file except
 * in compliance with the License.
 * You may obtain a copy of the License at
 *
 * http://www.apache.org/licenses/LICENSE-2.0
 *
 * Unless required by applicable law or agreed to in writing,
 * software distributed under the License is distributed on an
 * "AS IS" BASIS, WITHOUT WARRANTIES OR CONDITIONS OF ANY
 * KIND, either express or implied. See the License for the
 * specific language governing permissions and limitations
 * under the License.
-->

<svg version="1.1" id="webclip" xmlns="http://www.w3.org/2000/svg" xmlns:xlink="http://www.w3.org/1999/xlink" x="0px" y="0px"
	 viewBox="0 0 14 14" enable-background="new 0 0 14 14" xml:space="preserve">
<path d="M7.844,6.807l0.214-1.069h0.602L7.984,8.357H7.344L7.122,7.23c-0.05-0.264-0.093-0.509-0.124-0.808H6.99
	C6.943,6.717,6.901,6.966,6.839,7.23L6.589,8.357H5.942v0.002L5.32,5.74h0.633l0.198,1.076c0.058,0.315,0.113,0.653,0.155,0.921
	h0.008c0.043-0.288,0.105-0.602,0.171-0.929l0.221-1.069h0.629l0.21,1.103c0.058,0.307,0.101,0.587,0.14,0.878h0.008
	C7.732,7.429,7.789,7.122,7.844,6.807z M4.242,7.72H4.234c-0.039-0.291-0.082-0.571-0.14-0.878l-0.21-1.103H3.255L3.034,6.808
	C2.969,7.135,2.906,7.449,2.864,7.737H2.856C2.814,7.469,2.758,7.131,2.701,6.816L2.503,5.74H1.87l0.622,2.619V8.357H3.14
	L3.388,7.23c0.063-0.264,0.105-0.513,0.152-0.808h0.008C3.58,6.721,3.622,6.966,3.672,7.23l0.221,1.127h0.641l0.676-2.619H4.609
	L4.395,6.807C4.34,7.122,4.281,7.429,4.242,7.72z M11.296,6.807c-0.055,0.315-0.113,0.622-0.152,0.913h-0.008
	c-0.039-0.291-0.082-0.571-0.14-0.878l-0.21-1.103h-0.629L9.935,6.808C9.87,7.135,9.807,7.449,9.765,7.737H9.757
	C9.715,7.469,9.659,7.131,9.602,6.816L9.404,5.74H8.771l0.622,2.619V8.357h0.646l0.249-1.127c0.062-0.264,0.105-0.513,0.152-0.808
	h0.008c0.032,0.299,0.075,0.544,0.125,0.808l0.221,1.127h0.641l0.676-2.619h-0.602L11.296,6.807z M9.282,13.612
	C8.568,13.858,7.812,13.995,7.034,14C7.025,14,7.013,14,7,14C3.156,14,0.02,10.882,0,7.035C-0.02,3.177,3.104,0.02,6.966,0h0.069
	c1.856,0.011,3.601,0.738,4.915,2.05C13.26,3.364,13.989,5.109,14,6.965c0.004,0.801-0.134,1.58-0.388,2.317
	c-0.172-0.175-0.367-0.325-0.577-0.455c0.144-0.48,0.244-0.975,0.27-1.485h-0.449V6.659h0.449c-0.064-1.235-0.492-2.377-1.173-3.326
	c-0.539,0.363-1.111,0.664-1.7,0.899c0.11,0.33,0.195,0.667,0.265,1.007H9.997C9.939,4.978,9.872,4.718,9.789,4.464
	C8.99,4.717,8.167,4.86,7.34,4.888V5.24H6.656V4.888C5.83,4.86,5.005,4.716,4.208,4.464c-0.083,0.254-0.152,0.513-0.21,0.775H3.297
	c0.069-0.342,0.159-0.678,0.268-1.005C2.974,3.996,2.401,3.695,1.859,3.33C1.18,4.28,0.753,5.423,0.69,6.659h0.45v0.683H0.69
	c0.065,1.237,0.49,2.381,1.17,3.329c0.536-0.361,1.1-0.659,1.684-0.895C3.438,9.445,3.354,9.105,3.286,8.762h0.698
	C4.042,9.026,4.107,9.288,4.19,9.545c0.803-0.258,1.633-0.401,2.468-0.431V8.763h0.683v0.351c0.611,0.02,1.216,0.125,1.812,0.269
	C8.99,9.564,8.852,9.764,8.736,9.981C8.275,9.885,7.81,9.814,7.341,9.795v3.457c0.41-0.351,0.769-0.743,1.096-1.158
	c0.059,0.262,0.158,0.506,0.279,0.738c-0.093,0.107-0.181,0.218-0.279,0.321c0.133-0.031,0.259-0.08,0.389-0.119
	C8.957,13.244,9.106,13.44,9.282,13.612z M8.354,0.832c0.151,0.154,0.294,0.311,0.431,0.475c0.59,0.699,1.06,1.468,1.406,2.286
	c0.524-0.211,1.03-0.474,1.513-0.794C10.833,1.824,9.669,1.121,8.354,0.832z M7.341,0.714l0.017-0.02
	C7.354,0.693,7.348,0.693,7.341,0.693V0.714z M7.341,4.206c0.744-0.03,1.486-0.157,2.206-0.383C9.232,3.081,8.801,2.382,8.265,1.747
	c-0.28-0.333-0.592-0.646-0.923-0.931V4.206z M6.641,0.693l0.017,0.022V0.693C6.651,0.693,6.646,0.693,6.641,0.693z M4.452,3.822
	c0.719,0.227,1.461,0.353,2.206,0.383V0.816C5.685,1.649,4.939,2.676,4.452,3.822z M2.289,2.795c0.485,0.32,0.992,0.584,1.518,0.797
	C4.234,2.57,4.856,1.633,5.645,0.83C4.325,1.12,3.159,1.824,2.289,2.795z M5.562,13.152c-0.119-0.127-0.237-0.257-0.348-0.391
	c-0.604-0.713-1.083-1.504-1.431-2.343c-0.515,0.209-1.018,0.472-1.493,0.787C3.142,12.158,4.276,12.852,5.562,13.152z M6.659,9.795
	c-0.755,0.032-1.506,0.161-2.232,0.389c0.318,0.766,0.757,1.487,1.307,2.139c0.281,0.334,0.593,0.646,0.924,0.929
	C6.658,13.252,6.658,9.795,6.659,9.795z M11.424,8.838c-1.428,0-2.586,1.158-2.586,2.586s1.158,2.586,2.586,2.586
	s2.586-1.158,2.586-2.586S12.852,8.838,11.424,8.838z M10.648,12.749v-2.65l2.388,1.31L10.648,12.749z"/>
</svg>
