<?xml version="1.0" encoding="utf-8"?>

<!--
 * Copyright (c) 2015, WSO2 Inc. (http://www.wso2.org) All Rights Reserved.
 *
 * WSO2 Inc. licenses this file to you under the Apache License,
 * Version 2.0 (the "License"); you may not use this file except
 * in compliance with the License.
 * You may obtain a copy of the License at
 *
 * http://www.apache.org/licenses/LICENSE-2.0
 *
 * Unless required by applicable law or agreed to in writing,
 * software distributed under the License is distributed on an
 * "AS IS" BASIS, WITHOUT WARRANTIES OR CONDITIONS OF ANY
 * KIND, either express or implied. See the License for the
 * specific language governing permissions and limitations
 * under the License.
-->

<svg version="1.1" id="wifi" xmlns="http://www.w3.org/2000/svg" xmlns:xlink="http://www.w3.org/1999/xlink" x="0px" y="0px"
	 viewBox="0 0 14 14" style="enable-background:new 0 0 14 14;" xml:space="preserve">
<path d="M12.0845337,7.2734375c-0.114563,0.6707153-0.8529663,0.9343872-1.4116821,0.5114746
	c-0.3461304-0.2620239-0.6657104-0.5644531-1.0313721-0.7943726C7.6680298,5.7497559,5.1552734,6.0265503,3.4738159,7.6523438
	c-0.291687,0.2820435-0.6219482,0.4284058-1.026062,0.2774048C2.1067505,7.8023682,1.930481,7.5415039,1.8908691,7.1845093
	c-0.0338745-0.3050537,0.102478-0.5482788,0.3067627-0.749939c1.2709961-1.2543945,3.0217285-1.9664307,5.0324707-1.9661255
	c1.541748,0.0322266,3.0774536,0.6286621,4.3908691,1.8123779C11.9284668,6.5579224,12.1575317,6.8461304,12.0845337,7.2734375z
	 M13.7289429,4.3050537c-0.6702881-0.7514648-1.5037842-1.3405151-2.4630737-1.7342529
	C10.227356,2.067627,9.0900269,1.7677612,7.866394,1.6452637C6.2514038,1.4835815,5.3776245,1.7365112,5.3776245,1.7365112
	c-1.6522217,0.2736206-3.118103,0.9247437-4.3937378,1.9478149c-0.2364502,0.1775513-0.4609375,0.3704834-0.671936,0.5787354
	C0.107605,4.4647217-0.0286865,4.7079468,0.005127,5.0130005c0.0014038,0.0125122,0.0033569,0.0245972,0.0050659,0.0369263
	C0.0100708,5.0518188,0.0093384,5.0537109,0.0097046,5.055603c0.0009766,0.0050049,0.0022583,0.0097046,0.0032959,0.0146484
	C0.0617676,5.3800049,0.2211304,5.611145,0.5109253,5.7372437c0.0621338,0.0290527,0.1275024,0.050293,0.1950684,0.0629883
	c0.3397217,0.0712891,0.6257935-0.0715942,0.8821411-0.319458L2.2332153,4.934021
	C5.317749,2.6277466,9.5870972,2.845459,12.4533081,5.5192871c0.0199585,0.0186157,0.0402222,0.0363159,0.0606689,0.0535278
	c0.2429199,0.2122803,0.5238647,0.3133545,0.8702393,0.2084961c0.3484497-0.1054077,0.5409546-0.3544922,0.6031494-0.708313
	C14.0405884,4.770752,13.9200439,4.5192871,13.7289429,4.3050537z M6.8892212,7.3391113
	C5.8239746,7.3561401,4.8123169,7.7642212,4.0150146,8.6434937C3.6688232,9.0252686,3.7055664,9.5762939,4.0588989,9.8891602
	c0.3573608,0.3164062,0.8654785,0.2906494,1.2298584-0.062439c1.0187378-0.9873047,2.3632812-0.9939575,3.3946533-0.0167847
	c0.4004517,0.3793945,0.9436646,0.3931885,1.2947388,0.0328369c0.3329468-0.3417358,0.3104248-0.9011841-0.0631714-1.2765503
	C9.1132202,7.7606201,8.1432495,7.3502808,6.8892212,7.3391113z M7.006958,10.3320923
	c-0.572998,0-1.0374756,0.4644775-1.0374756,1.0374756S6.43396,12.4070435,7.006958,12.4070435
	c0.572937,0,1.0374756-0.4644775,1.0374756-1.0374756S7.579895,10.3320923,7.006958,10.3320923z"/>
</svg>
