<?xml version="1.0" encoding="utf-8"?>
<!-- Generator: Adobe Illustrator 19.2.0, SVG Export Plug-In . SVG Version: 6.00 Build 0)  -->
<svg version="1.1" id="wsdl" xmlns="http://www.w3.org/2000/svg" xmlns:xlink="http://www.w3.org/1999/xlink" x="0px" y="0px"
	 viewBox="0 0 14 14" style="enable-background:new 0 0 14 14;" xml:space="preserve">
<g>
	<g id="XMLID_1_">
		<polygon points="10.0500002,11.2600002 9.0500002,10.79 9.0500002,10.3400002 10.5299997,11.0799999 10.5299997,11.4399996 
			10.5,11.4499998 9.0500002,12.1700001 9.0500002,11.7200003 9.0799999,11.71 		"/>
		<path d="M8.1800003,8.04V6.52h0.21C8.5799999,6.52,8.71,6.5300002,8.7700005,6.54
			c0.0899992,0.02,0.1599998,0.0599999,0.2199993,0.1100001C9.04,6.71,9.0900002,6.7800002,9.1199999,6.8699999
			c0.0299997,0.0999999,0.0500002,0.2400002,0.0500002,0.4100003c0,0.1799998-0.0200005,0.3199997-0.0500002,0.4199996
			C9.0900002,7.8099999,9.0500002,7.8800001,9,7.9200001C8.9499998,7.9699998,8.8900003,8,8.8100004,8.0200005
			C8.75,8.04,8.6599998,8.04,8.5299997,8.04H8.1800003z"/>
		<polygon points="7.96,12.2700005 8.6000004,9.8900003 9,9.8900003 8.3500004,12.2700005 		"/>
		<polygon points="7.79,12.1700001 6.3000002,11.4300003 6.3000002,11.0900002 6.3299999,11.0699997 7.79,10.3400002 7.79,10.79 
			7.7600002,10.8100004 6.8099999,11.2600002 7.79,11.7200003 		"/>
		<path d="M10.0500002,8.4300003h1.6199999V8.04h-1.1599998V6.1500001h-0.46V8.4300003z M7.7199998,8.4300003h0.8700004
			c0.1700001,0,0.3099995-0.0200005,0.4099998-0.0500002c0.1400003-0.04,0.25-0.1000004,0.3299999-0.1800003
			C9.4399996,8.0900002,9.5200005,7.96,9.5699997,7.79c0.0500002-0.1399999,0.0799999-0.3000002,0.0799999-0.4899998
			c0-0.21-0.0299997-0.3900003-0.0799999-0.54C9.5200005,6.6100001,9.4499998,6.4899998,9.3500004,6.3899999
			C9.25,6.29,9.1400003,6.2199998,9,6.1799998C8.8999996,6.1500001,8.7600002,6.1300001,8.5699997,6.1300001H7.7199998V8.4300003z
			 M5.7600002,7.1999998c0.0999999,0.0900002,0.27,0.1600003,0.52,0.2200003C6.48,7.4699998,6.5999999,7.5,6.6500001,7.52
			C6.73,7.5500002,6.79,7.5799999,6.8200002,7.6199999c0.0299997,0.04,0.0499997,0.0900002,0.0499997,0.1400003
			c0,0.0899997-0.04,0.1599998-0.1099997,0.2199998C6.6799998,8.0500002,6.5700002,8.0799999,6.4200001,8.0799999
			c-0.1399999,0-0.25-0.04-0.3400002-0.1100001C6,7.9000001,5.9400001,7.79,5.9200001,7.6399999l-0.4500003,0.04
			C5.5,7.9400001,5.5900002,8.1300001,5.7399998,8.2700005c0.1600003,0.1299992,0.3800001,0.1999998,0.6700001,0.1999998
			c0.2000003,0,0.3700004-0.0300007,0.5-0.0799999c0.1400003-0.0600004,0.2400002-0.1500006,0.3099999-0.2600002
			c0.0800004-0.1199999,0.1100001-0.2400002,0.1100001-0.3699999c0-0.1400003-0.0299997-0.2700005-0.0900002-0.3700004
			c-0.0599999-0.0899997-0.1499996-0.1700001-0.25-0.23C6.8800001,7.0999999,6.71,7.0500002,6.4899998,7
			C6.2600002,6.9400001,6.1199999,6.8899999,6.0599999,6.8400002c-0.04-0.04-0.0700002-0.0799999-0.0700002-0.1400003
			c0-0.0599999,0.0300002-0.0999999,0.0800004-0.1399999C6.1399999,6.5100002,6.25,6.48,6.3800001,6.48
			s0.23,0.02,0.2999997,0.0799999c0.0599999,0.0500002,0.1000004,0.1300001,0.1200004,0.25L7.27,6.79
			c-0.0099998-0.21-0.0900002-0.3800001-0.23-0.5099998C6.8899999,6.1599998,6.6700001,6.0900002,6.3899999,6.0900002
			c-0.1799998,0-0.3299999,0.0299997-0.4499998,0.0799999C5.8099999,6.23,5.71,6.3099999,5.6500001,6.4099998
			C5.5799999,6.5100002,5.5500002,6.6199999,5.5500002,6.73C5.5500002,6.9200001,5.6199999,7.0700002,5.7600002,7.1999998z
			 M1.9299999,0h6.6900001l3.4400005,3.26v1.9599998h0.96v4.3099999h-0.96V14H1.9299999V9.5299997H0.98V5.2199998h0.9499999V0z
			 M3.1300001,5.2199998h7.7399998V3.8099999H8.25V1.2H3.1300001V5.2199998z M10.8699999,9.5299997H3.1300001v3.2700005h7.7399998
			V9.5299997z M3.5699999,6.1300001L3.1600001,7.71L2.8099999,6.1300001h-0.48l0.5500002,2.3000002h0.51L3.8399999,6.71
			l0.4600003,1.7200003H4.79l0.5599999-2.3000002H4.8800001L4.5300002,7.7399998L4.1300001,6.1300001H3.5699999z"/>
	</g>
</g>
</svg>
