<?xml version="1.0" encoding="utf-8"?>

<!--
 * Copyright (c) 2015, WSO2 Inc. (http://www.wso2.org) All Rights Reserved.
 *
 * WSO2 Inc. licenses this file to you under the Apache License,
 * Version 2.0 (the "License"); you may not use this file except
 * in compliance with the License.
 * You may obtain a copy of the License at
 *
 * http://www.apache.org/licenses/LICENSE-2.0
 *
 * Unless required by applicable law or agreed to in writing,
 * software distributed under the License is distributed on an
 * "AS IS" BASIS, WITHOUT WARRANTIES OR CONDITIONS OF ANY
 * KIND, either express or implied. See the License for the
 * specific language governing permissions and limitations
 * under the License.
-->

<svg version="1.1" id="wsdl" xmlns="http://www.w3.org/2000/svg" xmlns:xlink="http://www.w3.org/1999/xlink" x="0px" y="0px"
	 viewBox="0 0 14 14" style="enable-background:new 0 0 14 14;" xml:space="preserve">
<path d="M10.5,11.4l-1.4,0.7v-0.4l0,0l1-0.4l-1-0.5v-0.4l1.5,0.7L10.5,11.4L10.5,11.4z M8.9,8.1C9,8.1,9.1,8,9.1,8
	c0,0,0.1-0.1,0.1-0.2c0-0.1,0-0.2,0-0.4c0-0.2,0-0.3,0-0.4c0-0.1-0.1-0.2-0.1-0.2C9.1,6.7,9,6.6,8.9,6.6c-0.1,0-0.2,0-0.4,0H8.3v1.5
	h0.4C8.8,8.1,8.9,8.1,8.9,8.1z M8.4,12.3L9,9.9H8.6L8,12.3H8.4z M7.8,11.7l-1-0.5l1-0.4l0,0v-0.4l-1.5,0.7l0,0v0.3l1.5,0.7V11.7z
	 M10.2,6.2h0.5v1.9h1.2v0.4h-1.6V6.2z M8.7,6.2c0.2,0,0.3,0,0.4,0c0.1,0,0.2,0.1,0.4,0.2c0.1,0.1,0.2,0.2,0.2,0.4s0.1,0.3,0.1,0.6
	c0,0.2,0,0.4-0.1,0.5C9.7,8,9.6,8.2,9.5,8.3C9.4,8.3,9.3,8.4,9.1,8.4C9,8.5,8.9,8.5,8.7,8.5H7.8V6.2H8.7z M6.2,8
	c0.1,0.1,0.2,0.1,0.3,0.1c0.2,0,0.3,0,0.3-0.1C6.9,8,7,7.9,7,7.8c0-0.1,0-0.1,0-0.1c0,0-0.1-0.1-0.2-0.1c-0.1,0-0.2,0-0.4-0.1
	C6.2,7.4,6,7.3,5.9,7.2C5.7,7.1,5.7,7,5.7,6.8c0-0.1,0-0.2,0.1-0.3c0.1-0.1,0.2-0.2,0.3-0.2c0.1,0,0.3-0.1,0.4-0.1
	c0.3,0,0.5,0.1,0.7,0.2c0.2,0.1,0.2,0.3,0.2,0.5l-0.5,0c0-0.1-0.1-0.2-0.1-0.3c-0.1,0-0.2-0.1-0.3-0.1c-0.1,0-0.2,0-0.3,0.1
	c0,0-0.1,0.1-0.1,0.1s0,0.1,0.1,0.2c0.1,0,0.2,0.1,0.4,0.2c0.2,0,0.4,0.1,0.5,0.2c0.1,0.1,0.2,0.1,0.3,0.2c0.1,0.1,0.1,0.2,0.1,0.4
	c0,0.1,0,0.3-0.1,0.4C7.3,8.3,7.2,8.4,7,8.5C6.9,8.5,6.7,8.5,6.5,8.5C6.2,8.5,6,8.5,5.8,8.3C5.7,8.2,5.6,8,5.6,7.7l0.5,0
	C6.1,7.8,6.1,8,6.2,8z M1.9,5.2H1v4.3h0.9V14h10.1V9.5h1V5.2h-1v-2L8.6,0H1.9V5.2z M10.9,12.8H3.1V9.5h7.7V12.8z M3.1,1.2h5.1v2.6
	h2.6v1.4H3.1V1.2z M3,8.5L2.4,6.2h0.5l0.3,1.6l0.4-1.6h0.6l0.4,1.6L5,6.2h0.5L4.9,8.5H4.4L3.9,6.8L3.5,8.5H3z"/>
</svg>
