<?xml version="1.0" encoding="utf-8"?>
<!-- Generator: Adobe Illustrator 19.1.1, SVG Export Plug-In . SVG Version: 6.00 Build 0)  -->
<svg version="1.1" id="Layer_1" xmlns="http://www.w3.org/2000/svg" xmlns:xlink="http://www.w3.org/1999/xlink" x="0px" y="0px"
	 viewBox="0 0 21 14" style="enable-background:new 0 0 21 14;" xml:space="preserve">
<style type="text/css">
	.st0{fill:#010101;}
</style>
<path class="st0" d="M8,3c-0.6,1.5-1.2,3-1.8,4.4C5.6,5.9,5,4.5,4.4,3c-0.6,1.5-1.2,3-1.8,4.5C1.9,5.9,1.3,4.5,0.7,3
	C0.5,3,0.2,3,0,3c0.8,2.1,1.7,4.2,2.5,6.3c0.6-1.5,1.2-3,1.8-4.5C5,6.3,5.6,7.8,6.1,9.2c0,0.1,0.1,0,0.1,0C7,7.1,7.9,5.1,8.7,3
	C8.5,3,8.2,3,8,3z M11.4,6.1c-0.3-0.2-0.7-0.4-1-0.5c-0.3-0.1-0.5-0.3-0.8-0.5C9.2,4.8,9.2,4.3,9.5,4c0.3-0.3,0.7-0.4,1.1-0.3
	c0.2,0,0.4,0.2,0.5,0.3c0.1,0.1,0.2,0.2,0.3,0.3c0.2-0.1,0.4-0.2,0.5-0.4c-0.3-0.5-0.7-0.9-1.3-0.9c-0.5-0.1-1,0-1.4,0.3
	C8.9,3.5,8.7,3.8,8.6,4.2c-0.1,0.4,0,0.8,0.2,1.1c0.1,0.2,0.3,0.3,0.5,0.5C9.6,5.9,9.8,6,10.1,6.2c0.3,0.2,0.7,0.3,1,0.5
	c0.2,0.1,0.3,0.2,0.3,0.4c0.1,0.3,0,0.5,0,0.8c-0.1,0.4-0.5,0.7-0.9,0.7c-0.3,0.1-0.7,0-1-0.2C9.2,8.2,9,7.8,9,7.5
	C8.7,7.6,8.5,7.6,8.3,7.7c0.1,0.4,0.3,0.8,0.6,1.1C9.2,9.1,9.6,9.2,10,9.3c0.4,0,0.9,0,1.3-0.3c0.4-0.3,0.8-0.7,0.8-1.2
	c0.1-0.4,0-0.8-0.2-1.1C11.8,6.4,11.6,6.2,11.4,6.1z M18.3,7.6c0.3-0.6,0.4-1.3,0.3-2c-0.2-1-0.9-1.9-1.9-2.3
	c-0.5-0.2-1-0.3-1.5-0.3C14.4,3,13.5,3.5,13,4.2c-0.5,0.6-0.7,1.3-0.6,2.1c0,0.6,0.2,1.2,0.6,1.7c0.4,0.5,0.8,0.8,1.4,1.1
	c0.6,0.2,1.2,0.3,1.8,0.1C17,9,17.8,8.4,18.3,7.6z M16.3,8.5c-0.6,0.2-1.3,0.2-1.9-0.1c-0.7-0.3-1.3-1-1.4-1.8l0,0
	c0.6,0,1.1,0,1.7,0c0.3-0.6,0.5-1.2,0.8-1.7c0.4,0.9,0.7,1.8,1.1,2.6c0.2-0.4,0.4-0.8,0.7-1.2c0.3,0,0.5,0,0.8,0c0-0.1,0-0.2,0-0.2
	c-0.3,0-0.6,0-0.9,0c-0.2,0.3-0.3,0.6-0.5,0.9c-0.4-0.9-0.7-1.8-1.1-2.7c-0.3,0.7-0.6,1.4-1,2.1c-0.5,0-1,0-1.5,0l0,0h0
	c0-0.5,0.1-1,0.3-1.4c0.3-0.6,0.9-1.1,1.6-1.3c0.4-0.1,0.9-0.1,1.3,0c0.5,0.2,1,0.5,1.3,1C17.8,5.1,18,5.5,18,6c0,0.1,0,0.2,0,0.2
	c0,0.5-0.2,0.9-0.4,1.3C17.2,8,16.8,8.4,16.3,8.5z M18.7,10.5c0.4-0.5,0.9-0.9,1.3-1.4c0.3-0.3,0.5-0.6,0.7-0.9
	c0.3-0.4,0.3-0.9,0.2-1.4c-0.2-0.4-0.5-0.8-1-0.9c-0.3-0.1-0.7-0.1-1,0c0,0.2,0,0.3,0,0.5c0.4-0.2,1-0.1,1.3,0.2
	c0.2,0.2,0.4,0.6,0.3,0.9C20.3,8,20,8.3,19.8,8.6c-0.7,0.8-1.5,1.6-2.2,2.4c1.2,0,2.3,0,3.5,0c0-0.2,0-0.3,0-0.5
	C20.2,10.5,19.4,10.5,18.7,10.5z"/>
</svg>
