<?xml version="1.0" encoding="utf-8"?>

<!--
 * Copyright (c) 2015, WSO2 Inc. (http://www.wso2.org) All Rights Reserved.
 *
 * WSO2 Inc. licenses this file to you under the Apache License,
 * Version 2.0 (the "License"); you may not use this file except
 * in compliance with the License.
 * You may obtain a copy of the License at
 *
 * http://www.apache.org/licenses/LICENSE-2.0
 *
 * Unless required by applicable law or agreed to in writing,
 * software distributed under the License is distributed on an
 * "AS IS" BASIS, WITHOUT WARRANTIES OR CONDITIONS OF ANY
 * KIND, either express or implied. See the License for the
 * specific language governing permissions and limitations
 * under the License.
-->

<svg version="1.1" id="wso2" xmlns="http://www.w3.org/2000/svg" xmlns:xlink="http://www.w3.org/1999/xlink" x="0px" y="0px"
	 width="20.8500004px" height="14px" viewBox="3 0 20.8500004 14" style="enable-background:new 3 0 20.8500004 14;"
	 xml:space="preserve">
<path class="st0" d="M10.9055004,2.9767771c-0.6049995,1.4820004-1.2049999,2.9659996-1.8080006,4.4489994
	C8.4944992,5.9397764,7.8894997,4.4547758,7.2875004,2.9687757C6.6774998,4.4517756,6.0785007,5.9397764,5.4745007,7.4247751
	c-0.6059999-1.4810009-1.2049999-2.9650002-1.8079996-4.448c-0.2469997-0.0009995-0.4940004,0-0.7419996,0
	c0.8479996,2.1040001,1.698,4.2070007,2.5489998,6.309C6.0785007,7.794776,6.6795006,6.3007746,7.2865009,4.8097754
	c0.5930004,1.473999,1.1919994,2.9470005,1.7870007,4.4209995c0.0100002,0.0580006,0.0529995,0.0079994,0.0559998-0.0219994
	c0.8400002-2.078001,1.684-4.1539993,2.5249996-6.2310009C11.4055004,2.9767771,11.1544991,2.9777784,10.9055004,2.9767771z
	 M14.2794991,6.0887785c-0.3110008-0.2140007-0.6580009-0.3659992-1-0.5209999
	c-0.2679996-0.1399994-0.5359993-0.2849998-0.7810001-0.4629993c-0.3500004-0.2649994-0.3470001-0.8349991-0.0559998-1.1429996
	c0.2709999-0.2940006,0.7049999-0.3959999,1.0890007-0.316c0.1949997,0.0389996,0.3659992,0.1539993,0.4979992,0.2999992
	c0.1009998,0.1019993,0.1650009,0.2310009,0.2609997,0.3349991c0.1800003-0.1200008,0.3640003-0.2329998,0.5440006-0.3509998
	c-0.2590008-0.4780006-0.7259998-0.8579998-1.2730007-0.9379997c-0.4759998-0.0559998-0.9880009,0.0219994-1.3859997,0.3050003
	c-0.3010006,0.2089996-0.5300007,0.5279999-0.6030006,0.8910007c-0.0739994,0.3610001-0.0459995,0.7619991,0.1550007,1.0779991
	c0.1259995,0.2000008,0.3250008,0.3360004,0.5149994,0.4680004c0.2390003,0.1639996,0.4960003,0.2999992,0.7590008,0.4190006
	c0.3430004,0.1539993,0.6739998,0.3369999,0.9869995,0.5450001c0.1509991,0.0990009,0.2730007,0.2460003,0.3239994,0.4209995
	c0.0760002,0.2530003,0.0459995,0.5289993-0.0459995,0.7740002c-0.1469994,0.3659992-0.4880009,0.6520004-0.8789997,0.7210007
	c-0.3330002,0.0629997-0.7059994,0.0179996-0.9780006-0.198c-0.2859993-0.2210007-0.4389992-0.5669994-0.5209999-0.9099998
	c-0.2220001,0.0680008-0.4449997,0.1359997-0.6679993,0.2029991c0.0930004,0.4029999,0.2740002,0.7980003,0.5790005,1.085001
	c0.2929993,0.2819996,0.6900005,0.4419994,1.0930004,0.4729996c0.4419994,0.0459995,0.907999-0.0370007,1.2840004-0.2830009
	c0.427-0.2749996,0.7560005-0.7169991,0.8409996-1.2229996c0.0629997-0.3799992,0.0429993-0.7959995-0.1560001-1.1350002
	C14.7264996,6.3947783,14.4965,6.2417784,14.2794991,6.0887785z M21.2024994,7.5947771
	c0.3269997-0.6149998,0.4350014-1.3390007,0.3129997-2.0240002c-0.1739998-1.0240002-0.8950005-1.9319992-1.8500004-2.3369999
	c-0.467001-0.2080002-0.9850006-0.2849998-1.4939995-0.2520008C17.2814999,3.0417757,16.4305,3.5037756,15.8924999,4.2167768
	c-0.4510002,0.5849991-0.6830006,1.3349991-0.6399994,2.0720005c0.0279999,0.6189995,0.2490005,1.2280006,0.6210003,1.7229996
	c0.3509998,0.4729996,0.8379993,0.8439999,1.3880005,1.0550003c0.5690002,0.2210007,1.2019997,0.2700005,1.7989998,0.1459999
	C19.9685001,9.0277777,20.7744999,8.4157782,21.2024994,7.5947771z M19.2004986,8.5307779
	c-0.6119995,0.2080002-1.3029995,0.1630001-1.8829994-0.1189995c-0.7250004-0.342001-1.2579994-1.0499992-1.3920002-1.8390007l0,0
	c0.5569992,0,1.1130009,0,1.6700001,0c0.2630005-0.5820007,0.5230007-1.1660004,0.7880001-1.7479992
	c0.3630009,0.875,0.7189999,1.7509995,1.0809994,2.6259995c0.2229996-0.3969994,0.4440002-0.7970009,0.6650009-1.1949997
	c0.2619991,0,0.5249996,0,0.7870007,0c0.007-0.0820007,0.0039997-0.1639996-0.0030003-0.2450008
	c-0.3099995,0-0.6200008,0-0.9300003,0C19.8195,6.3007784,19.6595001,6.5917768,19.4974995,6.8827772
	c-0.3700008-0.8939991-0.7339993-1.7910004-1.1049995-2.6849995c-0.3220005,0.7099991-0.6359997,1.4230003-0.9619999,2.132
	c-0.5100002-0.0049992-1.0209999,0-1.5319996-0.0030003l0,0h-0.007c-0.0219994-0.4750004,0.0699997-0.9599991,0.2980003-1.3789997
	c0.3269997-0.6159992,0.9230003-1.0830002,1.6009998-1.25c0.434-0.1110001,0.8959999-0.1009998,1.3250008,0.0270004
	c0.5330009,0.1569996,1.0100002,0.4969997,1.3320007,0.9500008c0.2789993,0.3880005,0.441,0.8589993,0.4659996,1.3360004
	c0.007,0.0809994,0.0100002,0.1630001,0.0030003,0.2450008c-0.0200005,0.4729996-0.1760006,0.9389992-0.4489994,1.3260002
	C20.161499,8.0207777,19.7115002,8.3617773,19.2004986,8.5307779z M21.5965004,10.5337782
	c0.4259987-0.4599991,0.8540001-0.9200001,1.2789993-1.3789997c0.2630005-0.2870007,0.5239983-0.5820007,0.7319984-0.9139996
	c0.2529984-0.4080009,0.3219986-0.9290009,0.1679993-1.3850002c-0.1559982-0.4379997-0.5180016-0.8080006-0.9669991-0.9400005
	c-0.3289986-0.0960007-0.6850014-0.0949993-1.0149994-0.0039997c0.0200005,0.1730003-0.0009995,0.3470001-0.0130005,0.5200005
	c0.4169998-0.184,0.9500008-0.1130009,1.2719994,0.2210007c0.2490005,0.2339993,0.3549995,0.5960007,0.2869987,0.9300003
	c-0.0730019,0.4260006-0.3889999,0.7439995-0.6559982,1.0620003c-0.7319984,0.7989998-1.473999,1.5890007-2.2080002,2.3859997
	c1.1500015,0.0009995,2.2999992,0,3.4500008,0c0-0.1650009,0-0.3309994,0-0.4969997
	C23.1484985,10.5337782,22.3725014,10.5327787,21.5965004,10.5337782z"/>
</svg>
