<?xml version="1.0" encoding="utf-8"?>
<!-- Generator: Adobe Illustrator 19.2.0, SVG Export Plug-In . SVG Version: 6.00 Build 0)  -->
<svg version="1.1" id="xacml" xmlns="http://www.w3.org/2000/svg" xmlns:xlink="http://www.w3.org/1999/xlink" x="0px" y="0px"
	 viewBox="0 0 14 14" style="enable-background:new 0 0 14 14;" xml:space="preserve">
<path d="M10.5,11.4500122l-1.4500122,0.7199707v-0.4500122l0.0300293-0.0099487l0.9699707-0.4500122l-1-0.4700317v-0.4499512
	l1.4800415,0.7399902v0.3599854L10.5,11.4500122z M9,9.8900146H8.5999756L7.960022,12.2700195h0.3899536L9,9.8900146z
	 M7.789978,11.7199707l-0.9799805-0.4599609l0.9500122-0.4500122L7.789978,10.789978v-0.4499512l-1.4599609,0.7299805
	l-0.0300293,0.0200195v0.3399658l1.4899902,0.7399902V11.7199707z M5.1699829,7.5700073L4.8900146,6.8099976L4.6099854,7.5700073
	H5.1699829z M13.0200195,5.2199707v4.3100586h-0.960022V14H1.9299927V9.5300293H0.9799805V5.2199707h0.9500122V0h6.6900024
	l3.4400024,3.2600098v1.9599609H13.0200195z M3.1300049,5.2199707h7.7399902V3.8099976H8.25V1.2000122H3.1300049V5.2199707z
	 M9.8099976,6.7700195v1.6099854h0.3800049V6.3300171H9.5700073L9.210022,7.7299805L8.8300171,6.3300171H8.210022v2.0499878
	h0.3899536V6.7700195L9,8.3800049h0.4000244L9.8099976,6.7700195z M6.5100098,7.3400269
	c0-0.2400513,0.039978-0.4200439,0.1400146-0.5300293c0.0899658-0.1099854,0.2199707-0.1599731,0.3699951-0.1599731
	c0.1099854,0,0.1999512,0.0299683,0.2799683,0.0899658s0.1300049,0.1500244,0.1500244,0.25l0.4099731-0.0999756
	C7.8099976,6.7299805,7.7399902,6.5999756,7.6500244,6.5200195C7.4899902,6.3699951,7.289978,6.289978,7.039978,6.289978
	c-0.289978,0-0.5199585,0.1000366-0.6999512,0.2900391c-0.1700439,0.1900024-0.2600098,0.4500122-0.2600098,0.789978
	c0,0.3200073,0.0899658,0.5800171,0.2600098,0.7600098c0.1799927,0.1900024,0.3999634,0.2799683,0.6699829,0.2799683
	c0.2199707,0,0.4099731-0.0499878,0.5499878-0.1599731s0.2399902-0.2700195,0.3099976-0.5L7.460022,7.6300049
	c-0.0300293,0.1500244-0.0900269,0.25-0.1700439,0.3300171C7.210022,8.0300293,7.1199951,8.0599976,7.0100098,8.0599976
	c-0.1500244,0-0.2700195-0.0499878-0.3599854-0.1699829C6.5499878,7.789978,6.5100098,7.5999756,6.5100098,7.3400269z
	 M5.1099854,6.3300171H4.6799927L3.8800049,8.3800049h0.4400024l0.1699829-0.4700317h0.8099976l0.1799927,0.4700317h0.4500122
	L5.1099854,6.3300171z M2.9199829,7.6699829l0.4500122,0.710022h0.5L3.1699829,7.3200073l0.6400146-0.9899902H3.3300171
	L2.9299927,6.9899902L2.5200195,6.3300171H2.0300293l0.6399536,0.9799805L1.9699707,8.3800049H2.460022L2.9199829,7.6699829z
	 M10.8699951,9.5300293H3.1300049v3.2699585h7.7399902V9.5300293z M12.0599976,8.0300293h-1.0299683V6.3499756h-0.4100342v2.0300293
	h1.4400024V8.0300293z"/>
</svg>
