<?xml version="1.0" encoding="utf-8"?>

<!--
 * Copyright (c) 2015, WSO2 Inc. (http://www.wso2.org) All Rights Reserved.
 *
 * WSO2 Inc. licenses this file to you under the Apache License,
 * Version 2.0 (the "License"); you may not use this file except
 * in compliance with the License.
 * You may obtain a copy of the License at
 *
 * http://www.apache.org/licenses/LICENSE-2.0
 *
 * Unless required by applicable law or agreed to in writing,
 * software distributed under the License is distributed on an
 * "AS IS" BASIS, WITHOUT WARRANTIES OR CONDITIONS OF ANY
 * KIND, either express or implied. See the License for the
 * specific language governing permissions and limitations
 * under the License.
-->

<svg version="1.1" id="xq" xmlns="http://www.w3.org/2000/svg" xmlns:xlink="http://www.w3.org/1999/xlink" x="0px" y="0px"
	 viewBox="0 0 14 14" style="enable-background:new 0 0 14 14;" xml:space="preserve">
<path d="M10.0500002,11.2600002l-1-0.4700003v-0.4499998l1.4799995,0.7399998v0.3599997L10.5,11.4499998l-1.4499998,0.7200003
	v-0.4499998L9.0799999,11.71L10.0500002,11.2600002z M8.3500004,12.2700005L9,9.8900003H8.6000004L7.96,12.2700005H8.3500004z
	 M8.29,8.2399998c0.0799999,0,0.1499996-0.0199995,0.2300005-0.04C8.3999996,8.1199999,8.29,8.0600004,8.1700001,8.0200005
	l0.1599998-0.3200006c0.1800003,0.0700002,0.3599997,0.1600003,0.5299997,0.29
	c0.0700006-0.0899997,0.1199999-0.1899996,0.1600008-0.3099999c0.04-0.1199999,0.0499992-0.2599998,0.0499992-0.4099998
	c0-0.3299999-0.0699997-0.5700002-0.21-0.73c-0.1399994-0.1500001-0.3299999-0.23-0.5599995-0.23
	c-0.2300005,0-0.4100003,0.0799999-0.5500002,0.2400002C7.5999999,6.71,7.5300002,6.9499998,7.5300002,7.27
	S7.5999999,7.8299999,7.75,8C7.8899999,8.1599998,8.0699997,8.2399998,8.29,8.2399998z M7.7600002,10.8100004L7.79,10.79v-0.4499998
	l-1.46,0.7299995l-0.0299997,0.0200005v0.3400002L7.79,12.1700001v-0.4499998l-0.98-0.46L7.7600002,10.8100004z
	 M1.9299999,5.2199998H0.98v4.3099999h0.9499999V14h10.1300001V9.5299997h0.96V5.2199998h-0.96V3.26L8.6199999,0H1.9299999
	V5.2199998z M6.9499998,7.27c0-0.46,0.1300001-0.8099999,0.3700004-1.0700002
	c0.2399998-0.25,0.5699997-0.3699999,0.9900002-0.3699999c0.4099998,0,0.7399998,0.1199999,0.9799995,0.3699999
	C9.5299997,6.46,9.6499996,6.8099999,9.6499996,7.27c0,0.2400002-0.0299997,0.4499998-0.0999994,0.6300001
	C9.5,8.04,9.4200001,8.1700001,9.3100004,8.3000002c0.1399994,0.0999994,0.29,0.1799994,0.4499998,0.2399998l-0.21,0.3999996
	c-0.0799999-0.0299997-0.1700001-0.0599995-0.25-0.1099997c-0.0200005-0.0100002-0.1400003-0.0900002-0.3699999-0.25
	C8.75,8.6700001,8.54,8.71,8.3199997,8.71c-0.4299998,0-0.7599998-0.1300001-0.9999995-0.3800001
	C7.0700002,8.0799999,6.9499998,7.7199998,6.9499998,7.27z M3.1300001,1.2H8.25v2.6099999h2.6199999v1.4099998H3.1300001V1.2z
	 M6.0999999,8.6599998L5.48,7.6900001L4.8699999,8.6599998H4.1900001l0.9499998-1.46L4.2800002,5.8699999h0.6599998L5.5,6.77
	l0.54-0.9000001h0.6500001L5.8299999,7.23l0.9500003,1.4299998H6.0999999z M10.8699999,12.8000002H3.1300001V9.5299997h7.7399998
	V12.8000002z"/>
</svg>
