<?xml version="1.0" encoding="utf-8"?>
<!-- Generator: Adobe Illustrator 19.2.0, SVG Export Plug-In . SVG Version: 6.00 Build 0)  -->
<svg version="1.1" id="xsd" xmlns="http://www.w3.org/2000/svg" xmlns:xlink="http://www.w3.org/1999/xlink" x="0px" y="0px"
	 viewBox="0 0 14 14" style="enable-background:new 0 0 14 14;" xml:space="preserve">
<path d="M10.5039978,11.4505005l-1.4550781,0.7241211v-0.4526978l0.0302734-0.0137939l0.96875-0.4505615l-0.9990234-0.4653931
	v-0.4526978l1.484375,0.7389526v0.3572388L10.5039978,11.4505005z M7.7862244,11.7229614l-0.9775391-0.4653931l0.9482422-0.4515991
	l0.0292969-0.0148926v-0.4515991l-1.4560547,0.7336426L6.3018494,11.086853v0.3392944l1.484375,0.7484741V11.7229614z
	 M8.999115,9.8910522H8.6045837l-0.6464844,2.3779297h0.3955078L8.999115,9.8910522z M13.0249939,5.2199707v4.3100586h-0.960022V14
	H1.934967V9.5300293H0.9750061V5.2199707H1.934967V0h6.6900024l3.4400024,3.2600098v1.9599609H13.0249939z M3.1349792,5.2199707
	h7.7300415V3.8099976H8.2549744V1.2000122H3.1349792V5.2199707z M10.8650208,9.5300293H3.1349792v3.2699585h7.7300415V9.5300293z
	 M3.8154366,8.7251396l0.6152346-0.9570312l0.6132812,0.9570312h0.6738281L4.7724681,7.3022881l0.8603516-1.3432617H4.9853587
	L4.4414134,6.8476982L3.8867257,5.9590263H3.2343819l0.8564456,1.3227539L3.1455147,8.7251396H3.8154366z M6.1982493,8.5317802
	c0.1875,0.1611328,0.4560547,0.2421875,0.8056641,0.2421875c0.2402344,0,0.4404297-0.0332031,0.6015625-0.1005859
	s0.2861328-0.1699219,0.3740234-0.3085938c0.0878901-0.1386719,0.1318355-0.2871094,0.1318355-0.4453125
	c0-0.1748047-0.0361328-0.3222656-0.1103516-0.4414062C7.9277415,7.3599052,7.826179,7.2661552,7.6953197,7.1977959
	C7.5654368,7.1284599,7.364265,7.062542,7.0927806,6.9985771S6.6494212,6.8726006,6.5791087,6.8135185
	C6.5244212,6.7671318,6.4961009,6.7109795,6.4961009,6.6455498c0-0.0717773,0.0292969-0.1289062,0.0888672-0.1713867
	c0.0917969-0.0668945,0.21875-0.1000977,0.3808594-0.1000977c0.1572266,0,0.2753906,0.03125,0.3544922,0.0932617
	c0.078125,0.0625,0.1298828,0.1645508,0.1533203,0.3066406l0.5585933-0.0244141
	c-0.0087891-0.2543945-0.1005855-0.4575195-0.2763667-0.609375C7.5800853,5.9878349,7.3193431,5.9116631,6.9716868,5.9116631
	c-0.2128906,0-0.3935547,0.0322266-0.5439453,0.0961914s-0.265625,0.1577148-0.3457031,0.2802734
	S5.9619212,6.5425224,5.9619212,6.6836357c0,0.21875,0.0849609,0.4042969,0.2548828,0.5561523
	c0.1210938,0.1083984,0.3310547,0.1992188,0.6308594,0.2734375C7.0800853,7.5718193,7.2294993,7.6118584,7.294929,7.6343193
	C7.3896556,7.668499,7.4570384,7.7085381,7.4951243,7.7544365C7.5341868,7.8003349,7.5527415,7.855999,7.5527415,7.9214287
	c0,0.1015625-0.0449219,0.1904297-0.1367188,0.2666016c-0.0908203,0.0761719-0.2265625,0.1142578-0.40625,0.1142578
	c-0.1699219,0-0.3046875-0.0429688-0.4052734-0.1279297C6.50489,8.0884209,6.4384837,7.9546318,6.4052806,7.7720146
	L5.8623118,7.824749C5.8984447,8.1343193,6.0107493,8.3696709,6.1982493,8.5317802z M8.5800848,8.7251396h1.0507812
	c0.2060547,0,0.3710938-0.0195312,0.4941406-0.0585938c0.1650391-0.0527344,0.2958984-0.1259766,0.3925781-0.2207031
	c0.1289062-0.125,0.2275391-0.2871094,0.296875-0.4882812c0.0566406-0.1650391,0.0849609-0.3613281,0.0849609-0.5888672
	c0-0.2592773-0.0302734-0.4775391-0.0908203-0.6542969s-0.1484375-0.3261719-0.2646484-0.4477539
	c-0.1152344-0.1220703-0.2539062-0.2070312-0.4169922-0.2548828c-0.1201172-0.0351562-0.2958984-0.0527344-0.5263672-0.0527344
	H8.5800848V8.7251396z M9.3896551,6.4267998c0.2275391,0,0.3808594,0.0087891,0.4580078,0.0263672
	c0.1044922,0.0224609,0.1914062,0.065918,0.2587891,0.1303711c0.0683594,0.0639648,0.1210938,0.1533203,0.1582031,0.2680664
	c0.0380859,0.1142578,0.0566406,0.2788086,0.0566406,0.4916992c0,0.2148438-0.0185547,0.3837891-0.0566406,0.5068359
	c-0.0371094,0.1240234-0.0859375,0.2128906-0.1455078,0.2675781C10.059577,8.1714287,9.9843817,8.2095146,9.8935614,8.2329521
	C9.8242254,8.2505302,9.7119207,8.2593193,9.5556707,8.2593193H9.1386786V6.4267998H9.3896551z"/>
</svg>
