<?xml version="1.0" encoding="utf-8"?>

<!--
 * Copyright (c) 2015, WSO2 Inc. (http://www.wso2.org) All Rights Reserved.
 *
 * WSO2 Inc. licenses this file to you under the Apache License,
 * Version 2.0 (the "License"); you may not use this file except
 * in compliance with the License.
 * You may obtain a copy of the License at
 *
 * http://www.apache.org/licenses/LICENSE-2.0
 *
 * Unless required by applicable law or agreed to in writing,
 * software distributed under the License is distributed on an
 * "AS IS" BASIS, WITHOUT WARRANTIES OR CONDITIONS OF ANY
 * KIND, either express or implied. See the License for the
 * specific language governing permissions and limitations
 * under the License.
-->

<svg version="1.1" id="xslt" xmlns="http://www.w3.org/2000/svg" xmlns:xlink="http://www.w3.org/1999/xlink" x="0px" y="0px"
	 viewBox="0 0 14 14" style="enable-background:new 0 0 14 14;" xml:space="preserve">
<path d="M10.5039978,11.4505005l-1.4550781,0.7241211v-0.4526978l0.0302734-0.0137939l0.96875-0.4505615l-0.9990234-0.4653931
	v-0.4526978l1.484375,0.7389526v0.3572388L10.5039978,11.4505005z M7.7862244,11.7229614l-0.9775391-0.4653931l0.9482422-0.4515991
	l0.0292969-0.0148926v-0.4515991l-1.4560547,0.7336426L6.3018494,11.086853v0.3392944l1.484375,0.7484741V11.7229614z
	 M8.999115,9.8910522H8.6045837l-0.6464844,2.3779297h0.3955078L8.999115,9.8910522z M13.0249939,5.2199707v4.3100586h-0.960022V14
	H1.934967V9.5300293H0.9750061V5.2199707H1.934967V0h6.6900024l3.4400024,3.2600098v1.9599609H13.0249939z M10.1572361,6.4480705
	v2.1034079h0.5118771V6.4480705h0.0186329h0.7352381V6.0106082H10.687746H9.4033651v0.4374623H10.1572361z M8.2120314,8.123333
	V6.0385566H7.6908379v2.5129218h1.7962589V8.123333H8.2120314z M3.1349792,5.2199707h7.7300415V3.8099976H8.2549744V1.2000122
	H3.1349792V5.2199707z M6.741498,7.8161831c0,0.0931048-0.046524,0.176837-0.1302557,0.241993
	C6.5274534,8.1326485,6.4064569,8.169857,6.2389364,8.169857c-0.1582046,0-0.279201-0.0372086-0.3723059-0.1209965
	C5.7735825,7.9743876,5.7177424,7.8441319,5.6805344,7.6766114l-0.4933023,0.05584
	c0.0279489,0.2792006,0.1303129,0.4932451,0.3071494,0.64219C5.6619024,8.52353,5.9132113,8.5980024,6.22962,8.5980024
	c0.223361,0,0.409514-0.0279484,0.5584588-0.0931044c0.1488881-0.0558405,0.2605686-0.1488886,0.3443575-0.2792015
	c0.0744157-0.130312,0.1209965-0.2605681,0.1209965-0.4095135c0-0.1582041-0.0372648-0.297833-0.1024213-0.4095135
	C7.085855,7.3043056,6.9928074,7.2112575,6.8718104,7.1554174C6.750814,7.090261,6.5646615,7.0251045,6.3134089,6.9692645
	C6.0620995,6.913424,5.9038954,6.857584,5.8480549,6.801744c-0.05584-0.0465808-0.0837884-0.0931048-0.0837884-0.1582613
	s0.0279484-0.1209965,0.0837884-0.1582046C5.931787,6.4294381,6.0527835,6.39223,6.2017283,6.39223
	c0.1395721,0,0.2512527,0.0278921,0.3257251,0.0930481c0.0651565,0.0558405,0.1116805,0.1488881,0.1396289,0.279201
	l0.5118775-0.0278916c-0.009316-0.232677-0.0931048-0.4188299-0.2513089-0.5584588
	C6.7601304,6.0385566,6.5274534,5.9734006,6.2017283,5.9734006c-0.1954689,0-0.3629894,0.0278916-0.4933023,0.0837317
	C5.5688543,6.1222887,5.4571171,6.2060776,5.3827014,6.3177576c-0.0651565,0.1116805-0.1023645,0.232677-0.1023645,0.3629899
	c0,0.2047281,0.0744162,0.3722486,0.232677,0.5118775C5.6246943,7.2949891,5.8107905,7.378778,6.0900483,7.4439344
	c0.2140446,0.05584,0.3536735,0.0930481,0.4095135,0.11168C6.5926099,7.5835066,6.6484499,7.6207709,6.685658,7.667295
	C6.7229223,7.7045031,6.741498,7.7603431,6.741498,7.8161831z M3.5584941,7.2298331L3.4933376,7.3321972L2.6929429,8.5514784
	h0.6142418l0.1861529-0.2885733l0.3723059-0.5862937l0.567718,0.874867h0.6142988L4.1820521,7.2484651l0.7911358-1.2378569H4.377521
	L3.8842757,6.8296356l-0.390938-0.623558L3.3723412,6.0106082H2.7674153l0.7259223,1.1168604L3.5584941,7.2298331z
	 M10.8650208,9.5300293H3.1349792v3.2699585h7.7300415V9.5300293z"/>
</svg>
