<?xml version="1.0" encoding="utf-8"?>

<!--
 * Copyright (c) 2015, WSO2 Inc. (http://www.wso2.org) All Rights Reserved.
 *
 * WSO2 Inc. licenses this file to you under the Apache License,
 * Version 2.0 (the "License"); you may not use this file except
 * in compliance with the License.
 * You may obtain a copy of the License at
 *
 * http://www.apache.org/licenses/LICENSE-2.0
 *
 * Unless required by applicable law or agreed to in writing,
 * software distributed under the License is distributed on an
 * "AS IS" BASIS, WITHOUT WARRANTIES OR CONDITIONS OF ANY
 * KIND, either express or implied. See the License for the
 * specific language governing permissions and limitations
 * under the License.
-->

<svg version="1.1" id="zoom-in" xmlns="http://www.w3.org/2000/svg" xmlns:xlink="http://www.w3.org/1999/xlink" x="0px" y="0px"
	 viewBox="0 0 14 14" style="enable-background:new 0 0 14 14;" xml:space="preserve">
<path d="M10.9,9.2c0.9,0.9,3.1,3.1,3.1,3.1L12.4,14c0,0-2.4-2.5-3.1-3.2c0,0,0,0,0,0c-0.1-0.1,0-0.1-0.2,0c-0.2,0.1-0.4,0.2-0.7,0.3
	c0,0-0.1,0-0.1,0.1c-3.7,1.8-8-0.9-8.2-5C-0.1,2.8,2.5,0,5.9,0c2.3,0,4.1,1,5.2,3c1.1,1.9,1,3.9,0,5.9C11,9.1,11,9.2,10.9,9.2z
	 M6.1,10.5c2.5-0.1,4.5-2.1,4.5-4.6C10.5,3.3,8.5,1.3,6,1.4C3.3,1.5,1.3,3.5,1.4,6C1.5,8.5,3.5,10.6,6.1,10.5z M9,5.2H6.8V2.9H5.3
	v2.2H3v1.5h2.3v2.2h1.5V6.7H9V5.2z"/>
</svg>
