<?xml version="1.0" standalone="no"?>
<!DOCTYPE svg PUBLIC "-//W3C//DTD SVG 1.1//EN" "http://www.w3.org/Graphics/SVG/1.1/DTD/svg11.dtd" >
<svg xmlns="http://www.w3.org/2000/svg">
<metadata>Generated by IcoMoon</metadata>
<defs>
<font id="wso2metro" horiz-adv-x="1024">
<font-face units-per-em="1024" ascent="960" descent="-64" />
<missing-glyph horiz-adv-x="1024" />
<glyph unicode="&#x20;" d="" horiz-adv-x="512" />
<glyph unicode="&#xe600;" d="M673.771 959.616h-39.168l-0.192 0.171v-0.171h-458.944c-29.077 0-52.757-23.659-52.757-52.757v-917.909c0-29.077 23.659-52.757 52.757-52.757h673.088c29.077 0 52.757 23.659 52.757 52.757v752.533l-227.541 218.133zM848.533-33.195h-673.067c-12.224 0-22.144 9.941-22.144 22.144v917.931c0 12.181 9.92 22.144 22.144 22.144h458.965v-174.592c0-27.776 22.613-50.368 50.368-50.368h185.899v-715.115c-0.021-12.203-9.941-22.144-22.165-22.144zM501.376 87.339l103.445-47.787v22.805l-78.272 34.027v0.405l78.272 34.197v22.805l-103.445-47.979zM620.544 30.976h21.717l46.016 155.925h-21.717zM700.565 153.792v-22.805l80.021-34.197v-0.405l-80.021-34.219v-22.613l103.445 47.104v19.819zM921.643 593.707h-819.307c-20.693 0-37.44-16.789-37.44-37.461v-254.891c0-20.715 16.747-37.461 37.44-37.461h819.307c20.693 0 37.461 16.747 37.461 37.461v254.891c0 20.672-16.768 37.461-37.461 37.461zM377.152 338.155l-16.363 32.683c-6.677 12.608-10.987 21.952-16.085 32.405h-0.491c-3.755-10.432-8.32-19.797-14.208-32.405l-14.72-32.683h-46.635l52.224 91.349-50.347 89.216h46.891l15.787-32.939c5.355-10.987 9.344-19.819 13.653-29.995h0.533c4.288 11.52 7.765 19.563 12.309 29.995l15.296 32.939h46.613l-50.901-88.128 53.589-92.437h-47.147zM490.432 335.211c-20.651 0-41.003 5.632-51.179 11.243l8.341 33.472c10.709-5.632 27.861-11.243 45.269-11.243 18.731 0 28.651 7.765 28.651 19.84 0 10.965-8.533 17.664-30.251 25.173-30.016 10.731-49.835 27.328-49.835 53.824 0 30.827 25.984 54.123 68.309 54.123 20.629 0 35.349-4.032 46.080-9.109l-9.109-32.683c-6.976 3.477-20.096 8.555-37.525 8.555-17.685 0-26.24-8.299-26.24-17.408 0-11.52 9.92-16.597 33.472-25.707 31.893-11.776 46.613-28.416 46.613-54.123 0-30.251-23.019-55.957-72.597-55.957zM720.811 359.573c-19.051-15.808-48.235-23.317-83.605-23.317-21.141 0-36.416 1.344-46.336 2.688v177.045c15.019 2.688 34.56 4.032 54.912 4.032 34.56 0 57.045-5.632 74.197-18.752 18.773-13.931 30.549-36.437 30.549-68.565 0-34.56-12.587-58.389-29.717-73.131zM650.091 488.704c-8.853 0-14.997-0.832-18.475-1.6v-118.144c3.477-0.811 9.365-0.811 14.187-0.811 37.227-0.256 61.611 20.096 61.611 63.232-0.021 38.827-21.973 57.323-57.323 57.323z" />
<glyph unicode="&#xe601;" d="M0.021 374.891l349.973-161.621v77.099l-264.832 115.136v1.387l264.832 115.691v77.184l-349.973-162.347zM403.221 184.235h73.536l155.648 527.531h-73.472zM673.984 599.765v-77.184l270.763-115.691v-1.387l-270.763-115.755v-76.48l349.995 159.381v67.029z" />
<glyph unicode="&#xe602;" d="M673.771 959.616h-39.168l-0.192 0.171v-0.171h-458.944c-29.077 0-52.757-23.659-52.757-52.757v-917.909c0-29.077 23.659-52.757 52.757-52.757h673.088c29.077 0 52.757 23.659 52.757 52.757v752.533l-227.541 218.133zM848.533-33.195h-673.067c-12.224 0-22.144 9.941-22.144 22.144v917.931c0 12.181 9.92 22.144 22.144 22.144h458.965v-174.592c0-27.776 22.613-50.368 50.368-50.368h185.899v-715.115c-0.021-12.203-9.941-22.144-22.165-22.144zM362.475 476.8h-0.683c-2.027-9.003-4.501-20.501-6.763-29.291l-9.237-32.213h33.579l-9.472 32.213c-2.475 9.003-5.184 20.501-7.424 29.291zM921.643 593.707h-819.307c-20.693 0-37.44-16.789-37.44-37.461v-254.891c0-20.715 16.747-37.461 37.44-37.461h819.307c20.693 0 37.461 16.747 37.461 37.461v254.891c0 20.672-16.768 37.461-37.461 37.461zM245.952 350.656l-13.739 27.477c-5.632 10.581-9.237 18.475-13.504 27.243h-0.469c-3.136-8.768-6.976-16.661-11.947-27.243l-12.373-27.477h-39.189l43.925 76.821-42.347 75.008h39.424l13.291-27.712c4.501-9.237 7.872-16.661 11.477-25.237h0.448c3.605 9.685 6.528 16.448 10.347 25.237l12.843 27.712h39.189l-42.795-74.112 45.056-77.717h-39.637zM396.245 350.656l-11.712 38.976h-43.691l-10.603-38.976h-35.584l46.4 151.829h44.843l47.296-151.829h-36.949zM525.376 376.768c10.581 0 21.845 2.048 28.843 4.949l4.949-27.029c-6.080-2.944-20.501-6.549-38.741-6.549-52.48 0-79.509 32.896-79.509 76.373 0 51.797 36.928 80.405 82.901 80.405 17.792 0 31.296-3.605 37.376-6.763l-7.211-27.029c-6.741 2.923-16.448 5.632-28.821 5.632-27.029 0-48.213-16.448-48.213-50.453 0-30.379 18.027-49.536 48.427-49.536zM712.853 350.656l-2.475 58.133c-0.683 18.24-1.344 40.085-1.344 62.379h-0.448c-4.949-19.371-11.243-40.981-17.131-58.773l-18.453-59.243h-26.816l-16.213 58.56c-4.949 18.027-9.92 39.424-13.76 59.477h-0.448c-0.683-20.48-1.579-43.925-2.475-62.848l-2.944-57.664h-31.765l9.685 151.829h45.739l14.869-50.901c4.949-17.344 9.451-36.267 12.843-54.059h0.896c4.053 17.557 9.259 37.397 14.421 54.507l16 50.453h45.056l8.107-151.829h-33.344zM867.435 350.656h-94.635v151.829h34.24v-122.987h60.373v-28.843zM501.376 87.339l103.445-47.787v22.805l-78.272 34.027v0.405l78.272 34.197v22.805l-103.445-47.979zM620.544 30.976h21.717l46.016 155.925h-21.717zM700.565 153.792v-22.805l80.021-34.197v-0.405l-80.021-34.219v-22.613l103.445 47.104v19.819z" />
<glyph unicode="&#xe603;" d="M707.392 480.725c15.893 34.539 31.211 69.333 46.912 103.936 18.091-43.605 35.861-87.317 53.888-130.923 7.893 14.187 15.701 28.416 23.68 42.539 15.125-0.021 30.208 0.021 45.333 0 0.32-3.989 0.469-7.979 0.128-11.968-12.779 0.021-25.579 0.021-38.357 0-10.816-19.413-21.568-38.891-32.448-58.261-17.643 42.667-35.029 85.419-52.715 128.064-12.885-28.373-25.557-56.875-38.4-85.248-27.136 0-54.315 0-81.451 0-0.555 3.989-1.195 7.979-1.259 12.032 24.896-0.192 49.813 0.064 74.688-0.171zM0 644.139c12.053-0.021 24.107 0.021 36.16-0.021 29.397-72.277 58.624-144.64 88.171-216.875 29.44 72.448 58.624 144.981 88.384 217.301 29.397-72.469 58.859-144.896 88.277-217.344 29.397 72.299 58.667 144.683 88.149 216.939 12.181-0.021 24.405 0.021 36.587-0.021-41.003-101.291-82.155-202.517-123.115-303.851-0.128-1.472-2.219-3.883-2.731-1.067-29.013 71.851-58.219 143.659-87.147 215.552-29.632-72.683-58.923-145.515-88.427-218.24-41.536 102.507-82.965 205.056-124.309 307.627zM451.136 628.523c19.371 13.803 44.352 17.621 67.563 14.869 26.667-3.861 49.429-22.4 62.059-45.717-8.768-5.781-17.749-11.285-26.517-17.131-4.672 5.099-7.808 11.392-12.715 16.341-6.443 7.083-14.784 12.715-24.299 14.613-18.731 3.904-39.893-1.045-53.099-15.403-14.165-14.997-14.293-42.795 2.752-55.723 11.947-8.661 24.981-15.765 38.059-22.571 16.661-7.552 33.6-14.955 48.747-25.408 10.56-7.445 21.781-14.891 28.48-26.283 9.728-16.533 10.709-36.821 7.616-55.36-4.139-24.661-20.203-46.208-41.003-59.627-18.325-11.968-41.024-16.043-62.592-13.781-19.648 1.536-38.997 9.323-53.291 23.083-14.891 13.973-23.701 33.237-28.245 52.885 10.859 3.307 21.739 6.592 32.555 9.92 4.011-16.725 11.477-33.6 25.408-44.373 13.291-10.539 31.467-12.693 47.701-9.643 19.072 3.371 35.669 17.301 42.859 35.157 4.459 11.947 5.909 25.387 2.219 37.739-2.475 8.533-8.469 15.701-15.808 20.544-15.296 10.155-31.403 19.093-48.149 26.581-12.843 5.803-25.365 12.437-37.013 20.416-9.301 6.464-19.008 13.056-25.131 22.827-9.813 15.445-11.136 35.008-7.552 52.587 3.541 17.707 14.741 33.259 29.397 43.456zM743.445 643.925c24.811 1.6 50.069-2.176 72.853-12.309 46.571-19.755 81.728-64.021 90.219-113.941 5.952-33.387 0.683-68.715-15.275-98.688-20.843-40.043-60.16-69.845-104.448-78.891-29.099-6.080-59.968-3.691-87.723 7.104-26.795 10.325-50.56 28.395-67.669 51.456-18.155 24.149-28.928 53.824-30.293 84.011-2.069 35.947 9.216 72.533 31.211 101.056 26.219 34.731 67.733 57.28 111.125 60.203zM724.992 609.088c-33.045-8.128-62.101-30.891-78.059-60.949-11.157-20.459-15.637-44.096-14.549-67.264h0.341c0.064-4.053 0.683-8.043 1.259-12.032 6.507-38.485 32.533-72.981 67.861-89.664 28.267-13.76 61.973-15.936 91.797-5.803 24.896 8.192 46.848 24.811 61.824 46.272 13.291 18.88 20.928 41.621 21.888 64.661 0.363 4.011 0.192 8-0.128 11.968-1.195 23.253-9.109 46.229-22.699 65.152-15.701 22.101-38.933 38.677-64.939 46.336-20.885 6.229-43.456 6.72-64.597 1.323zM920.021 501.077c16.085 4.437 33.429 4.48 49.493-0.213 21.909-6.443 39.573-24.469 47.168-45.845 7.509-22.229 4.181-47.637-8.171-67.52-10.112-16.171-22.827-30.549-35.669-44.565-20.757-22.421-41.621-44.821-62.379-67.264 37.824 0.043 75.691 0 113.515 0 0-8.085 0.021-16.171 0-24.235-56.064 0.043-112.149-0.043-168.235 0.021 35.819 38.848 71.979 77.376 107.669 116.352 13.013 15.488 28.416 31.019 31.979 51.776 3.328 16.256-1.835 33.941-13.973 45.333-15.701 16.32-41.685 19.755-62.016 10.795 0.576 8.448 1.6 16.939 0.619 25.365z" />
<glyph unicode="&#xe604;" d="M673.771 959.616h-39.168l-0.192 0.171v-0.171h-458.944c-29.077 0-52.757-23.659-52.757-52.757v-917.909c0-29.077 23.659-52.757 52.757-52.757h673.088c29.077 0 52.757 23.659 52.757 52.757v752.533l-227.541 218.133zM848.533-33.195h-673.067c-12.224 0-22.144 9.941-22.144 22.144v917.931c0 12.181 9.92 22.144 22.144 22.144h458.965v-174.592c0-27.776 22.613-50.368 50.368-50.368h185.899v-715.115c-0.021-12.203-9.941-22.144-22.165-22.144zM501.376 87.339l103.445-47.787v22.805l-78.272 34.027v0.405l78.272 34.197v22.805l-103.445-47.979zM620.544 30.976h21.717l46.016 155.925h-21.717zM700.565 153.792v-22.805l80.021-34.197v-0.405l-80.021-34.219v-22.613l103.445 47.104v19.819zM617.387 488.704c-8.832 0-14.997-0.832-18.475-1.6v-118.144c3.477-0.811 9.365-0.811 14.187-0.811 37.227-0.256 61.632 20.096 61.632 63.232 0 38.827-21.973 57.323-57.344 57.323zM921.643 593.707h-819.307c-20.693 0-37.44-16.789-37.44-37.461v-254.891c0-20.715 16.747-37.461 37.44-37.461h819.307c20.693 0 37.461 16.747 37.461 37.461v254.891c0 20.672-16.768 37.461-37.461 37.461zM347.947 338.155h-44.181l-15.275 77.696c-3.477 18.219-6.443 35.093-8.555 55.723h-0.533c-3.2-20.373-6.165-37.483-10.453-55.723l-17.131-77.696h-44.779l-42.837 180.544h43.648l13.653-74.219c4.032-21.696 7.787-44.992 10.731-63.488h0.533c2.944 19.84 7.232 41.515 11.776 64.021l15.275 73.685h43.392l14.464-76.075c4.032-21.163 6.976-40.448 9.643-60.523h0.533c2.667 20.075 6.699 41.259 10.453 62.933l14.72 73.685h41.515l-46.592-180.565zM457.749 335.211c-20.629 0-40.96 5.632-51.136 11.243l8.299 33.472c10.731-5.632 27.861-11.243 45.269-11.243 18.752 0 28.672 7.765 28.672 19.84 0 10.965-8.555 17.664-30.272 25.173-30.016 10.731-49.813 27.328-49.813 53.824 0 30.827 25.984 54.123 68.288 54.123 20.629 0 35.371-4.032 46.080-9.109l-9.109-32.683c-6.976 3.477-20.096 8.555-37.525 8.555-17.664 0-26.219-8.299-26.219-17.408 0-11.52 9.899-16.597 33.451-25.707 31.872-11.776 46.635-28.416 46.635-54.123-0.021-30.251-23.061-55.957-72.619-55.957zM688.128 359.573c-19.051-15.808-48.213-23.317-83.584-23.317-21.141 0-36.437 1.344-46.336 2.688v177.045c14.997 2.688 34.539 4.032 54.891 4.032 34.56 0 57.067-5.632 74.219-18.752 18.752-13.931 30.528-36.437 30.528-68.565-0.021-34.56-12.565-58.389-29.717-73.131zM857.387 338.155h-112.512v180.544h40.725v-146.261h71.787v-34.283z" />
<glyph unicode="&#xe605;" d="M673.771 959.616h-39.168l-0.192 0.171v-0.171h-458.944c-29.077 0-52.757-23.659-52.757-52.757v-917.909c0-29.077 23.659-52.757 52.757-52.757h673.088c29.077 0 52.757 23.659 52.757 52.757v752.533l-227.541 218.133zM848.533-33.195h-673.067c-12.224 0-22.144 9.941-22.144 22.144v917.931c0 12.181 9.92 22.144 22.144 22.144h458.965v-174.592c0-27.776 22.613-50.368 50.368-50.368h185.899v-715.115c-0.021-12.203-9.941-22.144-22.165-22.144zM501.376 87.339l103.445-47.787v22.805l-78.272 34.027v0.405l78.272 34.197v22.805l-103.445-47.979zM620.544 30.976h21.717l46.016 155.925h-21.717zM700.565 153.792v-22.805l80.021-34.197v-0.405l-80.021-34.219v-22.613l103.445 47.104v19.819zM459.371 488.149h-0.811c-2.389-10.709-5.355-24.384-8.043-34.816l-10.987-38.315h39.915l-11.243 38.315c-2.923 10.709-6.165 24.384-8.832 34.816zM626.795 488.704c-8.853 0-14.997-0.832-18.496-1.6v-118.144c3.499-0.811 9.387-0.811 14.208-0.811 37.227-0.256 61.589 20.096 61.589 63.232-0.021 38.827-21.973 57.323-57.301 57.323zM921.643 593.707h-819.307c-20.693 0-37.44-16.789-37.44-37.461v-254.891c0-20.715 16.747-37.461 37.44-37.461h819.307c20.693 0 37.461 16.747 37.461 37.461v254.891c0 20.672-16.768 37.461-37.461 37.461zM294.379 338.155l-15.275 77.696c-3.477 18.219-6.443 35.093-8.576 55.723h-0.512c-3.221-20.373-6.165-37.483-10.453-55.723l-17.131-77.696h-44.736l-42.88 180.544h43.669l13.675-74.219c4.011-21.696 7.744-44.992 10.709-63.488h0.533c2.944 19.84 7.232 41.515 11.797 64.021l15.253 73.685h43.392l14.485-76.075c4.011-21.163 6.955-40.448 9.621-60.523h0.533c2.688 20.075 6.699 41.259 10.453 62.933l14.699 73.685h41.536l-46.613-180.544h-44.181zM499.563 338.155l-13.931 46.357h-51.989l-12.565-46.357h-42.325l55.168 180.544h53.312l56.277-180.544h-43.947zM697.493 359.573c-19.029-15.808-48.235-23.317-83.563-23.317-21.184 0-36.437 1.344-46.357 2.688v177.045c14.997 2.688 34.56 4.032 54.912 4.032 34.539 0 57.045-5.632 74.197-18.752 18.773-13.931 30.528-36.437 30.528-68.565 0-34.56-12.587-58.389-29.717-73.131zM866.773 338.155h-112.491v180.544h40.725v-146.261h71.765v-34.283z" />
<glyph unicode="&#xe606;" d="M275.2 356.267c66.133-49.067 149.333-78.933 236.8-78.933 89.6 0 170.667 29.867 236.8 78.933 155.733-19.2 275.2-151.467 275.2-311.467v-136.533h-1024v136.533c0 160 119.467 292.267 275.2 311.467zM512 960c157.867 0 285.867-128 285.867-285.867s-128-285.867-285.867-285.867c-157.867 0-285.867 128-285.867 285.867s128 285.867 285.867 285.867z" />
<glyph unicode="&#xe607;" d="M775.68 398.741l190.016 190.059c77.739 77.76 77.739 204.267-0.043 282.027l-30.848 30.869c-77.781 77.781-204.245 77.781-282.027 0l-189.995-190.016c-42.923-42.88-62.101-100.608-57.664-156.821-56.192 4.437-113.941-14.741-156.8-57.643l-189.995-190.016c-77.76-77.781-77.76-204.288 0-282.048l30.869-30.869c77.76-77.76 204.288-77.76 282.048 0l189.995 189.995c42.88 42.923 62.080 100.651 57.664 156.821 56.171-4.437 113.877 14.805 156.779 57.643zM494.080 251.435l-190.016-190.016c-40.725-40.704-107.008-40.704-147.712 0l-30.891 30.891c-40.747 40.747-40.725 107.008 0 147.733l190.016 190.037c34.496 34.496 87.232 39.765 127.317 15.915l-78.741-78.784c-18.56-18.539-18.56-48.619 0-67.157 18.539-18.517 48.619-18.517 67.136 0l78.784 78.741c23.851-40.107 18.581-92.885-15.893-127.36zM581.205 450.027l78.72 78.763c18.539 18.539 18.539 48.597 0 67.136-18.517 18.56-48.597 18.56-67.136 0.021l-78.72-78.763c-23.893 40.107-18.603 92.864 15.851 127.339l190.016 190.016c40.725 40.747 107.008 40.747 147.733 0l30.891-30.869c40.704-40.725 40.704-107.008 0-147.733l-190.016-189.995c-34.496-34.496-87.275-39.744-127.339-15.915z" />
<glyph unicode="&#xe608;" d="M731.797 959.851h-33.173l-0.171 0.149v-0.149h-388.928c-24.64 0-44.693-20.032-44.693-44.693v-557.013c8.512 1.28 17.152 2.112 25.92 2.389v554.624c0 10.325 8.427 18.752 18.773 18.752h388.928v-147.925c0-23.552 19.115-42.688 42.667-42.688h157.547v-605.973c0-10.347-8.427-18.773-18.752-18.773h-356.459c-0.64-8.789-1.685-17.451-3.307-25.941h359.765c24.619 0 44.672 20.053 44.672 44.715v637.675l-192.789 184.853zM823.851 204.8h-99.733v104.491h77.867l22.379 23.467h-122.603v-151.445h144.469v96.96l-22.379-23.467zM748.672 277.76l-15.829-16.576 38.016-39.829 94.997 99.648-15.787 16.597-79.211-83.072zM677.547 647.445h-310.315v38.784h310.315zM561.173 569.856h-193.941v38.784h193.941zM677.547 453.483h-310.315v38.805h310.315zM599.979 375.915h-232.747v38.784h232.747zM677.547 395.307c0-10.731-8.704-19.392-19.392-19.392-10.795 0-19.456 8.661-19.456 19.392s8.661 19.392 19.456 19.392c10.688 0 19.392-8.661 19.392-19.392zM298.517 334.272c-109.803 0-199.104-89.344-199.104-199.125 0-109.824 89.301-199.147 199.104-199.147 109.781 0 199.104 89.344 199.104 199.147 0 109.781-89.323 199.125-199.104 199.125zM430.059 191.851c1.877-5.781-1.344-12.032-7.211-13.909l-30.485-9.707c-1.131-0.384-2.24-0.512-3.371-0.512-4.693 0-9.067 3.029-10.603 7.744-1.835 5.824 1.365 12.053 7.232 13.931l30.485 9.707c5.845 1.877 12.096-1.344 13.952-7.253zM166.933 194.645c1.877 5.845 8.107 9.088 13.952 7.253l30.528-9.749c5.824-1.856 9.088-8.107 7.211-13.909-1.493-4.715-5.867-7.744-10.56-7.744-1.131 0-2.219 0.171-3.392 0.533l-30.464 9.685c-5.909 1.856-9.131 8.107-7.275 13.931zM219.115 124.032h-52.693c-6.123 0-11.115 4.971-11.115 11.115s4.971 11.115 11.115 11.115h52.693c6.123 0 11.115-4.971 11.115-11.115-0.021-6.123-4.971-11.115-11.115-11.115zM243.264 201.472c-2.176-2.155-4.992-3.221-7.829-3.221-2.859 0-5.696 1.088-7.872 3.221l-27.051 27.072c-4.352 4.309-4.352 11.328 0 15.659 4.331 4.331 11.349 4.331 15.68 0l27.051-27.029c4.352-4.309 4.352-11.371 0.021-15.701zM268.437 226.432c-1.579-0.789-3.264-1.152-4.928-1.152-4.053 0-7.979 2.219-9.941 6.123l-14.571 29.099c-2.731 5.483-0.491 12.139 4.949 14.891 5.504 2.709 12.139 0.512 14.891-4.971l14.571-29.077c2.752-5.461 0.512-12.16-4.971-14.912zM309.995 92.117c0-6.123-4.971-11.093-11.115-11.093s-11.093 4.949-11.093 11.093v186.56c0 6.101 4.928 11.072 11.093 11.072 6.123 0 11.115-4.949 11.115-11.072v-186.56zM333.525 222.507c-1.685 0-3.371 0.384-4.992 1.173-5.461 2.752-7.659 9.408-4.928 14.891l14.528 29.12c2.773 5.461 9.429 7.68 14.912 4.928 5.483-2.731 7.723-9.387 4.949-14.869l-14.571-29.12c-1.92-3.883-5.824-6.123-9.899-6.123zM353.771 198.699c-4.331 4.352-4.331 11.371 0 15.68l27.051 27.051c4.352 4.352 11.371 4.352 15.701 0s4.331-11.349 0-15.68l-27.072-27.051c-2.155-2.155-4.971-3.221-7.808-3.221s-5.717 1.067-7.872 3.221zM430.613 121.301h-52.715c-6.101 0-11.093 4.928-11.093 11.072s4.971 11.115 11.093 11.115h52.715c6.165 0 11.115-4.971 11.115-11.115s-4.971-11.072-11.115-11.072z" />
<glyph unicode="&#xe609;" d="M673.771 959.616h-39.168l-0.192 0.171v-0.171h-458.944c-29.077 0-52.757-23.659-52.757-52.757v-917.909c0-29.077 23.659-52.757 52.757-52.757h673.088c29.077 0 52.757 23.659 52.757 52.757v752.533l-227.541 218.133zM848.533-33.195h-673.067c-12.224 0-22.144 9.941-22.144 22.144v917.931c0 12.181 9.92 22.144 22.144 22.144h458.965v-174.592c0-27.776 22.613-50.368 50.368-50.368h185.899v-715.115c-0.021-12.203-9.941-22.144-22.165-22.144zM245.333 416h533.333v-21.333h-533.333v21.333zM245.333 309.333h533.333v-21.333h-533.333v21.333zM245.333 202.667h533.333v-21.333h-533.333v21.333zM245.333 522.667h533.333v-21.333h-533.333v21.333z" />
<glyph unicode="&#xe60a;" d="M462.037 957.461c115.349 11.755 234.411-17.536 331.115-81.6 75.051-49.045 136.363-118.4 176.576-198.421 38.4-76.672 57.152-163.115 53.952-248.768-4.032-100.949-38.187-200.704-98.005-282.219-62.677-86.123-152.725-152.107-254.165-184.853-94.741-31.424-198.635-33.984-294.805-7.403-99.541 26.944-190.315 85.163-256.512 164.16-62.336 73.771-103.061 165.525-115.605 261.312-16.875 122.517 12.693 250.965 82.048 353.408 83.307 125.867 225.003 210.816 375.403 224.384zM296.043 692.736c-25.045-16.064-31.104-47.829-32.405-75.435-6.421-39.232 5.909-81.685-12.587-118.592-9.109-17.152-29.589-19.563-46.912-20.885-0.512-19.925-0.491-39.851 0-59.776 18.197 0.363 39.531-5.077 48.043-22.976 16.555-35.733 5.504-76.032 11.179-113.728 1.856-26.773 5.568-57.728 28.544-75.243 24.341-18.432 56.576-16.384 85.44-16.171 0 17.557-0.021 35.115 0 52.672-16.619 0.171-38.251-2.048-49.045 13.397-11.051 31.765-5.611 66.069-7.253 98.987-2.773 20.48-5.461 41.685-16 59.925-7.445 13.995-19.499 24.896-32.853 33.173 11.392 7.275 22.4 15.851 29.525 27.563 13.035 19.093 16.448 42.432 19.243 64.811 1.792 32.96-3.712 67.2 7.104 99.051 10.304 16.619 32.576 13.013 49.259 13.291-0.021 17.536-0.021 35.093 0 52.651-27.328-0.192-57.28 3.477-81.28-12.715zM646.976 705.472c-0.448-17.579-0.405-35.136-0.043-52.693 14.379-0.491 30.677 2.603 43.093-6.592 8.405-5.355 9.344-16.171 10.304-25.109 6.763-42.773-3.584-87.915 13.483-128.96 6.955-18.965 21.483-33.877 38.357-44.523-20.117-10.709-34.688-30.123-41.344-51.733-13.035-39.509-3.883-81.515-10.645-121.941-1.131-8.917-2.112-19.499-10.56-24.725-12.928-7.467-28.352-6.677-42.773-6.592-0.171-17.557-0.32-35.115 0.149-52.672 28.757-0.256 60.651-2.155 85.056 15.872 24.448 19.328 27.84 53.44 28.224 82.389 3.008 34.752-2.901 71.445 10.389 104.533 7.339 19.243 29.717 25.579 48.448 25.323-0.021 19.989-0.021 39.936 0 59.925-12.928 1.92-27.669 1.387-38.059 10.624-10.709 9.493-13.995 24.299-16.939 37.653-4.352 36.288-1.984 72.917-5.419 109.248-3.285 22.379-11.563 46.635-32.448 58.411-23.829 14.848-52.629 11.307-79.275 11.563zM374.251 480.811c-21.589-7.637-29.163-37.824-14.336-55.083 9.067-12.885 26.496-14.272 40.661-10.859 19.627 6.827 29.248 33.067 17.877 50.688-8.085 15.296-28.373 22.229-44.203 15.253zM497.259 480.256c-8.981-3.541-15.851-11.456-18.752-20.608-8.747-20.779 9.259-48.043 32.192-46.187 19.712-2.688 38.635 16.235 35.776 35.947 1.728 24.256-28.117 41.92-49.216 30.848zM623.019 480.96c-12.267-5.141-22.72-17.643-21.717-31.552-2.261-19.349 15.595-38.421 35.264-35.968 24.789-2.645 44.224 28.245 31.808 49.557-6.955 16.981-28.672 25.088-45.355 17.963z" />
<glyph unicode="&#xe60b;" d="M0.021 578.88l349.973-161.621v77.099l-264.832 115.115v1.408l264.832 115.691v77.184l-349.973-162.368zM403.221 388.203h73.536l155.648 527.552h-73.472zM673.984 803.755v-77.184l270.763-115.691v-1.408l-270.763-115.733v-76.48l349.995 159.36v67.051zM608.96 237.035h-0.96c-2.752-12.245-6.123-27.925-9.195-39.851l-12.565-43.904h45.717l-12.907 43.904c-3.349 12.267-7.061 27.904-10.091 39.851zM798.507 237.952c-9.515 0-15.957-0.597-19.307-1.493v-61.035c3.989-0.917 8.896-1.259 15.637-1.259 24.832 0 40.171 12.587 40.171 33.451 0 19.008-12.885 30.336-36.501 30.336zM408.917 238.293c-32.192 0-50.261-31.296-50.261-69.931 0-38.976 18.709-69.355 49.984-69.355h0.299c31.595 0 49.728 29.76 49.728 70.272-0.021 37.099-17.515 69.013-49.749 69.013zM981.099 357.909h-938.219c-23.701 0-42.88-19.2-42.88-42.88v-291.925c0-23.701 19.179-42.88 42.88-42.88h938.219c23.68 0 42.901 19.157 42.901 42.88v291.947c0 23.659-19.2 42.859-42.901 42.859zM204.032 61.909c-23.595 0-46.933 6.421-58.581 12.885l9.515 38.336c12.267-6.464 31.893-12.885 51.819-12.885 21.504 0 32.832 8.875 32.832 22.699 0 12.544-9.813 20.203-34.645 28.843-34.368 12.245-57.067 31.275-57.067 61.632 0 35.285 29.739 61.995 78.208 61.995 23.637 0 40.491-4.629 52.779-10.432l-10.432-37.44c-8 3.989-22.997 9.813-42.965 9.813-20.224 0-30.059-9.515-30.059-19.947 0-13.163 11.349-19.008 38.357-29.44 36.501-13.483 53.355-32.512 53.355-61.973 0.021-34.667-26.347-64.085-83.115-64.085zM407.104 61.909h-0.32c-61.035 0-97.237 46.293-97.237 105.216 0 61.952 39.893 108.288 100.608 108.288 63.488 0 98.176-47.573 98.176-104.597 0-68.117-40.811-108.907-101.227-108.907zM654.955 65.259l-15.957 53.077h-59.499l-14.443-53.077h-48.448l63.168 206.784h61.056l64.427-206.784h-50.304zM862.613 160.043c-15.957-14.699-39.893-21.76-67.499-21.76-6.123 0-11.669 0.299-15.915 1.216v-74.24h-46.336v204.011c14.4 2.453 34.667 4.288 63.189 4.288 28.821 0 49.664-5.525 63.488-16.875 13.205-10.133 21.781-27.307 21.781-47.552 0-20.544-6.443-37.717-18.709-49.088z" />
<glyph unicode="&#xe60c;" d="M874.048 810.048c-96.085 95.936-223.723 149.141-359.509 149.952h-5.077c-282.432-1.493-510.955-232.341-509.461-514.539 1.493-281.387 230.827-509.461 512-509.461 0.939 0 1.835 0 2.539 0 136.811 0.811 265.152 54.72 361.344 151.829 96.171 97.195 148.8 226.091 148.117 362.709-0.811 135.787-54.037 263.424-149.952 359.509zM856.171 755.307c-35.349-23.403-72.341-42.624-110.677-58.048-25.344 59.797-59.648 116.075-102.848 167.232-10.027 12.011-20.501 23.509-31.552 34.773 96.128-21.269 181.355-72.661 245.077-143.957zM536.981 909.312c0.469 0 0.939 0 1.28-0.107l-1.28-1.493v1.6zM536.981 900.331c24.213-20.864 47.019-43.776 67.52-68.075 39.168-46.421 70.72-97.557 93.867-151.808-52.651-16.555-106.901-25.792-161.387-27.989v247.872zM487.019 909.312v-1.6l-1.28 1.6c0.341 0 0.811 0 1.28 0zM487.019 900.331v-247.872c-54.507 2.197-108.757 11.413-161.387 27.989 35.605 83.84 90.283 158.955 161.387 219.883zM412.928 899.264c-57.707-58.709-103.104-127.275-134.421-202.005-38.464 15.552-75.563 34.901-111.040 58.261 63.701 71.083 148.843 122.56 245.461 143.744zM167.488 140.459c34.773 23.040 71.531 42.261 109.205 57.579 25.451-61.397 60.459-119.232 104.683-171.392 8.085-9.792 16.725-19.328 25.472-28.565-93.995 21.888-177.067 72.683-239.36 142.379zM487.019-9.28c-24.213 20.736-47.019 43.541-67.605 67.968-40.213 47.659-72.341 100.416-95.616 156.416 53.099 16.683 108.032 26.133 163.221 28.437v-252.821zM536.981-9.28v252.821c55.189-2.304 110.123-11.755 163.221-28.437-35.477-85.696-90.88-162.411-163.221-224.384zM840.384 122.944c-62.165-62.763-139.136-105.472-223.232-124.971 56 58.517 99.797 126.251 130.176 200.085 37.781-15.317 74.411-34.667 109.312-57.685-5.205-5.888-10.731-11.776-16.256-17.429zM888.085 179.499c-39.403 26.24-80.768 48.171-123.605 65.557 7.787 24.149 14.101 48.875 19.051 74.069h-51.115c-4.139-19.349-9.067-38.485-15.061-57.173-58.603 18.816-119.317 29.397-180.373 31.467v25.707h-49.963v-25.707c-61.056-2.197-121.771-12.651-180.501-31.552-6.059 18.795-10.816 37.931-14.976 57.259h-51.029c4.928-25.109 11.029-49.92 18.901-74.197-42.731-17.28-83.989-39.061-123.136-65.429-49.749 69.355-80.853 152.981-85.568 243.52h32.875v49.963h-32.896c4.715 90.432 35.819 174.037 85.568 243.52 39.637-26.709 81.451-48.704 124.757-66.133-7.979-23.936-14.528-48.469-19.627-73.493h51.264c4.267 19.157 9.259 38.123 15.339 56.704 58.304-18.432 118.549-28.928 179.029-30.976v-25.728h49.963v25.728c60.48 2.048 120.725 12.544 179.136 30.976 6.123-18.603 11.008-37.568 15.275-56.704h51.093c-5.099 24.896-11.328 49.536-19.371 73.621 43.072 17.173 84.885 39.168 124.373 65.749 49.792-69.44 81.109-152.939 85.824-243.264h-32.875v-49.963h32.875c-4.608-88.469-34.091-172.331-85.227-243.52zM182.272 348.565l-45.461 191.552h46.315l14.485-78.72c4.267-23.019 8.256-47.744 11.371-67.371h0.555c3.115 21.035 7.68 44.053 12.501 67.925l16.192 78.165h46.037l15.339-80.704c4.267-22.464 7.403-42.923 10.219-64.235h0.576c2.837 21.312 7.104 43.755 11.093 66.773l15.637 78.165h44.032l-49.451-191.552h-46.891l-16.192 82.411c-3.691 19.328-6.827 37.227-9.088 59.115h-0.576c-3.413-21.589-6.528-39.787-11.093-59.115l-18.197-82.411h-47.403zM434.645 348.565l-45.461 191.552h46.315l14.485-78.72c4.267-23.019 8.256-47.744 11.371-67.371h0.555c3.115 21.035 7.68 44.053 12.501 67.925l16.192 78.165h46.037l15.36-80.704c4.245-22.464 7.381-42.923 10.219-64.235h0.555c2.837 21.312 7.104 43.755 11.093 66.773l15.616 78.165h44.053l-49.451-191.552h-46.891l-16.192 82.411c-3.691 19.328-6.827 37.227-9.088 59.115h-0.576c-3.413-21.589-6.528-39.787-11.093-59.115l-18.197-82.411h-47.403zM687.019 348.565l-45.461 191.552h46.315l14.507-78.72c4.245-23.019 8.235-47.744 11.349-67.371h0.576c3.115 21.035 7.659 44.053 12.501 67.925l16.192 78.165h46.037l15.36-80.704c4.245-22.464 7.381-42.923 10.219-64.235h0.555c2.837 21.312 7.104 43.755 11.093 66.773l15.616 78.165h44.053l-49.451-191.552h-46.891l-16.192 82.411c-3.691 19.328-6.827 37.227-9.109 59.115h-0.555c-3.413-21.589-6.549-39.787-11.093-59.115l-18.197-82.411h-47.424z" />
<glyph unicode="&#xe60d;" d="M640.021 767.979c0-8.021 1.344-15.573 2.304-23.253l-317.397-158.592c-34.517 33.216-81.216 53.909-132.949 53.909-106.048 0-192-85.995-192-191.979 0-106.027 85.952-192 192-192 51.797 0 98.517 20.672 133.013 53.845l317.355-158.485c-0.981-7.765-2.325-15.381-2.325-23.445 0-106.027 85.845-191.957 191.979-191.957 106.027 0 192 85.931 192 191.957 0 83.52-53.653 153.749-127.979 180.288v279.467c74.325 26.496 127.979 96.832 127.979 180.245 0 105.963-85.973 191.979-192 191.979-106.133 0-191.979-86.016-191.979-191.979zM767.979 587.755v-279.467c-25.984-9.387-49.472-23.445-69.013-42.176l-317.269 158.549c0.896 7.765 2.304 15.339 2.304 23.403 0 7.979-1.408 15.573-2.389 23.253l317.333 158.635c19.563-18.752 43.051-32.939 69.035-42.197z" />
<glyph unicode="&#xe60e;" d="M356.309 319.531c2.261-7.787 5.419-15.296 9.408-22.357l-11.371-14.336c-3.712-4.693-3.285-11.349 0.875-15.573l19.563-19.584c4.224-4.181 10.923-4.587 15.595-0.875l14.229 11.264c7.317-4.224 15.104-7.509 23.232-9.835l2.133-18.304c0.704-5.931 5.696-10.389 11.627-10.389h27.733c5.931 0 10.944 4.459 11.627 10.389l2.048 17.664c8.725 2.283 17.067 5.653 24.917 10.069l13.76-10.923c4.693-3.691 11.392-3.243 15.595 0.875l19.584 19.584c4.203 4.224 4.587 10.923 0.875 15.595l-10.709 13.589c4.416 7.723 7.915 15.915 10.219 24.491l16.533 1.899c5.952 0.704 10.368 5.717 10.368 11.627v27.712c0 5.909-4.416 10.965-10.368 11.648l-16.299 1.899c-2.219 8.469-5.589 16.597-9.835 24.213l10.005 12.672c3.755 4.672 3.328 11.328-0.832 15.552l-19.541 19.541c-4.203 4.203-10.901 4.587-15.595 0.875l-12.288-9.728c-7.979 4.672-16.512 8.256-25.451 10.667l-1.856 15.893c-0.683 5.952-5.717 10.389-11.648 10.389h-27.669c-5.931 0-10.944-4.437-11.648-10.389l-1.856-15.893c-9.173-2.475-17.941-6.187-26.112-11.051l-12.757 10.091c-4.693 3.712-11.371 3.285-15.595-0.875l-19.563-19.563c-4.224-4.203-4.587-10.901-0.875-15.573l10.667-13.483c-4.267-7.701-7.509-15.915-9.643-24.448l-17.067-1.941c-5.931-0.683-10.389-5.739-10.389-11.648v-27.691c0-5.931 4.459-10.965 10.389-11.648l17.984-2.091zM456.64 394.411c25.237 0 45.781-20.544 45.781-45.781s-20.544-45.781-45.781-45.781c-25.237 0-45.781 20.544-45.781 45.781s20.544 45.781 45.781 45.781zM730.368 312.683l-14.635 12.352c-4.501 3.797-11.115 3.605-15.381-0.448l-8.085-7.552c-6.827 3.285-14.037 5.611-21.504 6.955l-2.283 11.115c-1.173 5.76-6.507 9.728-12.331 9.28l-19.051-1.6c-5.867-0.512-10.453-5.291-10.667-11.179l-0.341-11.328c-7.339-2.624-14.251-6.251-20.587-10.795l-9.621 6.4c-4.949 3.243-11.456 2.325-15.253-2.176l-12.373-14.699c-3.797-4.501-3.584-11.115 0.448-15.424l8.427-8.981c-2.923-6.592-4.992-13.525-6.208-20.629l-12.032-2.432c-5.781-1.173-9.749-6.507-9.301-12.352l1.621-19.029c0.491-5.867 5.291-10.432 11.157-10.645l13.035-0.427c2.368-6.208 5.461-12.096 9.216-17.621l-7.253-10.987c-3.243-4.928-2.325-11.456 2.176-15.275l14.635-12.331c4.459-3.797 11.115-3.605 15.381 0.405l9.579 8.981c6.251-2.944 12.843-5.099 19.627-6.4l2.624-13.099c1.131-5.76 6.464-9.728 12.331-9.28l19.051 1.621c5.824 0.491 10.453 5.291 10.667 11.179l0.384 12.821c6.955 2.432 13.547 5.781 19.669 9.92l10.496-6.955c4.907-3.243 11.456-2.325 15.253 2.176l12.331 14.635c3.84 4.48 3.627 11.115-0.427 15.403l-8.448 9.003c3.093 6.592 5.376 13.547 6.677 20.693l11.584 2.347c5.76 1.152 9.749 6.485 9.301 12.352l-1.621 19.072c-0.491 5.845-5.291 10.411-11.2 10.603l-11.627 0.405c-2.411 6.763-5.675 13.141-9.707 19.115l6.379 9.536c3.307 4.907 2.389 11.499-2.112 15.275zM658.539 202.517c-20.629-1.792-38.784 13.568-40.491 34.155-1.749 20.608 13.589 38.784 34.176 40.512 20.587 1.749 38.784-13.589 40.491-34.219 1.749-20.565-13.589-38.741-34.176-40.448zM422.997 151.189c-5.845-0.576-10.347-5.525-10.368-11.413l-0.149-11.733c-0.085-5.888 4.267-10.901 10.112-11.648l8.619-1.088c1.429-5.248 3.477-10.261 6.123-15.019l-5.568-6.827c-3.712-4.608-3.435-11.157 0.683-15.424l8.213-8.405c4.139-4.203 10.709-4.672 15.403-1.067l6.912 5.355c4.864-2.88 10.005-5.163 15.403-6.72l0.917-8.917c0.597-5.845 5.504-10.325 11.413-10.389l11.712-0.128c5.888-0.107 10.901 4.267 11.648 10.133l1.067 8.427c5.845 1.429 11.413 3.627 16.704 6.507l6.485-5.227c4.629-3.733 11.2-3.413 15.424 0.683l8.384 8.213c4.245 4.117 4.715 10.709 1.131 15.403l-4.992 6.464c3.051 5.077 5.419 10.496 7.040 16.235l7.701 0.768c5.824 0.619 10.325 5.525 10.368 11.413l0.171 11.755c0.085 5.867-4.288 10.901-10.133 11.627l-7.552 0.96c-1.408 5.696-3.541 11.136-6.336 16.235l4.715 5.781c3.712 4.608 3.413 11.179-0.704 15.403l-8.213 8.427c-4.117 4.203-10.709 4.693-15.424 1.067l-5.611-4.331c-5.291 3.2-10.944 5.696-16.875 7.36l-0.747 7.275c-0.597 5.824-5.504 10.325-11.392 10.389l-11.733 0.128c-5.888 0.107-10.901-4.267-11.648-10.112l-0.917-7.232c-6.123-1.579-12.011-3.989-17.493-7.147l-5.781 4.736c-4.587 3.712-11.179 3.435-15.403-0.683l-8.448-8.277c-4.224-4.117-4.693-10.731-1.067-15.403l4.949-6.421c-2.859-5.077-5.141-10.517-6.635-16.235l-8.107-0.896zM498.752 164.459c16.832-0.192 30.336-14.037 30.144-30.869s-14.059-30.357-30.891-30.165-30.315 14.037-30.144 30.891c0.171 16.832 14.037 30.336 30.891 30.144zM1.024 296.341c-0.299 6.912-1.024 13.739-1.024 20.736 0 293.355 229.227 531.157 512 531.157s512-237.803 512-531.157c0-6.997-0.768-13.824-1.003-20.757-10.645 283.605-234.987 510.315-510.997 510.315-276.032 0-500.373-226.709-510.976-510.293zM512 613.611c172.544 0 313.216-139.861 323.413-316.139 0.384 6.784 1.003 13.547 1.003 20.416 0 185.899-145.237 336.533-324.416 336.533s-324.416-150.635-324.416-336.555c0-6.869 0.619-13.632 0.981-20.416 10.24 176.299 150.891 316.16 323.435 316.16z" />
<glyph unicode="&#xe60f;" d="M67.221 584.832c5.376-18.453 12.843-36.245 22.315-52.928l-26.944-33.963c-8.789-11.093-7.787-26.901 2.112-36.907l46.336-46.357c10.005-9.984 25.835-10.901 36.928-2.112l33.728 26.667c17.344-9.984 35.797-17.771 55.019-23.253l5.056-43.371c1.664-14.080 13.525-24.64 27.563-24.64h65.6c14.059 0 25.941 10.56 27.563 24.64l4.843 41.856c20.672 5.376 40.427 13.355 59.008 23.851l32.619-25.856c11.093-8.747 26.923-7.744 36.907 2.112l46.357 46.379c10.027 9.984 10.901 25.813 2.112 36.885l-25.365 32.192c10.539 18.261 18.795 37.696 24.256 58.027l39.083 4.48c14.123 1.664 24.64 13.525 24.64 27.563v65.579c0 14.059-10.517 25.92-24.64 27.563l-38.528 4.523c-5.291 20.096-13.227 39.317-23.296 57.344l23.723 29.973c8.811 11.115 7.808 26.901-2.069 36.907l-46.251 46.251c-9.984 9.984-25.813 10.88-36.907 2.069l-29.12-23.061c-18.901 11.093-39.104 19.563-60.309 25.259l-4.416 37.675c-1.643 14.080-13.504 24.619-27.584 24.619h-65.557c-14.059 0-25.92-10.539-27.584-24.619l-4.395-37.675c-21.739-5.824-42.496-14.635-61.845-26.155l-30.187 23.979c-11.093 8.811-26.944 7.808-36.949-2.069l-46.336-46.379c-10.027-10.005-10.88-25.813-2.112-36.907l25.259-31.957c-10.112-18.24-17.771-37.696-22.827-57.899l-40.448-4.629c-14.016-1.621-24.576-13.504-24.576-27.563v-65.579c0-14.059 10.56-25.92 24.597-27.584l42.624-4.928zM304.853 762.24c59.755 0 108.416-48.683 108.416-108.437s-48.661-108.437-108.416-108.437c-59.776 0-108.437 48.683-108.437 108.437 0 59.776 48.661 108.437 108.437 108.437zM953.195 568.683l-34.603 29.227c-10.645 9.003-26.368 8.555-36.459-0.981l-19.136-17.92c-16.128 7.829-33.259 13.312-50.965 16.491l-5.376 26.368c-2.752 13.632-15.381 23.040-29.227 21.952l-45.141-3.819c-13.867-1.237-24.747-12.523-25.173-26.496l-0.875-26.795c-17.344-6.251-33.707-14.805-48.704-25.579l-22.805 15.147c-11.691 7.701-27.136 5.504-36.117-5.163l-29.269-34.816c-8.96-10.667-8.533-26.368 1.024-36.48l20.011-21.312c-6.933-15.595-11.904-32-14.72-48.832l-28.544-5.781c-13.675-2.752-23.083-15.403-21.995-29.227l3.84-45.099c1.216-13.867 12.544-24.725 26.453-25.216l30.891-0.96c5.611-14.72 12.949-28.672 21.824-41.728l-17.259-26.048c-7.659-11.669-5.483-27.136 5.205-36.16l34.581-29.205c10.624-9.024 26.389-8.533 36.48 0.96l22.635 21.227c14.827-6.933 30.421-12.053 46.485-15.168l6.229-30.976c2.752-13.632 15.381-23.040 29.227-21.952l45.141 3.84c13.803 1.216 24.725 12.523 25.216 26.475l0.917 30.336c16.469 5.781 32.107 13.696 46.528 23.509l24.896-16.469c11.627-7.659 27.136-5.504 36.16 5.12l29.184 34.645c9.067 10.624 8.576 26.325-0.96 36.459l-20.096 21.333c7.381 15.573 12.779 32.064 15.829 48.981l27.456 5.611c13.611 2.709 23.061 15.36 21.931 29.227l-3.84 45.163c-1.195 13.845-12.544 24.704-26.475 25.131l-27.541 0.896c-5.739 16.043-13.44 31.189-22.997 45.269l15.061 22.635c7.936 11.563 5.781 27.179-4.928 36.181zM783.019 307.691c-48.768-4.203-91.861 32.171-95.915 80.917-4.139 48.768 32.235 91.861 80.981 95.957 48.768 4.16 91.861-32.171 95.915-81.003 4.16-48.789-32.192-91.84-80.981-95.872zM225.195 186.176c-13.845-1.429-24.491-13.077-24.576-27.051l-0.363-27.797c-0.213-13.973 10.112-25.835 23.957-27.584l20.437-2.603c3.413-12.437 8.235-24.299 14.507-35.541l-13.163-16.213c-8.811-10.901-8.149-26.453 1.621-36.501l19.456-19.883c9.792-9.984 25.387-11.093 36.48-2.517l16.363 12.651c11.541-6.784 23.723-12.203 36.48-15.915l2.197-21.099c1.429-13.867 13.056-24.491 27.051-24.64l27.776-0.299c13.952-0.235 25.792 10.112 27.563 23.979l2.539 19.968c13.845 3.392 27.008 8.533 39.552 15.403l15.36-12.416c10.923-8.811 26.475-8.107 36.459 1.643l19.904 19.435c10.005 9.771 11.072 25.365 2.56 36.459l-11.776 15.275c7.253 12.096 12.821 24.917 16.683 38.464l18.219 1.856c13.845 1.451 24.512 13.077 24.619 27.051l0.341 27.819c0.213 13.909-10.133 25.813-23.957 27.541l-17.813 2.261c-3.392 13.44-8.448 26.389-14.997 38.464l11.093 13.653c8.768 10.901 8.128 26.475-1.664 36.501l-19.413 19.904c-9.771 9.984-25.408 11.093-36.501 2.517l-13.291-10.24c-12.523 7.573-25.92 13.44-39.979 17.387l-1.771 17.259c-1.429 13.781-13.056 24.469-27.008 24.555l-27.797 0.363c-13.952 0.213-25.813-10.133-27.563-23.979l-2.219-17.088c-14.485-3.776-28.437-9.472-41.408-16.96l-13.739 11.179c-10.88 8.811-26.475 8.171-36.459-1.621l-20.011-19.563c-9.984-9.771-11.093-25.365-2.539-36.459l11.776-15.189c-6.805-12.032-12.203-24.917-15.723-38.443l-19.264-1.984zM404.608 217.557c39.851-0.448 71.851-33.28 71.381-73.131-0.448-39.893-33.28-71.893-73.152-71.424-39.872 0.448-71.829 33.259-71.403 73.152s33.28 71.851 73.173 71.403z" />
<glyph unicode="&#xe610;" d="M71.445 185.024c0-5.995-4.885-10.88-10.88-10.88h-49.685c-5.995 0-10.88 4.885-10.88 10.88v549.781c0 5.995 4.885 10.88 10.88 10.88h49.685c5.995 0 10.88-4.885 10.88-10.88v-549.781zM166.699 208.832c0-5.995-4.885-10.88-10.88-10.88h-49.685c-5.995 0-10.88 4.885-10.88 10.88v549.803c0 5.995 4.885 10.88 10.88 10.88h49.685c5.995 0 10.88-4.885 10.88-10.88v-549.803zM261.952 232.64c0-5.995-4.885-10.88-10.88-10.88h-49.685c-5.995 0-10.88 4.885-10.88 10.88v549.803c0 5.995 4.885 10.88 10.88 10.88h49.707c5.995 0 10.88-4.885 10.88-10.88v-549.803zM357.205 256.448c0-5.995-4.885-10.88-10.88-10.88h-49.685c-5.995 0-10.88 4.885-10.88 10.88v549.803c0 5.995 4.885 10.88 10.88 10.88h49.685c5.995 0 10.88-4.885 10.88-10.88v-549.803zM452.459 232.64c0-5.995-4.885-10.88-10.88-10.88h-49.707c-5.995 0-10.88 4.885-10.88 10.88v549.803c0 5.995 4.885 10.88 10.88 10.88h49.707c5.995 0 10.88-4.885 10.88-10.88v-549.803zM547.712 208.832c0-5.995-4.885-10.88-10.88-10.88h-49.685c-5.995 0-10.88 4.885-10.88 10.88v549.803c0 5.995 4.885 10.88 10.88 10.88h49.685c5.995 0 10.88-4.885 10.88-10.88v-549.803zM642.987 185.024c0-5.995-4.885-10.88-10.88-10.88h-49.685c-5.995 0-10.88 4.885-10.88 10.88v549.781c0 5.995 4.885 10.88 10.88 10.88h49.685c5.995 0 10.88-4.885 10.88-10.88v-549.781zM738.219 161.216c0-5.995-4.885-10.88-10.88-10.88h-49.685c-5.995 0-10.88 4.885-10.88 10.88v549.781c0 5.995 4.885 10.88 10.88 10.88h49.685c5.995 0 10.88-4.885 10.88-10.88v-549.781zM833.472 137.387c0-5.995-4.885-10.88-10.88-10.88h-49.685c-5.995 0-10.88 4.885-10.88 10.88v549.781c0 5.995 4.885 10.88 10.88 10.88h49.685c5.995 0 10.88-4.885 10.88-10.88v-549.781zM928.747 113.557c0-5.995-4.885-10.88-10.88-10.88h-49.685c-5.995 0-10.88 4.885-10.88 10.88v549.803c0 5.995 4.885 10.88 10.88 10.88h49.685c5.995 0 10.88-4.885 10.88-10.88v-549.803zM1024 89.749c0-5.995-4.885-10.88-10.88-10.88h-49.685c-5.995 0-10.88 4.885-10.88 10.88v549.803c0 5.995 4.885 10.88 10.88 10.88h49.685c5.995 0 10.88-4.885 10.88-10.88v-549.803z" />
<glyph unicode="&#xe611;" d="M264.875 197.781h25.92v53.056c-7.019 6.933-15.957 11.947-25.92 13.995v-67.051zM731.755 959.637h-33.173l-0.171 0.149v-0.149h-388.864c-24.64 0-44.693-20.032-44.693-44.693v-554.752c8.875-0.576 17.536-1.92 25.92-4.032v558.805c0 10.325 8.405 18.752 18.752 18.752h388.864v-147.904c0-23.531 19.115-42.688 42.667-42.688h157.504v-605.845c0-10.347-8.427-18.773-18.752-18.773h-448.981v-25.941h449.003c24.619 0 44.672 20.053 44.672 44.715v637.547l-192.747 184.811zM823.787 204.736h-99.712v104.469h77.845l22.379 23.467h-122.581v-151.403h144.448v96.939l-22.379-23.467zM748.629 277.696l-15.829-16.576 37.995-39.829 94.997 99.627-15.787 16.597-79.211-83.051zM677.504 647.296h-310.229v38.784h310.229zM561.173 569.749h-193.899v38.763h193.899zM677.504 453.376h-310.229v38.784h310.229zM599.957 375.829h-232.683v38.784h232.683zM677.504 395.221c0-10.731-8.704-19.392-19.371-19.392-10.795 0-19.456 8.661-19.456 19.392 0 10.709 8.661 19.371 19.456 19.371 10.667 0.021 19.371-8.661 19.371-19.371zM387.52 176.448h-7.872v36.779c0 68.011-53.973 124.885-121.451 126.080-1.835 0.021-5.525 0.021-7.36 0-67.499-1.216-121.472-58.069-121.472-126.080v-36.779h-7.893c-12.117 0-21.995-12.501-21.995-27.947v-184.469c0.021-15.424 9.877-28.032 21.995-28.032h266.027c12.096 0 21.973 12.608 21.973 28.032v184.469c0.021 15.467-9.856 27.947-21.952 27.947zM279.424 56.448v-55.744c0-6.379-5.333-11.776-11.733-11.776h-26.389c-6.4 0-11.733 5.397-11.733 11.776v55.744c-6.187 6.080-9.792 14.549-9.792 23.851 0 17.685 13.675 32.875 31.061 33.579 1.835 0.064 5.525 0.064 7.36 0 17.365-0.704 31.061-15.893 31.061-33.579-0.021-9.301-3.648-17.749-9.835-23.851zM327.851 176.448h-146.709v36.779c0 40.512 32.917 74.027 73.344 74.027 40.448 0 73.365-33.493 73.365-74.027v-36.779z" />
<glyph unicode="&#xe612;" d="M885.12 952h-5.099l-368.021-184-368.021 184h-5.12c-5.973 0-10.837-4.843-10.859-10.816v-77.056l384-102.443 384 102.443v77.013c0 5.995-4.885 10.859-10.88 10.859zM639.317 546.389c-5.077-1.387-7.936-2.453-9.429-3.285v-25.323l8.171 2.304c10.389 2.859 16.597 9.771 16.597 17.835 0 8.363-5.803 11.157-15.339 8.469zM1013.12 827.179l-458.24-122.795c-5.995-1.6-10.88-7.787-10.88-13.781v-746.261c0-3.413 1.685-5.888 4.16-7.232l470.763 125.547c2.987 2.731 5.077 6.485 5.077 10.304v746.261c0 6.016-4.885 9.579-10.88 7.957zM657.493 474.176c-1.387 2.219-3.733 9.109-6.315 19.733-2.624 10.901-6.571 12.821-15.168 10.56l-6.144-1.707v-36.224l-20.672-5.696v90.795c6.677 3.093 16.555 6.656 27.755 9.728 13.696 3.797 23.275 4.373 29.803 0.853 5.632-2.816 8.597-8.384 8.597-16.896 0-11.605-8.341-21.973-16.277-27.072v-0.427c6.443-0.811 10.027-5.845 12.331-13.675 2.88-9.749 5.589-21.013 7.36-24.085l-21.269-5.888zM764.757 544.341c0-28.459-14.357-45.973-38.421-52.629-23.275-6.421-36.779 2.837-36.779 32.107v51.435l20.8 5.739v-52.928c0-16 6.144-22.379 16.683-19.456 10.923 3.008 16.939 12.373 16.939 28.757v52.928l20.779 5.717v-51.669zM840.341 524.736l-57.451-15.893v92.181l20.821 5.739v-74.667l36.651 10.155v-17.515zM911.381 544.363l-58.667-16.192v92.181l56.725 15.659v-17.088l-35.947-9.92v-19.157l33.877 9.365v-16.939l-33.877-9.387v-21.867l37.867 10.453v-17.109zM948.096 553.003c-10.539-2.901-20.907-2.88-26.091-1.451l4.203 18.24c5.461-1.344 14.187-1.792 23.104 0.661 9.557 2.645 14.635 8.021 14.635 14.187 0 5.589-4.373 7.808-15.445 8.576-15.317 1.216-25.429 6.891-25.429 20.437 0 15.723 13.269 31.296 34.859 37.269 10.56 2.923 18.048 2.923 23.552 1.856l-4.651-17.984c-3.584 0.811-10.24 1.557-19.136-0.896-9.024-2.517-13.397-7.957-13.397-12.608 0-5.867 5.035-7.083 17.088-8.427 16.256-1.493 23.787-7.915 23.787-21.056 0-15.424-11.776-31.808-37.077-38.805zM480-55.659c0-5.995-4.885-9.557-10.88-7.957l-458.24 122.773c-5.995 1.621-10.88 7.808-10.88 13.803v746.261c0 5.995 4.885 9.557 10.88 7.957l458.24-122.795c5.995-1.6 10.88-7.787 10.88-13.781v-746.261z" />
<glyph unicode="&#xe613;" d="M0.213 462.656c53.44 0 60.949 29.355 60.949 55.701 0 21.077-3.008 42.155-6.016 63.211s-6.016 41.387-6.016 62.464c0 69.248 45.163 98.603 109.141 98.603h15.808v-41.387h-13.568c-44.395 0-59.456-24.085-59.456-64.725 0-17.323 2.261-35.371 5.269-53.44 3.008-18.816 5.269-36.885 5.269-57.195 0.747-48.171-20.331-72.256-54.187-81.28v-1.493c33.856-8.277 54.933-33.877 54.187-82.048 0-20.309-2.261-39.125-5.269-57.195-3.008-18.816-5.269-36.117-5.269-54.187 0-42.155 17.323-65.472 59.456-65.472h13.568v-41.387h-15.808c-62.464 0-109.141 27.115-109.141 103.104 0 20.331 3.008 41.387 6.016 61.717s6.016 40.64 6.016 60.949c0 23.339-7.531 55.701-60.949 55.701v38.357zM1023.744 424.299c-53.44 0-60.949-32.384-60.949-55.701 0-20.309 3.008-40.619 6.016-60.949 3.008-20.309 6.016-41.365 6.016-61.717 0-76.011-47.424-103.104-109.12-103.104h-15.808v41.387h12.8c42.155 0.747 60.203 23.339 60.203 65.472 0 18.069-3.008 35.371-5.269 54.187-3.008 18.069-6.016 36.885-6.016 57.195 0 48.171 21.077 73.771 54.187 82.048v1.493c-33.109 9.024-54.187 33.109-54.187 81.28 0 20.331 3.029 38.379 6.016 57.195 2.261 18.069 5.269 36.117 5.269 53.44 0 40.64-15.787 63.979-59.456 64.725h-13.547v41.387h15.061c63.957 0 109.867-29.333 109.867-98.603 0-21.056-3.029-41.387-6.016-62.464-3.029-21.077-6.016-42.155-6.016-63.211 0-26.347 7.531-55.701 60.949-55.701v-38.357zM255.36 512.832c3.349-11.477 7.979-22.528 13.845-32.896l-16.747-21.099c-5.44-6.891-4.843-16.704 1.323-22.933l28.779-28.821c6.229-6.208 16.064-6.784 22.955-1.301l20.949 16.533c10.773-6.187 22.229-11.029 34.176-14.464l3.136-26.944c1.024-8.747 8.427-15.317 17.131-15.317h40.768c8.725 0 16.107 6.571 17.109 15.317l3.029 26.005c12.843 3.349 25.109 8.32 36.651 14.827l20.288-16.085c6.891-5.44 16.725-4.821 22.933 1.323l28.8 28.843c6.229 6.208 6.763 16.043 1.344 22.912l-15.787 20.011c6.571 11.349 11.691 23.424 15.061 36.053l24.32 2.795c8.768 1.024 15.296 8.405 15.296 17.131v40.747c0 8.725-6.528 16.107-15.296 17.131l-23.957 2.816c-3.264 12.48-8.213 24.427-14.485 35.627l14.741 18.645c5.483 6.891 4.864 16.725-1.301 22.933l-28.736 28.736c-6.208 6.208-16.043 6.763-22.933 1.301l-18.091-14.315c-11.733 6.869-24.299 12.139-37.461 15.68l-2.731 23.403c-1.024 8.747-8.384 15.296-17.131 15.296h-40.747c-8.747 0-16.107-6.549-17.131-15.296l-2.752-23.403c-13.483-3.627-26.389-9.088-38.421-16.256l-18.752 14.891c-6.891 5.461-16.747 4.864-22.955-1.301l-28.779-28.8c-6.229-6.208-6.763-16.043-1.323-22.933l15.701-19.861c-6.293-11.349-11.072-23.424-14.187-35.989l-25.131-2.859c-8.747-1.024-15.275-8.405-15.275-17.131v-40.747c0-8.747 6.549-16.107 15.275-17.131l26.496-3.072zM403.008 623.061c37.12 0 67.349-30.229 67.349-67.371 0-37.12-30.229-67.371-67.349-67.371-37.163 0-67.392 30.251-67.392 67.371 0 37.141 30.229 67.371 67.392 67.371zM805.867 502.784l-21.504 18.176c-6.635 5.611-16.405 5.333-22.677-0.619l-11.904-11.136c-10.027 4.864-20.651 8.277-31.637 10.24l-3.349 16.384c-1.728 8.448-9.536 14.315-18.176 13.632l-28.032-2.368c-8.597-0.768-15.381-7.787-15.637-16.448l-0.512-16.661c-10.795-3.883-20.949-9.216-30.272-15.915l-14.187 9.408c-7.253 4.8-16.853 3.435-22.443-3.2l-18.197-21.632c-5.589-6.635-5.312-16.384 0.619-22.677l12.437-13.248c-4.309-9.707-7.403-19.883-9.173-30.336l-17.728-3.627c-8.469-1.685-14.357-9.536-13.653-18.176l2.368-28.011c0.768-8.597 7.787-15.36 16.448-15.659l19.2-0.576c3.477-9.152 8.043-17.792 13.568-25.92l-10.709-16.192c-4.8-7.232-3.413-16.875 3.221-22.464l21.483-18.176c6.613-5.632 16.405-5.291 22.677 0.576l14.059 13.205c9.216-4.331 18.901-7.509 28.885-9.408l3.883-19.264c1.728-8.448 9.557-14.336 18.176-13.653l28.032 2.389c8.576 0.768 15.381 7.765 15.659 16.469l0.576 18.816c10.219 3.627 19.947 8.533 28.885 14.613l15.488-10.219c7.232-4.779 16.875-3.435 22.464 3.157l18.155 21.568c5.632 6.613 5.333 16.341-0.597 22.635l-12.501 13.248c4.608 9.685 7.957 19.968 9.856 30.443l17.067 3.477c8.448 1.685 14.336 9.536 13.632 18.176l-2.368 28.053c-0.747 8.619-7.787 15.36-16.448 15.616l-17.109 0.555c-3.563 9.963-8.363 19.392-14.293 28.117l9.344 14.059c4.928 7.275 3.584 16.981-3.072 22.571zM700.117 340.587c-30.293-2.581-57.067 20.011-59.584 50.283-2.581 30.315 20.011 57.088 50.304 59.627 30.293 2.581 57.067-19.989 59.584-50.347 2.624-30.293-19.968-57.024-50.304-59.563zM353.493 265.088c-8.597-0.896-15.211-8.128-15.275-16.768l-0.213-17.28c-0.128-8.704 6.272-16.064 14.891-17.131l12.693-1.664c2.112-7.701 5.099-15.083 9.003-22.037l-8.192-10.091c-5.461-6.763-5.056-16.448 1.003-22.677l12.096-12.352c6.080-6.208 15.787-6.912 22.677-1.557l10.155 7.851c7.189-4.245 14.741-7.573 22.677-9.92l1.365-13.12c0.896-8.597 8.128-15.211 16.811-15.296l17.28-0.192c8.683-0.128 16.043 6.293 17.131 14.912l1.557 12.395c8.597 2.112 16.789 5.312 24.576 9.536l9.557-7.701c6.784-5.44 16.448-5.035 22.677 1.024l12.352 12.096c6.208 6.059 6.869 15.744 1.579 22.677l-7.317 9.451c4.501 7.552 7.957 15.488 10.368 23.915l11.307 1.173c8.597 0.875 15.232 8.107 15.317 16.768l0.192 17.28c0.149 8.64-6.293 16.064-14.869 17.131l-11.072 1.429c-2.133 8.341-5.248 16.384-9.344 23.872l6.891 8.469c5.44 6.763 5.035 16.448-1.045 22.677l-12.053 12.373c-6.080 6.208-15.787 6.912-22.677 1.557l-8.256-6.336c-7.787 4.693-16.107 8.363-24.853 10.795l-1.088 10.709c-0.896 8.576-8.128 15.232-16.789 15.275l-17.28 0.235c-8.683 0.128-16.043-6.293-17.131-14.912l-1.387-10.624c-8.981-2.304-17.664-5.867-25.728-10.517l-8.512 6.955c-6.763 5.504-16.469 5.077-22.677-1.024l-12.437-12.139c-6.208-6.059-6.891-15.744-1.557-22.677l7.296-9.408c-4.224-7.509-7.573-15.488-9.749-23.872l-11.947-1.259zM464.981 284.629c24.768-0.32 44.651-20.693 44.352-45.461-0.277-24.768-20.672-44.672-45.461-44.352-24.768 0.277-44.629 20.651-44.352 45.419 0.256 24.811 20.672 44.651 45.461 44.395z" />
<glyph unicode="&#xe614;" d="M0.213 462.656c53.44 0 60.949 29.355 60.949 55.701 0 21.077-3.008 42.155-6.016 63.211s-6.016 41.387-6.016 62.464c0 69.248 45.163 98.603 109.141 98.603h15.808v-41.387h-13.568c-44.395 0-59.456-24.085-59.456-64.725 0-17.323 2.261-35.371 5.269-53.44 3.008-18.816 5.269-36.885 5.269-57.195 0.747-48.171-20.331-72.256-54.187-81.28v-1.493c33.856-8.277 54.933-33.877 54.187-82.048 0-20.309-2.261-39.125-5.269-57.195-3.008-18.816-5.269-36.117-5.269-54.187 0-42.155 17.323-65.472 59.456-65.472h13.568v-41.387h-15.808c-62.464 0-109.141 27.115-109.141 103.104 0 20.331 3.008 41.387 6.016 61.717s6.016 40.64 6.016 60.949c0 23.339-7.531 55.701-60.949 55.701v38.357zM1023.744 424.299c-53.44 0-60.949-32.384-60.949-55.701 0-20.309 3.008-40.619 6.016-60.949 3.008-20.309 6.016-41.365 6.016-61.717 0-76.011-47.424-103.104-109.12-103.104h-15.808v41.387h12.8c42.155 0.747 60.203 23.339 60.203 65.472 0 18.069-3.008 35.371-5.269 54.187-3.008 18.069-6.016 36.885-6.016 57.195 0 48.171 21.077 73.771 54.187 82.048v1.493c-33.109 9.024-54.187 33.109-54.187 81.28 0 20.331 3.029 38.379 6.016 57.195 2.261 18.069 5.269 36.117 5.269 53.44 0 40.64-15.787 63.979-59.456 64.725h-13.547v41.387h15.061c63.957 0 109.867-29.333 109.867-98.603 0-21.056-3.029-41.387-6.016-62.464-3.029-21.077-6.016-42.155-6.016-63.211 0-26.347 7.531-55.701 60.949-55.701v-38.357zM173.76 448c0-19.029 15.445-34.453 34.475-34.453h55.659v68.928h-55.659c-19.029 0-34.475-15.445-34.475-34.475zM173.76 560.021c0-19.029 15.445-34.475 34.475-34.475h55.659v68.949h-55.659c-19.029 0-34.475-15.445-34.475-34.475zM850.24 560.085c0 19.051-15.467 34.411-34.453 34.411h-55.659v-68.885h55.659c19.008 0 34.453 15.467 34.453 34.475zM365.504 144.213c0-19.008 15.445-34.453 34.475-34.453s34.475 15.467 34.475 34.453v55.659h-68.928v-55.659zM173.76 335.979c0-19.072 15.445-34.496 34.475-34.496h55.659v68.864h-55.659c-19.029 0-34.475-15.339-34.475-34.368zM477.525 144.213c0-19.008 15.445-34.453 34.475-34.453s34.475 15.467 34.475 34.453v55.659h-68.949v-55.659zM658.517 751.765c0 19.029-15.445 34.475-34.496 34.475-19.029 0-34.368-15.445-34.368-34.475v-55.659h68.885v55.659zM546.475 751.765c0 19.029-15.445 34.475-34.475 34.475s-34.475-15.445-34.475-34.475v-55.659h68.949v55.659zM434.368 751.765c0 19.029-15.445 34.475-34.475 34.475-19.051 0-34.411-15.445-34.411-34.475v-55.659h68.885v55.659zM815.787 370.347h-55.659v-68.885h55.659c19.008 0 34.453 15.445 34.453 34.496s-15.445 34.389-34.453 34.389zM691.115 663.019h-358.229c-19.819 0-35.904-16.085-35.904-35.904v-358.208c0-19.819 16.085-35.904 35.904-35.904h358.208c19.819 0 35.904 16.085 35.904 35.904v358.208c0 19.797-16.085 35.904-35.883 35.904zM447.893 380.267l-11.371 37.824h-42.432l-10.283-37.824h-34.56l45.056 147.413h43.541l45.909-147.413h-35.861zM596.011 447.851c-11.392-10.496-28.437-15.531-48.128-15.531-4.373 0-8.32 0.213-11.392 0.896v-52.928h-33.003v145.451c10.283 1.749 24.704 3.051 45.056 3.051 20.565 0 35.435-3.947 45.291-12.011 9.387-7.211 15.509-19.477 15.509-33.899 0-14.699-4.587-26.923-13.333-35.029zM664.043 380.267h-33.216v147.413h33.216v-147.413zM815.787 482.475h-55.659v-68.928h55.659c19.008 0 34.453 15.424 34.453 34.453s-15.445 34.475-34.453 34.475zM550.293 503.403c-6.763 0-11.371-0.448-13.781-1.088v-43.541c2.859-0.64 6.379-0.875 11.157-0.875 17.707 0 28.651 8.96 28.651 23.829 0 13.589-9.173 21.675-26.027 21.675zM589.717 144.213h-0.064c0-19.008 15.424-34.453 34.453-34.453s34.453 15.467 34.453 34.453v55.659h-68.864v-55.659zM415.104 502.741h-0.661c-1.963-8.747-4.395-19.904-6.571-28.437l-8.96-31.275h32.576l-9.195 31.275c-2.389 8.747-5.013 19.904-7.189 28.437z" />
<glyph unicode="&#xe615;" d="M231.573 171.029c12.608 0 24.448 3.051 35.2 8-4.736 3.84-9.259 7.915-13.824 11.968h-63.424c4.544-4.992 8.896-10.197 13.675-14.955 8.875-3.179 18.411-5.013 28.373-5.013zM852.245 825.472c-86.165 86.080-200.661 133.803-322.475 134.528h-4.544c-253.333-1.344-458.304-208.405-456.96-461.525 0.235-44.843 7.189-88.043 19.456-128.981 10.773 12.864 23.36 24.021 37.333 33.216-5.952 24.448-9.984 49.707-11.328 75.627h159.424c0.64-19.989 2.645-39.765 5.312-59.392 18.667-7.211 35.776-17.579 50.667-30.635-6.165 29.525-10.112 59.541-11.115 90.005h187.115v-116.245c-46.507-1.664-92.715-9.024-137.899-21.483 7.083-13.056 12.416-27.157 15.957-41.963 39.957 10.581 80.853 17.003 121.941 18.709v-226.752c-21.696 18.581-42.155 39.019-60.651 60.928-7.595 9.024-14.699 18.347-21.653 27.755v-70.421c3.499-3.883 6.827-7.893 10.389-11.691-3.52 0.832-6.912 1.963-10.389 2.859v-45.995c33.707-7.915 68.651-12.544 104.725-12.544 0.832 0 1.664 0 2.283 0 122.752 0.725 237.824 49.109 324.117 136.171 86.272 87.232 133.483 202.816 132.885 325.355-0.789 121.835-48.533 236.309-134.592 322.475zM274.901 547.328c-0.704-8.043-1.131-16.213-1.557-24.149h-159.616c4.224 81.109 32.128 156.096 76.779 218.411 35.541-23.979 73.045-43.712 111.893-59.307-14.4-43.093-23.573-88.341-27.499-134.955zM218.496 776.597c57.131 63.744 133.483 109.931 220.16 128.939-51.755-52.715-92.459-114.155-120.555-181.248-34.539 13.995-67.797 31.339-99.605 52.309zM505.088 523.179h-186.901c0.32 6.827 0.725 13.632 1.344 20.544 3.52 42.453 11.989 83.797 25.003 123.477 52.288-16.533 106.325-25.941 160.555-27.797v-116.224zM505.088 684.139c-48.875 1.963-97.536 10.219-144.747 25.088 31.936 75.221 80.981 142.592 144.747 197.248v-222.336zM505.088 913.088l-1.152 1.429c0.32 0 0.725 0 1.152 0v-1.429zM864.341 741.376c44.608-62.293 72.725-137.216 76.971-218.219h-159.552c-2.24 54.549-11.989 108.053-29.013 159.211 38.656 15.403 76.139 35.136 111.595 59.008zM836.203 776.405c-31.701-20.971-64.853-38.229-99.264-52.075-22.72 53.632-53.525 104.171-92.245 150.037-9.003 10.731-18.368 21.077-28.331 31.211 86.293-19.157 162.752-65.216 219.84-129.173zM549.931 914.539c0.427 0 0.832 0 1.152-0.085l-1.152-1.344v1.429zM549.931 906.496c21.717-18.709 42.176-39.253 60.565-61.077 35.115-41.621 63.424-87.509 84.181-136.171-47.232-14.869-95.872-23.125-144.747-25.088v222.336zM549.931 639.403c54.229 1.856 108.267 11.243 160.64 27.797 15.296-46.293 24.192-94.635 26.347-144.021h-187.008v116.224zM549.931 478.315h187.008c-0.32-8.256-0.725-16.64-1.429-24.896-3.435-41.131-11.477-81.237-23.765-119.552-52.587 16.832-107.029 26.347-161.792 28.181v116.267zM549.931 90.603v226.752c49.472-2.069 98.773-10.539 146.389-25.493-31.829-76.885-81.515-145.685-146.389-201.259zM822.080 209.195c-55.808-56.32-124.843-94.656-200.256-112.107 50.219 52.501 89.472 113.259 116.757 179.477 33.899-13.76 66.752-31.104 98.048-51.776-4.651-5.248-9.6-10.539-14.549-15.595zM864.853 259.947c-35.349 23.552-72.448 43.157-110.869 58.773 13.547 41.941 22.315 85.76 26.155 130.901 0.939 9.515 1.344 19.115 1.771 28.715h159.424c-4.16-79.36-30.635-154.581-76.48-218.389zM372.373 215.808h-9.173v42.795c0 79.147-62.805 145.301-141.333 146.709-2.133 0.021-6.421 0.021-8.555 0-78.528-1.408-141.333-67.563-141.333-146.709v-42.795h-9.173c-14.101 0-25.579-14.549-25.579-32.512v-214.677c0-17.963 11.499-32.619 25.579-32.619h309.568c14.080 0 25.579 14.677 25.579 32.619v214.677c0 17.984-11.499 32.512-25.579 32.512zM246.592 76.16v-64.875c0-7.424-6.229-13.696-13.653-13.696h-30.699c-7.445 0-13.653 6.272-13.653 13.696v64.875c-7.189 7.083-11.413 16.917-11.413 27.776 0 20.565 15.915 38.251 36.139 39.061 2.133 0.085 6.421 0.085 8.555 0 20.224-0.811 36.139-18.496 36.139-39.061 0-10.859-4.224-20.693-11.413-27.776zM302.955 215.808h-170.709v42.795c0 47.147 38.315 86.123 85.333 86.123 47.061 0 85.376-38.976 85.376-86.123v-42.795z" />
<glyph unicode="&#xe616;" d="M673.771 959.616h-39.168l-0.192 0.171v-0.171h-458.944c-29.077 0-52.757-23.659-52.757-52.757v-917.909c0-29.077 23.659-52.757 52.757-52.757h673.088c29.077 0 52.757 23.659 52.757 52.757v752.533l-227.541 218.133zM848.533-33.195h-673.067c-12.224 0-22.144 9.941-22.144 22.144v917.931c0 12.181 9.92 22.144 22.144 22.144h458.965v-174.592c0-27.776 22.613-50.368 50.368-50.368h185.899v-715.115c-0.021-12.203-9.941-22.144-22.165-22.144zM782.4 68.587h-117.653v123.328h91.84l26.389 27.669h-144.64v-178.688h170.475v114.411l-26.411-27.691zM693.696 154.709l-18.688-19.563 44.821-47.019 112.171 117.611-18.667 19.584-93.504-98.027zM609.749 590.955h-366.187v45.76h366.187zM472.448 499.413h-228.885v45.76h228.885zM609.749 362.091h-366.187v45.76h366.187zM518.208 270.549h-274.645v45.76h274.645zM609.749 293.44c0-12.672-10.283-22.891-22.891-22.891-12.715 0-22.933 10.219-22.933 22.891 0 12.651 10.219 22.869 22.933 22.869 12.608 0 22.891-10.219 22.891-22.869z" />
<glyph unicode="&#xe617;" d="M1007.424 331.797c-20.459 20.16-65.856 30.827-134.933 31.744-46.763 0.533-103.061-3.605-162.24-11.904-26.496 15.317-53.803 31.957-75.264 51.989-57.685 53.888-105.835 128.661-135.851 210.88 1.963 7.659 3.627 14.421 5.184 21.312 0 0 32.469 184.576 23.872 246.976-1.173 8.555-1.899 11.029-4.203 17.685l-2.859 7.253c-8.832 20.395-26.155 41.984-53.333 40.811l-16.384 0.512c-30.293 0-54.997-15.509-61.461-38.677-19.712-72.64 0.619-181.312 37.461-322.069l-9.429-22.912c-26.368-64.299-59.435-129.088-88.597-186.219l-3.797-7.445c-30.677-60.032-58.539-111.040-83.776-154.219l-26.069-13.781c-1.899-1.024-46.571-24.619-57.024-30.976-88.875-53.035-147.776-113.301-157.547-161.109-3.115-15.253-0.811-34.773 15.019-43.819l25.216-12.629c10.944-5.504 22.485-8.277 34.283-8.277 63.296 0 136.789 78.848 238.016 255.531 116.885 38.059 249.963 69.696 366.592 87.125 88.875-50.069 198.187-84.821 267.157-84.821 12.245 0 22.827 1.195 31.403 3.456 13.227 3.477 24.427 11.051 31.211 21.291 13.376 20.139 16.085 47.893 12.459 76.309-1.109 8.427-7.851 18.88-15.104 25.984zM61.973-5.013c11.541 31.552 57.237 93.931 124.8 149.312 4.245 3.456 14.699 13.248 24.277 22.357-70.635-112.683-117.952-157.589-149.077-171.669zM462.123 916.416c20.352 0 31.915-51.285 32.875-99.371 0.96-48.064-10.304-81.813-24.235-106.795-11.563 36.971-17.152 95.232-17.152 133.333 0 0-0.832 72.832 8.512 72.832zM342.741 259.776c14.187 25.365 28.928 52.117 44.011 80.512 36.715 69.461 59.925 123.819 77.205 168.491 34.368-62.528 77.163-115.691 127.467-158.272 6.272-5.312 12.907-10.645 19.925-15.957-102.315-20.224-190.763-44.843-268.608-74.773zM987.755 265.536c-6.229-3.904-24.085-6.144-35.563-6.144-37.056 0-82.901 16.939-147.157 44.48 24.683 1.835 47.36 2.773 67.648 2.773 37.141 0 48.192 0.171 84.523-9.109 36.331-9.259 36.779-28.096 30.549-32z" />
<glyph unicode="&#xe618;" d="M990.997 841.835h-360.853v-117.525h276.949v-80h-276.949v-78.165h275.712v-78.763h-275.712v-78.763h275.712v-78.763h-275.712v-78.763h275.712v-78.763h-275.712v-118.165h360.853c18.155 0 33.003 15.403 33.003 34.261v719.147c0 18.88-14.848 34.261-33.003 34.261zM0 846.229v-796.459l590.763-113.771v1024l-590.763-113.771zM431.381 248.619h-77.205l-51.328 255.701c-2.731 13.376-4.395 28.309-4.907 44.757h-0.896c-1.323-18.155-3.2-33.067-5.653-44.757l-52.608-255.68h-80.405l-81.301 398.592h76.16l43.541-265.451c1.835-11.307 3.221-26.539 4.075-45.632h1.323c0.533 14.229 2.688 29.845 6.272 46.699l56.021 264.384h74.624l50.688-267.691c1.835-9.856 3.456-24.085 4.907-42.859h0.853c0.619 14.677 2.069 29.504 4.565 44.544l42.667 266.005h70.293l-81.685-398.613z" />
<glyph unicode="&#xe619;" d="M137.984 161.323h-127.403v151.851h127.403v-151.851zM474.731 144.213c0-67.797-18.261-119.509-54.677-154.965-36.437-35.499-86.571-53.248-150.528-53.248-11.051 0-23.317 0.427-37.013 1.557-13.632 1.024-27.243 2.56-40.768 4.864v89.429h5.867c7.851-1.749 16.427-3.413 25.813-5.056 9.472-1.664 18.453-2.475 26.923-2.475 26.731 0 48.597 3.307 65.813 9.92 17.259 6.613 30.123 16.939 38.699 31.125 7.723 12.821 12.992 29.013 15.659 48.512 2.688 19.584 4.011 43.328 4.011 71.381v488.107h-107.712v83.136h207.893v-612.288zM475.243 856.107h-114.005v103.893h114.005v-103.893zM780.523 146.901c-39.808 0-76.971 5.333-111.637 16.085-34.667 10.645-63.339 21.973-86.037 34.027v112.448h5.397c8.448-6.805 18.539-14.229 29.995-22.357 11.563-8.171 26.923-16.725 46.123-25.579 17.024-7.829 35.819-14.763 56.235-20.779 20.416-6.080 41.685-9.067 63.637-9.067 15.979 0 33.024 1.835 51.179 5.589 18.155 3.733 31.552 8.448 40.533 14.123 12.373 8.171 21.355 16.811 26.816 26.133 5.589 9.259 8.32 23.083 8.32 41.451 0 23.893-6.443 41.771-19.435 53.845-13.013 12.16-36.011 22.293-69.013 30.315-12.8 3.307-29.525 7.019-50.069 11.264-20.629 4.203-39.595 8.853-57.045 13.888-45.504 13.099-78.528 33.429-99.136 60.971-20.544 27.541-30.827 60.779-30.827 99.883 0 53.653 20.203 97.344 60.757 131.072 40.448 33.749 94.315 50.603 161.344 50.603 33.131 0 66.347-4.053 99.669-12.224 33.472-8.192 61.547-18.453 84.245-30.869v-107.115h-5.376c-25.579 20.224-54.059 36.203-85.483 47.872-31.488 11.776-63.147 17.643-95.125 17.643-33.024 0-60.949-6.912-83.648-20.757-22.72-13.803-34.176-34.88-34.176-62.933 0-24.853 6.805-43.307 20.331-55.701 13.397-12.16 35.157-22.272 65.003-30.123 14.848-3.819 31.467-7.616 49.813-11.328 18.261-3.712 37.547-8.064 57.792-13.099 43.989-11.051 77.205-29.312 99.264-54.891 22.315-25.472 33.429-60.331 33.429-104.405 0-25.6-5.141-49.835-15.275-72.725-10.112-22.891-24.96-42.517-44.352-58.795-21.461-17.877-45.44-31.403-72.277-40.555-26.816-9.195-60.437-13.909-100.971-13.909z" />
<glyph unicode="&#xe61a;" d="M268.587 416.405c0 0-42.752 91.883-41.195 159.019 1.173 47.979 98.261 95.424 136.363 164.288 38.059 68.885-4.736 136-4.736 136s9.515-49.493-15.851-100.672c-25.365-51.243-118.997-81.301-155.413-169.643-36.416-88.299 80.832-188.992 80.832-188.992zM428.779 695.552c0 0-145.835-61.867-145.835-132.501 0-70.72 39.595-93.653 45.973-116.565 6.336-23.040-11.093-61.888-11.093-61.888s57.067 44.139 47.509 95.424c-9.536 51.221-53.909 67.157-28.501 118.336 16.981 34.325 91.947 97.195 91.947 97.195zM252.8 323.051c134.784 5.333 183.936 52.757 183.936 52.757-87.168-26.453-318.699-24.725-320.299-5.355-1.557 19.435 71.317 35.371 71.317 35.371s-114.112 0-123.669-31.765c-9.493-31.829 54.037-56.277 188.715-51.008zM447.787 248.555c0 0 131.947 31.403 118.869 111.232-15.787 97.216-107.819 42.432-107.819 42.432s65.067 0 71.36-44.139c6.357-44.16-82.411-109.525-82.411-109.525zM382.805 290.965c0 0-33.237-9.771-82.496-15.915-66.027-8.256-145.856-1.728-152.235 10.645-6.251 12.395 11.115 19.392 11.115 19.392-79.317-21.205-35.925-58.219 57.024-65.323 79.68-6.101 198.251 26.453 198.251 26.453l-31.659 24.747zM178.304 213.76c0 0-35.989-1.131-38.101-22.336-2.069-21.035 22.165-40 110.955-45.867 88.811-5.867 151.211 27.093 151.211 27.093l-40.171 27.115c0 0-25.387-5.867-64.512-11.797-39.125-5.888-119.381 4.779-122.56 12.885-3.2 8.299 3.179 12.907 3.179 12.907zM523.883 118.336c13.717 16.555-4.245 29.525-4.245 29.525s6.315-8.256-2.069-17.664c-8.448-9.387-85.653-32.917-209.344-40-123.627-7.104-257.899 12.949-262.144 30.613-4.096 17.643 68.757 31.723 68.757 31.723-8.427-1.152-109.888-3.499-113.131-34.219-3.179-30.549 44.373-55.296 234.709-55.296 190.251 0.064 273.771 38.955 287.467 55.317zM449.899 48.939c-83.499-18.795-337.131-6.955-337.131-6.955s164.843-43.648 352.981-7.125c89.92 17.493 95.189 65.984 95.189 65.984s-27.499-33.003-111.040-51.904zM774.549 392.619h-125.376v-115.627h139.733v-34.752h-181.355v320.768h174.165v-34.731h-132.544v-101.376h125.376v-34.283zM1009.984 392.619h-125.376v-115.627h139.733v-34.752h-181.355v320.768h174.165v-34.731h-132.544v-101.376h125.376v-34.283z" />
<glyph unicode="&#xe61b;" d="M490.709 410.176c0 0-57.088 109.995-54.976 190.357 1.536 57.429 131.051 114.219 181.888 196.651 50.752 82.475-6.336 162.816-6.336 162.816s12.693-59.243-21.141-120.491c-33.835-61.333-158.72-97.344-207.275-203.072-48.555-105.749 107.84-226.261 107.84-226.261zM704.363 744.32c0 0-194.539-74.048-194.539-158.613 0-84.629 52.821-112.085 61.333-139.563 8.448-27.563-14.805-74.048-14.805-74.048s76.117 52.864 63.381 114.219c-12.715 61.333-71.893 80.405-37.995 141.675 22.613 41.088 122.624 116.331 122.624 116.331zM469.611 298.411c179.776 6.421 245.333 63.147 245.333 63.147-116.267-31.68-425.088-29.632-427.221-6.379-2.069 23.253 95.125 42.304 95.125 42.304s-152.213 0-164.928-38.037c-12.672-38.059 72.043-67.328 251.691-61.035zM729.728 209.301c0 0 175.957 37.547 158.549 133.099-21.077 116.373-143.787 50.816-143.787 50.816s86.784 0 95.211-52.843c8.448-52.864-109.973-131.072-109.973-131.072zM643.029 259.989c0 0-44.331-11.648-110.037-19.029-88.064-9.899-194.539-2.069-203.029 12.736-8.363 14.827 14.805 23.253 14.805 23.253-105.771-25.387-47.915-69.739 76.053-78.251 106.261-7.253 264.427 31.701 264.427 31.701l-42.219 29.589zM370.24 167.616c0 0-47.979-1.344-50.795-26.752-2.773-25.237 29.525-47.915 148.011-54.933 118.443-7.019 201.664 32.405 201.664 32.405l-53.568 32.491c0 0-33.877-7.104-86.037-14.123-52.224-7.083-159.275 5.675-163.477 15.467-4.309 9.877 4.203 15.445 4.203 15.445zM831.189 53.419c18.325 19.797-5.675 35.285-5.675 35.285s8.448-9.877-2.709-21.12c-11.307-11.243-114.261-39.424-279.253-47.915-164.907-8.469-344 15.531-349.653 36.672-5.483 21.12 91.712 37.995 91.712 37.995-11.243-1.408-146.603-4.203-150.912-40.917-4.203-36.608 59.2-66.219 313.067-66.219 253.76 0.043 365.184 46.592 383.424 66.219zM732.523-29.717c-111.381-22.507-449.664-8.341-449.664-8.341s219.861-52.203 470.827-8.491c119.957 20.907 126.933 78.955 126.933 78.955s-36.672-39.488-148.096-62.123z" />
<glyph unicode="&#xe61c;" d="M79.509 269.035h-79.509v94.784h79.509v-94.784zM289.728 258.411c0-42.411-11.349-74.645-34.069-96.853-22.784-22.123-54.080-33.259-93.973-33.259-6.933 0-14.613 0.363-23.147 1.024-8.555 0.661-17.045 1.621-25.451 2.965v55.915h3.691c4.864-1.131 10.24-2.155 16.085-3.179 5.888-0.96 11.499-1.451 16.811-1.451 16.661 0 30.315 2.069 41.088 6.101 10.773 4.139 18.816 10.624 24.128 19.477 4.864 7.979 8.192 18.091 9.813 30.315 1.707 12.16 2.496 27.008 2.496 44.565v304.704h-67.2v51.947h129.749v-382.272zM290.027 702.827h-71.189v64.853h71.189v-64.853zM587.819 308.672c-5.163-3.776-11.968-9.088-20.523-15.872-8.533-6.699-16.811-12.096-24.768-16.085-11.072-5.76-21.781-10.24-32.085-13.355-10.325-3.093-24.789-4.651-43.456-4.651-15.275 0-29.803 2.88-43.52 8.64-13.781 5.803-25.877 13.845-36.288 24.341-9.963 10.197-17.92 22.784-23.979 37.781-5.973 14.891-8.917 30.741-8.917 47.36 0 25.749 5.376 47.637 16.299 65.728 10.837 18.069 28.032 32.448 51.563 43.072 20.8 9.515 45.44 16.171 73.835 19.776 28.395 3.691 59.008 6.421 91.84 8.192v11.968c0 14.677-2.283 26.475-6.72 35.392-4.416 9.003-10.603 15.936-18.581 20.821-7.957 5.077-17.771 8.469-29.291 10.176-11.52 1.621-23.381 2.517-35.627 2.517-14.379 0-31.36-2.219-50.901-6.507-19.477-4.352-39.019-10.624-58.496-18.816h-3.691v63.531c11.499 3.307 28.011 6.997 49.557 10.987 21.547 4.011 42.773 5.973 63.872 5.973 25.515 0 46.997-1.984 64.533-5.973 17.472-3.989 33.28-11.2 47.211-21.611 13.611-10.197 23.637-23.381 30.293-39.595 6.635-16.171 10.027-35.947 10.027-59.157v-254.187h-62.208v39.552zM587.819 360.512v103.104c-14.912-1.323-33.707-3.157-56.448-5.461-22.72-2.347-41.088-5.611-55.019-9.813-16.683-5.077-30.4-12.885-41.323-23.445-10.837-10.56-16.299-25.237-16.299-44.117 0-21.227 6.059-37.312 18.005-48.235 11.947-10.859 29.504-16.32 52.587-16.32 19.691 0 37.547 4.288 53.547 12.843 15.936 8.576 30.912 19.051 44.949 31.445zM751.232 209.515c4.117-1.771 10.304-4.203 18.581-7.168 8.107-3.029 17.557-5.803 27.883-8.469 11.52-2.88 22.293-5.227 32.021-6.997s20.352-2.667 31.851-2.667c19.328 0 35.712 2.581 49.131 7.68 13.44 5.077 23.915 12.16 31.445 21.227 7.083 9.152 12.075 19.627 14.891 31.637 2.965 11.968 4.416 25.6 4.416 40.875v32.597c-16.96-14.613-33.472-25.451-49.557-32.405-16.235-6.997-36.587-10.453-60.907-10.453-42.347 0-76.117 15.701-101.056 47.211-25.088 31.509-37.632 76.715-37.632 135.701 0 30.827 4.288 58.219 12.971 82.048 8.555 23.808 20.224 44.011 34.987 60.693 13.845 15.936 30.379 28.245 49.408 36.885 19.157 8.704 38.933 12.971 59.285 12.971 19.328 0 36.011-2.219 50.027-6.784 14.165-4.565 28.331-11.072 42.475-19.477l3.691 16.021h58.859v-329.344c0-62.997-13.867-109.248-41.323-138.752s-69.483-44.245-126.123-44.245c-18.155 0-36.757 1.451-55.616 4.352-19.029 2.88-36.736 6.763-53.099 11.648v65.216h3.392zM961.429 369.877v203.883c-15.488 7.552-29.931 12.907-43.072 16.171-13.291 3.157-26.411 4.8-39.403 4.8-31.701 0-56.789-11.648-74.944-34.901-18.155-23.317-27.285-56.704-27.285-100.16 0-41.237 6.933-72.64 20.8-94.123 13.867-21.525 36.288-32.299 67.413-32.299 16.235 0 32.896 3.221 50.027 9.643 17.259 6.4 32.768 15.403 46.464 26.987z" />
<glyph unicode="&#xe61d;" d="M673.771 959.616h-39.168l-0.192 0.171v-0.171h-458.944c-29.077 0-52.757-23.659-52.757-52.757v-917.909c0-29.077 23.659-52.757 52.757-52.757h673.088c29.077 0 52.757 23.659 52.757 52.757v752.533l-227.541 218.133zM848.533-33.195h-673.067c-12.224 0-22.144 9.941-22.144 22.144v917.931c0 12.181 9.92 22.144 22.144 22.144h458.965v-174.592c0-27.776 22.613-50.368 50.368-50.368h185.899v-715.115c-0.021-12.203-9.941-22.144-22.165-22.144zM200.96 442.816l216.213-99.861v47.637l-163.627 71.168v0.875l163.627 71.445v47.701l-216.213-100.331zM450.048 324.992h45.419l96.149 325.995h-45.355zM617.323 581.781v-47.701l167.253-71.445v-0.875l-167.253-71.531v-47.275l216.213 98.496v41.408zM797.995 244.48h-572.011c-14.443 0-26.155-11.733-26.155-26.155v-177.984c0-14.464 11.691-26.155 26.155-26.155h572.011c14.464 0 26.176 11.691 26.176 26.155v177.984c0 14.421-11.712 26.155-26.176 26.155zM386.176 66.069h-28.437v52.565h-46.955v-52.565h-28.437v126.059h28.437v-48.619h46.955v48.619h28.437v-126.059zM498.368 168.192h-34.411v-102.123h-28.437v102.123h-34.048v23.936h96.896v-23.936zM621.44 66.069l-2.069 48.277c-0.555 15.147-1.131 33.28-1.131 51.819h-0.384c-4.096-16.107-9.344-34.048-14.208-48.832l-15.36-49.216h-22.251l-13.461 48.64c-4.117 14.976-8.256 32.747-11.413 49.387h-0.384c-0.533-17.024-1.323-36.48-2.048-52.203l-2.432-47.872h-26.389l8.043 126.059h37.995l12.331-42.261c4.096-14.4 7.851-30.101 10.645-44.885h0.768c3.349 14.592 7.659 31.040 11.968 45.248l13.291 41.899h37.419l6.72-126.059h-27.648zM749.717 66.069h-78.549v126.059h28.416v-102.123h50.133v-23.936z" />
<glyph unicode="&#xe61e;" d="M982.507 552.384l-65.003 7.616c-8.96 33.941-22.336 66.347-39.339 96.768l40 50.581c14.869 18.731 13.205 45.397-3.456 62.293l-78.037 78.037c-16.832 16.832-43.584 18.368-62.293 3.499l-49.131-38.891c-31.893 18.709-66.005 32.981-101.76 42.624l-7.424 63.552c-2.752 23.765-22.784 41.536-46.528 41.536h-110.656c-23.723 0-43.755-17.771-46.549-41.515l-7.424-63.552c-36.672-9.835-71.701-24.704-104.384-44.117l-50.944 40.405c-18.709 14.869-45.44 13.184-62.315-3.499l-78.144-78.272c-16.896-16.875-18.368-43.563-3.563-62.272l42.624-53.931c-17.045-30.784-29.995-63.573-38.528-97.685l-68.245-7.808c-23.68-2.752-41.493-22.784-41.493-46.528v-110.656c0-23.723 17.813-43.755 41.493-46.549l71.957-8.341c9.088-31.125 21.675-61.141 37.653-89.344l-45.461-57.301c-14.805-18.731-13.141-45.376 3.563-62.272l78.187-78.229c16.896-16.853 43.605-18.389 62.315-3.563l56.896 45.013c29.291-16.832 60.416-29.995 92.843-39.253l8.533-73.195c2.795-23.765 22.827-41.6 46.528-41.6h110.677c23.723 0 43.776 17.835 46.507 41.6l8.192 70.635c34.88 9.067 68.181 22.549 99.541 40.235l55.040-43.648c18.709-14.763 45.461-13.077 62.293 3.541l78.208 78.272c16.917 16.832 18.368 43.541 3.541 62.251l-42.795 54.315c17.792 30.827 31.701 63.573 40.917 97.92l65.963 7.573c23.829 2.795 41.579 22.805 41.579 46.528v110.677c0 23.744-17.749 43.797-41.579 46.549zM512 109.76c-186.795 0-338.24 151.445-338.24 338.24s151.445 338.24 338.24 338.24c186.816 0 338.24-151.445 338.24-338.24 0-186.816-151.424-338.24-338.24-338.24zM300.267 295.616c-16.384-16.405-16.384-42.944 0-59.328 8.192-8.192 18.944-12.267 29.675-12.267 10.752 0 21.483 4.075 29.675 12.267l137.771 137.792-59.349 59.285-137.771-137.749zM644.587 550.955l59.989 31.019 31.424 60.715-29.291 29.291-60.693-31.445-31.083-59.947-72.981-73.045 29.589-29.653zM657.728 391.701l-5.675 0.555c-10.219 0-19.947-2.112-28.992-5.461l-172.224 172.245c3.349 9.067 5.461 18.752 5.461 28.992l-0.555 5.653c-2.965 43.648-38.933 78.251-83.349 78.251-12.928 0-25.024-3.157-35.968-8.384l55.744-55.744c2.944-2.944 4.949-6.4 6.293-10.069 3.648-9.899 1.685-21.483-6.293-29.483-5.44-5.461-12.608-8.192-19.776-8.192-3.307 0-6.571 0.725-9.707 1.899-3.669 1.387-7.125 3.349-10.069 6.315l-55.744 55.723c-5.227-10.944-8.405-23.040-8.405-35.968 0-44.416 34.603-80.384 78.272-83.349l5.653-0.555c10.24 0 19.947 2.091 28.992 5.419l172.203-172.224c-3.285-9.045-5.397-18.773-5.397-28.992l0.576-5.653c2.923-43.691 38.912-78.272 83.328-78.272 12.928 0 25.067 3.115 35.989 8.405l-55.744 55.744c-2.923 2.901-4.949 6.4-6.357 10.048-3.669 9.899-1.664 21.504 6.357 29.504 5.397 5.461 12.608 8.213 19.776 8.213 3.307 0 6.549-0.704 9.749-1.899 3.648-1.365 7.147-3.349 10.048-6.315l55.723-55.744c5.248 10.987 8.405 23.061 8.405 35.989-0.043 44.416-34.645 80.405-78.315 83.349z" />
<glyph unicode="&#xe61f;" d="M149.205 698.624l-50.197-50.176c-6.571-6.613-8.533-16.853-4.992-25.472 3.563-8.597 11.989-14.592 21.312-14.592h211.712c12.715 0 23.147 11.008 23.147 23.744v211.755c0 9.344-5.696 17.728-14.315 21.312-8.576 3.563-18.517 1.579-25.131-4.992l-50.197-50.197-132.949 132.949c-21.675 21.675-56.789 21.675-78.485 0l-32.853-32.896c-10.432-10.389-16.256-24.512-16.256-39.211s5.824-28.843 16.256-39.253l132.949-132.971zM327.061 286.101h-211.733c-9.344 0-17.749-5.184-21.312-13.824-3.541-8.576-1.557-18.304 4.971-24.917l50.219-50.091-132.971-132.928c-10.411-10.411-16.235-24.491-16.235-39.189 0-14.677 5.824-28.8 16.235-39.232l32.917-32.896c21.696-21.653 56.811-21.653 78.464 0l132.949 132.949 50.176-50.197c6.656-6.592 16.576-8.533 25.195-4.971 8.597 3.541 14.293 11.947 14.293 21.248v211.755c-0.021 12.779-10.432 22.293-23.168 22.293zM874.731 197.355l50.197 50.197c6.571 6.613 8.512 16.149 4.971 24.725-3.541 8.619-11.947 13.824-21.291 13.824h-211.712c-12.693 0-23.147-9.557-23.147-22.293v-211.755c0-9.323 5.696-17.707 14.315-21.291 8.597-3.541 18.581-1.579 25.131 5.013l50.219 50.197 132.949-132.949c21.653-21.696 56.768-21.696 78.443 0l32.939 32.896c10.432 10.432 16.256 24.533 16.256 39.232s-5.824 28.843-16.277 39.211l-132.992 132.992zM696.896 608.427h211.712c9.344 0 17.749 5.973 21.291 14.613 3.541 8.597 1.579 18.688-4.971 25.301l-50.197 50.261 132.949 133.013c10.389 10.389 16.277 24.533 16.277 39.253s-5.867 28.843-16.277 39.211l-32.939 32.917c-21.653 21.675-56.789 21.675-78.421 0l-132.928-132.971-50.155 50.197c-6.613 6.592-16.576 8.555-25.195 4.992s-14.315-11.989-14.315-21.291v-211.733c0.021-12.736 10.432-23.765 23.168-23.765zM511.979 612.779c-91.008 0-164.779-73.771-164.779-164.779s73.771-164.779 164.779-164.779 164.757 73.771 164.757 164.779-73.749 164.779-164.757 164.779zM511.979 330.368c-64.96 0-117.632 52.672-117.632 117.632s52.651 117.632 117.632 117.632c64.96 0 117.611-52.672 117.611-117.632s-52.651-117.632-117.611-117.632z" />
<glyph unicode="&#xe620;" d="M605.696 256.683c-0.768 9.728 2.048 19.691 8.789 27.648l23.595 28.096c12.139 14.379 34.496 17.579 50.219 7.211l9.6-6.379c7.595 4.757 15.552 8.939 23.765 12.501l0.363 11.2c0.576 19.243 15.573 35.115 34.923 36.843l39.659 3.221c18.219 0 34.005-12.885 37.568-30.677l2.219-10.987c0.32-0.085 0.619-0.235 0.939-0.299 28.949 22.677 45.803 48.555 45.803 76.181v114.816c0 13.312-4.203 26.133-11.456 38.485-40.448-70.101-188.757-122.155-366.016-122.155-177.088 0-325.483 52.011-365.995 122.155-7.125-12.352-11.285-25.173-11.285-38.485v-114.816c0-88.597 168.96-160.597 377.28-160.597 34.752 0.043 68.117 2.283 100.032 6.037zM602.24 197.781c1.131 0.341 2.219 0.789 3.392 1.024l12.544 2.539c0.96 4.075 2.389 8 3.627 12.011-12.203-1.685-24.789-2.987-37.525-4.117 7.275-1.515 13.547-5.653 17.963-11.456zM469.461 14.891l-5.632 0.171c-15.232 0.533-27.648 12.352-28.928 27.499l-1.963 22.997c-1.216 15.232 9.109 28.907 23.979 31.893l4.309 0.875c0.683 2.581 1.472 5.163 2.325 7.701l-3.307 3.52c-10.432 10.965-10.944 28.096-1.067 39.787l14.869 17.749c9.536 11.328 27.136 13.845 39.509 5.653l2.88-1.92c2.965 1.707 5.973 3.285 9.045 4.757l0.107 3.371c0.427 13.845 10.517 25.045 23.851 27.925-14.443-0.704-28.821-1.579-43.733-1.579-177.088 0-325.483 52.032-365.995 122.176-7.125-12.288-11.285-25.173-11.285-38.464v-114.88c0-83.456 149.867-151.765 341.205-159.552-0.064 0.107-0.128 0.213-0.171 0.32zM872.875 794.155c-7.424-64.981-168.619-116.971-367.168-116.971-198.421 0-359.659 51.989-367.040 116.949-6.464-11.819-10.24-24.128-10.24-36.8v-114.773c0-88.725 168.96-160.597 377.28-160.597 208.448 0 377.493 71.872 377.493 160.597v114.773c0 12.672-3.819 24.981-10.325 36.821zM505.707 713.6c203.157 0 367.744 54.357 367.744 121.536 0 67.115-164.587 121.515-367.744 121.515-203.029-0.021-367.723-54.421-367.723-121.536 0-67.136 164.693-121.515 367.723-121.515zM608.533 183.040l0.107-0.469c3.093-0.853 6.080-1.835 9.024-2.923l2.155 2.027c2.56 2.389 5.568 4.16 8.725 5.461l-19.861-4.011c-0.064-0.043-0.085-0.064-0.149-0.085zM991.083 195.051c-0.96 11.157-10.176 20.011-21.419 20.288l-22.251 0.747c-4.672 12.949-10.88 25.216-18.603 36.587l12.139 18.283c6.507 9.408 4.736 22.037-3.947 29.312l-28.011 23.595c-8.576 7.296-21.333 6.933-29.461-0.789l-15.509-14.485c-12.992 6.293-26.88 10.773-41.216 13.291l-4.331 21.333c-2.219 11.029-12.437 18.624-23.616 17.749l-36.501-3.115c-11.2-1.003-20.011-10.155-20.331-21.419l-0.704-21.696c-13.973-5.056-27.221-12.011-39.403-20.715l-18.432 12.224c-9.408 6.208-21.888 4.459-29.163-4.139l-23.637-28.139c-7.275-8.576-6.912-21.291 0.811-29.483l16.171-17.28c-5.589-12.523-9.536-25.749-11.883-39.296 9.472 2.688 20.181 1.237 27.883-5.269l17.6-14.848c11.819-9.92 14.123-27.008 5.333-39.744l-1.813-2.752c1.28-2.304 2.475-4.672 3.605-7.061l3.691-0.128c15.211-0.491 27.648-12.309 28.885-27.499l1.963-22.955c1.28-15.275-9.067-28.971-24.021-31.915l-3.797-0.768c-0.768-2.688-1.621-5.355-2.56-7.979l3.115-3.307c8.789-9.344 10.091-22.699 4.608-33.685 3.456 0.832 6.763 2.411 9.536 5.013l18.219 17.195c12.011-5.611 24.576-9.749 37.632-12.245l4.992-25.045c2.219-11.029 12.416-18.624 23.616-17.749l36.501 3.115c11.157 1.003 20.011 10.133 20.395 21.419l0.725 24.512c13.312 4.693 25.963 11.072 37.611 19.029l20.117-13.333c9.387-6.208 21.931-4.459 29.227 4.096l23.552 28.011c7.36 8.597 6.933 21.291-0.725 29.504l-16.277 17.28c5.952 12.608 10.261 25.941 12.821 39.595l22.208 4.523c11.008 2.219 18.624 12.395 17.707 23.595l-3.051 36.544zM799.467 89.301c-39.424-3.413-74.219 26.005-77.547 65.387-3.328 39.488 26.091 74.219 65.472 77.611 39.403 3.328 74.219-26.069 77.525-65.493 3.392-39.488-26.005-74.283-65.451-77.504zM666.965 155.605l-17.621 14.869c-5.419 4.587-13.419 4.352-18.581-0.491l-9.749-9.131c-8.213 4.011-16.96 6.763-25.963 8.448l-2.752 13.419c-1.344 6.955-7.829 11.776-14.869 11.179l-22.976-1.963c-7.083-0.619-12.651-6.379-12.864-13.504l-0.448-13.696c-8.832-3.136-17.195-7.552-24.832-13.035l-11.605 7.701c-5.931 3.947-13.824 2.837-18.389-2.581l-14.912-17.792c-4.565-5.419-4.352-13.419 0.533-18.539l10.176-10.88c-3.52-7.957-6.059-16.32-7.488-24.875l-14.549-2.987c-6.955-1.387-11.755-7.829-11.2-14.848l1.963-22.997c0.597-7.083 6.379-12.608 13.483-12.864l15.744-0.469c2.859-7.531 6.592-14.613 11.115-21.248l-8.789-13.248c-3.904-5.931-2.795-13.845 2.667-18.432l17.6-14.869c5.419-4.587 13.483-4.331 18.603 0.469l11.541 10.816c7.552-3.541 15.531-6.123 23.637-7.701l3.179-15.765c1.365-6.912 7.829-11.733 14.869-11.179l22.976 1.963c7.040 0.597 12.651 6.379 12.885 13.504l0.448 15.488c8.405 2.987 16.363 6.955 23.701 11.989l12.693-8.405c5.909-3.947 13.824-2.837 18.411 2.624l14.869 17.621c4.629 5.419 4.373 13.419-0.469 18.581l-10.219 10.88c3.797 7.915 6.528 16.363 8.043 24.96l13.995 2.901c6.912 1.344 11.755 7.765 11.157 14.848l-1.963 22.997c-0.576 7.083-6.379 12.587-13.504 12.821l-13.995 0.469c-2.923 8.171-6.827 15.872-11.755 23.040l7.637 11.499c4.096 5.867 3.029 13.824-2.432 18.411zM580.224 22.635c-24.832-2.155-46.784 16.448-48.853 41.28-2.133 24.832 16.448 46.763 41.28 48.875 24.832 2.133 46.784-16.405 48.853-41.28 2.112-24.875-16.427-46.827-41.28-48.875z" />
<glyph unicode="&#xe621;" d="M490.667 742.4h42.667v-245.333l4.267-2.133c10.667-6.4 19.2-14.933 23.467-25.6v-2.133h174.933v-42.667h-177.067l-2.133-2.133c-8.533-17.067-27.733-27.733-46.933-27.733-29.867 0-53.333 23.467-53.333 53.333 0 23.467 12.8 42.667 34.133 49.067h2.133v245.333zM512 896c-247.467 0-448-200.533-448-448s200.533-448 448-448c247.467 0 448 200.533 448 448s-200.533 448-448 448zM512 960c283.733 0 512-228.267 512-512s-228.267-512-512-512c-283.733 0-512 228.267-512 512s228.267 512 512 512z" />
<glyph unicode="&#xe622;" d="M458.667 275.2h108.8v-93.867h-108.8v93.867zM475.733 746.667h74.667l17.067-347.733h-108.8l17.067 347.733zM512 859.733c-228.267 0-411.733-183.467-411.733-411.733s183.467-411.733 411.733-411.733c228.267 0 411.733 183.467 411.733 411.733s-183.467 411.733-411.733 411.733zM512 960c281.6 0 512-230.4 512-512s-230.4-512-512-512c-281.6 0-512 230.4-512 512s230.4 512 512 512z" />
<glyph unicode="&#xe623;" d="M753.067 650.667l-320-281.6-151.467 177.067-87.467-74.667 228.267-264.533 407.467 356.267-76.8 87.467zM512 960c281.6 0 512-230.4 512-512s-230.4-512-512-512c-281.6 0-512 230.4-512 512s230.4 512 512 512z" />
<glyph unicode="&#xe624;" d="M512-64c-281.6 0-512 230.4-512 512s230.4 512 512 512c281.6 0 512-230.4 512-512s-228.267-512-512-512zM512 925.867c-262.4 0-477.867-213.333-477.867-477.867 0-262.4 213.333-477.867 477.867-477.867s477.867 213.333 477.867 477.867c0 264.533-213.333 477.867-477.867 477.867zM727.467 430.933h-430.933c-8.533 0-17.067 8.533-17.067 17.067s8.533 17.067 17.067 17.067h430.933c8.533 0 17.067-8.533 17.067-17.067s-6.4-17.067-17.067-17.067z" />
<glyph unicode="&#xe625;" d="M512-64c-281.6 0-512 230.4-512 512s230.4 512 512 512c281.6 0 512-230.4 512-512s-228.267-512-512-512zM512 925.867c-262.4 0-477.867-213.333-477.867-477.867 0-262.4 213.333-477.867 477.867-477.867s477.867 213.333 477.867 477.867c0 264.533-213.333 477.867-477.867 477.867zM727.467 430.933h-430.933c-8.533 0-17.067 8.533-17.067 17.067s8.533 17.067 17.067 17.067h430.933c8.533 0 17.067-8.533 17.067-17.067s-6.4-17.067-17.067-17.067zM512 215.467c-8.533 0-17.067 8.533-17.067 17.067v430.933c0 8.533 8.533 17.067 17.067 17.067s17.067-8.533 17.067-17.067v-430.933c0-8.533-6.4-17.067-17.067-17.067z" />
<glyph unicode="&#xe626;" d="M880.021 960c-79.531 0-143.979-64.469-143.979-144 0-72.256 53.269-131.883 122.645-142.208v-204.459h-117.184l-218.325 218.283c-6.187 6.187-16.213 6.187-22.379 0l-220.075-220.053-158.080 0.021v-245.355c-69.376-10.347-122.645-70.016-122.645-142.272 0-79.509 64.448-143.957 143.979-143.957s143.979 64.448 143.979 143.957c0 72.256-53.269 131.925-122.645 142.251v202.667h118.976l216.512-216.491c6.165-6.165 16.192-6.165 22.379 0l218.325 218.283 159.851-0.021v247.147c69.376 10.325 122.645 69.952 122.645 142.208 0 79.531-64.448 144-143.979 144zM261.781 78.656c0-65.301-52.928-118.208-118.208-118.208-65.301 0-118.229 52.907-118.229 118.208s52.928 118.229 118.229 118.229c65.28 0 118.208-52.949 118.208-118.229zM881.813 697.771c-65.301 0-118.229 52.928-118.229 118.229s52.928 118.229 118.229 118.229c65.28 0 118.208-52.928 118.208-118.229s-52.928-118.229-118.208-118.229z" />
<glyph unicode="&#xe627;" d="M864.299 314.816v86.293h0.235v60.843h-319.552v119.275c90.475 14.592 159.659 92.843 159.659 187.456 0 104.981-85.077 190.101-190.101 190.101-104.981 0-190.101-85.12-190.101-190.101 0-94.613 69.184-172.864 159.68-187.456v-119.275h-324.181v-30.421h-0.235v-116.117h4.16c-92.501-12.8-163.861-92.032-163.861-188.075 0-104.981 85.12-190.101 190.123-190.101s190.101 85.12 190.101 190.101c0 96.043-71.317 175.275-163.883 188.053h4.181v85.717h582.955v-86.293c-90.453-14.635-159.68-92.864-159.68-187.456 0-104.981 85.12-190.101 190.101-190.101 105.045 0 190.101 85.12 190.101 190.101 0 94.613-69.163 172.864-159.701 187.456zM337.28 126.699c0-81.707-66.219-147.968-147.968-147.968-81.707 0-147.968 66.24-147.968 147.968s66.261 147.989 147.968 147.989c81.771 0 147.968-66.261 147.968-147.989zM366.699 769.365c0 81.707 66.261 147.968 147.968 147.968 81.749 0 147.968-66.261 147.968-147.968 0-81.728-66.219-147.989-147.968-147.989-81.707 0-147.968 66.261-147.968 147.989zM835.541-21.248c-81.707 0-147.968 66.24-147.968 147.968s66.24 147.989 147.968 147.989c81.749 0 147.968-66.261 147.968-147.989s-66.219-147.968-147.968-147.968z" />
<glyph unicode="&#xe628;" d="M673.771 959.616h-39.168l-0.192 0.171v-0.171h-458.944c-29.077 0-52.757-23.659-52.757-52.757v-917.909c0-29.077 23.659-52.757 52.757-52.757h673.088c29.077 0 52.757 23.659 52.757 52.757v752.533l-227.541 218.133zM848.533-33.195h-673.067c-12.224 0-22.144 9.941-22.144 22.144v917.931c0 12.181 9.92 22.144 22.144 22.144h458.965v-174.592c0-27.776 22.613-50.368 50.368-50.368h185.899v-715.115c-0.021-12.203-9.941-22.144-22.165-22.144z" />
<glyph unicode="&#xe629;" d="M2.773 148.928l-1.109 465.387c-0.043 22.912 23.36 38.379 44.395 29.376l423.659-181.12c11.712-4.992 19.307-16.469 19.349-29.205l1.088-465.387c0.064-22.891-23.339-38.379-44.395-29.376l-423.659 181.099c-11.691 5.013-19.307 16.512-19.328 29.227zM973.483 592.427l-390.976-169.344 1.045-430.677 390.955 169.323-1.024 430.699zM989.291 648.555c16.811 0.043 31.872-13.461 31.915-31.829l1.131-465.387c0.021-12.736-7.552-24.277-19.2-29.312l-422.784-183.125c-4.181-1.792-8.448-2.645-12.629-2.667-16.789-0.043-31.872 13.483-31.915 31.829l-1.131 465.365c-0.021 12.757 7.552 24.277 19.2 29.333l422.805 183.104c4.203 1.835 8.448 2.688 12.608 2.688v0zM508.907 910.699l-405.568-181.077 406.421-179.157 405.589 181.077-406.443 179.157zM508.8 960c4.416 0 8.811-0.896 12.907-2.709l445.76-196.501c25.301-11.136 25.365-46.997 0.149-58.261l-444.821-198.613c-4.096-1.835-8.491-2.752-12.907-2.773s-8.811 0.896-12.907 2.709l-445.803 196.523c-25.28 11.136-25.344 46.997-0.128 58.261l444.821 198.613c4.117 1.813 8.512 2.752 12.928 2.752v0z" />
<glyph unicode="&#xe62a;" d="M0 448c0-28.821 23.381-52.16 52.181-52.16h84.245v104.341h-84.245c-28.8-0.021-52.181-23.36-52.181-52.181zM0 617.579c0-28.821 23.381-52.181 52.181-52.181h84.245v104.363h-84.245c-28.8 0-52.181-23.381-52.181-52.181zM1024 617.685c0 28.8-23.381 52.075-52.16 52.075h-84.245v-104.256h84.245c28.779 0 52.16 23.381 52.16 52.181zM290.24-11.84c0-28.8 23.381-52.16 52.181-52.16 28.821 0 52.181 23.381 52.181 52.16v84.245h-104.363v-84.245zM0 278.421c0-28.821 23.381-52.181 52.181-52.181h84.245v104.256h-84.245c-28.8-0.021-52.181-23.275-52.181-52.075zM459.819-11.84c0-28.779 23.36-52.16 52.181-52.16s52.181 23.381 52.181 52.16v84.245h-104.363v-84.245zM733.781 907.819c0 28.8-23.381 52.181-52.203 52.181s-52.053-23.381-52.053-52.181v-84.245h104.256v84.245zM564.181 907.819c0 28.8-23.36 52.181-52.181 52.181s-52.181-23.381-52.181-52.181v-84.245h104.363v84.245zM394.496 907.819c0 28.8-23.381 52.181-52.181 52.181s-52.075-23.381-52.075-52.181v-84.245h104.256v84.245zM971.84 330.475h-84.245v-104.256h84.245c28.8 0 52.16 23.381 52.16 52.181s-23.381 52.075-52.16 52.075zM783.104 773.461h-542.208c-29.995 0-54.336-24.341-54.336-54.336v-542.229c0-29.995 24.341-54.357 54.336-54.357h542.229c29.995 0 54.357 24.363 54.357 54.357v542.208c-0.021 30.016-24.384 54.357-54.379 54.357zM414.976 345.472l-17.216 57.28h-64.235l-15.552-57.28h-52.309l68.203 223.125h65.877l69.525-223.125h-54.293zM639.168 447.765c-17.237-15.893-43.051-23.509-72.832-23.509-6.635 0-12.587 0.341-17.237 1.344v-80.128h-49.984v220.16c15.552 2.645 37.397 4.629 68.181 4.629 31.125 0 53.653-5.952 68.544-18.197 14.229-10.923 23.509-29.461 23.509-51.328 0-22.165-6.955-40.725-20.181-52.971zM742.165 345.472h-50.304v223.147h50.304v-223.147zM971.84 500.16h-84.245v-104.341h84.245c28.779 0.021 52.16 23.36 52.16 52.181s-23.381 52.16-52.16 52.16zM569.963 531.861c-10.24 0-17.216-0.661-20.864-1.664v-65.877c4.309-0.981 9.6-1.323 16.896-1.323 26.816 0 43.349 13.568 43.349 36.075 0 20.544-13.888 32.789-39.381 32.789zM629.632-11.84h-0.107c0-28.8 23.36-52.16 52.16-52.16s52.181 23.381 52.181 52.16v84.245h-104.256v-84.245zM365.312 530.88h-0.981c-2.987-13.248-6.635-30.144-9.92-43.051l-13.568-47.339h49.323l-13.909 47.339c-3.669 13.248-7.637 30.123-10.944 43.051z" />
<glyph unicode="&#xe62b;" d="M1024 448c0-281.6-230.4-512-512-512s-512 230.4-512 512 230.4 512 512 512c283.733 0 512-228.267 512-512zM34.133 448c0-262.4 213.333-477.867 477.867-477.867 262.4 0 477.867 213.333 477.867 477.867 0 262.4-213.333 477.867-477.867 477.867-262.4 0-477.867-213.333-477.867-477.867zM776.533 345.6c0-6.4-2.133-12.8-6.4-17.067-10.667-10.667-25.6-10.667-36.267 0l-228.267 228.267-228.267-228.267c-10.667-10.667-25.6-10.667-36.267 0s-10.667 25.6 0 36.267l245.333 245.333c10.667 10.667 25.6 10.667 36.267 0l245.333-245.333c4.267-6.4 8.533-12.8 8.533-19.2z" />
<glyph unicode="&#xe62c;" d="M512-64c-281.6 0-512 230.4-512 512s230.4 512 512 512c281.6 0 512-230.4 512-512s-228.267-512-512-512zM512 925.867c-262.4 0-477.867-213.333-477.867-477.867 0-262.4 213.333-477.867 477.867-477.867 262.4 0 477.867 213.333 477.867 477.867s-213.333 477.867-477.867 477.867zM409.6 185.6c-6.4 0-12.8 2.133-17.067 6.4-10.667 10.667-10.667 25.6 0 36.267l228.267 228.267-228.267 228.267c-10.667 10.667-10.667 25.6 0 36.267s25.6 10.667 36.267 0l245.333-245.333c10.667-10.667 10.667-25.6 0-36.267l-245.333-245.333c-6.4-6.4-12.8-8.533-19.2-8.533z" />
<glyph unicode="&#xe62d;" d="M512 960c281.6 0 512-230.4 512-512s-230.4-512-512-512c-281.6 0-512 230.4-512 512s230.4 512 512 512zM512-29.867c262.4 0 477.867 213.333 477.867 477.867 0 262.4-213.333 477.867-477.867 477.867-262.4 0-477.867-213.333-477.867-477.867 0-262.4 215.467-477.867 477.867-477.867zM614.4 712.533c6.4 0 12.8-2.133 17.067-6.4 10.667-10.667 10.667-25.6 0-36.267l-228.267-228.267 228.267-228.267c10.667-10.667 10.667-25.6 0-36.267s-25.6-10.667-36.267 0l-245.333 245.333c-10.667 10.667-10.667 25.6 0 36.267l245.333 245.333c6.4 4.267 12.8 8.533 19.2 8.533z" />
<glyph unicode="&#xe62e;" d="M0 448c0 281.6 230.4 512 512 512s512-230.4 512-512-230.4-512-512-512c-281.6 0-512 230.4-512 512zM989.867 448c0 262.4-213.333 477.867-477.867 477.867-262.4 0-477.867-213.333-477.867-477.867 0-262.4 213.333-477.867 477.867-477.867s477.867 215.467 477.867 477.867zM249.6 550.4c0 6.4 2.133 12.8 6.4 17.067 10.667 10.667 25.6 10.667 36.267 0l228.267-228.267 228.267 228.267c10.667 10.667 25.6 10.667 36.267 0s10.667-25.6 0-36.267l-245.333-245.333c-10.667-10.667-25.6-10.667-36.267 0l-245.333 245.333c-6.4 6.4-8.533 12.8-8.533 19.2z" />
<glyph unicode="&#xe62f;" d="M0.886 204.8h1024v-268.8h-1024v268.8zM0.886 582.4h1024v-268.8h-1024v268.8zM0.886 960h1024v-268.8h-1024v268.8z" />
<glyph unicode="&#xe630;" d="M640 591.635l-243.2-264.533c0 0 168.533-256 189.867-309.333l68.267 40.533c0 0-49.067 93.867-76.8 117.333 0 0-25.6 36.267 19.2 23.467 0 0 102.4-85.333 117.333-93.867l68.267 61.867c0 0-8.533 21.333-23.467 38.4l-81.067 91.733c0 0-14.933 29.867 17.067 19.2 0 0 85.333-68.267 142.933-87.467l53.333 72.533c0 0-100.267 96-106.667 113.067 0 0-17.067 14.933 8.533 19.2 0 0 102.4-70.4 138.667-66.133 0 0 32 59.733 29.867 64 0-2.133-275.2 128-322.133 160zM631.467 668.435c93.867-83.2 345.6-181.333 345.6-181.333 70.4-17.067 40.533-74.667 40.533-74.667-121.6-288-409.6-445.867-409.6-445.867-51.2-36.267-74.667 40.533-74.667 40.533-59.733 117.333-206.933 322.133-206.933 322.133l305.067 339.2zM59.733 939.368c4.267 0 8.533-2.133 12.8-4.267l279.467-253.867c2.133-2.133 4.267-6.4 4.267-8.533l61.867 68.267c51.2 29.867 96 4.267 96 4.267l72.533-53.333-296.533-322.133-51.2 70.4c-32 66.133 4.267 108.8 4.267 108.8l51.2 57.6c-4.267 0-6.4 2.133-10.667 4.267l-279.467 253.867c-6.4 6.4-6.4 17.067-2.133 23.467l42.667 46.933c6.4 2.133 10.667 4.267 14.933 4.267z" />
<glyph unicode="&#xe631;" d="M46.933 218.645c125.867 0 249.6-78.933 296.533-113.067l-12.8-153.6-328.533 136.533 34.133 132.267c2.133-2.133 6.4-2.133 10.667-2.133zM704 248.512c187.733-142.933 292.267-155.733 300.8-157.867l19.2-123.733-313.6 102.4v10.667l-6.4 168.533zM646.4 257.045l8.533-179.2v-10.667l-270.933-115.2 12.8 153.6 249.6 151.467zM522.667 361.579v-115.2l-117.333-74.667 12.8 149.333 104.533 40.533zM957.867 385.045l36.267-228.267c-42.667 2.133-119.467 46.933-187.733 91.733 44.8 132.267 149.333 136.533 151.467 136.533zM270.933 579.179l110.933-40.533v-6.4l-12.8-138.667c-157.867 78.933-104.533 177.067-98.133 185.6zM142.933 626.112l72.533-25.6c-66.133-142.933 85.333-241.067 149.333-273.067l-14.933-160c-247.467 155.733-296.533 110.933-296.533 110.933l-6.4-19.2 96 366.933zM631.467 628.245l12.8-305.067-64-40.533-2.133 128c-4.267 27.733-38.4 23.467-38.4 23.467l-117.333-44.8 12.8 138.667 2.133 12.8 194.133 87.467zM686.933 630.379l53.333-17.067 32-117.333 17.067-64 40.533 53.333 57.6 78.933 46.933-14.933 14.933-102.4c-147.2-19.2-196.267-160-196.267-160l6.4-4.267c-23.467 17.067-42.667 29.867-57.6 42.667l-14.933 305.067zM859.733 875.712c-32 0-61.867-23.467-68.267-57.6-6.4-38.4 17.067-74.667 55.467-81.067s74.667 17.067 81.067 55.467c6.4 38.4-17.067 74.667-55.467 81.067-4.267 2.133-8.533 2.133-12.8 2.133zM861.867 946.112c8.533 0 14.933 0 23.467-2.133 72.533-12.8 121.6-85.333 108.8-157.867-4.267-25.6-17.067-49.067-34.133-66.133l-76.8-106.667-78.933-108.8-34.133 130.133-34.133 128c-8.533 23.467-10.667 49.067-6.4 74.667 10.667 64 68.267 108.8 132.267 108.8z" />
<glyph unicode="&#xe632;" d="M100.267 960h823.467c55.467 0 100.267-42.667 100.267-96v-541.867c0-51.2-44.8-93.867-100.267-93.867h-232.533l-452.267-292.267 104.533 290.133h-243.2c-55.467 0-100.267 44.8-100.267 93.867v541.867c0 55.467 44.8 98.133 100.267 98.133z" />
<glyph unicode="&#xe633;" d="M573.867 390.512c10.667 0 21.333-4.267 29.867-12.8l104.533-104.533c17.067-17.067 17.067-42.667 0-57.6l-42.667-40.533-164.267 164.267 40.533 42.667c10.667 4.267 21.333 8.533 32 8.533zM731.733 569.712c38.4 0 68.267-29.867 68.267-68.267s-29.867-68.267-68.267-68.267c-38.4 0-68.267 29.867-68.267 68.267s29.867 68.267 68.267 68.267zM64 733.979l164.267-164.267c-57.6-57.6-32-119.467 23.467-172.8l57.6-57.6c53.333-53.333 115.2-81.067 172.8-23.467l164.267-164.267-6.4-6.4c-102.4-102.4-258.133-57.6-381.867 68.267l-134.4 134.4c-123.733 123.733-170.667 279.467-68.267 381.867l8.533 4.267zM910.933 789.446c61.867 0 113.067-51.2 113.067-113.067s-51.2-113.067-113.067-113.067c-61.867 0-113.067 51.2-113.067 113.067s51.2 113.067 113.067 113.067zM153.6 808.646c10.667 0 21.333-4.267 29.867-12.8l104.533-104.533c17.067-17.067 17.067-42.667 0-57.6l-40.533-40.533-164.267 164.267 42.667 40.533c6.4 6.4 17.067 10.667 27.733 10.667z" />
<glyph unicode="&#xe634;" d="M509.867 665.327c-59.733 0-108.8-49.067-108.8-108.8 0-40.533 23.467-76.8 57.6-93.867v-196.267c0-27.733 23.467-51.2 51.2-51.2s51.2 23.467 51.2 51.2v196.267c34.133 19.2 57.6 53.333 57.6 93.867 0 59.733-49.067 108.8-108.8 108.8zM151.467 754.927h721.067v-614.4h-721.067v614.4zM108.8 797.594v-699.733h806.4v699.733h-806.4zM38.4 895.727h949.333c21.333 0 38.4-17.067 38.4-38.4v-819.2c0-21.333-17.067-38.4-38.4-38.4h-949.333c-21.333 0-38.4 17.067-38.4 38.4v819.2c0 21.333 17.067 38.4 38.4 38.4z" />
<glyph unicode="&#xe635;" d="M511.256 928c-32 0-57.6-27.733-57.6-64 0-2.133 0-6.4 0-8.533v-2.133l10.667 2.133c12.8 2.133 25.6 2.133 38.4 2.133 17.067 0 36.267-2.133 53.333-4.267l8.533-2.133v4.267c0 2.133 0 6.4 0 8.533 4.267 36.267-21.333 64-53.333 64zM511.256 960c46.933 0 85.333-42.667 85.333-96 0-6.4 0-12.8-2.133-17.067h-6.4l6.4-2.133c102.4-27.733 179.2-104.533 179.2-194.133 0-27.733-6.4-53.333-19.2-76.8-8.533-85.333-6.4-219.733 61.867-279.467 106.667-93.867 76.8-164.267 64-189.867h-354.133v-74.667l4.267-2.133c17.067-6.4 29.867-23.467 29.867-42.667 0-25.6-21.333-46.933-46.933-46.933s-46.933 21.333-46.933 46.933c0 19.2 12.8 36.267 29.867 42.667l4.267 2.133v74.667h-358.4c-12.8 23.467-40.533 93.867 64 189.867 76.8 68.267 70.4 224 59.733 305.067-4.267 17.067-8.533 34.133-8.533 51.2 0 89.6 64 164.267 162.133 194.133l10.667 2.133v4.267c0 4.267 0 8.533 0 12.8-4.267 53.333 34.133 96 81.067 96z" />
<glyph unicode="&#xe636;" d="M516.267 258.296c34.133 0 64-27.733 64-64 0-34.133-27.733-64-64-64-34.133 0-64 27.733-64 64s27.733 64 64 64zM516.267 426.829c102.4 0 189.867-68.267 219.733-162.133l-59.733-36.267c-14.933 74.667-81.067 132.267-160 132.267-81.067 0-147.2-57.6-162.133-134.4l-59.733 36.267c27.733 93.867 115.2 164.267 221.867 164.267zM512 595.363c164.267 0 305.067-98.133 366.933-241.067l-55.467-34.133c-49.067 123.733-170.667 211.2-311.467 211.2-142.933 0-264.533-87.467-313.6-213.333l-55.467 34.133c64 142.933 204.8 243.2 369.067 243.2zM512 763.896c224 0 418.133-130.133 512-320l-59.733-36.267c-78.933 168.533-251.733 285.867-452.267 285.867s-373.333-119.467-452.267-290.133l-59.733 36.267c91.733 192 285.867 324.267 512 324.267z" />
<glyph unicode="&#xe637;" d="M512 572.060c100.267 0 179.2-81.067 179.2-179.2s-81.067-179.2-179.2-179.2c-100.267 0-179.2 81.067-179.2 179.2s78.933 179.2 179.2 179.2zM512 655.26c-145.067 0-264.533-117.333-264.533-264.533 0-145.067 117.333-264.533 264.533-264.533 145.067 0 264.533 117.333 264.533 264.533s-119.467 264.533-264.533 264.533zM0 783.26h298.667v-2.133h426.667v2.133h298.667v-782.933h-1024v782.933zM298.667 896.327h426.667v-113.067h-426.667v113.067z" />
<glyph unicode="&#xe638;" d="M379.733 198.611h644.267v-258.133h-644.267v258.133zM0 198.611h268.8v-258.133h-268.8v258.133zM379.733 576.211h644.267v-258.133h-644.267v258.133zM0 576.211h268.8v-258.133h-268.8v258.133zM379.733 955.944h644.267v-258.133h-644.267v258.133zM0 955.944h268.8v-258.133h-268.8v258.133z" />
<glyph unicode="&#xe639;" d="M768 192h256v-256h-256v256zM384 192h256v-256h-256v256zM0 192h256v-256h-256v256zM768 576h256v-256h-256v256zM384 576h256v-256h-256v256zM0 576h256v-256h-256v256zM768 960h256v-256h-256v256zM384 960h256v-256h-256v256zM0 960h256v-256h-256v256z" />
<glyph unicode="&#xe63a;" d="M576 192h256v-256h-256v256zM192 192h256v-256h-256v256zM576 576h256v-256h-256v256zM192 576h256v-256h-256v256zM576 960h256v-256h-256v256zM192 960h256v-256h-256v256z" />
</font>
</defs>
</svg>
