<?xml version="1.0" encoding="utf-8"?>

<!--
 * Copyright (c) 2015, WSO2 Inc. (http://www.wso2.org) All Rights Reserved.
 *
 * WSO2 Inc. licenses this file to you under the Apache License,
 * Version 2.0 (the "License"); you may not use this file except
 * in compliance with the License.
 * You may obtain a copy of the License at
 *
 * http://www.apache.org/licenses/LICENSE-2.0
 *
 * Unless required by applicable law or agreed to in writing,
 * software distributed under the License is distributed on an
 * "AS IS" BASIS, WITHOUT WARRANTIES OR CONDITIONS OF ANY
 * KIND, either express or implied. See the License for the
 * specific language governing permissions and limitations
 * under the License.
-->

<svg version="1.1" id="Layer_1" xmlns="http://www.w3.org/2000/svg" xmlns:xlink="http://www.w3.org/1999/xlink" x="0px" y="0px"
	 viewBox="282 372 48 48" enable-background="new 282 372 48 48" xml:space="preserve">
<g>
	<g transform="translate(5.96512556232274,0)">
		<path id="path1" d="M300,373.5c-1.5,0-2.7,1.3-2.7,3c0,0.1,0,0.3,0,0.4l0,0.1l0.5-0.1c0.6-0.1,1.2-0.1,1.8-0.1
			c0.8,0,1.7,0.1,2.5,0.2l0.4,0.1l0-0.2c0-0.1,0-0.3,0-0.4C302.7,374.8,301.5,373.5,300,373.5z M300,372c2.2,0,4,2,4,4.5
			c0,0.3,0,0.6-0.1,0.8h-0.3l0.3,0.1c4.8,1.3,8.4,4.9,8.4,9.1c0,1.3-0.3,2.5-0.9,3.6c-0.4,4-0.3,10.3,2.9,13.1c5,4.4,3.6,7.7,3,8.9
			H302h-1.3v3.5l0.2,0.1c0.8,0.3,1.4,1.1,1.4,2c0,1.2-1,2.2-2.2,2.2c-1.2,0-2.2-1-2.2-2.2c0-0.9,0.6-1.7,1.4-2l0.2-0.1v-3.5h-1.3
			h-15.5c-0.6-1.1-1.9-4.4,3-8.9c3.6-3.2,3.3-10.5,2.8-14.3c-0.2-0.8-0.4-1.6-0.4-2.4c0-4.2,3-7.7,7.6-9.1l0.5-0.1l0-0.2
			c0-0.2,0-0.4,0-0.6C296,374,297.8,372,300,372z"/>
	</g>
</g>
</svg>
