<?xml version="1.0" encoding="utf-8"?>
<!-- Generator: Adobe Illustrator 18.1.1, SVG Export Plug-In . SVG Version: 6.00 Build 0)  -->
<svg version="1.1" id="block" xmlns="http://www.w3.org/2000/svg" xmlns:xlink="http://www.w3.org/1999/xlink" x="0px" y="0px"
	 viewBox="0 0 14 14" enable-background="new 0 0 14 14" xml:space="preserve">
<path d="M7,0C3.15,0,0,3.15,0,7s3.15,7,7,7s7-3.15,7-7S10.85,0,7,0z M1.4,7c0-3.08,2.52-5.6,5.6-5.6c1.26,0,2.45,0.42,3.43,1.19
	l-7.84,7.84C1.82,9.45,1.4,8.26,1.4,7z M7,12.6c-1.26,0-2.45-0.42-3.43-1.19l7.84-7.84C12.18,4.55,12.6,5.74,12.6,7
	C12.6,10.08,10.08,12.6,7,12.6z"/>
</svg>
