<?xml version="1.0" encoding="utf-8"?>

<!--
 * Copyright (c) 2015, WSO2 Inc. (http://www.wso2.org) All Rights Reserved.
 *
 * WSO2 Inc. licenses this file to you under the Apache License,
 * Version 2.0 (the "License"); you may not use this file except
 * in compliance with the License.
 * You may obtain a copy of the License at
 *
 * http://www.apache.org/licenses/LICENSE-2.0
 *
 * Unless required by applicable law or agreed to in writing,
 * software distributed under the License is distributed on an
 * "AS IS" BASIS, WITHOUT WARRANTIES OR CONDITIONS OF ANY
 * KIND, either express or implied. See the License for the
 * specific language governing permissions and limitations
 * under the License.
-->

<svg version="1.1" id="circle-add" xmlns="http://www.w3.org/2000/svg" xmlns:xlink="http://www.w3.org/1999/xlink" x="0px" y="0px"
	 viewBox="282 372 48 48" enable-background="new 282 372 48 48" xml:space="preserve">
<g>
	<path d="M323,413c-9.3,9.3-24.6,9.3-34,0c-9.3-9.3-9.3-24.6,0-34c9.3-9.3,24.6-9.3,34,0S332.4,403.6,323,413z M290.1,380.1
		c-8.7,8.7-8.8,22.9,0,31.7c8.7,8.7,22.9,8.8,31.7,0c8.8-8.8,8.8-22.9,0-31.7C313.1,371.4,298.9,371.4,290.1,380.1z"/>
	<g>
		<path d="M313.7,389.4l-14.3,14.3c-0.3,0.3-0.8,0.3-1.1,0c-0.3-0.3-0.3-0.8,0-1.1l14.3-14.3c0.3-0.3,0.8-0.3,1.1,0
			C314,388.6,314.1,389.1,313.7,389.4z"/>
	</g>
	<g>
		<path d="M313.7,403.7c-0.3,0.3-0.8,0.3-1.1,0l-14.3-14.3c-0.3-0.3-0.3-0.8,0-1.1s0.8-0.3,1.1,0l14.3,14.3
			C314,402.9,314.1,403.4,313.7,403.7z"/>
	</g>
</g>
</svg>
