<?xml version="1.0" encoding="utf-8"?>

<!--
 * Copyright (c) 2015, WSO2 Inc. (http://www.wso2.org) All Rights Reserved.
 *
 * WSO2 Inc. licenses this file to you under the Apache License,
 * Version 2.0 (the "License"); you may not use this file except
 * in compliance with the License.
 * You may obtain a copy of the License at
 *
 * http://www.apache.org/licenses/LICENSE-2.0
 *
 * Unless required by applicable law or agreed to in writing,
 * software distributed under the License is distributed on an
 * "AS IS" BASIS, WITHOUT WARRANTIES OR CONDITIONS OF ANY
 * KIND, either express or implied. See the License for the
 * specific language governing permissions and limitations
 * under the License.
-->

<svg version="1.1" id="circle-right-arrow" xmlns="http://www.w3.org/2000/svg" xmlns:xlink="http://www.w3.org/1999/xlink" x="0px"
	 y="0px" viewBox="-284.9 372.9 48 48" enable-background="new -284.9 372.9 48 48" xml:space="preserve">
<g>
	<path d="M-260.9,420.9c-13.2,0-24-10.8-24-24s10.8-24,24-24c13.2,0,24,10.8,24,24S-247.6,420.9-260.9,420.9z M-260.9,374.5
		c-12.3,0-22.4,10-22.4,22.4c0,12.3,10,22.4,22.4,22.4c12.3,0,22.4-10,22.4-22.4C-238.5,384.5-248.5,374.5-260.9,374.5z"/>
	<path d="M-265.7,409.2c-0.3,0-0.6-0.1-0.8-0.3c-0.5-0.5-0.5-1.2,0-1.7l10.7-10.7l-10.7-10.7c-0.5-0.5-0.5-1.2,0-1.7
		c0.5-0.5,1.2-0.5,1.7,0l11.5,11.5c0.5,0.5,0.5,1.2,0,1.7l-11.5,11.5C-265.1,409.1-265.4,409.2-265.7,409.2z"/>
</g>
</svg>
