<?xml version="1.0" encoding="utf-8"?>

<!--
 * Copyright (c) 2015, WSO2 Inc. (http://www.wso2.org) All Rights Reserved.
 *
 * WSO2 Inc. licenses this file to you under the Apache License,
 * Version 2.0 (the "License"); you may not use this file except
 * in compliance with the License.
 * You may obtain a copy of the License at
 *
 * http://www.apache.org/licenses/LICENSE-2.0
 *
 * Unless required by applicable law or agreed to in writing,
 * software distributed under the License is distributed on an
 * "AS IS" BASIS, WITHOUT WARRANTIES OR CONDITIONS OF ANY
 * KIND, either express or implied. See the License for the
 * specific language governing permissions and limitations
 * under the License.
-->

<svg version="1.1" id="circle-up-arrow" xmlns="http://www.w3.org/2000/svg" xmlns:xlink="http://www.w3.org/1999/xlink" x="0px"
	 y="0px" viewBox="-284.9 372.9 48 48" enable-background="new -284.9 372.9 48 48" xml:space="preserve">
<g>
	<path d="M-236.9,396.9c0,13.2-10.8,24-24,24c-13.2,0-24-10.8-24-24s10.8-24,24-24C-247.6,372.9-236.9,383.6-236.9,396.9z
		 M-283.3,396.9c0,12.3,10,22.4,22.4,22.4c12.3,0,22.4-10,22.4-22.4c0-12.3-10-22.4-22.4-22.4C-273.2,374.5-283.3,384.5-283.3,396.9
		z"/>
	<path d="M-248.5,401.7c0,0.3-0.1,0.6-0.3,0.8c-0.5,0.5-1.2,0.5-1.7,0l-10.7-10.7l-10.7,10.7c-0.5,0.5-1.2,0.5-1.7,0
		c-0.5-0.5-0.5-1.2,0-1.7l11.5-11.5c0.5-0.5,1.2-0.5,1.7,0l11.5,11.5C-248.7,401.1-248.5,401.4-248.5,401.7z"/>
</g>
</svg>
