<?xml version="1.0" encoding="utf-8"?>

<!--
 * Copyright (c) 2015, WSO2 Inc. (http://www.wso2.org) All Rights Reserved.
 *
 * WSO2 Inc. licenses this file to you under the Apache License,
 * Version 2.0 (the "License"); you may not use this file except
 * in compliance with the License.
 * You may obtain a copy of the License at
 *
 * http://www.apache.org/licenses/LICENSE-2.0
 *
 * Unless required by applicable law or agreed to in writing,
 * software distributed under the License is distributed on an
 * "AS IS" BASIS, WITHOUT WARRANTIES OR CONDITIONS OF ANY
 * KIND, either express or implied. See the License for the
 * specific language governing permissions and limitations
 * under the License.
-->

<svg version="1.1" id="cancel" xmlns="http://www.w3.org/2000/svg" xmlns:xlink="http://www.w3.org/1999/xlink" x="0px" y="0px"
	 viewBox="-0.034 0 14.034 14" enable-background="new -0.034 0 14.034 14" xml:space="preserve">
<path d="M7.937,7l5.83-5.83c0.353-0.265,0.265-0.707,0-0.972c-0.265-0.265-0.707-0.265-0.972,0l-5.83,5.83l-5.829-5.83
	c-0.265-0.265-0.707-0.265-0.972,0s-0.265,0.707,0,0.972L5.994,7l-5.829,5.829c-0.265,0.265-0.265,0.707,0,0.972
	c0.265,0.265,0.707,0.265,0.972,0l5.829-5.829l5.83,5.83c0.265,0.265,0.707,0.265,0.972,0c0.353-0.265,0.265-0.707,0-0.972L7.937,7z
	"/>
</svg>
