<?xml version="1.0" encoding="utf-8"?>
<!-- Generator: Adobe Illustrator 18.1.1, SVG Export Plug-In . SVG Version: 6.00 Build 0)  -->
<svg version="1.1" id="cancel" xmlns="http://www.w3.org/2000/svg" xmlns:xlink="http://www.w3.org/1999/xlink" x="0px" y="0px"
	 viewBox="-0.034 0 14.034 14" enable-background="new -0.034 0 14.034 14" xml:space="preserve">
<path d="M7.937,7l5.83-5.83c0.353-0.265,0.265-0.707,0-0.972c-0.265-0.265-0.707-0.265-0.972,0l-5.83,5.83l-5.829-5.83
	c-0.265-0.265-0.707-0.265-0.972,0s-0.265,0.707,0,0.972L5.994,7l-5.829,5.829c-0.265,0.265-0.265,0.707,0,0.972
	c0.265,0.265,0.707,0.265,0.972,0l5.829-5.829l5.83,5.83c0.265,0.265,0.707,0.265,0.972,0c0.353-0.265,0.265-0.707,0-0.972L7.937,7z
	"/>
</svg>
