<?xml version="1.0" encoding="utf-8"?>

<!--
 * Copyright (c) 2015, WSO2 Inc. (http://www.wso2.org) All Rights Reserved.
 *
 * WSO2 Inc. licenses this file to you under the Apache License,
 * Version 2.0 (the "License"); you may not use this file except
 * in compliance with the License.
 * You may obtain a copy of the License at
 *
 * http://www.apache.org/licenses/LICENSE-2.0
 *
 * Unless required by applicable law or agreed to in writing,
 * software distributed under the License is distributed on an
 * "AS IS" BASIS, WITHOUT WARRANTIES OR CONDITIONS OF ANY
 * KIND, either express or implied. See the License for the
 * specific language governing permissions and limitations
 * under the License.
-->

<svg version="1.1" id="circle-down-arrow" xmlns="http://www.w3.org/2000/svg" xmlns:xlink="http://www.w3.org/1999/xlink" x="0px"
	 y="0px" viewBox="-284.9 372.9 48 48" enable-background="new -284.9 372.9 48 48" xml:space="preserve">
<g>
	<path d="M-284.9,396.9c0-13.2,10.8-24,24-24c13.2,0,24,10.8,24,24s-10.8,24-24,24C-274.1,420.9-284.9,410.1-284.9,396.9z
		 M-238.5,396.9c0-12.3-10-22.4-22.4-22.4c-12.3,0-22.4,10-22.4,22.4c0,12.3,10,22.4,22.4,22.4
		C-248.5,419.3-238.5,409.2-238.5,396.9z"/>
	<path d="M-273.2,392.1c0-0.3,0.1-0.6,0.3-0.8c0.5-0.5,1.2-0.5,1.7,0l10.7,10.7l10.7-10.7c0.5-0.5,1.2-0.5,1.7,0
		c0.5,0.5,0.5,1.2,0,1.7l-11.5,11.5c-0.5,0.5-1.2,0.5-1.7,0l-11.5-11.5C-273.1,392.7-273.2,392.4-273.2,392.1z"/>
</g>
</svg>
