<?xml version="1.0" encoding="utf-8"?>

<!--
 * Copyright (c) 2015, WSO2 Inc. (http://www.wso2.org) All Rights Reserved.
 *
 * WSO2 Inc. licenses this file to you under the Apache License,
 * Version 2.0 (the "License"); you may not use this file except
 * in compliance with the License.
 * You may obtain a copy of the License at
 *
 * http://www.apache.org/licenses/LICENSE-2.0
 *
 * Unless required by applicable law or agreed to in writing,
 * software distributed under the License is distributed on an
 * "AS IS" BASIS, WITHOUT WARRANTIES OR CONDITIONS OF ANY
 * KIND, either express or implied. See the License for the
 * specific language governing permissions and limitations
 * under the License.
-->

<svg version="1.1" id="circle-minus" xmlns="http://www.w3.org/2000/svg" xmlns:xlink="http://www.w3.org/1999/xlink" x="0px"
	 y="0px" viewBox="-284.9 372.9 48 48" enable-background="new -284.9 372.9 48 48" xml:space="preserve">
<g>
	<path d="M-260.9,420.9c-13.2,0-24-10.8-24-24c0-13.2,10.8-24,24-24c13.2,0,24,10.8,24,24S-247.6,420.9-260.9,420.9z M-260.9,374.5
		c-12.3,0-22.4,10-22.4,22.4c0,12.3,10,22.4,22.4,22.4s22.4-10,22.4-22.4C-238.5,384.5-248.5,374.5-260.9,374.5z"/>
	<g>
		<path d="M-250.8,397.7H-271c-0.4,0-0.8-0.4-0.8-0.8s0.4-0.8,0.8-0.8h20.2c0.4,0,0.8,0.4,0.8,0.8S-250.3,397.7-250.8,397.7z"/>
	</g>
</g>
</svg>
