<?xml version="1.0" encoding="utf-8"?>
<!-- Generator: Adobe Illustrator 18.1.1, SVG Export Plug-In . SVG Version: 6.00 Build 0)  -->
<svg version="1.1" id="clean" xmlns="http://www.w3.org/2000/svg" xmlns:xlink="http://www.w3.org/1999/xlink" x="0px" y="0px"
	 viewBox="-0.331 0 14.599 14" enable-background="new -0.331 0 14.599 14" xml:space="preserve">
<path id="path1" d="M8.799,4.954L5.334,8.723c0,0,2.401,3.647,2.705,4.407l0.973-0.577c0,0-0.699-1.337-1.094-1.672
	c0,0-0.365-0.517,0.274-0.334c0,0,1.459,1.216,1.672,1.337l0.973-0.881c0,0-0.122-0.304-0.334-0.547L9.346,9.148
	c0,0-0.213-0.426,0.243-0.274c0,0,1.216,0.973,2.036,1.246l0.76-1.033c0,0-1.428-1.368-1.52-1.611c0,0-0.243-0.213,0.122-0.274
	c0,0,1.459,1.003,1.976,0.942c0,0,0.456-0.851,0.426-0.912C13.389,7.264,9.468,5.41,8.799,4.954z M8.678,3.86
	c1.337,1.185,4.924,2.583,4.924,2.583c1.003,0.243,0.577,1.064,0.577,1.064c-1.732,4.103-5.836,6.352-5.836,6.352
	c-0.729,0.517-1.064-0.577-1.064-0.577C6.428,11.61,4.331,8.693,4.331,8.693L8.678,3.86z M0.532,0c0.061,0,0.122,0.03,0.182,0.061
	l3.982,3.617c0.03,0.03,0.061,0.091,0.061,0.122l0.881-0.973c0.729-0.426,1.368-0.061,1.368-0.061l1.033,0.76L3.815,8.115
	L3.085,7.112c-0.456-0.942,0.061-1.55,0.061-1.55l0.729-0.821c-0.061,0-0.091-0.03-0.152-0.061l-3.982-3.617
	c-0.091-0.091-0.091-0.243-0.03-0.334l0.608-0.669C0.41,0.03,0.471,0,0.532,0z"/>
</svg>
