<?xml version="1.0" encoding="utf-8"?>

<!--
 * Copyright (c) 2015, WSO2 Inc. (http://www.wso2.org) All Rights Reserved.
 *
 * WSO2 Inc. licenses this file to you under the Apache License,
 * Version 2.0 (the "License"); you may not use this file except
 * in compliance with the License.
 * You may obtain a copy of the License at
 *
 * http://www.apache.org/licenses/LICENSE-2.0
 *
 * Unless required by applicable law or agreed to in writing,
 * software distributed under the License is distributed on an
 * "AS IS" BASIS, WITHOUT WARRANTIES OR CONDITIONS OF ANY
 * KIND, either express or implied. See the License for the
 * specific language governing permissions and limitations
 * under the License.
-->

<svg version="1.1" id="Layer_1" xmlns="http://www.w3.org/2000/svg" xmlns:xlink="http://www.w3.org/1999/xlink" x="0px" y="0px"
	 viewBox="282 372 48 48" enable-background="new 282 372 48 48" xml:space="preserve">
<g>
	<g transform="translate(0,0.967126167062059)">
		<path id="path1" d="M312,388.3l-11.4,12.4c0,0,7.9,12,8.9,14.5l3.2-1.9c0,0-2.3-4.4-3.6-5.5c0,0-1.2-1.7,0.9-1.1
			c0,0,4.8,4,5.5,4.4l3.2-2.9c0,0-0.4-1-1.1-1.8l-3.8-4.3c0,0-0.7-1.4,0.8-0.9c0,0,4,3.2,6.7,4.1l2.5-3.4c0,0-4.7-4.5-5-5.3
			c0,0-0.8-0.7,0.4-0.9c0,0,4.8,3.3,6.5,3.1c0,0,1.5-2.8,1.4-3C327.1,395.9,314.2,389.8,312,388.3z M311.6,384.7
			c4.4,3.9,16.2,8.5,16.2,8.5c3.3,0.8,1.9,3.5,1.9,3.5c-5.7,13.5-19.2,20.9-19.2,20.9c-2.4,1.7-3.5-1.9-3.5-1.9
			c-2.8-5.5-9.7-15.1-9.7-15.1L311.6,384.7z M284.8,372c0.2,0,0.4,0.1,0.6,0.2l13.1,11.9c0.1,0.1,0.2,0.3,0.2,0.4l2.9-3.2
			c2.4-1.4,4.5-0.2,4.5-0.2l3.4,2.5l-13.9,15.1l-2.4-3.3c-1.5-3.1,0.2-5.1,0.2-5.1l2.4-2.7c-0.2,0-0.3-0.1-0.5-0.2l-13.1-11.9
			c-0.3-0.3-0.3-0.8-0.1-1.1l2-2.2C284.4,372.1,284.6,372,284.8,372z"/>
	</g>
</g>
</svg>
