<?xml version="1.0" encoding="utf-8"?>

<!--
 * Copyright (c) 2015, WSO2 Inc. (http://www.wso2.org) All Rights Reserved.
 *
 * WSO2 Inc. licenses this file to you under the Apache License,
 * Version 2.0 (the "License"); you may not use this file except
 * in compliance with the License.
 * You may obtain a copy of the License at
 *
 * http://www.apache.org/licenses/LICENSE-2.0
 *
 * Unless required by applicable law or agreed to in writing,
 * software distributed under the License is distributed on an
 * "AS IS" BASIS, WITHOUT WARRANTIES OR CONDITIONS OF ANY
 * KIND, either express or implied. See the License for the
 * specific language governing permissions and limitations
 * under the License.
-->

<!DOCTYPE svg PUBLIC "-//W3C//DTD SVG 1.1//EN" "http://www.w3.org/Graphics/SVG/1.1/DTD/svg11.dtd">
<svg version="1.1" id="Layer_1" xmlns="http://www.w3.org/2000/svg" xmlns:xlink="http://www.w3.org/1999/xlink" x="0px" y="0px"
	 viewBox="282 372 48 48" enable-background="new 282 372 48 48" xml:space="preserve">
<g transform="translate(50,50)">
	<g transform="translate(1.43051147460938E-06,0)">
		<path id="path1" d="M255,332.2h2v11.5l0.2,0.1c0.5,0.3,0.9,0.7,1.1,1.2l0,0.1h8.2v2h-8.3l-0.1,0.1c-0.4,0.8-1.3,1.3-2.2,1.3
			c-1.4,0-2.5-1.1-2.5-2.5c0-1.1,0.6-2,1.6-2.3l0.1,0V332.2z M256,325c-11.6,0-21,9.4-21,21s9.4,21,21,21c11.6,0,21-9.4,21-21
			S267.6,325,256,325z M256,322c13.3,0,24,10.7,24,24s-10.7,24-24,24c-13.3,0-24-10.7-24-24S242.7,322,256,322z"/>
	</g>
</g>
</svg>
