<?xml version="1.0" encoding="utf-8"?>

<!--
 * Copyright (c) 2015, WSO2 Inc. (http://www.wso2.org) All Rights Reserved.
 *
 * WSO2 Inc. licenses this file to you under the Apache License,
 * Version 2.0 (the "License"); you may not use this file except
 * in compliance with the License.
 * You may obtain a copy of the License at
 *
 * http://www.apache.org/licenses/LICENSE-2.0
 *
 * Unless required by applicable law or agreed to in writing,
 * software distributed under the License is distributed on an
 * "AS IS" BASIS, WITHOUT WARRANTIES OR CONDITIONS OF ANY
 * KIND, either express or implied. See the License for the
 * specific language governing permissions and limitations
 * under the License.
-->

<svg version="1.1" id="cloud" xmlns="http://www.w3.org/2000/svg" xmlns:xlink="http://www.w3.org/1999/xlink" x="0px" y="0px"
	 viewBox="-1.267 0 16.534 14" enable-background="new -1.267 0 16.534 14" xml:space="preserve">
<path d="M12.26,5.874c-0.003,0-0.005,0-0.009,0c-0.133-2.103-1.882-3.768-4.018-3.768c-1.972,0-3.612,1.417-3.96,3.287
	C4.229,5.392,4.182,5.39,4.137,5.39c-1.469,0-2.708,0.973-3.113,2.309C0.962,7.694,0.899,7.69,0.835,7.69
	c-1.16,0-2.102,0.94-2.102,2.102s0.94,2.102,2.1,2.102c0.017,0,11.425,0,11.425,0c1.663,0,3.009-1.348,3.009-3.009
	S13.923,5.874,12.26,5.874z"/>
</svg>
