<?xml version="1.0" encoding="utf-8"?>

<!--
 * Copyright (c) 2015, WSO2 Inc. (http://www.wso2.org) All Rights Reserved.
 *
 * WSO2 Inc. licenses this file to you under the Apache License,
 * Version 2.0 (the "License"); you may not use this file except
 * in compliance with the License.
 * You may obtain a copy of the License at
 *
 * http://www.apache.org/licenses/LICENSE-2.0
 *
 * Unless required by applicable law or agreed to in writing,
 * software distributed under the License is distributed on an
 * "AS IS" BASIS, WITHOUT WARRANTIES OR CONDITIONS OF ANY
 * KIND, either express or implied. See the License for the
 * specific language governing permissions and limitations
 * under the License.
-->

<svg version="1.1" id="Layer_1" xmlns="http://www.w3.org/2000/svg" xmlns:xlink="http://www.w3.org/1999/xlink" x="0px" y="0px"
	 viewBox="0 0 48 48" enable-background="new 0 0 48 48" xml:space="preserve">
<path id="path1" d="M22.94,0c0.185,0,0.37,0.001,0.555,0.004C29.413,0.1,35.38,1.877,39.99,5.312
	c9.231,6.878,9.553,17.783,0.715,24.368c-8.416,6.27-22.116,6.338-31.367,0.375c8.053,5.033,20.073,4.74,27.653-0.907
	c8.003-5.963,8.003-15.63,0-21.6c-8.003-5.963-20.989-5.963-28.992,0c-6.725,5.018-7.781,12.638-3.201,18.48
	c0.966-1.268,1.963-2.4,2.97-3.398c-1.893-3.915-0.846-8.363,3.231-11.4c5.708-4.253,15.17-4.103,21.13,0.345
	c5.97,4.448,6.181,11.498,0.463,15.75c-5.708,4.252-15.17,4.103-21.14-0.345c5.174,3.855,13.57,3.855,18.744,0
	c5.174-3.855,5.174-10.103,0-13.958c-5.174-3.855-13.57-3.855-18.744,0c-3.413,2.542-4.56,6.135-3.463,9.39
	c8.134-7.875,16.892-7.373,16.892-7.373c6.03,1.2,5.376,5.235,5.376,5.235l-7.59,4.74c-1.933,0.03-4.892-2.078-4.892-2.078
	c-2.799,0.668-4.852,2.19-6.382,3.99c-0.835,0.99-1.51,2.063-2.054,3.128c-1.752,3.443-2.104,6.78-2.104,6.78
	c1.671,2.04,5.526,2.813,5.526,2.813l-0.544,7.358c-2.084,0.945-3.795,1.102-5.104,0.937c-2.124-0.27-3.221-1.373-3.221-1.373
	c-7.057-9.818,0.463-19.958,0.463-19.958c0.121-0.165,0.252-0.33,0.372-0.495c-5.849-6.75-5.064-15.653,2.567-21.33
	C11.57,1.598,17.212,0.009,22.94,0z"/>
</svg>
