<?xml version="1.0" encoding="iso-8859-1"?>
<!-- Generator: Adobe Illustrator 16.0.0, SVG Export Plug-In . SVG Version: 6.00 Build 0)  -->
<!DOCTYPE svg PUBLIC "-//W3C//DTD SVG 1.1//EN" "http://www.w3.org/Graphics/SVG/1.1/DTD/svg11.dtd">
<svg version="1.1" id="Layer_1" xmlns="http://www.w3.org/2000/svg" xmlns:xlink="http://www.w3.org/1999/xlink" x="0px" y="0px"
	 width="48px" height="48px" viewBox="0 0 48 48" style="enable-background:new 0 0 48 48;" xml:space="preserve">
<g id="DSS">
	<g>
		<path style="fill:#060507;" d="M28.392,32.968c-0.036-0.456,0.096-0.923,0.412-1.296l1.106-1.317
			c0.569-0.674,1.617-0.824,2.354-0.338l0.45,0.299c0.356-0.223,0.729-0.419,1.114-0.586l0.017-0.525
			c0.027-0.902,0.73-1.646,1.637-1.727l1.859-0.151c0.854,0,1.594,0.604,1.761,1.438l0.104,0.515
			c0.015,0.004,0.029,0.011,0.044,0.014c1.357-1.063,2.147-2.276,2.147-3.571v-5.382c0-0.624-0.197-1.225-0.537-1.804
			c-1.896,3.286-8.848,5.726-17.157,5.726c-8.301,0-15.257-2.438-17.156-5.726c-0.334,0.579-0.529,1.18-0.529,1.804v5.382
			c0,4.153,7.92,7.528,17.685,7.528C25.332,33.249,26.896,33.144,28.392,32.968z"/>
		<path style="fill:#060507;" d="M28.23,35.729c0.053-0.016,0.104-0.037,0.159-0.048l0.588-0.119
			c0.045-0.191,0.112-0.375,0.17-0.563c-0.572,0.079-1.162,0.14-1.759,0.193C27.729,35.263,28.023,35.457,28.23,35.729z"/>
		<path style="fill:#060507;" d="M22.006,44.302l-0.264-0.008c-0.714-0.025-1.296-0.579-1.356-1.289l-0.092-1.078
			c-0.057-0.714,0.427-1.355,1.124-1.495l0.202-0.041c0.032-0.121,0.069-0.242,0.109-0.361l-0.155-0.165
			c-0.489-0.514-0.513-1.317-0.05-1.865l0.697-0.832c0.447-0.531,1.272-0.649,1.852-0.265l0.135,0.09
			c0.139-0.08,0.28-0.154,0.424-0.223l0.005-0.158c0.02-0.649,0.493-1.174,1.118-1.309c-0.677,0.033-1.351,0.074-2.05,0.074
			c-8.301,0-15.257-2.439-17.156-5.727c-0.334,0.576-0.529,1.18-0.529,1.803v5.385c0,3.912,7.025,7.114,15.994,7.479
			C22.011,44.312,22.008,44.307,22.006,44.302z"/>
		<path style="fill:#060507;" d="M40.916,7.774c-0.348,3.046-7.904,5.483-17.211,5.483c-9.301,0-16.859-2.437-17.205-5.482
			C6.197,8.329,6.02,8.906,6.02,9.5v5.38c0,4.159,7.92,7.528,17.685,7.528c9.771,0,17.695-3.369,17.695-7.528V9.5
			C41.4,8.906,41.221,8.329,40.916,7.774z"/>
		<path style="fill:#060507;" d="M23.705,11.55c9.523,0,17.238-2.548,17.238-5.697c0-3.146-7.715-5.696-17.238-5.696
			C14.188,0.158,6.468,2.708,6.468,5.854C6.468,9.001,14.188,11.55,23.705,11.55z"/>
	</g>
	<g>
		<path d="M28.525,36.42l0.005,0.022c0.145,0.04,0.285,0.086,0.423,0.137l0.101-0.095c0.12-0.112,0.261-0.195,0.409-0.256
			l-0.931,0.188C28.529,36.418,28.528,36.419,28.525,36.42z"/>
		<path d="M46.457,35.857c-0.045-0.523-0.477-0.938-1.004-0.951l-1.043-0.035c-0.219-0.607-0.51-1.182-0.872-1.715l0.569-0.857
			c0.305-0.441,0.222-1.033-0.185-1.374l-1.313-1.106c-0.402-0.342-1-0.325-1.381,0.037l-0.727,0.679
			c-0.609-0.295-1.26-0.505-1.932-0.623l-0.203-1c-0.104-0.517-0.583-0.873-1.107-0.832l-1.711,0.146
			c-0.525,0.047-0.938,0.476-0.953,1.004l-0.033,1.017c-0.655,0.237-1.276,0.563-1.847,0.971l-0.864-0.573
			c-0.441-0.291-1.026-0.209-1.367,0.194l-1.108,1.319c-0.341,0.402-0.324,0.998,0.038,1.382l0.758,0.81
			c-0.262,0.587-0.447,1.207-0.557,1.842c0.444-0.126,0.946-0.058,1.307,0.247l0.825,0.696c0.554,0.465,0.662,1.266,0.25,1.863
			l-0.085,0.129c0.06,0.108,0.116,0.219,0.169,0.331l0.173,0.006c0.713,0.023,1.296,0.577,1.354,1.289l0.092,1.076
			c0.06,0.716-0.425,1.358-1.126,1.496l-0.178,0.036c-0.036,0.126-0.076,0.251-0.12,0.374l0.146,0.155
			c0.412,0.438,0.473,1.064,0.216,1.579c0.162-0.039,0.317-0.113,0.447-0.235l0.854-0.806c0.563,0.263,1.152,0.457,1.764,0.574
			l0.234,1.174c0.104,0.517,0.582,0.873,1.107,0.832l1.711-0.146c0.523-0.047,0.938-0.475,0.956-1.004l0.034-1.149
			c0.624-0.22,1.217-0.519,1.763-0.892l0.943,0.625c0.44,0.291,1.028,0.209,1.37-0.192l1.104-1.313
			c0.345-0.403,0.325-0.998-0.034-1.383l-0.763-0.81c0.279-0.591,0.481-1.216,0.601-1.856l1.041-0.212
			c0.516-0.104,0.873-0.581,0.83-1.106L46.457,35.857z M37.475,40.814c-1.848,0.16-3.479-1.219-3.635-3.065
			c-0.156-1.851,1.223-3.479,3.069-3.638c1.847-0.156,3.479,1.222,3.634,3.07C40.702,39.032,39.324,40.663,37.475,40.814z"/>
		<path d="M31.264,37.706l-0.826-0.697c-0.254-0.215-0.629-0.204-0.871,0.023l-0.457,0.428c-0.385-0.188-0.795-0.317-1.217-0.396
			l-0.129-0.629c-0.063-0.326-0.367-0.552-0.697-0.524l-1.077,0.092c-0.332,0.029-0.593,0.299-0.603,0.633l-0.021,0.642
			c-0.414,0.147-0.806,0.354-1.164,0.611l-0.544-0.361c-0.278-0.185-0.648-0.133-0.862,0.121l-0.699,0.834
			c-0.214,0.254-0.204,0.629,0.025,0.869l0.477,0.51c-0.165,0.373-0.284,0.765-0.351,1.166l-0.682,0.14
			c-0.326,0.065-0.551,0.367-0.525,0.696l0.092,1.078c0.028,0.332,0.299,0.591,0.632,0.603l0.738,0.022
			c0.134,0.353,0.309,0.685,0.521,0.996l-0.412,0.621c-0.183,0.278-0.131,0.649,0.125,0.864l0.825,0.697
			c0.254,0.215,0.632,0.203,0.872-0.022l0.541-0.507c0.354,0.166,0.728,0.287,1.108,0.361l0.149,0.739
			c0.064,0.324,0.367,0.55,0.697,0.524l1.077-0.092c0.33-0.028,0.593-0.299,0.604-0.633l0.021-0.726
			c0.394-0.14,0.767-0.326,1.111-0.562l0.595,0.394c0.277,0.185,0.648,0.133,0.863-0.123l0.697-0.826
			c0.217-0.254,0.205-0.629-0.022-0.871l-0.479-0.51c0.178-0.371,0.306-0.767,0.377-1.17l0.656-0.136
			c0.324-0.063,0.551-0.364,0.523-0.696l-0.092-1.078c-0.027-0.332-0.299-0.59-0.633-0.601l-0.656-0.022
			c-0.137-0.383-0.32-0.744-0.551-1.08l0.358-0.539C31.57,38.294,31.52,37.921,31.264,37.706z M27.198,43.939
			c-1.164,0.101-2.193-0.771-2.29-1.935c-0.1-1.164,0.771-2.192,1.935-2.291c1.164-0.1,2.193,0.769,2.29,1.935
			C29.232,42.814,28.363,43.843,27.198,43.939z"/>
	</g>
</g>
</svg>
