<?xml version="1.0" encoding="utf-8"?>

<!--
 * Copyright (c) 2015, WSO2 Inc. (http://www.wso2.org) All Rights Reserved.
 *
 * WSO2 Inc. licenses this file to you under the Apache License,
 * Version 2.0 (the "License"); you may not use this file except
 * in compliance with the License.
 * You may obtain a copy of the License at
 *
 * http://www.apache.org/licenses/LICENSE-2.0
 *
 * Unless required by applicable law or agreed to in writing,
 * software distributed under the License is distributed on an
 * "AS IS" BASIS, WITHOUT WARRANTIES OR CONDITIONS OF ANY
 * KIND, either express or implied. See the License for the
 * specific language governing permissions and limitations
 * under the License.
-->

<svg version="1.1" id="Layer_1" xmlns="http://www.w3.org/2000/svg" xmlns:xlink="http://www.w3.org/1999/xlink" x="0px" y="0px"
	 viewBox="282 372 48 48" enable-background="new 282 372 48 48" xml:space="preserve">
<g>
	<g transform="translate(0,7.09473576323237)">
		<path id="path1" d="M308.9,391.6c0.5,0,1,0.2,1.4,0.6l4.9,4.9c0.8,0.8,0.8,2,0,2.7l-2,1.9l-7.7-7.7l1.9-2
			C307.9,391.8,308.4,391.6,308.9,391.6z M316.3,383.2c1.8,0,3.2,1.4,3.2,3.2c0,1.8-1.4,3.2-3.2,3.2c-1.8,0-3.2-1.4-3.2-3.2
			C313.1,384.6,314.5,383.2,316.3,383.2z M285,375.5l7.7,7.7c-2.7,2.7-1.5,5.6,1.1,8.1l2.7,2.7c2.5,2.5,5.4,3.8,8.1,1.1l7.7,7.7
			l-0.3,0.3c-4.8,4.8-12.1,2.7-17.9-3.2l-6.3-6.3c-5.8-5.8-8-13.1-3.2-17.9L285,375.5z M324.7,372.9c2.9,0,5.3,2.4,5.3,5.3
			c0,2.9-2.4,5.3-5.3,5.3c-2.9,0-5.3-2.4-5.3-5.3C319.4,375.3,321.8,372.9,324.7,372.9z M289.2,372c0.5,0,1,0.2,1.4,0.6l4.9,4.9
			c0.8,0.8,0.8,2,0,2.7l-1.9,1.9l-7.7-7.7l2-1.9C288.2,372.2,288.7,372,289.2,372z"/>
	</g>
</g>
</svg>
