<?xml version="1.0" encoding="utf-8"?>
<!-- Generator: Adobe Illustrator 18.1.1, SVG Export Plug-In . SVG Version: 6.00 Build 0)  -->
<svg version="1.1" id="incoming-call" xmlns="http://www.w3.org/2000/svg" xmlns:xlink="http://www.w3.org/1999/xlink" x="0px"
	 y="0px" viewBox="-1.66 0 17.328 14" enable-background="new -1.66 0 17.328 14" xml:space="preserve">
<path id="path1" d="M8.055,7.983c0.18,0,0.361,0.072,0.505,0.216l1.768,1.768c0.289,0.289,0.289,0.722,0,0.974l-0.722,0.686
	L6.828,8.849l0.686-0.722C7.694,8.055,7.874,7.983,8.055,7.983z M10.725,4.952c0.649,0,1.155,0.505,1.155,1.155
	s-0.505,1.155-1.155,1.155c-0.649,0-1.155-0.505-1.155-1.155C9.57,5.457,10.075,4.952,10.725,4.952z M-0.568,2.174L2.21,4.952
	c-0.974,0.974-0.541,2.02,0.397,2.922l0.974,0.974c0.902,0.902,1.948,1.371,2.922,0.397l2.778,2.778l-0.108,0.108
	c-1.732,1.732-4.366,0.974-6.458-1.155L0.442,8.704c-2.093-2.093-2.886-4.726-1.155-6.458L-0.568,2.174z M13.755,1.236
	c1.046,0,1.912,0.866,1.912,1.912S14.802,5.06,13.755,5.06s-1.912-0.866-1.912-1.912C11.843,2.102,12.709,1.236,13.755,1.236z
	 M0.947,0.911c0.18,0,0.361,0.072,0.505,0.216L3.22,2.895c0.289,0.289,0.289,0.722,0,0.974L2.535,4.555l-2.778-2.778l0.722-0.686
	C0.586,0.983,0.767,0.911,0.947,0.911z"/>
</svg>
