<?xml version="1.0" encoding="utf-8"?>

<!--
 * Copyright (c) 2015, WSO2 Inc. (http://www.wso2.org) All Rights Reserved.
 *
 * WSO2 Inc. licenses this file to you under the Apache License,
 * Version 2.0 (the "License"); you may not use this file except
 * in compliance with the License.
 * You may obtain a copy of the License at
 *
 * http://www.apache.org/licenses/LICENSE-2.0
 *
 * Unless required by applicable law or agreed to in writing,
 * software distributed under the License is distributed on an
 * "AS IS" BASIS, WITHOUT WARRANTIES OR CONDITIONS OF ANY
 * KIND, either express or implied. See the License for the
 * specific language governing permissions and limitations
 * under the License.
-->

<svg version="1.1" id="Layer_1" xmlns="http://www.w3.org/2000/svg" xmlns:xlink="http://www.w3.org/1999/xlink" x="0px" y="0px"
	 viewBox="694 372 48 48" enable-background="new 694 372 48 48" xml:space="preserve">
<g id="_x23_000000ff">
	<path d="M721.2,374.9c0.5-0.7,1-1.3,1.5-2c-0.8,1.5-1.1,3.2-1,4.9c0.2,2.3,1.3,4.6,2.8,6.3c1.6,1.9,3.8,3.3,6.3,3.9
		c1.6,0.4,3.2,0.6,4.8,0.4c1.3-0.2,2.5-0.6,3.6-1.4c0.6-0.4,1-0.9,1.5-1.5c-0.5,1-1.1,1.9-1.9,2.7c-1,1.1-2.3,1.9-3.8,2.4
		c-2,0.6-4.1,0.6-6.1,0.2c-2.6-0.7-4.9-2.2-6.6-4.2c-1.5-1.8-2.5-4.2-2.5-6.6C719.8,378.2,720.2,376.4,721.2,374.9z"/>
	<path d="M710.1,378.7c0.9-1.2,1.7-2.4,2.6-3.7c-1.3,2.2-1.9,4.8-1.8,7.4c0.1,2.9,1.1,5.8,2.6,8.2c2.5,4,6.4,7,10.9,8.4
		c3.2,1,6.6,1.2,9.8,0.4c3.1-0.8,5.9-2.7,7.7-5.3c-0.7,2.1-2,4-3.6,5.5c-1.9,1.8-4.2,3.2-6.7,3.8c-3,0.8-6.2,0.8-9.3,0.2
		c-3.7-1-7.1-3-9.7-5.8c-0.8-0.7-1.3-1.6-1.9-2.4c-1.5-2.2-2.5-4.8-2.8-7.4C707.6,384.9,708.3,381.5,710.1,378.7z"/>
	<path d="M697.1,383.7c1.1-1.4,2.2-2.8,3.3-4.2c-1.3,2.5-1.9,5.2-2,8c-0.1,3.6,0.8,7.3,2.3,10.6c2,4.2,5.2,7.7,9,10.4
		c2.4,1.6,5,2.9,7.7,3.8c1.1,0.4,2.3,0.6,3.5,0.8c3,0.4,6.1,0.4,9-0.2c2.4-0.5,4.7-1.4,6.8-2.8c1.6-1,3-2.3,4.1-3.8
		c-0.8,2-2,3.8-3.4,5.4c-1.7,1.9-3.7,3.6-5.9,4.8c-2.1,1.1-4.3,1.9-6.7,2.3c-2.8,0.5-5.8,0.5-8.6,0.1c-0.9-0.1-1.8-0.2-2.7-0.5
		c-5.2-1.5-9.9-4.6-13.4-8.7c-3.2-3.7-5.3-8.4-5.9-13.3c-0.3-2.2-0.2-4.5,0.3-6.7C695,387.5,695.8,385.5,697.1,383.7z"/>
</g>
</svg>
