<?xml version="1.0" encoding="utf-8"?>
<!-- Generator: Adobe Illustrator 18.1.1, SVG Export Plug-In . SVG Version: 6.00 Build 0)  -->
<svg version="1.1" id="list-sort" xmlns="http://www.w3.org/2000/svg" xmlns:xlink="http://www.w3.org/1999/xlink" x="0px" y="0px"
	 viewBox="1.954 0 10.092 14" enable-background="new 1.954 0 10.092 14" xml:space="preserve">
<path d="M1.954,10.078l2.55-6.367h0.282l2.498,6.367H6.785l-0.88-2.247H3.328l-0.885,2.247H1.954z M3.489,7.442h2.268L4.894,5.156
	C4.822,4.977,4.735,4.728,4.634,4.41C4.556,4.688,4.471,4.939,4.378,5.165L3.489,7.442z M7.64,10.078V9.756l3.713-5.611H7.808V3.737
	h4.138V4.06l-3.721,5.61h3.821v0.408H7.64z"/>
<polygon points="5.173,3.061 9.183,3.061 7.178,0.021 "/>
<polygon points="5.173,10.939 9.183,10.939 7.178,13.979 "/>
</svg>
