<?xml version="1.0" encoding="utf-8"?>
<!-- Generator: Adobe Illustrator 18.1.1, SVG Export Plug-In . SVG Version: 6.00 Build 0)  -->
<svg version="1.1" id="lock" xmlns="http://www.w3.org/2000/svg" xmlns:xlink="http://www.w3.org/1999/xlink" x="0px" y="0px"
	 viewBox="0 0 14 14" enable-background="new 0 0 14 14" xml:space="preserve">
<path id="path1" d="M6.956,4.025c-0.817,0-1.488,0.671-1.488,1.487c0,0.554,0.321,1.05,0.788,1.283v2.683c0,0.379,0.321,0.7,0.7,0.7
	s0.7-0.321,0.7-0.7V6.796c0.467-0.262,0.788-0.729,0.788-1.283C8.444,4.696,7.773,4.025,6.956,4.025z M2.056,2.8h9.858v8.4H2.056
	V2.8z M1.473,2.217v9.567h11.025V2.217H1.473z M0.51,0.875H13.49c0.292,0,0.525,0.233,0.525,0.525v11.2
	c0,0.292-0.233,0.525-0.525,0.525H0.51c-0.292,0-0.525-0.233-0.525-0.525V1.4C-0.015,1.108,0.219,0.875,0.51,0.875z"/>
</svg>
