<?xml version="1.0" encoding="utf-8"?>

<!--
 * Copyright (c) 2015, WSO2 Inc. (http://www.wso2.org) All Rights Reserved.
 *
 * WSO2 Inc. licenses this file to you under the Apache License,
 * Version 2.0 (the "License"); you may not use this file except
 * in compliance with the License.
 * You may obtain a copy of the License at
 *
 * http://www.apache.org/licenses/LICENSE-2.0
 *
 * Unless required by applicable law or agreed to in writing,
 * software distributed under the License is distributed on an
 * "AS IS" BASIS, WITHOUT WARRANTIES OR CONDITIONS OF ANY
 * KIND, either express or implied. See the License for the
 * specific language governing permissions and limitations
 * under the License.
-->

<svg version="1.1" id="Layer_1" xmlns="http://www.w3.org/2000/svg" xmlns:xlink="http://www.w3.org/1999/xlink" x="0px" y="0px"
	 viewBox="282 372 48 48" enable-background="new 282 372 48 48" xml:space="preserve">
<g>
	<g transform="translate(0,3.01278316809296)">
		<path id="path1" d="M305.9,382.8c-2.8,0-5.1,2.3-5.1,5.1c0,1.9,1.1,3.6,2.7,4.4v9.2c0,1.3,1.1,2.4,2.4,2.4c1.3,0,2.4-1.1,2.4-2.4
			v-9.2c1.6-0.9,2.7-2.5,2.7-4.4C311,385.1,308.7,382.8,305.9,382.8z M289.1,378.6h33.8v28.8h-33.8V378.6z M287.1,376.6v32.8h37.8
			v-32.8H287.1z M283.8,372h44.5c1,0,1.8,0.8,1.8,1.8v38.4c0,1-0.8,1.8-1.8,1.8h-44.5c-1,0-1.8-0.8-1.8-1.8v-38.4
			C282,372.8,282.8,372,283.8,372z"/>
	</g>
</g>
</svg>
