<?xml version="1.0" encoding="utf-8"?>

<!--
 * Copyright (c) 2015, WSO2 Inc. (http://www.wso2.org) All Rights Reserved.
 *
 * WSO2 Inc. licenses this file to you under the Apache License,
 * Version 2.0 (the "License"); you may not use this file except
 * in compliance with the License.
 * You may obtain a copy of the License at
 *
 * http://www.apache.org/licenses/LICENSE-2.0
 *
 * Unless required by applicable law or agreed to in writing,
 * software distributed under the License is distributed on an
 * "AS IS" BASIS, WITHOUT WARRANTIES OR CONDITIONS OF ANY
 * KIND, either express or implied. See the License for the
 * specific language governing permissions and limitations
 * under the License.
-->

<svg version="1.1" id="Layer_1" xmlns="http://www.w3.org/2000/svg" xmlns:xlink="http://www.w3.org/1999/xlink" x="0px" y="0px"
	 viewBox="282 372 48 48" enable-background="new 282 372 48 48" xml:space="preserve">
<g>
	<g transform="translate(0,0.65100002289968)">
		<path id="path1" d="M284.2,406.1c5.9,0,11.7,3.7,13.9,5.3l-0.6,7.2l-15.4-6.4l1.6-6.2C283.8,406.1,284,406.1,284.2,406.1z
			 M315,404.7c8.8,6.7,13.7,7.3,14.1,7.4l0.9,5.8l-14.7-4.8l0-0.5L315,404.7z M312.3,404.3l0.4,8.4l0,0.5l-12.7,5.4l0.6-7.2
			L312.3,404.3z M306.5,399.4v5.4l-5.5,3.5l0.6-7L306.5,399.4z M326.9,398.3l1.7,10.7c-2-0.1-5.6-2.2-8.8-4.3
			C321.9,398.5,326.8,398.3,326.9,398.3z M294.7,389.2l5.2,1.9l0,0.3l-0.6,6.5C291.9,394.2,294.4,389.6,294.7,389.2z M288.7,387
			l3.4,1.2c-3.1,6.7,4,11.3,7,12.8l-0.7,7.5c-11.6-7.3-13.9-5.2-13.9-5.2l-0.3,0.9L288.7,387z M311.6,386.9l0.6,14.3l-3,1.9l-0.1-6
			c-0.2-1.3-1.8-1.1-1.8-1.1l-5.5,2.1l0.6-6.5l0.1-0.6L311.6,386.9z M314.2,386.8l2.5,0.8l1.5,5.5l0.8,3l1.9-2.5l2.7-3.7l2.2,0.7
			l0.7,4.8c-6.9,0.9-9.2,7.5-9.2,7.5l0.3,0.2c-1.1-0.8-2-1.4-2.7-2L314.2,386.8z M322.3,375.3c-1.5,0-2.9,1.1-3.2,2.7
			c-0.3,1.8,0.8,3.5,2.6,3.8c1.8,0.3,3.5-0.8,3.8-2.6c0.3-1.8-0.8-3.5-2.6-3.8C322.7,375.3,322.5,375.3,322.3,375.3z M322.4,372
			c0.4,0,0.7,0,1.1,0.1c3.4,0.6,5.7,4,5.1,7.4c-0.2,1.2-0.8,2.3-1.6,3.1l-3.6,5l-3.7,5.1l-1.6-6.1l-1.6-6c-0.4-1.1-0.5-2.3-0.3-3.5
			C316.7,374.1,319.4,372,322.4,372z"/>
	</g>
</g>
</svg>
