<?xml version="1.0" encoding="utf-8"?>
<!-- Generator: Adobe Illustrator 18.1.1, SVG Export Plug-In . SVG Version: 6.00 Build 0)  -->
<svg version="1.1" id="ms-document" xmlns="http://www.w3.org/2000/svg" xmlns:xlink="http://www.w3.org/1999/xlink" x="0px"
	 y="0px" viewBox="0 0 14 14" enable-background="new 0 0 14 14" xml:space="preserve">
<path d="M13.549,1.616H8.615v1.607h3.786v1.094H8.615v1.069h3.769v1.077H8.615v1.077h3.769v1.077H8.615v1.077h3.769v1.077H8.615
	v1.616h4.934c0.248,0,0.451-0.211,0.451-0.468V2.084C14,1.826,13.797,1.616,13.549,1.616z M0,1.555v10.889L8.077,14V0L0,1.555z
	 M5.898,9.726H4.842L4.14,6.23C4.103,6.047,4.08,5.843,4.073,5.618H4.061C4.043,5.866,4.017,6.07,3.984,6.23L3.265,9.726H2.165
	l-1.112-5.45h1.041L2.69,7.905C2.715,8.06,2.734,8.268,2.746,8.529h0.018C2.771,8.335,2.801,8.121,2.85,7.891l0.766-3.615h1.02
	l0.693,3.66c0.025,0.135,0.047,0.329,0.067,0.586h0.012C5.416,8.321,5.436,8.119,5.47,7.913l0.583-3.637h0.961L5.898,9.726z"/>
</svg>
