<?xml version="1.0" encoding="utf-8"?>
<!-- Generator: Adobe Illustrator 18.1.1, SVG Export Plug-In . SVG Version: 6.00 Build 0)  -->
<svg version="1.1" id="pdf" xmlns="http://www.w3.org/2000/svg" xmlns:xlink="http://www.w3.org/1999/xlink" x="0px" y="0px"
	 viewBox="-0.145 0 14.291 14" enable-background="new -0.145 0 14.291 14" xml:space="preserve">
<path id="path1" d="M13.914,8.622c-0.286-0.281-0.919-0.43-1.883-0.443c-0.653-0.007-1.438,0.05-2.264,0.166
	c-0.37-0.214-0.751-0.446-1.05-0.726C7.911,6.867,7.24,5.824,6.821,4.676c0.027-0.107,0.051-0.201,0.072-0.297
	c0,0,0.453-2.576,0.333-3.447C7.21,0.813,7.2,0.778,7.167,0.685l-0.04-0.101c-0.123-0.285-0.365-0.586-0.744-0.57L6.161,0.007H6.155
	c-0.423,0-0.768,0.216-0.858,0.54C5.022,1.561,5.306,3.077,5.82,5.042l-0.132,0.32C5.32,6.259,4.859,7.163,4.452,7.96L4.399,8.064
	c-0.428,0.838-0.817,1.55-1.169,2.152l-0.364,0.192c-0.026,0.014-0.65,0.344-0.796,0.432c-1.24,0.74-2.062,1.581-2.199,2.248
	c-0.043,0.213-0.011,0.485,0.21,0.612l0.352,0.176c0.153,0.077,0.314,0.116,0.478,0.116c0.883,0,1.909-1.1,3.322-3.566
	c1.631-0.531,3.488-0.973,5.116-1.216c1.24,0.699,2.766,1.184,3.728,1.184c0.171,0,0.319-0.017,0.438-0.048
	c0.185-0.049,0.341-0.154,0.436-0.297c0.187-0.281,0.224-0.668,0.174-1.065C14.109,8.867,14.015,8.721,13.914,8.622z M0.72,13.322
	c0.161-0.44,0.799-1.311,1.742-2.084c0.059-0.048,0.205-0.185,0.339-0.312C1.814,12.499,1.154,13.125,0.72,13.322z M6.304,0.463
	c0.284,0,0.445,0.716,0.459,1.387C6.776,2.52,6.619,2.991,6.425,3.34C6.263,2.824,6.185,2.011,6.185,1.479
	C6.185,1.479,6.174,0.463,6.304,0.463z M4.638,9.627c0.198-0.354,0.404-0.727,0.614-1.124C5.765,7.534,6.089,6.775,6.33,6.152
	c0.48,0.873,1.077,1.615,1.779,2.209c0.088,0.074,0.18,0.149,0.278,0.223C6.959,8.865,5.724,9.209,4.638,9.627z M13.64,9.546
	c-0.087,0.054-0.336,0.086-0.496,0.086c-0.517,0-1.157-0.236-2.054-0.621c0.344-0.026,0.661-0.039,0.944-0.039
	c0.518,0,0.673-0.002,1.18,0.127C13.72,9.229,13.727,9.492,13.64,9.546z"/>
</svg>
