<?xml version="1.0" encoding="utf-8"?>
<!-- Generator: Adobe Illustrator 18.1.1, SVG Export Plug-In . SVG Version: 6.00 Build 0)  -->
<svg version="1.1" id="refresh" xmlns="http://www.w3.org/2000/svg" xmlns:xlink="http://www.w3.org/1999/xlink" x="0px" y="0px"
	 viewBox="0.685 0 12.63 14" enable-background="new 0.685 0 12.63 14" xml:space="preserve">
<path fill="#010002" d="M11.465,3.22c-0.079-0.079-0.208-0.079-0.288,0c-0.08,0.08-0.08,0.209,0,0.288
	c1.116,1.116,1.73,2.6,1.73,4.178c0,3.258-2.65,5.907-5.908,5.907c-3.257,0-5.907-2.65-5.907-5.907c0-3.241,2.624-5.878,5.858-5.905
	L5.764,2.966c-0.08,0.079-0.08,0.208,0,0.288c0.039,0.04,0.092,0.06,0.144,0.06c0.052,0,0.104-0.02,0.144-0.06l1.597-1.597
	L6.052,0.06c-0.08-0.079-0.208-0.079-0.288,0c-0.08,0.08-0.08,0.209,0,0.288L6.797,1.38C3.409,1.489,0.685,4.271,0.685,7.685
	C0.685,11.167,3.518,14,7,14c3.483,0,6.315-2.833,6.315-6.315C13.315,5.998,12.658,4.413,11.465,3.22z"/>
</svg>
