<?xml version="1.0" encoding="utf-8"?>

<!--
 * Copyright (c) 2015, WSO2 Inc. (http://www.wso2.org) All Rights Reserved.
 *
 * WSO2 Inc. licenses this file to you under the Apache License,
 * Version 2.0 (the "License"); you may not use this file except
 * in compliance with the License.
 * You may obtain a copy of the License at
 *
 * http://www.apache.org/licenses/LICENSE-2.0
 *
 * Unless required by applicable law or agreed to in writing,
 * software distributed under the License is distributed on an
 * "AS IS" BASIS, WITHOUT WARRANTIES OR CONDITIONS OF ANY
 * KIND, either express or implied. See the License for the
 * specific language governing permissions and limitations
 * under the License.
-->

<svg version="1.1" id="Capa_1" xmlns="http://www.w3.org/2000/svg" xmlns:xlink="http://www.w3.org/1999/xlink" x="0px" y="0px"
	 viewBox="0 0 48 48" enable-background="new 0 0 48 48" xml:space="preserve">
<path fill="#010002" d="M39.307,11.04c-0.272-0.272-0.714-0.272-0.986,0c-0.274,0.274-0.274,0.716,0,0.988
	c3.825,3.827,5.932,8.913,5.932,14.324c0,11.169-9.086,20.254-20.256,20.254c-11.167,0-20.254-9.086-20.254-20.254
	c0-11.111,8.995-20.154,20.084-20.247l-4.065,4.064c-0.274,0.272-0.274,0.714,0,0.988c0.135,0.137,0.316,0.205,0.493,0.205
	c0.177,0,0.356-0.069,0.493-0.205l5.476-5.476l-5.476-5.476c-0.274-0.272-0.714-0.272-0.986,0c-0.274,0.274-0.274,0.716,0,0.988
	l3.541,3.539C11.686,5.104,2.348,14.643,2.348,26.348C2.348,38.287,12.06,48,23.999,48c11.941,0,21.652-9.713,21.652-21.65
	C45.652,20.565,43.397,15.13,39.307,11.04z"/>
</svg>
