<?xml version="1.0" encoding="utf-8"?>

<!--
 * Copyright (c) 2015, WSO2 Inc. (http://www.wso2.org) All Rights Reserved.
 *
 * WSO2 Inc. licenses this file to you under the Apache License,
 * Version 2.0 (the "License"); you may not use this file except
 * in compliance with the License.
 * You may obtain a copy of the License at
 *
 * http://www.apache.org/licenses/LICENSE-2.0
 *
 * Unless required by applicable law or agreed to in writing,
 * software distributed under the License is distributed on an
 * "AS IS" BASIS, WITHOUT WARRANTIES OR CONDITIONS OF ANY
 * KIND, either express or implied. See the License for the
 * specific language governing permissions and limitations
 * under the License.
-->

<svg version="1.1" id="Layer_1" xmlns="http://www.w3.org/2000/svg" xmlns:xlink="http://www.w3.org/1999/xlink" x="0px" y="0px"
	 viewBox="282 372 48 48" enable-background="new 282 372 48 48" xml:space="preserve">
<g>
	<g transform="translate(5.29833428686288E-07,0)">
		<path id="path1" d="M300.3,378.8c-2.3,0-4.6,0.7-6.6,2.1c-4.8,3.3-5.6,9.5-1.8,13.7c3.7,4.3,10.6,5,15.4,1.6
			c4.8-3.3,5.6-9.5,1.8-13.7c-2.1-2.4-5.2-3.7-8.4-3.7C300.6,378.8,300.5,378.8,300.3,378.8z M300.6,372c0.1,0,0.3,0,0.4,0
			c5.3,0.1,10.6,2.3,14.1,6.3c5.2,5.9,5.2,14,0.5,19.9l14.4,16.3l-7.8,5.5l-14.4-16.3c-7.5,2.9-16.5,1-21.8-5
			c-6.3-7.2-4.9-17.6,3.1-23.2C292.5,373.1,296.5,372,300.6,372z"/>
	</g>
</g>
</svg>
