<?xml version="1.0" encoding="utf-8"?>
<!-- Generator: Adobe Illustrator 18.1.1, SVG Export Plug-In . SVG Version: 6.00 Build 0)  -->
<svg version="1.1" id="share" xmlns="http://www.w3.org/2000/svg" xmlns:xlink="http://www.w3.org/1999/xlink" x="0px" y="0px"
	 viewBox="17 17 14 14" enable-background="new 17 17 14 14" xml:space="preserve">
<path id="path" d="M25.75,19.625c0,0.11,0.018,0.213,0.031,0.318l-4.339,2.168c-0.472-0.454-1.11-0.737-1.818-0.737
	c-1.45,0-2.625,1.176-2.625,2.625c0,1.45,1.175,2.625,2.625,2.625c0.708,0,1.347-0.283,1.819-0.736l4.339,2.167
	c-0.013,0.106-0.032,0.21-0.032,0.321c0,1.45,1.174,2.624,2.625,2.624c1.45,0,2.625-1.175,2.625-2.624
	c0-1.142-0.734-2.102-1.75-2.465v-3.821c1.016-0.362,1.75-1.324,1.75-2.464c0-1.449-1.175-2.625-2.625-2.625
	C26.924,17.001,25.75,18.177,25.75,19.625z M27.5,22.089v3.821c-0.355,0.128-0.676,0.321-0.944,0.577l-4.338-2.168
	c0.012-0.106,0.031-0.21,0.031-0.32c0-0.109-0.019-0.213-0.033-0.318l4.338-2.169C26.823,21.769,27.145,21.963,27.5,22.089z"/>
</svg>
