<?xml version="1.0" encoding="utf-8"?>
<!-- Generator: Adobe Illustrator 18.1.1, SVG Export Plug-In . SVG Version: 6.00 Build 0)  -->
<svg version="1.1" id="Capa_1" xmlns="http://www.w3.org/2000/svg" xmlns:xlink="http://www.w3.org/1999/xlink" x="0px" y="0px"
	 viewBox="917.779 -0.075 14.563 14" enable-background="new 917.779 -0.075 14.563 14" xml:space="preserve">
<g>
	<path d="M925.06,2.158c-3.218,0-5.992,1.897-7.267,4.635c-0.039,0.083-0.039,0.18,0,0.265c1.274,2.738,4.048,4.635,7.267,4.635
		s5.992-1.897,7.267-4.635c0.039-0.083,0.039-0.18,0-0.265C931.053,4.055,928.279,2.158,925.06,2.158z M925.06,10.215
		c-1.817,0-3.289-1.473-3.289-3.289c0-1.817,1.473-3.289,3.289-3.289c1.817,0,3.289,1.473,3.289,3.289S926.876,10.215,925.06,10.215
		z"/>
	<circle cx="925.06" cy="6.924" r="2.105"/>
</g>
</svg>
