<?xml version="1.0" encoding="utf-8"?>
<!-- Generator: Adobe Illustrator 18.1.1, SVG Export Plug-In . SVG Version: 6.00 Build 0)  -->
<svg version="1.1" id="wifi" xmlns="http://www.w3.org/2000/svg" xmlns:xlink="http://www.w3.org/1999/xlink" x="0px" y="0px"
	 viewBox="16.324 17 18.121 14" enable-background="new 16.324 17 18.121 14" xml:space="preserve">
<path d="M27.815,27.453c-1.411-1.309-3.344-1.464-4.891,0.028c-0.08,0.076-0.123,0.122,0.023,0.267l2.425,2.378l2.401-2.304
	C28.021,27.573,27.896,27.535,27.815,27.453z M31.351,24.538c-3.32-3.271-8.683-3.257-11.982,0.043
	c-0.078,0.077-0.078,0.204,0,0.282l1.721,1.723c0.077,0.077,0.203,0.077,0.281,0c2.21-2.211,5.808-2.212,8.019,0
	c0.076,0.077,0.203,0.077,0.281,0l1.723-1.723l0.006-0.007c0.079-0.079,0.079-0.206,0.001-0.282L31.351,24.538z M34.387,21.588
	l-0.052-0.035c-4.967-4.919-13.007-4.903-17.954,0.043c-0.077,0.077-0.077,0.203,0.002,0.283l1.771,1.771
	c0.079,0.079,0.204,0.077,0.282,0c3.83-3.831,10.062-3.829,13.891,0.001c0.076,0.077,0.203,0.077,0.281,0.001l1.771-1.772
	l0.008-0.008C34.463,21.794,34.465,21.665,34.387,21.588z"/>
</svg>
