<?xml version="1.0" encoding="utf-8"?>

<!--
 * Copyright (c) 2015, WSO2 Inc. (http://www.wso2.org) All Rights Reserved.
 *
 * WSO2 Inc. licenses this file to you under the Apache License,
 * Version 2.0 (the "License"); you may not use this file except
 * in compliance with the License.
 * You may obtain a copy of the License at
 *
 * http://www.apache.org/licenses/LICENSE-2.0
 *
 * Unless required by applicable law or agreed to in writing,
 * software distributed under the License is distributed on an
 * "AS IS" BASIS, WITHOUT WARRANTIES OR CONDITIONS OF ANY
 * KIND, either express or implied. See the License for the
 * specific language governing permissions and limitations
 * under the License.
-->

<svg version="1.1" id="Capa_1" xmlns="http://www.w3.org/2000/svg" xmlns:xlink="http://www.w3.org/1999/xlink" x="0px" y="0px"
	 viewBox="282 372 48 48" enable-background="new 282 372 48 48" xml:space="preserve">
<g>
	<path d="M312.437,405.146c-3.737-3.468-8.859-3.878-12.955,0.073c-0.211,0.202-0.327,0.322,0.062,0.708l6.425,6.298l6.361-6.103
		C312.985,405.465,312.654,405.364,312.437,405.146z"/>
	<path d="M321.804,397.426c-8.795-8.666-23-8.628-31.74,0.115c-0.207,0.205-0.207,0.541,0.001,0.746l4.56,4.563
		c0.205,0.205,0.538,0.205,0.744,0c5.854-5.856,15.386-5.859,21.243,0c0.202,0.205,0.539,0.205,0.744,0l4.563-4.563l0.015-0.018
		c0.208-0.208,0.208-0.545,0.003-0.747L321.804,397.426z"/>
	<path d="M329.848,389.612l-0.137-0.094c-13.157-13.031-34.456-12.987-47.559,0.114c-0.205,0.205-0.205,0.539,0.005,0.75
		l4.691,4.691c0.208,0.208,0.541,0.205,0.746,0c10.145-10.147,26.652-10.142,36.795,0.002c0.202,0.204,0.539,0.205,0.744,0.002
		l4.691-4.694l0.02-0.02C330.049,390.156,330.054,389.816,329.848,389.612z"/>
</g>
</svg>
