<?xml version="1.0" encoding="utf-8"?>

<!--
 * Copyright (c) 2015, WSO2 Inc. (http://www.wso2.org) All Rights Reserved.
 *
 * WSO2 Inc. licenses this file to you under the Apache License,
 * Version 2.0 (the "License"); you may not use this file except
 * in compliance with the License.
 * You may obtain a copy of the License at
 *
 * http://www.apache.org/licenses/LICENSE-2.0
 *
 * Unless required by applicable law or agreed to in writing,
 * software distributed under the License is distributed on an
 * "AS IS" BASIS, WITHOUT WARRANTIES OR CONDITIONS OF ANY
 * KIND, either express or implied. See the License for the
 * specific language governing permissions and limitations
 * under the License.
-->

<svg version="1.1" id="Layer_1" xmlns="http://www.w3.org/2000/svg" xmlns:xlink="http://www.w3.org/1999/xlink" x="0px" y="0px"
	 viewBox="282 372 48 48" enable-background="new 282 372 48 48" xml:space="preserve">
<g>
	<g transform="translate(0,9.19237286999064)">
		<path id="path1" d="M306.2,395.7c1.6,0,3,1.3,3,3c0,1.6-1.3,3-3,3c-1.6,0-3-1.3-3-3C303.2,397,304.5,395.7,306.2,395.7z
			 M306.2,387.8c4.8,0,8.9,3.2,10.3,7.6l-2.8,1.7c-0.7-3.5-3.8-6.2-7.5-6.2c-3.8,0-6.9,2.7-7.6,6.3l-2.8-1.7
			C297.1,391.1,301.2,387.8,306.2,387.8z M306,379.9c7.7,0,14.3,4.6,17.2,11.3l-2.6,1.6c-2.3-5.8-8-9.9-14.6-9.9
			c-6.7,0-12.4,4.1-14.7,10l-2.6-1.6C291.7,384.6,298.3,379.9,306,379.9z M306,372c10.5,0,19.6,6.1,24,15l-2.8,1.7
			c-3.7-7.9-11.8-13.4-21.2-13.4c-9.4,0-17.5,5.6-21.2,13.6l-2.8-1.7C286.3,378.2,295.4,372,306,372z"/>
	</g>
</g>
</svg>
