<?xml version="1.0" encoding="utf-8"?>

<!--
 * Copyright (c) 2015, WSO2 Inc. (http://www.wso2.org) All Rights Reserved.
 *
 * WSO2 Inc. licenses this file to you under the Apache License,
 * Version 2.0 (the "License"); you may not use this file except
 * in compliance with the License.
 * You may obtain a copy of the License at
 *
 * http://www.apache.org/licenses/LICENSE-2.0
 *
 * Unless required by applicable law or agreed to in writing,
 * software distributed under the License is distributed on an
 * "AS IS" BASIS, WITHOUT WARRANTIES OR CONDITIONS OF ANY
 * KIND, either express or implied. See the License for the
 * specific language governing permissions and limitations
 * under the License.
-->

<svg version="1.1" xmlns="http://www.w3.org/2000/svg" xmlns:xlink="http://www.w3.org/1999/xlink" x="0px" y="0px"
	 viewBox="0 0 48 48" enable-background="new 0 0 48 48" xml:space="preserve">
<g id="xq">
	<path id="Doc_9_" d="M31.583,0.018h-1.836L29.738,0.01v0.008H8.225c-1.363,0-2.473,1.109-2.473,2.473v43.027
		c0,1.363,1.109,2.473,2.473,2.473h31.551c1.363,0,2.473-1.109,2.473-2.473V10.243L31.583,0.018z M39.775,46.556H8.225
		c-0.573,0-1.038-0.466-1.038-1.038V2.49c0-0.571,0.465-1.038,1.038-1.038h21.514v8.184c0,1.302,1.06,2.361,2.361,2.361h8.714
		v33.521C40.813,46.09,40.348,46.556,39.775,46.556z"/>
	<g id="Markup_7_">
		<polygon points="23.502,40.906 28.351,43.146 28.351,42.077 24.682,40.482 24.682,40.463 28.351,38.86 
			28.351,37.791 23.502,40.04 		"/>
		<polygon points="29.088,43.548 30.106,43.548 32.263,36.239 31.245,36.239 		"/>
		<polygon points="32.839,37.791 32.839,38.86 36.59,40.463 36.59,40.482 32.839,42.086 32.839,43.146 
			37.688,40.938 37.688,40.009 		"/>
	</g>
	<g>
		<path d="M27.454,22.067c-0.623,0.008-1.105,0.284-1.447,0.828c-0.344,0.536-0.514,1.214-0.514,2.036
			s0.174,1.492,0.525,2.01c0.334,0.544,0.809,0.82,1.424,0.828h0.012c0.631-0.008,1.113-0.284,1.447-0.828
			c0.328-0.519,0.492-1.201,0.492-2.047c0-0.797-0.164-1.463-0.492-1.999C28.567,22.351,28.085,22.075,27.454,22.067z"/>
		<path d="M43.202,17.17H4.797c-0.97,0-1.755,0.787-1.755,1.756v11.948c0,0.971,0.785,1.756,1.755,1.756h38.405
			c0.97,0,1.756-0.785,1.756-1.756V18.926C44.958,17.956,44.172,17.17,43.202,17.17z M21.039,29.148l-0.742-1.531
			c-0.273-0.56-0.516-1.066-0.729-1.52h-0.024c-0.162,0.453-0.376,0.96-0.641,1.52l-0.671,1.531H16.12l2.368-4.279l-2.285-4.181
			h2.125l0.718,1.544c0.237,0.482,0.445,0.95,0.623,1.403h0.024c0.178-0.494,0.364-0.961,0.558-1.403l0.694-1.544h2.112
			l-2.385,4.126l2.51,4.334H21.039z M30.913,30.607c-1.121-0.344-2.211-0.742-3.27-1.196c-0.188-0.073-0.375-0.114-0.563-0.122
			c-0.965-0.069-1.797-0.46-2.499-1.171c-0.726-0.703-1.097-1.745-1.112-3.127c0.008-1.303,0.375-2.366,1.102-3.188
			c0.71-0.821,1.691-1.24,2.939-1.256c1.27,0.016,2.24,0.439,2.91,1.269c0.654,0.813,0.986,1.813,0.994,2.998
			c-0.008,0.965-0.203,1.77-0.582,2.415c-0.377,0.65-0.848,1.106-1.416,1.367v0.05c0.672,0.184,1.35,0.343,2.037,0.478
			L30.913,30.607z"/>
	</g>
</g>
</svg>
