<?xml version="1.0" encoding="utf-8"?>

<!--
 * Copyright (c) 2015, WSO2 Inc. (http://www.wso2.org) All Rights Reserved.
 *
 * WSO2 Inc. licenses this file to you under the Apache License,
 * Version 2.0 (the "License"); you may not use this file except
 * in compliance with the License.
 * You may obtain a copy of the License at
 *
 * http://www.apache.org/licenses/LICENSE-2.0
 *
 * Unless required by applicable law or agreed to in writing,
 * software distributed under the License is distributed on an
 * "AS IS" BASIS, WITHOUT WARRANTIES OR CONDITIONS OF ANY
 * KIND, either express or implied. See the License for the
 * specific language governing permissions and limitations
 * under the License.
-->

<svg version="1.1" xmlns="http://www.w3.org/2000/svg" xmlns:xlink="http://www.w3.org/1999/xlink" x="0px" y="0px"
	 viewBox="0 0 48 48" enable-background="new 0 0 48 48" xml:space="preserve">
<g id="xslt">
	<path id="Doc_1_" d="M31.583,0.018h-1.836L29.738,0.01v0.008H8.225c-1.363,0-2.473,1.109-2.473,2.473v43.027
		c0,1.363,1.109,2.473,2.473,2.473h31.551c1.363,0,2.473-1.109,2.473-2.473V10.243L31.583,0.018z M39.775,46.556H8.225
		c-0.573,0-1.038-0.466-1.038-1.038V2.49c0-0.571,0.465-1.038,1.038-1.038h21.514v8.184c0,1.302,1.06,2.361,2.361,2.361h8.714
		v33.521C40.813,46.09,40.348,46.556,39.775,46.556z"/>
	<g id="Markup_6_">
		<polygon points="23.502,40.906 28.351,43.146 28.351,42.077 24.682,40.482 24.682,40.463 28.351,38.86 
			28.351,37.791 23.502,40.04 		"/>
		<polygon points="29.088,43.548 30.106,43.548 32.263,36.239 31.245,36.239 		"/>
		<polygon points="32.839,37.791 32.839,38.86 36.59,40.463 36.59,40.482 32.839,42.086 32.839,43.146 
			37.688,40.938 37.688,40.009 		"/>
	</g>
	<path d="M43.202,17.17H4.797c-0.97,0-1.755,0.787-1.755,1.756v11.948c0,0.971,0.785,1.756,1.755,1.756h38.405
		c0.97,0,1.756-0.785,1.756-1.756V18.926C44.958,17.956,44.172,17.17,43.202,17.17z M15.892,29.148l-0.742-1.531
		c-0.273-0.56-0.516-1.066-0.729-1.52h-0.024c-0.162,0.453-0.376,0.96-0.641,1.52l-0.671,1.531h-2.112l2.368-4.279l-2.285-4.181
		h2.125l0.718,1.544c0.237,0.482,0.445,0.95,0.623,1.403h0.024c0.178-0.494,0.364-0.961,0.558-1.403l0.694-1.544h2.112l-2.385,4.126
		l2.51,4.334H15.892z M23.892,28.498c-0.554,0.516-1.408,0.779-2.561,0.791c-1.036-0.028-1.827-0.204-2.373-0.526l0.374-1.569
		c0.558,0.331,1.267,0.507,2.127,0.527c0.894-0.013,1.344-0.323,1.353-0.932c0-0.258-0.11-0.48-0.331-0.669
		c-0.217-0.176-0.581-0.345-1.091-0.509c-0.711-0.253-1.271-0.584-1.68-0.993c-0.437-0.413-0.656-0.924-0.656-1.533
		c0.008-0.744,0.296-1.351,0.863-1.821c0.555-0.47,1.325-0.709,2.31-0.717c0.948,0.016,1.664,0.159,2.146,0.429l-0.432,1.532
		c-0.16-0.094-0.386-0.186-0.677-0.276c-0.152-0.045-0.316-0.08-0.493-0.104c-0.177-0.017-0.376-0.025-0.598-0.025
		c-0.411,0-0.717,0.08-0.918,0.239c-0.209,0.16-0.314,0.352-0.314,0.577c0,0.253,0.125,0.464,0.375,0.631
		c0.254,0.176,0.653,0.368,1.198,0.576c1.466,0.519,2.195,1.365,2.187,2.538C24.7,27.385,24.431,27.996,23.892,28.498z
		 M31.173,29.148h-5.105v-8.46h1.85v6.855h3.256V29.148z M36.832,22.294h-2.244v6.854h-1.851v-6.854h-2.213v-1.606h6.308V22.294z"/>
</g>
</svg>
