<?xml version="1.0" standalone="no"?>
<!DOCTYPE svg PUBLIC "-//W3C//DTD SVG 1.1//EN" "http://www.w3.org/Graphics/SVG/1.1/DTD/svg11.dtd" >
<!--
2016-2-3: Created with FontForge (http://fontforge.org)
-->
<svg xmlns="http://www.w3.org/2000/svg" xmlns:xlink="http://www.w3.org/1999/xlink" version="1.1">
<metadata>
Created by FontForge 20150827 at Wed Feb 03 15:12:05 2016
 By Jerad

</metadata>
<defs>
<font id="font-wso2" horiz-adv-x="512" >
  <font-face 
    font-family="font-wso2"
    font-weight="400"
    font-stretch="normal"
    units-per-em="512"
    panose-1="2 0 5 3 0 0 0 0 0 0"
    ascent="448"
    descent="-64"
    bbox="-0.00047022 -10716.5 771.657 451.657"
    underline-thickness="25.6"
    underline-position="-51.2"
    unicode-range="U+E600-E6B0"
  />
    <missing-glyph />
    <glyph glyph-name="uniE615" unicode="&#xe615;" 
d="M493.202 210.798c9.39941 0 18.7979 -9.39941 18.7979 -18.7979s-7.05859 -18.7979 -18.7979 -18.7607h-218.404v-218.441c0 -9.39941 -7.05859 -18.7979 -18.7979 -18.7979c-9.39844 0 -18.7979 9.39844 -18.7979 18.7979v218.404h-218.404
c-9.39941 0 -18.7979 9.39941 -18.7979 18.7979s9.39844 18.7979 18.7607 18.7979h218.441v218.404c0 9.39941 9.39941 18.7979 18.7979 18.7979s18.7979 -9.39844 18.7607 -18.7607v-218.441h218.441z" />
    <glyph glyph-name="uniE600" unicode="&#xe600;" 
d="M512 395.691v-293.485h-99.6104l-44.0098 61.8135h84.0332l0.0126953 169.191h-392.768l-0.0712891 -169.075l84.709 -0.116211l-44.8838 -61.8135h-99.4121v293.485h512zM433.698 -11.6914h-350.208l173.202 227.548z" />
    <glyph glyph-name="uniE606" unicode="&#xe606;" horiz-adv-x="424" 
d="M394.972 298.057c14.6279 0 29.2568 -14.6279 29.2568 -29.2568v-131.657c0 -14.6279 -14.6289 -29.2568 -29.2568 -29.2568c-14.6289 0 -29.2578 14.6289 -29.2578 29.2568v131.657c0 18.2861 14.6289 29.2568 29.2578 29.2568zM354.742 173.714v-120.686
c0 -10.9717 -7.31348 -18.2852 -18.2852 -18.2852h-36.5713v-73.1426c0 -10.9727 -14.6289 -25.6006 -29.2578 -25.6006c-14.6279 0 -29.2568 14.6279 -29.2568 29.2568v73.1436h-54.8564v-73.1436c0 -14.6289 -14.6289 -29.2568 -29.2578 -29.2568
s-29.2568 14.6279 -29.2568 29.2568v73.1436h-36.5713c-10.9717 0 -18.2861 7.31348 -18.2861 18.2852v120.687v113.371h18.2861h245.028h18.2852v-18.2861v-98.7432zM155.062 346.697c10.9717 0 19.749 9.14258 19.749 19.749c0 10.9707 -8.77734 19.748 -19.749 19.748
c-8.77734 0 -16.0908 -5.48535 -18.6514 -13.166v-0.365234c-0.365234 -0.731445 -0.365234 -1.46289 -0.365234 -2.19434c-0.366211 -0.366211 -0.366211 -0.731445 -0.366211 -1.09668v-1.09766c-0.365234 -0.731445 -0.365234 -1.09766 -0.365234 -1.82812
c0 -10.6064 8.77734 -19.749 19.748 -19.749zM254.537 366.446c0 -10.6064 8.77734 -19.749 19.748 -19.749c10.9717 0 19.749 9.14258 19.749 19.749c0 10.9707 -8.77734 19.748 -19.749 19.748c-10.9707 0 -19.748 -8.77734 -19.748 -19.748zM303.908 442.515
l-25.5996 -31.0859c69.1201 -29.623 69.1201 -102.4 69.1201 -102.4h-274.286s3.65723 71.3145 67.291 104.595l-22.6738 28.8916l6.58301 5.48535l25.9658 -32.9141c18.2852 7.31445 36.2061 10.9707 61.8057 10.9707c24.1377 0 41.6914 -3.29102 58.8799 -9.87402
l25.9658 31.8174zM29.2568 298.057c14.6289 0 29.2578 -14.6279 29.2578 -29.2568v-131.657c0 -14.6279 -14.6289 -29.2568 -29.2578 -29.2568s-29.2568 14.6289 -29.2568 29.2568v131.657c0 18.2861 10.9717 29.2568 29.2568 29.2568z" />
    <glyph glyph-name="uniE601" unicode="&#xe601;" horiz-adv-x="509" 
d="M0 192c0 14.4092 11.6445 26.0762 25.9463 26.0762h41.9209v-52.1514h-41.9209c-14.3018 0 -25.9463 11.667 -25.9463 26.0752zM0 276.773c0 14.4082 11.6445 26.1113 25.9463 26.1113h41.9209v-52.1875h-41.9209c-14.3018 0 -25.9463 11.667 -25.9463 26.0762z
M509.463 276.846c0 -14.4082 -11.6445 -26.1113 -25.9463 -26.0742h-41.9209v52.1143h41.9209c14.3018 0 25.9463 -11.6299 25.9463 -26.04zM144.396 -37.9238v42.1299h51.8936v-42.1299c0 -14.373 -11.6084 -26.0762 -25.9463 -26.0762
c-14.3018 0 -25.9473 11.666 -25.9473 26.0762zM0 107.228c0 14.373 11.6445 26.0029 25.9463 26.0391h41.9209v-52.1133h-41.9209c-14.3018 0 -25.9463 11.666 -25.9463 26.0742zM228.785 -37.9238v42.1299h51.8926v-42.1299
c0 -14.373 -11.6084 -26.0762 -25.9463 -26.0762s-25.9463 11.7031 -25.9463 26.0762zM365.067 421.926v-42.1309h-51.8574v42.1309c0 14.3721 11.5371 26.0742 25.874 26.0742c14.3379 0 25.9834 -11.7021 25.9834 -26.0742zM280.678 421.926
c0 0 0 -42.1309 0.0361328 -42.1309h-51.9287v42.1309c0 14.3721 11.6084 26.0742 25.9463 26.0742s25.9463 -11.7021 25.9463 -26.0742zM196.289 421.926h-0.0361328v-42.1309h-51.8574v42.1309c0 14.3721 11.5732 26.0742 25.9102 26.0742
c14.3389 0 25.9834 -11.7021 25.9834 -26.0742zM483.517 133.23c14.3018 0 25.9463 -11.6299 25.9463 -26.04c0 -14.3711 -11.6084 -26.0742 -25.9463 -26.0742h-41.9209v52.1143h41.9209zM389.63 354.743c14.9209 0 27.0381 -12.1787 27.0391 -27.209v-271.067
c0 -14.9941 -12.1182 -27.1719 -27.0391 -27.1719h-269.761c-14.9199 0 -27.0381 12.1777 -27.0381 27.1719v271.104c0 14.9941 12.1182 27.1729 27.0381 27.1729h269.761zM206.479 140.728h27.002l-34.6084 111.579h-32.7871l-33.916 -111.579h26.0186l7.75195 28.6348
h31.9502zM318.015 191.891c6.5498 6.10742 10.0439 15.3975 10.0439 26.4775c0 10.9355 -4.62207 20.1875 -11.7188 25.6377c-7.3877 6.14355 -18.5947 9.10547 -34.0967 9.10547c-15.3213 0 -26.166 -0.987305 -33.916 -2.30469v-110.079h24.8535v40.0459
c2.33008 -0.475586 5.27734 -0.658203 8.58887 -0.658203c14.8105 0 27.6562 3.83984 36.2451 11.7754zM369.252 140.728v111.579h-25.0371v-111.579h25.0371zM483.517 218.076c14.3018 0 25.9463 -11.667 25.9463 -26.0762c0 -14.4082 -11.6445 -26.0752 -25.9463 -26.1113
h-41.9209v52.1875h41.9209zM283.553 233.947c12.6992 0 19.6143 -6.14355 19.6143 -16.4199c0 -11.2275 -8.22363 -18.0303 -21.5791 -18.0303c-3.63965 0 -6.25879 0.183594 -8.40723 0.65918v32.9512c1.82031 0.510742 5.27734 0.839844 10.3721 0.839844z
M313.247 -37.9238v0v42.1299h51.8555v-42.1299c0 -14.373 -11.6084 -26.0762 -25.9453 -26.0762c-14.3389 0 -25.9473 11.666 -25.9473 26.0762h0.0371094zM181.769 233.437c1.63867 -6.47363 3.60254 -14.8857 5.42285 -21.542l6.91309 -23.6611h-24.5264l6.73242 23.6992
c1.6377 6.43555 3.45703 14.8848 4.94824 21.5039h0.509766z" />
    <glyph glyph-name="uniE602" unicode="&#xe602;" 
d="M212.474 310.399c1.88379 2.04395 3.89648 4.05566 5.93945 6.03516l41.9609 41.9287l80.9189 80.9199c5.85938 5.87402 11.6875 8.7168 17.8184 8.7168h0.03125c6.13184 0 11.9746 -2.84277 17.8672 -8.7168l127.047 -127.062
c5.71582 -5.71582 8.49414 -13.0928 7.63184 -20.2783c-0.782227 -6.57812 -4.66309 -12.4219 -10.6172 -16.0303c-9.24512 -5.55566 -20.0391 -3.99219 -28.2139 4.08789l-91.2812 91.2637l-0.0615234 -352.318c-0.0488281 -9.10742 0.383789 -15.4404 -5.1582 -21.667
c-3.84766 -4.32715 -9.53125 -6.70605 -16.8916 -7.04102l-0.623047 -0.0322266l-0.62207 0.0634766c-22.1855 0 -21.7305 17.9951 -21.7148 27.3828c0.148438 87.2412 0.189453 201.275 0.171875 297.666v55.9463l-9.37109 -9.3877
c-27.0791 -27.0791 -54.1582 -54.1904 -81.3662 -81.1738c-3.67188 -3.64062 -8.52539 -6.35547 -13.252 -7.47266c-9.45312 -2.17188 -19.2559 2.61816 -23.918 11.8467c-4.24707 8.30273 -2.81055 18.2656 3.7041 25.3232zM306.884 100.973
c4.2998 -8.4082 2.84473 -18.4951 -3.75195 -25.6426c-1.9082 -2.06836 -3.94434 -4.10645 -6.01465 -6.11035l-42.4873 -42.4561l-81.9365 -81.9365c-5.93359 -5.94922 -11.834 -8.82715 -18.043 -8.82715h-0.0322266c-6.20703 0 -12.125 2.87793 -18.0898 8.82715
l-128.644 128.66c-5.78906 5.78809 -8.60156 13.2578 -7.72852 20.5322c0.791992 6.66211 4.71973 12.5791 10.751 16.2324c9.36133 5.62598 20.29 4.04297 28.5674 -4.13867l92.4287 -92.4121l0.0634766 356.749c0.0488281 9.22266 -0.388672 15.6348 5.2207 21.9404
c3.89648 4.38086 9.65234 6.79004 17.1055 7.12891l0.629883 0.0322266l0.631836 -0.0644531c22.4639 0 22.0039 -18.2207 21.9873 -27.7266c-0.150391 -88.3389 -0.191406 -203.808 -0.175781 -301.409v-56.6504l9.49023 9.50586
c27.4199 27.4199 54.8408 54.8711 82.3887 82.1943c3.71875 3.68652 8.63379 6.43555 13.4199 7.56641c9.57031 2.2002 19.4971 -2.65039 24.2188 -11.9951z" />
    <glyph glyph-name="uniE604" unicode="&#xe604;" horiz-adv-x="443" 
d="M132.067 327.314c40.2295 0 65.8281 -21.9434 98.7432 -21.9434c32.9141 0 51.2002 21.9434 98.7422 21.9434c36.5713 0 73.1426 -18.2852 98.7432 -51.2002c-87.7705 -47.543 -73.1426 -171.886 14.6289 -204.8c-10.9707 -25.6006 -18.2861 -40.2285 -32.9141 -62.1719
c-21.9434 -32.9141 -51.2002 -73.1426 -91.4287 -73.1426c-32.9141 0 -43.8867 21.9434 -87.7715 21.9434c-47.543 0 -54.8574 -21.9434 -91.4287 -21.9434s-65.8291 36.5713 -87.7715 69.4854c-58.5137 91.4287 -65.8281 201.143 -29.2568 259.657
c25.6006 40.2295 69.4854 62.1719 109.714 62.1719zM314.925 448c7.31445 -32.9141 -7.31445 -62.1719 -21.9434 -84.1143c-18.2861 -21.9424 -51.1992 -40.2285 -80.4561 -40.2285c-3.6582 29.2568 7.31348 62.1709 25.5986 80.457
c18.2861 25.5996 51.2002 40.2285 76.8008 43.8857z" />
    <glyph glyph-name="uniE608" unicode="&#xe608;" horiz-adv-x="481" 
d="M469.329 352.019c6.72363 -2.79883 11.2295 -9.82422 11.2295 -17.4824v-283.794c0 -7.56934 -4.30078 -14.4004 -10.957 -17.3936l-226.318 -96.8633c-2.06543 -0.915039 -4.36914 -1.37402 -6.65625 -1.37402c-2.45801 0 -4.89844 0.529297 -7.03125 1.51465
l-218.793 95.3496c-6.58789 2.99219 -10.8027 9.78809 -10.8027 17.3232l0.0175781 252.844c0 6.16211 2.83301 11.9189 7.55957 15.3877c4.59082 3.4502 10.8379 4.34766 16.2646 2.27051l218.775 -80.332c7.03125 -2.69336 11.7246 -9.78809 11.7246 -17.6748
l0.0175781 -236.401l184.352 81.335v240.855l-173.396 -68.502c-3.68555 -1.51367 -7.83301 -1.60156 -11.6729 -0.316406l-231.114 86.4941c-6.96387 2.76367 -11.4863 9.55957 -11.623 17.3584c-0.136719 7.72852 4.35156 14.876 11.1621 17.7812l211.642 85.4023
c3.95898 1.74316 8.97656 1.75977 13.1406 -0.0175781zM400.448 335.259l-163.445 69.4336l-148.735 -61.0186l170.683 -63.5898zM212.495 -9.95996l-0.0166016 211.771l-170.597 66.5469l-0.0175781 -203.18z" />
    <glyph glyph-name="uniE6AB" unicode="&#xe6ab;" 
d="M91.835 203.761h74.3457v-23.4395h-74.3457v23.4395zM406.531 72.0156c-60.7168 -8.05371 -105.54 18.1523 -141.962 63.6543c-2.66309 3.32812 -5.1543 6.79492 -7.74121 10.1846c-0.175781 0.232422 -0.488281 0.360352 -1.08203 0.78125
c-7.51367 -8.97461 -14.5537 -18.4678 -22.6807 -26.9121c-40.3672 -41.9561 -88.7354 -60.2705 -145.916 -43.5537c-57.8369 16.9082 -92.0693 70.0312 -86.5732 129.549c4.92578 53.373 50.0781 98.4238 106.147 106.439
c53.3506 7.62988 95.0205 -13.7676 130.104 -51.6914c6.60254 -7.13672 12.3662 -15.0498 19.1699 -23.4043c16.4189 23.1279 35.1738 42.9111 59.125 57.3281c66.8145 40.2236 153.875 16.3633 185.064 -52.0088c39.4844 -86.5518 -27.2324 -161.556 -93.6562 -170.366z
M228.448 197.277c-7.58691 11.3721 -14.6719 23.2988 -23.7207 33.4346c-20.71 23.1855 -45.4775 39.4443 -81.6357 39.7832c-3.79492 -0.575195 -11.1191 -1.14453 -18.165 -2.85254c-37.7969 -9.15137 -64.9355 -44.6514 -61.4561 -79.9863
c5.0625 -51.4199 55.4736 -85.4844 105.465 -70.8789c38.3145 11.1934 62.167 38.9727 80.6426 72.3926c1.08301 1.95508 0.269531 6.00879 -1.12988 8.10742zM449.151 242.29c-24.1562 27.1162 -64.0244 35.8369 -97.8789 21.3525
c-31.8174 -13.6113 -52.9023 -38.2676 -69.0029 -67.8193c-1.2207 -2.24121 -0.625 -6.51562 0.732422 -8.9502c10.3086 -18.4961 22.96 -35.2031 39.418 -48.75c18.4287 -15.1729 39.1465 -24.4756 63.5469 -24.7285c6.31836 0.862305 12.7227 1.33301 18.9463 2.64746
c58.8193 12.4336 83.2949 82.4043 44.2383 126.248zM393.911 229.118v-25.0137h25.1445v-24.6875h-25.1445v-24.79h-24.46v24.79h-24.7305v24.6875h24.7305v25.0137h24.46z" />
    <glyph glyph-name="uniE690" unicode="&#xe690;" 
d="M508.343 27.4287h-124.343v402.285h124.343v-402.285zM354.743 272.458v-245.029h-120.686v245.029h120.686zM201.143 148.114v-120.686h-120.685v120.686h120.685zM36.5713 -20.1143c153.601 0 321.828 0 475.429 -0.000976562v0v-29.2568v-7.31445h-512v7.31445
v29.2568v464.458v7.31445h36.5713v-471.771z" />
    <glyph glyph-name="uniE60A" unicode="&#xe60a;" 
d="M105.419 245.057h139.524l105.419 -105.419h-244.943v105.419zM71.3125 279.163v-173.632l338.369 -0.696289v173.631zM-0 350.477l477.894 -0.697266v-89.4609h34.1064v-139.525h-34.1064v-87.2686l-477.894 0.696289v316.256z" />
    <glyph glyph-name="uniE60C" unicode="&#xe60c;" horiz-adv-x="371" 
d="M260.78 448l110.08 -108.577v-378.088c0 -14.4775 -10.6533 -25.335 -24.8564 -25.335h-321.146c-14.2051 0 -24.8574 10.8584 -24.8574 25.335v461.33c0 14.4775 10.6533 25.335 24.8574 25.335h218.168v0v0h17.7549zM326.732 -30.5254
c3.55176 0 10.6523 3.61914 10.6533 10.8564v345.567h-69.5029c-14.2051 0 -24.8574 10.8584 -24.8574 25.335v63.292h-198.897c-7.10156 0 -10.6533 -3.61816 -10.6533 -10.8564v-423.338c0 -7.2373 3.55078 -10.8564 10.6533 -10.8564h282.604z" />
    <glyph glyph-name="uniE695" unicode="&#xe695;" 
d="M256 448c142.628 0 256 -113.372 256 -256s-113.372 -256 -256 -256s-256 113.372 -256 256s113.372 256 256 256zM73.1426 192c0 -40.2285 10.9717 -73.1426 32.9141 -102.399l252.343 256c-29.2568 18.2852 -65.8281 29.2568 -102.399 29.2568
c-102.399 0 -182.857 -80.458 -182.857 -182.857zM256 9.14258c102.399 0 182.857 84.1143 182.857 179.2c0 40.2285 -10.9717 76.7998 -32.9141 106.057l-252.343 -256c29.2568 -18.2852 65.8281 -29.2568 102.399 -29.2568z" />
    <glyph glyph-name="uniE60D" unicode="&#xe60d;" horiz-adv-x="371" 
d="M0 448h370.885v-502.629c0 -6.5459 -7.27246 -10.9092 -13.0898 -7.27246l-165.536 103.922c-4.36328 2.9082 -10.1807 2.9082 -14.5449 0l-164.623 -104.649c-5.45508 -3.63672 -13.0908 0.363281 -13.0908 7.27148v503.357zM243.645 136.119
c5.55469 -2.61523 12.0898 1.95996 11.1104 8.16797l-11.4375 60.4492c-0.326172 2.61426 0.327148 4.90137 2.28809 6.8623l43.458 43.457c4.24805 4.5752 1.63379 12.0908 -4.57422 12.7441l-60.7764 8.16895c-2.61426 0.327148 -4.57422 1.96094 -5.88184 3.9209
l-27.7734 54.8936c-2.94141 5.55566 -11.1094 5.55566 -13.7236 -0.326172l-26.4668 -55.2207c-0.980469 -2.28711 -3.26855 -3.9209 -5.55469 -4.24707l-60.7764 -9.80273c-6.20801 -0.980469 -8.49512 -8.49609 -3.9209 -12.7441l44.4385 -42.4775
c1.96094 -1.63379 2.61328 -4.24805 2.28711 -6.53516l-9.47559 -60.7754c-0.980469 -6.20898 5.55469 -10.7832 11.1094 -7.84277l53.9141 29.0811c2.28809 1.30664 4.90137 1.30664 7.18945 0.326172z" />
    <glyph glyph-name="uniE60E" unicode="&#xe60e;" 
d="M422.437 146.212c50.709 -8.07324 89.5635 -51.4531 89.5635 -104.195c0 -58.4775 -47.6318 -105.884 -106.389 -105.884s-106.39 47.4062 -106.39 105.884c0 52.7402 38.8555 96.1221 89.5615 104.195v27.4307h-265.479v-27.5732
c50.666 -8.11133 89.4727 -51.4746 89.4727 -104.186c0 -58.4775 -47.6328 -105.884 -106.389 -105.884c-58.7568 0 -106.389 47.4062 -106.389 105.884c0 52.7725 38.9033 96.1689 89.6533 104.204v61.0479h150.858v30.7783
c-50.7539 8.03223 -89.6582 51.4277 -89.6582 104.202c0 58.4775 47.6318 105.884 106.388 105.884c58.7568 0 106.39 -47.4062 106.39 -105.884c0 -52.707 -38.8057 -96.0693 -89.4658 -104.184v-30.7969h148.271v-60.9238zM192.919 342.116
c0 -35.2988 28.8545 -64.0156 64.3223 -64.0156c35.4688 0 64.3242 28.7168 64.3242 64.0156s-28.8555 64.0176 -64.3232 64.0176s-64.3232 -28.7188 -64.3232 -64.0176zM170.712 41.8838c0 33.7881 -26.5195 61.2559 -59.8887 63.5713h-8.86914
c-33.3701 -2.31543 -59.8887 -29.7832 -59.8887 -63.5713c0 -35.2988 28.8555 -64.0176 64.3232 -64.0176s64.3232 28.7188 64.3232 64.0176zM405.611 -22.001c35.4678 0 64.3232 28.7188 64.3232 64.0176s-28.8555 64.0176 -64.3232 64.0176
s-64.3232 -28.7188 -64.3232 -64.0176s28.8555 -64.0176 64.3232 -64.0176z" />
    <glyph glyph-name="uniE60F" unicode="&#xe60f;" 
d="M512 367.543c0 -32.9141 -25.4189 -65.8281 -54.4688 -73.1436v-120.685v0v0h-90.7803l-101.674 -102.399c-3.62988 -3.65723 -7.26172 -3.65723 -10.8926 0l-101.674 102.399h-54.4678v-80.458c36.3125 -7.31445 61.7305 -40.2285 61.7305 -76.7998
c0 -43.8857 -36.3115 -80.457 -79.8867 -80.457c-43.5742 0 -79.8867 36.5713 -79.8867 80.457c0 36.5713 25.4189 69.4854 58.0996 76.7998v117.028v0v0h90.7803l101.673 102.399c3.63086 3.65723 7.26172 3.65723 10.8936 0l101.673 -102.399h54.4678v80.458
c-36.3115 7.31445 -65.3604 36.5713 -65.3604 76.7998c0 43.8857 36.3115 80.457 79.8867 80.457c43.5742 0 79.8867 -36.5713 79.8867 -80.457zM134.355 16.458c0 29.2578 -21.7881 51.2012 -50.8369 51.2002c-29.0498 0 -50.8369 -21.9434 -50.8369 -51.2002
c0 -29.2559 21.7871 -51.1992 50.8369 -51.1992c29.0488 0 50.8369 21.9434 50.8369 51.1992zM432.113 316.343c29.0498 0 54.4678 21.9434 50.8359 51.2002c0 29.2568 -21.7871 51.1992 -50.8359 51.1992c-29.0498 0 -50.8369 -21.9424 -50.8369 -51.1992
s21.7871 -51.2002 50.8369 -51.2002z" />
    <glyph glyph-name="uniE611" unicode="&#xe611;" horiz-adv-x="509" 
d="M359.617 224.889l-51.1162 0.0273438c-53.4883 0 -104.051 -0.0273438 -157.537 -0.0273438l0.382812 10.6562c0 33.8867 11.2793 63.9609 33.3164 84.667c0.0839844 1.34766 -0.00683594 2.68555 -0.695312 4.02637c-11.0713 47.4863 -47.001 82.7051 -91.29 94.5762
c-7.38184 3.95898 -14.7637 3.95898 -14.7637 15.8301s7.38184 15.8301 18.4531 11.8711c47.2646 -15.5908 92.0244 -59.5244 110.991 -110.008c14.0586 7.4541 29.6738 12.0283 46.4199 12.0283c19.5029 0 37.5391 -6.07227 53.2061 -15.9775
c0.823242 3.63086 2.47168 7.21484 3.44238 11.0723c18.4541 51.4424 51.6709 83.0986 103.342 102.885c7.84961 1.48535 14.7607 0 18.4531 -7.91504c3.58203 -11.3203 -7.27344 -14.1924 -14.6553 -18.1484c-44.2891 -15.8291 -75.9141 -54.5459 -90.6748 -102.032
c0 -0.842773 0.132812 -1.25391 0.182617 -1.90527c17.5088 -18.2285 28.6982 -42.9824 31.084 -70.5479c0 0 1.45898 -17.3936 1.45898 -21.0781zM121.311 207.811c4.18945 0.231445 262.655 0.351562 266.845 0.121094
c3.75293 -0.207031 5.49121 -3.42676 5.50391 -6.88477c0 -0.0478516 -0.160156 -4.9209 4.57617 -3.44141c14.5342 3.44141 31.8682 6.88184 46.4004 10.3262c7.66699 2.18652 8.63867 3.6875 10.8994 10.3252c7.26758 20.6523 18.1318 45.4961 25.3984 66.1504
c3.63281 10.3262 7.30371 16.4629 18.2031 13.0195c10.9004 -3.44141 11.9336 -9.17285 8.2998 -19.499c-14.8955 -31.4229 -22.832 -59.6709 -33.7344 -83.7656c-1.90137 -3.8291 -6.49805 -8.42871 -10.8994 -10.3262
c-18.167 -6.88477 -39.9668 -10.3262 -58.1338 -17.2109c-7.2666 -3.44141 -10.8994 -6.88477 -10.8994 -13.7695v-24.0928c0 -10.3281 0.105469 -11.5684 0.105469 -11.5684c18.167 -6.88477 50.7607 -22.8535 68.9277 -29.7383
c8.15723 -3.2334 9.72461 -4.44922 10.8994 -10.3262c7.26758 -41.3066 14.5352 -79.1709 21.8018 -120.476c3.63281 -13.7695 -3.63477 -20.6543 -14.5342 -20.6543c-7.26758 0 -14.5322 6.88477 -18.167 17.2109c-7.26758 34.4219 -10.8994 68.8428 -18.167 103.265
c-0.610352 4.45508 -0.749023 8.84766 -5.83887 11.3584c-14.5352 6.88477 -33.9512 13.6875 -48.4834 20.5723v0c-1.4668 -3.50586 -2.50879 -7.11035 -3.81055 -11.2764c-10.9004 -37.8652 -32.7021 -72.2871 -65.4014 -96.3818
c-21.8018 -17.2109 -43.6006 -24.0938 -65.4023 -24.0938h-2.07617c-21.8008 0 -43.6006 6.88281 -65.4023 24.0938c-32.6992 24.0947 -54.501 58.5166 -65.4014 96.3818c-1.30176 4.16602 -2.34375 7.77051 -3.81055 11.2764v0
c-14.5322 -6.88477 -33.9482 -13.6875 -48.4834 -20.5723c-5.08984 -2.51074 -5.22852 -6.90332 -5.83887 -11.3584c-7.2666 -34.4219 -10.8994 -68.8428 -18.167 -103.265c-3.63477 -10.3262 -10.8994 -17.2109 -18.167 -17.2109
c-10.8994 0 -18.167 6.88477 -14.5342 20.6543c7.2666 41.3047 14.5342 79.1689 21.8018 120.476c1.1748 5.87695 2.74219 7.09277 10.8994 10.3262c18.167 6.88477 50.7607 22.8535 68.9277 29.7383c0 0 0.105469 1.24023 0.105469 11.5684v24.0928
c0 6.88477 -3.63281 10.3281 -10.9004 13.7695c-18.166 6.88477 -39.9658 10.3262 -58.1328 17.2109c-4.40234 1.89746 -8.99805 6.49707 -10.8994 10.3262c-10.9023 24.0947 -18.8379 52.3428 -33.7344 83.7656c-3.63379 10.3262 -2.59961 16.0576 8.2998 19.499
c10.8994 3.44336 14.5703 -2.69336 18.2031 -13.0195c7.2666 -20.6543 18.1309 -45.498 25.3984 -66.1504c2.26074 -6.6377 3.23242 -8.13867 10.8994 -10.3252c14.5322 -3.44434 32.0088 -7.00586 46.5439 -10.4473c4.73633 -1.47852 4.57617 3.39453 4.57617 3.44141
c0.0126953 3.45801 1.75098 6.67773 5.50391 6.88477z" />
    <glyph glyph-name="uniE612" unicode="&#xe612;" 
d="M512 362.602v-59.0225l-512 -0.0175781v59.0225c0 18.8457 18.1611 34.1855 39.3926 34.1855h88.6455v35.5527c0 8.61035 7.9375 15.6777 17.6602 15.6777h1.37598c9.72363 0 17.6611 -7.06738 17.6611 -15.6777v-35.5527h185.768v35.5527
c0 8.61035 7.9375 15.6777 17.6611 15.6777h1.39941c9.69824 0 17.6602 -7.06738 17.6602 -15.6777v-35.5527h85.3848c21.2305 0 39.3916 -15.3223 39.3916 -34.168zM145.578 321.297c19.2041 0 34.7656 13.835 34.7656 30.8613c0 10.7725 -6.2002 20.2393 -15.6084 25.7646
v-22.21c0 -8.62988 -7.9375 -15.6768 -17.6611 -15.6768h-1.37598c-9.72266 0 -17.6602 7.04688 -17.6602 15.6768v23.0879c-10.3027 -5.35352 -17.2266 -15.2695 -17.2266 -26.6426c0 -17.0264 15.5615 -30.8613 34.7666 -30.8613zM368.044 321.297
c19.2041 0 34.7656 13.835 34.7666 30.8623c0 10.751 -6.20117 20.2178 -15.5869 25.7422v-22.1885c0 -8.62988 -7.96094 -15.6768 -17.6602 -15.6768h-1.39941c-9.72363 0 -17.6611 7.04688 -17.6611 15.6768v23.0879
c-10.3018 -5.35352 -17.2256 -15.2695 -17.2256 -26.6426c0 -17.0264 15.585 -30.8613 34.7666 -30.8613zM0 286.464l512 0.0175781v-316.115c0 -18.8477 -18.1611 -34.3662 -39.3926 -34.3662h-433.216c-21.2305 0 -39.3916 15.501 -39.3916 34.3486v316.115z
M128.395 -33.0098v81.3857h-92.4766v-81.3857h92.4766zM128.395 70.499v81.3857h-92.4766v-81.3857h92.4766zM128.395 174.008v81.3857h-92.4766v-81.3857h92.4766zM244.468 -33.0098h0.000976562v81.3857h-92.4775v-81.3857h92.4766zM244.468 70.499h0.000976562v81.3857
h-92.4775v-81.3857h92.4766zM244.468 174.008h0.000976562v81.3857h-92.4775v-81.3857h92.4766zM360.563 -33.0098v81.3857h-92.5v-81.3857h92.5zM360.563 70.499v81.3857h-92.5v-81.3857h92.5zM360.563 174.008v81.3857h-92.5v-81.3857h92.5zM476.637 -33.0098v81.3857
h-92.501v-81.3857h92.501zM476.637 70.499v81.3857h-92.501v-81.3857h92.501zM476.637 174.008v81.3857h-92.501v-81.3857h92.501z" />
    <glyph glyph-name="uniE613" unicode="&#xe613;" 
d="M362.691 364.805h149.309v-391.469h-512v391.469h149.344v45.8594h213.348v-45.8594zM256.018 36.2764c72.5449 0 132.262 58.6543 132.262 132.263s-59.7168 132.262 -132.262 132.262c-72.5459 0 -132.263 -58.6533 -132.263 -132.262
c0 -72.5459 58.6543 -132.263 132.263 -132.263zM345.609 169.602c0 -49.0488 -40.543 -89.5918 -89.5918 -89.5918c-50.1475 0 -89.5928 40.543 -89.5928 89.5918c0 49.0498 39.4453 89.5928 89.5928 89.5928c50.1465 0 89.5918 -40.543 89.5918 -89.5928z" />
    <glyph glyph-name="uniE618" unicode="&#xe618;" horiz-adv-x="510" 
d="M294.088 190.892l213.507 -213.543c3.55371 -3.58203 3.55371 -9.44336 0 -13.0264l-26.4219 -25.6357c-3.55664 -3.58203 -9.37109 -3.58203 -12.9248 0l-212.798 213.516l-211.404 -213.097c-3.52539 -3.55078 -9.29004 -3.55078 -12.8125 0l-28.5918 26.4209
c-3.52246 3.55176 -3.52246 9.36328 0 12.9141l214.828 212.451l-214.805 216.281c-3.55371 3.58203 -3.55371 9.44336 0 13.0254l26.7646 25.1152c3.55371 3.58203 9.36914 3.58203 12.9229 0l213.098 -214.803l213.716 214.636c3.52246 3.55078 9.28906 3.55078 12.8115 0
l25.6406 -25.8457c3.52246 -3.55176 3.52246 -9.36133 0 -12.9141z" />
    <glyph glyph-name="uniE65B" unicode="&#xe65b;" horiz-adv-x="511" 
d="M480.423 42.6045l23.04 -59.6113l-62.5381 32.5488c-55.5898 30.3555 -64.3662 31.085 -78.2637 36.9375c-7.67871 -2.55957 -12.7988 -4.02441 -22.6738 -6.21875c-11.3369 -2.55957 -23.04 -4.3877 -34.377 -5.48438c1.82812 1.46289 2.92578 3.29102 4.3877 5.12109
c8.77734 11.3369 14.9961 23.4043 19.75 35.4727c0.366211 0 1.09668 0.366211 1.46191 0.366211c11.3379 2.56055 15.7256 3.65625 25.2344 7.31543l6.58301 2.55957l6.58301 -2.55957c1.09766 -0.366211 35.4746 -20.1162 78.2627 -41.3262
c-8.04395 21.9414 -24.502 57.0508 -17.9189 75.7031c3.65625 10.2383 9.50879 17.5537 14.627 23.7695l4.02441 4.75488c16.8213 22.3076 25.5986 47.9082 25.5986 73.5088c0 82.2861 -89.5986 149.578 -200.045 149.578c-100.571 0 -183.955 -55.9551 -197.851 -128
c-13.8975 -5.85254 -27.0645 -13.167 -38.7656 -21.9443v0.366211c0 102.766 106.056 186.149 236.616 186.149s236.616 -83.3838 236.616 -186.149c0 -33.6445 -11.3369 -66.5605 -33.2793 -95.4512l-4.38867 -5.48633
c-4.02246 -5.12012 -6.94824 -8.77637 -8.41016 -13.165c-0.366211 -1.82812 -0.366211 -4.02246 -0.366211 -6.58301c0 -13.5312 4.75391 -34.377 16.0918 -62.1719zM312.925 148.297c7.68066 -25.2344 5.48633 -48.6406 -5.12109 -70.583
c-2.92383 -7.31445 -7.31445 -14.2627 -12.4326 -20.8457c-5.12012 -6.58203 -10.6074 -12.8008 -16.458 -17.9199c-19.7471 -18.2852 -44.252 -29.6221 -71.3145 -36.207c-15.7256 -4.02246 -31.8164 -5.85059 -47.9082 -5.85059
c-17.9199 0 -36.2051 2.56055 -54.4912 7.68066c-1.09863 0 -2.56055 0.364258 -3.65625 0.364258c-2.19629 0 -4.39062 -0.364258 -6.21875 -1.09668c-23.04 -9.50879 -45.7139 -19.7471 -68.7549 -29.6221c-1.82812 -0.732422 -3.29004 -1.09863 -5.11816 -1.82812
c3.29004 12.0664 7.3125 23.7695 9.50684 35.4727c4.02441 19.3838 0.732422 37.3037 -10.9707 54.125c-30.3525 42.0586 -25.5986 95.4531 10.6074 132.755c2.92383 2.92578 5.84961 5.48633 8.77637 8.04688c10.6045 9.50879 22.3076 17.1875 34.7432 23.4062
c16.0898 7.67871 34.0117 12.7988 52.6611 15.7256c10.9727 1.46191 21.5781 2.19434 32.1826 2.19434c35.4756 0 69.1211 -9.14355 100.208 -28.8936c25.2344 -16.0908 44.6162 -37.3008 53.7588 -66.9238z" />
    <glyph glyph-name="uniE617" unicode="&#xe617;" 
d="M150.371 96.2256c3.69922 -3.71387 9.70996 -3.72559 13.4229 -0.0244141l296.609 295.665c1.98242 1.97656 5.18848 1.98145 7.17676 0.0107422l40.8701 -40.502c4.71777 -4.67578 4.73535 -12.2959 0.0380859 -16.9932l-340.273 -340.31
c-3.58105 -3.58203 -9.38867 -3.58203 -12.9707 0l-152.3 152.299c-3.89746 3.89648 -3.92969 10.2051 -0.0732422 14.1426l36.3877 37.1514c2.75586 2.81348 7.2793 2.83203 10.0586 0.0410156z" />
    <glyph glyph-name="uniE619" unicode="&#xe619;" 
d="M486.24 235.288c14.6279 0 29.2568 -10.9707 25.5996 -29.2568v-10.9717c0 -18.2852 -14.6289 -29.2568 -29.2578 -29.2568h-266.971c-18.2861 0 -29.2568 14.6289 -29.2568 29.2568v10.9717c0 18.2861 14.6279 29.2568 29.2568 29.2568h270.629zM136.844 222.468
l-57.458 -53.1846l-18.8057 -17.4062l-0.166016 -0.15332c-2.17285 -2.01172 -5.56445 -1.88086 -7.5752 0.291016l-0.154297 0.166992l-17.251 18.6367l-31.0303 33.5244c-2.01074 2.17188 -1.87988 5.5625 0.293945 7.57422l18.9707 17.5605
c2.17285 2.01074 5.56348 1.87988 7.57422 -0.292969l27.2334 -29.4219l53.5254 49.5439c2.26562 2.09766 5.80176 1.96094 7.89844 -0.304688l17.251 -18.6367c2.09668 -2.26562 1.95898 -5.7998 -0.306641 -7.89746zM486.24 394.35
c14.6279 0 29.2568 -10.9717 25.5996 -29.2578v-10.9707c0 -18.2861 -14.6289 -29.2568 -29.2578 -29.2568h-266.971c-18.2861 0 -29.2568 14.6279 -29.2568 29.2568v10.9707c0 18.2861 14.6279 29.2578 29.2568 29.2578h270.629zM136.844 381.529l-57.458 -53.1846
l-18.8057 -17.4062l-0.166016 -0.15332c-2.17285 -2.0127 -5.56445 -1.88086 -7.5752 0.291016l-0.154297 0.166992l-17.251 18.6367l-31.0303 33.5234c-2.01074 2.17285 -1.87988 5.56348 0.293945 7.5752l18.9707 17.5596
c2.17285 2.01074 5.56348 1.88086 7.57422 -0.291992l27.2334 -29.4219l53.5254 49.5439c2.26562 2.09766 5.80176 1.96094 7.89844 -0.304688l17.251 -18.6367c2.09668 -2.26562 1.95898 -5.7998 -0.306641 -7.89746zM486.24 76.2275
c14.6279 0 29.2568 -10.9717 25.5996 -29.2578v-10.9717c0 -18.2852 -14.6289 -29.2568 -29.2578 -29.2568h-266.971c-18.2861 0 -29.2568 14.6289 -29.2568 29.2568v10.9717c0 18.2861 14.6279 29.2578 29.2568 29.2578h270.629zM67.3574 -25.8564
c-37.1426 0 -67.3574 30.2148 -67.3574 67.3584c0 37.1074 30.2148 67.3213 67.3574 67.3213c37.125 0 67.3398 -30.2139 67.3398 -67.3213c0 -37.1436 -30.2148 -67.3584 -67.3398 -67.3584zM67.3574 72.252c-16.9824 0 -30.7852 -13.7852 -30.7852 -30.75
c0 -16.9639 13.8027 -30.7852 30.7852 -30.7852c16.9648 0 30.7676 13.8213 30.7676 30.7852c0 16.9648 -13.8027 30.75 -30.7676 30.75z" />
    <glyph glyph-name="uniE61F" unicode="&#xe61f;" 
d="M256 411.429c-124.343 0 -219.429 -95.0859 -219.429 -219.429s95.0859 -219.429 219.429 -219.429s219.429 95.0859 219.429 219.429s-95.0859 219.429 -219.429 219.429zM256 448v0c142.629 0 256 -113.371 256 -256s-113.371 -256 -256 -256s-256 113.371 -256 256
s113.371 256 256 256z" />
    <glyph glyph-name="uniE61A" unicode="&#xe61a;" 
d="M0 192c0 141.385 114.615 256 256 256s256 -114.615 256 -256s-114.615 -256 -256 -256s-256 114.615 -256 256z" />
    <glyph glyph-name="uniE609" unicode="&#xe609;" 
d="M488.613 211.495c35.1738 -8.52148 20.2344 -37.3125 20.2344 -37.3125c-60.7373 -143.881 -204.654 -222.75 -204.654 -222.75c-25.5645 -18.1289 -37.3105 20.2344 -37.3105 20.2344c-29.8438 58.6348 -103.379 160.927 -103.379 160.927l152.438 169.479
c46.8857 -41.5557 172.672 -90.5781 172.672 -90.5781zM466.204 151.844c0 0 15.9912 29.8438 14.9404 31.9824c0 -1.12305 -137.5 63.8926 -160.96 79.8838l-121.509 -132.17s84.1963 -127.891 94.8564 -154.542l34.1211 20.2344
c-9.24316 14.417 -18.5781 28.7812 -28.083 43.0283c-2.64941 3.97363 -5.3125 7.93555 -8.02246 11.8691c-3.07129 4.45703 -7.04883 10.04 -4.26758 15.707c2.39258 4.87695 8.26367 1.85938 11.6182 -0.258789c0 0 51.1631 -42.6426 58.6318 -46.8857l34.123 30.8945
l-52.2861 65.0488s-7.4707 14.9404 8.52051 9.60938c0 0 42.6426 -34.1201 71.3975 -43.6934l26.6514 36.2246s-48.5986 50.5586 -54.1387 58.2598c0 0 -5.27441 8.71582 5.11426 7.84082c0 0 54.1826 -32.0156 69.292 -33.0332zM293.532 313.786l-148.125 -160.925
l-25.5977 35.1719c-15.9912 33.0342 2.1377 54.3555 2.1377 54.3555l24.2705 27.332l-143.674 130.436c-3.19043 3.19238 -3.19043 8.52246 -1.05371 11.7139l21.3213 23.46c3.19238 1.05176 5.33008 2.10254 7.4707 2.10254c2.13867 0 4.27734 -1.05078 6.38184 -2.1377
l142.986 -129.781l29.6855 32.7852c23.0205 20.7344 47.9736 2.13867 47.9736 2.13867z" />
    <glyph glyph-name="uniE61B" unicode="&#xe61b;" horiz-adv-x="534" 
d="M333.917 266.825l-126.72 -137.838s87.8076 -133.376 98.9258 -161.17l35.584 21.1016s-25.5635 48.8955 -40.0098 61.1475c0 0 -13.3486 18.9072 10.0205 12.2148c0 0 53.3584 -44.4707 61.1475 -48.8965l35.584 32.2197s-4.46094 11.1182 -12.2148 20.0049
l-42.3125 47.835s-7.79004 15.5801 8.88672 10.0205c0 0 44.4707 -35.584 74.459 -45.5674l27.7949 37.7783s-52.2246 50.0293 -55.5889 58.916c0 0 -8.88672 7.79004 4.46191 10.0205c0 0 53.3574 -36.6807 72.2646 -34.4502c0 0 16.6768 31.1221 15.5801 33.3535
c0 -1.1709 -143.397 66.6328 -167.863 83.3096zM329.492 306.834c48.8955 -43.3369 180.077 -94.4639 180.077 -94.4639c36.6816 -8.88672 21.1016 -38.9121 21.1016 -38.9121c-63.3418 -150.053 -213.431 -232.302 -213.431 -232.302
c-26.6602 -18.9072 -38.9121 21.1016 -38.9121 21.1016c-31.1221 61.1475 -107.812 167.827 -107.812 167.827zM31.5811 448c2.23047 0 4.46191 -1.09668 6.65625 -2.23047l145.627 -132.279c1.09766 -1.09668 2.23145 -3.32812 2.23145 -4.46191l32.2188 35.584
c26.6611 15.5801 50.0303 2.23145 50.0303 2.23145l37.7783 -27.7949l-154.479 -167.826l-26.6963 36.6816c-16.6768 34.4502 2.23047 56.6855 2.23047 56.6855l26.6602 30.0254c-2.23047 0 -3.32715 1.09668 -5.55859 2.23047l-145.627 132.279
c-3.32812 3.32715 -3.32812 8.88672 -1.09766 12.2148l22.2354 24.4658c3.32812 1.09766 5.55957 2.19434 7.79004 2.19434z" />
    <glyph glyph-name="uniE61D" unicode="&#xe61d;" 
d="M256 448c141.384 0 256 -114.616 256 -256s-114.616 -256 -256 -256s-256 114.616 -256 256s114.616 256 256 256zM256 -20.1143c116.96 0 212.114 95.1543 212.114 212.114s-95.1543 212.114 -212.114 212.114s-212.114 -95.1543 -212.114 -212.114
s95.1543 -212.114 212.114 -212.114zM376.768 190.484c0 -12.7988 -6.48145 -19.0381 -14.4062 -19.0381h-77.4258c-6.5498 -9.86816 -17.2148 -16.7695 -29.9463 -16.7695c-20.1973 0 -36.5723 16.3721 -36.5723 36.5713c0 14.2939 8.41797 26.3594 20.373 32.3721v106.406
c0 7.92188 7.5293 14.4043 18.4775 14.4043c10.5654 0 18.0938 -6.48242 18.0938 -14.4043v-109.221c4.84375 -3.34766 8.85547 -7.55078 11.6162 -12.7881h75.3838c7.9248 0 14.4062 -4.65332 14.4062 -17.5332z" />
    <glyph glyph-name="uniE61E" unicode="&#xe61e;" 
d="M418.884 226.868c51.4971 0 93.1162 -41.8047 93.1162 -93.2402s-41.6807 -93.1777 -93.1777 -93.1777h-353.793c-35.9209 0 -65.0293 29.1084 -65.0293 65.0918c0 35.9824 29.1709 65.0908 65.0918 65.0908c1.98145 0 3.93262 -0.124023 5.85254 -0.27832
c12.541 41.3711 50.9092 71.502 96.3984 71.502c1.39355 0 2.84863 -0.0625 4.21191 -0.09375c10.7764 57.9082 61.5615 101.787 122.627 101.787c66.1445 0 120.305 -51.5586 124.424 -116.682h0.27832z" />
    <glyph glyph-name="uniE610" unicode="&#xe610;" 
d="M493.714 302.752c10.9717 0 18.2861 -7.26074 18.2861 -18.1562v-330.439c0 -10.8936 -7.31445 -18.1562 -18.2861 -18.1562h-219.428c-10.9717 0 -18.2861 7.2627 -18.2861 18.1562v141.616c-3.65625 -7.26074 -10.9707 -14.5244 -18.2861 -14.5244h-219.428
c-10.9717 0 -18.2861 7.26367 -18.2861 18.1562v330.439c0 10.8955 7.31445 18.1562 18.2861 18.1562h219.428c10.9717 0 18.2861 -7.26074 18.2861 -18.1562v-141.616c3.6582 7.26367 10.9707 14.5244 18.2861 14.5244h219.428zM219.429 117.561v294.127h-182.857v-294.127
h182.857zM475.429 -31.3203v297.653h-182.857v-297.653h182.857zM305.021 124.385l-6.91992 6.86816l73.1426 72.624c3.6582 3.63086 7.31445 3.63086 10.9707 3.63086c7.31543 0 14.6299 -7.26074 14.6299 -14.5234c0 -3.63281 0 -7.26367 -3.6582 -10.8936
l-39.8662 -39.5859h101.951c7.31445 0 14.6289 -7.2627 14.6289 -14.5254c0 -7.26074 -7.31445 -14.5234 -14.6289 -14.5234h-5.33789c-0.524414 -0.0732422 -1.01953 -0.359375 -1.54688 -0.359375h-88.1826l39.8662 -39.585
c3.6582 -3.63086 3.6582 -7.26074 3.6582 -10.8936c0 -7.2627 -7.31445 -14.5234 -14.6289 -14.5234c-3.65625 0 -7.3125 0 -10.9717 3.62988l-73.1426 72.625zM42.1006 264.804c0 7.2627 7.31445 14.5254 14.6289 14.5254h101.951l-39.8662 39.5859
c-3.6582 3.63086 -3.6582 7.26074 -3.6582 10.8936c0 7.2627 7.31445 14.5234 14.6299 14.5234c3.65625 0 7.3125 0 10.9707 -3.63086l73.1426 -72.624l-6.91992 -6.86816l0.0361328 -0.0351562l-73.1426 -72.625c-3.65918 -3.62988 -7.31543 -3.62988 -10.9717 -3.62988
c-7.31445 0 -14.6289 7.26074 -14.6289 14.5234c0 3.63281 0 7.2627 3.6582 10.8936l39.8662 39.585h-88.1826c-0.527344 0 -1.02246 0.286133 -1.54688 0.359375h-5.33789c-7.31445 0 -14.6289 7.2627 -14.6289 14.5234z" />
    <glyph glyph-name="uniE653" unicode="&#xe653;" horiz-adv-x="549" 
d="M182.857 53.0283h201.143v-51.2002h40.2285v-40.2285h-281.6v40.2285h40.2285v51.2002zM32.915 389.485v-270.628h482.742v270.628h-482.742zM0 422.4h548.572v-332.801h-548.572v332.801z" />
    <glyph glyph-name="uniE620" unicode="&#xe620;" 
d="M255.591 119.282c0 -4.16602 1.62207 -8.35938 -1.5918 -12.5264c-1.6543 -4.71875 -14.4385 -4.16699 -20.8623 -4.16699h-17.6514h-35.3027h-30.4688h-30.4688h-35.3037h-17.6514c-6.4248 0 -19.209 -0.551758 -20.8633 4.16699
c-3.21289 4.16699 -1.59082 8.36035 -1.59082 12.5264c1.59082 5.5752 4.77246 11.1475 7.9834 15.3145c6.4248 6.95312 17.6523 12.5283 27.2891 15.3145c9.63574 2.78613 19.2412 5.57422 28.8779 9.74023c14.4385 5.57422 19.2422 20.8887 12.8477 32.0098
c-4.83301 8.35938 -8.0459 16.6924 -11.2568 25.0527c-1.59082 2.78711 -3.18164 5.57422 -4.80371 6.9541c-6.42383 6.9541 -6.42383 15.3145 0 23.6738v8.3623c0 26.4346 20.8643 43.127 44.9404 41.748c24.0742 1.37891 44.9395 -15.3135 44.9395 -41.748v-8.3623
c6.42383 -8.35938 6.42383 -16.7197 0 -23.6738c-1.62305 -1.37988 -3.21289 -4.16699 -4.80371 -6.9541c-3.21191 -8.36035 -6.4248 -16.6934 -11.2578 -25.0527c-6.39453 -11.1211 -1.59082 -26.4355 12.8486 -32.0098c9.63672 -4.16602 19.2422 -6.9541 28.8779 -9.74023
c9.63672 -2.78613 20.8643 -8.36133 27.2881 -15.3145c3.21191 -4.16699 6.39258 -9.73926 7.98438 -15.3145zM463.845 253.123c0 -4.46582 -4.11133 -8.12012 -9.13574 -8.12012h-179.753c-5.02441 0 -9.13574 3.6543 -9.13574 8.12109v7.79688
c0 4.4668 4.11133 8.12109 9.13574 8.12109h179.753c5.02441 0 9.13574 -3.6543 9.13574 -8.12109v-7.79785zM464.067 194.721c0 -4.46582 -4.33398 -8.12012 -9.3584 -8.12012h-179.753c-5.02441 0 -9.13574 3.6543 -9.13574 8.12012v7.79785
c0 4.4668 4.11133 8.12109 9.13574 8.12109h179.753c5.02441 0 9.3584 -3.6543 9.3584 -8.12109v-7.79785zM463.623 136.318c0 -4.46582 -4.33301 -8.12012 -9.35742 -8.12012h-179.753c-5.02539 0 -9.13672 3.6543 -9.13672 8.12109v7.79688
c0 4.4668 4.11133 8.12109 9.13672 8.12109h179.753c5.02441 0 9.35742 -3.6543 9.35742 -8.12109v-7.79785zM484.571 326.476h-457.143v-268.951h457.143v268.951zM488.251 353.904v0c13.0625 0 23.749 -10.6865 23.749 -23.749v-276.311
c0 -13.0625 -10.6865 -23.749 -23.749 -23.749h-464.502c-13.0625 0 -23.749 10.6865 -23.749 23.749v276.311c0 13.0625 10.6865 23.749 23.749 23.749h464.502z" />
    <glyph glyph-name="uniE614" unicode="&#xe614;" 
d="M259.723 165.151c0.0195312 -17.5869 0.0371094 -35.1562 0.0371094 -52.7627c0 -21.3037 -0.0175781 -42.6455 -0.0371094 -63.9492c-0.0185547 -17.4932 -11.2236 -29.8008 -27.2686 -29.8789c-15.8721 -0.0380859 -27.4395 12.4619 -27.5156 29.7656l-0.0380859 54.04
l-155.603 -155.643c-1.54395 -1.5625 -3.125 -3.16309 -4.83887 -4.53418l-0.0380859 -0.0400391c-7.29883 -5.83008 -16.4639 -7.62012 -25.1543 -4.91504c-8.59375 2.70508 -15.3389 9.60254 -18.0439 18.4844c-3.14355 10.3643 -0.248047 19.9307 8.9375 29.1543
c45.959 45.8838 91.8809 91.8057 137.823 137.768l18.3701 18.3682h-13.6826c-12.8818 -0.0380859 -25.7607 -0.0380859 -38.6426 0.0380859c-12.5586 0.0380859 -22.8486 6.85938 -26.8486 17.7588c-3.20117 8.65234 -2.0957 17.7031 2.93359 24.9238
c5.29883 7.60352 14.1025 11.9873 24.1426 12.0254c30.0137 0.113281 60.0244 0.0751953 90.0352 0.0556641l24.543 -0.0185547c19.5889 -0.0195312 30.8506 -11.1846 30.8887 -30.6406zM510.77 428.811c2.69629 -8.65625 0.912109 -17.7842 -4.89551 -25.0537
l-0.0380859 -0.0380859c-1.36621 -1.70801 -2.96191 -3.2832 -4.51758 -4.82129l-155.021 -154.982l53.8242 -0.0380859c17.2344 -0.0751953 29.6826 -11.5957 29.6445 -27.4033c-0.0751953 -15.9805 -12.335 -27.1406 -29.7588 -27.1611
c-21.2168 -0.0175781 -42.4727 -0.0380859 -63.6914 -0.0380859c-17.5381 0 -35.0361 0.0205078 -52.5537 0.0380859c-19.3779 0.0380859 -30.5 11.2568 -30.5186 30.7656l-0.0195312 24.4443c-0.0175781 29.8926 -0.0556641 59.7852 0.0576172 89.6758
c0.0380859 10.0029 4.4043 18.7705 11.9756 24.0469c7.19434 5.01172 16.208 6.1123 24.8242 2.92188c10.8564 -3.98438 17.6514 -14.2344 17.6895 -26.7402c0.0761719 -12.8311 0.0761719 -25.6592 0.0380859 -38.4893v-13.627l18.2939 18.2969
c45.7793 45.7568 91.5186 91.4971 137.219 137.274c9.18555 9.14746 18.7148 12.0312 29.0381 8.90137c8.84375 -2.69629 15.7148 -9.41504 18.4092 -17.9727z" />
    <glyph glyph-name="uniE621" unicode="&#xe621;" horiz-adv-x="402" 
d="M401.752 -10229.8v-411.096c0 -13.9111 -11.3145 -25.2266 -25.2266 -25.2266h-23.3564v28.0312h20.5547v405.488h-260.673v-13.0801h-28.0283v15.8828c0 13.9121 11.3145 25.2266 25.2266 25.2266h266.276c13.9121 0 25.2266 -11.3154 25.2266 -25.2266z
M343.824 -10280.2v-348.497v-4.67188v-4.6709v-28.0303v-4.6709v-4.67188v-15.8828c0 -13.9121 -11.3145 -25.2266 -25.2266 -25.2266h-293.371c-13.9121 0 -25.2266 11.3145 -25.2266 25.2266v411.095c0 13.9121 11.3145 25.2266 25.2266 25.2266h50.4521h4.67188h4.67188
h28.0293h4.67188h4.6709h196.204c13.9111 0.000976562 25.2256 -11.3135 25.2256 -25.2256zM315.796 -10628.7v345.693h-193.402h-4.6709h-4.67188h-28.0293h-4.67188h-4.67188h-47.6494v-405.489h287.767v13.0811v4.67188v4.6709v28.0303v4.6709zM272.195 -10345.6
c6.16602 0 11.2109 -5.0459 11.2109 -11.2129v-2.49121c0 -6.16602 -5.04492 -11.2119 -11.2109 -11.2119h-199.008c-6.16699 0 -11.2119 5.0459 -11.2119 11.2119v2.49121c0 6.16699 5.04492 11.2129 11.2119 11.2129h199.008zM272.195 -10411
c6.16602 0 11.2109 -5.04492 11.2109 -11.2109v-2.49219c0 -6.16602 -5.04492 -11.2109 -11.2109 -11.2109h-199.008c-6.16699 0 -11.2119 5.04492 -11.2119 11.2109v2.49219c0 6.16602 5.04492 11.2109 11.2119 11.2109h199.008zM272.195 -10473.9
c6.16602 0 11.2109 -5.0459 11.2109 -11.2129v-2.49121c0 -6.16602 -5.04492 -11.2119 -11.2109 -11.2119h-199.008c-6.16699 0 -11.2119 5.0459 -11.2119 11.2119v2.49121c0 6.16699 5.04492 11.2129 11.2119 11.2129h199.008zM272.195 -10537.4
c6.16602 0 11.2109 -5.0459 11.2109 -11.2129v-2.49121c0 -6.16699 -5.04492 -11.2119 -11.2109 -11.2119h-199.008c-6.16699 0 -11.2119 5.04492 -11.2119 11.2119v2.49121c0 6.16699 5.04492 11.2129 11.2119 11.2129h199.008zM272.195 -10605.3
c6.16602 0 11.2109 -5.0459 11.2109 -11.2119v-2.49219c0 -6.16699 -5.04492 -11.2109 -11.2109 -11.2109h-199.008c-6.16699 0 -11.2119 5.04395 -11.2119 11.2109v2.49219c0 6.16602 5.04492 11.2119 11.2119 11.2119h199.008z" />
    <glyph glyph-name="uniE622" unicode="&#xe622;" 
d="M20.6816 112.812c0 -7.32812 0 -7.32812 -3.6582 -11.0107c-32.8398 73.4707 -21.8682 194.669 65.6475 275.506c87.625 88.1279 218.953 91.8105 310.125 33.0342c-29.1836 -22.0225 -58.3682 -44.083 -83.8955 -66.1055
c-10.9355 -7.32812 -18.25 -11.0107 -32.8418 -3.68262c-113.078 51.4131 -244.406 -22.0225 -262.656 -146.939c-3.65625 -25.708 0 -55.0967 7.2793 -80.8018zM469.412 329.542c40.1201 -62.459 51.0527 -128.564 36.4258 -201.997c0 0 -107.022 35.9238 -109.386 36.7158
c3.125 20.998 -7.27734 58.7393 -7.27734 58.7393c25.5273 36.7549 54.71 69.8262 80.2373 106.542zM111.928 50.3545c76.5801 -77.1182 207.908 -77.1182 284.562 -0.0371094c10.9346 -11.0117 25.5264 -25.7061 36.4619 -36.7168
c-87.5537 -95.4932 -259 -106.543 -361.144 0zM254.999 248.663l153.172 122.979s15.7871 16.4092 29.1846 3.68359c5.32324 -4.48438 11.1836 -14.5381 -2.44824 -28.1699c-13.0869 -13.0869 -115.337 -148.226 -123.524 -159.056
c0.243164 -2.35254 0.711914 -4.64062 0.711914 -7.05859c0 -37.9951 -30.8037 -68.7988 -68.7988 -68.7988c-37.998 0 -68.7998 30.8037 -68.7998 68.7988c0 37.998 30.8018 68.7998 68.7998 68.7998c4.00879 0 7.88184 -0.520508 11.7031 -1.17871zM243.296 211.042
c-16.5693 0 -30 -13.4307 -30 -30c0 -16.5664 13.4307 -29.9971 30 -29.9971c16.5664 0 29.9971 13.4307 29.9971 29.9971c0 16.5693 -13.4307 30 -29.9971 30z" />
    <glyph glyph-name="uniE623" unicode="&#xe623;" horiz-adv-x="450" 
d="M0 343.24v9.50879c2.33203 10.2002 6.12305 19.6709 12.7549 27.9756c11.2285 14.0576 25.6299 23.9883 41.3877 32.0674c38.29 19.6348 79.585 28.4229 121.972 32.707c40.7812 4.12109 81.5127 3.18164 122.065 -3.05762
c34.043 -5.23828 67.1162 -13.7881 97.9014 -29.7031c15.7295 -8.13184 30.1416 -18.04 41.3594 -32.1104c6.37109 -7.99121 9.91602 -17.1836 12.6494 -26.8223v-11.6221c-2.76465 -9.62305 -6.31738 -18.8135 -12.6816 -26.7969
c-11.2148 -14.0674 -25.6416 -23.9551 -41.3584 -32.0947c-32.707 -16.9385 -67.9414 -25.666 -104.133 -30.6445c-46.6152 -6.41309 -93.2852 -6.18652 -139.846 0.936523c-34.0352 5.20605 -67.0752 13.8193 -97.9053 29.627
c-12.8955 6.6123 -24.8672 14.6025 -35.1436 24.9141c-9.7832 9.81543 -16.2568 21.4736 -19.0225 35.1152zM28.0273 195.95c-13.917 11.1826 -24.2295 24.8223 -28.0273 42.6924v75.0146c2.45996 -9.43262 6.26074 -18.1934 12.4072 -25.8896
c15.0869 -18.8916 35.3828 -30.3457 57.0693 -39.5859c31.9609 -13.6162 65.5605 -20.8154 99.9863 -24.6689c49.5078 -5.54102 98.7422 -4.03711 147.637 5.59766c32.4434 6.39355 63.7773 16.1299 92.0381 33.8516c19.3682 12.1455 35.4043 27.2549 40.9521 50.6953
v-75.0146c-2.53711 -9.73242 -6.08887 -18.9424 -12.4561 -26.96c-11.3037 -14.2373 -25.8096 -24.3203 -41.7588 -32.4795c-40.3008 -20.6162 -83.7793 -29.333 -128.369 -33.2793c-31.0908 -2.75195 -62.2363 -2.44238 -93.3232 0.824219
c-36.2061 3.80371 -71.5488 11.1396 -105.206 25.4414c-14.6318 6.21777 -28.5215 13.7754 -40.9492 23.7607zM18.7148 100.378c-9.60254 9.72559 -15.9932 21.2529 -18.7148 34.7227v73.958c2.76172 -9.50488 6.68164 -18.3857 13.0479 -26.1396
c14.8467 -18.0811 34.4316 -29.3486 55.4512 -38.3408c40.9404 -17.5166 84.1436 -24.8721 128.299 -27.4893c29.7695 -1.76465 59.4629 -0.763672 89.0664 2.98828c38.4434 4.87305 75.8574 13.5 110.456 31.5527c24.501 12.7842 46.0576 28.7324 53.7695 57.4287v-73.958
c-2.38379 -10.3828 -6.36719 -19.96 -13.1748 -28.3516c-11.2158 -13.8262 -25.5244 -23.5938 -41.0957 -31.6348c-32.7393 -16.9082 -68.0029 -25.6133 -104.207 -30.584c-46.2822 -6.35449 -92.6299 -6.14453 -138.865 0.884766
c-34.2305 5.2041 -67.4727 13.8037 -98.4863 29.6797c-13.0635 6.6875 -25.1875 14.791 -35.5459 25.2832zM16.8896 -1.70508c-8.58984 9.19141 -13.9971 20.0361 -16.8896 32.207v75.0156c2.50879 -9.40918 6.29199 -18.1729 12.4531 -25.8564
c15.1152 -18.8496 35.377 -30.3438 57.0713 -39.5566c32.292 -13.7139 66.2236 -20.9658 101.005 -24.7764c49.1514 -5.38574 98.0342 -3.86914 146.552 5.71094c32.4121 6.40039 63.7637 16.0781 92.0146 33.8311c19.3633 12.167 35.3701 27.2598 40.9941 50.6475v-75.0146
c-2.58398 -9.70996 -6.14453 -18.9092 -12.4971 -26.9307c-11.2881 -14.2559 -25.8223 -24.3018 -41.7627 -32.4482c-40.4551 -20.6748 -84.0898 -29.4902 -128.861 -33.2871c-39.2275 -3.32715 -78.4121 -2.22168 -117.362 4.0293
c-33.3174 5.34668 -65.6748 13.8809 -95.833 29.4648c-13.6709 7.06543 -26.2969 15.6348 -36.8838 26.9639z" />
    <glyph glyph-name="uniE624" unicode="&#xe624;" horiz-adv-x="449" 
d="M271.872 226.523v-243.347h59.1729v243.347h-59.1729zM118.784 226.523v-243.347h59.1729v243.347h-59.1729zM32.293 268.544h385.243v-332.544h-385.243v332.544zM127.817 448h193.792v-61.7324h127.781v-66.2314h-449.391v66.2314h127.817v61.7324v0z" />
    <glyph glyph-name="uniE625" unicode="&#xe625;" 
d="M192.454 23.7715c-7.2627 3.65723 -14.5254 3.65723 -18.1562 0s-10.8936 -3.65723 -14.5244 -7.31445c-3.63184 -3.65723 -10.8936 -3.65723 -14.5254 0c-10.8936 7.31445 -21.7871 14.6289 -32.6807 25.5996c-10.8936 10.9717 -18.1562 21.9434 -29.0498 32.915
c-3.63086 3.65723 -3.63086 10.9707 0 18.2852c3.63184 7.31445 7.2627 14.6289 10.8936 21.9434v3.65723c0 7.31445 0 7.31445 -10.8936 10.9707c-21.7871 3.65723 -43.5742 7.31445 -61.7305 14.6289c-7.2627 0 -7.2627 3.65723 -3.63086 7.31445
c14.5244 18.2852 29.0498 36.5713 43.5742 54.8574c3.63086 3.65723 3.63086 3.65723 10.8936 3.65723h79.8867c3.63086 0 7.2627 0 7.2627 3.65625c39.9424 47.543 76.2549 95.0859 119.829 138.972c29.0498 32.9141 65.3623 54.8574 108.937 73.1436
c36.3125 14.6279 76.2549 21.9424 116.198 21.9424h7.2627v-14.6289c-3.63086 -43.8857 -10.8936 -84.1143 -29.0498 -120.686c-14.5244 -36.5713 -36.3115 -65.8281 -65.3613 -95.0859c-43.5742 -43.8857 -90.7803 -84.1143 -141.617 -124.343
c0 0 -3.63086 -3.65723 -3.63086 -7.31348v-80.458c0 -3.65723 0 -7.31348 -3.63184 -10.9707c-18.1562 -14.6289 -36.3115 -29.2578 -54.4678 -43.8857c-3.63086 -3.65723 -7.2627 -3.65723 -7.2627 3.65723c-3.63086 21.9424 -10.8936 43.8857 -14.5244 69.4854v0z
M355.858 250.515c21.7871 0 39.9434 18.2852 39.9434 40.2285c0 21.9424 -18.1562 40.2285 -39.9434 40.2285s-39.9434 -18.2861 -39.9434 -40.2285c0 -21.9434 18.1562 -40.2285 39.9434 -40.2285zM134.354 -5.48535c0 -3.65723 3.63086 -3.65723 7.2627 -3.65723
c-36.3125 -47.543 -87.1494 -54.8574 -141.617 -54.8574c0 54.8574 7.2627 102.4 54.4678 138.972c7.2627 -7.31445 7.2627 -7.31445 3.63184 -14.6289c-14.5254 -21.9424 -18.1562 -43.8857 -21.7871 -65.8281v-21.9434c0 -3.65723 0 -3.65723 3.63086 -3.65723
c32.6807 0 61.7305 7.31445 90.7803 25.6006h3.63086z" />
    <glyph glyph-name="uniE627" unicode="&#xe627;" horiz-adv-x="477" 
d="M39.3604 -31.7402c-3.34473 -2.18457 -5.2959 -2.15332 -7.95898 1.12598c-12.9961 15.9873 -23.4785 33.4141 -30.8369 52.6514c-0.787109 2.05371 -0.71875 4.88867 0.00878906 7.00391c15.1123 43.9834 36.8301 84.5625 63.9736 122.238
c36.0928 50.1064 78.3896 94.04 129.693 128.856c7.03516 4.77637 14.2285 9.34082 21.5312 13.6963c1.95996 1.16699 4.71094 1.97559 6.90137 1.64258c21.6826 -3.28516 41.8789 -10.9238 60.9893 -21.5684c0.516602 -0.286133 0.936523 -0.746094 1.58105 -1.27246
c-11.2197 -22.8438 -26.2637 -42.3926 -47.4863 -56.6465c-7.68848 -5.16797 -15.8994 -9.55762 -24.0049 -14.0762c-1.1416 -0.637695 -3.57227 -0.606445 -4.46191 0.183594c-9.62012 8.53516 -19.5117 6.12695 -29.2783 0.75293
c-15.6904 -8.63672 -27.9775 -21.3594 -39.7764 -34.4961c-17.4023 -19.375 -33.8896 -39.5273 -46.8486 -62.1973c-4.87207 -8.52832 -8.74609 -17.7998 -11.7734 -27.1504c-3.03711 -9.38086 -1.79785 -18.4375 7.21582 -24.875
c0.920898 -0.657227 1.51172 -2.67578 1.2998 -3.89551c-6.01367 -34.0576 -21.0293 -62.5518 -50.7686 -81.9736zM105.385 40.9521c16.2822 -11.7334 28.0801 -24.9014 25.4609 -45.9404c-0.324219 -2.59766 -0.849609 -5.2207 -1.70215 -7.69141
c-6.59961 -19.1162 -18.0996 -34.7236 -34.1943 -46.9043c-6.59961 -4.98828 -13.8652 -5.60059 -21.5342 -2.5918c-6.98828 2.7373 -18.5566 10.7686 -24.5 17.3584c14.9131 9.7041 28.0127 21.248 37.6484 36.3721c9.52148 14.957 15.5293 31.2422 18.8213 49.3975z
M273.441 174.5c-11.6494 -4.32227 -22.9375 -2.83789 -33.3574 3.77734c-5.17383 3.28516 -9.90332 7.26855 -15.7656 11.6299c34.6025 14.9131 58.877 38.8965 74.0488 73.3555c6.00781 -5.50098 11.7207 -10.0498 16.6182 -15.3584
c9.23145 -10.0127 10.2549 -19.0693 3.62109 -30.9893c-7.94043 -14.2666 -18.6934 -26.1953 -32.001 -35.6416c-3.99121 -2.83398 -8.5625 -5.06836 -13.1641 -6.77344zM475.528 258.555c0.435547 -4.83789 1.40234 -9.62988 1.37793 -14.4834
c0.186523 -9.68945 0.600586 -19.3564 -0.544922 -28.9336c-2.60059 -38.5127 -17.1377 -74.8008 -37.5791 -104.889c-20.8564 -30.0029 -48.7812 -53.1152 -78.3516 -68.1895c-7.39941 -3.75586 -15.0879 -6.66211 -22.4365 -9.91602
c-8.29492 -2.58594 -14.1699 -5.03418 -22.4766 -6.82617c-15.5859 -4.14453 -30.293 -5.41406 -44.7422 -6.16113c-28.8154 -0.693359 -54.9883 4.51172 -76.7002 12.4609c-21.7764 7.91602 -39.2002 18.3203 -52.3838 28.1436
c-13.3135 9.71387 -22.3584 19.0068 -28.3262 25.3887c-5.74707 6.59961 -8.81152 10.1211 -8.81152 10.1211c-1.34668 1.54688 -1.18262 3.89258 0.364258 5.24023c1.45898 1.27246 3.63086 1.19727 5.00293 -0.112305l0.220703 -0.211914
s3.23633 -3.11133 9.30371 -8.94141c2.99902 -2.93164 7.18066 -6.03613 11.8018 -9.9541c2.28613 -1.98438 5.11816 -3.66504 7.88379 -5.75293c2.82812 -2.00977 5.72559 -4.28418 9.12012 -6.21289c13.0303 -8.44141 30.0088 -17.085 50.6533 -23.0684
c20.6162 -5.91504 44.8232 -9.1543 70.8779 -7.45801c12.8594 1.27246 26.7393 3.21387 39.6025 7.3457c6.16992 1.36621 14.2129 4.82617 20.4385 6.94824c6.47852 3.19824 13.2705 5.99219 19.751 9.57031c25.8281 14.4619 49.749 35.5732 67.6768 62.2314
c17.4111 26.9014 29.3252 58.874 31.5 92.4189c0.989258 8.35352 0.495117 16.7734 0.317383 25.208c0.0283203 4.22559 -0.911133 8.3916 -1.30371 12.5957c-0.587891 4.15918 -0.81543 8.51855 -1.92285 12.3926l-2.67578 11.957
c-0.81543 3.96973 -2.73145 8.55273 -4.04492 12.8037l-2.1875 6.49609l-0.543945 1.62402l-0.170898 0.510742c0.00585938 -0.0283203 0.0585938 -0.186523 -0.0126953 0.00585938l-0.162109 0.364258l-1.30664 2.91504l-5.18652 11.6748
c-7.79102 15.084 -16.7617 29.748 -28.3545 42.1748c-5.28906 6.66797 -11.9014 12.0352 -17.9375 17.9375c-3.22363 2.72559 -6.66113 5.18066 -9.96582 7.79102l-4.99023 3.86426l-5.32715 3.36621c-13.8398 9.58984 -29.3252 16.1611 -44.7578 21.873
c-7.95898 2.12207 -15.709 4.98535 -23.8057 6.10156c-4.01074 0.681641 -7.97754 1.64648 -11.9912 2.11328c-4.03223 0.354492 -8.04883 0.703125 -12.0469 1.05469c-3.99902 0.522461 -7.99707 0.444336 -11.9824 0.360352
c-3.97949 -0.0458984 -7.94629 -0.0927734 -11.8945 -0.136719c-3.93066 -0.410156 -7.84082 -0.821289 -11.7334 -1.22852c-3.91797 -0.348633 -7.79785 -0.741211 -11.4004 -1.64941c-3.6875 -0.743164 -7.35547 -1.48438 -11.002 -2.21875
c-3.5625 -0.503906 -7.66992 -2.24023 -11.4443 -3.29102c-3.64941 -1.1582 -7.27051 -2.30273 -10.877 -3.44434c-3.45996 -1.46289 -6.9043 -2.92188 -10.3203 -4.36621c-27.3594 -11.7012 -50.0195 -29.5273 -67.3779 -48.9922
c-17.3213 -19.5928 -29.5527 -40.8281 -37.1904 -60.8896c-7.7168 -20.0967 -10.9277 -38.834 -12.3896 -54.2881c-0.376953 -7.76367 -1.0332 -14.748 -0.668945 -20.7002c0.142578 -5.99316 0.0742188 -11.0986 0.755859 -15.4111
c0.958008 -8.52832 1.47168 -13.0742 1.47168 -13.0742c0.230469 -2.04785 -1.24512 -3.88965 -3.28613 -4.11621c-1.93457 -0.220703 -3.69336 1.10156 -4.06934 2.97754c0 0 -0.889648 4.48633 -2.55176 12.9062c-1.01758 4.11621 -1.45898 9.59863 -2.14941 16.0078
c-0.964844 6.44434 -0.84082 13.7529 -0.890625 21.9912c0.520508 16.4033 2.67969 36.5312 9.61816 58.6318c6.88477 22.0225 18.5 46.0586 36.7236 68.333c18.0771 22.1875 42.2871 43.3291 72.499 57.2783c3.77148 1.72949 7.56738 3.47852 11.3877 5.2334
c3.94238 1.40332 7.91211 2.8125 11.9014 4.22852c3.95508 1.24414 7.31543 2.88086 11.8076 3.82031c4.32227 1.0459 8.66211 2.09766 13.0312 3.1582c4.39258 1.20703 8.75195 1.80762 13.1299 2.35254c4.38672 0.59082 8.79883 1.17871 13.2295 1.77344
c4.47461 0.149414 8.96387 0.301758 13.4756 0.448242c4.51758 0.173828 9.05762 0.323242 13.5967 -0.146484c4.54883 -0.314453 9.11719 -0.628906 13.7061 -0.946289c4.57031 -0.444336 9.09766 -1.40918 13.6748 -2.1123
c9.22852 -1.1543 18.1172 -4.12305 27.2246 -6.43457c4.49023 -1.38184 8.84863 -3.20117 13.2988 -4.80078c4.45508 -1.60254 8.88867 -3.29199 13.1016 -5.51367l12.8691 -6.26953l12.2559 -7.5166l6.10742 -3.83691l5.7627 -4.36523
c3.81152 -2.95312 7.75391 -5.77148 11.459 -8.87402c7.01953 -6.66113 14.5645 -12.8594 20.7373 -20.4258c13.3574 -14.2256 23.8682 -30.9561 32.8789 -48.252l6.04492 -13.3545l1.50293 -3.3418l0.186523 -0.419922
c-0.155273 0.463867 0.408203 -1.08594 0.408203 -1.08594l0.267578 -0.81543l0.535156 -1.62695l2.14355 -6.51172c1.35059 -4.48047 3.01172 -8.36719 4.11328 -13.3232l3.29492 -14.7393c1.28809 -4.94727 1.53418 -9.72559 2.18164 -14.5645zM148.362 98.4697
c9.34082 -6.65918 21.5156 -13.6406 36.4443 -19.0078c14.9102 -5.27051 32.5986 -9.08203 51.9268 -8.75586c9.6543 0.00683594 19.6602 1.24805 29.7852 3.37598c5.0625 1.22559 9.67383 2.38965 14.9756 4.12305c2.66309 0.963867 5.34863 1.93164 8.05176 2.90527
c2.09766 0.657227 4.82324 2.18457 7.22461 3.23926c19.8174 9.24121 38.9463 23.1895 53.4326 42.085l5.36719 7.15332c1.77051 2.4082 3.16797 5.08691 4.78516 7.62598c3.37598 5.00977 5.71875 10.6416 8.4541 16.0859c4.60449 11.2607 8.66211 23.0156 10.4072 35.333
c1.35352 6.08008 1.37207 12.3438 1.96094 18.5566c0.126953 3.11816 -0.109375 6.25098 -0.133789 9.37793c-0.046875 3.12988 -0.0751953 6.2666 -0.597656 9.37207l-1.14844 9.34375c-0.516602 3.04297 -1.31641 5.91699 -1.93164 8.88867
c-0.893555 5.66602 -3.68164 12.4805 -5.68164 18.8115l-0.374023 1.09863l-0.0683594 0.152344l-0.239258 0.541016l-0.967773 2.15625l-1.92285 4.31641c-1.34082 2.84668 -2.37695 5.85254 -4.08496 8.50586c-3.11133 5.46387 -6.10742 11.0059 -9.98438 15.9619
c-7.10352 10.3545 -16.002 19.3066 -25.5049 27.25l-7.3584 5.67773c-2.44238 1.89844 -5.19238 3.34473 -7.75684 5.03809c-5.05273 3.5625 -10.7002 6.00781 -16.0889 8.86719c-11.1641 4.82227 -22.6104 8.9668 -34.3623 10.8154
c-11.6553 2.46094 -23.4199 2.53223 -34.8574 2.29004c-5.61914 -0.75 -11.5029 -0.855469 -16.7676 -2.05664c-5.34473 -1.18848 -10.4355 -1.7959 -16.1572 -3.87695c-21.3066 -6.27539 -39.5898 -16.8076 -54.167 -29.5029
c-14.6543 -12.582 -25.6094 -26.9629 -33.2139 -40.8555c-7.62598 -13.9053 -12.2285 -27.1748 -14.748 -38.3643c-2.43359 -11.3125 -3.49707 -20.043 -3.82715 -26.3281c-0.205078 -6.36035 -0.314453 -9.75781 -0.314453 -9.75781
c-0.0625 -2.05371 -1.7832 -3.66504 -3.83984 -3.60254c-1.94727 0.0654297 -3.5 1.62695 -3.59961 3.53711c0 0 -0.170898 3.3916 -0.488281 9.74805c-0.146484 6.42188 -0.00683594 16.3818 1.95996 28.4072c1.9668 12.1133 6.00195 26.6553 13.3604 42.2529
c3.65332 7.81348 8.37305 15.7188 13.8271 23.7686c5.81543 7.76953 12.3184 15.7471 20.2275 22.9805c7.65039 7.52051 16.7607 14.0918 26.5156 20.3398c5.06836 2.79395 10.1055 5.92383 15.6406 8.22363c2.90918 1.25391 5.0752 2.46094 8.65918 3.76465
c2.71289 0.955078 5.44824 1.91016 8.19824 2.87207c5.20312 2.10938 11.8301 3.43457 18.124 4.99023c6.37891 1.61133 12.6914 1.95117 19.1758 2.97168c12.9844 0.821289 26.4229 0.755859 39.7832 -1.70508c26.8047 -4.2002 53.416 -15.7002 75.707 -33.6816
c11.0205 -9.06348 21.3223 -19.3623 29.6357 -31.248c4.47754 -5.71875 8.02441 -12.0527 11.6338 -18.3662c1.95996 -3.07129 3.22949 -6.49316 4.78809 -9.77344l2.24316 -4.96875l1.11719 -2.48535l0.280273 -0.623047l0.139648 -0.307617l0.286133 -0.831055
l0.401367 -1.20996c2.0293 -6.6084 4.49023 -12.4053 5.94336 -20.1367c0.78125 -3.65918 1.72656 -7.34961 2.31445 -10.9775l1.27246 -10.8027c0.550781 -3.58789 0.588867 -7.20898 0.628906 -10.8213c0.015625 -3.6123 0.233398 -7.22461 0.0654297 -10.8184
c-0.663086 -7.16895 -0.821289 -14.3848 -2.37402 -21.3848c-4.58594 -28.3047 -17.3809 -54.332 -34.4717 -75.3398c-16.8887 -21.3418 -39.2939 -36.4844 -61.8984 -46.1553c-2.97461 -1.18848 -5.34473 -2.50781 -8.75488 -3.54395
c-2.73535 -0.889648 -5.45117 -1.77344 -8.14258 -2.65039c-5.49512 -1.63086 -11.7676 -3.12402 -17.418 -4.16016c-11.4346 -1.90137 -22.6299 -2.76953 -33.3359 -2.31836c-21.4629 0.469727 -40.6348 5.89062 -56.4346 12.6143
c-15.8467 6.80762 -28.4385 15.1152 -37.9746 22.8252c-9.46484 7.83789 -15.9717 14.9688 -20.1689 19.9629c-4.07227 5.09961 -6.24414 7.82227 -6.24414 7.82227c-1.28223 1.60156 -1.01758 3.93848 0.584961 5.2207c1.51855 1.21289 3.69922 1.03906 5.00879 -0.345703
l0.22168 -0.233398s2.26758 -2.4082 6.52441 -6.92578c4.30957 -4.44629 11.1201 -10.4766 20.3203 -17.3271z" />
    <glyph glyph-name="uniE626" unicode="&#xe626;" 
d="M36.6182 367.744l-0.046875 -247.852h438.834l0.046875 247.852h-438.834zM0.0458984 404.315h511.954l-0.0458984 -320.994h-511.954zM163.226 70.6992h187.147v-47.6377h37.4287v-37.4297h-262.006v37.4297h37.4297v47.6377z" />
    <glyph glyph-name="uniE628" unicode="&#xe628;" horiz-adv-x="421" 
d="M68.9922 161.134h36.3115v-68.9922h-36.3115v68.9922zM10.8936 186.553c-3.62988 0 -10.8936 3.63184 -10.8936 10.8945c0 7.26074 3.63086 10.8936 10.8936 10.8936h50.8379c0.481445 0.481445 0.913086 0.15332 1.36523 0.166016
c4.29102 9.28027 13.5508 15.8008 24.4443 15.8008c14.9424 0 27.0566 -12.1123 27.0566 -27.0547s-12.1143 -27.0566 -27.0566 -27.0566c-10.707 0 -19.7695 6.35156 -24.1562 15.374c-0.480469 0.143555 -0.957031 0.286133 -1.65332 0.982422h-50.8379zM68.9922 302.752
h36.3115v-68.9922h-36.3115v68.9922zM145.249 26.7803c-10.8936 0 -14.5264 7.2627 -14.5264 14.5234c0 10.8955 3.63281 14.5264 14.5264 14.5264h105.304h101.676h3.62988c7.2627 0 7.2627 -7.26367 7.2627 -14.5264c0 -7.26074 -3.63184 -14.5234 -7.2627 -14.5234
h-3.62988h-206.979zM10.8936 328.17c-3.62988 0 -10.8936 3.63086 -10.8936 10.8936c0 3.63281 3.63086 10.8936 10.8936 10.8936h53.0635c4.55371 8.52148 13.2441 14.5254 23.584 14.5254c14.9424 0 27.0566 -12.1143 27.0566 -27.0566
s-12.1143 -27.0566 -27.0566 -27.0566c-11.6602 0 -21.3857 7.46191 -25.1895 17.8008h-51.458zM145.249 233.76c-10.8936 0 -14.5264 3.62988 -14.5264 14.5234s3.63281 14.5264 14.5264 14.5264h36.3125h68.9912h101.676h3.62988
c3.63086 0 7.2627 -7.26367 7.2627 -14.5264s0 -14.5234 -7.2627 -14.5234h-3.62988h-206.979zM145.249 132.084c-10.8936 0 -14.5264 3.63281 -14.5264 14.5264c0 10.8926 3.63281 14.5234 14.5264 14.5234h105.304h101.676h3.62988
c3.63086 0 7.2627 -7.26074 7.2627 -14.5234c0 -7.26367 0 -14.5264 -7.2627 -14.5264h-3.62988h-206.979zM145.249 335.434c-10.8936 0 -14.5264 3.62988 -14.5264 14.5234c0 10.8926 3.63281 14.5254 14.5264 14.5254h105.304h101.676h3.62988
c3.63086 0 7.2627 -7.2627 7.2627 -14.5254s0 -14.5234 -7.2627 -14.5234h-3.62988h-206.979zM374.015 448c25.4189 0 43.5752 -21.7861 47.2061 -47.2051v-417.59c0 -25.416 -21.7871 -47.2051 -47.2061 -47.2051h-257.815c-25.4189 0 -47.207 21.7871 -47.207 47.2051
v36.3125h36.3115v-36.3125c0 -7.26074 7.2627 -10.8926 10.8955 -10.8926h257.815c7.2627 0 10.8936 7.2627 10.8936 10.8926v417.59c0 7.2627 -7.26074 10.8936 -10.8936 10.8936h-257.815c-7.2627 0 -10.8955 -7.26367 -10.8955 -10.8936v-25.4189h-36.3115v25.4189
c0 25.4189 21.7881 47.2051 47.207 47.2051h257.815zM87.541 28.7725c-10.7383 0 -19.832 6.37891 -24.2031 15.4434c-0.47168 0.0380859 -0.930664 0.0449219 -1.60645 0.720703h-50.8379c-3.62988 0 -10.8936 3.62988 -10.8936 10.8936
c0 3.62988 3.63086 10.8926 10.8936 10.8926h50.8379c0.736328 0.736328 1.25 0.862305 1.74902 0.930664c4.41699 8.94141 13.415 15.2305 24.0605 15.2305c14.9424 0 27.0566 -12.1123 27.0566 -27.0537c0 -14.9424 -12.1143 -27.0576 -27.0566 -27.0576z" />
    <glyph glyph-name="uniE689" unicode="&#xe689;" horiz-adv-x="342" 
d="M338.958 118.215c4.74902 -9.28613 3.14258 -20.4287 -4.14355 -28.3223c-2.10742 -2.28516 -4.35645 -4.53516 -6.64258 -6.75l-46.9287 -46.8926l-90.499 -90.501c-6.55469 -6.57031 -13.0723 -9.74902 -19.9297 -9.74902h-0.0351562
c-6.85645 0 -13.3936 3.17871 -19.9805 9.74902l-142.09 142.107c-6.39355 6.39355 -9.50098 14.6436 -8.53613 22.6787c0.875 7.3584 5.21387 13.8936 11.875 17.9287c10.3389 6.21484 22.4102 4.46484 31.5537 -4.57129l102.088 -102.07l0.0703125 394.035
c0.0537109 10.1855 -0.429688 17.2686 5.7666 24.2324c4.30371 4.83984 10.6611 7.5 18.8936 7.875l0.695312 0.0351562l0.697266 -0.0712891c24.8125 0 24.3037 -20.125 24.2861 -30.624c-0.166016 -97.5723 -0.211914 -225.108 -0.194336 -332.911v-62.5723l10.4814 10.5
c30.2861 30.2852 60.5732 60.6064 91.001 90.7852c4.10742 4.07129 9.53613 7.1084 14.8213 8.35742c10.5713 2.42969 21.5352 -2.92773 26.75 -13.249z" />
    <glyph glyph-name="uniE685" unicode="&#xe685;" 
d="M2.96875 301.845c-0.296875 0.576172 -0.810547 1 -1.0625 1.60059c-0.524414 1.27637 -0.513672 2.64551 -0.803711 3.97559c-0.428711 1.80566 -1.10254 3.52246 -1.10254 5.45996c0 13.4346 10.8926 24.3252 24.3281 24.3252
c4.38184 0 8.27051 -1.4707 11.8213 -3.49707c2.27441 -1.15234 4.53613 -2.37988 6.42676 -4.26855l213.535 -213.365l213.519 213.365c0.267578 0.268555 0.635742 0.353516 0.913086 0.605469c4.40625 4.42871 10.4971 7.17871 17.2383 7.17871
c13.4355 0 24.3262 -10.8936 24.3262 -24.3281c0 -0.0341797 -0.0205078 -0.0625 -0.0205078 -0.0966797c0.0898438 -6.23828 -2.23828 -12.5059 -7.03809 -17.3145l-248.938 -248.71l-248.922 248.71c-1.88574 1.88379 -3.08887 4.11816 -4.2207 6.35938z" />
    <glyph glyph-name="uniE65F" unicode="&#xe65f;" horiz-adv-x="389" 
d="M356.975 157.651l-163.009 -163.689l-161.708 162.543c-9.58008 9.56836 -9.41992 24.9219 0.355469 34.3008c9.80566 9.35059 25.4658 9.20801 35.0312 -0.345703l102.191 -102.902v335.397c0.0429688 13.5537 10.9932 24.7305 24.5488 25.04
c13.5225 0.256836 24.4912 -10.4844 24.5068 -24.0039l0.4375 -335.217l102.226 102.833c9.61426 9.55371 25.2588 9.71191 35.0645 0.345703c9.74414 -9.37988 9.9043 -24.7324 0.355469 -34.3018zM284.688 -14.4619v-0.154297l79.4756 0.154297
c13.5527 -0.0429688 24.7295 -10.9932 25.04 -24.5518c0.256836 -13.5195 -10.4844 -24.4912 -24.0049 -24.5039l-215.964 -0.482422v0.154297l-124.19 -0.154297c-13.5527 0.0419922 -24.7295 10.9932 -25.04 24.5518c-0.256836 13.5195 10.4844 24.4902 24.0049 24.5039z
" />
    <glyph glyph-name="uniE62A" unicode="&#xe62a;" horiz-adv-x="433" 
d="M238.629 96.3291c-15.9453 -1.86523 -32.6211 -2.99902 -49.9932 -3.03516c-104.155 0 -188.636 36.0225 -188.636 80.3105v57.417c0 6.65625 2.04883 13.0566 5.5957 19.3096c20.2607 -35.0713 94.4639 -61.0742 183.004 -61.0742
c88.6123 0 162.779 26.0391 183.003 61.0742c3.65723 -6.18066 5.74219 -12.5801 5.74219 -19.2363v-57.417c0 -13.8242 -8.41211 -26.7705 -22.8936 -38.1074c-0.183594 0.0361328 -0.329102 0.109375 -0.475586 0.146484l-1.09766 5.48535
c-1.79199 8.88672 -9.69141 15.3232 -18.7979 15.3232l-19.8213 -1.6084c-9.65527 -0.87793 -17.1523 -8.81445 -17.4443 -18.4326l-0.183594 -5.5957c-4.0957 -1.79199 -8.08203 -3.87598 -11.8848 -6.25293l-4.79102 3.18164
c-7.86328 5.15625 -19.0537 3.58398 -25.125 -3.62109l-11.8125 -14.043c-3.36426 -3.98633 -4.75391 -8.95996 -4.38867 -13.8242zM236.91 66.8887c-2.19434 2.88965 -5.33984 4.97461 -8.95996 5.74219c6.36328 0.548828 12.6533 1.20703 18.7607 2.04785
c-0.621094 -2.01172 -1.35254 -3.94922 -1.82812 -5.99805l-6.29004 -1.2793c-0.584961 -0.110352 -1.13379 -0.329102 -1.68262 -0.512695zM170.533 -24.5762c0 -0.0361328 0.0361328 -0.0732422 0.0732422 -0.146484c-95.6709 3.87695 -170.606 38.0342 -170.606 79.7627
v57.4541c0 6.65527 2.08496 13.0918 5.5957 19.2363c20.2607 -35.0723 94.4639 -61.0742 183.004 -61.0742c7.45996 0 14.665 0.438477 21.8691 0.804688c-6.65527 -1.46289 -11.7021 -7.05859 -11.9219 -13.9707l-0.0371094 -1.68262
c-1.53516 -0.731445 -3.03516 -1.53516 -4.53418 -2.37695l-1.42676 0.951172c-6.18066 4.0957 -14.9941 2.85254 -19.748 -2.81641l-7.42383 -8.88672c-4.9375 -5.85156 -4.68164 -14.4092 0.547852 -19.8945l1.68262 -1.8291
c-0.438477 -1.24316 -0.84082 -2.55957 -1.16992 -3.83984l-2.1582 -0.438477c-7.42383 -1.5 -12.6172 -8.33887 -11.9951 -15.9453l0.987305 -11.4834c0.621094 -7.57031 6.83887 -13.4951 14.4453 -13.751zM372.225 365.056
c3.25488 -5.8877 5.15625 -12.0684 5.15625 -18.3955v-57.3799c0 -44.3613 -84.5166 -80.3115 -188.745 -80.3115c-104.155 0 -188.636 35.9502 -188.636 80.3115v57.3799c0 6.32715 1.90234 12.4717 5.12012 18.3955c3.69434 -32.4746 84.2979 -58.4775 183.516 -58.4775
c99.292 0 179.896 26.0029 183.589 58.4775zM188.636 324.791c-101.522 0 -183.845 27.209 -183.845 60.7451c0 33.5723 82.3223 60.7812 183.845 60.7812c101.596 0 183.881 -27.1719 183.881 -60.7451c0 -33.6084 -82.2852 -60.7812 -183.881 -60.7812zM240.056 59.502
c0.0361328 0.0361328 0.0361328 0.0361328 0 0.0732422l9.94727 2.01074c-1.57227 -0.658203 -3.07227 -1.53613 -4.35254 -2.74219l-1.06055 -1.02441c-1.46289 0.548828 -2.96191 1.02441 -4.49805 1.46289zM431.324 65.5361l1.53613 -18.2861
c0.474609 -5.63184 -3.36523 -10.7148 -8.85059 -11.8125l-11.1182 -2.26758c-1.2793 -6.80176 -3.4375 -13.4941 -6.39941 -19.7852l8.15527 -8.63086c3.83984 -4.0957 4.05957 -10.4229 0.365234 -14.7383l-11.7754 -14.0068
c-3.65723 -4.27832 -9.94727 -5.15625 -14.6289 -2.04785l-10.0566 6.65625c-5.81543 -3.98633 -12.1426 -7.16797 -18.7979 -9.50879l-0.402344 -12.251c-0.182617 -5.63184 -4.6084 -10.2041 -10.2041 -10.7158l-18.249 -1.57227
c-5.59473 -0.439453 -10.7148 3.36426 -11.8125 8.88672l-2.48633 12.5078c-6.50977 1.24316 -12.7998 3.29102 -18.7979 6.10742l-9.10645 -8.59473c-1.38965 -1.31641 -3.03516 -2.12109 -4.75391 -2.52344c2.74219 5.52246 2.08398 12.1787 -2.30469 16.8594
l-1.57227 1.64551c0.475586 1.31641 0.914062 2.63379 1.28027 3.98633l1.90137 0.366211c7.46094 1.46289 12.6172 8.30176 11.9951 15.9453l-0.987305 11.4834c-0.621094 7.60645 -6.83887 13.4941 -14.4453 13.75l-1.8291 0.0732422
c-0.547852 1.20703 -1.16992 2.37793 -1.79199 3.54785l0.915039 1.38965c4.38867 6.40039 3.21777 14.9209 -2.66992 19.8945l-8.81348 7.4248c-3.84082 3.25391 -9.2168 3.98535 -13.9346 2.63281c1.1709 6.76562 3.14551 13.3848 5.9248 19.6387l-8.08203 8.63086
c-3.83984 4.0957 -4.02246 10.459 -0.402344 14.7383l11.8125 14.0801c3.65723 4.31543 9.91113 5.19336 14.5918 2.08496l9.17969 -6.10742c6.10742 4.35156 12.7266 7.82617 19.7119 10.3496l0.366211 10.8613c0.145508 5.63184 4.57129 10.2031 10.167 10.7158
l18.249 1.57227c5.59473 0.438477 10.7148 -3.36426 11.8125 -8.88672l2.15723 -10.6787c7.16797 -1.28027 14.1172 -3.51074 20.627 -6.65625l7.75293 7.24121c4.05957 3.87598 10.459 4.05957 14.7383 0.402344l14.0068 -11.8125
c4.35156 -3.65723 5.22949 -9.94727 1.97461 -14.665l-6.07129 -9.14355c3.84082 -5.66797 6.94922 -11.8125 9.29004 -18.2852l11.1172 -0.366211c5.63184 -0.109375 10.2402 -4.53418 10.7158 -10.1299zM335.543 12.6533c19.7119 1.60938 34.4141 19.0176 32.7314 38.7656
c-1.64551 19.7129 -19.0537 34.3779 -38.7656 32.7314c-19.6748 -1.68164 -34.377 -19.0537 -32.7314 -38.8018c1.64648 -19.6758 19.0537 -34.4141 38.7656 -32.6953zM269.276 45.7871c2.74219 -2.26758 3.25488 -6.25293 1.16992 -9.17871l-3.80371 -5.74219
c2.4873 -3.58398 4.42578 -7.42383 5.88867 -11.5195l6.98438 -0.219727c3.58398 -0.109375 6.47363 -2.85254 6.76562 -6.40039l0.988281 -11.4834c0.291992 -3.54688 -2.12207 -6.76562 -5.5957 -7.42383l-6.98535 -1.46289
c-0.767578 -4.27832 -2.12109 -8.52148 -4.02246 -12.4707l5.11914 -5.44922c2.41406 -2.59668 2.52344 -6.58301 0.219727 -9.28906l-7.42383 -8.81348c-2.30371 -2.74316 -6.25391 -3.29199 -9.21582 -1.31641l-6.36328 4.20508
c-3.65723 -2.52344 -7.64355 -4.49805 -11.8496 -5.99707l-0.219727 -7.75391c-0.109375 -3.58398 -2.9248 -6.47266 -6.43652 -6.76562l-11.4834 -0.987305c-3.51074 -0.255859 -6.72852 2.12109 -7.42383 5.5957l-1.57227 7.89941
c-4.05957 0.767578 -8.0459 2.08398 -11.8125 3.83984l-5.77832 -5.41211c-2.56055 -2.37793 -6.58301 -2.52344 -9.28906 -0.219727l-8.81348 7.42383c-2.70703 2.30371 -3.25488 6.25391 -1.31738 9.21582l4.38867 6.61914
c-2.26758 3.29199 -4.13281 6.83887 -5.55859 10.6064l-7.86328 0.21875c-3.54688 0.146484 -6.43652 2.88965 -6.72852 6.43652l-0.987305 11.4844c-0.292969 3.51074 2.12109 6.72852 5.59473 7.42383l7.27832 1.49902c0.694336 4.2793 1.97461 8.44824 3.73047 12.4346
l-5.08398 5.44922c-2.4502 2.55957 -2.52344 6.5459 -0.255859 9.25195l7.46094 8.8877c2.2666 2.70605 6.2168 3.25391 9.17871 1.2793l5.81543 -3.83984c3.80273 2.74316 7.97266 4.9375 12.3975 6.50977l0.219727 6.83887
c0.109375 3.58398 2.88867 6.47363 6.43652 6.76562l11.4834 0.987305c3.51074 0.292969 6.76562 -2.12109 7.42383 -5.59473l1.38965 -6.69336c4.49805 -0.876953 8.88672 -2.23047 12.9824 -4.24219l4.86426 4.57129c2.59668 2.41406 6.58301 2.56055 9.28906 0.256836z
M225.902 -20.6992c12.4346 1.02344 21.6865 11.9951 20.626 24.4297c-1.02344 12.4346 -11.9951 21.6865 -24.4297 20.626c-12.3975 -1.06055 -21.6865 -11.9951 -20.626 -24.4297c1.02344 -12.3975 12.0322 -21.6865 24.4297 -20.626z" />
    <glyph glyph-name="uniE62B" unicode="&#xe62b;" 
d="M31.6377 362.612c14.4199 0 29.9385 0.229492 43.2852 -0.113281c5.3418 -0.137695 6.92676 1.6709 6.75586 6.84961c-0.332031 10.0869 0.000976562 20.1943 -0.135742 30.29c-0.0488281 3.60449 0.662109 5.75391 4.93555 5.73047
c56.8408 -0.316406 109.613 -13.3408 154.849 -49.6797c5.23828 -4.20801 9.36426 -9.65332 14.1221 -14.2998c4.88184 4.64844 9.93164 9.77637 15.0088 14.1816c25.4521 22.0801 55.8682 33.9922 87.9629 42.1689c21.2031 5.40137 42.8047 7.89453 64.7451 7.75781
c5.9502 -0.0361328 7.65918 -1.92969 7.41895 -7.67773c-0.410156 -9.8457 0.0410156 -19.7246 -0.15332 -29.584c-0.0839844 -4.27148 1.49316 -5.74902 5.75098 -5.69043c13.6006 0.19043 27.2061 0.0712891 42.0342 0.0712891
c0 -10.3936 -0.0898438 -20.3838 0.0234375 -30.3721c0.125 -11.0039 -1.39844 -10.1914 10.1445 -10.3564c14.4561 -0.207031 23.5234 -10.0508 23.5518 -25.8203c0.0849609 -45.0889 0.0449219 -90.1787 0.046875 -135.269
c0.00292969 -37.8086 0.0498047 -75.6182 -0.03125 -113.427c-0.0283203 -13.6611 -6.18555 -22.542 -17.6533 -25.5732c-2.88867 -0.763672 -106.27 -0.93457 -154.882 -0.767578c-5.0791 0.0175781 -8.73926 -1.32422 -12.4023 -4.94141
c-22.3223 -22.043 -15.3457 -19.373 -47.7705 -19.4336c-20.666 -0.0390625 -41.3369 0.251953 -61.9961 -0.123047c-8.87012 -0.160156 -16.5312 1.9873 -21.7305 9.1377c-9.51953 13.0947 -22.0078 16.0078 -37.7344 15.6445
c-43.8926 -1.01465 -87.8232 -0.401367 -131.738 -0.342773c-16.6133 0.0234375 -26.0322 9.61328 -26.0361 26.3662c-0.0175781 82.8984 -0.00878906 165.798 0.0175781 248.696c0.00585938 16.3203 9.46387 26.1074 25.6602 25.7646
c6.58105 0 6.09766 2.64258 6.09766 8.24316c0 10.5166 -0.146484 21.0527 -0.146484 32.5684zM267.69 54.96c12.418 9.98047 23.5215 20.1406 35.8242 28.5439c29.6074 20.2207 62.0078 34.0303 97.9414 38.0303c6.88867 0.767578 8.84766 2.73047 8.8252 9.73145
c-0.267578 81.9424 -0.172852 163.885 -0.193359 245.827c-0.000976562 2.2832 0.3125 5.74805 0.194336 8.01855c-1.09961 0.306641 -7.16895 -0.381836 -9.26074 -0.601562c-36.5771 -3.83105 -71.5234 -13.1904 -102.56 -33.46
c-10.0195 -6.54395 -18.4785 -15.7207 -26.7812 -24.5156c-2.83008 -2.99707 -4.18848 -8.50781 -4.20117 -12.875c-0.242188 -83.8193 -0.185547 -167.639 -0.170898 -251.458c0.000976562 -2.2666 0.233398 -4.53223 0.381836 -7.24121zM244.367 54.1064
c0.168945 3.54785 0.371094 5.8125 0.37207 8.07617c0.0322266 80.751 -0.306641 161.505 0.383789 242.25c0.125977 14.6738 -4.87988 25.29 -15.2305 34.4072c-2.98926 2.63379 -6.02637 5.24609 -9.25488 7.57227c-24.6104 17.7246 -52.4414 27.833 -81.8652 33.7939
c-11.7979 2.39062 -23.8418 3.56543 -36.7998 5.44238v-9.26855c-0.00878906 -79.8135 -0.015625 -159.627 -0.0244141 -239.44c-0.00195312 -13.4443 0.0136719 -13.3369 12.9277 -15.5117c38.167 -6.42676 72.6377 -21.5596 103.446 -44.8555
c8.72754 -6.60059 16.6309 -14.292 26.0449 -22.4658zM454.826 68.3389v271.355c-5.05078 0 -9.68359 0.0126953 -14.3174 -0.00292969c-9.98828 -0.0351562 -10.0312 -0.0410156 -10.0332 -9.80762c-0.00488281 -72.1104 0.0166016 -223.175 0.0166016 -227.085
c-41.3652 0.610352 -78.585 -8.9502 -110.914 -34.46h135.248zM192.416 68.4668c-32.4463 25.5068 -69.7656 34.9375 -110.819 34.3594c0 3.44141 0.0214844 204.593 -0.0478516 230.191c-0.00683594 2.80859 1.08203 6.60547 -3.87207 6.62695
c-6.72559 0.0302734 -13.4521 0.0078125 -20.418 0.0078125v-271.186h135.157zM228.269 284.817c-1.60059 0 -3.20312 0.601562 -4.43555 1.80957c-42.1846 41.2949 -104.429 42.0752 -105.053 42.0781c-3.5 0.0166016 -6.32812 2.86719 -6.31445 6.36719
c0.0136719 3.49316 2.84766 6.31738 6.33984 6.31738h0.0185547c2.75293 -0.00878906 67.9375 -0.722656 113.881 -45.6982c2.50293 -2.4502 2.5459 -6.46582 0.0957031 -8.96875c-1.24316 -1.26855 -2.8877 -1.90527 -4.53223 -1.90527zM228.269 232.785
c-1.60059 0 -3.20312 0.602539 -4.43555 1.80957c-42.1846 41.2949 -104.429 42.0752 -105.053 42.0781c-3.5 0.0166016 -6.32812 2.86621 -6.31445 6.36719c0.0136719 3.49316 2.84766 6.31641 6.33984 6.31641h0.0185547
c2.75293 -0.0078125 67.9375 -0.720703 113.881 -45.6973c2.50293 -2.4502 2.5459 -6.46582 0.0957031 -8.96875c-1.24316 -1.26953 -2.8877 -1.90527 -4.53223 -1.90527zM228.269 180.752c-1.60059 0 -3.20312 0.601562 -4.43555 1.80957
c-42.1846 41.2959 -104.429 42.0762 -105.053 42.0781c-3.5 0.0175781 -6.32812 2.86719 -6.31445 6.36816c0.0136719 3.49316 2.84766 6.31738 6.33984 6.31738h0.0185547c2.75293 -0.00878906 67.9375 -0.72168 113.881 -45.6982
c2.50293 -2.4502 2.5459 -6.46582 0.0957031 -8.96875c-1.24316 -1.26855 -2.8877 -1.90625 -4.53223 -1.90625zM228.269 128.721c-1.60059 0 -3.20312 0.601562 -4.43555 1.80957c-42.1846 41.2949 -104.429 42.0752 -105.053 42.0781
c-3.5 0.0175781 -6.32812 2.86719 -6.31445 6.36719c0.0136719 3.49414 2.84766 6.31738 6.33984 6.31738h0.0185547c2.75293 -0.00878906 67.9375 -0.72168 113.881 -45.6982c2.50293 -2.44922 2.5459 -6.46582 0.0957031 -8.96777
c-1.24316 -1.26953 -2.8877 -1.90625 -4.53223 -1.90625zM281.023 286.723c-2.4502 2.50293 -2.40723 6.51855 0.0966797 8.96875c45.9434 44.9756 111.127 45.6895 113.88 45.6982h0.0195312c3.49121 0 6.3252 -2.82422 6.33887 -6.31738
c0.0146484 -3.5 -2.81445 -6.35059 -6.31445 -6.36719c-0.623047 -0.00292969 -62.8672 -0.783203 -105.052 -42.0781c-1.2334 -1.20801 -2.83496 -1.80957 -4.43652 -1.80957c-1.64453 0 -3.28906 0.636719 -4.53223 1.90527zM281.023 234.69
c-2.4502 2.50293 -2.40723 6.51855 0.0966797 8.96875c45.9434 44.9766 111.127 45.6895 113.88 45.6973h0.0195312c3.49121 0 6.3252 -2.82324 6.33887 -6.31641c0.0146484 -3.50098 -2.81445 -6.35059 -6.31445 -6.36719
c-0.623047 -0.00292969 -62.8672 -0.783203 -105.052 -42.0781c-1.2334 -1.20703 -2.83496 -1.80957 -4.43652 -1.80957c-1.64453 0 -3.28906 0.635742 -4.53223 1.90527zM281.023 182.658c-2.4502 2.50293 -2.40723 6.51855 0.0966797 8.96875
c45.9434 44.9766 111.127 45.6895 113.88 45.6982h0.0195312c3.49121 0 6.3252 -2.82422 6.33887 -6.31738c0.0146484 -3.50098 -2.81445 -6.35059 -6.31445 -6.36816c-0.623047 -0.00195312 -62.8672 -0.782227 -105.052 -42.0781
c-1.2334 -1.20801 -2.83496 -1.80957 -4.43652 -1.80957c-1.64453 0 -3.28906 0.637695 -4.53223 1.90625zM281.023 130.627c-2.4502 2.50195 -2.40723 6.51855 0.0966797 8.96777c45.9434 44.9766 111.127 45.6895 113.88 45.6982h0.0195312
c3.49121 0 6.3252 -2.82324 6.33887 -6.31738c0.0146484 -3.5 -2.81445 -6.34961 -6.31445 -6.36719c-0.623047 -0.00292969 -62.8672 -0.783203 -105.052 -42.0781c-1.2334 -1.20801 -2.83496 -1.80957 -4.43652 -1.80957c-1.64453 0 -3.28906 0.636719 -4.53223 1.90625z
" />
    <glyph glyph-name="uniE62C" unicode="&#xe62c;" 
d="M161.075 -20.2402c-40.252 40.1562 -80.5039 80.3135 -117.097 116.819c91.4814 91.2656 182.153 183.109 273.636 274.375c40.252 -40.1572 81.3154 -80.8916 117.908 -117.397c-91.4824 -94.916 -182.965 -182.531 -274.447 -273.797zM451.692 270.242
c-40.2529 40.1572 -77.5967 77.2949 -117.849 117.452c0 0 0.935547 0.933594 3.65918 3.65039c14.6377 14.6025 28.9062 29.6934 46.7891 48.3936c10.7168 11.2061 25.6152 10.9521 36.5928 0c30.9121 -30.5537 56.4805 -55.6807 84.1641 -83.9648
c10.9775 -10.9512 8.1416 -22.7246 -2.83594 -33.6768c-14.1934 -14.5781 -28.3506 -28.9092 -43.543 -44.7314c-1.60352 -1.66992 -3.22949 -3.34375 -4.88379 -5.01855c-0.693359 -0.701172 -1.39062 -1.40234 -2.09375 -2.10449zM7.38477 -64.0479
c-8.5918 0 -7.31836 7.30078 -7.31836 7.30078c7.31836 47.459 16.5869 89.3213 23.9053 133.129c40.252 -40.1572 76.8701 -76.6885 117.122 -116.845c-43.9111 -7.30176 -89.7969 -16.2842 -133.709 -23.585z" />
    <glyph glyph-name="uniE629" unicode="&#xe629;" 
d="M135.314 195.657c0 -40.2285 -29.2568 -65.8291 -69.4863 -65.8291c-40.2285 0 -65.8281 25.6006 -65.8281 65.8291s29.2568 65.8281 65.8281 65.8281c36.5723 0 69.4863 -29.2568 69.4863 -65.8281zM259.657 261.485c32.9141 0 62.1709 -25.5996 62.1709 -65.8281
s-21.9424 -65.8291 -62.1709 -65.8291s-69.4854 29.2578 -69.4854 65.8291s29.2568 65.8281 69.4854 65.8281zM446.172 261.485c36.5713 0 65.8281 -25.5996 65.8281 -65.8281s-25.5996 -65.8291 -65.8281 -65.8291c-40.2295 0 -65.8291 25.6006 -65.8291 65.8291
s25.5996 65.8281 65.8291 65.8281z" />
    <glyph glyph-name="uniE62D" unicode="&#xe62d;" 
d="M163.547 111.067c6.36426 0 11.5576 -4.79102 11.5576 -11.1543v-105.875c0 -4.64258 -2.81641 -8.85059 -7.13086 -10.6055c-4.2793 -1.79199 -9.25293 -0.802734 -12.5811 2.4873l-25.0889 25.0889l-66.4863 -66.4883c-10.8262 -10.8242 -28.3799 -10.8242 -39.2412 0
l-16.458 16.457c-5.19141 5.19434 -8.11816 12.252 -8.11816 19.6025s2.92676 14.373 8.11816 19.6025l66.4863 66.4512l-25.1221 25.0518c-3.25684 3.29004 -4.24316 8.15332 -2.45117 12.4707c1.75488 4.31445 5.95996 6.91113 10.6426 6.91113h105.873zM74.6045 317.295
l-66.4863 66.4863c-5.19141 5.22949 -8.11816 12.2881 -8.11816 19.6387s2.92676 14.4082 8.11816 19.6025l16.4219 16.457c10.8613 10.8242 28.415 10.8242 39.2412 0l66.4863 -66.4883l25.0869 25.125c3.32812 3.25391 8.30176 4.2793 12.5811 2.45117
c4.31641 -1.79297 7.16895 -5.96289 7.16895 -10.6436v-105.872c0 -6.40234 -5.19336 -11.8867 -11.5576 -11.8867h-105.873c-4.64453 0 -8.85059 2.99805 -10.6426 7.31445c-1.79199 4.31543 -0.805664 9.43555 2.48633 12.7256zM348.453 272.201
c-6.36426 0 -11.5938 5.52246 -11.5938 11.8857v105.875c0 4.64258 2.85254 8.85059 7.16699 10.6406c4.2793 1.79297 9.29102 0.805664 12.5811 -2.48633l25.0889 -25.0869l66.4863 66.4863c10.8262 10.8262 28.3799 10.8262 39.2061 0l16.4551 -16.458
c5.22949 -5.19141 8.15625 -12.2139 8.15625 -19.6025c0 -7.38574 -2.96191 -14.4443 -8.15625 -19.6377l-66.4863 -66.5225l25.0889 -25.125c3.29004 -3.32812 4.24121 -8.33984 2.48633 -12.6543c-1.75586 -4.31445 -5.96191 -7.31445 -10.6426 -7.31445h-105.837z
M256 280.482c48.7861 0 88.4639 -39.6963 88.4639 -88.4824s-39.6777 -88.4639 -88.4639 -88.4639s-88.4824 39.6777 -88.4824 88.4639s39.6963 88.4824 88.4824 88.4824zM256 147.393c24.5889 0 44.6074 20.0186 44.6074 44.6074s-20.0186 44.5889 -44.6074 44.5889
s-44.5889 -20 -44.5889 -44.5889s20 -44.6074 44.5889 -44.6074zM437.357 66.6699l66.4863 -66.4873c5.22949 -5.19336 8.15625 -12.252 8.15625 -19.6025s-2.92676 -14.4082 -8.08301 -19.6377l-16.457 -16.458c-10.8242 -10.8613 -28.3799 -10.8613 -39.2031 0
l-66.4863 66.4863l-25.125 -25.0869c-3.29297 -3.32812 -8.26562 -4.2793 -12.5811 -2.52441c-4.31641 1.79199 -7.16895 5.99805 -7.16895 10.6426v105.875c0 6.36426 5.19336 11.1543 11.5576 11.1543h105.837c4.68066 0 8.88672 -2.5957 10.6426 -6.91309
c1.75488 -4.2793 0.803711 -9.06934 -2.48633 -12.3613z" />
    <glyph glyph-name="uniE630" unicode="&#xe630;" 
d="M158.83 351.269l-62.0986 -62.0615l97.207 -97.1709l-97.1709 -97.2061l62.0625 -62.0625l97.2061 97.207l97.207 -97.207l62.0615 62.0625l-97.2061 97.2061l97.2061 97.1709l-62.0977 62.0615l-97.1709 -97.207zM256 448c141.349 0 256 -114.651 256 -256
c0 -141.422 -114.651 -256 -256 -256c-141.385 0 -256 114.578 -256 256c0 141.349 114.615 256 256 256z" />
    <glyph glyph-name="uniE61C" unicode="&#xe61c;" 
d="M230.4 137.143c0 -3.65723 -3.65723 -3.65723 -3.65723 -7.31445c-47.543 -47.542 -98.7432 -98.7422 -146.286 -146.285c-3.65723 0 -7.31445 0 -7.31445 -3.65723v-3.65723h7.31445h54.8574c14.6279 0 21.9424 -7.31445 21.9424 -21.9424
c0 -7.31445 -10.9707 -18.2861 -21.9424 -18.2861h-109.715c-18.2852 0 -25.5996 7.31445 -25.5996 21.9424v106.058c0 18.2861 7.31445 25.5996 21.9424 25.5996c10.9717 0 21.9434 -10.9707 21.9434 -21.9424v-58.5146l7.31445 7.31445
c47.543 47.543 98.7422 98.7432 146.285 146.286c3.65723 7.31445 10.9717 10.9707 21.9434 7.31445c14.6289 -3.65723 18.2852 -21.9434 10.9717 -32.915zM117.028 360.229c36.5713 -36.5713 73.1436 -73.1426 109.715 -109.714
c7.31445 -7.31445 10.9707 -14.6289 7.31445 -21.9434c0 -7.31445 -7.31445 -14.6289 -14.6289 -14.6289c-10.9717 -3.65625 -14.6289 0 -21.9434 7.31445c-32.9141 32.915 -62.1709 62.1719 -95.085 95.0859c-18.2861 18.2861 -36.5723 36.5713 -54.8574 54.8574
l-3.65723 3.65723v-7.31445v-51.2002c0 -10.9717 -10.9717 -21.9424 -21.9434 -21.9424c-10.9707 0 -21.9424 7.31348 -21.9424 21.9424v109.715c0 14.6279 10.9717 21.9424 21.9424 21.9424h113.372c10.9717 0 21.9424 -10.9717 21.9424 -21.9424
c0 -14.6289 -10.9707 -21.9434 -21.9424 -21.9434h-54.8574h-7.31445v0c14.6289 -14.6289 29.2578 -29.2568 43.8857 -43.8857zM512 67.6572c0 -21.9434 0 -40.2285 -3.65723 -65.8291v-43.8857c0 -18.2852 -7.31445 -25.5996 -21.9424 -25.5996h-109.715
c-10.9717 0 -21.9424 10.9717 -21.9424 21.9434c0 10.9707 7.31445 21.9424 21.9424 21.9424h54.8574h7.31445l-7.31445 7.31445c-47.543 47.543 -98.7432 98.7432 -146.286 146.285c-3.65723 7.31445 -7.31445 14.6289 -7.31445 21.9434
c0 10.9717 7.31445 14.6289 14.6289 18.2861c7.31445 3.65625 14.6289 0 21.9434 -7.31445c14.6279 -14.6289 29.2568 -29.2578 47.543 -43.8857c32.9141 -32.915 69.4854 -69.4863 102.399 -102.4c0 -3.65723 3.65723 -3.65723 3.65723 -7.31445h3.65723v54.8574v7.31445
c0 10.9717 10.9717 18.2852 21.9424 18.2852c10.9717 0 18.2861 -10.9707 18.2861 -21.9424zM292.571 213.942c-14.6289 3.65723 -18.2852 21.9434 -10.9717 32.915l3.65723 3.65723c47.543 47.543 98.7432 98.7422 146.286 146.285l7.31445 7.31445h-7.31445h-54.8574
c-10.9717 0 -21.9424 10.9717 -21.9424 21.9434c0 14.6279 10.9707 21.9424 21.9424 21.9424h109.715c18.2852 0 25.5996 -7.31445 25.5996 -25.5996v-106.058c0 -14.6289 -14.6289 -25.5996 -29.2568 -21.9424c-10.9717 3.65723 -14.6289 10.9707 -14.6289 21.9424v51.2002
v7.31445l-7.31445 -7.31445c-47.543 -47.543 -98.7422 -98.7432 -146.285 -146.286c-7.31445 -7.31445 -10.9717 -10.9707 -21.9434 -7.31445z" />
    <glyph glyph-name="uniE631" unicode="&#xe631;" 
d="M512 230.158v-240.054c0 -29.8359 -24.2773 -54.1123 -54.1133 -54.1123h-403.757c-29.8525 0 -54.1299 24.2764 -54.1299 54.1123v403.758c0 29.8525 24.2773 54.1455 54.1299 54.1455h240.53c11.1523 0 20.1982 -9.0459 20.1982 -20.2139
s-9.0459 -20.2139 -20.1982 -20.2139h-240.53c-7.5498 0 -13.7012 -6.15234 -13.7012 -13.7178v-403.758c0 -7.56543 6.15137 -13.7178 13.7012 -13.7178h403.757c7.56641 0 13.7178 6.15234 13.7178 13.7178v240.054c0 11.168 9.04688 20.2148 20.1982 20.2148
s20.1973 -9.04688 20.1973 -20.2148zM434.313 353.644l-64.2246 59.2979c-8.19043 7.58301 -8.7168 20.3623 -1.11816 28.5703c7.56641 8.22363 20.3623 8.66699 28.5527 1.13477l114.477 -105.759l-110.956 -114.394c-3.94727 -4.0791 -9.24414 -6.13477 -14.5068 -6.13477
c-5.06641 0 -10.1318 1.8916 -14.0791 5.70703c-7.99414 7.7793 -8.19141 20.5596 -0.427734 28.5859l60.252 62.0967c-125.243 -12.3584 -215.925 -60.4414 -269.4 -143.792c-44.3271 -69.1133 -45.5771 -136.911 -45.5771 -137.602
c-0.131836 -11.0859 -9.14453 -19.9678 -20.2139 -19.9678h-0.213867c-11.168 0.0986328 -20.1162 9.24414 -20.001 20.4277c0.03125 3.00586 7.53809 290.195 357.438 321.828z" />
    <glyph glyph-name="uniE632" unicode="&#xe632;" 
d="M192.087 307.681v-52.0264c0 -6.71973 5.48242 -12.2002 12.2021 -12.2002h2.12109c6.71777 0 12.1992 5.48047 12.1992 12.2002v67.1445c10.0791 4.19824 20.8193 7.07227 32.0469 8.44238v-96.0547c0 -6.7168 5.48242 -12.1992 12.2002 -12.1992h2.12305
c6.71777 0 12.1992 5.48242 12.1992 12.1992v96.4971c11.1836 -1.01562 21.9248 -3.53516 32.0469 -7.38184v-68.6475c0 -6.71973 5.48242 -12.2002 12.2002 -12.2002h2.12305c6.71777 0 12.2002 5.48047 12.2002 12.2002v54.7236
c31.0742 -21.5283 51.7168 -57.0664 52.9102 -97.4248h8.35547c3.89062 0 7.02832 -3.18164 7.02832 -7.02734v-12.9531c0 -3.88965 -3.18164 -7.02734 -7.02832 -7.02734h-263.85c-3.88965 0 -7.0293 3.18164 -7.0293 7.02734v12.9082
c0 3.89062 3.18359 7.02734 7.0293 7.02734h9.72461c1.10449 38.7676 20.2012 73.0234 49.1973 94.7725zM363.066 139.044c-3.75781 -9.19238 -4.81836 -11.1836 -4.81836 -11.1836s-2.87402 -6.31836 5.17285 -15.248c4.5957 -3.44727 9.19238 -10.3447 2.87109 -16.4004
c-6.32129 -6.05469 -21.8799 -21.6162 -21.8799 -21.6162s-6.63086 -5.17188 -13.8359 1.45996l-7.2041 6.63086s-5.17188 3.18164 -16.1348 -2.29785c-10.9619 -5.48242 -12.1104 -4.90723 -12.1104 -4.90723s-5.79199 -4.33301 -5.48242 -12.9521
c0.30957 -8.66406 0 -13.5264 -9.76855 -14.4092c-9.76855 -0.885742 -30.501 -0.310547 -30.501 -0.310547s-8.08887 2.0332 -7.77832 10.9629c0.307617 8.92871 -1.15137 10.6514 -1.15137 10.6514s-0.307617 4.33301 -8.35449 7.78027
c-8.08789 3.44727 -14.4092 5.48242 -14.4092 5.48242s-8.0459 4.72949 -13.791 -3.18359c-2.29883 -3.18164 -7.20508 -6.62891 -7.20508 -6.62891s-5.74805 -1.45996 -10.6543 2.29785c-4.90625 3.75684 -22.1895 21.6143 -22.1895 21.6143
s-5.17188 6.63086 1.14941 12.3789c6.32129 5.74512 7.78027 9.19238 7.78027 9.19238s2.29785 4.33301 -2.03516 13.5264c-4.33105 9.19531 -5.47949 11.8037 -5.47949 11.8037s-3.71387 8.35352 -14.1016 7.46973c-10.3867 -0.885742 -13.8359 4.90625 -14.4102 9.50293
c-0.575195 4.59668 -0.882812 17.5488 -0.882812 17.5488h61.3525s-4.33105 -64.2266 67.6318 -70.5479c3.75684 -0.30957 66.2607 2.29883 68.25 70.5479h61.0439v-14.9844s1.41504 -11.8018 -10.0781 -11.8018s-12.9521 -0.575195 -12.9521 -0.575195
s-4.28711 -2.6084 -8.04395 -11.8037zM492.808 282.801c12.7363 -30.1758 19.1924 -62.1572 19.1924 -95.1045c0 -32.9463 -6.45605 -64.9463 -19.1924 -95.1211c-12.3506 -29.1221 -30 -55.2617 -52.3506 -77.6475c-22.4199 -22.3857 -48.5605 -39.999 -77.6475 -52.3496
c-30.1748 -12.7373 -62.1748 -19.1934 -95.1211 -19.1934c-51.4375 0 -100.647 15.8242 -142.296 45.7188c-20 14.3154 -37.7188 31.6133 -52.666 51.3672c-14.6836 19.4033 -26.333 40.7715 -34.6133 63.5078c-0.579102 1.5791 -0.491211 3.40332 0.262695 4.94727
c0.737305 1.50879 2.07031 2.70215 3.66699 3.22852l22.4209 8c3.33301 0.947266 6.87695 -0.59668 8.06934 -3.8252c7.03516 -19.2627 16.9121 -37.3672 29.3506 -53.8232c12.6846 -16.7715 27.7539 -31.4736 44.8242 -43.6836
c35.4375 -25.4385 77.2793 -38.876 120.98 -38.876c28.0693 0 55.2617 5.50781 80.876 16.3506c24.7715 10.4551 46.9463 25.4375 65.999 44.4902c19.0869 19.0869 34.0693 41.2969 44.5605 66.0693c10.8418 25.5781 16.3154 52.8057 16.3154 80.8398
c0 28.0352 -5.47363 55.2451 -16.3154 80.8584c-10.4912 24.7715 -25.4736 46.9824 -44.5264 66.0342c-19.0869 19.0879 -41.2969 34.0693 -66.0332 44.5254c-25.5791 10.8242 -52.8066 16.3154 -80.876 16.3154c-44.0518 0 -86.1387 -13.6133 -121.683 -39.3496
c-17.1221 -12.4033 -32.2275 -27.2803 -44.8936 -44.2275c-5.10547 -6.8418 -9.82422 -14.0527 -14.0703 -21.5264l61.2275 20.5615c1.71875 0.579102 3.57812 0.40332 5.1748 -0.385742c1.61426 -0.825195 2.80762 -2.21094 3.36816 -3.92969l5.52637 -16.8945
c0.561523 -1.70215 0.420898 -3.52637 -0.368164 -5.12305c-0.806641 -1.61426 -2.20996 -2.80664 -3.91211 -3.36816l-111.683 -37.5781c-3.5791 -1.12305 -7.38574 0.753906 -8.54395 4.22754l-8.85938 26.5781c-9.57812 28.7715 -19.0693 57.2627 -28.6133 86.0166
c-0.579102 1.68457 -0.456055 3.52637 0.350586 5.14062c0.807617 1.63086 2.19336 2.82422 3.91211 3.38574l16.4561 5.56152c1.68457 0.560547 3.50879 0.473633 5.1582 -0.351562c1.63184 -0.806641 2.82422 -2.19238 3.38574 -3.91211l22.7715 -66.999
c5.70215 10.5615 12.1934 20.7715 19.4209 30.4561c14.8418 19.9121 32.5957 37.4023 52.7539 51.9814c41.8232 30.2979 91.3135 46.3154 143.12 46.3154c32.9814 0 64.9814 -6.45605 95.1211 -19.2109c29.0869 -12.2979 55.2275 -29.9111 77.6475 -52.3496
c22.3857 -22.3682 40 -48.4902 52.3506 -77.6475z" />
    <glyph glyph-name="uniE678" unicode="&#xe678;" 
d="M512.106 191.861c-1.04883 -143.167 -115.587 -256.367 -256.967 -255.86c-141.544 0.508789 -255.275 114.24 -255.14 256.164c0.137695 143.83 116.285 256.305 256.788 255.833c141.232 -0.472656 254.752 -114.116 255.318 -256.137zM255.881 419.586
c-124.441 0.182617 -227.418 -100.297 -227.802 -227.83c-0.37793 -125.477 103.223 -227.773 228.336 -227.4c124.733 0.37207 227.3 100.582 227.305 227.612c0.00390625 128.306 -104.021 228.014 -227.839 227.618zM283.819 248.198
c-27.3994 11.6924 -51.9219 10.7744 -72.0674 -15.0137c-8.04199 26.584 -30.6963 36.3857 -49.627 50.1396c-18.4951 13.4375 -28.958 31.2109 -25.999 54.6709c3.03516 24.0625 17.1943 40.9688 39.3359 48.7432c30.3281 10.6494 74.751 -0.99707 96.8408 -34.6904
c15.3623 -23.4316 19.4902 -49.3965 16.1523 -76.7783c-1.05176 -8.63086 -2.91406 -17.1641 -4.63574 -27.0713zM236.203 136.912c1.71875 -0.229492 3.30957 -1.41211 4.43457 -1.91602c-3.96777 -8.34961 -9.21387 -15.8154 -11.0352 -24.041
c-2.90137 -13.0986 -4.29004 -26.6641 -4.94824 -40.1006c-1.44727 -29.54 -18.707 -51.9746 -45.1504 -57.082c-23.0117 -4.44336 -50.999 3.9375 -66.1348 32.0674c-22.7461 42.2715 -11.6621 91.3359 27.459 119.188c14.4082 10.2578 30.1494 17.6123 46.9053 23.0283
c5.10352 1.64941 7.32617 0.267578 7.93066 -5.26562c2.74707 -25.1455 19.7236 -43.1045 40.5391 -45.8789zM289.091 141.368c23.5439 18.0078 35.9209 39.3945 22.7637 70.3154c25.9541 -6.67676 44.7383 6.33398 64.4297 15.6426
c18.624 8.80469 37.5068 12.1279 56.5449 2.26855c21.4424 -11.1045 30.3301 -30.0098 31.3525 -53.4492c1.19336 -27.3828 -26.9404 -62.5586 -57.7188 -72.2461c-34.5996 -10.8906 -65.332 -1.43555 -93.8359 18.4023c-7.9209 5.51367 -15.0615 12.1494 -23.5361 19.0664z
M291.482 192.847c-0.304688 -19.2686 -16.7705 -35.2705 -36.1807 -35.1611c-19.0791 0.108398 -35.6953 16.9863 -35.3936 35.9502c0.306641 19.2881 16.7871 35.3018 36.1826 35.1592c19.1318 -0.141602 35.6904 -16.9609 35.3916 -35.9482z" />
    <glyph glyph-name="uniE62F" unicode="&#xe62f;" 
d="M445.439 294.399c4.38867 -9.87305 6.58301 -21.5762 6.58301 -34.7412c0 -21.5781 -5.48438 -38.0352 -16.0918 -49.3721c-8.41113 6.21777 -18.6514 11.3369 -31.085 14.6289l-4.02246 1.46191l-8.41211 -25.6006l4.75391 -1.0957
c4.02246 -1.09863 8.04688 -2.56055 12.0693 -4.38867c-3.65625 -0.731445 -7.68066 -1.09766 -11.7031 -1.09766c-16.0908 0 -28.8906 5.12012 -39.1318 16.457c-10.2383 10.9717 -15.3594 27.4287 -15.3594 48.6416c0 21.9414 5.12109 38.3984 15.3594 49.3701
c10.6074 10.6074 23.4062 16.0908 39.1318 16.0908c10.6055 0 20.1143 -2.55957 28.5273 -8.04395c8.41016 -5.12109 14.9932 -12.8018 19.3809 -22.3105zM221.623 310.491c1.82812 -5.85059 4.3877 -12.7998 7.31445 -20.1143l15.7256 -42.0557h-45.3486l16.458 44.6162
c2.19434 5.85254 4.02246 11.7031 5.85059 17.5537zM512 400.092v-222.355v-48.6387c0 -25.5996 -22.3086 -46.8115 -50.1025 -46.8115h-116.297l-226.012 -146.286l52.2969 145.189h-121.783c-27.7939 0 -50.1025 22.3086 -50.1025 46.8105v40.2305v230.766
c0 27.7939 22.3086 49.0039 50.1025 49.0039h411.795c27.7939 0 50.1025 -21.21 50.1025 -47.9082zM55.9551 246.857h81.1875v29.623h-81.1875v44.252h93.9873v29.623h-126.17v-182.125h32.1826v78.627v0zM311.589 168.23l-13.5312 33.2783l-61.0752 148.847h-31.085
l-43.5205 -113.371l-26.332 -68.7539h34.0127l19.0156 52.2959h66.1943l20.1162 -52.2959h36.2051zM489.691 177.736l-4.75391 1.83105c-6.94824 2.92383 -14.9951 6.94824 -23.7725 12.4326c7.31543 8.04688 12.8018 17.1904 16.8242 27.4287
c4.38867 11.7031 6.94824 25.2344 6.94824 40.2305c0 17.5537 -3.6582 34.0107 -10.6074 47.9082c-7.3125 14.627 -17.5537 25.9639 -31.084 34.0107c-13.5322 8.04492 -28.8906 12.0693 -45.7148 12.0693c-16.458 0 -31.8174 -4.02441 -45.3486 -11.7031
c-13.5312 -7.68066 -23.7715 -19.0176 -31.085 -34.0107c-7.31445 -14.6299 -10.9727 -30.7217 -10.9727 -48.6406c0 -17.9199 3.6582 -34.0117 10.9736 -48.2754c6.94629 -14.2637 17.5527 -25.5996 31.084 -33.6445c13.5312 -8.04688 28.5244 -12.0693 44.9824 -12.0693
c14.9961 0 29.2568 3.29004 42.0586 9.875c11.7031 -9.14258 24.1357 -15.7275 35.8389 -20.1162l4.38867 -1.46191z" />
    <glyph glyph-name="uniE633" unicode="&#xe633;" 
d="M287.817 211.748c12.7988 -12.4336 20.1133 -29.2568 20.8457 -47.1768c0 -37.3037 -29.623 -67.292 -67.6562 -68.7539h-2.56055c-17.1895 0 -33.2812 6.58203 -45.3486 18.2852c-12.8008 12.4355 -20.4814 29.2568 -21.2119 47.542
c-0.731445 16.8242 5.48535 33.2822 17.1875 45.7148c12.8018 13.8975 30.7217 21.9443 50.835 22.6738h2.56055c16.8242 0 32.915 -6.21582 45.3486 -18.2852zM512 273.92v-7.67871c0 -1.09863 0 -1.83008 -0.366211 -2.56055
c0 -0.732422 -0.366211 -1.46387 -0.732422 -2.19434c-0.363281 -1.46387 -0.729492 -2.55957 -1.0957 -3.6582c-10.2412 -51.5645 -21.9424 -110.08 -33.2793 -166.766c-5.12012 -25.9639 -9.875 -49.3711 -14.2627 -72.0449
c-1.46484 -8.77637 -6.58301 -16.8232 -13.5312 -22.6738c-6.94922 -5.85254 -16.0918 -9.14258 -25.2344 -9.14258h-188.344h-196.389c-10.2393 0 -18.6514 2.92383 -24.502 9.14258c-4.02246 3.65625 -6.58301 8.04492 -9.50977 12.0674
c-1.09766 1.46387 -2.19434 3.29199 -3.29199 4.75391c-1.0957 1.46387 -1.46191 2.92676 -1.46191 4.75488v347.062c0 1.83008 0.366211 3.29199 1.46191 4.75391v0.366211c6.58301 17.1895 20.4805 26.332 40.2305 26.332h28.1582h28.1611
c16.457 0 29.623 0 42.0576 0.364258h1.0957c14.2637 0 25.2344 -5.48438 33.6475 -16.4551c4.38867 -5.85254 8.77637 -12.0693 13.8945 -19.3838c0.732422 -0.732422 0.732422 -1.09668 2.56055 -1.09668h60.3438h29.9893h29.9883c41.3262 0 85.9424 0 129.829 0.364258
h0.365234c11.3379 0 23.04 -5.11816 31.085 -13.8975c6.58301 -7.3125 10.2412 -16.0889 9.50977 -25.2314c-0.366211 -5.12109 -0.366211 -10.2412 -0.366211 -16.0918v-0.732422c8.04688 -1.82812 14.6289 -5.48633 19.3838 -11.3369
c2.92383 -3.29297 5.11816 -6.94824 6.94824 -10.6074c0.729492 -1.0957 1.46191 -2.55762 2.55762 -4.02148c0.732422 -1.09668 1.09863 -2.56055 1.09863 -4.38867zM363.52 70.9482l-40.5928 40.2285c0.729492 0.731445 1.46191 1.46387 1.82715 2.92578
c17.1885 34.3779 17.1885 66.9268 -0.365234 96.5488c-17.9199 32.5498 -47.9082 49.7373 -86.3086 49.7373c-25.9658 0 -50.4688 -10.2393 -68.3887 -28.8906c-19.0176 -19.75 -28.8926 -45.7148 -28.1602 -73.5088c1.46191 -32.5498 19.748 -61.8066 48.2744 -78.2637
c27.7949 -16.0918 61.4395 -17.1875 89.6006 -2.92676c2.19434 0.732422 4.02246 1.46484 5.85059 2.56055c1.82812 0.732422 4.3877 1.82812 5.48633 1.82812c1.46191 0 3.65625 -2.55859 5.12012 -4.75195c1.09668 -1.09863 1.82812 -2.56055 2.9248 -3.29297
l33.2812 -33.2783c4.75391 -5.12109 10.9707 -8.04688 17.1875 -8.04688c1.09863 0 2.56055 0 3.6582 0.366211c7.67871 1.0957 13.5322 6.58203 16.4561 13.5312c3.6582 9.50879 1.83008 17.5527 -5.85156 25.2334zM446.172 319.634c0 2.92676 0 4.38867 -0.366211 5.48633
c-1.09863 0 -2.92676 0.366211 -6.58203 0.366211h-55.9561h-55.9531h-137.143c-10.9707 0 -19.75 3.65625 -26.6982 10.9707c-3.29102 3.65723 -6.2168 7.67871 -9.14355 11.3379c-3.29004 4.3877 -6.58203 9.14258 -9.50684 13.5312l-0.366211 0.365234
c0 0.366211 -0.365234 0.366211 -1.46387 0.366211h-56.3193h-19.748h-19.75h-6.58203c-1.0957 0 -2.19434 0 -3.29004 -0.366211h-1.09863v-0.365234v-4.02246v-0.732422v-151.772c0.366211 1.46484 0.732422 2.92676 0.732422 4.38867
c4.38867 19.75 8.41113 40.5957 12.4336 60.71c4.3877 23.7715 19.0176 35.4727 43.8857 35.4727h352.915v14.2637z" />
    <glyph glyph-name="uniE634" unicode="&#xe634;" 
d="M193.829 192h128v-171.886l-128 -84.1143v256zM0 448h512v-43.8857l-190.171 -193.828h-128l-193.829 193.828v43.8857z" />
    <glyph glyph-name="uniE62E" unicode="&#xe62e;" 
d="M66.9258 362.058h-19.749h-6.58203c-1.09766 0 -2.19434 0 -3.29199 -0.366211h-1.09668v-0.365234v-4.02344v-0.731445v-151.771c0.365234 1.46289 0.731445 2.92578 0.731445 4.38867c4.38867 19.749 8.41113 40.5947 12.4336 60.709
c4.38867 23.7715 19.0176 35.4736 43.8857 35.4736h352.915v14.2637c0 2.9248 0 4.3877 -0.366211 5.48535c-1.09668 0 -2.92578 0.365234 -6.58301 0.365234h-55.9541h-55.9541h-137.143c-10.9717 0 -19.749 3.65723 -26.6973 10.9717
c-3.29199 3.65723 -6.21777 7.67969 -9.14355 11.3369c-3.29102 4.38867 -6.58203 9.14355 -9.50781 13.5322l-0.366211 0.365234c0 0.366211 -0.365234 0.366211 -1.46289 0.366211h-56.3203h-19.748zM1.46289 370.103c6.58301 17.1885 20.4795 26.332 40.2285 26.332
h28.1602h28.1602c16.457 0 29.623 0 42.0566 0.365234h1.09766c14.2627 0 25.2344 -5.48535 33.6455 -16.457c4.38867 -5.85156 8.77734 -12.0684 13.8975 -19.3828c0.731445 -0.731445 0.731445 -1.09668 2.55957 -1.09668h60.3428h29.9883h29.9893
c41.3252 0 85.9424 0 129.828 0.365234h0.366211c11.3369 0 23.04 -5.12012 31.085 -13.8975c6.58301 -7.31348 10.2402 -16.0908 9.50879 -25.2344c-0.365234 -5.11914 -0.365234 -10.2393 -0.365234 -16.0908v-0.731445c8.0459 -1.8291 14.6279 -5.48633 19.3828 -11.3369
c2.92578 -3.29199 5.12012 -6.94922 6.94824 -10.6064c0.731445 -1.09668 1.46289 -2.55957 2.56055 -4.02246c0.731445 -1.09668 1.09668 -2.55957 1.09668 -4.38867v-7.67969c0 -1.09766 0 -1.8291 -0.365234 -2.56055c0 -0.731445 -0.366211 -1.46289 -0.731445 -2.19434
c-0.366211 -1.46289 -0.731445 -2.55957 -1.09766 -3.65723c-10.2402 -51.5654 -21.9424 -110.079 -33.2803 -166.766c-5.12012 -25.9658 -9.87402 -49.3711 -14.2627 -72.0449c-1.46289 -8.77734 -6.58301 -16.8232 -13.5312 -22.6748s-16.0918 -9.14258 -25.2344 -9.14258
h-188.343h-196.389c-10.2402 0 -18.6514 2.92578 -24.5029 9.14258c-4.02246 3.65723 -6.58301 8.0459 -9.50879 12.0684c-1.09668 1.46289 -2.19434 3.29199 -3.29102 4.75488c-1.09766 1.46289 -1.46289 2.92578 -1.46289 4.75391v347.062
c0 1.8291 0.365234 3.29199 1.46289 4.75488v0.365234z" />
    <glyph glyph-name="uniE636" unicode="&#xe636;" 
d="M336.458 126.172h-153.601c-7.31543 0 -10.9717 0 -18.2861 -7.31445c-25.6006 -25.6006 -47.542 -47.543 -73.1426 -73.1436c-10.9707 -10.9707 -25.8613 -13.2471 -31.293 -1.78125c-1.61328 4.69043 -1.62207 12.7529 -1.62207 16.4111v65.8281h-18.2861
c-27.8076 0 -40.2275 29.2568 -40.2275 51.2012v168.228c0 29.2568 21.9424 54.8574 51.2012 54.8574h285.257c29.2559 0 51.1982 -21.9424 51.1982 -51.2012v-171.884c0 -29.2588 -21.9424 -51.2012 -51.1982 -51.2012zM471.772 294.399
c25.5977 -7.3125 40.2275 -29.2568 40.2275 -54.8574v-128c0 -29.2559 -14.6299 -47.542 -40.2275 -58.5127c-3.6582 0 -3.6582 -3.65625 -3.6582 -7.31543v-29.2559c0 -14.6299 -7.31543 -25.6006 -18.2861 -29.2568c-14.627 -3.65918 -25.6006 -3.65918 -36.5713 7.31445
l-54.8574 54.8574c-3.65625 3.65625 -7.31445 3.65625 -10.9707 3.65625h-109.715c-25.5996 0 -47.542 14.6289 -54.8564 36.5713c-2.10254 6.88867 -3.78418 10.6582 3.84766 10.9707h14.4375c7.31543 0 15.7041 0.645508 16.8516 -7.38574
c1.43457 -8.03125 12.4053 -7.24121 19.7197 -7.24121h124.344c3.65625 0 7.3125 -3.6582 10.9717 -7.31445c18.2852 -18.2861 36.5713 -36.5723 54.8564 -54.8574l7.31543 -6.93945v69.1113h18.2852c14.6279 0 25.5986 10.9707 25.5986 25.5977v128
c0 14.6299 -10.9707 25.6006 -25.5986 25.6006h-29.2588h-7.3125v7.31543v24.6689c19.7236 -0.564453 36.5713 0.930664 54.8574 -2.72754z" />
    </font>
</defs>
</svg>
